M48
; DRILL file {KiCad 8.0.3} date 2024-06-27T20:35:16-0400
; FORMAT={-:-/ absolute / inch / decimal}
; #@! TF.CreationDate,2024-06-27T20:35:16-04:00
; #@! TF.GenerationSoftware,Kicad,Pcbnew,8.0.3
; #@! TF.FileFunction,Plated,1,4,PTH
FMAT,2
INCH
; #@! TA.AperFunction,Plated,PTH,ViaDrill
T1C0.0118
; #@! TA.AperFunction,Plated,PTH,ComponentDrill
T2C0.0118
; #@! TA.AperFunction,Plated,PTH,ComponentDrill
T3C0.0307
; #@! TA.AperFunction,Plated,PTH,ComponentDrill
T4C0.0394
; #@! TA.AperFunction,Plated,PTH,ComponentDrill
T5C0.0701
; #@! TA.AperFunction,Plated,PTH,ComponentDrill
T6C0.0748
; #@! TA.AperFunction,Plated,PTH,ComponentDrill
T7C0.1693
%
G90
G05
T1
X0.0673Y-0.6087
X0.1131Y-0.6087
X0.161Y-0.6087
X0.2744Y-0.5035
X0.9709Y-0.322
X0.9709Y-0.3811
X0.9709Y-0.4402
X1.1654Y-0.2953
X1.1654Y-0.3354
X1.1654Y-0.3862
X1.1654Y-0.4374
X1.1654Y-0.4886
X1.1654Y-0.5146
X1.1654Y-0.5401
X1.1654Y-0.5657
X1.2787Y-0.5398
X1.2795Y-0.3228
X1.3661Y-0.3228
X1.3724Y-0.5398
X1.4882Y-0.3346
X1.4882Y-0.3862
X1.4882Y-0.4374
X1.4882Y-0.5146
X1.4882Y-0.5402
X1.5039Y-0.5654
T2
X0.4927Y-0.3148
X0.4927Y-0.3621
X0.4927Y-0.4132
X0.4927Y-0.4566
X0.54Y-0.3148
X0.54Y-0.3621
X0.54Y-0.4132
X0.54Y-0.4566
T3
X0.1575Y-0.8287
X0.1575Y-1.0846
X0.1969Y-0.9075
X0.1969Y-1.0059
X0.2362Y-0.8287
X0.2362Y-1.0846
X0.2756Y-0.9075
X0.2756Y-1.0059
X0.315Y-0.8287
X0.315Y-1.0846
X0.3543Y-0.9075
X0.3543Y-1.0059
X0.3937Y-0.8287
X0.3937Y-1.0846
X0.5118Y-0.9075
X0.5118Y-1.0059
X0.5512Y-0.8287
X0.5512Y-1.0846
X0.5906Y-0.9075
X0.5906Y-1.0059
X0.6299Y-0.8287
X0.6299Y-1.0846
X0.6693Y-0.9075
X0.6693Y-1.0059
X0.7087Y-0.8287
X0.7087Y-1.0846
X0.748Y-0.9075
X0.748Y-1.0059
X0.7874Y-0.8287
X0.7874Y-1.0846
X0.8268Y-0.9075
X0.8268Y-1.0059
X0.8661Y-0.8287
X0.8661Y-1.0846
X0.9055Y-0.9075
X0.9055Y-1.0059
X1.6929Y-0.315
X1.6929Y-0.3937
X1.6929Y-0.4724
X1.6929Y-0.5512
X1.6929Y-0.6299
X1.6929Y-0.7874
X1.6929Y-0.8661
X1.6929Y-0.9449
X1.6929Y-1.0236
X1.7717Y-0.2756
X1.7717Y-0.3543
X1.7717Y-0.4331
X1.7717Y-0.5118
X1.7717Y-0.5906
X1.7717Y-0.6693
X1.7717Y-0.8268
X1.7717Y-0.9055
X1.7717Y-0.9843
X1.8701Y-0.2756
X1.8701Y-0.3543
X1.8701Y-0.4331
X1.8701Y-0.5118
X1.8701Y-0.5906
X1.8701Y-0.6693
X1.8701Y-0.8268
X1.8701Y-0.9055
X1.8701Y-0.9843
X1.9488Y-0.315
X1.9488Y-0.3937
X1.9488Y-0.4724
X1.9488Y-0.5512
X1.9488Y-0.6299
X1.9488Y-0.7874
X1.9488Y-0.8661
X1.9488Y-0.9449
X1.9488Y-1.0236
X2.2835Y-0.315
X2.2835Y-0.3937
X2.2835Y-0.4724
X2.2835Y-0.5512
X2.2835Y-0.6299
X2.2835Y-0.7874
X2.2835Y-0.8661
X2.2835Y-0.9449
X2.2835Y-1.0236
X2.3622Y-0.2756
X2.3622Y-0.3543
X2.3622Y-0.4331
X2.3622Y-0.5118
X2.3622Y-0.5906
X2.3622Y-0.6693
X2.3622Y-0.8268
X2.3622Y-0.9055
X2.3622Y-0.9843
X2.4606Y-0.2756
X2.4606Y-0.3543
X2.4606Y-0.4331
X2.4606Y-0.5118
X2.4606Y-0.5906
X2.4606Y-0.6693
X2.4606Y-0.8268
X2.4606Y-0.9055
X2.4606Y-0.9843
X2.5394Y-0.315
X2.5394Y-0.3937
X2.5394Y-0.4724
X2.5394Y-0.5512
X2.5394Y-0.6299
X2.5394Y-0.7874
X2.5394Y-0.8661
X2.5394Y-0.9449
X2.5394Y-1.0236
X2.874Y-0.315
X2.874Y-0.3937
X2.874Y-0.4724
X2.874Y-0.5512
X2.874Y-0.6299
X2.874Y-0.7874
X2.874Y-0.8661
X2.874Y-0.9449
X2.874Y-1.0236
X2.9528Y-0.2756
X2.9528Y-0.3543
X2.9528Y-0.4331
X2.9528Y-0.5118
X2.9528Y-0.5906
X2.9528Y-0.6693
X2.9528Y-0.8268
X2.9528Y-0.9055
X2.9528Y-0.9843
X3.0512Y-0.2756
X3.0512Y-0.3543
X3.0512Y-0.4331
X3.0512Y-0.5118
X3.0512Y-0.5906
X3.0512Y-0.6693
X3.0512Y-0.8268
X3.0512Y-0.9055
X3.0512Y-0.9843
X3.1299Y-0.315
X3.1299Y-0.3937
X3.1299Y-0.4724
X3.1299Y-0.5512
X3.1299Y-0.6299
X3.1299Y-0.7874
X3.1299Y-0.8661
X3.1299Y-0.9449
X3.1299Y-1.0236
X3.4646Y-0.315
X3.4646Y-0.3937
X3.4646Y-0.4724
X3.4646Y-0.5512
X3.4646Y-0.6299
X3.4646Y-0.7874
X3.4646Y-0.8661
X3.4646Y-0.9449
X3.4646Y-1.0236
X3.5433Y-0.2756
X3.5433Y-0.3543
X3.5433Y-0.4331
X3.5433Y-0.5118
X3.5433Y-0.5906
X3.5433Y-0.6693
X3.5433Y-0.8268
X3.5433Y-0.9055
X3.5433Y-0.9843
X3.6417Y-0.2756
X3.6417Y-0.3543
X3.6417Y-0.4331
X3.6417Y-0.5118
X3.6417Y-0.5906
X3.6417Y-0.6693
X3.6417Y-0.8268
X3.6417Y-0.9055
X3.6417Y-0.9843
X3.7205Y-0.315
X3.7205Y-0.3937
X3.7205Y-0.4724
X3.7205Y-0.5512
X3.7205Y-0.6299
X3.7205Y-0.7874
X3.7205Y-0.8661
X3.7205Y-0.9449
X3.7205Y-1.0236
X4.0551Y-0.315
X4.0551Y-0.3937
X4.0551Y-0.4724
X4.0551Y-0.5512
X4.0551Y-0.6299
X4.0551Y-0.7874
X4.0551Y-0.8661
X4.0551Y-0.9449
X4.0551Y-1.0236
X4.1339Y-0.2756
X4.1339Y-0.3543
X4.1339Y-0.4331
X4.1339Y-0.5118
X4.1339Y-0.5906
X4.1339Y-0.6693
X4.1339Y-0.8268
X4.1339Y-0.9055
X4.1339Y-0.9843
X4.2323Y-0.2756
X4.2323Y-0.3543
X4.2323Y-0.4331
X4.2323Y-0.5118
X4.2323Y-0.5906
X4.2323Y-0.6693
X4.2323Y-0.8268
X4.2323Y-0.9055
X4.2323Y-0.9843
X4.311Y-0.315
X4.311Y-0.3937
X4.311Y-0.4724
X4.311Y-0.5512
X4.311Y-0.6299
X4.311Y-0.7874
X4.311Y-0.8661
X4.311Y-0.9449
X4.311Y-1.0236
X4.6457Y-0.315
X4.6457Y-0.3937
X4.6457Y-0.4724
X4.6457Y-0.5512
X4.6457Y-0.6299
X4.6457Y-0.7874
X4.6457Y-0.8661
X4.6457Y-0.9449
X4.6457Y-1.0236
X4.7244Y-0.2756
X4.7244Y-0.3543
X4.7244Y-0.4331
X4.7244Y-0.5118
X4.7244Y-0.5906
X4.7244Y-0.6693
X4.7244Y-0.8268
X4.7244Y-0.9055
X4.7244Y-0.9843
X4.8228Y-0.2756
X4.8228Y-0.3543
X4.8228Y-0.4331
X4.8228Y-0.5118
X4.8228Y-0.5906
X4.8228Y-0.6693
X4.8228Y-0.8268
X4.8228Y-0.9055
X4.8228Y-0.9843
X4.9016Y-0.315
X4.9016Y-0.3937
X4.9016Y-0.4724
X4.9016Y-0.5512
X4.9016Y-0.6299
X4.9016Y-0.7874
X4.9016Y-0.8661
X4.9016Y-0.9449
X4.9016Y-1.0236
X5.2362Y-0.315
X5.2362Y-0.3937
X5.2362Y-0.4724
X5.2362Y-0.5512
X5.2362Y-0.6299
X5.2362Y-0.7874
X5.2362Y-0.8661
X5.2362Y-0.9449
X5.2362Y-1.0236
X5.315Y-0.2756
X5.315Y-0.3543
X5.315Y-0.4331
X5.315Y-0.5118
X5.315Y-0.5906
X5.315Y-0.6693
X5.315Y-0.8268
X5.315Y-0.9055
X5.315Y-0.9843
X5.4134Y-0.2756
X5.4134Y-0.3543
X5.4134Y-0.4331
X5.4134Y-0.5118
X5.4134Y-0.5906
X5.4134Y-0.6693
X5.4134Y-0.8268
X5.4134Y-0.9055
X5.4134Y-0.9843
X5.4921Y-0.315
X5.4921Y-0.3937
X5.4921Y-0.4724
X5.4921Y-0.5512
X5.4921Y-0.6299
X5.4921Y-0.7874
X5.4921Y-0.8661
X5.4921Y-0.9449
X5.4921Y-1.0236
X5.8268Y-0.315
X5.8268Y-0.3937
X5.8268Y-0.4724
X5.8268Y-0.5512
X5.8268Y-0.6299
X5.8268Y-0.7874
X5.8268Y-0.8661
X5.8268Y-0.9449
X5.8268Y-1.0236
X5.9055Y-0.2756
X5.9055Y-0.3543
X5.9055Y-0.4331
X5.9055Y-0.5118
X5.9055Y-0.5906
X5.9055Y-0.6693
X5.9055Y-0.8268
X5.9055Y-0.9055
X5.9055Y-0.9843
X6.0039Y-0.2756
X6.0039Y-0.3543
X6.0039Y-0.4331
X6.0039Y-0.5118
X6.0039Y-0.5906
X6.0039Y-0.6693
X6.0039Y-0.8268
X6.0039Y-0.9055
X6.0039Y-0.9843
X6.0827Y-0.315
X6.0827Y-0.3937
X6.0827Y-0.4724
X6.0827Y-0.5512
X6.0827Y-0.6299
X6.0827Y-0.7874
X6.0827Y-0.8661
X6.0827Y-0.9449
X6.0827Y-1.0236
T4
X2.0866Y-0.4126
X2.0866Y-0.5126
X2.0866Y-0.6126
X2.0866Y-0.7126
X2.6772Y-0.4087
X2.6772Y-0.5087
X2.6772Y-0.6087
X2.6772Y-0.7087
X3.2677Y-0.3988
X3.2677Y-0.4988
X3.2677Y-0.5988
X3.2677Y-0.6988
X3.8583Y-0.402
X3.8583Y-0.502
X3.8583Y-0.602
X3.8583Y-0.702
X4.4488Y-0.4031
X4.4488Y-0.5031
X4.4488Y-0.6031
X4.4488Y-0.7031
X5.0394Y-0.4047
X5.0394Y-0.5047
X5.0394Y-0.6047
X5.0394Y-0.7047
X5.6299Y-0.402
X5.6299Y-0.502
X5.6299Y-0.602
X5.6299Y-0.702
X6.2205Y-0.402
X6.2205Y-0.502
X6.2205Y-0.602
X6.2205Y-0.702
X7.6693Y-0.0992
X7.6693Y-0.5323
T5
X6.5945Y-0.4543
X6.5945Y-0.8449
X6.7283Y-0.4543
X6.7283Y-0.8449
T6
X7.2756Y-0.2173
X7.2756Y-0.4142
T7
X1.1811Y-0.7874
X7.0866Y-0.7874
X7.4803Y-0.7874
M30
