%TF.GenerationSoftware,KiCad,Pcbnew,8.0.3*%
%TF.CreationDate,2024-06-27T20:35:16-04:00*%
%TF.ProjectId,backplane,6261636b-706c-4616-9e65-2e6b69636164,v0.0.0*%
%TF.SameCoordinates,Original*%
%TF.FileFunction,Legend,Top*%
%TF.FilePolarity,Positive*%
%FSLAX46Y46*%
G04 Gerber Fmt 4.6, Leading zero omitted, Abs format (unit mm)*
G04 Created by KiCad (PCBNEW 8.0.3) date 2024-06-27 20:35:16*
%MOMM*%
%LPD*%
G01*
G04 APERTURE LIST*
G04 Aperture macros list*
%AMRoundRect*
0 Rectangle with rounded corners*
0 $1 Rounding radius*
0 $2 $3 $4 $5 $6 $7 $8 $9 X,Y pos of 4 corners*
0 Add a 4 corners polygon primitive as box body*
4,1,4,$2,$3,$4,$5,$6,$7,$8,$9,$2,$3,0*
0 Add four circle primitives for the rounded corners*
1,1,$1+$1,$2,$3*
1,1,$1+$1,$4,$5*
1,1,$1+$1,$6,$7*
1,1,$1+$1,$8,$9*
0 Add four rect primitives between the rounded corners*
20,1,$1+$1,$2,$3,$4,$5,0*
20,1,$1+$1,$4,$5,$6,$7,0*
20,1,$1+$1,$6,$7,$8,$9,0*
20,1,$1+$1,$8,$9,$2,$3,0*%
G04 Aperture macros list end*
%ADD10C,0.200000*%
%ADD11C,0.225000*%
%ADD12C,0.300000*%
%ADD13C,0.375000*%
%ADD14C,0.600000*%
%ADD15C,0.150000*%
%ADD16C,0.120000*%
%ADD17C,0.127000*%
%ADD18C,7.500000*%
%ADD19R,1.700000X1.700000*%
%ADD20O,1.700000X1.700000*%
%ADD21R,3.500000X2.350000*%
%ADD22C,2.400000*%
%ADD23RoundRect,0.102000X-0.644000X0.644000X-0.644000X-0.644000X0.644000X-0.644000X0.644000X0.644000X0*%
%ADD24C,1.492000*%
%ADD25RoundRect,0.250000X1.000000X0.650000X-1.000000X0.650000X-1.000000X-0.650000X1.000000X-0.650000X0*%
%ADD26RoundRect,0.250000X-1.500000X-0.550000X1.500000X-0.550000X1.500000X0.550000X-1.500000X0.550000X0*%
%ADD27RoundRect,0.225000X0.250000X-0.225000X0.250000X0.225000X-0.250000X0.225000X-0.250000X-0.225000X0*%
%ADD28RoundRect,0.200000X-0.200000X-0.275000X0.200000X-0.275000X0.200000X0.275000X-0.200000X0.275000X0*%
%ADD29RoundRect,0.218750X-0.218750X-0.256250X0.218750X-0.256250X0.218750X0.256250X-0.218750X0.256250X0*%
%ADD30RoundRect,0.100000X0.637500X0.100000X-0.637500X0.100000X-0.637500X-0.100000X0.637500X-0.100000X0*%
%ADD31RoundRect,0.102000X0.644000X0.644000X-0.644000X0.644000X-0.644000X-0.644000X0.644000X-0.644000X0*%
%ADD32C,2.780000*%
%ADD33RoundRect,0.250000X-0.550000X1.500000X-0.550000X-1.500000X0.550000X-1.500000X0.550000X1.500000X0*%
%ADD34RoundRect,0.200000X0.200000X0.275000X-0.200000X0.275000X-0.200000X-0.275000X0.200000X-0.275000X0*%
%ADD35C,1.400000*%
%ADD36R,3.500000X3.500000*%
%ADD37C,3.500000*%
%ADD38R,1.550000X0.600000*%
%ADD39R,2.600000X3.100000*%
%ADD40RoundRect,0.250000X-0.650000X0.325000X-0.650000X-0.325000X0.650000X-0.325000X0.650000X0.325000X0*%
G04 APERTURE END LIST*
D10*
X159822054Y-10819600D02*
X159964911Y-10867219D01*
X159964911Y-10867219D02*
X160203006Y-10867219D01*
X160203006Y-10867219D02*
X160298244Y-10819600D01*
X160298244Y-10819600D02*
X160345863Y-10771980D01*
X160345863Y-10771980D02*
X160393482Y-10676742D01*
X160393482Y-10676742D02*
X160393482Y-10581504D01*
X160393482Y-10581504D02*
X160345863Y-10486266D01*
X160345863Y-10486266D02*
X160298244Y-10438647D01*
X160298244Y-10438647D02*
X160203006Y-10391028D01*
X160203006Y-10391028D02*
X160012530Y-10343409D01*
X160012530Y-10343409D02*
X159917292Y-10295790D01*
X159917292Y-10295790D02*
X159869673Y-10248171D01*
X159869673Y-10248171D02*
X159822054Y-10152933D01*
X159822054Y-10152933D02*
X159822054Y-10057695D01*
X159822054Y-10057695D02*
X159869673Y-9962457D01*
X159869673Y-9962457D02*
X159917292Y-9914838D01*
X159917292Y-9914838D02*
X160012530Y-9867219D01*
X160012530Y-9867219D02*
X160250625Y-9867219D01*
X160250625Y-9867219D02*
X160393482Y-9914838D01*
X161393482Y-10771980D02*
X161345863Y-10819600D01*
X161345863Y-10819600D02*
X161203006Y-10867219D01*
X161203006Y-10867219D02*
X161107768Y-10867219D01*
X161107768Y-10867219D02*
X160964911Y-10819600D01*
X160964911Y-10819600D02*
X160869673Y-10724361D01*
X160869673Y-10724361D02*
X160822054Y-10629123D01*
X160822054Y-10629123D02*
X160774435Y-10438647D01*
X160774435Y-10438647D02*
X160774435Y-10295790D01*
X160774435Y-10295790D02*
X160822054Y-10105314D01*
X160822054Y-10105314D02*
X160869673Y-10010076D01*
X160869673Y-10010076D02*
X160964911Y-9914838D01*
X160964911Y-9914838D02*
X161107768Y-9867219D01*
X161107768Y-9867219D02*
X161203006Y-9867219D01*
X161203006Y-9867219D02*
X161345863Y-9914838D01*
X161345863Y-9914838D02*
X161393482Y-9962457D01*
X162298244Y-10867219D02*
X161822054Y-10867219D01*
X161822054Y-10867219D02*
X161822054Y-9867219D01*
D11*
G36*
X20265453Y-5812976D02*
G01*
X20244404Y-5889970D01*
X20222474Y-5966162D01*
X20199662Y-6041553D01*
X20175969Y-6116142D01*
X20151394Y-6189930D01*
X20125937Y-6262917D01*
X20099599Y-6335102D01*
X20072379Y-6406486D01*
X20044833Y-6476542D01*
X20017516Y-6544743D01*
X19983692Y-6627386D01*
X19950225Y-6707131D01*
X19917117Y-6783978D01*
X19884366Y-6857927D01*
X19858422Y-6915000D01*
X19681102Y-6915000D01*
X19648628Y-6843369D01*
X19615779Y-6768840D01*
X19582554Y-6691414D01*
X19548953Y-6611089D01*
X19514977Y-6527866D01*
X19487525Y-6459202D01*
X19466779Y-6406486D01*
X19439559Y-6335102D01*
X19413221Y-6262917D01*
X19387765Y-6189930D01*
X19363189Y-6116142D01*
X19339496Y-6041553D01*
X19316684Y-5966162D01*
X19294754Y-5889970D01*
X19273705Y-5812976D01*
X19484731Y-5812976D01*
X19503236Y-5885146D01*
X19523992Y-5960606D01*
X19544815Y-6032062D01*
X19566961Y-6104469D01*
X19589895Y-6176518D01*
X19613615Y-6248209D01*
X19618454Y-6262505D01*
X19643026Y-6333037D01*
X19667741Y-6402210D01*
X19695093Y-6476729D01*
X19697588Y-6483422D01*
X19724775Y-6554034D01*
X19753249Y-6624943D01*
X19773792Y-6673932D01*
X19803629Y-6602016D01*
X19832351Y-6528978D01*
X19849630Y-6483422D01*
X19877163Y-6409052D01*
X19901892Y-6340015D01*
X19926336Y-6269619D01*
X19928764Y-6262505D01*
X19952836Y-6190885D01*
X19976048Y-6118907D01*
X19998402Y-6046572D01*
X20002770Y-6032062D01*
X20023593Y-5960606D01*
X20044349Y-5885146D01*
X20062854Y-5812976D01*
X20265453Y-5812976D01*
G37*
G36*
X20971388Y-5444671D02*
G01*
X21047080Y-5465227D01*
X21115713Y-5499488D01*
X21177288Y-5547453D01*
X21231805Y-5609123D01*
X21248408Y-5632725D01*
X21285877Y-5697675D01*
X21316994Y-5770712D01*
X21341762Y-5851835D01*
X21360178Y-5941043D01*
X21370339Y-6018231D01*
X21376436Y-6100595D01*
X21378468Y-6188133D01*
X21376436Y-6275671D01*
X21370339Y-6358034D01*
X21360178Y-6435223D01*
X21345953Y-6507236D01*
X21322456Y-6589976D01*
X21292608Y-6664630D01*
X21256410Y-6731198D01*
X21248408Y-6743541D01*
X21196244Y-6809779D01*
X21137022Y-6862312D01*
X21070742Y-6901141D01*
X20997403Y-6926265D01*
X20917006Y-6937685D01*
X20888639Y-6938447D01*
X20806001Y-6931595D01*
X20730369Y-6911038D01*
X20661745Y-6876777D01*
X20600127Y-6828812D01*
X20545516Y-6767143D01*
X20528869Y-6743541D01*
X20491506Y-6678590D01*
X20460476Y-6605553D01*
X20435779Y-6524431D01*
X20417414Y-6435223D01*
X20407282Y-6358034D01*
X20401203Y-6275671D01*
X20399176Y-6188133D01*
X20605806Y-6188133D01*
X20607129Y-6261563D01*
X20611643Y-6339526D01*
X20619361Y-6414546D01*
X20632430Y-6490692D01*
X20652518Y-6564580D01*
X20665889Y-6600659D01*
X20701368Y-6668107D01*
X20750037Y-6724436D01*
X20753450Y-6727421D01*
X20818974Y-6764012D01*
X20888639Y-6774316D01*
X20962553Y-6762592D01*
X21023827Y-6727421D01*
X21073195Y-6672100D01*
X21109328Y-6605596D01*
X21111388Y-6600659D01*
X21136272Y-6525906D01*
X21151797Y-6453572D01*
X21157550Y-6414546D01*
X21165476Y-6339526D01*
X21170112Y-6261563D01*
X21171472Y-6188133D01*
X21170112Y-6114738D01*
X21165476Y-6036897D01*
X21157550Y-5962086D01*
X21144704Y-5885716D01*
X21124742Y-5811703D01*
X21111388Y-5775607D01*
X21075909Y-5708239D01*
X21027240Y-5652174D01*
X21023827Y-5649211D01*
X20958303Y-5612334D01*
X20888639Y-5601950D01*
X20814725Y-5613765D01*
X20753450Y-5649211D01*
X20704083Y-5704257D01*
X20667949Y-5770670D01*
X20665889Y-5775607D01*
X20640935Y-5850429D01*
X20625239Y-5922935D01*
X20619361Y-5962086D01*
X20611643Y-6036897D01*
X20607129Y-6114738D01*
X20605806Y-6188133D01*
X20399176Y-6188133D01*
X20401203Y-6100595D01*
X20407282Y-6018231D01*
X20417414Y-5941043D01*
X20431599Y-5869030D01*
X20455030Y-5786290D01*
X20484794Y-5711636D01*
X20520890Y-5645068D01*
X20528869Y-5632725D01*
X20581145Y-5566487D01*
X20640427Y-5513954D01*
X20706716Y-5475125D01*
X20780012Y-5450000D01*
X20860314Y-5438580D01*
X20888639Y-5437819D01*
X20971388Y-5444671D01*
G37*
G36*
X21878555Y-6797763D02*
G01*
X21860546Y-6868918D01*
X21840453Y-6896681D01*
X21775579Y-6934368D01*
X21737505Y-6938447D01*
X21663266Y-6920460D01*
X21633824Y-6896681D01*
X21599073Y-6828546D01*
X21596088Y-6797763D01*
X21615582Y-6723892D01*
X21633824Y-6699211D01*
X21699201Y-6661193D01*
X21737505Y-6657079D01*
X21811263Y-6675224D01*
X21840453Y-6699211D01*
X21875541Y-6767009D01*
X21878555Y-6797763D01*
G37*
G36*
X22671319Y-5444671D02*
G01*
X22747010Y-5465227D01*
X22815643Y-5499488D01*
X22877218Y-5547453D01*
X22931735Y-5609123D01*
X22948339Y-5632725D01*
X22985807Y-5697675D01*
X23016925Y-5770712D01*
X23041692Y-5851835D01*
X23060108Y-5941043D01*
X23070269Y-6018231D01*
X23076366Y-6100595D01*
X23078398Y-6188133D01*
X23076366Y-6275671D01*
X23070269Y-6358034D01*
X23060108Y-6435223D01*
X23045883Y-6507236D01*
X23022386Y-6589976D01*
X22992538Y-6664630D01*
X22956340Y-6731198D01*
X22948339Y-6743541D01*
X22896175Y-6809779D01*
X22836952Y-6862312D01*
X22770672Y-6901141D01*
X22697333Y-6926265D01*
X22616936Y-6937685D01*
X22588569Y-6938447D01*
X22505931Y-6931595D01*
X22430300Y-6911038D01*
X22361675Y-6876777D01*
X22300057Y-6828812D01*
X22245446Y-6767143D01*
X22228799Y-6743541D01*
X22191437Y-6678590D01*
X22160406Y-6605553D01*
X22135709Y-6524431D01*
X22117344Y-6435223D01*
X22107212Y-6358034D01*
X22101133Y-6275671D01*
X22099106Y-6188133D01*
X22305736Y-6188133D01*
X22307059Y-6261563D01*
X22311574Y-6339526D01*
X22319291Y-6414546D01*
X22332360Y-6490692D01*
X22352448Y-6564580D01*
X22365819Y-6600659D01*
X22401298Y-6668107D01*
X22449968Y-6724436D01*
X22453381Y-6727421D01*
X22518904Y-6764012D01*
X22588569Y-6774316D01*
X22662483Y-6762592D01*
X22723757Y-6727421D01*
X22773125Y-6672100D01*
X22809259Y-6605596D01*
X22811318Y-6600659D01*
X22836203Y-6525906D01*
X22851727Y-6453572D01*
X22857480Y-6414546D01*
X22865407Y-6339526D01*
X22870043Y-6261563D01*
X22871402Y-6188133D01*
X22870043Y-6114738D01*
X22865407Y-6036897D01*
X22857480Y-5962086D01*
X22844635Y-5885716D01*
X22824672Y-5811703D01*
X22811318Y-5775607D01*
X22775839Y-5708239D01*
X22727170Y-5652174D01*
X22723757Y-5649211D01*
X22658234Y-5612334D01*
X22588569Y-5601950D01*
X22514655Y-5613765D01*
X22453381Y-5649211D01*
X22404013Y-5704257D01*
X22367879Y-5770670D01*
X22365819Y-5775607D01*
X22340865Y-5850429D01*
X22325169Y-5922935D01*
X22319291Y-5962086D01*
X22311574Y-6036897D01*
X22307059Y-6114738D01*
X22305736Y-6188133D01*
X22099106Y-6188133D01*
X22101133Y-6100595D01*
X22107212Y-6018231D01*
X22117344Y-5941043D01*
X22131530Y-5869030D01*
X22154960Y-5786290D01*
X22184724Y-5711636D01*
X22220820Y-5645068D01*
X22228799Y-5632725D01*
X22281075Y-5566487D01*
X22340357Y-5513954D01*
X22406646Y-5475125D01*
X22479942Y-5450000D01*
X22560244Y-5438580D01*
X22588569Y-5437819D01*
X22671319Y-5444671D01*
G37*
G36*
X23578485Y-6797763D02*
G01*
X23560476Y-6868918D01*
X23540383Y-6896681D01*
X23475510Y-6934368D01*
X23437435Y-6938447D01*
X23363196Y-6920460D01*
X23333754Y-6896681D01*
X23299003Y-6828546D01*
X23296018Y-6797763D01*
X23315513Y-6723892D01*
X23333754Y-6699211D01*
X23399131Y-6661193D01*
X23437435Y-6657079D01*
X23511193Y-6675224D01*
X23540383Y-6699211D01*
X23575471Y-6767009D01*
X23578485Y-6797763D01*
G37*
G36*
X24371249Y-5444671D02*
G01*
X24446940Y-5465227D01*
X24515573Y-5499488D01*
X24577148Y-5547453D01*
X24631665Y-5609123D01*
X24648269Y-5632725D01*
X24685737Y-5697675D01*
X24716855Y-5770712D01*
X24741622Y-5851835D01*
X24760039Y-5941043D01*
X24770199Y-6018231D01*
X24776296Y-6100595D01*
X24778328Y-6188133D01*
X24776296Y-6275671D01*
X24770199Y-6358034D01*
X24760039Y-6435223D01*
X24745813Y-6507236D01*
X24722316Y-6589976D01*
X24692469Y-6664630D01*
X24656271Y-6731198D01*
X24648269Y-6743541D01*
X24596105Y-6809779D01*
X24536883Y-6862312D01*
X24470602Y-6901141D01*
X24397264Y-6926265D01*
X24316867Y-6937685D01*
X24288499Y-6938447D01*
X24205861Y-6931595D01*
X24130230Y-6911038D01*
X24061605Y-6876777D01*
X23999987Y-6828812D01*
X23945376Y-6767143D01*
X23928729Y-6743541D01*
X23891367Y-6678590D01*
X23860337Y-6605553D01*
X23835639Y-6524431D01*
X23817275Y-6435223D01*
X23807142Y-6358034D01*
X23801063Y-6275671D01*
X23799036Y-6188133D01*
X24005666Y-6188133D01*
X24006990Y-6261563D01*
X24011504Y-6339526D01*
X24019221Y-6414546D01*
X24032290Y-6490692D01*
X24052378Y-6564580D01*
X24065750Y-6600659D01*
X24101229Y-6668107D01*
X24149898Y-6724436D01*
X24153311Y-6727421D01*
X24218834Y-6764012D01*
X24288499Y-6774316D01*
X24362413Y-6762592D01*
X24423688Y-6727421D01*
X24473055Y-6672100D01*
X24509189Y-6605596D01*
X24511249Y-6600659D01*
X24536133Y-6525906D01*
X24551657Y-6453572D01*
X24557411Y-6414546D01*
X24565337Y-6339526D01*
X24569973Y-6261563D01*
X24571332Y-6188133D01*
X24569973Y-6114738D01*
X24565337Y-6036897D01*
X24557411Y-5962086D01*
X24544565Y-5885716D01*
X24524602Y-5811703D01*
X24511249Y-5775607D01*
X24475770Y-5708239D01*
X24427100Y-5652174D01*
X24423688Y-5649211D01*
X24358164Y-5612334D01*
X24288499Y-5601950D01*
X24214585Y-5613765D01*
X24153311Y-5649211D01*
X24103943Y-5704257D01*
X24067809Y-5770670D01*
X24065750Y-5775607D01*
X24040795Y-5850429D01*
X24025099Y-5922935D01*
X24019221Y-5962086D01*
X24011504Y-6036897D01*
X24006990Y-6114738D01*
X24005666Y-6188133D01*
X23799036Y-6188133D01*
X23801063Y-6100595D01*
X23807142Y-6018231D01*
X23817275Y-5941043D01*
X23831460Y-5869030D01*
X23854891Y-5786290D01*
X23884654Y-5711636D01*
X23920750Y-5645068D01*
X23928729Y-5632725D01*
X23981005Y-5566487D01*
X24040287Y-5513954D01*
X24106576Y-5475125D01*
X24179872Y-5450000D01*
X24260175Y-5438580D01*
X24288499Y-5437819D01*
X24371249Y-5444671D01*
G37*
D12*
G36*
X144344610Y-3044123D02*
G01*
X144494963Y-3072734D01*
X144595150Y-3107445D01*
X144731471Y-3177349D01*
X144851384Y-3269366D01*
X144872121Y-3289895D01*
X144964994Y-3406582D01*
X145028192Y-3535359D01*
X145067296Y-3683659D01*
X145076552Y-3795478D01*
X145062527Y-3941794D01*
X145040648Y-4024089D01*
X144979159Y-4164258D01*
X144943196Y-4223391D01*
X144851261Y-4340639D01*
X144803977Y-4387522D01*
X144688921Y-4480986D01*
X144642044Y-4512819D01*
X144785588Y-4591000D01*
X144905268Y-4682205D01*
X145017384Y-4808841D01*
X145095137Y-4954230D01*
X145138525Y-5118373D01*
X145148360Y-5238220D01*
X145134836Y-5393853D01*
X145094264Y-5537895D01*
X145086810Y-5556224D01*
X145011156Y-5692145D01*
X144913279Y-5802935D01*
X144905826Y-5809748D01*
X144779645Y-5900627D01*
X144637473Y-5965983D01*
X144603942Y-5977543D01*
X144460030Y-6013710D01*
X144300867Y-6033185D01*
X144186287Y-6036894D01*
X144038914Y-6030866D01*
X143892025Y-6010029D01*
X143750943Y-5969918D01*
X143727599Y-5960690D01*
X143590856Y-5891891D01*
X143470643Y-5803735D01*
X143434508Y-5768715D01*
X143340901Y-5647266D01*
X143278436Y-5514459D01*
X143242417Y-5371454D01*
X143232523Y-5255073D01*
X143628681Y-5255073D01*
X143654124Y-5401808D01*
X143655792Y-5406748D01*
X143734812Y-5535696D01*
X143751046Y-5552561D01*
X143873595Y-5640213D01*
X143923970Y-5663935D01*
X144068640Y-5701255D01*
X144189951Y-5708632D01*
X144340157Y-5696808D01*
X144441277Y-5671263D01*
X144575292Y-5605892D01*
X144616399Y-5574542D01*
X144708562Y-5458336D01*
X144717515Y-5439720D01*
X144751089Y-5294262D01*
X144751221Y-5284382D01*
X144729447Y-5137992D01*
X144700662Y-5071891D01*
X144604895Y-4953016D01*
X144554849Y-4912889D01*
X144428914Y-4830418D01*
X144326971Y-4772205D01*
X144194747Y-4708180D01*
X144057103Y-4656849D01*
X144025819Y-4646908D01*
X143895543Y-4729649D01*
X143781618Y-4834867D01*
X143731995Y-4898234D01*
X143665103Y-5029591D01*
X143632313Y-5179570D01*
X143628681Y-5255073D01*
X143232523Y-5255073D01*
X143232274Y-5252142D01*
X143249315Y-5099802D01*
X143271842Y-5023531D01*
X143335465Y-4885586D01*
X143377355Y-4818367D01*
X143472744Y-4701549D01*
X143529762Y-4646908D01*
X143647661Y-4554780D01*
X143712944Y-4512819D01*
X143572501Y-4417687D01*
X143461115Y-4307048D01*
X143378786Y-4180901D01*
X143325514Y-4039247D01*
X143301300Y-3882085D01*
X143299685Y-3826252D01*
X143304613Y-3777892D01*
X143692428Y-3777892D01*
X143716423Y-3923275D01*
X143726133Y-3950083D01*
X143802054Y-4077327D01*
X143831646Y-4110551D01*
X143944827Y-4205159D01*
X144019225Y-4252700D01*
X144154846Y-4317451D01*
X144295464Y-4361877D01*
X144418356Y-4281849D01*
X144528699Y-4184455D01*
X144578297Y-4127404D01*
X144650425Y-3994227D01*
X144681234Y-3842183D01*
X144683810Y-3776427D01*
X144655966Y-3644535D01*
X144576797Y-3518183D01*
X144569504Y-3510446D01*
X144451515Y-3422782D01*
X144417829Y-3406399D01*
X144270451Y-3368051D01*
X144189951Y-3363900D01*
X144043798Y-3377849D01*
X143959874Y-3403468D01*
X143829494Y-3481085D01*
X143806001Y-3503119D01*
X143723140Y-3626724D01*
X143719539Y-3635743D01*
X143692428Y-3777892D01*
X143304613Y-3777892D01*
X143315439Y-3671646D01*
X143362700Y-3524368D01*
X143439453Y-3389729D01*
X143542219Y-3273042D01*
X143661906Y-3181036D01*
X143792498Y-3112595D01*
X143822854Y-3100118D01*
X143974262Y-3056040D01*
X144127665Y-3037212D01*
X144189951Y-3035638D01*
X144344610Y-3044123D01*
G37*
X171223082Y-4913685D02*
X171294510Y-4842257D01*
X171294510Y-4842257D02*
X171437368Y-4770828D01*
X171437368Y-4770828D02*
X171794510Y-4770828D01*
X171794510Y-4770828D02*
X171937368Y-4842257D01*
X171937368Y-4842257D02*
X172008796Y-4913685D01*
X172008796Y-4913685D02*
X172080225Y-5056542D01*
X172080225Y-5056542D02*
X172080225Y-5199400D01*
X172080225Y-5199400D02*
X172008796Y-5413685D01*
X172008796Y-5413685D02*
X171151653Y-6270828D01*
X171151653Y-6270828D02*
X172080225Y-6270828D01*
X173365939Y-5270828D02*
X173365939Y-6270828D01*
X173008796Y-4699400D02*
X172651653Y-5770828D01*
X172651653Y-5770828D02*
X173580224Y-5770828D01*
X174151652Y-5699400D02*
X175294510Y-5699400D01*
X175865938Y-4770828D02*
X176794510Y-4770828D01*
X176794510Y-4770828D02*
X176294510Y-5342257D01*
X176294510Y-5342257D02*
X176508795Y-5342257D01*
X176508795Y-5342257D02*
X176651653Y-5413685D01*
X176651653Y-5413685D02*
X176723081Y-5485114D01*
X176723081Y-5485114D02*
X176794510Y-5627971D01*
X176794510Y-5627971D02*
X176794510Y-5985114D01*
X176794510Y-5985114D02*
X176723081Y-6127971D01*
X176723081Y-6127971D02*
X176651653Y-6199400D01*
X176651653Y-6199400D02*
X176508795Y-6270828D01*
X176508795Y-6270828D02*
X176080224Y-6270828D01*
X176080224Y-6270828D02*
X175937367Y-6199400D01*
X175937367Y-6199400D02*
X175865938Y-6127971D01*
X178080224Y-4770828D02*
X177794509Y-4770828D01*
X177794509Y-4770828D02*
X177651652Y-4842257D01*
X177651652Y-4842257D02*
X177580224Y-4913685D01*
X177580224Y-4913685D02*
X177437366Y-5127971D01*
X177437366Y-5127971D02*
X177365938Y-5413685D01*
X177365938Y-5413685D02*
X177365938Y-5985114D01*
X177365938Y-5985114D02*
X177437366Y-6127971D01*
X177437366Y-6127971D02*
X177508795Y-6199400D01*
X177508795Y-6199400D02*
X177651652Y-6270828D01*
X177651652Y-6270828D02*
X177937366Y-6270828D01*
X177937366Y-6270828D02*
X178080224Y-6199400D01*
X178080224Y-6199400D02*
X178151652Y-6127971D01*
X178151652Y-6127971D02*
X178223081Y-5985114D01*
X178223081Y-5985114D02*
X178223081Y-5627971D01*
X178223081Y-5627971D02*
X178151652Y-5485114D01*
X178151652Y-5485114D02*
X178080224Y-5413685D01*
X178080224Y-5413685D02*
X177937366Y-5342257D01*
X177937366Y-5342257D02*
X177651652Y-5342257D01*
X177651652Y-5342257D02*
X177508795Y-5413685D01*
X177508795Y-5413685D02*
X177437366Y-5485114D01*
X177437366Y-5485114D02*
X177365938Y-5627971D01*
X178651652Y-4770828D02*
X179151652Y-6270828D01*
X179151652Y-6270828D02*
X179651652Y-4770828D01*
D13*
G36*
X12805837Y-13643604D02*
G01*
X12850820Y-13728253D01*
X12893760Y-13813394D01*
X12916748Y-13860321D01*
X12960476Y-13951537D01*
X13001372Y-14038838D01*
X13043355Y-14130309D01*
X13047613Y-14139685D01*
X13085875Y-14224811D01*
X13123917Y-14311038D01*
X13161738Y-14398367D01*
X13182655Y-14447358D01*
X13219620Y-14534120D01*
X13259228Y-14627077D01*
X13297296Y-14716409D01*
X13308415Y-14742501D01*
X13345975Y-14654257D01*
X13384986Y-14562387D01*
X13421335Y-14476605D01*
X13433712Y-14447358D01*
X13471411Y-14359418D01*
X13509330Y-14272579D01*
X13547470Y-14186842D01*
X13568754Y-14139685D01*
X13610846Y-14047798D01*
X13651850Y-13960079D01*
X13695698Y-13868404D01*
X13699619Y-13860321D01*
X13740990Y-13776507D01*
X13785500Y-13690039D01*
X13810530Y-13643604D01*
X14190132Y-13643604D01*
X14203329Y-13738011D01*
X14216004Y-13837930D01*
X14228156Y-13943358D01*
X14238361Y-14040129D01*
X14239787Y-14054298D01*
X14249469Y-14154489D01*
X14258617Y-14256500D01*
X14267233Y-14360333D01*
X14275316Y-14465986D01*
X14279696Y-14527177D01*
X14287256Y-14634667D01*
X14294504Y-14742334D01*
X14301442Y-14850180D01*
X14308069Y-14958203D01*
X14311716Y-15020010D01*
X14318013Y-15126643D01*
X14323910Y-15230523D01*
X14329408Y-15331650D01*
X14334506Y-15430023D01*
X14337240Y-15485000D01*
X13931186Y-15485000D01*
X13928032Y-15382924D01*
X13924486Y-15277521D01*
X13920549Y-15168789D01*
X13916969Y-15075637D01*
X13913116Y-14980173D01*
X13909839Y-14902138D01*
X13905305Y-14803534D01*
X13900114Y-14704658D01*
X13894265Y-14605511D01*
X13887760Y-14506091D01*
X13880597Y-14406399D01*
X13872778Y-14306436D01*
X13869466Y-14266374D01*
X13831768Y-14352885D01*
X13794575Y-14438035D01*
X13762267Y-14511863D01*
X13722178Y-14604121D01*
X13682308Y-14696488D01*
X13646252Y-14780554D01*
X13607184Y-14871651D01*
X13569104Y-14959896D01*
X13535341Y-15037644D01*
X13497535Y-15124569D01*
X13459036Y-15213444D01*
X13444385Y-15247400D01*
X13152955Y-15247400D01*
X13114248Y-15157860D01*
X13075094Y-15067721D01*
X13061999Y-15037644D01*
X13024815Y-14951991D01*
X12986645Y-14863487D01*
X12951088Y-14780554D01*
X12911627Y-14688087D01*
X12871726Y-14595729D01*
X12835073Y-14511863D01*
X12796080Y-14422137D01*
X12756294Y-14330634D01*
X12728339Y-14266374D01*
X12720256Y-14366447D01*
X12712831Y-14466247D01*
X12706062Y-14565775D01*
X12699951Y-14665032D01*
X12694497Y-14764017D01*
X12689700Y-14862729D01*
X12687965Y-14902138D01*
X12683896Y-14999451D01*
X12680098Y-15094452D01*
X12675900Y-15205403D01*
X12672093Y-15313025D01*
X12668678Y-15417319D01*
X12666618Y-15485000D01*
X12260565Y-15485000D01*
X12265412Y-15388200D01*
X12270615Y-15288647D01*
X12276172Y-15186341D01*
X12282086Y-15081281D01*
X12285624Y-15020010D01*
X12291274Y-14927321D01*
X12298073Y-14819349D01*
X12305093Y-14711554D01*
X12312335Y-14603937D01*
X12317644Y-14527177D01*
X12325604Y-14420483D01*
X12334051Y-14315610D01*
X12342988Y-14212558D01*
X12352413Y-14111327D01*
X12358018Y-14054298D01*
X12368144Y-13956925D01*
X12378625Y-13863770D01*
X12391039Y-13762474D01*
X12403916Y-13666689D01*
X12407208Y-13643604D01*
X12805837Y-13643604D01*
G37*
G36*
X15418184Y-14062401D02*
G01*
X15470013Y-14066364D01*
X15564602Y-14076116D01*
X15620833Y-14083534D01*
X15716507Y-14099342D01*
X15764228Y-14109057D01*
X15854619Y-14130696D01*
X15885812Y-14139685D01*
X15885812Y-15314689D01*
X15881541Y-15417542D01*
X15868727Y-15511761D01*
X15842075Y-15613428D01*
X15803121Y-15702664D01*
X15742127Y-15791060D01*
X15710861Y-15823764D01*
X15625149Y-15888498D01*
X15537083Y-15931330D01*
X15435540Y-15962480D01*
X15340627Y-15979515D01*
X15236356Y-15988438D01*
X15169302Y-15989898D01*
X15073176Y-15986701D01*
X14976919Y-15977108D01*
X14912676Y-15967159D01*
X14819225Y-15948017D01*
X14723879Y-15922566D01*
X14675076Y-15906831D01*
X14744685Y-15582916D01*
X14834504Y-15614587D01*
X14928198Y-15639120D01*
X14940983Y-15641852D01*
X15036457Y-15656445D01*
X15134655Y-15662678D01*
X15174870Y-15663199D01*
X15272060Y-15655722D01*
X15362726Y-15627008D01*
X15416646Y-15586629D01*
X15467609Y-15505158D01*
X15487024Y-15411638D01*
X15487648Y-15389403D01*
X15487648Y-15337428D01*
X15397618Y-15370828D01*
X15355390Y-15381514D01*
X15260659Y-15394200D01*
X15206891Y-15395900D01*
X15102401Y-15389880D01*
X15007504Y-15371819D01*
X14908915Y-15335531D01*
X14823384Y-15282855D01*
X14760464Y-15224661D01*
X14700069Y-15143013D01*
X14654509Y-15048307D01*
X14627263Y-14956738D01*
X14610916Y-14855576D01*
X14605467Y-14744822D01*
X14605490Y-14744357D01*
X15011985Y-14744357D01*
X15018579Y-14837940D01*
X15043899Y-14929302D01*
X15097441Y-15007023D01*
X15190282Y-15057780D01*
X15282069Y-15069200D01*
X15376402Y-15058784D01*
X15396692Y-15053422D01*
X15482888Y-15018482D01*
X15487648Y-15015833D01*
X15487648Y-14399560D01*
X15418039Y-14390279D01*
X15324762Y-14386102D01*
X15225774Y-14398111D01*
X15139426Y-14438604D01*
X15089483Y-14487732D01*
X15042258Y-14571241D01*
X15018115Y-14661206D01*
X15011985Y-14744357D01*
X14605490Y-14744357D01*
X14610135Y-14651248D01*
X14626052Y-14554598D01*
X14653265Y-14464528D01*
X14695662Y-14374950D01*
X14750457Y-14295552D01*
X14793876Y-14248276D01*
X14868945Y-14186215D01*
X14955630Y-14135770D01*
X15019874Y-14108593D01*
X15115871Y-14080587D01*
X15210278Y-14065215D01*
X15311483Y-14059451D01*
X15321978Y-14059403D01*
X15418184Y-14062401D01*
G37*
G36*
X17024619Y-14739253D02*
G01*
X17020691Y-14639807D01*
X17005223Y-14542389D01*
X16974965Y-14466385D01*
X16902530Y-14403742D01*
X16805118Y-14386102D01*
X16727620Y-14390279D01*
X16650122Y-14399096D01*
X16650122Y-15485000D01*
X16251957Y-15485000D01*
X16251957Y-14139685D01*
X16345795Y-14117204D01*
X16370757Y-14111842D01*
X16463689Y-14093550D01*
X16515080Y-14084926D01*
X16607152Y-14072562D01*
X16671468Y-14066364D01*
X16765822Y-14060552D01*
X16829249Y-14059403D01*
X16927360Y-14064009D01*
X17025634Y-14081330D01*
X17076594Y-14098384D01*
X17163258Y-14140614D01*
X17232983Y-14190268D01*
X17312899Y-14141732D01*
X17402409Y-14103322D01*
X17429745Y-14094207D01*
X17523416Y-14070415D01*
X17616288Y-14059709D01*
X17633932Y-14059403D01*
X17733324Y-14063935D01*
X17829047Y-14079388D01*
X17910512Y-14105809D01*
X17997002Y-14153787D01*
X18066437Y-14216509D01*
X18083143Y-14237138D01*
X18131540Y-14317258D01*
X18164659Y-14409813D01*
X18171315Y-14438541D01*
X18186939Y-14537546D01*
X18194291Y-14636685D01*
X18195446Y-14697951D01*
X18195446Y-15485000D01*
X17796817Y-15485000D01*
X17796817Y-14739253D01*
X17792890Y-14639807D01*
X17777421Y-14542389D01*
X17747163Y-14466385D01*
X17674859Y-14403742D01*
X17577780Y-14386102D01*
X17488217Y-14402344D01*
X17400688Y-14437802D01*
X17393548Y-14442254D01*
X17413279Y-14534333D01*
X17417215Y-14572191D01*
X17422126Y-14665313D01*
X17422784Y-14717442D01*
X17422784Y-15485000D01*
X17024619Y-15485000D01*
X17024619Y-14739253D01*
G37*
G36*
X18530963Y-13737808D02*
G01*
X18929591Y-13673304D01*
X18929591Y-14089103D01*
X19408039Y-14089103D01*
X19408039Y-14415802D01*
X18929591Y-14415802D01*
X18929591Y-14911884D01*
X18936867Y-15005716D01*
X18965798Y-15098282D01*
X18973677Y-15112822D01*
X19045796Y-15171482D01*
X19143147Y-15187927D01*
X19151413Y-15188000D01*
X19245628Y-15181767D01*
X19283670Y-15175935D01*
X19375499Y-15153796D01*
X19408039Y-15142522D01*
X19464190Y-15442770D01*
X19372660Y-15474706D01*
X19303625Y-15493353D01*
X19205476Y-15509363D01*
X19111037Y-15514512D01*
X19087372Y-15514699D01*
X18990762Y-15510439D01*
X18897158Y-15495913D01*
X18816824Y-15471078D01*
X18731515Y-15425930D01*
X18658051Y-15362969D01*
X18645586Y-15348565D01*
X18594011Y-15267801D01*
X18561146Y-15179358D01*
X18556022Y-15158764D01*
X18539797Y-15064290D01*
X18532162Y-14970013D01*
X18530963Y-14911884D01*
X18530963Y-13737808D01*
G37*
G36*
X12805837Y-16835604D02*
G01*
X12850820Y-16920253D01*
X12893760Y-17005394D01*
X12916748Y-17052321D01*
X12960476Y-17143537D01*
X13001372Y-17230838D01*
X13043355Y-17322309D01*
X13047613Y-17331685D01*
X13085875Y-17416811D01*
X13123917Y-17503038D01*
X13161738Y-17590367D01*
X13182655Y-17639358D01*
X13219620Y-17726120D01*
X13259228Y-17819077D01*
X13297296Y-17908409D01*
X13308415Y-17934501D01*
X13345975Y-17846257D01*
X13384986Y-17754387D01*
X13421335Y-17668605D01*
X13433712Y-17639358D01*
X13471411Y-17551418D01*
X13509330Y-17464579D01*
X13547470Y-17378842D01*
X13568754Y-17331685D01*
X13610846Y-17239798D01*
X13651850Y-17152079D01*
X13695698Y-17060404D01*
X13699619Y-17052321D01*
X13740990Y-16968507D01*
X13785500Y-16882039D01*
X13810530Y-16835604D01*
X14190132Y-16835604D01*
X14203329Y-16930011D01*
X14216004Y-17029930D01*
X14228156Y-17135358D01*
X14238361Y-17232129D01*
X14239787Y-17246298D01*
X14249469Y-17346489D01*
X14258617Y-17448500D01*
X14267233Y-17552333D01*
X14275316Y-17657986D01*
X14279696Y-17719177D01*
X14287256Y-17826667D01*
X14294504Y-17934334D01*
X14301442Y-18042180D01*
X14308069Y-18150203D01*
X14311716Y-18212010D01*
X14318013Y-18318643D01*
X14323910Y-18422523D01*
X14329408Y-18523650D01*
X14334506Y-18622023D01*
X14337240Y-18677000D01*
X13931186Y-18677000D01*
X13928032Y-18574924D01*
X13924486Y-18469521D01*
X13920549Y-18360789D01*
X13916969Y-18267637D01*
X13913116Y-18172173D01*
X13909839Y-18094138D01*
X13905305Y-17995534D01*
X13900114Y-17896658D01*
X13894265Y-17797511D01*
X13887760Y-17698091D01*
X13880597Y-17598399D01*
X13872778Y-17498436D01*
X13869466Y-17458374D01*
X13831768Y-17544885D01*
X13794575Y-17630035D01*
X13762267Y-17703863D01*
X13722178Y-17796121D01*
X13682308Y-17888488D01*
X13646252Y-17972554D01*
X13607184Y-18063651D01*
X13569104Y-18151896D01*
X13535341Y-18229644D01*
X13497535Y-18316569D01*
X13459036Y-18405444D01*
X13444385Y-18439400D01*
X13152955Y-18439400D01*
X13114248Y-18349860D01*
X13075094Y-18259721D01*
X13061999Y-18229644D01*
X13024815Y-18143991D01*
X12986645Y-18055487D01*
X12951088Y-17972554D01*
X12911627Y-17880087D01*
X12871726Y-17787729D01*
X12835073Y-17703863D01*
X12796080Y-17614137D01*
X12756294Y-17522634D01*
X12728339Y-17458374D01*
X12720256Y-17558447D01*
X12712831Y-17658247D01*
X12706062Y-17757775D01*
X12699951Y-17857032D01*
X12694497Y-17956017D01*
X12689700Y-18054729D01*
X12687965Y-18094138D01*
X12683896Y-18191451D01*
X12680098Y-18286452D01*
X12675900Y-18397403D01*
X12672093Y-18505025D01*
X12668678Y-18609319D01*
X12666618Y-18677000D01*
X12260565Y-18677000D01*
X12265412Y-18580200D01*
X12270615Y-18480647D01*
X12276172Y-18378341D01*
X12282086Y-18273281D01*
X12285624Y-18212010D01*
X12291274Y-18119321D01*
X12298073Y-18011349D01*
X12305093Y-17903554D01*
X12312335Y-17795937D01*
X12317644Y-17719177D01*
X12325604Y-17612483D01*
X12334051Y-17507610D01*
X12342988Y-17404558D01*
X12352413Y-17303327D01*
X12358018Y-17246298D01*
X12368144Y-17148925D01*
X12378625Y-17055770D01*
X12391039Y-16954474D01*
X12403916Y-16858689D01*
X12407208Y-16835604D01*
X12805837Y-16835604D01*
G37*
G36*
X15399477Y-17257599D02*
G01*
X15495075Y-17276188D01*
X15576748Y-17303842D01*
X15667022Y-17349110D01*
X15747116Y-17406254D01*
X15794856Y-17450949D01*
X15857396Y-17527498D01*
X15904749Y-17607413D01*
X15936395Y-17679732D01*
X15965458Y-17775070D01*
X15981410Y-17867738D01*
X15987392Y-17966115D01*
X15987442Y-17976267D01*
X15982729Y-18075396D01*
X15968589Y-18169179D01*
X15942149Y-18266162D01*
X15939180Y-18274658D01*
X15901219Y-18362893D01*
X15848174Y-18448643D01*
X15800425Y-18505761D01*
X15727118Y-18571672D01*
X15643630Y-18625315D01*
X15582316Y-18654260D01*
X15491544Y-18684116D01*
X15393423Y-18701578D01*
X15297847Y-18706699D01*
X15203693Y-18701578D01*
X15106405Y-18684116D01*
X15015697Y-18654260D01*
X14925706Y-18608797D01*
X14845764Y-18551065D01*
X14798053Y-18505761D01*
X14735448Y-18428234D01*
X14687920Y-18347536D01*
X14656050Y-18274658D01*
X14627251Y-18178263D01*
X14611444Y-18085015D01*
X14605516Y-17986420D01*
X14605467Y-17976267D01*
X15011985Y-17976267D01*
X15017895Y-18074624D01*
X15038324Y-18169702D01*
X15077651Y-18257015D01*
X15086699Y-18270946D01*
X15151631Y-18337401D01*
X15241269Y-18374782D01*
X15297847Y-18380000D01*
X15391297Y-18364664D01*
X15472504Y-18313439D01*
X15507602Y-18270946D01*
X15549611Y-18186923D01*
X15572669Y-18094836D01*
X15581100Y-17999171D01*
X15581388Y-17976267D01*
X15575552Y-17878130D01*
X15555376Y-17783813D01*
X15516537Y-17697966D01*
X15507602Y-17684372D01*
X15437613Y-17615566D01*
X15346791Y-17581838D01*
X15297847Y-17578102D01*
X15204418Y-17593046D01*
X15122498Y-17642964D01*
X15086699Y-17684372D01*
X15041170Y-17775234D01*
X15019281Y-17868001D01*
X15012058Y-17964743D01*
X15011985Y-17976267D01*
X14605467Y-17976267D01*
X14610543Y-17877318D01*
X14625770Y-17784080D01*
X14654244Y-17688113D01*
X14657442Y-17679732D01*
X14698155Y-17592189D01*
X14748189Y-17513969D01*
X14801765Y-17450949D01*
X14875855Y-17385886D01*
X14959604Y-17332701D01*
X15020802Y-17303842D01*
X15110907Y-17273986D01*
X15206385Y-17256524D01*
X15297847Y-17251403D01*
X15399477Y-17257599D01*
G37*
G36*
X17525806Y-18626417D02*
G01*
X17432506Y-18650945D01*
X17402829Y-18657509D01*
X17308669Y-18674792D01*
X17257114Y-18682568D01*
X17160894Y-18694279D01*
X17102117Y-18699739D01*
X17006042Y-18705721D01*
X16950833Y-18706699D01*
X16856143Y-18702735D01*
X16757820Y-18689031D01*
X16666748Y-18665538D01*
X16640840Y-18656581D01*
X16552087Y-18616706D01*
X16473423Y-18566631D01*
X16410666Y-18512258D01*
X16346843Y-18436340D01*
X16295289Y-18349198D01*
X16267735Y-18284868D01*
X16239729Y-18189035D01*
X16224357Y-18095063D01*
X16218593Y-17994565D01*
X16218545Y-17984156D01*
X16219243Y-17966986D01*
X16625062Y-17966986D01*
X16631596Y-18065934D01*
X16654183Y-18162444D01*
X16697663Y-18252275D01*
X16707665Y-18266769D01*
X16781255Y-18335769D01*
X16868548Y-18371043D01*
X16954082Y-18380000D01*
X17047211Y-18376737D01*
X17052927Y-18376288D01*
X17127641Y-18367006D01*
X17127641Y-17634254D01*
X17040835Y-17597376D01*
X17029724Y-17594344D01*
X16935337Y-17578879D01*
X16908604Y-17578102D01*
X16812244Y-17591774D01*
X16725022Y-17642283D01*
X16664935Y-17730010D01*
X16635031Y-17834826D01*
X16625339Y-17943060D01*
X16625062Y-17966986D01*
X16219243Y-17966986D01*
X16222714Y-17881555D01*
X16235222Y-17785480D01*
X16258612Y-17687334D01*
X16261238Y-17678803D01*
X16295032Y-17589885D01*
X16342029Y-17504016D01*
X16384214Y-17447237D01*
X16455341Y-17377371D01*
X16538263Y-17322363D01*
X16580512Y-17301986D01*
X16672571Y-17271162D01*
X16765212Y-17255404D01*
X16846884Y-17251403D01*
X16943829Y-17257747D01*
X16995383Y-17267645D01*
X17086011Y-17295701D01*
X17127641Y-17312659D01*
X17127641Y-16662045D01*
X17525806Y-16598004D01*
X17525806Y-18626417D01*
G37*
G36*
X19091085Y-18626417D02*
G01*
X18998784Y-18649558D01*
X18905489Y-18668182D01*
X18828890Y-18681176D01*
X18727241Y-18694636D01*
X18633044Y-18702487D01*
X18536277Y-18706301D01*
X18492445Y-18706699D01*
X18396421Y-18702919D01*
X18300836Y-18689849D01*
X18209196Y-18664689D01*
X18194054Y-18658901D01*
X18105648Y-18613785D01*
X18028599Y-18551151D01*
X18005645Y-18525251D01*
X17952693Y-18443419D01*
X17917044Y-18356138D01*
X17906800Y-18319672D01*
X17888984Y-18226896D01*
X17879391Y-18127464D01*
X17877564Y-18057478D01*
X17877564Y-17281103D01*
X18276193Y-17281103D01*
X18276193Y-18016176D01*
X18280194Y-18116063D01*
X18295952Y-18215215D01*
X18326775Y-18294613D01*
X18399749Y-18358653D01*
X18491331Y-18379250D01*
X18516577Y-18380000D01*
X18607069Y-18376288D01*
X18692920Y-18366542D01*
X18692920Y-17281103D01*
X19091085Y-17281103D01*
X19091085Y-18626417D01*
G37*
G36*
X20019207Y-18706699D02*
G01*
X19916878Y-18701832D01*
X19819182Y-18689255D01*
X19737058Y-18669110D01*
X19651064Y-18633238D01*
X19573884Y-18578972D01*
X19565819Y-18571193D01*
X19507968Y-18491823D01*
X19480432Y-18418517D01*
X19463378Y-18322805D01*
X19457782Y-18229729D01*
X19457693Y-18215722D01*
X19457693Y-16662045D01*
X19855858Y-16598004D01*
X19855858Y-18138224D01*
X19863262Y-18232505D01*
X19863747Y-18235213D01*
X19894839Y-18307607D01*
X19960272Y-18355869D01*
X20053461Y-18377943D01*
X20075359Y-18380000D01*
X20019207Y-18706699D01*
G37*
G36*
X21011532Y-17257766D02*
G01*
X21110513Y-17276854D01*
X21200652Y-17308667D01*
X21294637Y-17361867D01*
X21376587Y-17432387D01*
X21435728Y-17506243D01*
X21482632Y-17592075D01*
X21517301Y-17689881D01*
X21539734Y-17799662D01*
X21549081Y-17900294D01*
X21550610Y-17964665D01*
X21547826Y-18040307D01*
X21542721Y-18112701D01*
X20638729Y-18112701D01*
X20664216Y-18204271D01*
X20724210Y-18284213D01*
X20753817Y-18308071D01*
X20839828Y-18351903D01*
X20935869Y-18374310D01*
X21026685Y-18380000D01*
X21121714Y-18376181D01*
X21215144Y-18364722D01*
X21241545Y-18360046D01*
X21332173Y-18339299D01*
X21414176Y-18310855D01*
X21467543Y-18618528D01*
X21381692Y-18651012D01*
X21290941Y-18673116D01*
X21262892Y-18678392D01*
X21168535Y-18693008D01*
X21122745Y-18698346D01*
X21029172Y-18705525D01*
X20972854Y-18706699D01*
X20870018Y-18702331D01*
X20775038Y-18689226D01*
X20678718Y-18664419D01*
X20642906Y-18651476D01*
X20552203Y-18608739D01*
X20472797Y-18556461D01*
X20410411Y-18500656D01*
X20347937Y-18423651D01*
X20299036Y-18336726D01*
X20273977Y-18273266D01*
X20248878Y-18180510D01*
X20234197Y-18082818D01*
X20229891Y-17989725D01*
X20234443Y-17889765D01*
X20240984Y-17845401D01*
X20638729Y-17845401D01*
X21165439Y-17845401D01*
X21149614Y-17753468D01*
X21147805Y-17747484D01*
X21104254Y-17665327D01*
X21102327Y-17663025D01*
X21027742Y-17603726D01*
X21024829Y-17602233D01*
X20934101Y-17578950D01*
X20908813Y-17578102D01*
X20815729Y-17591981D01*
X20793726Y-17600841D01*
X20717509Y-17655658D01*
X20713443Y-17660241D01*
X20666049Y-17740455D01*
X20663789Y-17746556D01*
X20639752Y-17839142D01*
X20638729Y-17845401D01*
X20240984Y-17845401D01*
X20248098Y-17797146D01*
X20273948Y-17702848D01*
X20287435Y-17667666D01*
X20331219Y-17578339D01*
X20383447Y-17499870D01*
X20438255Y-17437956D01*
X20512476Y-17375307D01*
X20594528Y-17325189D01*
X20653579Y-17298737D01*
X20745746Y-17269893D01*
X20839871Y-17254361D01*
X20903709Y-17251403D01*
X21011532Y-17257766D01*
G37*
D12*
X176450225Y-9842257D02*
X176307368Y-9770828D01*
X176307368Y-9770828D02*
X176093082Y-9770828D01*
X176093082Y-9770828D02*
X175878796Y-9842257D01*
X175878796Y-9842257D02*
X175735939Y-9985114D01*
X175735939Y-9985114D02*
X175664510Y-10127971D01*
X175664510Y-10127971D02*
X175593082Y-10413685D01*
X175593082Y-10413685D02*
X175593082Y-10627971D01*
X175593082Y-10627971D02*
X175664510Y-10913685D01*
X175664510Y-10913685D02*
X175735939Y-11056542D01*
X175735939Y-11056542D02*
X175878796Y-11199400D01*
X175878796Y-11199400D02*
X176093082Y-11270828D01*
X176093082Y-11270828D02*
X176235939Y-11270828D01*
X176235939Y-11270828D02*
X176450225Y-11199400D01*
X176450225Y-11199400D02*
X176521653Y-11127971D01*
X176521653Y-11127971D02*
X176521653Y-10627971D01*
X176521653Y-10627971D02*
X176235939Y-10627971D01*
X177164510Y-11270828D02*
X177164510Y-9770828D01*
X177164510Y-9770828D02*
X178021653Y-11270828D01*
X178021653Y-11270828D02*
X178021653Y-9770828D01*
X178735939Y-11270828D02*
X178735939Y-9770828D01*
X178735939Y-9770828D02*
X179093082Y-9770828D01*
X179093082Y-9770828D02*
X179307368Y-9842257D01*
X179307368Y-9842257D02*
X179450225Y-9985114D01*
X179450225Y-9985114D02*
X179521654Y-10127971D01*
X179521654Y-10127971D02*
X179593082Y-10413685D01*
X179593082Y-10413685D02*
X179593082Y-10627971D01*
X179593082Y-10627971D02*
X179521654Y-10913685D01*
X179521654Y-10913685D02*
X179450225Y-11056542D01*
X179450225Y-11056542D02*
X179307368Y-11199400D01*
X179307368Y-11199400D02*
X179093082Y-11270828D01*
X179093082Y-11270828D02*
X178735939Y-11270828D01*
G36*
X68704012Y-5708632D02*
G01*
X68857975Y-5701479D01*
X69009032Y-5675788D01*
X69147221Y-5624551D01*
X69241835Y-5559155D01*
X69334446Y-5443851D01*
X69388615Y-5304478D01*
X69404501Y-5156887D01*
X69387648Y-5007044D01*
X69337090Y-4882847D01*
X69242057Y-4766605D01*
X69159769Y-4705526D01*
X69024761Y-4642801D01*
X68904047Y-4611004D01*
X68757135Y-4590122D01*
X68606559Y-4583161D01*
X68505443Y-4583161D01*
X68505443Y-4254898D01*
X68644661Y-4254898D01*
X68792512Y-4245547D01*
X68861549Y-4235115D01*
X69006692Y-4191666D01*
X69066713Y-4161842D01*
X69182691Y-4066321D01*
X69218387Y-4018227D01*
X69270725Y-3878133D01*
X69277739Y-3788883D01*
X69255784Y-3643330D01*
X69235240Y-3595443D01*
X69144939Y-3478537D01*
X69123866Y-3461353D01*
X68991272Y-3394236D01*
X68963398Y-3386615D01*
X68815171Y-3364987D01*
X68771423Y-3363900D01*
X68616671Y-3373696D01*
X68472736Y-3406153D01*
X68427041Y-3423251D01*
X68289400Y-3486981D01*
X68188904Y-3545617D01*
X68037229Y-3263517D01*
X68165457Y-3189511D01*
X68304953Y-3128377D01*
X68340579Y-3115505D01*
X68487859Y-3072732D01*
X68549406Y-3059085D01*
X68700965Y-3038409D01*
X68783879Y-3035638D01*
X68936036Y-3042132D01*
X69084843Y-3064028D01*
X69184682Y-3090593D01*
X69321284Y-3147373D01*
X69449237Y-3233561D01*
X69463119Y-3245931D01*
X69564388Y-3362929D01*
X69627983Y-3483335D01*
X69669199Y-3625301D01*
X69682937Y-3778625D01*
X69664493Y-3935177D01*
X69609161Y-4074006D01*
X69551779Y-4156713D01*
X69446232Y-4264149D01*
X69325228Y-4350153D01*
X69235973Y-4395582D01*
X69374791Y-4449163D01*
X69455059Y-4492302D01*
X69576360Y-4584237D01*
X69638974Y-4652037D01*
X69721485Y-4776613D01*
X69765736Y-4874054D01*
X69803470Y-5016232D01*
X69814096Y-5155422D01*
X69803212Y-5304546D01*
X69767148Y-5455133D01*
X69748150Y-5506399D01*
X69677345Y-5639174D01*
X69579050Y-5755400D01*
X69545917Y-5785568D01*
X69422979Y-5872600D01*
X69288890Y-5938339D01*
X69201535Y-5970216D01*
X69050559Y-6008178D01*
X68897831Y-6029015D01*
X68747773Y-6036634D01*
X68712805Y-6036894D01*
X68565709Y-6029636D01*
X68486392Y-6020041D01*
X68340438Y-5994451D01*
X68268771Y-5978276D01*
X68125982Y-5938652D01*
X68091451Y-5927718D01*
X67982274Y-5885219D01*
X68057745Y-5565017D01*
X68201157Y-5621406D01*
X68295882Y-5653677D01*
X68443834Y-5689258D01*
X68602086Y-5706002D01*
X68704012Y-5708632D01*
G37*
X173299171Y-15640225D02*
X173299171Y-14783082D01*
X173299171Y-15211653D02*
X174799171Y-15211653D01*
X174799171Y-15211653D02*
X174584885Y-15068796D01*
X174584885Y-15068796D02*
X174442028Y-14925939D01*
X174442028Y-14925939D02*
X174370600Y-14783082D01*
X174799171Y-16997367D02*
X174799171Y-16283081D01*
X174799171Y-16283081D02*
X174084885Y-16211653D01*
X174084885Y-16211653D02*
X174156314Y-16283081D01*
X174156314Y-16283081D02*
X174227742Y-16425939D01*
X174227742Y-16425939D02*
X174227742Y-16783081D01*
X174227742Y-16783081D02*
X174156314Y-16925939D01*
X174156314Y-16925939D02*
X174084885Y-16997367D01*
X174084885Y-16997367D02*
X173942028Y-17068796D01*
X173942028Y-17068796D02*
X173584885Y-17068796D01*
X173584885Y-17068796D02*
X173442028Y-16997367D01*
X173442028Y-16997367D02*
X173370600Y-16925939D01*
X173370600Y-16925939D02*
X173299171Y-16783081D01*
X173299171Y-16783081D02*
X173299171Y-16425939D01*
X173299171Y-16425939D02*
X173370600Y-16283081D01*
X173370600Y-16283081D02*
X173442028Y-16211653D01*
X173727742Y-17640224D02*
X173727742Y-18354510D01*
X173299171Y-17497367D02*
X174799171Y-17997367D01*
X174799171Y-17997367D02*
X173299171Y-18497367D01*
G36*
X54721039Y-3840907D02*
G01*
X54705652Y-3988551D01*
X54659490Y-4131067D01*
X54588415Y-4269370D01*
X54503150Y-4397365D01*
X54496824Y-4405840D01*
X54403439Y-4523609D01*
X54300236Y-4639695D01*
X54268946Y-4672554D01*
X54166426Y-4777678D01*
X54055750Y-4888995D01*
X54016154Y-4928276D01*
X53911809Y-5031644D01*
X53849092Y-5094605D01*
X53746001Y-5204781D01*
X53670307Y-5294640D01*
X53579801Y-5415355D01*
X53528890Y-5494675D01*
X53473746Y-5634208D01*
X53471737Y-5661737D01*
X54817759Y-5661737D01*
X54817759Y-5990000D01*
X53045289Y-5990000D01*
X53040893Y-5940174D01*
X53040893Y-5894012D01*
X53051655Y-5738935D01*
X53083943Y-5592806D01*
X53106106Y-5528381D01*
X53166217Y-5394001D01*
X53239388Y-5265909D01*
X53277564Y-5208911D01*
X53367405Y-5089768D01*
X53465469Y-4976430D01*
X53513503Y-4926078D01*
X53619343Y-4819177D01*
X53723733Y-4715178D01*
X53771423Y-4668157D01*
X53880429Y-4562898D01*
X53971458Y-4471053D01*
X54071896Y-4360131D01*
X54140718Y-4273217D01*
X54221490Y-4146363D01*
X54258688Y-4068053D01*
X54298102Y-3923241D01*
X54303384Y-3843105D01*
X54286028Y-3692493D01*
X54263084Y-3626950D01*
X54179922Y-3501519D01*
X54155373Y-3478206D01*
X54024924Y-3401003D01*
X53997103Y-3391744D01*
X53849127Y-3365233D01*
X53805129Y-3363900D01*
X53653675Y-3378416D01*
X53581646Y-3397606D01*
X53441512Y-3454347D01*
X53399930Y-3476008D01*
X53275631Y-3559303D01*
X53265108Y-3568332D01*
X53180844Y-3642337D01*
X52986671Y-3385882D01*
X53095563Y-3286351D01*
X53100244Y-3282568D01*
X53224928Y-3197876D01*
X53281960Y-3166796D01*
X53416040Y-3107479D01*
X53517899Y-3073740D01*
X53663252Y-3044010D01*
X53801465Y-3035638D01*
X53965685Y-3043057D01*
X54113779Y-3065314D01*
X54266174Y-3110033D01*
X54413464Y-3185870D01*
X54490963Y-3246664D01*
X54591621Y-3362664D01*
X54663520Y-3500371D01*
X54706659Y-3659785D01*
X54720815Y-3817079D01*
X54721039Y-3840907D01*
G37*
G36*
X114725436Y-3363900D02*
G01*
X114574024Y-3371085D01*
X114417389Y-3389235D01*
X114271144Y-3418122D01*
X114124003Y-3463185D01*
X113989227Y-3524734D01*
X113906245Y-3574926D01*
X113784209Y-3673083D01*
X113686373Y-3782580D01*
X113635868Y-3854829D01*
X113561611Y-3994860D01*
X113506938Y-4143317D01*
X113471737Y-4279078D01*
X113611812Y-4224982D01*
X113718667Y-4194815D01*
X113867353Y-4168515D01*
X114003698Y-4161109D01*
X114151961Y-4168622D01*
X114297860Y-4194243D01*
X114425750Y-4238046D01*
X114555850Y-4308184D01*
X114672698Y-4402111D01*
X114708583Y-4440279D01*
X114798099Y-4566803D01*
X114860567Y-4710072D01*
X114866852Y-4730439D01*
X114899911Y-4876859D01*
X114914457Y-5028889D01*
X114915212Y-5073356D01*
X114903137Y-5227100D01*
X114870079Y-5374081D01*
X114860258Y-5406015D01*
X114801233Y-5549650D01*
X114720329Y-5681784D01*
X114693196Y-5717424D01*
X114583962Y-5830705D01*
X114461433Y-5918314D01*
X114408897Y-5947501D01*
X114270239Y-6001975D01*
X114113653Y-6031307D01*
X113999302Y-6036894D01*
X113826864Y-6025328D01*
X113670604Y-5990629D01*
X113530521Y-5932798D01*
X113406616Y-5851834D01*
X113298888Y-5747738D01*
X113266573Y-5707899D01*
X113181411Y-5575518D01*
X113113868Y-5425673D01*
X113063945Y-5258361D01*
X113035802Y-5105594D01*
X113019895Y-4940698D01*
X113015980Y-4800048D01*
X113016233Y-4790523D01*
X113425575Y-4790523D01*
X113429687Y-4938949D01*
X113443311Y-5091219D01*
X113450488Y-5143698D01*
X113483225Y-5290090D01*
X113537309Y-5426721D01*
X113541346Y-5434591D01*
X113629214Y-5559553D01*
X113716468Y-5634626D01*
X113858664Y-5694467D01*
X113994905Y-5708632D01*
X114145245Y-5687708D01*
X114230844Y-5649281D01*
X114348564Y-5551742D01*
X114391311Y-5496873D01*
X114461648Y-5360986D01*
X114482170Y-5294640D01*
X114507294Y-5148647D01*
X114510013Y-5084347D01*
X114499175Y-4932382D01*
X114461708Y-4788957D01*
X114381423Y-4652171D01*
X114372993Y-4642512D01*
X114250857Y-4549192D01*
X114104863Y-4501485D01*
X113961200Y-4489371D01*
X113809935Y-4497230D01*
X113686427Y-4517215D01*
X113544412Y-4556525D01*
X113433635Y-4599281D01*
X113427773Y-4695268D01*
X113425575Y-4790523D01*
X113016233Y-4790523D01*
X113020127Y-4643634D01*
X113032569Y-4494226D01*
X113057569Y-4328772D01*
X113093858Y-4172856D01*
X113133949Y-4046803D01*
X113190329Y-3908488D01*
X113266441Y-3762606D01*
X113355010Y-3629731D01*
X113456035Y-3509861D01*
X113469539Y-3495792D01*
X113584119Y-3390782D01*
X113710240Y-3299237D01*
X113847902Y-3221156D01*
X113997103Y-3156538D01*
X114136456Y-3110932D01*
X114283311Y-3076055D01*
X114437670Y-3051908D01*
X114599532Y-3038489D01*
X114695394Y-3035638D01*
X114725436Y-3363900D01*
G37*
D10*
G36*
X41649897Y-862212D02*
G01*
X41703620Y-869242D01*
X41755565Y-881335D01*
X41789207Y-892208D01*
X41837282Y-912599D01*
X41881763Y-938052D01*
X41922651Y-968567D01*
X41943813Y-987707D01*
X41978804Y-1025804D01*
X42009312Y-1068654D01*
X42035338Y-1116256D01*
X42047861Y-1144755D01*
X42064530Y-1193268D01*
X42076437Y-1245505D01*
X42082949Y-1294269D01*
X42085814Y-1345884D01*
X42085963Y-1361154D01*
X42084174Y-1413596D01*
X42078810Y-1463209D01*
X42068300Y-1516446D01*
X42053119Y-1565989D01*
X42048593Y-1577798D01*
X42028306Y-1622555D01*
X42001359Y-1668382D01*
X41970045Y-1709418D01*
X41946744Y-1734113D01*
X41908385Y-1766987D01*
X41866124Y-1794993D01*
X41819960Y-1818129D01*
X41792627Y-1828879D01*
X41741300Y-1844228D01*
X41687887Y-1854554D01*
X41638657Y-1859515D01*
X41600652Y-1860631D01*
X41551407Y-1858647D01*
X41497684Y-1851670D01*
X41445739Y-1839670D01*
X41412096Y-1828879D01*
X41364003Y-1808448D01*
X41319464Y-1783147D01*
X41278479Y-1752978D01*
X41257247Y-1734113D01*
X41222355Y-1696272D01*
X41191868Y-1653639D01*
X41165786Y-1606215D01*
X41153199Y-1577798D01*
X41136636Y-1529178D01*
X41124806Y-1476864D01*
X41118336Y-1428060D01*
X41115489Y-1376426D01*
X41115341Y-1361154D01*
X41341755Y-1361154D01*
X41344228Y-1412503D01*
X41352488Y-1463711D01*
X41359340Y-1489382D01*
X41377673Y-1536185D01*
X41403851Y-1579691D01*
X41409898Y-1587568D01*
X41446779Y-1623899D01*
X41490987Y-1650826D01*
X41538926Y-1666780D01*
X41589188Y-1672857D01*
X41600652Y-1673053D01*
X41651315Y-1668798D01*
X41700409Y-1654798D01*
X41709584Y-1650826D01*
X41751716Y-1625857D01*
X41789085Y-1590114D01*
X41791161Y-1587568D01*
X41818868Y-1545436D01*
X41838529Y-1499915D01*
X41841964Y-1489382D01*
X41853350Y-1440648D01*
X41858708Y-1391583D01*
X41859549Y-1361154D01*
X41857076Y-1309737D01*
X41848816Y-1258299D01*
X41841964Y-1232438D01*
X41823585Y-1185014D01*
X41797252Y-1141362D01*
X41791161Y-1133520D01*
X41754281Y-1097006D01*
X41712607Y-1071425D01*
X41709584Y-1070017D01*
X41661563Y-1054064D01*
X41611902Y-1047986D01*
X41600652Y-1047791D01*
X41549247Y-1052185D01*
X41500085Y-1066647D01*
X41490987Y-1070750D01*
X41449327Y-1096299D01*
X41411989Y-1132424D01*
X41409898Y-1134986D01*
X41382367Y-1177157D01*
X41362773Y-1223198D01*
X41359340Y-1233904D01*
X41347954Y-1282713D01*
X41342596Y-1331273D01*
X41341755Y-1361154D01*
X41115341Y-1361154D01*
X41117223Y-1308725D01*
X41122868Y-1259147D01*
X41133928Y-1205978D01*
X41149903Y-1156534D01*
X41154665Y-1144755D01*
X41176143Y-1099860D01*
X41204356Y-1053842D01*
X41236859Y-1012577D01*
X41260910Y-987707D01*
X41300216Y-954380D01*
X41342844Y-926115D01*
X41388796Y-902912D01*
X41415760Y-892208D01*
X41465934Y-876741D01*
X41517538Y-866337D01*
X41570571Y-860993D01*
X41600652Y-860212D01*
X41649897Y-862212D01*
G37*
G36*
X42518028Y-1845000D02*
G01*
X42496456Y-1797756D01*
X42474969Y-1749997D01*
X42453568Y-1701722D01*
X42432253Y-1652933D01*
X42411024Y-1603628D01*
X42403967Y-1587079D01*
X42383098Y-1537448D01*
X42362625Y-1488023D01*
X42342546Y-1438805D01*
X42322863Y-1389792D01*
X42303574Y-1340985D01*
X42297233Y-1324762D01*
X42278539Y-1276499D01*
X42260379Y-1229164D01*
X42242750Y-1182756D01*
X42222857Y-1129785D01*
X42203688Y-1078077D01*
X42185465Y-1028496D01*
X42168412Y-981906D01*
X42150353Y-932325D01*
X42131862Y-881217D01*
X42129926Y-875844D01*
X42371727Y-875844D01*
X42389887Y-926810D01*
X42407007Y-975780D01*
X42424861Y-1027687D01*
X42433032Y-1051699D01*
X42449610Y-1100181D01*
X42466371Y-1148663D01*
X42483315Y-1197145D01*
X42500443Y-1245628D01*
X42517524Y-1293499D01*
X42534331Y-1340394D01*
X42552911Y-1391982D01*
X42567121Y-1431252D01*
X42585065Y-1479346D01*
X42604232Y-1528614D01*
X42624380Y-1577741D01*
X42627937Y-1586102D01*
X42646991Y-1538191D01*
X42665614Y-1489876D01*
X42683436Y-1442519D01*
X42687533Y-1431496D01*
X42706314Y-1380751D01*
X42723170Y-1334639D01*
X42740180Y-1287580D01*
X42755188Y-1245628D01*
X42772315Y-1197145D01*
X42789260Y-1148663D01*
X42806021Y-1100181D01*
X42822599Y-1051699D01*
X42838887Y-1004255D01*
X42856444Y-953653D01*
X42873191Y-905989D01*
X42883904Y-875844D01*
X43117400Y-875844D01*
X43098473Y-926619D01*
X43080319Y-975807D01*
X43063407Y-1021977D01*
X43045537Y-1071070D01*
X43042906Y-1078321D01*
X43024022Y-1129923D01*
X43004344Y-1182787D01*
X42986845Y-1229103D01*
X42968761Y-1276347D01*
X42950094Y-1324518D01*
X42930928Y-1373256D01*
X42911351Y-1422200D01*
X42891361Y-1471350D01*
X42870959Y-1520706D01*
X42850145Y-1570268D01*
X42843115Y-1586835D01*
X42821989Y-1636320D01*
X42800743Y-1685307D01*
X42779377Y-1733796D01*
X42757890Y-1781786D01*
X42736283Y-1829279D01*
X42729054Y-1845000D01*
X42518028Y-1845000D01*
G37*
G36*
X43238545Y-1845000D02*
G01*
X43238545Y-875844D01*
X43896779Y-875844D01*
X43896779Y-1063422D01*
X43457875Y-1063422D01*
X43457875Y-1235369D01*
X43847686Y-1235369D01*
X43847686Y-1422948D01*
X43457875Y-1422948D01*
X43457875Y-1657421D01*
X43929263Y-1657421D01*
X43929263Y-1845000D01*
X43238545Y-1845000D01*
G37*
G36*
X44425362Y-877088D02*
G01*
X44475436Y-880820D01*
X44533509Y-888985D01*
X44586562Y-901037D01*
X44634593Y-916977D01*
X44685604Y-941238D01*
X44708398Y-955467D01*
X44748074Y-988334D01*
X44779541Y-1027400D01*
X44802800Y-1072666D01*
X44817849Y-1124132D01*
X44824690Y-1181797D01*
X44825146Y-1202397D01*
X44822200Y-1252207D01*
X44811842Y-1302368D01*
X44791587Y-1350806D01*
X44778007Y-1372145D01*
X44744491Y-1410160D01*
X44702864Y-1442690D01*
X44658467Y-1467275D01*
X44642208Y-1474483D01*
X44674367Y-1513381D01*
X44704002Y-1552397D01*
X44734241Y-1594471D01*
X44762077Y-1635290D01*
X44767993Y-1644232D01*
X44795355Y-1686701D01*
X44821875Y-1730759D01*
X44829298Y-1743639D01*
X44854363Y-1788405D01*
X44877838Y-1832516D01*
X44884253Y-1845000D01*
X44638056Y-1845000D01*
X44611189Y-1800547D01*
X44585558Y-1758430D01*
X44583834Y-1755607D01*
X44557867Y-1713607D01*
X44529458Y-1670109D01*
X44527658Y-1667435D01*
X44498960Y-1625608D01*
X44470505Y-1586102D01*
X44440662Y-1547427D01*
X44414330Y-1516737D01*
X44305886Y-1516737D01*
X44305886Y-1845000D01*
X44086556Y-1845000D01*
X44086556Y-1067819D01*
X44305886Y-1067819D01*
X44305886Y-1329159D01*
X44367679Y-1329159D01*
X44418489Y-1327698D01*
X44468315Y-1322450D01*
X44518232Y-1310524D01*
X44545000Y-1298628D01*
X44581564Y-1263473D01*
X44597183Y-1216093D01*
X44598489Y-1194092D01*
X44589540Y-1143315D01*
X44559887Y-1103778D01*
X44544267Y-1093464D01*
X44496536Y-1075157D01*
X44445689Y-1066356D01*
X44391320Y-1063452D01*
X44384776Y-1063422D01*
X44341789Y-1064888D01*
X44305886Y-1067819D01*
X44086556Y-1067819D01*
X44086556Y-901245D01*
X44136500Y-892516D01*
X44187600Y-885807D01*
X44235055Y-881461D01*
X44285848Y-878263D01*
X44336847Y-876288D01*
X44372076Y-875844D01*
X44425362Y-877088D01*
G37*
G36*
X45670959Y-1657421D02*
G01*
X45670959Y-1845000D01*
X45019563Y-1845000D01*
X45019563Y-875844D01*
X45238893Y-875844D01*
X45238893Y-1657421D01*
X45670959Y-1657421D01*
G37*
G36*
X46271949Y-862212D02*
G01*
X46325672Y-869242D01*
X46377617Y-881335D01*
X46411259Y-892208D01*
X46459334Y-912599D01*
X46503815Y-938052D01*
X46544702Y-968567D01*
X46565865Y-987707D01*
X46600855Y-1025804D01*
X46631364Y-1068654D01*
X46657390Y-1116256D01*
X46669912Y-1144755D01*
X46686582Y-1193268D01*
X46698489Y-1245505D01*
X46705000Y-1294269D01*
X46707865Y-1345884D01*
X46708014Y-1361154D01*
X46706226Y-1413596D01*
X46700861Y-1463209D01*
X46690351Y-1516446D01*
X46675170Y-1565989D01*
X46670645Y-1577798D01*
X46650358Y-1622555D01*
X46623410Y-1668382D01*
X46592097Y-1709418D01*
X46568796Y-1734113D01*
X46530437Y-1766987D01*
X46488176Y-1794993D01*
X46442012Y-1818129D01*
X46414678Y-1828879D01*
X46363352Y-1844228D01*
X46309938Y-1854554D01*
X46260708Y-1859515D01*
X46222704Y-1860631D01*
X46173458Y-1858647D01*
X46119736Y-1851670D01*
X46067791Y-1839670D01*
X46034148Y-1828879D01*
X45986054Y-1808448D01*
X45941515Y-1783147D01*
X45900531Y-1752978D01*
X45879298Y-1734113D01*
X45844406Y-1696272D01*
X45813919Y-1653639D01*
X45787837Y-1606215D01*
X45775251Y-1577798D01*
X45758688Y-1529178D01*
X45746857Y-1476864D01*
X45740388Y-1428060D01*
X45737541Y-1376426D01*
X45737393Y-1361154D01*
X45963806Y-1361154D01*
X45966279Y-1412503D01*
X45974540Y-1463711D01*
X45981392Y-1489382D01*
X45999724Y-1536185D01*
X46025903Y-1579691D01*
X46031950Y-1587568D01*
X46068831Y-1623899D01*
X46113039Y-1650826D01*
X46160977Y-1666780D01*
X46211240Y-1672857D01*
X46222704Y-1673053D01*
X46273367Y-1668798D01*
X46322461Y-1654798D01*
X46331636Y-1650826D01*
X46373768Y-1625857D01*
X46411137Y-1590114D01*
X46413213Y-1587568D01*
X46440919Y-1545436D01*
X46460581Y-1499915D01*
X46464016Y-1489382D01*
X46475401Y-1440648D01*
X46480760Y-1391583D01*
X46481601Y-1361154D01*
X46479128Y-1309737D01*
X46470868Y-1258299D01*
X46464016Y-1232438D01*
X46445636Y-1185014D01*
X46419304Y-1141362D01*
X46413213Y-1133520D01*
X46376332Y-1097006D01*
X46334658Y-1071425D01*
X46331636Y-1070017D01*
X46283615Y-1054064D01*
X46233954Y-1047986D01*
X46222704Y-1047791D01*
X46171299Y-1052185D01*
X46122137Y-1066647D01*
X46113039Y-1070750D01*
X46071379Y-1096299D01*
X46034040Y-1132424D01*
X46031950Y-1134986D01*
X46004419Y-1177157D01*
X45984824Y-1223198D01*
X45981392Y-1233904D01*
X45970006Y-1282713D01*
X45964648Y-1331273D01*
X45963806Y-1361154D01*
X45737393Y-1361154D01*
X45739275Y-1308725D01*
X45744920Y-1259147D01*
X45755979Y-1205978D01*
X45771954Y-1156534D01*
X45776716Y-1144755D01*
X45798194Y-1099860D01*
X45826408Y-1053842D01*
X45858911Y-1012577D01*
X45882962Y-987707D01*
X45922267Y-954380D01*
X45964896Y-926115D01*
X46010847Y-902912D01*
X46037812Y-892208D01*
X46087986Y-876741D01*
X46139589Y-866337D01*
X46192623Y-860993D01*
X46222704Y-860212D01*
X46271949Y-862212D01*
G37*
G36*
X47370758Y-920114D02*
G01*
X47391492Y-964875D01*
X47412085Y-1010127D01*
X47432538Y-1055870D01*
X47444162Y-1082229D01*
X47464488Y-1128964D01*
X47484861Y-1176844D01*
X47505281Y-1225869D01*
X47525747Y-1276040D01*
X47537463Y-1305223D01*
X47558180Y-1357357D01*
X47576086Y-1403215D01*
X47594129Y-1450156D01*
X47612310Y-1498178D01*
X47630628Y-1547282D01*
X47633695Y-1555572D01*
X47652393Y-1606230D01*
X47671487Y-1658554D01*
X47690976Y-1712545D01*
X47707519Y-1758809D01*
X47724335Y-1806230D01*
X47737986Y-1845000D01*
X47503025Y-1845000D01*
X47487794Y-1797483D01*
X47470953Y-1748357D01*
X47468586Y-1741685D01*
X47451062Y-1693095D01*
X47432607Y-1644697D01*
X47431461Y-1641789D01*
X47051420Y-1641789D01*
X47033101Y-1689844D01*
X47015484Y-1738334D01*
X47014295Y-1741685D01*
X46997239Y-1791026D01*
X46981794Y-1838757D01*
X46979856Y-1845000D01*
X46751978Y-1845000D01*
X46769008Y-1796653D01*
X46785752Y-1749463D01*
X46802210Y-1703430D01*
X46821581Y-1649718D01*
X46840541Y-1597671D01*
X46856025Y-1555572D01*
X46874441Y-1506287D01*
X46892685Y-1458084D01*
X46894170Y-1454211D01*
X47102222Y-1454211D01*
X47379438Y-1454211D01*
X47361382Y-1405089D01*
X47343730Y-1357741D01*
X47335718Y-1336486D01*
X47317713Y-1289035D01*
X47299252Y-1242449D01*
X47295662Y-1233660D01*
X47276799Y-1186851D01*
X47262445Y-1150129D01*
X47243370Y-1103667D01*
X47239975Y-1096884D01*
X47221562Y-1142868D01*
X47218970Y-1149640D01*
X47200684Y-1197687D01*
X47186486Y-1235125D01*
X47168683Y-1281790D01*
X47150517Y-1328152D01*
X47146430Y-1338440D01*
X47128647Y-1384176D01*
X47110623Y-1431685D01*
X47102222Y-1454211D01*
X46894170Y-1454211D01*
X46910757Y-1410964D01*
X46928657Y-1364925D01*
X46949324Y-1312580D01*
X46952257Y-1305223D01*
X46972810Y-1254398D01*
X46993223Y-1204718D01*
X47013496Y-1156183D01*
X47033628Y-1108794D01*
X47045069Y-1082229D01*
X47065227Y-1036206D01*
X47085735Y-990673D01*
X47106593Y-945632D01*
X47127803Y-901081D01*
X47140080Y-875844D01*
X47349884Y-875844D01*
X47370758Y-920114D01*
G37*
G36*
X48212905Y-877176D02*
G01*
X48264285Y-881173D01*
X48313444Y-887835D01*
X48366906Y-898712D01*
X48386207Y-903688D01*
X48435437Y-919502D01*
X48481034Y-939347D01*
X48527988Y-966489D01*
X48561329Y-991127D01*
X48599859Y-1027296D01*
X48633019Y-1068759D01*
X48660808Y-1115515D01*
X48673925Y-1143778D01*
X48691236Y-1192520D01*
X48703600Y-1245933D01*
X48710362Y-1296501D01*
X48713338Y-1350645D01*
X48713492Y-1366772D01*
X48711599Y-1419856D01*
X48705919Y-1469902D01*
X48694790Y-1523376D01*
X48678716Y-1572881D01*
X48673925Y-1584637D01*
X48652187Y-1629058D01*
X48622769Y-1674289D01*
X48588096Y-1714496D01*
X48562062Y-1738510D01*
X48518884Y-1770441D01*
X48476286Y-1794770D01*
X48429720Y-1815283D01*
X48385718Y-1830101D01*
X48332107Y-1843458D01*
X48282592Y-1852015D01*
X48230647Y-1857650D01*
X48176270Y-1860363D01*
X48152222Y-1860631D01*
X48100933Y-1859825D01*
X48047793Y-1857650D01*
X48014225Y-1855746D01*
X47965333Y-1851644D01*
X47912159Y-1844707D01*
X47859619Y-1835230D01*
X47859619Y-1067819D01*
X48078949Y-1067819D01*
X48078949Y-1670122D01*
X48114609Y-1672320D01*
X48163457Y-1673053D01*
X48212820Y-1671073D01*
X48266561Y-1663471D01*
X48314308Y-1650167D01*
X48362439Y-1627440D01*
X48402411Y-1596953D01*
X48407456Y-1591964D01*
X48438481Y-1553424D01*
X48461886Y-1508970D01*
X48477670Y-1458602D01*
X48485835Y-1402321D01*
X48487079Y-1367505D01*
X48484409Y-1313835D01*
X48476397Y-1265301D01*
X48460300Y-1215167D01*
X48436934Y-1172022D01*
X48411120Y-1140603D01*
X48367599Y-1106837D01*
X48320426Y-1085205D01*
X48273240Y-1072542D01*
X48219819Y-1065307D01*
X48170540Y-1063422D01*
X48123890Y-1064155D01*
X48078949Y-1067819D01*
X47859619Y-1067819D01*
X47859619Y-899780D01*
X47912592Y-891137D01*
X47962051Y-885184D01*
X48012750Y-881043D01*
X48017889Y-880729D01*
X48067066Y-878153D01*
X48115927Y-876421D01*
X48159305Y-875844D01*
X48212905Y-877176D01*
G37*
D12*
G36*
X98589706Y-4208004D02*
G01*
X98743763Y-4217735D01*
X98921392Y-4239753D01*
X99082421Y-4272719D01*
X99226848Y-4316632D01*
X99378248Y-4383780D01*
X99505743Y-4466693D01*
X99524668Y-4482044D01*
X99640584Y-4599272D01*
X99728029Y-4733610D01*
X99787003Y-4885059D01*
X99817508Y-5053618D01*
X99822156Y-5157620D01*
X99811272Y-5307693D01*
X99775208Y-5458761D01*
X99756210Y-5510062D01*
X99686246Y-5643058D01*
X99590476Y-5758663D01*
X99558374Y-5788499D01*
X99439007Y-5874461D01*
X99296423Y-5944218D01*
X99222784Y-5970949D01*
X99074327Y-6008494D01*
X98923889Y-6029102D01*
X98775891Y-6036637D01*
X98741381Y-6036894D01*
X98588839Y-6028929D01*
X98517899Y-6020041D01*
X98368694Y-5993059D01*
X98306140Y-5978276D01*
X98162514Y-5937086D01*
X98133217Y-5927718D01*
X98024040Y-5885219D01*
X98100244Y-5565017D01*
X98241577Y-5621406D01*
X98333984Y-5653677D01*
X98478364Y-5689258D01*
X98633319Y-5706002D01*
X98733321Y-5708632D01*
X98887595Y-5700778D01*
X99035057Y-5672568D01*
X99051325Y-5667599D01*
X99187159Y-5607928D01*
X99260153Y-5555491D01*
X99352925Y-5441587D01*
X99376657Y-5390628D01*
X99410317Y-5244173D01*
X99412561Y-5192791D01*
X99398822Y-5044047D01*
X99357606Y-4912889D01*
X99269120Y-4787154D01*
X99163433Y-4706992D01*
X99023805Y-4641616D01*
X98875771Y-4597858D01*
X98791939Y-4580230D01*
X98635204Y-4557046D01*
X98473586Y-4543522D01*
X98313577Y-4537339D01*
X98205757Y-4536266D01*
X98223445Y-4384248D01*
X98239119Y-4227468D01*
X98246057Y-4146454D01*
X98257601Y-3999665D01*
X98269221Y-3844831D01*
X98273168Y-3790348D01*
X98283226Y-3638820D01*
X98291600Y-3488132D01*
X98293684Y-3445233D01*
X98301378Y-3291060D01*
X98308522Y-3141620D01*
X98311270Y-3082533D01*
X99721039Y-3082533D01*
X99721039Y-3410795D01*
X98653454Y-3410795D01*
X98641875Y-3563046D01*
X98640265Y-3582986D01*
X98628836Y-3735245D01*
X98623412Y-3807201D01*
X98612518Y-3957588D01*
X98606559Y-4034347D01*
X98592978Y-4182476D01*
X98589706Y-4208004D01*
G37*
G36*
X128438032Y-5990000D02*
G01*
X128452547Y-5840820D01*
X128473655Y-5688204D01*
X128501354Y-5532152D01*
X128535645Y-5372664D01*
X128558199Y-5279986D01*
X128601977Y-5117833D01*
X128649962Y-4957714D01*
X128702154Y-4799628D01*
X128758555Y-4643576D01*
X128792672Y-4555317D01*
X128854878Y-4403578D01*
X128919678Y-4256747D01*
X128987072Y-4114826D01*
X129057061Y-3977812D01*
X129098220Y-3901723D01*
X129181339Y-3758108D01*
X129263633Y-3628415D01*
X129355230Y-3499152D01*
X129425750Y-3410795D01*
X128003524Y-3410795D01*
X128003524Y-3082533D01*
X129864654Y-3082533D01*
X129864654Y-3393942D01*
X129765392Y-3518463D01*
X129678896Y-3641467D01*
X129598021Y-3766764D01*
X129556175Y-3835045D01*
X129473056Y-3979255D01*
X129402206Y-4112426D01*
X129333108Y-4252119D01*
X129265764Y-4398334D01*
X129237438Y-4462993D01*
X129174041Y-4617187D01*
X129114641Y-4775868D01*
X129066907Y-4915453D01*
X129022111Y-5058335D01*
X128980251Y-5204515D01*
X128942993Y-5352016D01*
X128911454Y-5499415D01*
X128885634Y-5646710D01*
X128865533Y-5793903D01*
X128851150Y-5940993D01*
X128847627Y-5990000D01*
X128438032Y-5990000D01*
G37*
D14*
G36*
X20523498Y-727030D02*
G01*
X20697713Y-739251D01*
X20899893Y-765986D01*
X21084750Y-805452D01*
X21252285Y-857649D01*
X21430461Y-937090D01*
X21510195Y-983685D01*
X21649061Y-1093149D01*
X21759197Y-1225995D01*
X21840601Y-1382222D01*
X21893275Y-1561831D01*
X21917217Y-1764821D01*
X21918813Y-1837680D01*
X21908712Y-2016314D01*
X21869923Y-2209296D01*
X21802043Y-2378957D01*
X21705071Y-2525297D01*
X21579007Y-2648315D01*
X21505066Y-2701079D01*
X21337438Y-2791138D01*
X21144867Y-2862565D01*
X20965336Y-2907854D01*
X20768482Y-2940203D01*
X20554307Y-2959612D01*
X20370494Y-2965823D01*
X20322808Y-2966082D01*
X20081741Y-2966082D01*
X20081741Y-4115001D01*
X19314085Y-4115001D01*
X19314085Y-1393158D01*
X20081741Y-1393158D01*
X20081741Y-2309557D01*
X20322808Y-2309557D01*
X20510074Y-2303253D01*
X20691243Y-2281089D01*
X20870246Y-2232327D01*
X20923768Y-2208685D01*
X21054390Y-2098086D01*
X21118420Y-1930208D01*
X21125512Y-1833406D01*
X21096180Y-1659818D01*
X21073367Y-1613710D01*
X20948919Y-1487299D01*
X20925478Y-1473514D01*
X20758301Y-1412285D01*
X20692103Y-1399997D01*
X20518119Y-1382867D01*
X20386922Y-1379481D01*
X20221936Y-1384610D01*
X20081741Y-1393158D01*
X19314085Y-1393158D01*
X19314085Y-810151D01*
X19490306Y-780187D01*
X19673396Y-757293D01*
X19845802Y-742617D01*
X20030490Y-731423D01*
X20213534Y-724511D01*
X20338196Y-722956D01*
X20523498Y-727030D01*
G37*
G36*
X23703273Y-727619D02*
G01*
X23883101Y-741609D01*
X24055158Y-764925D01*
X24242276Y-802993D01*
X24309829Y-820409D01*
X24482134Y-875760D01*
X24641724Y-945217D01*
X24806063Y-1040215D01*
X24922756Y-1126445D01*
X25057613Y-1253037D01*
X25173671Y-1398157D01*
X25270931Y-1561805D01*
X25316842Y-1660726D01*
X25377429Y-1831322D01*
X25420706Y-2018267D01*
X25444373Y-2195255D01*
X25454787Y-2384761D01*
X25455327Y-2441204D01*
X25448701Y-2626999D01*
X25428820Y-2802158D01*
X25389871Y-2989317D01*
X25333612Y-3162584D01*
X25316842Y-3203730D01*
X25240760Y-3359206D01*
X25137797Y-3517512D01*
X25016442Y-3658237D01*
X24925321Y-3742286D01*
X24774197Y-3854047D01*
X24625106Y-3939198D01*
X24462124Y-4010992D01*
X24308119Y-4062855D01*
X24120479Y-4109604D01*
X23947178Y-4139553D01*
X23765369Y-4159276D01*
X23575052Y-4168772D01*
X23490882Y-4169711D01*
X23311370Y-4166889D01*
X23125380Y-4159276D01*
X23007892Y-4152614D01*
X22836772Y-4138255D01*
X22650661Y-4113975D01*
X22466772Y-4080807D01*
X22466772Y-1394868D01*
X23234427Y-1394868D01*
X23234427Y-3502928D01*
X23359235Y-3510622D01*
X23530205Y-3513186D01*
X23702974Y-3506257D01*
X23891068Y-3479650D01*
X24058185Y-3433087D01*
X24226641Y-3353543D01*
X24366545Y-3246837D01*
X24384200Y-3229376D01*
X24492788Y-3094486D01*
X24574705Y-2938897D01*
X24629951Y-2762610D01*
X24658527Y-2565625D01*
X24662882Y-2443769D01*
X24653535Y-2255926D01*
X24625495Y-2086054D01*
X24569156Y-1910585D01*
X24487374Y-1759578D01*
X24397023Y-1649613D01*
X24244700Y-1531430D01*
X24079598Y-1455719D01*
X23914445Y-1411401D01*
X23727473Y-1386076D01*
X23554996Y-1379481D01*
X23391720Y-1382045D01*
X23234427Y-1394868D01*
X22466772Y-1394868D01*
X22466772Y-806731D01*
X22652176Y-776482D01*
X22825283Y-755646D01*
X23002731Y-741153D01*
X23020715Y-740053D01*
X23192837Y-731037D01*
X23363851Y-724976D01*
X23515673Y-722956D01*
X23703273Y-727619D01*
G37*
G36*
X27412079Y-4169711D02*
G01*
X27238331Y-4163460D01*
X27057680Y-4141483D01*
X26875357Y-4098507D01*
X26791458Y-4069693D01*
X26622914Y-3991739D01*
X26475785Y-3895401D01*
X26360614Y-3791867D01*
X26245529Y-3648894D01*
X26155450Y-3486686D01*
X26109288Y-3367862D01*
X26063052Y-3192541D01*
X26037673Y-3022639D01*
X26028156Y-2842720D01*
X26028077Y-2824177D01*
X26028077Y-722956D01*
X26796587Y-722956D01*
X26796587Y-2761773D01*
X26806730Y-2940778D01*
X26842749Y-3111407D01*
X26914877Y-3270222D01*
X26970976Y-3345636D01*
X27112828Y-3451904D01*
X27168447Y-3474718D01*
X27338038Y-3509429D01*
X27422337Y-3513186D01*
X27602580Y-3493085D01*
X27770639Y-3425304D01*
X27877117Y-3343071D01*
X27976890Y-3197246D01*
X28031654Y-3015590D01*
X28050821Y-2836606D01*
X28052362Y-2761773D01*
X28052362Y-722956D01*
X28820017Y-722956D01*
X28820017Y-2824177D01*
X28811836Y-3005348D01*
X28787292Y-3177003D01*
X28741396Y-3354831D01*
X28736242Y-3370426D01*
X28668141Y-3533066D01*
X28569887Y-3691366D01*
X28479787Y-3796996D01*
X28350546Y-3909745D01*
X28199082Y-4003503D01*
X28042103Y-4072258D01*
X27866342Y-4123649D01*
X27691739Y-4153627D01*
X27501585Y-4168188D01*
X27412079Y-4169711D01*
G37*
G36*
X30472442Y-3513186D02*
G01*
X30645427Y-3503844D01*
X30740865Y-3486686D01*
X30902051Y-3420468D01*
X30910125Y-3414878D01*
X30999030Y-3307167D01*
X31023820Y-3168682D01*
X30973781Y-3002577D01*
X30865673Y-2897694D01*
X30715847Y-2814386D01*
X30542323Y-2741106D01*
X30371646Y-2679958D01*
X30324553Y-2664320D01*
X30157002Y-2602130D01*
X29989452Y-2531818D01*
X29830450Y-2446975D01*
X29688545Y-2342897D01*
X29568224Y-2217234D01*
X29472267Y-2067635D01*
X29412136Y-1900150D01*
X29389801Y-1730383D01*
X29388492Y-1673549D01*
X29403024Y-1492799D01*
X29446619Y-1327004D01*
X29476542Y-1255527D01*
X29568405Y-1103264D01*
X29688411Y-972599D01*
X29727868Y-939233D01*
X29871675Y-842981D01*
X30037774Y-766764D01*
X30121953Y-738343D01*
X30303996Y-695627D01*
X30485442Y-673790D01*
X30644267Y-668245D01*
X30830680Y-674128D01*
X31002352Y-691777D01*
X31175810Y-725186D01*
X31240097Y-742617D01*
X31416089Y-799919D01*
X31578531Y-866880D01*
X31653845Y-905039D01*
X31432438Y-1511982D01*
X31271588Y-1438696D01*
X31114434Y-1382045D01*
X30935166Y-1340935D01*
X30754275Y-1325665D01*
X30693848Y-1324770D01*
X30522402Y-1333558D01*
X30347868Y-1373867D01*
X30297198Y-1399142D01*
X30188435Y-1538576D01*
X30176664Y-1626532D01*
X30221116Y-1780405D01*
X30346779Y-1892391D01*
X30501471Y-1970807D01*
X30533991Y-1983860D01*
X30697409Y-2044169D01*
X30767365Y-2068490D01*
X30941961Y-2134598D01*
X31100192Y-2200100D01*
X31229839Y-2259121D01*
X31389699Y-2347455D01*
X31532290Y-2455534D01*
X31557247Y-2478818D01*
X31671369Y-2615380D01*
X31752152Y-2773741D01*
X31798171Y-2948200D01*
X31815264Y-3124924D01*
X31816266Y-3184069D01*
X31800231Y-3378997D01*
X31752126Y-3553882D01*
X31671950Y-3708722D01*
X31559704Y-3843519D01*
X31481165Y-3911546D01*
X31318611Y-4012140D01*
X31153297Y-4078698D01*
X30964002Y-4127104D01*
X30787935Y-4153576D01*
X30595214Y-4167442D01*
X30471587Y-4169711D01*
X30294864Y-4165196D01*
X30120955Y-4150236D01*
X30062969Y-4142356D01*
X29891358Y-4112009D01*
X29740690Y-4075677D01*
X29573619Y-4021857D01*
X29499623Y-3991902D01*
X29342769Y-3915545D01*
X29329508Y-3908127D01*
X29546639Y-3296054D01*
X29705684Y-3370837D01*
X29868744Y-3429571D01*
X29923628Y-3446508D01*
X30105791Y-3487140D01*
X30279266Y-3506675D01*
X30452238Y-3513121D01*
X30472442Y-3513186D01*
G37*
G36*
X33610945Y-726472D02*
G01*
X33800014Y-738627D01*
X33978731Y-759464D01*
X34030327Y-767408D01*
X34209303Y-804856D01*
X34383813Y-862759D01*
X34500495Y-917862D01*
X34646549Y-1015828D01*
X34771651Y-1146259D01*
X34808241Y-1199107D01*
X34884209Y-1366494D01*
X34915465Y-1534713D01*
X34919371Y-1627387D01*
X34894741Y-1809951D01*
X34820850Y-1972105D01*
X34697698Y-2113850D01*
X34549531Y-2221135D01*
X34525286Y-2235185D01*
X34691646Y-2313106D01*
X34838106Y-2416657D01*
X34952544Y-2551196D01*
X34968098Y-2577980D01*
X35040506Y-2748002D01*
X35077523Y-2917584D01*
X35086922Y-3066100D01*
X35073158Y-3262638D01*
X35031864Y-3440003D01*
X34963042Y-3598194D01*
X34847956Y-3758516D01*
X34719488Y-3875162D01*
X34695401Y-3892740D01*
X34535176Y-3986867D01*
X34348145Y-4061519D01*
X34171807Y-4108853D01*
X33976853Y-4142663D01*
X33763282Y-4162949D01*
X33579022Y-4169440D01*
X33531095Y-4169711D01*
X33355567Y-4168041D01*
X33180540Y-4163032D01*
X33006014Y-4154684D01*
X32971168Y-4152614D01*
X32795356Y-4137420D01*
X32615204Y-4113211D01*
X32430710Y-4079985D01*
X32393290Y-4072258D01*
X32393290Y-3494379D01*
X33141284Y-3494379D01*
X33317237Y-3508587D01*
X33323367Y-3508912D01*
X33496661Y-3513036D01*
X33540498Y-3513186D01*
X33723734Y-3505613D01*
X33902584Y-3479433D01*
X34069237Y-3429037D01*
X34096151Y-3417443D01*
X34233414Y-3312846D01*
X34300700Y-3154637D01*
X34308154Y-3063535D01*
X34274120Y-2887686D01*
X34162121Y-2755564D01*
X34130345Y-2736128D01*
X33961316Y-2672477D01*
X33778841Y-2643964D01*
X33623419Y-2637820D01*
X33141284Y-2637820D01*
X33141284Y-3494379D01*
X32393290Y-3494379D01*
X32393290Y-1391449D01*
X33141284Y-1391449D01*
X33141284Y-1981295D01*
X33515708Y-1981295D01*
X33699236Y-1975615D01*
X33880021Y-1953245D01*
X34022634Y-1909488D01*
X34150398Y-1792160D01*
X34175652Y-1676114D01*
X34113876Y-1509351D01*
X34017505Y-1446159D01*
X33851567Y-1400578D01*
X33681471Y-1382671D01*
X33555031Y-1379481D01*
X33378182Y-1381306D01*
X33343028Y-1382045D01*
X33169651Y-1389190D01*
X33141284Y-1391449D01*
X32393290Y-1391449D01*
X32393290Y-810151D01*
X32576495Y-780578D01*
X32755416Y-758961D01*
X32909619Y-745182D01*
X33081474Y-733461D01*
X33261451Y-725582D01*
X33431933Y-722956D01*
X33610945Y-726472D01*
G37*
D10*
X159822054Y-13569600D02*
X159964911Y-13617219D01*
X159964911Y-13617219D02*
X160203006Y-13617219D01*
X160203006Y-13617219D02*
X160298244Y-13569600D01*
X160298244Y-13569600D02*
X160345863Y-13521980D01*
X160345863Y-13521980D02*
X160393482Y-13426742D01*
X160393482Y-13426742D02*
X160393482Y-13331504D01*
X160393482Y-13331504D02*
X160345863Y-13236266D01*
X160345863Y-13236266D02*
X160298244Y-13188647D01*
X160298244Y-13188647D02*
X160203006Y-13141028D01*
X160203006Y-13141028D02*
X160012530Y-13093409D01*
X160012530Y-13093409D02*
X159917292Y-13045790D01*
X159917292Y-13045790D02*
X159869673Y-12998171D01*
X159869673Y-12998171D02*
X159822054Y-12902933D01*
X159822054Y-12902933D02*
X159822054Y-12807695D01*
X159822054Y-12807695D02*
X159869673Y-12712457D01*
X159869673Y-12712457D02*
X159917292Y-12664838D01*
X159917292Y-12664838D02*
X160012530Y-12617219D01*
X160012530Y-12617219D02*
X160250625Y-12617219D01*
X160250625Y-12617219D02*
X160393482Y-12664838D01*
X160822054Y-13617219D02*
X160822054Y-12617219D01*
X160822054Y-12617219D02*
X161060149Y-12617219D01*
X161060149Y-12617219D02*
X161203006Y-12664838D01*
X161203006Y-12664838D02*
X161298244Y-12760076D01*
X161298244Y-12760076D02*
X161345863Y-12855314D01*
X161345863Y-12855314D02*
X161393482Y-13045790D01*
X161393482Y-13045790D02*
X161393482Y-13188647D01*
X161393482Y-13188647D02*
X161345863Y-13379123D01*
X161345863Y-13379123D02*
X161298244Y-13474361D01*
X161298244Y-13474361D02*
X161203006Y-13569600D01*
X161203006Y-13569600D02*
X161060149Y-13617219D01*
X161060149Y-13617219D02*
X160822054Y-13617219D01*
X161774435Y-13331504D02*
X162250625Y-13331504D01*
X161679197Y-13617219D02*
X162012530Y-12617219D01*
X162012530Y-12617219D02*
X162345863Y-13617219D01*
D12*
G36*
X84606734Y-4911423D02*
G01*
X84953314Y-4911423D01*
X84953314Y-5239685D01*
X84606734Y-5239685D01*
X84606734Y-5990000D01*
X84227180Y-5990000D01*
X84227180Y-5239685D01*
X82918527Y-5239685D01*
X82918527Y-4966378D01*
X82944342Y-4911423D01*
X83298813Y-4911423D01*
X84227180Y-4911423D01*
X84227180Y-3566866D01*
X84123823Y-3677916D01*
X84027773Y-3789440D01*
X83971458Y-3858492D01*
X83876112Y-3980904D01*
X83782414Y-4107437D01*
X83720865Y-4194082D01*
X83638470Y-4315517D01*
X83559539Y-4439031D01*
X83490788Y-4553119D01*
X83413302Y-4689372D01*
X83342411Y-4823358D01*
X83298813Y-4911423D01*
X82944342Y-4911423D01*
X82986774Y-4821091D01*
X83056397Y-4687111D01*
X83128970Y-4556495D01*
X83137613Y-4541395D01*
X83219117Y-4403457D01*
X83306186Y-4263316D01*
X83388252Y-4136898D01*
X83452686Y-4040942D01*
X83541804Y-3912851D01*
X83634036Y-3785769D01*
X83729383Y-3659694D01*
X83827843Y-3534626D01*
X83928364Y-3412947D01*
X84029160Y-3297039D01*
X84130231Y-3186901D01*
X84231577Y-3082533D01*
X84606734Y-3082533D01*
X84606734Y-4911423D01*
G37*
D10*
X160393482Y-15164838D02*
X160298244Y-15117219D01*
X160298244Y-15117219D02*
X160155387Y-15117219D01*
X160155387Y-15117219D02*
X160012530Y-15164838D01*
X160012530Y-15164838D02*
X159917292Y-15260076D01*
X159917292Y-15260076D02*
X159869673Y-15355314D01*
X159869673Y-15355314D02*
X159822054Y-15545790D01*
X159822054Y-15545790D02*
X159822054Y-15688647D01*
X159822054Y-15688647D02*
X159869673Y-15879123D01*
X159869673Y-15879123D02*
X159917292Y-15974361D01*
X159917292Y-15974361D02*
X160012530Y-16069600D01*
X160012530Y-16069600D02*
X160155387Y-16117219D01*
X160155387Y-16117219D02*
X160250625Y-16117219D01*
X160250625Y-16117219D02*
X160393482Y-16069600D01*
X160393482Y-16069600D02*
X160441101Y-16021980D01*
X160441101Y-16021980D02*
X160441101Y-15688647D01*
X160441101Y-15688647D02*
X160250625Y-15688647D01*
X160869673Y-16117219D02*
X160869673Y-15117219D01*
X160869673Y-15117219D02*
X161441101Y-16117219D01*
X161441101Y-16117219D02*
X161441101Y-15117219D01*
X161917292Y-16117219D02*
X161917292Y-15117219D01*
X161917292Y-15117219D02*
X162155387Y-15117219D01*
X162155387Y-15117219D02*
X162298244Y-15164838D01*
X162298244Y-15164838D02*
X162393482Y-15260076D01*
X162393482Y-15260076D02*
X162441101Y-15355314D01*
X162441101Y-15355314D02*
X162488720Y-15545790D01*
X162488720Y-15545790D02*
X162488720Y-15688647D01*
X162488720Y-15688647D02*
X162441101Y-15879123D01*
X162441101Y-15879123D02*
X162393482Y-15974361D01*
X162393482Y-15974361D02*
X162298244Y-16069600D01*
X162298244Y-16069600D02*
X162155387Y-16117219D01*
X162155387Y-16117219D02*
X161917292Y-16117219D01*
X160345863Y-17617219D02*
X159869673Y-17617219D01*
X159869673Y-17617219D02*
X159822054Y-18093409D01*
X159822054Y-18093409D02*
X159869673Y-18045790D01*
X159869673Y-18045790D02*
X159964911Y-17998171D01*
X159964911Y-17998171D02*
X160203006Y-17998171D01*
X160203006Y-17998171D02*
X160298244Y-18045790D01*
X160298244Y-18045790D02*
X160345863Y-18093409D01*
X160345863Y-18093409D02*
X160393482Y-18188647D01*
X160393482Y-18188647D02*
X160393482Y-18426742D01*
X160393482Y-18426742D02*
X160345863Y-18521980D01*
X160345863Y-18521980D02*
X160298244Y-18569600D01*
X160298244Y-18569600D02*
X160203006Y-18617219D01*
X160203006Y-18617219D02*
X159964911Y-18617219D01*
X159964911Y-18617219D02*
X159869673Y-18569600D01*
X159869673Y-18569600D02*
X159822054Y-18521980D01*
X160679197Y-17617219D02*
X161012530Y-18617219D01*
X161012530Y-18617219D02*
X161345863Y-17617219D01*
D12*
G36*
X38142742Y-3645268D02*
G01*
X38291735Y-3586435D01*
X38438295Y-3518014D01*
X38568119Y-3448236D01*
X38610956Y-3423251D01*
X38736123Y-3341199D01*
X38855263Y-3248367D01*
X38968375Y-3144754D01*
X39028611Y-3082533D01*
X39307048Y-3082533D01*
X39307048Y-5990000D01*
X38915038Y-5990000D01*
X38915038Y-3618890D01*
X38799633Y-3709951D01*
X38790474Y-3716343D01*
X38661992Y-3795598D01*
X38630006Y-3813063D01*
X38495368Y-3880245D01*
X38448290Y-3901723D01*
X38309804Y-3958052D01*
X38265108Y-3973531D01*
X38142742Y-3645268D01*
G37*
D15*
X184914700Y-3091428D02*
X184914700Y-1948571D01*
X185486128Y-2519999D02*
X184343271Y-2519999D01*
X184914700Y-14091428D02*
X184914700Y-12948571D01*
D16*
%TO.C,J8*%
X66670000Y-16730000D02*
X66670000Y-9050000D01*
X69330000Y-9050000D02*
X66670000Y-9050000D01*
X69330000Y-16730000D02*
X66670000Y-16730000D01*
X69330000Y-16730000D02*
X69330000Y-9050000D01*
X69330000Y-18000000D02*
X69330000Y-19330000D01*
X69330000Y-19330000D02*
X68000000Y-19330000D01*
%TO.C,L1*%
X1935000Y-1991471D02*
X1935000Y-9511471D01*
X1935000Y-1991471D02*
X3485000Y-1991471D01*
X1935000Y-9511471D02*
X3485000Y-9511471D01*
X9055000Y-1991471D02*
X7505000Y-1991471D01*
X9055000Y-1991471D02*
X9055000Y-9511471D01*
X9055000Y-9511471D02*
X7505000Y-9511471D01*
D17*
%TO.C,J14*%
X86150000Y-4000000D02*
X94950000Y-4000000D01*
X86150000Y-29000000D02*
X86150000Y-4000000D01*
X86150000Y-29000000D02*
X89730000Y-29000000D01*
X94950000Y-4000000D02*
X94950000Y-7036000D01*
X94950000Y-16960000D02*
X94950000Y-19040000D01*
X94950000Y-26964000D02*
X94950000Y-29000000D01*
X94950000Y-29000000D02*
X92770000Y-29000000D01*
D10*
X92600000Y-3400000D02*
G75*
G02*
X92400000Y-3400000I-100000J0D01*
G01*
X92400000Y-3400000D02*
G75*
G02*
X92600000Y-3400000I100000J0D01*
G01*
D16*
%TO.C,D2*%
X17975000Y-3630000D02*
X12465000Y-3630000D01*
X17975000Y-6930000D02*
X12465000Y-6930000D01*
X17975000Y-6930000D02*
X17975000Y-3630000D01*
%TO.C,C4*%
X1127500Y-13552500D02*
X1915000Y-13552500D01*
X1521250Y-13158750D02*
X1521250Y-13946250D01*
X2155000Y-13054437D02*
X2155000Y-14340000D01*
X2155000Y-13054437D02*
X3219437Y-11990000D01*
X2155000Y-17745563D02*
X2155000Y-16460000D01*
X2155000Y-17745563D02*
X3219437Y-18810000D01*
X3219437Y-11990000D02*
X8975000Y-11990000D01*
X3219437Y-18810000D02*
X8975000Y-18810000D01*
X8975000Y-11990000D02*
X8975000Y-14340000D01*
X8975000Y-18810000D02*
X8975000Y-16460000D01*
%TO.C,C3*%
X9585000Y-4247051D02*
X9585000Y-3965891D01*
X10605000Y-4247051D02*
X10605000Y-3965891D01*
D17*
%TO.C,J6*%
X56150000Y-4000000D02*
X64950000Y-4000000D01*
X56150000Y-29000000D02*
X56150000Y-4000000D01*
X56150000Y-29000000D02*
X59730000Y-29000000D01*
X64950000Y-4000000D02*
X64950000Y-7036000D01*
X64950000Y-16960000D02*
X64950000Y-19040000D01*
X64950000Y-26964000D02*
X64950000Y-29000000D01*
X64950000Y-29000000D02*
X62770000Y-29000000D01*
D10*
X62600000Y-3400000D02*
G75*
G02*
X62400000Y-3400000I-100000J0D01*
G01*
X62400000Y-3400000D02*
G75*
G02*
X62600000Y-3400000I100000J0D01*
G01*
D16*
%TO.C,R3*%
X10607742Y-12883971D02*
X11082258Y-12883971D01*
X10607742Y-13928971D02*
X11082258Y-13928971D01*
%TO.C,D1*%
X41045000Y-2015000D02*
X41045000Y-3485000D01*
X41045000Y-3485000D02*
X43330000Y-3485000D01*
X43330000Y-2015000D02*
X41045000Y-2015000D01*
D17*
%TO.C,J2*%
X41150000Y-4000000D02*
X49950000Y-4000000D01*
X41150000Y-29000000D02*
X41150000Y-4000000D01*
X41150000Y-29000000D02*
X44730000Y-29000000D01*
X49950000Y-4000000D02*
X49950000Y-7036000D01*
X49950000Y-16960000D02*
X49950000Y-19040000D01*
X49950000Y-26964000D02*
X49950000Y-29000000D01*
X49950000Y-29000000D02*
X47770000Y-29000000D01*
D10*
X47600000Y-3400000D02*
G75*
G02*
X47400000Y-3400000I-100000J0D01*
G01*
X47400000Y-3400000D02*
G75*
G02*
X47600000Y-3400000I100000J0D01*
G01*
D16*
%TO.C,J16*%
X96670000Y-16560000D02*
X96670000Y-8880000D01*
X99330000Y-8880000D02*
X96670000Y-8880000D01*
X99330000Y-16560000D02*
X96670000Y-16560000D01*
X99330000Y-16560000D02*
X99330000Y-8880000D01*
X99330000Y-17830000D02*
X99330000Y-19160000D01*
X99330000Y-19160000D02*
X98000000Y-19160000D01*
%TO.C,U1*%
X33622500Y-6755000D02*
X31422500Y-6755000D01*
X33622500Y-6755000D02*
X35822500Y-6755000D01*
X33622500Y-14825000D02*
X31422500Y-14825000D01*
X33622500Y-14825000D02*
X35822500Y-14825000D01*
X37812500Y-14605000D02*
X37482500Y-14365000D01*
X37812500Y-14125000D01*
X37812500Y-14605000D01*
G36*
X37812500Y-14605000D02*
G01*
X37482500Y-14365000D01*
X37812500Y-14125000D01*
X37812500Y-14605000D01*
G37*
%TO.C,J17*%
X156670000Y-16560000D02*
X156670000Y-8880000D01*
X159330000Y-8880000D02*
X156670000Y-8880000D01*
X159330000Y-16560000D02*
X156670000Y-16560000D01*
X159330000Y-16560000D02*
X159330000Y-8880000D01*
X159330000Y-17830000D02*
X159330000Y-19160000D01*
X159330000Y-19160000D02*
X158000000Y-19160000D01*
D17*
%TO.C,J11*%
X131150000Y-4000000D02*
X139950000Y-4000000D01*
X131150000Y-29000000D02*
X131150000Y-4000000D01*
X131150000Y-29000000D02*
X134730000Y-29000000D01*
X139950000Y-4000000D02*
X139950000Y-7036000D01*
X139950000Y-16960000D02*
X139950000Y-19040000D01*
X139950000Y-26964000D02*
X139950000Y-29000000D01*
X139950000Y-29000000D02*
X137770000Y-29000000D01*
D10*
X137600000Y-3400000D02*
G75*
G02*
X137400000Y-3400000I-100000J0D01*
G01*
X137400000Y-3400000D02*
G75*
G02*
X137600000Y-3400000I100000J0D01*
G01*
D17*
%TO.C,J18*%
X1000000Y-19200000D02*
X1000000Y-22780000D01*
X1000000Y-19200000D02*
X26000000Y-19200000D01*
X1000000Y-28000000D02*
X1000000Y-25820000D01*
X3036000Y-28000000D02*
X1000000Y-28000000D01*
X13040000Y-28000000D02*
X10960000Y-28000000D01*
X26000000Y-19200000D02*
X26000000Y-28000000D01*
X26000000Y-28000000D02*
X22964000Y-28000000D01*
D10*
X26700000Y-25550000D02*
G75*
G02*
X26500000Y-25550000I-100000J0D01*
G01*
X26500000Y-25550000D02*
G75*
G02*
X26700000Y-25550000I100000J0D01*
G01*
D16*
%TO.C,F1*%
X165730000Y-8400000D02*
X165730000Y-24600000D01*
X165730000Y-24600000D02*
X172670000Y-24600000D01*
X167200000Y-18100000D02*
X167200000Y-14900000D01*
X169200000Y-15750000D02*
X169200000Y-17250000D01*
X171200000Y-14900000D02*
X171200000Y-18100000D01*
X172670000Y-8400000D02*
X165730000Y-8400000D01*
X172670000Y-24600000D02*
X172670000Y-8400000D01*
%TO.C,C1*%
X19815000Y-10080908D02*
X19815000Y-15836471D01*
X19815000Y-15836471D02*
X22165000Y-15836471D01*
X20879437Y-9016471D02*
X19815000Y-10080908D01*
X20879437Y-9016471D02*
X22165000Y-9016471D01*
X25072500Y-7988971D02*
X25072500Y-8776471D01*
X25466250Y-8382721D02*
X24678750Y-8382721D01*
X25570563Y-9016471D02*
X24285000Y-9016471D01*
X25570563Y-9016471D02*
X26635000Y-10080908D01*
X26635000Y-10080908D02*
X26635000Y-15836471D01*
X26635000Y-15836471D02*
X24285000Y-15836471D01*
D17*
%TO.C,J3*%
X101150000Y-4000000D02*
X109950000Y-4000000D01*
X101150000Y-29000000D02*
X101150000Y-4000000D01*
X101150000Y-29000000D02*
X104730000Y-29000000D01*
X109950000Y-4000000D02*
X109950000Y-7036000D01*
X109950000Y-16960000D02*
X109950000Y-19040000D01*
X109950000Y-26964000D02*
X109950000Y-29000000D01*
X109950000Y-29000000D02*
X107770000Y-29000000D01*
D10*
X107600000Y-3400000D02*
G75*
G02*
X107400000Y-3400000I-100000J0D01*
G01*
X107400000Y-3400000D02*
G75*
G02*
X107600000Y-3400000I100000J0D01*
G01*
D16*
%TO.C,J4*%
X51670000Y-16830000D02*
X51670000Y-9150000D01*
X54330000Y-9150000D02*
X51670000Y-9150000D01*
X54330000Y-16830000D02*
X51670000Y-16830000D01*
X54330000Y-16830000D02*
X54330000Y-9150000D01*
X54330000Y-18100000D02*
X54330000Y-19430000D01*
X54330000Y-19430000D02*
X53000000Y-19430000D01*
%TO.C,J5*%
X111670000Y-16590000D02*
X111670000Y-8910000D01*
X114330000Y-8910000D02*
X111670000Y-8910000D01*
X114330000Y-16590000D02*
X111670000Y-16590000D01*
X114330000Y-16590000D02*
X114330000Y-8910000D01*
X114330000Y-17860000D02*
X114330000Y-19190000D01*
X114330000Y-19190000D02*
X113000000Y-19190000D01*
%TO.C,R1*%
X45817258Y-2247500D02*
X45342742Y-2247500D01*
X45817258Y-3292500D02*
X45342742Y-3292500D01*
%TO.C,J1*%
X188790000Y-2960000D02*
X188790000Y-13080000D01*
X193690000Y-2370000D02*
X193690000Y-2960000D01*
X193690000Y-2960000D02*
X188790000Y-2960000D01*
X193690000Y-13080000D02*
X188790000Y-13080000D01*
X193690000Y-13080000D02*
X193690000Y-13670000D01*
X195910000Y-2370000D02*
X195910000Y-2960000D01*
X195910000Y-13080000D02*
X195910000Y-13670000D01*
X193690000Y-2370000D02*
G75*
G02*
X195910000Y-2370000I1110000J0D01*
G01*
X195910000Y-13670000D02*
G75*
G02*
X193690000Y-13670000I-1110000J0D01*
G01*
%TO.C,J9*%
X126670000Y-16630000D02*
X126670000Y-8950000D01*
X129330000Y-8950000D02*
X126670000Y-8950000D01*
X129330000Y-16630000D02*
X126670000Y-16630000D01*
X129330000Y-16630000D02*
X129330000Y-8950000D01*
X129330000Y-17900000D02*
X129330000Y-19230000D01*
X129330000Y-19230000D02*
X128000000Y-19230000D01*
D17*
%TO.C,J15*%
X146150000Y-4000000D02*
X154950000Y-4000000D01*
X146150000Y-29000000D02*
X146150000Y-4000000D01*
X146150000Y-29000000D02*
X149730000Y-29000000D01*
X154950000Y-4000000D02*
X154950000Y-7036000D01*
X154950000Y-16960000D02*
X154950000Y-19040000D01*
X154950000Y-26964000D02*
X154950000Y-29000000D01*
X154950000Y-29000000D02*
X152770000Y-29000000D01*
D10*
X152600000Y-3400000D02*
G75*
G02*
X152400000Y-3400000I-100000J0D01*
G01*
X152400000Y-3400000D02*
G75*
G02*
X152600000Y-3400000I100000J0D01*
G01*
D17*
%TO.C,J10*%
X71150000Y-4000000D02*
X79950000Y-4000000D01*
X71150000Y-29000000D02*
X71150000Y-4000000D01*
X71150000Y-29000000D02*
X74730000Y-29000000D01*
X79950000Y-4000000D02*
X79950000Y-7036000D01*
X79950000Y-16960000D02*
X79950000Y-19040000D01*
X79950000Y-26964000D02*
X79950000Y-29000000D01*
X79950000Y-29000000D02*
X77770000Y-29000000D01*
D10*
X77600000Y-3400000D02*
G75*
G02*
X77400000Y-3400000I-100000J0D01*
G01*
X77400000Y-3400000D02*
G75*
G02*
X77600000Y-3400000I100000J0D01*
G01*
D16*
%TO.C,J13*%
X141670000Y-16560000D02*
X141670000Y-8880000D01*
X144330000Y-8880000D02*
X141670000Y-8880000D01*
X144330000Y-16560000D02*
X141670000Y-16560000D01*
X144330000Y-16560000D02*
X144330000Y-8880000D01*
X144330000Y-17830000D02*
X144330000Y-19160000D01*
X144330000Y-19160000D02*
X143000000Y-19160000D01*
D15*
%TO.C,U2*%
X11040000Y-7221471D02*
X15190000Y-7221471D01*
X11040000Y-12371471D02*
X15190000Y-12371471D01*
D16*
X10615000Y-7296471D02*
X10375000Y-6966471D01*
X10855000Y-6966471D01*
X10615000Y-7296471D01*
G36*
X10615000Y-7296471D02*
G01*
X10375000Y-6966471D01*
X10855000Y-6966471D01*
X10615000Y-7296471D01*
G37*
%TO.C,R2*%
X7557742Y-10477500D02*
X8032258Y-10477500D01*
X7557742Y-11522500D02*
X8032258Y-11522500D01*
%TO.C,J12*%
X81670000Y-16480000D02*
X81670000Y-8800000D01*
X84330000Y-8800000D02*
X81670000Y-8800000D01*
X84330000Y-16480000D02*
X81670000Y-16480000D01*
X84330000Y-16480000D02*
X84330000Y-8800000D01*
X84330000Y-17750000D02*
X84330000Y-19080000D01*
X84330000Y-19080000D02*
X83000000Y-19080000D01*
%TO.C,C2*%
X17425000Y-9895219D02*
X17425000Y-11317723D01*
X19245000Y-9895219D02*
X19245000Y-11317723D01*
D17*
%TO.C,J7*%
X116150000Y-4000000D02*
X124950000Y-4000000D01*
X116150000Y-29000000D02*
X116150000Y-4000000D01*
X116150000Y-29000000D02*
X119730000Y-29000000D01*
X124950000Y-4000000D02*
X124950000Y-7036000D01*
X124950000Y-16960000D02*
X124950000Y-19040000D01*
X124950000Y-26964000D02*
X124950000Y-29000000D01*
X124950000Y-29000000D02*
X122770000Y-29000000D01*
D10*
X122600000Y-3400000D02*
G75*
G02*
X122400000Y-3400000I-100000J0D01*
G01*
X122400000Y-3400000D02*
G75*
G02*
X122600000Y-3400000I100000J0D01*
G01*
%TD*%
%LPC*%
D18*
%TO.C,H2*%
X180000000Y-20000000D03*
%TD*%
D19*
%TO.C,J8*%
X68000000Y-18000000D03*
D20*
X68000000Y-15460000D03*
X68000000Y-12920000D03*
X68000000Y-10380000D03*
%TD*%
D21*
%TO.C,L1*%
X5495000Y-2726471D03*
X5495000Y-8776471D03*
%TD*%
D22*
%TO.C,J14*%
X91250000Y-18650000D03*
X91250000Y-27800000D03*
D23*
X92500000Y-7000000D03*
D24*
X94500000Y-8000000D03*
X92500000Y-9000000D03*
X94500000Y-10000000D03*
X92500000Y-11000000D03*
X94500000Y-12000000D03*
X92500000Y-13000000D03*
X94500000Y-14000000D03*
X92500000Y-15000000D03*
X94500000Y-16000000D03*
X92500000Y-17000000D03*
X94500000Y-20000000D03*
X92500000Y-21000000D03*
X94500000Y-22000000D03*
X92500000Y-23000000D03*
X94500000Y-24000000D03*
X92500000Y-25000000D03*
X94500000Y-26000000D03*
X90000000Y-7000000D03*
X88000000Y-8000000D03*
X90000000Y-9000000D03*
X88000000Y-10000000D03*
X90000000Y-11000000D03*
X88000000Y-12000000D03*
X90000000Y-13000000D03*
X88000000Y-14000000D03*
X90000000Y-15000000D03*
X88000000Y-16000000D03*
X90000000Y-17000000D03*
X88000000Y-20000000D03*
X90000000Y-21000000D03*
X88000000Y-22000000D03*
X90000000Y-23000000D03*
X88000000Y-24000000D03*
X90000000Y-25000000D03*
X88000000Y-26000000D03*
%TD*%
D25*
%TO.C,D2*%
X16465000Y-5280000D03*
X12465000Y-5280000D03*
%TD*%
D26*
%TO.C,C4*%
X2865000Y-15400000D03*
X8265000Y-15400000D03*
%TD*%
D27*
%TO.C,C3*%
X10095000Y-4881471D03*
X10095000Y-3331471D03*
%TD*%
D18*
%TO.C,H1*%
X30000000Y-20000000D03*
%TD*%
D22*
%TO.C,J6*%
X61250000Y-18650000D03*
X61250000Y-27800000D03*
D23*
X62500000Y-7000000D03*
D24*
X64500000Y-8000000D03*
X62500000Y-9000000D03*
X64500000Y-10000000D03*
X62500000Y-11000000D03*
X64500000Y-12000000D03*
X62500000Y-13000000D03*
X64500000Y-14000000D03*
X62500000Y-15000000D03*
X64500000Y-16000000D03*
X62500000Y-17000000D03*
X64500000Y-20000000D03*
X62500000Y-21000000D03*
X64500000Y-22000000D03*
X62500000Y-23000000D03*
X64500000Y-24000000D03*
X62500000Y-25000000D03*
X64500000Y-26000000D03*
X60000000Y-7000000D03*
X58000000Y-8000000D03*
X60000000Y-9000000D03*
X58000000Y-10000000D03*
X60000000Y-11000000D03*
X58000000Y-12000000D03*
X60000000Y-13000000D03*
X58000000Y-14000000D03*
X60000000Y-15000000D03*
X58000000Y-16000000D03*
X60000000Y-17000000D03*
X58000000Y-20000000D03*
X60000000Y-21000000D03*
X58000000Y-22000000D03*
X60000000Y-23000000D03*
X58000000Y-24000000D03*
X60000000Y-25000000D03*
X58000000Y-26000000D03*
%TD*%
D28*
%TO.C,R3*%
X10020000Y-13406471D03*
X11670000Y-13406471D03*
%TD*%
D29*
%TO.C,D1*%
X41742500Y-2750000D03*
X43317500Y-2750000D03*
%TD*%
D22*
%TO.C,J2*%
X46250000Y-18650000D03*
X46250000Y-27800000D03*
D23*
X47500000Y-7000000D03*
D24*
X49500000Y-8000000D03*
X47500000Y-9000000D03*
X49500000Y-10000000D03*
X47500000Y-11000000D03*
X49500000Y-12000000D03*
X47500000Y-13000000D03*
X49500000Y-14000000D03*
X47500000Y-15000000D03*
X49500000Y-16000000D03*
X47500000Y-17000000D03*
X49500000Y-20000000D03*
X47500000Y-21000000D03*
X49500000Y-22000000D03*
X47500000Y-23000000D03*
X49500000Y-24000000D03*
X47500000Y-25000000D03*
X49500000Y-26000000D03*
X45000000Y-7000000D03*
X43000000Y-8000000D03*
X45000000Y-9000000D03*
X43000000Y-10000000D03*
X45000000Y-11000000D03*
X43000000Y-12000000D03*
X45000000Y-13000000D03*
X43000000Y-14000000D03*
X45000000Y-15000000D03*
X43000000Y-16000000D03*
X45000000Y-17000000D03*
X43000000Y-20000000D03*
X45000000Y-21000000D03*
X43000000Y-22000000D03*
X45000000Y-23000000D03*
X43000000Y-24000000D03*
X45000000Y-25000000D03*
X43000000Y-26000000D03*
%TD*%
D18*
%TO.C,H3*%
X190000000Y-20000000D03*
%TD*%
D19*
%TO.C,J16*%
X98000000Y-17830000D03*
D20*
X98000000Y-15290000D03*
X98000000Y-12750000D03*
X98000000Y-10210000D03*
%TD*%
D30*
%TO.C,U1*%
X36485000Y-14365000D03*
X36485000Y-13715000D03*
X36485000Y-13065000D03*
X36485000Y-12415000D03*
X36485000Y-11765000D03*
X36485000Y-11115000D03*
X36485000Y-10465000D03*
X36485000Y-9815000D03*
X36485000Y-9165000D03*
X36485000Y-8515000D03*
X36485000Y-7865000D03*
X36485000Y-7215000D03*
X30760000Y-7215000D03*
X30760000Y-7865000D03*
X30760000Y-8515000D03*
X30760000Y-9165000D03*
X30760000Y-9815000D03*
X30760000Y-10465000D03*
X30760000Y-11115000D03*
X30760000Y-11765000D03*
X30760000Y-12415000D03*
X30760000Y-13065000D03*
X30760000Y-13715000D03*
X30760000Y-14365000D03*
%TD*%
D19*
%TO.C,J17*%
X158000000Y-17830000D03*
D20*
X158000000Y-15290000D03*
X158000000Y-12750000D03*
X158000000Y-10210000D03*
%TD*%
D22*
%TO.C,J11*%
X136250000Y-18650000D03*
X136250000Y-27800000D03*
D23*
X137500000Y-7000000D03*
D24*
X139500000Y-8000000D03*
X137500000Y-9000000D03*
X139500000Y-10000000D03*
X137500000Y-11000000D03*
X139500000Y-12000000D03*
X137500000Y-13000000D03*
X139500000Y-14000000D03*
X137500000Y-15000000D03*
X139500000Y-16000000D03*
X137500000Y-17000000D03*
X139500000Y-20000000D03*
X137500000Y-21000000D03*
X139500000Y-22000000D03*
X137500000Y-23000000D03*
X139500000Y-24000000D03*
X137500000Y-25000000D03*
X139500000Y-26000000D03*
X135000000Y-7000000D03*
X133000000Y-8000000D03*
X135000000Y-9000000D03*
X133000000Y-10000000D03*
X135000000Y-11000000D03*
X133000000Y-12000000D03*
X135000000Y-13000000D03*
X133000000Y-14000000D03*
X135000000Y-15000000D03*
X133000000Y-16000000D03*
X135000000Y-17000000D03*
X133000000Y-20000000D03*
X135000000Y-21000000D03*
X133000000Y-22000000D03*
X135000000Y-23000000D03*
X133000000Y-24000000D03*
X135000000Y-25000000D03*
X133000000Y-26000000D03*
%TD*%
D22*
%TO.C,J18*%
X11350000Y-24300000D03*
X2200000Y-24300000D03*
D31*
X23000000Y-25550000D03*
D24*
X22000000Y-27550000D03*
X21000000Y-25550000D03*
X20000000Y-27550000D03*
X19000000Y-25550000D03*
X18000000Y-27550000D03*
X17000000Y-25550000D03*
X16000000Y-27550000D03*
X15000000Y-25550000D03*
X14000000Y-27550000D03*
X13000000Y-25550000D03*
X10000000Y-27550000D03*
X9000000Y-25550000D03*
X8000000Y-27550000D03*
X7000000Y-25550000D03*
X6000000Y-27550000D03*
X5000000Y-25550000D03*
X4000000Y-27550000D03*
X23000000Y-23050000D03*
X22000000Y-21050000D03*
X21000000Y-23050000D03*
X20000000Y-21050000D03*
X19000000Y-23050000D03*
X18000000Y-21050000D03*
X17000000Y-23050000D03*
X16000000Y-21050000D03*
X15000000Y-23050000D03*
X14000000Y-21050000D03*
X13000000Y-23050000D03*
X10000000Y-21050000D03*
X9000000Y-23050000D03*
X8000000Y-21050000D03*
X7000000Y-23050000D03*
X6000000Y-21050000D03*
X5000000Y-23050000D03*
X4000000Y-21050000D03*
%TD*%
D32*
%TO.C,F1*%
X170900000Y-11540000D03*
X167500000Y-11540000D03*
X170900000Y-21460000D03*
X167500000Y-21460000D03*
%TD*%
D33*
%TO.C,C1*%
X23225000Y-9726471D03*
X23225000Y-15126471D03*
%TD*%
D22*
%TO.C,J3*%
X106250000Y-18650000D03*
X106250000Y-27800000D03*
D23*
X107500000Y-7000000D03*
D24*
X109500000Y-8000000D03*
X107500000Y-9000000D03*
X109500000Y-10000000D03*
X107500000Y-11000000D03*
X109500000Y-12000000D03*
X107500000Y-13000000D03*
X109500000Y-14000000D03*
X107500000Y-15000000D03*
X109500000Y-16000000D03*
X107500000Y-17000000D03*
X109500000Y-20000000D03*
X107500000Y-21000000D03*
X109500000Y-22000000D03*
X107500000Y-23000000D03*
X109500000Y-24000000D03*
X107500000Y-25000000D03*
X109500000Y-26000000D03*
X105000000Y-7000000D03*
X103000000Y-8000000D03*
X105000000Y-9000000D03*
X103000000Y-10000000D03*
X105000000Y-11000000D03*
X103000000Y-12000000D03*
X105000000Y-13000000D03*
X103000000Y-14000000D03*
X105000000Y-15000000D03*
X103000000Y-16000000D03*
X105000000Y-17000000D03*
X103000000Y-20000000D03*
X105000000Y-21000000D03*
X103000000Y-22000000D03*
X105000000Y-23000000D03*
X103000000Y-24000000D03*
X105000000Y-25000000D03*
X103000000Y-26000000D03*
%TD*%
D19*
%TO.C,J4*%
X53000000Y-18100000D03*
D20*
X53000000Y-15560000D03*
X53000000Y-13020000D03*
X53000000Y-10480000D03*
%TD*%
D19*
%TO.C,J5*%
X113000000Y-17860000D03*
D20*
X113000000Y-15320000D03*
X113000000Y-12780000D03*
X113000000Y-10240000D03*
%TD*%
D34*
%TO.C,R1*%
X46405000Y-2770000D03*
X44755000Y-2770000D03*
%TD*%
D35*
%TO.C,J1*%
X194800000Y-2520000D03*
X194800000Y-13520000D03*
D36*
X184800000Y-10520000D03*
D37*
X184800000Y-5520000D03*
%TD*%
D19*
%TO.C,J9*%
X128000000Y-17900000D03*
D20*
X128000000Y-15360000D03*
X128000000Y-12820000D03*
X128000000Y-10280000D03*
%TD*%
D22*
%TO.C,J15*%
X151250000Y-18650000D03*
X151250000Y-27800000D03*
D23*
X152500000Y-7000000D03*
D24*
X154500000Y-8000000D03*
X152500000Y-9000000D03*
X154500000Y-10000000D03*
X152500000Y-11000000D03*
X154500000Y-12000000D03*
X152500000Y-13000000D03*
X154500000Y-14000000D03*
X152500000Y-15000000D03*
X154500000Y-16000000D03*
X152500000Y-17000000D03*
X154500000Y-20000000D03*
X152500000Y-21000000D03*
X154500000Y-22000000D03*
X152500000Y-23000000D03*
X154500000Y-24000000D03*
X152500000Y-25000000D03*
X154500000Y-26000000D03*
X150000000Y-7000000D03*
X148000000Y-8000000D03*
X150000000Y-9000000D03*
X148000000Y-10000000D03*
X150000000Y-11000000D03*
X148000000Y-12000000D03*
X150000000Y-13000000D03*
X148000000Y-14000000D03*
X150000000Y-15000000D03*
X148000000Y-16000000D03*
X150000000Y-17000000D03*
X148000000Y-20000000D03*
X150000000Y-21000000D03*
X148000000Y-22000000D03*
X150000000Y-23000000D03*
X148000000Y-24000000D03*
X150000000Y-25000000D03*
X148000000Y-26000000D03*
%TD*%
D22*
%TO.C,J10*%
X76250000Y-18650000D03*
X76250000Y-27800000D03*
D23*
X77500000Y-7000000D03*
D24*
X79500000Y-8000000D03*
X77500000Y-9000000D03*
X79500000Y-10000000D03*
X77500000Y-11000000D03*
X79500000Y-12000000D03*
X77500000Y-13000000D03*
X79500000Y-14000000D03*
X77500000Y-15000000D03*
X79500000Y-16000000D03*
X77500000Y-17000000D03*
X79500000Y-20000000D03*
X77500000Y-21000000D03*
X79500000Y-22000000D03*
X77500000Y-23000000D03*
X79500000Y-24000000D03*
X77500000Y-25000000D03*
X79500000Y-26000000D03*
X75000000Y-7000000D03*
X73000000Y-8000000D03*
X75000000Y-9000000D03*
X73000000Y-10000000D03*
X75000000Y-11000000D03*
X73000000Y-12000000D03*
X75000000Y-13000000D03*
X73000000Y-14000000D03*
X75000000Y-15000000D03*
X73000000Y-16000000D03*
X75000000Y-17000000D03*
X73000000Y-20000000D03*
X75000000Y-21000000D03*
X73000000Y-22000000D03*
X75000000Y-23000000D03*
X73000000Y-24000000D03*
X75000000Y-25000000D03*
X73000000Y-26000000D03*
%TD*%
D19*
%TO.C,J13*%
X143000000Y-17830000D03*
D20*
X143000000Y-15290000D03*
X143000000Y-12750000D03*
X143000000Y-10210000D03*
%TD*%
D38*
%TO.C,U2*%
X10415000Y-7891471D03*
X10415000Y-9161471D03*
X10415000Y-10431471D03*
X10415000Y-11701471D03*
X15815000Y-11701471D03*
X15815000Y-10431471D03*
X15815000Y-9161471D03*
X15815000Y-7891471D03*
D39*
X13115000Y-9796471D03*
%TD*%
D28*
%TO.C,R2*%
X6970000Y-11000000D03*
X8620000Y-11000000D03*
%TD*%
D19*
%TO.C,J12*%
X83000000Y-17750000D03*
D20*
X83000000Y-15210000D03*
X83000000Y-12670000D03*
X83000000Y-10130000D03*
%TD*%
D40*
%TO.C,C2*%
X18335000Y-9131471D03*
X18335000Y-12081471D03*
%TD*%
D22*
%TO.C,J7*%
X121250000Y-18650000D03*
X121250000Y-27800000D03*
D23*
X122500000Y-7000000D03*
D24*
X124500000Y-8000000D03*
X122500000Y-9000000D03*
X124500000Y-10000000D03*
X122500000Y-11000000D03*
X124500000Y-12000000D03*
X122500000Y-13000000D03*
X124500000Y-14000000D03*
X122500000Y-15000000D03*
X124500000Y-16000000D03*
X122500000Y-17000000D03*
X124500000Y-20000000D03*
X122500000Y-21000000D03*
X124500000Y-22000000D03*
X122500000Y-23000000D03*
X124500000Y-24000000D03*
X122500000Y-25000000D03*
X124500000Y-26000000D03*
X120000000Y-7000000D03*
X118000000Y-8000000D03*
X120000000Y-9000000D03*
X118000000Y-10000000D03*
X120000000Y-11000000D03*
X118000000Y-12000000D03*
X120000000Y-13000000D03*
X118000000Y-14000000D03*
X120000000Y-15000000D03*
X118000000Y-16000000D03*
X120000000Y-17000000D03*
X118000000Y-20000000D03*
X120000000Y-21000000D03*
X118000000Y-22000000D03*
X120000000Y-23000000D03*
X118000000Y-24000000D03*
X120000000Y-25000000D03*
X118000000Y-26000000D03*
%TD*%
%LPD*%
M02*
