%TF.GenerationSoftware,KiCad,Pcbnew,8.0.3*%
%TF.CreationDate,2024-06-27T20:35:16-04:00*%
%TF.ProjectId,backplane,6261636b-706c-4616-9e65-2e6b69636164,v0.0.0*%
%TF.SameCoordinates,Original*%
%TF.FileFunction,Legend,Bot*%
%TF.FilePolarity,Positive*%
%FSLAX46Y46*%
G04 Gerber Fmt 4.6, Leading zero omitted, Abs format (unit mm)*
G04 Created by KiCad (PCBNEW 8.0.3) date 2024-06-27 20:35:16*
%MOMM*%
%LPD*%
G01*
G04 APERTURE LIST*
G04 Aperture macros list*
%AMRoundRect*
0 Rectangle with rounded corners*
0 $1 Rounding radius*
0 $2 $3 $4 $5 $6 $7 $8 $9 X,Y pos of 4 corners*
0 Add a 4 corners polygon primitive as box body*
4,1,4,$2,$3,$4,$5,$6,$7,$8,$9,$2,$3,0*
0 Add four circle primitives for the rounded corners*
1,1,$1+$1,$2,$3*
1,1,$1+$1,$4,$5*
1,1,$1+$1,$6,$7*
1,1,$1+$1,$8,$9*
0 Add four rect primitives between the rounded corners*
20,1,$1+$1,$2,$3,$4,$5,0*
20,1,$1+$1,$4,$5,$6,$7,0*
20,1,$1+$1,$6,$7,$8,$9,0*
20,1,$1+$1,$8,$9,$2,$3,0*%
G04 Aperture macros list end*
%ADD10C,7.500000*%
%ADD11R,1.700000X1.700000*%
%ADD12O,1.700000X1.700000*%
%ADD13C,2.400000*%
%ADD14RoundRect,0.102000X-0.644000X0.644000X-0.644000X-0.644000X0.644000X-0.644000X0.644000X0.644000X0*%
%ADD15C,1.492000*%
%ADD16RoundRect,0.102000X0.644000X0.644000X-0.644000X0.644000X-0.644000X-0.644000X0.644000X-0.644000X0*%
%ADD17C,2.780000*%
%ADD18C,1.400000*%
%ADD19R,3.500000X3.500000*%
%ADD20C,3.500000*%
G04 APERTURE END LIST*
%LPC*%
D10*
%TO.C,H2*%
X180000000Y-20000000D03*
%TD*%
D11*
%TO.C,J8*%
X68000000Y-18000000D03*
D12*
X68000000Y-15460000D03*
X68000000Y-12920000D03*
X68000000Y-10380000D03*
%TD*%
D13*
%TO.C,J14*%
X91250000Y-18650000D03*
X91250000Y-27800000D03*
D14*
X92500000Y-7000000D03*
D15*
X94500000Y-8000000D03*
X92500000Y-9000000D03*
X94500000Y-10000000D03*
X92500000Y-11000000D03*
X94500000Y-12000000D03*
X92500000Y-13000000D03*
X94500000Y-14000000D03*
X92500000Y-15000000D03*
X94500000Y-16000000D03*
X92500000Y-17000000D03*
X94500000Y-20000000D03*
X92500000Y-21000000D03*
X94500000Y-22000000D03*
X92500000Y-23000000D03*
X94500000Y-24000000D03*
X92500000Y-25000000D03*
X94500000Y-26000000D03*
X90000000Y-7000000D03*
X88000000Y-8000000D03*
X90000000Y-9000000D03*
X88000000Y-10000000D03*
X90000000Y-11000000D03*
X88000000Y-12000000D03*
X90000000Y-13000000D03*
X88000000Y-14000000D03*
X90000000Y-15000000D03*
X88000000Y-16000000D03*
X90000000Y-17000000D03*
X88000000Y-20000000D03*
X90000000Y-21000000D03*
X88000000Y-22000000D03*
X90000000Y-23000000D03*
X88000000Y-24000000D03*
X90000000Y-25000000D03*
X88000000Y-26000000D03*
%TD*%
D10*
%TO.C,H1*%
X30000000Y-20000000D03*
%TD*%
D13*
%TO.C,J6*%
X61250000Y-18650000D03*
X61250000Y-27800000D03*
D14*
X62500000Y-7000000D03*
D15*
X64500000Y-8000000D03*
X62500000Y-9000000D03*
X64500000Y-10000000D03*
X62500000Y-11000000D03*
X64500000Y-12000000D03*
X62500000Y-13000000D03*
X64500000Y-14000000D03*
X62500000Y-15000000D03*
X64500000Y-16000000D03*
X62500000Y-17000000D03*
X64500000Y-20000000D03*
X62500000Y-21000000D03*
X64500000Y-22000000D03*
X62500000Y-23000000D03*
X64500000Y-24000000D03*
X62500000Y-25000000D03*
X64500000Y-26000000D03*
X60000000Y-7000000D03*
X58000000Y-8000000D03*
X60000000Y-9000000D03*
X58000000Y-10000000D03*
X60000000Y-11000000D03*
X58000000Y-12000000D03*
X60000000Y-13000000D03*
X58000000Y-14000000D03*
X60000000Y-15000000D03*
X58000000Y-16000000D03*
X60000000Y-17000000D03*
X58000000Y-20000000D03*
X60000000Y-21000000D03*
X58000000Y-22000000D03*
X60000000Y-23000000D03*
X58000000Y-24000000D03*
X60000000Y-25000000D03*
X58000000Y-26000000D03*
%TD*%
D13*
%TO.C,J2*%
X46250000Y-18650000D03*
X46250000Y-27800000D03*
D14*
X47500000Y-7000000D03*
D15*
X49500000Y-8000000D03*
X47500000Y-9000000D03*
X49500000Y-10000000D03*
X47500000Y-11000000D03*
X49500000Y-12000000D03*
X47500000Y-13000000D03*
X49500000Y-14000000D03*
X47500000Y-15000000D03*
X49500000Y-16000000D03*
X47500000Y-17000000D03*
X49500000Y-20000000D03*
X47500000Y-21000000D03*
X49500000Y-22000000D03*
X47500000Y-23000000D03*
X49500000Y-24000000D03*
X47500000Y-25000000D03*
X49500000Y-26000000D03*
X45000000Y-7000000D03*
X43000000Y-8000000D03*
X45000000Y-9000000D03*
X43000000Y-10000000D03*
X45000000Y-11000000D03*
X43000000Y-12000000D03*
X45000000Y-13000000D03*
X43000000Y-14000000D03*
X45000000Y-15000000D03*
X43000000Y-16000000D03*
X45000000Y-17000000D03*
X43000000Y-20000000D03*
X45000000Y-21000000D03*
X43000000Y-22000000D03*
X45000000Y-23000000D03*
X43000000Y-24000000D03*
X45000000Y-25000000D03*
X43000000Y-26000000D03*
%TD*%
D10*
%TO.C,H3*%
X190000000Y-20000000D03*
%TD*%
D11*
%TO.C,J16*%
X98000000Y-17830000D03*
D12*
X98000000Y-15290000D03*
X98000000Y-12750000D03*
X98000000Y-10210000D03*
%TD*%
D11*
%TO.C,J17*%
X158000000Y-17830000D03*
D12*
X158000000Y-15290000D03*
X158000000Y-12750000D03*
X158000000Y-10210000D03*
%TD*%
D13*
%TO.C,J11*%
X136250000Y-18650000D03*
X136250000Y-27800000D03*
D14*
X137500000Y-7000000D03*
D15*
X139500000Y-8000000D03*
X137500000Y-9000000D03*
X139500000Y-10000000D03*
X137500000Y-11000000D03*
X139500000Y-12000000D03*
X137500000Y-13000000D03*
X139500000Y-14000000D03*
X137500000Y-15000000D03*
X139500000Y-16000000D03*
X137500000Y-17000000D03*
X139500000Y-20000000D03*
X137500000Y-21000000D03*
X139500000Y-22000000D03*
X137500000Y-23000000D03*
X139500000Y-24000000D03*
X137500000Y-25000000D03*
X139500000Y-26000000D03*
X135000000Y-7000000D03*
X133000000Y-8000000D03*
X135000000Y-9000000D03*
X133000000Y-10000000D03*
X135000000Y-11000000D03*
X133000000Y-12000000D03*
X135000000Y-13000000D03*
X133000000Y-14000000D03*
X135000000Y-15000000D03*
X133000000Y-16000000D03*
X135000000Y-17000000D03*
X133000000Y-20000000D03*
X135000000Y-21000000D03*
X133000000Y-22000000D03*
X135000000Y-23000000D03*
X133000000Y-24000000D03*
X135000000Y-25000000D03*
X133000000Y-26000000D03*
%TD*%
D13*
%TO.C,J18*%
X11350000Y-24300000D03*
X2200000Y-24300000D03*
D16*
X23000000Y-25550000D03*
D15*
X22000000Y-27550000D03*
X21000000Y-25550000D03*
X20000000Y-27550000D03*
X19000000Y-25550000D03*
X18000000Y-27550000D03*
X17000000Y-25550000D03*
X16000000Y-27550000D03*
X15000000Y-25550000D03*
X14000000Y-27550000D03*
X13000000Y-25550000D03*
X10000000Y-27550000D03*
X9000000Y-25550000D03*
X8000000Y-27550000D03*
X7000000Y-25550000D03*
X6000000Y-27550000D03*
X5000000Y-25550000D03*
X4000000Y-27550000D03*
X23000000Y-23050000D03*
X22000000Y-21050000D03*
X21000000Y-23050000D03*
X20000000Y-21050000D03*
X19000000Y-23050000D03*
X18000000Y-21050000D03*
X17000000Y-23050000D03*
X16000000Y-21050000D03*
X15000000Y-23050000D03*
X14000000Y-21050000D03*
X13000000Y-23050000D03*
X10000000Y-21050000D03*
X9000000Y-23050000D03*
X8000000Y-21050000D03*
X7000000Y-23050000D03*
X6000000Y-21050000D03*
X5000000Y-23050000D03*
X4000000Y-21050000D03*
%TD*%
D17*
%TO.C,F1*%
X170900000Y-11540000D03*
X167500000Y-11540000D03*
X170900000Y-21460000D03*
X167500000Y-21460000D03*
%TD*%
D13*
%TO.C,J3*%
X106250000Y-18650000D03*
X106250000Y-27800000D03*
D14*
X107500000Y-7000000D03*
D15*
X109500000Y-8000000D03*
X107500000Y-9000000D03*
X109500000Y-10000000D03*
X107500000Y-11000000D03*
X109500000Y-12000000D03*
X107500000Y-13000000D03*
X109500000Y-14000000D03*
X107500000Y-15000000D03*
X109500000Y-16000000D03*
X107500000Y-17000000D03*
X109500000Y-20000000D03*
X107500000Y-21000000D03*
X109500000Y-22000000D03*
X107500000Y-23000000D03*
X109500000Y-24000000D03*
X107500000Y-25000000D03*
X109500000Y-26000000D03*
X105000000Y-7000000D03*
X103000000Y-8000000D03*
X105000000Y-9000000D03*
X103000000Y-10000000D03*
X105000000Y-11000000D03*
X103000000Y-12000000D03*
X105000000Y-13000000D03*
X103000000Y-14000000D03*
X105000000Y-15000000D03*
X103000000Y-16000000D03*
X105000000Y-17000000D03*
X103000000Y-20000000D03*
X105000000Y-21000000D03*
X103000000Y-22000000D03*
X105000000Y-23000000D03*
X103000000Y-24000000D03*
X105000000Y-25000000D03*
X103000000Y-26000000D03*
%TD*%
D11*
%TO.C,J4*%
X53000000Y-18100000D03*
D12*
X53000000Y-15560000D03*
X53000000Y-13020000D03*
X53000000Y-10480000D03*
%TD*%
D11*
%TO.C,J5*%
X113000000Y-17860000D03*
D12*
X113000000Y-15320000D03*
X113000000Y-12780000D03*
X113000000Y-10240000D03*
%TD*%
D18*
%TO.C,J1*%
X194800000Y-2520000D03*
X194800000Y-13520000D03*
D19*
X184800000Y-10520000D03*
D20*
X184800000Y-5520000D03*
%TD*%
D11*
%TO.C,J9*%
X128000000Y-17900000D03*
D12*
X128000000Y-15360000D03*
X128000000Y-12820000D03*
X128000000Y-10280000D03*
%TD*%
D13*
%TO.C,J15*%
X151250000Y-18650000D03*
X151250000Y-27800000D03*
D14*
X152500000Y-7000000D03*
D15*
X154500000Y-8000000D03*
X152500000Y-9000000D03*
X154500000Y-10000000D03*
X152500000Y-11000000D03*
X154500000Y-12000000D03*
X152500000Y-13000000D03*
X154500000Y-14000000D03*
X152500000Y-15000000D03*
X154500000Y-16000000D03*
X152500000Y-17000000D03*
X154500000Y-20000000D03*
X152500000Y-21000000D03*
X154500000Y-22000000D03*
X152500000Y-23000000D03*
X154500000Y-24000000D03*
X152500000Y-25000000D03*
X154500000Y-26000000D03*
X150000000Y-7000000D03*
X148000000Y-8000000D03*
X150000000Y-9000000D03*
X148000000Y-10000000D03*
X150000000Y-11000000D03*
X148000000Y-12000000D03*
X150000000Y-13000000D03*
X148000000Y-14000000D03*
X150000000Y-15000000D03*
X148000000Y-16000000D03*
X150000000Y-17000000D03*
X148000000Y-20000000D03*
X150000000Y-21000000D03*
X148000000Y-22000000D03*
X150000000Y-23000000D03*
X148000000Y-24000000D03*
X150000000Y-25000000D03*
X148000000Y-26000000D03*
%TD*%
D13*
%TO.C,J10*%
X76250000Y-18650000D03*
X76250000Y-27800000D03*
D14*
X77500000Y-7000000D03*
D15*
X79500000Y-8000000D03*
X77500000Y-9000000D03*
X79500000Y-10000000D03*
X77500000Y-11000000D03*
X79500000Y-12000000D03*
X77500000Y-13000000D03*
X79500000Y-14000000D03*
X77500000Y-15000000D03*
X79500000Y-16000000D03*
X77500000Y-17000000D03*
X79500000Y-20000000D03*
X77500000Y-21000000D03*
X79500000Y-22000000D03*
X77500000Y-23000000D03*
X79500000Y-24000000D03*
X77500000Y-25000000D03*
X79500000Y-26000000D03*
X75000000Y-7000000D03*
X73000000Y-8000000D03*
X75000000Y-9000000D03*
X73000000Y-10000000D03*
X75000000Y-11000000D03*
X73000000Y-12000000D03*
X75000000Y-13000000D03*
X73000000Y-14000000D03*
X75000000Y-15000000D03*
X73000000Y-16000000D03*
X75000000Y-17000000D03*
X73000000Y-20000000D03*
X75000000Y-21000000D03*
X73000000Y-22000000D03*
X75000000Y-23000000D03*
X73000000Y-24000000D03*
X75000000Y-25000000D03*
X73000000Y-26000000D03*
%TD*%
D11*
%TO.C,J13*%
X143000000Y-17830000D03*
D12*
X143000000Y-15290000D03*
X143000000Y-12750000D03*
X143000000Y-10210000D03*
%TD*%
D11*
%TO.C,J12*%
X83000000Y-17750000D03*
D12*
X83000000Y-15210000D03*
X83000000Y-12670000D03*
X83000000Y-10130000D03*
%TD*%
D13*
%TO.C,J7*%
X121250000Y-18650000D03*
X121250000Y-27800000D03*
D14*
X122500000Y-7000000D03*
D15*
X124500000Y-8000000D03*
X122500000Y-9000000D03*
X124500000Y-10000000D03*
X122500000Y-11000000D03*
X124500000Y-12000000D03*
X122500000Y-13000000D03*
X124500000Y-14000000D03*
X122500000Y-15000000D03*
X124500000Y-16000000D03*
X122500000Y-17000000D03*
X124500000Y-20000000D03*
X122500000Y-21000000D03*
X124500000Y-22000000D03*
X122500000Y-23000000D03*
X124500000Y-24000000D03*
X122500000Y-25000000D03*
X124500000Y-26000000D03*
X120000000Y-7000000D03*
X118000000Y-8000000D03*
X120000000Y-9000000D03*
X118000000Y-10000000D03*
X120000000Y-11000000D03*
X118000000Y-12000000D03*
X120000000Y-13000000D03*
X118000000Y-14000000D03*
X120000000Y-15000000D03*
X118000000Y-16000000D03*
X120000000Y-17000000D03*
X118000000Y-20000000D03*
X120000000Y-21000000D03*
X118000000Y-22000000D03*
X120000000Y-23000000D03*
X118000000Y-24000000D03*
X120000000Y-25000000D03*
X118000000Y-26000000D03*
%TD*%
%LPD*%
M02*
