M48
; DRILL file {KiCad 8.0.3} date 2024-06-27T21:13:00-0400
; FORMAT={-:-/ absolute / inch / decimal}
; #@! TF.CreationDate,2024-06-27T21:13:00-04:00
; #@! TF.GenerationSoftware,Kicad,Pcbnew,8.0.3
; #@! TF.FileFunction,Plated,1,2,PTH
FMAT,2
INCH
; #@! TA.AperFunction,Plated,PTH,ViaDrill
T1C0.0118
%
G90
G05
T1
X0.3937Y-0.2756
X0.3937Y-0.6693
X1.0748Y-0.7795
X1.2831Y-0.6563
X1.5472Y-0.6563
X1.5748Y-0.315
X1.5748Y-0.6299
X1.5748Y-0.7787
X1.6181Y-0.2106
X1.6449Y-0.6406
X1.7256Y-0.7551
X1.9563Y-0.2516
X1.9748Y-0.7614
X2.0146Y-0.1866
X2.0614Y-0.2807
X2.0866Y-0.2516
X2.1535Y-0.2126
X2.1638Y-0.8028
X2.1693Y-0.6142
X2.1693Y-0.7244
X2.1697Y-0.5665
M30
