%TF.GenerationSoftware,KiCad,Pcbnew,8.0.3*%
%TF.CreationDate,2024-06-27T21:13:00-04:00*%
%TF.ProjectId,pi-pico-mgmt-module,70692d70-6963-46f2-9d6d-676d742d6d6f,rev?*%
%TF.SameCoordinates,Original*%
%TF.FileFunction,Soldermask,Top*%
%TF.FilePolarity,Negative*%
%FSLAX46Y46*%
G04 Gerber Fmt 4.6, Leading zero omitted, Abs format (unit mm)*
G04 Created by KiCad (PCBNEW 8.0.3) date 2024-06-27 21:13:00*
%MOMM*%
%LPD*%
G01*
G04 APERTURE LIST*
%ADD10O,1.800000X1.800000*%
%ADD11O,1.500000X1.500000*%
%ADD12R,1.700000X3.500000*%
%ADD13R,4.300000X0.700000*%
%ADD14R,3.200000X0.700000*%
G04 APERTURE END LIST*
D10*
%TO.C,U1*%
X50030000Y-9315000D03*
D11*
X47000000Y-9615000D03*
X47000000Y-14465000D03*
D10*
X50030000Y-14765000D03*
D12*
X50160000Y-2250000D03*
X47620000Y-2250000D03*
X45080000Y-2250000D03*
X42540000Y-2250000D03*
X40000000Y-2250000D03*
X37460000Y-2250000D03*
X34920000Y-2250000D03*
X32380000Y-2250000D03*
X29840000Y-2250000D03*
X27300000Y-2250000D03*
X24760000Y-2250000D03*
X22220000Y-2250000D03*
X19680000Y-2250000D03*
X17140000Y-2250000D03*
X14600000Y-2250000D03*
X12060000Y-2250000D03*
X9520000Y-2250000D03*
X6980000Y-2250000D03*
X4440000Y-2250000D03*
X1900000Y-2250000D03*
X1900000Y-21830000D03*
X4440000Y-21830000D03*
X6980000Y-21830000D03*
X9520000Y-21830000D03*
X12060000Y-21830000D03*
X14600000Y-21830000D03*
X17140000Y-21830000D03*
X19680000Y-21830000D03*
X22220000Y-21830000D03*
X24760000Y-21830000D03*
X27300000Y-21830000D03*
X29840000Y-21830000D03*
X32380000Y-21830000D03*
X34920000Y-21830000D03*
X37460000Y-21830000D03*
X40000000Y-21830000D03*
X42540000Y-21830000D03*
X45080000Y-21830000D03*
X47620000Y-21830000D03*
X50160000Y-21830000D03*
%TD*%
D13*
%TO.C,J1*%
X57950000Y-21390000D03*
X57950000Y-20390000D03*
X57950000Y-19390000D03*
X57950000Y-18390000D03*
X57950000Y-17390000D03*
X57950000Y-16390000D03*
X57950000Y-15390000D03*
X57950000Y-14390000D03*
X57950000Y-13390000D03*
X57950000Y-12390000D03*
X57950000Y-11390000D03*
X57950000Y-8390000D03*
X57950000Y-7390000D03*
X57950000Y-6390000D03*
X57950000Y-5390000D03*
X57950000Y-4390000D03*
D14*
X57400000Y-3390000D03*
D13*
X57950000Y-2390000D03*
%TD*%
M02*
