%TF.GenerationSoftware,KiCad,Pcbnew,8.0.3*%
%TF.CreationDate,2024-06-27T21:13:00-04:00*%
%TF.ProjectId,pi-pico-mgmt-module,70692d70-6963-46f2-9d6d-676d742d6d6f,rev?*%
%TF.SameCoordinates,Original*%
%TF.FileFunction,Copper,L1,Top*%
%TF.FilePolarity,Positive*%
%FSLAX46Y46*%
G04 Gerber Fmt 4.6, Leading zero omitted, Abs format (unit mm)*
G04 Created by KiCad (PCBNEW 8.0.3) date 2024-06-27 21:13:00*
%MOMM*%
%LPD*%
G01*
G04 APERTURE LIST*
%TA.AperFunction,SMDPad,CuDef*%
%ADD10R,1.700000X3.500000*%
%TD*%
%TA.AperFunction,ConnectorPad*%
%ADD11R,4.300000X0.700000*%
%TD*%
%TA.AperFunction,ConnectorPad*%
%ADD12R,3.200000X0.700000*%
%TD*%
%TA.AperFunction,ViaPad*%
%ADD13C,0.600000*%
%TD*%
%TA.AperFunction,Conductor*%
%ADD14C,0.200000*%
%TD*%
%TA.AperFunction,Conductor*%
%ADD15C,0.400000*%
%TD*%
G04 APERTURE END LIST*
D10*
%TO.P,U1,1,GPIO0*%
%TO.N,SDA*%
X50160000Y-2250000D03*
%TO.P,U1,2,GPIO1*%
%TO.N,SCL*%
X47620000Y-2250000D03*
%TO.P,U1,3,GND*%
%TO.N,GND*%
X45080000Y-2250000D03*
%TO.P,U1,4,GPIO2*%
%TO.N,LED_DATA*%
X42540000Y-2250000D03*
%TO.P,U1,5,GPIO3*%
%TO.N,I2C_A2*%
X40000000Y-2250000D03*
%TO.P,U1,6,GPIO4*%
%TO.N,I2C_A1*%
X37460000Y-2250000D03*
%TO.P,U1,7,GPIO5*%
%TO.N,I2C_A0*%
X34920000Y-2250000D03*
%TO.P,U1,8,GND*%
%TO.N,GND*%
X32380000Y-2250000D03*
%TO.P,U1,9,GPIO6*%
%TO.N,unconnected-(U1-GPIO6-Pad9)*%
X29840000Y-2250000D03*
%TO.P,U1,10,GPIO7*%
%TO.N,unconnected-(U1-GPIO7-Pad10)*%
X27300000Y-2250000D03*
%TO.P,U1,11,GPIO8*%
%TO.N,unconnected-(U1-GPIO8-Pad11)*%
X24760000Y-2250000D03*
%TO.P,U1,12,GPIO9*%
%TO.N,unconnected-(U1-GPIO9-Pad12)*%
X22220000Y-2250000D03*
%TO.P,U1,13,GND*%
%TO.N,GND*%
X19680000Y-2250000D03*
%TO.P,U1,14,GPIO10*%
%TO.N,unconnected-(U1-GPIO10-Pad14)*%
X17140000Y-2250000D03*
%TO.P,U1,15,GPIO11*%
%TO.N,unconnected-(U1-GPIO11-Pad15)*%
X14600000Y-2250000D03*
%TO.P,U1,16,GPIO12*%
%TO.N,unconnected-(U1-GPIO12-Pad16)*%
X12060000Y-2250000D03*
%TO.P,U1,17,GPIO13*%
%TO.N,unconnected-(U1-GPIO13-Pad17)*%
X9520000Y-2250000D03*
%TO.P,U1,18,GND*%
%TO.N,GND*%
X6980000Y-2250000D03*
%TO.P,U1,19,GPIO14*%
%TO.N,unconnected-(U1-GPIO14-Pad19)*%
X4440000Y-2250000D03*
%TO.P,U1,20,GPIO15*%
%TO.N,unconnected-(U1-GPIO15-Pad20)*%
X1900000Y-2250000D03*
%TO.P,U1,21,GPIO16*%
%TO.N,WIZNET6*%
X1900000Y-21830000D03*
%TO.P,U1,22,GPIO17*%
%TO.N,WIZNET5*%
X4440000Y-21830000D03*
%TO.P,U1,23,GND*%
%TO.N,GND*%
X6980000Y-21830000D03*
%TO.P,U1,24,GPIO18*%
%TO.N,WIZNET4*%
X9520000Y-21830000D03*
%TO.P,U1,25,GPIO19*%
%TO.N,WIZNET3*%
X12060000Y-21830000D03*
%TO.P,U1,26,GPIO20*%
%TO.N,WIZNET2*%
X14600000Y-21830000D03*
%TO.P,U1,27,GPIO21*%
%TO.N,WIZNET1*%
X17140000Y-21830000D03*
%TO.P,U1,28,GND*%
%TO.N,GND*%
X19680000Y-21830000D03*
%TO.P,U1,29,GPIO22*%
%TO.N,I2C_RESET*%
X22220000Y-21830000D03*
%TO.P,U1,30,RUN*%
%TO.N,unconnected-(U1-RUN-Pad30)*%
X24760000Y-21830000D03*
%TO.P,U1,31,GPIO26_ADC0*%
%TO.N,Net-(U1-GPIO26_ADC0)*%
X27300000Y-21830000D03*
%TO.P,U1,32,GPIO27_ADC1*%
%TO.N,unconnected-(U1-GPIO27_ADC1-Pad32)*%
X29840000Y-21830000D03*
%TO.P,U1,33,AGND*%
%TO.N,unconnected-(U1-AGND-Pad33)*%
X32380000Y-21830000D03*
%TO.P,U1,34,GPIO28_ADC2*%
%TO.N,OVERLOAD*%
X34920000Y-21830000D03*
%TO.P,U1,35,ADC_VREF*%
%TO.N,unconnected-(U1-ADC_VREF-Pad35)*%
X37460000Y-21830000D03*
%TO.P,U1,36,3V3*%
%TO.N,VDD*%
X40000000Y-21830000D03*
%TO.P,U1,37,3V3_EN*%
%TO.N,unconnected-(U1-3V3_EN-Pad37)*%
X42540000Y-21830000D03*
%TO.P,U1,38,GND*%
%TO.N,GND*%
X45080000Y-21830000D03*
%TO.P,U1,39,VSYS*%
%TO.N,unconnected-(U1-VSYS-Pad39)*%
X47620000Y-21830000D03*
%TO.P,U1,40,VBUS*%
%TO.N,+5V*%
X50160000Y-21830000D03*
%TD*%
D11*
%TO.P,J1,B1,+12V*%
%TO.N,VIN*%
X57950000Y-21390000D03*
%TO.P,J1,B2,+12V*%
X57950000Y-20390000D03*
%TO.P,J1,B3,+12V*%
X57950000Y-19390000D03*
%TO.P,J1,B4,GND*%
%TO.N,GND*%
X57950000Y-18390000D03*
%TO.P,J1,B5,SMCLK*%
%TO.N,I2C_A0*%
X57950000Y-17390000D03*
%TO.P,J1,B6,SMDAT*%
%TO.N,I2C_A1*%
X57950000Y-16390000D03*
%TO.P,J1,B7,GND*%
%TO.N,GND*%
X57950000Y-15390000D03*
%TO.P,J1,B8,+3.3V*%
%TO.N,+5V*%
X57950000Y-14390000D03*
%TO.P,J1,B9,JTAG1*%
%TO.N,I2C_RESET*%
X57950000Y-13390000D03*
%TO.P,J1,B10,3.3Vaux*%
%TO.N,VDD*%
X57950000Y-12390000D03*
%TO.P,J1,B11,~{WAKE}*%
%TO.N,unconnected-(J1-~{WAKE}-PadB11)*%
X57950000Y-11390000D03*
%TO.P,J1,B12,RSVD*%
%TO.N,SDA*%
X57950000Y-8390000D03*
%TO.P,J1,B13,GND*%
%TO.N,GND*%
X57950000Y-7390000D03*
%TO.P,J1,B14,PETp0*%
%TO.N,SCL*%
X57950000Y-6390000D03*
%TO.P,J1,B15,PETn0*%
%TO.N,I2C_A2*%
X57950000Y-5390000D03*
%TO.P,J1,B16,GND*%
%TO.N,GND*%
X57950000Y-4390000D03*
D12*
%TO.P,J1,B17,~{PRSNT2}*%
%TO.N,unconnected-(J1-~{PRSNT2}-PadB17)*%
X57400000Y-3390000D03*
D11*
%TO.P,J1,B18,GND*%
%TO.N,GND*%
X57950000Y-2390000D03*
%TD*%
D13*
%TO.N,I2C_RESET*%
X39300000Y-16670000D03*
X32590000Y-16670000D03*
%TO.N,+5V*%
X55110000Y-14390000D03*
X50160000Y-19340000D03*
%TO.N,SCL*%
X49690000Y-6390000D03*
X53000000Y-6390000D03*
%TO.N,VIN*%
X54960000Y-20390000D03*
%TO.N,GND*%
X10000000Y-17000000D03*
X51170000Y-4740000D03*
X40000000Y-8000000D03*
X10000000Y-7000000D03*
X55100000Y-18400000D03*
X40000000Y-16000000D03*
X55100000Y-15600000D03*
X52360000Y-7130000D03*
%TO.N,I2C_A2*%
X54700000Y-5400000D03*
X41100000Y-5350000D03*
%TO.N,VDD*%
X40000000Y-19780000D03*
X41780000Y-16270000D03*
%TO.N,OVERLOAD*%
X43830000Y-19180000D03*
%TO.N,Net-(U1-GPIO26_ADC0)*%
X27300000Y-19800000D03*
%TD*%
D14*
%TO.N,I2C_RESET*%
X32590000Y-16670000D02*
X26480000Y-16670000D01*
X51630000Y-16870000D02*
X55110000Y-13390000D01*
X55110000Y-13390000D02*
X57950000Y-13390000D01*
X26480000Y-16670000D02*
X22220000Y-20930000D01*
X39500000Y-16870000D02*
X51630000Y-16870000D01*
X39300000Y-16670000D02*
X39500000Y-16870000D01*
%TO.N,+5V*%
X57950000Y-14390000D02*
X55110000Y-14390000D01*
X50160000Y-19340000D02*
X50160000Y-20930000D01*
%TO.N,I2C_A0*%
X38834314Y-17670000D02*
X55570000Y-17670000D01*
X55570000Y-17670000D02*
X55850000Y-17390000D01*
X34920000Y-3150000D02*
X34920000Y-13755686D01*
X55850000Y-17390000D02*
X57950000Y-17390000D01*
X34920000Y-13755686D02*
X38834314Y-17670000D01*
%TO.N,SDA*%
X50160000Y-5960000D02*
X52460000Y-8260000D01*
X52460000Y-8260000D02*
X55350000Y-8260000D01*
X50160000Y-3150000D02*
X50160000Y-5960000D01*
%TO.N,SCL*%
X47620000Y-4315000D02*
X47620000Y-3150000D01*
X49690000Y-6390000D02*
X49690000Y-6385000D01*
X49690000Y-6385000D02*
X47620000Y-4315000D01*
X57950000Y-6390000D02*
X53000000Y-6390000D01*
%TO.N,VIN*%
X55960000Y-19390000D02*
X57950000Y-19390000D01*
X54960000Y-20390000D02*
X57950000Y-20390000D01*
X55960000Y-21390000D02*
X57950000Y-21390000D01*
X54960000Y-20390000D02*
X55960000Y-21390000D01*
X54960000Y-20390000D02*
X55960000Y-19390000D01*
%TO.N,I2C_A2*%
X54710000Y-5390000D02*
X54700000Y-5400000D01*
X57950000Y-5390000D02*
X54710000Y-5390000D01*
X40000000Y-4250000D02*
X40000000Y-3150000D01*
X41100000Y-5350000D02*
X40000000Y-4250000D01*
%TO.N,VDD*%
X51464314Y-16470000D02*
X55544314Y-12390000D01*
X40000000Y-19780000D02*
X40000000Y-20930000D01*
X41980000Y-16470000D02*
X51464314Y-16470000D01*
X55544314Y-12390000D02*
X57950000Y-12390000D01*
X41780000Y-16270000D02*
X41980000Y-16470000D01*
%TO.N,I2C_A1*%
X57950000Y-16390000D02*
X55310000Y-16390000D01*
X39000000Y-17270000D02*
X35320000Y-13590000D01*
X35320000Y-13590000D02*
X35320000Y-5290000D01*
X55310000Y-16390000D02*
X54430000Y-17270000D01*
X35320000Y-5290000D02*
X37460000Y-3150000D01*
X54430000Y-17270000D02*
X39000000Y-17270000D01*
%TO.N,OVERLOAD*%
X43830000Y-19180000D02*
X36670000Y-19180000D01*
X36670000Y-19180000D02*
X34920000Y-20930000D01*
D15*
%TO.N,Net-(U1-GPIO26_ADC0)*%
X27300000Y-19800000D02*
X27300000Y-20930000D01*
%TD*%
%TA.AperFunction,Conductor*%
%TO.N,SDA*%
G36*
X56010000Y-8439500D02*
G01*
X55121500Y-8439500D01*
X55113368Y-8436132D01*
X55110000Y-8428000D01*
X55110000Y-8151500D01*
X55113368Y-8143368D01*
X55121500Y-8140000D01*
X56010000Y-8140000D01*
X56010000Y-8439500D01*
G37*
%TD.AperFunction*%
%TD*%
%TA.AperFunction,Conductor*%
%TO.N,GND*%
G36*
X792539Y-520185D02*
G01*
X838294Y-572989D01*
X849500Y-624500D01*
X849500Y-4019752D01*
X861131Y-4078229D01*
X861132Y-4078230D01*
X905447Y-4144552D01*
X971769Y-4188867D01*
X971770Y-4188868D01*
X1030247Y-4200499D01*
X1030250Y-4200500D01*
X1030252Y-4200500D01*
X2769750Y-4200500D01*
X2769751Y-4200499D01*
X2784568Y-4197552D01*
X2828229Y-4188868D01*
X2828229Y-4188867D01*
X2828231Y-4188867D01*
X2894552Y-4144552D01*
X2938867Y-4078231D01*
X2938867Y-4078229D01*
X2938868Y-4078229D01*
X2950499Y-4019752D01*
X2950500Y-4019750D01*
X2950500Y-624500D01*
X2970185Y-557461D01*
X3022989Y-511706D01*
X3074500Y-500500D01*
X3265500Y-500500D01*
X3332539Y-520185D01*
X3378294Y-572989D01*
X3389500Y-624500D01*
X3389500Y-4019752D01*
X3401131Y-4078229D01*
X3401132Y-4078230D01*
X3445447Y-4144552D01*
X3511769Y-4188867D01*
X3511770Y-4188868D01*
X3570247Y-4200499D01*
X3570250Y-4200500D01*
X3570252Y-4200500D01*
X5309750Y-4200500D01*
X5309751Y-4200499D01*
X5324568Y-4197552D01*
X5368229Y-4188868D01*
X5368229Y-4188867D01*
X5368231Y-4188867D01*
X5434552Y-4144552D01*
X5478867Y-4078231D01*
X5478867Y-4078229D01*
X5478868Y-4078229D01*
X5490499Y-4019752D01*
X5490500Y-4019750D01*
X5490500Y-624500D01*
X5510185Y-557461D01*
X5562989Y-511706D01*
X5614500Y-500500D01*
X8345500Y-500500D01*
X8412539Y-520185D01*
X8458294Y-572989D01*
X8469500Y-624500D01*
X8469500Y-4019752D01*
X8481131Y-4078229D01*
X8481132Y-4078230D01*
X8525447Y-4144552D01*
X8591769Y-4188867D01*
X8591770Y-4188868D01*
X8650247Y-4200499D01*
X8650250Y-4200500D01*
X8650252Y-4200500D01*
X10389750Y-4200500D01*
X10389751Y-4200499D01*
X10404568Y-4197552D01*
X10448229Y-4188868D01*
X10448229Y-4188867D01*
X10448231Y-4188867D01*
X10514552Y-4144552D01*
X10558867Y-4078231D01*
X10558867Y-4078229D01*
X10558868Y-4078229D01*
X10570499Y-4019752D01*
X10570500Y-4019750D01*
X10570500Y-624500D01*
X10590185Y-557461D01*
X10642989Y-511706D01*
X10694500Y-500500D01*
X10885500Y-500500D01*
X10952539Y-520185D01*
X10998294Y-572989D01*
X11009500Y-624500D01*
X11009500Y-4019752D01*
X11021131Y-4078229D01*
X11021132Y-4078230D01*
X11065447Y-4144552D01*
X11131769Y-4188867D01*
X11131770Y-4188868D01*
X11190247Y-4200499D01*
X11190250Y-4200500D01*
X11190252Y-4200500D01*
X12929750Y-4200500D01*
X12929751Y-4200499D01*
X12944568Y-4197552D01*
X12988229Y-4188868D01*
X12988229Y-4188867D01*
X12988231Y-4188867D01*
X13054552Y-4144552D01*
X13098867Y-4078231D01*
X13098867Y-4078229D01*
X13098868Y-4078229D01*
X13110499Y-4019752D01*
X13110500Y-4019750D01*
X13110500Y-624500D01*
X13130185Y-557461D01*
X13182989Y-511706D01*
X13234500Y-500500D01*
X13425500Y-500500D01*
X13492539Y-520185D01*
X13538294Y-572989D01*
X13549500Y-624500D01*
X13549500Y-4019752D01*
X13561131Y-4078229D01*
X13561132Y-4078230D01*
X13605447Y-4144552D01*
X13671769Y-4188867D01*
X13671770Y-4188868D01*
X13730247Y-4200499D01*
X13730250Y-4200500D01*
X13730252Y-4200500D01*
X15469750Y-4200500D01*
X15469751Y-4200499D01*
X15484568Y-4197552D01*
X15528229Y-4188868D01*
X15528229Y-4188867D01*
X15528231Y-4188867D01*
X15594552Y-4144552D01*
X15638867Y-4078231D01*
X15638867Y-4078229D01*
X15638868Y-4078229D01*
X15650499Y-4019752D01*
X15650500Y-4019750D01*
X15650500Y-624500D01*
X15670185Y-557461D01*
X15722989Y-511706D01*
X15774500Y-500500D01*
X15965500Y-500500D01*
X16032539Y-520185D01*
X16078294Y-572989D01*
X16089500Y-624500D01*
X16089500Y-4019752D01*
X16101131Y-4078229D01*
X16101132Y-4078230D01*
X16145447Y-4144552D01*
X16211769Y-4188867D01*
X16211770Y-4188868D01*
X16270247Y-4200499D01*
X16270250Y-4200500D01*
X16270252Y-4200500D01*
X18009750Y-4200500D01*
X18009751Y-4200499D01*
X18024568Y-4197552D01*
X18068229Y-4188868D01*
X18068229Y-4188867D01*
X18068231Y-4188867D01*
X18134552Y-4144552D01*
X18178867Y-4078231D01*
X18178867Y-4078229D01*
X18178868Y-4078229D01*
X18190499Y-4019752D01*
X18190500Y-4019750D01*
X18190500Y-624500D01*
X18210185Y-557461D01*
X18262989Y-511706D01*
X18314500Y-500500D01*
X21045500Y-500500D01*
X21112539Y-520185D01*
X21158294Y-572989D01*
X21169500Y-624500D01*
X21169500Y-4019752D01*
X21181131Y-4078229D01*
X21181132Y-4078230D01*
X21225447Y-4144552D01*
X21291769Y-4188867D01*
X21291770Y-4188868D01*
X21350247Y-4200499D01*
X21350250Y-4200500D01*
X21350252Y-4200500D01*
X23089750Y-4200500D01*
X23089751Y-4200499D01*
X23104568Y-4197552D01*
X23148229Y-4188868D01*
X23148229Y-4188867D01*
X23148231Y-4188867D01*
X23214552Y-4144552D01*
X23258867Y-4078231D01*
X23258867Y-4078229D01*
X23258868Y-4078229D01*
X23270499Y-4019752D01*
X23270500Y-4019750D01*
X23270500Y-624500D01*
X23290185Y-557461D01*
X23342989Y-511706D01*
X23394500Y-500500D01*
X23585500Y-500500D01*
X23652539Y-520185D01*
X23698294Y-572989D01*
X23709500Y-624500D01*
X23709500Y-4019752D01*
X23721131Y-4078229D01*
X23721132Y-4078230D01*
X23765447Y-4144552D01*
X23831769Y-4188867D01*
X23831770Y-4188868D01*
X23890247Y-4200499D01*
X23890250Y-4200500D01*
X23890252Y-4200500D01*
X25629750Y-4200500D01*
X25629751Y-4200499D01*
X25644568Y-4197552D01*
X25688229Y-4188868D01*
X25688229Y-4188867D01*
X25688231Y-4188867D01*
X25754552Y-4144552D01*
X25798867Y-4078231D01*
X25798867Y-4078229D01*
X25798868Y-4078229D01*
X25810499Y-4019752D01*
X25810500Y-4019750D01*
X25810500Y-624500D01*
X25830185Y-557461D01*
X25882989Y-511706D01*
X25934500Y-500500D01*
X26125500Y-500500D01*
X26192539Y-520185D01*
X26238294Y-572989D01*
X26249500Y-624500D01*
X26249500Y-4019752D01*
X26261131Y-4078229D01*
X26261132Y-4078230D01*
X26305447Y-4144552D01*
X26371769Y-4188867D01*
X26371770Y-4188868D01*
X26430247Y-4200499D01*
X26430250Y-4200500D01*
X26430252Y-4200500D01*
X28169750Y-4200500D01*
X28169751Y-4200499D01*
X28184568Y-4197552D01*
X28228229Y-4188868D01*
X28228229Y-4188867D01*
X28228231Y-4188867D01*
X28294552Y-4144552D01*
X28338867Y-4078231D01*
X28338867Y-4078229D01*
X28338868Y-4078229D01*
X28350499Y-4019752D01*
X28350500Y-4019750D01*
X28350500Y-624500D01*
X28370185Y-557461D01*
X28422989Y-511706D01*
X28474500Y-500500D01*
X28665500Y-500500D01*
X28732539Y-520185D01*
X28778294Y-572989D01*
X28789500Y-624500D01*
X28789500Y-4019752D01*
X28801131Y-4078229D01*
X28801132Y-4078230D01*
X28845447Y-4144552D01*
X28911769Y-4188867D01*
X28911770Y-4188868D01*
X28970247Y-4200499D01*
X28970250Y-4200500D01*
X28970252Y-4200500D01*
X30709750Y-4200500D01*
X30709751Y-4200499D01*
X30724568Y-4197552D01*
X30768229Y-4188868D01*
X30768229Y-4188867D01*
X30768231Y-4188867D01*
X30834552Y-4144552D01*
X30878867Y-4078231D01*
X30878867Y-4078229D01*
X30878868Y-4078229D01*
X30890499Y-4019752D01*
X30890500Y-4019750D01*
X30890500Y-624500D01*
X30910185Y-557461D01*
X30962989Y-511706D01*
X31014500Y-500500D01*
X33745500Y-500500D01*
X33812539Y-520185D01*
X33858294Y-572989D01*
X33869500Y-624500D01*
X33869500Y-4019752D01*
X33881131Y-4078229D01*
X33881132Y-4078230D01*
X33925447Y-4144552D01*
X33991769Y-4188867D01*
X33991770Y-4188868D01*
X34050247Y-4200499D01*
X34050250Y-4200500D01*
X34050252Y-4200500D01*
X34495500Y-4200500D01*
X34562539Y-4220185D01*
X34608294Y-4272989D01*
X34619500Y-4324500D01*
X34619500Y-13795248D01*
X34628067Y-13827218D01*
X34639979Y-13871677D01*
X34639981Y-13871680D01*
X34672996Y-13928862D01*
X34672997Y-13928868D01*
X34672999Y-13928868D01*
X34679538Y-13940194D01*
X34679541Y-13940199D01*
X36654843Y-15915500D01*
X38593854Y-17854511D01*
X38649803Y-17910460D01*
X38649805Y-17910461D01*
X38649809Y-17910464D01*
X38693790Y-17935856D01*
X38718325Y-17950021D01*
X38794752Y-17970500D01*
X38794754Y-17970500D01*
X55609560Y-17970500D01*
X55609562Y-17970500D01*
X55685989Y-17950021D01*
X55685997Y-17950015D01*
X55693493Y-17946912D01*
X55694482Y-17949300D01*
X55749877Y-17935856D01*
X55768175Y-17938097D01*
X55780252Y-17940500D01*
X55780254Y-17940500D01*
X55876000Y-17940500D01*
X55943039Y-17960185D01*
X55988794Y-18012989D01*
X56000000Y-18064500D01*
X56000000Y-18715500D01*
X55980315Y-18782539D01*
X55927511Y-18828294D01*
X55876000Y-18839500D01*
X55780247Y-18839500D01*
X55721770Y-18851131D01*
X55721769Y-18851132D01*
X55655447Y-18895447D01*
X55611132Y-18961769D01*
X55611131Y-18961770D01*
X55599500Y-19020247D01*
X55599500Y-19274166D01*
X55579815Y-19341205D01*
X55563181Y-19361847D01*
X55071847Y-19853181D01*
X55010524Y-19886666D01*
X54984166Y-19889500D01*
X54888036Y-19889500D01*
X54749949Y-19930045D01*
X54628873Y-20007856D01*
X54534623Y-20116626D01*
X54534622Y-20116628D01*
X54474834Y-20247543D01*
X54454353Y-20390000D01*
X54474834Y-20532456D01*
X54534622Y-20663371D01*
X54534623Y-20663373D01*
X54628872Y-20772143D01*
X54749947Y-20849953D01*
X54749950Y-20849954D01*
X54749949Y-20849954D01*
X54857107Y-20881417D01*
X54886336Y-20890000D01*
X54888036Y-20890499D01*
X54888038Y-20890500D01*
X54984167Y-20890500D01*
X55051206Y-20910185D01*
X55071848Y-20926819D01*
X55472848Y-21327819D01*
X55506333Y-21389142D01*
X55501349Y-21458834D01*
X55459477Y-21514767D01*
X55394013Y-21539184D01*
X55385167Y-21539500D01*
X52934108Y-21539500D01*
X52806812Y-21573608D01*
X52692686Y-21639500D01*
X52692683Y-21639502D01*
X52599502Y-21732683D01*
X52599500Y-21732686D01*
X52533608Y-21846812D01*
X52499500Y-21974108D01*
X52499500Y-23515500D01*
X52479815Y-23582539D01*
X52427011Y-23628294D01*
X52375500Y-23639500D01*
X51334500Y-23639500D01*
X51267461Y-23619815D01*
X51221706Y-23567011D01*
X51210500Y-23515500D01*
X51210500Y-20060249D01*
X51210499Y-20060247D01*
X51198868Y-20001770D01*
X51198867Y-20001769D01*
X51154552Y-19935447D01*
X51088230Y-19891132D01*
X51088229Y-19891131D01*
X51029752Y-19879500D01*
X51029748Y-19879500D01*
X50626299Y-19879500D01*
X50559260Y-19859815D01*
X50513505Y-19807011D01*
X50503561Y-19737853D01*
X50532586Y-19674297D01*
X50585377Y-19613373D01*
X50645165Y-19482457D01*
X50665647Y-19340000D01*
X50645165Y-19197543D01*
X50585377Y-19066627D01*
X50491128Y-18957857D01*
X50370053Y-18880047D01*
X50370051Y-18880046D01*
X50370049Y-18880045D01*
X50370050Y-18880045D01*
X50231963Y-18839500D01*
X50231961Y-18839500D01*
X50088039Y-18839500D01*
X50088036Y-18839500D01*
X49949949Y-18880045D01*
X49828873Y-18957856D01*
X49734623Y-19066626D01*
X49734622Y-19066628D01*
X49674834Y-19197543D01*
X49654353Y-19340000D01*
X49674834Y-19482456D01*
X49695007Y-19526627D01*
X49734623Y-19613373D01*
X49781800Y-19667819D01*
X49787414Y-19674297D01*
X49816439Y-19737853D01*
X49806495Y-19807012D01*
X49760740Y-19859816D01*
X49693701Y-19879500D01*
X49290247Y-19879500D01*
X49231770Y-19891131D01*
X49231769Y-19891132D01*
X49165447Y-19935447D01*
X49121132Y-20001769D01*
X49121131Y-20001770D01*
X49109500Y-20060247D01*
X49109500Y-23515500D01*
X49089815Y-23582539D01*
X49037011Y-23628294D01*
X48985500Y-23639500D01*
X48794500Y-23639500D01*
X48727461Y-23619815D01*
X48681706Y-23567011D01*
X48670500Y-23515500D01*
X48670500Y-20060249D01*
X48670499Y-20060247D01*
X48658868Y-20001770D01*
X48658867Y-20001769D01*
X48614552Y-19935447D01*
X48548230Y-19891132D01*
X48548229Y-19891131D01*
X48489752Y-19879500D01*
X48489748Y-19879500D01*
X46750252Y-19879500D01*
X46750247Y-19879500D01*
X46691770Y-19891131D01*
X46691769Y-19891132D01*
X46625447Y-19935447D01*
X46581132Y-20001769D01*
X46581131Y-20001770D01*
X46569500Y-20060247D01*
X46569500Y-23515500D01*
X46549815Y-23582539D01*
X46497011Y-23628294D01*
X46445500Y-23639500D01*
X43714500Y-23639500D01*
X43647461Y-23619815D01*
X43601706Y-23567011D01*
X43590500Y-23515500D01*
X43590500Y-20060249D01*
X43590499Y-20060247D01*
X43578868Y-20001770D01*
X43578867Y-20001769D01*
X43534552Y-19935447D01*
X43468230Y-19891132D01*
X43468229Y-19891131D01*
X43409752Y-19879500D01*
X43409748Y-19879500D01*
X41670252Y-19879500D01*
X41670247Y-19879500D01*
X41611770Y-19891131D01*
X41611769Y-19891132D01*
X41545447Y-19935447D01*
X41501132Y-20001769D01*
X41501131Y-20001770D01*
X41489500Y-20060247D01*
X41489500Y-23515500D01*
X41469815Y-23582539D01*
X41417011Y-23628294D01*
X41365500Y-23639500D01*
X41174500Y-23639500D01*
X41107461Y-23619815D01*
X41061706Y-23567011D01*
X41050500Y-23515500D01*
X41050500Y-20060249D01*
X41050499Y-20060247D01*
X41038868Y-20001770D01*
X41038867Y-20001769D01*
X40994552Y-19935447D01*
X40928230Y-19891132D01*
X40928229Y-19891131D01*
X40869752Y-19879500D01*
X40869748Y-19879500D01*
X40627400Y-19879500D01*
X40560361Y-19859815D01*
X40514606Y-19807011D01*
X40504662Y-19773147D01*
X40483903Y-19628765D01*
X40485720Y-19628503D01*
X40485722Y-19569562D01*
X40523498Y-19510785D01*
X40587055Y-19481762D01*
X40604698Y-19480500D01*
X43371499Y-19480500D01*
X43438538Y-19500185D01*
X43465211Y-19523296D01*
X43498872Y-19562143D01*
X43619947Y-19639953D01*
X43619950Y-19639954D01*
X43619949Y-19639954D01*
X43758036Y-19680499D01*
X43758038Y-19680500D01*
X43758039Y-19680500D01*
X43901962Y-19680500D01*
X43901962Y-19680499D01*
X44040053Y-19639953D01*
X44161128Y-19562143D01*
X44255377Y-19453373D01*
X44315165Y-19322457D01*
X44335647Y-19180000D01*
X44315165Y-19037543D01*
X44255377Y-18906627D01*
X44161128Y-18797857D01*
X44040053Y-18720047D01*
X44040051Y-18720046D01*
X44040049Y-18720045D01*
X44040050Y-18720045D01*
X43901963Y-18679500D01*
X43901961Y-18679500D01*
X43758039Y-18679500D01*
X43758036Y-18679500D01*
X43619949Y-18720045D01*
X43498873Y-18797856D01*
X43465212Y-18836703D01*
X43406433Y-18874477D01*
X43371499Y-18879500D01*
X36630438Y-18879500D01*
X36554010Y-18899978D01*
X36485489Y-18939540D01*
X36485486Y-18939542D01*
X35581848Y-19843181D01*
X35520525Y-19876666D01*
X35494167Y-19879500D01*
X34050247Y-19879500D01*
X33991770Y-19891131D01*
X33991769Y-19891132D01*
X33925447Y-19935447D01*
X33881132Y-20001769D01*
X33881131Y-20001770D01*
X33869500Y-20060247D01*
X33869500Y-23515500D01*
X33849815Y-23582539D01*
X33797011Y-23628294D01*
X33745500Y-23639500D01*
X33554500Y-23639500D01*
X33487461Y-23619815D01*
X33441706Y-23567011D01*
X33430500Y-23515500D01*
X33430500Y-20060249D01*
X33430499Y-20060247D01*
X33418868Y-20001770D01*
X33418867Y-20001769D01*
X33374552Y-19935447D01*
X33308230Y-19891132D01*
X33308229Y-19891131D01*
X33249752Y-19879500D01*
X33249748Y-19879500D01*
X31510252Y-19879500D01*
X31510247Y-19879500D01*
X31451770Y-19891131D01*
X31451769Y-19891132D01*
X31385447Y-19935447D01*
X31341132Y-20001769D01*
X31341131Y-20001770D01*
X31329500Y-20060247D01*
X31329500Y-23515500D01*
X31309815Y-23582539D01*
X31257011Y-23628294D01*
X31205500Y-23639500D01*
X31014500Y-23639500D01*
X30947461Y-23619815D01*
X30901706Y-23567011D01*
X30890500Y-23515500D01*
X30890500Y-20060249D01*
X30890499Y-20060247D01*
X30878868Y-20001770D01*
X30878867Y-20001769D01*
X30834552Y-19935447D01*
X30768230Y-19891132D01*
X30768229Y-19891131D01*
X30709752Y-19879500D01*
X30709748Y-19879500D01*
X28970252Y-19879500D01*
X28970247Y-19879500D01*
X28911770Y-19891131D01*
X28911769Y-19891132D01*
X28845447Y-19935447D01*
X28801132Y-20001769D01*
X28801131Y-20001770D01*
X28789500Y-20060247D01*
X28789500Y-23515500D01*
X28769815Y-23582539D01*
X28717011Y-23628294D01*
X28665500Y-23639500D01*
X28474500Y-23639500D01*
X28407461Y-23619815D01*
X28361706Y-23567011D01*
X28350500Y-23515500D01*
X28350500Y-20060249D01*
X28350499Y-20060247D01*
X28338868Y-20001770D01*
X28338867Y-20001769D01*
X28294552Y-19935447D01*
X28228230Y-19891132D01*
X28228229Y-19891131D01*
X28169752Y-19879500D01*
X28169748Y-19879500D01*
X27924524Y-19879500D01*
X27857485Y-19859815D01*
X27811730Y-19807011D01*
X27801786Y-19773147D01*
X27785165Y-19657543D01*
X27744985Y-19569562D01*
X27725377Y-19526627D01*
X27631128Y-19417857D01*
X27510053Y-19340047D01*
X27510051Y-19340046D01*
X27510049Y-19340045D01*
X27510050Y-19340045D01*
X27371963Y-19299500D01*
X27371961Y-19299500D01*
X27228039Y-19299500D01*
X27228036Y-19299500D01*
X27089949Y-19340045D01*
X26968873Y-19417856D01*
X26874623Y-19526626D01*
X26874622Y-19526628D01*
X26814834Y-19657543D01*
X26798214Y-19773147D01*
X26769189Y-19836702D01*
X26710411Y-19874477D01*
X26675476Y-19879500D01*
X26430247Y-19879500D01*
X26371770Y-19891131D01*
X26371769Y-19891132D01*
X26305447Y-19935447D01*
X26261132Y-20001769D01*
X26261131Y-20001770D01*
X26249500Y-20060247D01*
X26249500Y-23515500D01*
X26229815Y-23582539D01*
X26177011Y-23628294D01*
X26125500Y-23639500D01*
X25934500Y-23639500D01*
X25867461Y-23619815D01*
X25821706Y-23567011D01*
X25810500Y-23515500D01*
X25810500Y-20060249D01*
X25810499Y-20060247D01*
X25798868Y-20001770D01*
X25798867Y-20001769D01*
X25754552Y-19935447D01*
X25688230Y-19891132D01*
X25688229Y-19891131D01*
X25629752Y-19879500D01*
X25629748Y-19879500D01*
X23994833Y-19879500D01*
X23927794Y-19859815D01*
X23882039Y-19807011D01*
X23872095Y-19737853D01*
X23901120Y-19674297D01*
X23907152Y-19667819D01*
X26568152Y-17006819D01*
X26629475Y-16973334D01*
X26655833Y-16970500D01*
X32131499Y-16970500D01*
X32198538Y-16990185D01*
X32225211Y-17013296D01*
X32258872Y-17052143D01*
X32379947Y-17129953D01*
X32379950Y-17129954D01*
X32379949Y-17129954D01*
X32518036Y-17170499D01*
X32518038Y-17170500D01*
X32518039Y-17170500D01*
X32661962Y-17170500D01*
X32661962Y-17170499D01*
X32800053Y-17129953D01*
X32921128Y-17052143D01*
X33015377Y-16943373D01*
X33075165Y-16812457D01*
X33095647Y-16670000D01*
X33075165Y-16527543D01*
X33015377Y-16396627D01*
X32921128Y-16287857D01*
X32800053Y-16210047D01*
X32800051Y-16210046D01*
X32800049Y-16210045D01*
X32800050Y-16210045D01*
X32661963Y-16169500D01*
X32661961Y-16169500D01*
X32518039Y-16169500D01*
X32518036Y-16169500D01*
X32379949Y-16210045D01*
X32258873Y-16287856D01*
X32225212Y-16326703D01*
X32166433Y-16364477D01*
X32131499Y-16369500D01*
X26440438Y-16369500D01*
X26364010Y-16389978D01*
X26295489Y-16429540D01*
X26295486Y-16429542D01*
X22881848Y-19843181D01*
X22820525Y-19876666D01*
X22794167Y-19879500D01*
X21350247Y-19879500D01*
X21291770Y-19891131D01*
X21291769Y-19891132D01*
X21225447Y-19935447D01*
X21181132Y-20001769D01*
X21181131Y-20001770D01*
X21169500Y-20060247D01*
X21169500Y-23515500D01*
X21149815Y-23582539D01*
X21097011Y-23628294D01*
X21045500Y-23639500D01*
X18314500Y-23639500D01*
X18247461Y-23619815D01*
X18201706Y-23567011D01*
X18190500Y-23515500D01*
X18190500Y-20060249D01*
X18190499Y-20060247D01*
X18178868Y-20001770D01*
X18178867Y-20001769D01*
X18134552Y-19935447D01*
X18068230Y-19891132D01*
X18068229Y-19891131D01*
X18009752Y-19879500D01*
X18009748Y-19879500D01*
X16270252Y-19879500D01*
X16270247Y-19879500D01*
X16211770Y-19891131D01*
X16211769Y-19891132D01*
X16145447Y-19935447D01*
X16101132Y-20001769D01*
X16101131Y-20001770D01*
X16089500Y-20060247D01*
X16089500Y-23515500D01*
X16069815Y-23582539D01*
X16017011Y-23628294D01*
X15965500Y-23639500D01*
X15774500Y-23639500D01*
X15707461Y-23619815D01*
X15661706Y-23567011D01*
X15650500Y-23515500D01*
X15650500Y-20060249D01*
X15650499Y-20060247D01*
X15638868Y-20001770D01*
X15638867Y-20001769D01*
X15594552Y-19935447D01*
X15528230Y-19891132D01*
X15528229Y-19891131D01*
X15469752Y-19879500D01*
X15469748Y-19879500D01*
X13730252Y-19879500D01*
X13730247Y-19879500D01*
X13671770Y-19891131D01*
X13671769Y-19891132D01*
X13605447Y-19935447D01*
X13561132Y-20001769D01*
X13561131Y-20001770D01*
X13549500Y-20060247D01*
X13549500Y-23515500D01*
X13529815Y-23582539D01*
X13477011Y-23628294D01*
X13425500Y-23639500D01*
X13234500Y-23639500D01*
X13167461Y-23619815D01*
X13121706Y-23567011D01*
X13110500Y-23515500D01*
X13110500Y-20060249D01*
X13110499Y-20060247D01*
X13098868Y-20001770D01*
X13098867Y-20001769D01*
X13054552Y-19935447D01*
X12988230Y-19891132D01*
X12988229Y-19891131D01*
X12929752Y-19879500D01*
X12929748Y-19879500D01*
X11190252Y-19879500D01*
X11190247Y-19879500D01*
X11131770Y-19891131D01*
X11131769Y-19891132D01*
X11065447Y-19935447D01*
X11021132Y-20001769D01*
X11021131Y-20001770D01*
X11009500Y-20060247D01*
X11009500Y-23515500D01*
X10989815Y-23582539D01*
X10937011Y-23628294D01*
X10885500Y-23639500D01*
X10694500Y-23639500D01*
X10627461Y-23619815D01*
X10581706Y-23567011D01*
X10570500Y-23515500D01*
X10570500Y-20060249D01*
X10570499Y-20060247D01*
X10558868Y-20001770D01*
X10558867Y-20001769D01*
X10514552Y-19935447D01*
X10448230Y-19891132D01*
X10448229Y-19891131D01*
X10389752Y-19879500D01*
X10389748Y-19879500D01*
X8650252Y-19879500D01*
X8650247Y-19879500D01*
X8591770Y-19891131D01*
X8591769Y-19891132D01*
X8525447Y-19935447D01*
X8481132Y-20001769D01*
X8481131Y-20001770D01*
X8469500Y-20060247D01*
X8469500Y-23515500D01*
X8449815Y-23582539D01*
X8397011Y-23628294D01*
X8345500Y-23639500D01*
X5614500Y-23639500D01*
X5547461Y-23619815D01*
X5501706Y-23567011D01*
X5490500Y-23515500D01*
X5490500Y-20060249D01*
X5490499Y-20060247D01*
X5478868Y-20001770D01*
X5478867Y-20001769D01*
X5434552Y-19935447D01*
X5368230Y-19891132D01*
X5368229Y-19891131D01*
X5309752Y-19879500D01*
X5309748Y-19879500D01*
X3570252Y-19879500D01*
X3570247Y-19879500D01*
X3511770Y-19891131D01*
X3511769Y-19891132D01*
X3445447Y-19935447D01*
X3401132Y-20001769D01*
X3401131Y-20001770D01*
X3389500Y-20060247D01*
X3389500Y-23515500D01*
X3369815Y-23582539D01*
X3317011Y-23628294D01*
X3265500Y-23639500D01*
X3074500Y-23639500D01*
X3007461Y-23619815D01*
X2961706Y-23567011D01*
X2950500Y-23515500D01*
X2950500Y-20060249D01*
X2950499Y-20060247D01*
X2938868Y-20001770D01*
X2938867Y-20001769D01*
X2894552Y-19935447D01*
X2828230Y-19891132D01*
X2828229Y-19891131D01*
X2769752Y-19879500D01*
X2769748Y-19879500D01*
X1030252Y-19879500D01*
X1030247Y-19879500D01*
X971770Y-19891131D01*
X971769Y-19891132D01*
X905447Y-19935447D01*
X861132Y-20001769D01*
X861131Y-20001770D01*
X849500Y-20060247D01*
X849500Y-23515500D01*
X829815Y-23582539D01*
X777011Y-23628294D01*
X725500Y-23639500D01*
X624500Y-23639500D01*
X557461Y-23619815D01*
X511706Y-23567011D01*
X500500Y-23515500D01*
X500500Y-624500D01*
X520185Y-557461D01*
X572989Y-511706D01*
X624500Y-500500D01*
X725500Y-500500D01*
X792539Y-520185D01*
G37*
%TD.AperFunction*%
%TA.AperFunction,Conductor*%
G36*
X54556730Y-14470753D02*
G01*
X54612663Y-14512625D01*
X54626188Y-14535419D01*
X54684623Y-14663373D01*
X54778872Y-14772143D01*
X54899947Y-14849953D01*
X54899950Y-14849954D01*
X54899949Y-14849954D01*
X55038036Y-14890499D01*
X55038038Y-14890500D01*
X55038039Y-14890500D01*
X55181962Y-14890500D01*
X55181962Y-14890499D01*
X55320050Y-14849954D01*
X55320051Y-14849954D01*
X55320053Y-14849953D01*
X55436048Y-14775407D01*
X55503087Y-14755723D01*
X55570126Y-14775407D01*
X55606189Y-14810832D01*
X55655447Y-14884552D01*
X55721769Y-14928867D01*
X55721770Y-14928868D01*
X55780247Y-14940499D01*
X55780250Y-14940500D01*
X55876000Y-14940500D01*
X55943039Y-14960185D01*
X55988794Y-15012989D01*
X56000000Y-15064500D01*
X56000000Y-15715500D01*
X55980315Y-15782539D01*
X55927511Y-15828294D01*
X55876000Y-15839500D01*
X55780247Y-15839500D01*
X55721770Y-15851131D01*
X55721769Y-15851132D01*
X55655447Y-15895447D01*
X55611132Y-15961769D01*
X55611132Y-15961770D01*
X55605578Y-15989692D01*
X55573193Y-16051603D01*
X55512477Y-16086177D01*
X55483961Y-16089500D01*
X55270438Y-16089500D01*
X55232224Y-16099739D01*
X55194009Y-16109979D01*
X55194008Y-16109980D01*
X55133879Y-16144696D01*
X55125492Y-16149538D01*
X55125486Y-16149542D01*
X54341848Y-16933181D01*
X54280525Y-16966666D01*
X54254167Y-16969500D01*
X52254833Y-16969500D01*
X52187794Y-16949815D01*
X52142039Y-16897011D01*
X52132095Y-16827853D01*
X52161120Y-16764297D01*
X52167152Y-16757819D01*
X52714926Y-16210045D01*
X54425717Y-14499252D01*
X54487038Y-14465769D01*
X54556730Y-14470753D01*
G37*
%TD.AperFunction*%
%TA.AperFunction,Conductor*%
G36*
X38892539Y-520185D02*
G01*
X38938294Y-572989D01*
X38949500Y-624500D01*
X38949500Y-4019752D01*
X38961131Y-4078229D01*
X38961132Y-4078230D01*
X39005447Y-4144552D01*
X39071769Y-4188867D01*
X39071770Y-4188868D01*
X39130247Y-4200499D01*
X39130250Y-4200500D01*
X39130252Y-4200500D01*
X39580488Y-4200500D01*
X39647527Y-4220185D01*
X39693282Y-4272989D01*
X39700259Y-4292395D01*
X39715590Y-4349611D01*
X39719979Y-4365990D01*
X39719980Y-4365991D01*
X39757506Y-4430988D01*
X39757508Y-4430991D01*
X39759539Y-4434510D01*
X40560604Y-5235575D01*
X40594089Y-5296898D01*
X40595661Y-5340902D01*
X40594353Y-5349999D01*
X40614834Y-5492456D01*
X40637669Y-5542456D01*
X40674623Y-5623373D01*
X40768872Y-5732143D01*
X40889947Y-5809953D01*
X40889950Y-5809954D01*
X40889949Y-5809954D01*
X41028036Y-5850499D01*
X41028038Y-5850500D01*
X41028039Y-5850500D01*
X41171962Y-5850500D01*
X41171962Y-5850499D01*
X41310053Y-5809953D01*
X41431128Y-5732143D01*
X41525377Y-5623373D01*
X41585165Y-5492457D01*
X41605647Y-5350000D01*
X41585165Y-5207543D01*
X41525377Y-5076627D01*
X41431128Y-4967857D01*
X41310053Y-4890047D01*
X41310051Y-4890046D01*
X41310049Y-4890045D01*
X41310050Y-4890045D01*
X41171963Y-4849500D01*
X41171961Y-4849500D01*
X41075833Y-4849500D01*
X41008794Y-4829815D01*
X40988152Y-4813181D01*
X40587152Y-4412181D01*
X40553667Y-4350858D01*
X40558651Y-4281166D01*
X40600523Y-4225233D01*
X40665987Y-4200816D01*
X40674833Y-4200500D01*
X40869750Y-4200500D01*
X40869751Y-4200499D01*
X40884568Y-4197552D01*
X40928229Y-4188868D01*
X40928229Y-4188867D01*
X40928231Y-4188867D01*
X40994552Y-4144552D01*
X41038867Y-4078231D01*
X41038867Y-4078229D01*
X41038868Y-4078229D01*
X41050499Y-4019752D01*
X41050500Y-4019750D01*
X41050500Y-624500D01*
X41070185Y-557461D01*
X41122989Y-511706D01*
X41174500Y-500500D01*
X41365500Y-500500D01*
X41432539Y-520185D01*
X41478294Y-572989D01*
X41489500Y-624500D01*
X41489500Y-4019752D01*
X41501131Y-4078229D01*
X41501132Y-4078230D01*
X41545447Y-4144552D01*
X41611769Y-4188867D01*
X41611770Y-4188868D01*
X41670247Y-4200499D01*
X41670250Y-4200500D01*
X41670252Y-4200500D01*
X43409750Y-4200500D01*
X43409751Y-4200499D01*
X43424568Y-4197552D01*
X43468229Y-4188868D01*
X43468229Y-4188867D01*
X43468231Y-4188867D01*
X43534552Y-4144552D01*
X43578867Y-4078231D01*
X43578867Y-4078229D01*
X43578868Y-4078229D01*
X43590499Y-4019752D01*
X43590500Y-4019750D01*
X43590500Y-624500D01*
X43610185Y-557461D01*
X43662989Y-511706D01*
X43714500Y-500500D01*
X46445500Y-500500D01*
X46512539Y-520185D01*
X46558294Y-572989D01*
X46569500Y-624500D01*
X46569500Y-4019752D01*
X46581131Y-4078229D01*
X46581132Y-4078230D01*
X46625447Y-4144552D01*
X46691769Y-4188867D01*
X46691770Y-4188868D01*
X46750247Y-4200499D01*
X46750250Y-4200500D01*
X46750252Y-4200500D01*
X47195500Y-4200500D01*
X47262539Y-4220185D01*
X47308294Y-4272989D01*
X47319500Y-4324500D01*
X47319500Y-4354562D01*
X47339979Y-4430988D01*
X47339982Y-4430995D01*
X47379535Y-4499504D01*
X47379541Y-4499512D01*
X49151232Y-6271203D01*
X49184717Y-6332526D01*
X49186290Y-6376526D01*
X49184353Y-6390000D01*
X49204834Y-6532456D01*
X49264622Y-6663371D01*
X49264623Y-6663373D01*
X49358872Y-6772143D01*
X49479947Y-6849953D01*
X49479950Y-6849954D01*
X49479949Y-6849954D01*
X49618036Y-6890499D01*
X49618038Y-6890500D01*
X49618039Y-6890500D01*
X49761962Y-6890500D01*
X49761962Y-6890499D01*
X49900053Y-6849953D01*
X50021128Y-6772143D01*
X50115377Y-6663373D01*
X50142459Y-6604070D01*
X50188212Y-6551270D01*
X50255251Y-6531585D01*
X50322291Y-6551269D01*
X50342933Y-6567904D01*
X52219540Y-8444511D01*
X52275489Y-8500460D01*
X52275491Y-8500461D01*
X52275495Y-8500464D01*
X52343109Y-8539500D01*
X52344011Y-8540021D01*
X52420438Y-8560500D01*
X52930530Y-8560500D01*
X52997569Y-8580185D01*
X53043324Y-8632989D01*
X53053268Y-8702147D01*
X53024243Y-8765703D01*
X53008504Y-8780148D01*
X53008768Y-8780457D01*
X53005060Y-8783623D01*
X52843622Y-8945061D01*
X52709421Y-9129771D01*
X52605770Y-9333196D01*
X52535215Y-9550339D01*
X52499500Y-9775837D01*
X52499500Y-10004162D01*
X52535215Y-10229660D01*
X52605770Y-10446803D01*
X52672136Y-10577052D01*
X52709421Y-10650228D01*
X52843621Y-10834937D01*
X53005063Y-10996379D01*
X53189772Y-11130579D01*
X53285884Y-11179550D01*
X53393196Y-11234229D01*
X53393198Y-11234229D01*
X53393201Y-11234231D01*
X53509592Y-11272049D01*
X53610339Y-11304784D01*
X53835838Y-11340500D01*
X53835843Y-11340500D01*
X53884108Y-11340500D01*
X55475500Y-11340500D01*
X55542539Y-11360185D01*
X55588294Y-11412989D01*
X55599500Y-11464500D01*
X55599500Y-11759752D01*
X55611131Y-11818229D01*
X55611132Y-11818231D01*
X55613058Y-11821113D01*
X55615322Y-11828344D01*
X55615806Y-11829513D01*
X55615701Y-11829556D01*
X55633933Y-11887791D01*
X55615446Y-11955171D01*
X55613058Y-11958887D01*
X55611132Y-11961768D01*
X55611132Y-11961769D01*
X55605237Y-11991405D01*
X55572851Y-12053316D01*
X55512135Y-12087889D01*
X55507788Y-12088686D01*
X55428323Y-12109979D01*
X55428318Y-12109982D01*
X55359809Y-12149535D01*
X55359801Y-12149541D01*
X51376162Y-16133181D01*
X51314839Y-16166666D01*
X51288481Y-16169500D01*
X42364016Y-16169500D01*
X42296977Y-16149815D01*
X42251222Y-16097012D01*
X42205377Y-15996628D01*
X42205376Y-15996626D01*
X42175173Y-15961770D01*
X42111128Y-15887857D01*
X41990053Y-15810047D01*
X41990051Y-15810046D01*
X41990049Y-15810045D01*
X41990050Y-15810045D01*
X41851963Y-15769500D01*
X41851961Y-15769500D01*
X41708039Y-15769500D01*
X41708036Y-15769500D01*
X41569949Y-15810045D01*
X41448873Y-15887856D01*
X41354623Y-15996626D01*
X41354622Y-15996628D01*
X41294834Y-16127543D01*
X41274353Y-16270000D01*
X41296097Y-16421235D01*
X41294279Y-16421496D01*
X41294278Y-16480438D01*
X41256502Y-16539215D01*
X41192945Y-16568238D01*
X41175302Y-16569500D01*
X39884016Y-16569500D01*
X39816977Y-16549815D01*
X39771222Y-16497012D01*
X39725377Y-16396628D01*
X39725376Y-16396626D01*
X39631128Y-16287857D01*
X39510053Y-16210047D01*
X39510051Y-16210046D01*
X39510049Y-16210045D01*
X39510050Y-16210045D01*
X39371963Y-16169500D01*
X39371961Y-16169500D01*
X39228039Y-16169500D01*
X39228036Y-16169500D01*
X39089949Y-16210045D01*
X38968873Y-16287856D01*
X38874623Y-16396626D01*
X38847541Y-16455927D01*
X38801785Y-16508730D01*
X38734746Y-16528414D01*
X38667706Y-16508729D01*
X38647066Y-16492095D01*
X36718514Y-14563543D01*
X45999499Y-14563543D01*
X46037947Y-14756829D01*
X46037950Y-14756839D01*
X46113364Y-14938907D01*
X46113371Y-14938920D01*
X46222860Y-15102781D01*
X46222863Y-15102785D01*
X46362214Y-15242136D01*
X46362218Y-15242139D01*
X46526079Y-15351628D01*
X46526092Y-15351635D01*
X46708160Y-15427049D01*
X46708165Y-15427051D01*
X46708169Y-15427051D01*
X46708170Y-15427052D01*
X46901456Y-15465500D01*
X46901459Y-15465500D01*
X47098543Y-15465500D01*
X47228582Y-15439632D01*
X47291835Y-15427051D01*
X47473914Y-15351632D01*
X47637782Y-15242139D01*
X47777139Y-15102782D01*
X47886632Y-14938914D01*
X47962051Y-14756835D01*
X47978439Y-14674448D01*
X48879500Y-14674448D01*
X48879500Y-14855551D01*
X48907829Y-15034410D01*
X48963787Y-15206636D01*
X48963788Y-15206639D01*
X49046006Y-15367997D01*
X49152441Y-15514494D01*
X49152445Y-15514499D01*
X49280500Y-15642554D01*
X49280505Y-15642558D01*
X49380902Y-15715500D01*
X49427006Y-15748996D01*
X49532484Y-15802740D01*
X49588360Y-15831211D01*
X49588363Y-15831212D01*
X49674476Y-15859191D01*
X49760591Y-15887171D01*
X49843429Y-15900291D01*
X49939449Y-15915500D01*
X49939454Y-15915500D01*
X50120551Y-15915500D01*
X50207259Y-15901765D01*
X50299409Y-15887171D01*
X50471639Y-15831211D01*
X50632994Y-15748996D01*
X50779501Y-15642553D01*
X50907553Y-15514501D01*
X51013996Y-15367994D01*
X51096211Y-15206639D01*
X51152171Y-15034409D01*
X51175906Y-14884552D01*
X51180500Y-14855551D01*
X51180500Y-14674448D01*
X51162933Y-14563541D01*
X51152171Y-14495591D01*
X51096211Y-14323361D01*
X51096211Y-14323360D01*
X51019684Y-14173170D01*
X51013996Y-14162006D01*
X50961318Y-14089500D01*
X50907558Y-14015505D01*
X50907554Y-14015500D01*
X50779499Y-13887445D01*
X50779494Y-13887441D01*
X50632997Y-13781006D01*
X50632996Y-13781005D01*
X50632994Y-13781004D01*
X50581300Y-13754664D01*
X50471639Y-13698788D01*
X50471636Y-13698787D01*
X50299410Y-13642829D01*
X50120551Y-13614500D01*
X50120546Y-13614500D01*
X49939454Y-13614500D01*
X49939449Y-13614500D01*
X49760589Y-13642829D01*
X49588363Y-13698787D01*
X49588360Y-13698788D01*
X49427002Y-13781006D01*
X49280505Y-13887441D01*
X49280500Y-13887445D01*
X49152445Y-14015500D01*
X49152441Y-14015505D01*
X49046006Y-14162002D01*
X48963788Y-14323360D01*
X48963787Y-14323363D01*
X48907829Y-14495589D01*
X48879500Y-14674448D01*
X47978439Y-14674448D01*
X48000500Y-14563541D01*
X48000500Y-14366459D01*
X48000500Y-14366456D01*
X47962052Y-14173170D01*
X47962051Y-14173169D01*
X47962051Y-14173165D01*
X47896745Y-14015500D01*
X47886635Y-13991092D01*
X47886628Y-13991079D01*
X47777139Y-13827218D01*
X47777136Y-13827214D01*
X47637785Y-13687863D01*
X47637781Y-13687860D01*
X47473920Y-13578371D01*
X47473907Y-13578364D01*
X47291839Y-13502950D01*
X47291829Y-13502947D01*
X47098543Y-13464500D01*
X47098541Y-13464500D01*
X46901459Y-13464500D01*
X46901457Y-13464500D01*
X46708170Y-13502947D01*
X46708160Y-13502950D01*
X46526092Y-13578364D01*
X46526079Y-13578371D01*
X46362218Y-13687860D01*
X46362214Y-13687863D01*
X46222863Y-13827214D01*
X46222860Y-13827218D01*
X46113371Y-13991079D01*
X46113364Y-13991092D01*
X46037950Y-14173160D01*
X46037947Y-14173170D01*
X45999500Y-14366456D01*
X45999500Y-14366459D01*
X45999500Y-14563541D01*
X45999500Y-14563543D01*
X45999499Y-14563543D01*
X36718514Y-14563543D01*
X35656819Y-13501848D01*
X35623334Y-13440525D01*
X35620500Y-13414167D01*
X35620500Y-9713543D01*
X45999499Y-9713543D01*
X46037947Y-9906829D01*
X46037950Y-9906839D01*
X46113364Y-10088907D01*
X46113371Y-10088920D01*
X46222860Y-10252781D01*
X46222863Y-10252785D01*
X46362214Y-10392136D01*
X46362218Y-10392139D01*
X46526079Y-10501628D01*
X46526092Y-10501635D01*
X46708160Y-10577049D01*
X46708165Y-10577051D01*
X46708169Y-10577051D01*
X46708170Y-10577052D01*
X46901456Y-10615500D01*
X46901459Y-10615500D01*
X47098543Y-10615500D01*
X47228582Y-10589632D01*
X47291835Y-10577051D01*
X47473914Y-10501632D01*
X47637782Y-10392139D01*
X47777139Y-10252782D01*
X47886632Y-10088914D01*
X47962051Y-9906835D01*
X47988107Y-9775843D01*
X48000500Y-9713543D01*
X48000500Y-9516456D01*
X47962052Y-9323170D01*
X47962051Y-9323169D01*
X47962051Y-9323165D01*
X47921164Y-9224454D01*
X47921162Y-9224448D01*
X48879500Y-9224448D01*
X48879500Y-9405551D01*
X48907829Y-9584410D01*
X48963787Y-9756636D01*
X48963788Y-9756639D01*
X49019664Y-9866300D01*
X49040320Y-9906839D01*
X49046006Y-9917997D01*
X49152441Y-10064494D01*
X49152445Y-10064499D01*
X49280500Y-10192554D01*
X49280505Y-10192558D01*
X49399866Y-10279278D01*
X49427006Y-10298996D01*
X49532484Y-10352740D01*
X49588360Y-10381211D01*
X49588363Y-10381212D01*
X49621985Y-10392136D01*
X49760591Y-10437171D01*
X49843429Y-10450291D01*
X49939449Y-10465500D01*
X49939454Y-10465500D01*
X50120551Y-10465500D01*
X50207259Y-10451765D01*
X50299409Y-10437171D01*
X50471639Y-10381211D01*
X50632994Y-10298996D01*
X50779501Y-10192553D01*
X50907553Y-10064501D01*
X51013996Y-9917994D01*
X51096211Y-9756639D01*
X51152171Y-9584409D01*
X51174964Y-9440500D01*
X51180500Y-9405551D01*
X51180500Y-9224448D01*
X51164019Y-9120397D01*
X51152171Y-9045591D01*
X51096211Y-8873361D01*
X51096211Y-8873360D01*
X51050486Y-8783621D01*
X51013996Y-8712006D01*
X50971089Y-8652949D01*
X50907558Y-8565505D01*
X50907554Y-8565500D01*
X50779499Y-8437445D01*
X50779494Y-8437441D01*
X50632997Y-8331006D01*
X50632996Y-8331005D01*
X50632994Y-8331004D01*
X50581300Y-8304664D01*
X50471639Y-8248788D01*
X50471636Y-8248787D01*
X50299410Y-8192829D01*
X50120551Y-8164500D01*
X50120546Y-8164500D01*
X49939454Y-8164500D01*
X49939449Y-8164500D01*
X49760589Y-8192829D01*
X49588363Y-8248787D01*
X49588360Y-8248788D01*
X49427002Y-8331006D01*
X49280505Y-8437441D01*
X49280500Y-8437445D01*
X49152445Y-8565500D01*
X49152441Y-8565505D01*
X49046006Y-8712002D01*
X48963788Y-8873360D01*
X48963787Y-8873363D01*
X48907829Y-9045589D01*
X48879500Y-9224448D01*
X47921162Y-9224448D01*
X47886635Y-9141092D01*
X47886628Y-9141079D01*
X47777139Y-8977218D01*
X47777136Y-8977214D01*
X47637785Y-8837863D01*
X47637781Y-8837860D01*
X47473920Y-8728371D01*
X47473907Y-8728364D01*
X47291839Y-8652950D01*
X47291829Y-8652947D01*
X47098543Y-8614500D01*
X47098541Y-8614500D01*
X46901459Y-8614500D01*
X46901457Y-8614500D01*
X46708170Y-8652947D01*
X46708160Y-8652950D01*
X46526092Y-8728364D01*
X46526079Y-8728371D01*
X46362218Y-8837860D01*
X46362214Y-8837863D01*
X46222863Y-8977214D01*
X46222860Y-8977218D01*
X46113371Y-9141079D01*
X46113364Y-9141092D01*
X46037950Y-9323160D01*
X46037947Y-9323170D01*
X45999500Y-9516456D01*
X45999500Y-9516459D01*
X45999500Y-9713541D01*
X45999500Y-9713543D01*
X45999499Y-9713543D01*
X35620500Y-9713543D01*
X35620500Y-5465833D01*
X35640185Y-5398794D01*
X35656819Y-5378152D01*
X36798152Y-4236819D01*
X36859475Y-4203334D01*
X36885833Y-4200500D01*
X38329750Y-4200500D01*
X38329751Y-4200499D01*
X38344568Y-4197552D01*
X38388229Y-4188868D01*
X38388229Y-4188867D01*
X38388231Y-4188867D01*
X38454552Y-4144552D01*
X38498867Y-4078231D01*
X38498867Y-4078229D01*
X38498868Y-4078229D01*
X38510499Y-4019752D01*
X38510500Y-4019750D01*
X38510500Y-624500D01*
X38530185Y-557461D01*
X38582989Y-511706D01*
X38634500Y-500500D01*
X38825500Y-500500D01*
X38892539Y-520185D01*
G37*
%TD.AperFunction*%
%TA.AperFunction,Conductor*%
G36*
X52442539Y-520185D02*
G01*
X52488294Y-572989D01*
X52499500Y-624500D01*
X52499500Y-1805891D01*
X52533608Y-1933187D01*
X52566554Y-1990250D01*
X52599500Y-2047314D01*
X52692686Y-2140500D01*
X52806814Y-2206392D01*
X52934108Y-2240500D01*
X52934110Y-2240500D01*
X55876000Y-2240500D01*
X55943039Y-2260185D01*
X55988794Y-2312989D01*
X56000000Y-2364500D01*
X56000000Y-2715500D01*
X55980315Y-2782539D01*
X55927511Y-2828294D01*
X55876000Y-2839500D01*
X55780247Y-2839500D01*
X55721770Y-2851131D01*
X55721769Y-2851132D01*
X55655447Y-2895447D01*
X55611132Y-2961769D01*
X55611131Y-2961770D01*
X55599500Y-3020247D01*
X55599500Y-3759752D01*
X55611131Y-3818229D01*
X55611132Y-3818230D01*
X55655447Y-3884552D01*
X55721769Y-3928867D01*
X55721770Y-3928868D01*
X55780247Y-3940499D01*
X55780250Y-3940500D01*
X55876000Y-3940500D01*
X55943039Y-3960185D01*
X55988794Y-4012989D01*
X56000000Y-4064500D01*
X56000000Y-4715500D01*
X55980315Y-4782539D01*
X55927511Y-4828294D01*
X55876000Y-4839500D01*
X55780247Y-4839500D01*
X55721770Y-4851131D01*
X55721769Y-4851132D01*
X55655447Y-4895447D01*
X55611132Y-4961769D01*
X55611132Y-4961770D01*
X55605578Y-4989692D01*
X55573193Y-5051603D01*
X55512477Y-5086177D01*
X55483961Y-5089500D01*
X55149836Y-5089500D01*
X55082797Y-5069815D01*
X55056124Y-5046703D01*
X55031130Y-5017859D01*
X55031129Y-5017858D01*
X55031128Y-5017857D01*
X54910053Y-4940047D01*
X54910051Y-4940046D01*
X54910049Y-4940045D01*
X54910050Y-4940045D01*
X54771963Y-4899500D01*
X54771961Y-4899500D01*
X54628039Y-4899500D01*
X54628036Y-4899500D01*
X54489949Y-4940045D01*
X54368873Y-5017856D01*
X54274623Y-5126626D01*
X54274622Y-5126628D01*
X54214834Y-5257543D01*
X54194353Y-5400000D01*
X54214834Y-5542456D01*
X54274622Y-5673371D01*
X54274623Y-5673373D01*
X54368872Y-5782143D01*
X54489947Y-5859953D01*
X54491863Y-5861184D01*
X54537618Y-5913988D01*
X54547562Y-5983147D01*
X54518537Y-6046703D01*
X54459759Y-6084477D01*
X54424824Y-6089500D01*
X53458501Y-6089500D01*
X53391462Y-6069815D01*
X53364788Y-6046703D01*
X53331128Y-6007857D01*
X53210053Y-5930047D01*
X53210051Y-5930046D01*
X53210049Y-5930045D01*
X53210050Y-5930045D01*
X53071963Y-5889500D01*
X53071961Y-5889500D01*
X52928039Y-5889500D01*
X52928036Y-5889500D01*
X52789949Y-5930045D01*
X52668873Y-6007856D01*
X52574623Y-6116626D01*
X52574622Y-6116628D01*
X52514834Y-6247543D01*
X52494353Y-6390000D01*
X52514834Y-6532456D01*
X52574622Y-6663371D01*
X52574623Y-6663373D01*
X52668872Y-6772143D01*
X52789947Y-6849953D01*
X52789950Y-6849954D01*
X52789949Y-6849954D01*
X52928036Y-6890499D01*
X52928038Y-6890500D01*
X52928039Y-6890500D01*
X53071962Y-6890500D01*
X53071962Y-6890499D01*
X53210053Y-6849953D01*
X53331128Y-6772143D01*
X53364788Y-6733296D01*
X53423567Y-6695523D01*
X53458501Y-6690500D01*
X55483961Y-6690500D01*
X55551000Y-6710185D01*
X55596755Y-6762989D01*
X55605578Y-6790308D01*
X55611132Y-6818229D01*
X55611132Y-6818230D01*
X55655447Y-6884552D01*
X55721769Y-6928867D01*
X55721770Y-6928868D01*
X55780247Y-6940499D01*
X55780250Y-6940500D01*
X55876000Y-6940500D01*
X55943039Y-6960185D01*
X55988794Y-7012989D01*
X56000000Y-7064500D01*
X56000000Y-7715500D01*
X55980315Y-7782539D01*
X55927511Y-7828294D01*
X55876000Y-7839500D01*
X55780247Y-7839500D01*
X55721770Y-7851131D01*
X55721769Y-7851132D01*
X55655446Y-7895448D01*
X55652714Y-7898181D01*
X55591391Y-7931666D01*
X55565033Y-7934500D01*
X55121500Y-7934500D01*
X55095288Y-7939713D01*
X55042864Y-7950140D01*
X55037036Y-7951908D01*
X55036850Y-7951295D01*
X54995603Y-7959500D01*
X52635833Y-7959500D01*
X52568794Y-7939815D01*
X52548152Y-7923181D01*
X50496819Y-5871848D01*
X50463334Y-5810525D01*
X50460500Y-5784167D01*
X50460500Y-4324500D01*
X50480185Y-4257461D01*
X50532989Y-4211706D01*
X50584500Y-4200500D01*
X51029750Y-4200500D01*
X51029751Y-4200499D01*
X51044568Y-4197552D01*
X51088229Y-4188868D01*
X51088229Y-4188867D01*
X51088231Y-4188867D01*
X51154552Y-4144552D01*
X51198867Y-4078231D01*
X51198867Y-4078229D01*
X51198868Y-4078229D01*
X51210499Y-4019752D01*
X51210500Y-4019750D01*
X51210500Y-624500D01*
X51230185Y-557461D01*
X51282989Y-511706D01*
X51334500Y-500500D01*
X52375500Y-500500D01*
X52442539Y-520185D01*
G37*
%TD.AperFunction*%
%TD*%
M02*
