%TF.GenerationSoftware,KiCad,Pcbnew,8.0.3*%
%TF.CreationDate,2024-06-27T21:13:00-04:00*%
%TF.ProjectId,pi-pico-mgmt-module,70692d70-6963-46f2-9d6d-676d742d6d6f,rev?*%
%TF.SameCoordinates,Original*%
%TF.FileFunction,Other,Comment*%
%FSLAX46Y46*%
G04 Gerber Fmt 4.6, Leading zero omitted, Abs format (unit mm)*
G04 Created by KiCad (PCBNEW 8.0.3) date 2024-06-27 21:13:00*
%MOMM*%
%LPD*%
G01*
G04 APERTURE LIST*
%ADD10C,0.150000*%
%ADD11C,0.100000*%
G04 APERTURE END LIST*
D10*
X56589580Y-26140002D02*
X56637200Y-26187621D01*
X56637200Y-26187621D02*
X56684819Y-26330478D01*
X56684819Y-26330478D02*
X56684819Y-26425716D01*
X56684819Y-26425716D02*
X56637200Y-26568573D01*
X56637200Y-26568573D02*
X56541961Y-26663811D01*
X56541961Y-26663811D02*
X56446723Y-26711430D01*
X56446723Y-26711430D02*
X56256247Y-26759049D01*
X56256247Y-26759049D02*
X56113390Y-26759049D01*
X56113390Y-26759049D02*
X55922914Y-26711430D01*
X55922914Y-26711430D02*
X55827676Y-26663811D01*
X55827676Y-26663811D02*
X55732438Y-26568573D01*
X55732438Y-26568573D02*
X55684819Y-26425716D01*
X55684819Y-26425716D02*
X55684819Y-26330478D01*
X55684819Y-26330478D02*
X55732438Y-26187621D01*
X55732438Y-26187621D02*
X55780057Y-26140002D01*
X56684819Y-25568573D02*
X56637200Y-25663811D01*
X56637200Y-25663811D02*
X56589580Y-25711430D01*
X56589580Y-25711430D02*
X56494342Y-25759049D01*
X56494342Y-25759049D02*
X56208628Y-25759049D01*
X56208628Y-25759049D02*
X56113390Y-25711430D01*
X56113390Y-25711430D02*
X56065771Y-25663811D01*
X56065771Y-25663811D02*
X56018152Y-25568573D01*
X56018152Y-25568573D02*
X56018152Y-25425716D01*
X56018152Y-25425716D02*
X56065771Y-25330478D01*
X56065771Y-25330478D02*
X56113390Y-25282859D01*
X56113390Y-25282859D02*
X56208628Y-25235240D01*
X56208628Y-25235240D02*
X56494342Y-25235240D01*
X56494342Y-25235240D02*
X56589580Y-25282859D01*
X56589580Y-25282859D02*
X56637200Y-25330478D01*
X56637200Y-25330478D02*
X56684819Y-25425716D01*
X56684819Y-25425716D02*
X56684819Y-25568573D01*
X56018152Y-24806668D02*
X57018152Y-24806668D01*
X56065771Y-24806668D02*
X56018152Y-24711430D01*
X56018152Y-24711430D02*
X56018152Y-24520954D01*
X56018152Y-24520954D02*
X56065771Y-24425716D01*
X56065771Y-24425716D02*
X56113390Y-24378097D01*
X56113390Y-24378097D02*
X56208628Y-24330478D01*
X56208628Y-24330478D02*
X56494342Y-24330478D01*
X56494342Y-24330478D02*
X56589580Y-24378097D01*
X56589580Y-24378097D02*
X56637200Y-24425716D01*
X56637200Y-24425716D02*
X56684819Y-24520954D01*
X56684819Y-24520954D02*
X56684819Y-24711430D01*
X56684819Y-24711430D02*
X56637200Y-24806668D01*
X56018152Y-23901906D02*
X57018152Y-23901906D01*
X56065771Y-23901906D02*
X56018152Y-23806668D01*
X56018152Y-23806668D02*
X56018152Y-23616192D01*
X56018152Y-23616192D02*
X56065771Y-23520954D01*
X56065771Y-23520954D02*
X56113390Y-23473335D01*
X56113390Y-23473335D02*
X56208628Y-23425716D01*
X56208628Y-23425716D02*
X56494342Y-23425716D01*
X56494342Y-23425716D02*
X56589580Y-23473335D01*
X56589580Y-23473335D02*
X56637200Y-23520954D01*
X56637200Y-23520954D02*
X56684819Y-23616192D01*
X56684819Y-23616192D02*
X56684819Y-23806668D01*
X56684819Y-23806668D02*
X56637200Y-23901906D01*
X56637200Y-22616192D02*
X56684819Y-22711430D01*
X56684819Y-22711430D02*
X56684819Y-22901906D01*
X56684819Y-22901906D02*
X56637200Y-22997144D01*
X56637200Y-22997144D02*
X56541961Y-23044763D01*
X56541961Y-23044763D02*
X56161009Y-23044763D01*
X56161009Y-23044763D02*
X56065771Y-22997144D01*
X56065771Y-22997144D02*
X56018152Y-22901906D01*
X56018152Y-22901906D02*
X56018152Y-22711430D01*
X56018152Y-22711430D02*
X56065771Y-22616192D01*
X56065771Y-22616192D02*
X56161009Y-22568573D01*
X56161009Y-22568573D02*
X56256247Y-22568573D01*
X56256247Y-22568573D02*
X56351485Y-23044763D01*
X56684819Y-22140001D02*
X56018152Y-22140001D01*
X56208628Y-22140001D02*
X56113390Y-22092382D01*
X56113390Y-22092382D02*
X56065771Y-22044763D01*
X56065771Y-22044763D02*
X56018152Y-21949525D01*
X56018152Y-21949525D02*
X56018152Y-21854287D01*
X56684819Y-20759048D02*
X55684819Y-20759048D01*
X56684819Y-20187620D02*
X56113390Y-20616191D01*
X55684819Y-20187620D02*
X56256247Y-20759048D01*
X56637200Y-19378096D02*
X56684819Y-19473334D01*
X56684819Y-19473334D02*
X56684819Y-19663810D01*
X56684819Y-19663810D02*
X56637200Y-19759048D01*
X56637200Y-19759048D02*
X56541961Y-19806667D01*
X56541961Y-19806667D02*
X56161009Y-19806667D01*
X56161009Y-19806667D02*
X56065771Y-19759048D01*
X56065771Y-19759048D02*
X56018152Y-19663810D01*
X56018152Y-19663810D02*
X56018152Y-19473334D01*
X56018152Y-19473334D02*
X56065771Y-19378096D01*
X56065771Y-19378096D02*
X56161009Y-19330477D01*
X56161009Y-19330477D02*
X56256247Y-19330477D01*
X56256247Y-19330477D02*
X56351485Y-19806667D01*
X56637200Y-18520953D02*
X56684819Y-18616191D01*
X56684819Y-18616191D02*
X56684819Y-18806667D01*
X56684819Y-18806667D02*
X56637200Y-18901905D01*
X56637200Y-18901905D02*
X56541961Y-18949524D01*
X56541961Y-18949524D02*
X56161009Y-18949524D01*
X56161009Y-18949524D02*
X56065771Y-18901905D01*
X56065771Y-18901905D02*
X56018152Y-18806667D01*
X56018152Y-18806667D02*
X56018152Y-18616191D01*
X56018152Y-18616191D02*
X56065771Y-18520953D01*
X56065771Y-18520953D02*
X56161009Y-18473334D01*
X56161009Y-18473334D02*
X56256247Y-18473334D01*
X56256247Y-18473334D02*
X56351485Y-18949524D01*
X56018152Y-18044762D02*
X57018152Y-18044762D01*
X56065771Y-18044762D02*
X56018152Y-17949524D01*
X56018152Y-17949524D02*
X56018152Y-17759048D01*
X56018152Y-17759048D02*
X56065771Y-17663810D01*
X56065771Y-17663810D02*
X56113390Y-17616191D01*
X56113390Y-17616191D02*
X56208628Y-17568572D01*
X56208628Y-17568572D02*
X56494342Y-17568572D01*
X56494342Y-17568572D02*
X56589580Y-17616191D01*
X56589580Y-17616191D02*
X56637200Y-17663810D01*
X56637200Y-17663810D02*
X56684819Y-17759048D01*
X56684819Y-17759048D02*
X56684819Y-17949524D01*
X56684819Y-17949524D02*
X56637200Y-18044762D01*
X56684819Y-16997143D02*
X56637200Y-17092381D01*
X56637200Y-17092381D02*
X56589580Y-17140000D01*
X56589580Y-17140000D02*
X56494342Y-17187619D01*
X56494342Y-17187619D02*
X56208628Y-17187619D01*
X56208628Y-17187619D02*
X56113390Y-17140000D01*
X56113390Y-17140000D02*
X56065771Y-17092381D01*
X56065771Y-17092381D02*
X56018152Y-16997143D01*
X56018152Y-16997143D02*
X56018152Y-16854286D01*
X56018152Y-16854286D02*
X56065771Y-16759048D01*
X56065771Y-16759048D02*
X56113390Y-16711429D01*
X56113390Y-16711429D02*
X56208628Y-16663810D01*
X56208628Y-16663810D02*
X56494342Y-16663810D01*
X56494342Y-16663810D02*
X56589580Y-16711429D01*
X56589580Y-16711429D02*
X56637200Y-16759048D01*
X56637200Y-16759048D02*
X56684819Y-16854286D01*
X56684819Y-16854286D02*
X56684819Y-16997143D01*
X56018152Y-15806667D02*
X56684819Y-15806667D01*
X56018152Y-16235238D02*
X56541961Y-16235238D01*
X56541961Y-16235238D02*
X56637200Y-16187619D01*
X56637200Y-16187619D02*
X56684819Y-16092381D01*
X56684819Y-16092381D02*
X56684819Y-15949524D01*
X56684819Y-15949524D02*
X56637200Y-15854286D01*
X56637200Y-15854286D02*
X56589580Y-15806667D01*
X56018152Y-15473333D02*
X56018152Y-15092381D01*
X55684819Y-15330476D02*
X56541961Y-15330476D01*
X56541961Y-15330476D02*
X56637200Y-15282857D01*
X56637200Y-15282857D02*
X56684819Y-15187619D01*
X56684819Y-15187619D02*
X56684819Y-15092381D01*
X56637200Y-14806666D02*
X56684819Y-14711428D01*
X56684819Y-14711428D02*
X56684819Y-14520952D01*
X56684819Y-14520952D02*
X56637200Y-14425714D01*
X56637200Y-14425714D02*
X56541961Y-14378095D01*
X56541961Y-14378095D02*
X56494342Y-14378095D01*
X56494342Y-14378095D02*
X56399104Y-14425714D01*
X56399104Y-14425714D02*
X56351485Y-14520952D01*
X56351485Y-14520952D02*
X56351485Y-14663809D01*
X56351485Y-14663809D02*
X56303866Y-14759047D01*
X56303866Y-14759047D02*
X56208628Y-14806666D01*
X56208628Y-14806666D02*
X56161009Y-14806666D01*
X56161009Y-14806666D02*
X56065771Y-14759047D01*
X56065771Y-14759047D02*
X56018152Y-14663809D01*
X56018152Y-14663809D02*
X56018152Y-14520952D01*
X56018152Y-14520952D02*
X56065771Y-14425714D01*
X56637200Y-13235237D02*
X56684819Y-13139999D01*
X56684819Y-13139999D02*
X56684819Y-12949523D01*
X56684819Y-12949523D02*
X56637200Y-12854285D01*
X56637200Y-12854285D02*
X56541961Y-12806666D01*
X56541961Y-12806666D02*
X56494342Y-12806666D01*
X56494342Y-12806666D02*
X56399104Y-12854285D01*
X56399104Y-12854285D02*
X56351485Y-12949523D01*
X56351485Y-12949523D02*
X56351485Y-13092380D01*
X56351485Y-13092380D02*
X56303866Y-13187618D01*
X56303866Y-13187618D02*
X56208628Y-13235237D01*
X56208628Y-13235237D02*
X56161009Y-13235237D01*
X56161009Y-13235237D02*
X56065771Y-13187618D01*
X56065771Y-13187618D02*
X56018152Y-13092380D01*
X56018152Y-13092380D02*
X56018152Y-12949523D01*
X56018152Y-12949523D02*
X56065771Y-12854285D01*
X56684819Y-12378094D02*
X55684819Y-12378094D01*
X56684819Y-11949523D02*
X56161009Y-11949523D01*
X56161009Y-11949523D02*
X56065771Y-11997142D01*
X56065771Y-11997142D02*
X56018152Y-12092380D01*
X56018152Y-12092380D02*
X56018152Y-12235237D01*
X56018152Y-12235237D02*
X56065771Y-12330475D01*
X56065771Y-12330475D02*
X56113390Y-12378094D01*
X56684819Y-11330475D02*
X56637200Y-11425713D01*
X56637200Y-11425713D02*
X56589580Y-11473332D01*
X56589580Y-11473332D02*
X56494342Y-11520951D01*
X56494342Y-11520951D02*
X56208628Y-11520951D01*
X56208628Y-11520951D02*
X56113390Y-11473332D01*
X56113390Y-11473332D02*
X56065771Y-11425713D01*
X56065771Y-11425713D02*
X56018152Y-11330475D01*
X56018152Y-11330475D02*
X56018152Y-11187618D01*
X56018152Y-11187618D02*
X56065771Y-11092380D01*
X56065771Y-11092380D02*
X56113390Y-11044761D01*
X56113390Y-11044761D02*
X56208628Y-10997142D01*
X56208628Y-10997142D02*
X56494342Y-10997142D01*
X56494342Y-10997142D02*
X56589580Y-11044761D01*
X56589580Y-11044761D02*
X56637200Y-11092380D01*
X56637200Y-11092380D02*
X56684819Y-11187618D01*
X56684819Y-11187618D02*
X56684819Y-11330475D01*
X56018152Y-10663808D02*
X56684819Y-10473332D01*
X56684819Y-10473332D02*
X56208628Y-10282856D01*
X56208628Y-10282856D02*
X56684819Y-10092380D01*
X56684819Y-10092380D02*
X56018152Y-9901904D01*
X56018152Y-9520951D02*
X56684819Y-9520951D01*
X56113390Y-9520951D02*
X56065771Y-9473332D01*
X56065771Y-9473332D02*
X56018152Y-9378094D01*
X56018152Y-9378094D02*
X56018152Y-9235237D01*
X56018152Y-9235237D02*
X56065771Y-9139999D01*
X56065771Y-9139999D02*
X56161009Y-9092380D01*
X56161009Y-9092380D02*
X56684819Y-9092380D01*
X56684819Y-7711427D02*
X56637200Y-7806665D01*
X56637200Y-7806665D02*
X56589580Y-7854284D01*
X56589580Y-7854284D02*
X56494342Y-7901903D01*
X56494342Y-7901903D02*
X56208628Y-7901903D01*
X56208628Y-7901903D02*
X56113390Y-7854284D01*
X56113390Y-7854284D02*
X56065771Y-7806665D01*
X56065771Y-7806665D02*
X56018152Y-7711427D01*
X56018152Y-7711427D02*
X56018152Y-7568570D01*
X56018152Y-7568570D02*
X56065771Y-7473332D01*
X56065771Y-7473332D02*
X56113390Y-7425713D01*
X56113390Y-7425713D02*
X56208628Y-7378094D01*
X56208628Y-7378094D02*
X56494342Y-7378094D01*
X56494342Y-7378094D02*
X56589580Y-7425713D01*
X56589580Y-7425713D02*
X56637200Y-7473332D01*
X56637200Y-7473332D02*
X56684819Y-7568570D01*
X56684819Y-7568570D02*
X56684819Y-7711427D01*
X56018152Y-6949522D02*
X56684819Y-6949522D01*
X56113390Y-6949522D02*
X56065771Y-6901903D01*
X56065771Y-6901903D02*
X56018152Y-6806665D01*
X56018152Y-6806665D02*
X56018152Y-6663808D01*
X56018152Y-6663808D02*
X56065771Y-6568570D01*
X56065771Y-6568570D02*
X56161009Y-6520951D01*
X56161009Y-6520951D02*
X56684819Y-6520951D01*
X56684819Y-5282855D02*
X55684819Y-5282855D01*
X55684819Y-5282855D02*
X55684819Y-5044760D01*
X55684819Y-5044760D02*
X55732438Y-4901903D01*
X55732438Y-4901903D02*
X55827676Y-4806665D01*
X55827676Y-4806665D02*
X55922914Y-4759046D01*
X55922914Y-4759046D02*
X56113390Y-4711427D01*
X56113390Y-4711427D02*
X56256247Y-4711427D01*
X56256247Y-4711427D02*
X56446723Y-4759046D01*
X56446723Y-4759046D02*
X56541961Y-4806665D01*
X56541961Y-4806665D02*
X56637200Y-4901903D01*
X56637200Y-4901903D02*
X56684819Y-5044760D01*
X56684819Y-5044760D02*
X56684819Y-5282855D01*
X56018152Y-4378093D02*
X56684819Y-4187617D01*
X56684819Y-4187617D02*
X56208628Y-3997141D01*
X56208628Y-3997141D02*
X56684819Y-3806665D01*
X56684819Y-3806665D02*
X56018152Y-3616189D01*
X56018152Y-2806665D02*
X56827676Y-2806665D01*
X56827676Y-2806665D02*
X56922914Y-2854284D01*
X56922914Y-2854284D02*
X56970533Y-2901903D01*
X56970533Y-2901903D02*
X57018152Y-2997141D01*
X57018152Y-2997141D02*
X57018152Y-3139998D01*
X57018152Y-3139998D02*
X56970533Y-3235236D01*
X56637200Y-2806665D02*
X56684819Y-2901903D01*
X56684819Y-2901903D02*
X56684819Y-3092379D01*
X56684819Y-3092379D02*
X56637200Y-3187617D01*
X56637200Y-3187617D02*
X56589580Y-3235236D01*
X56589580Y-3235236D02*
X56494342Y-3282855D01*
X56494342Y-3282855D02*
X56208628Y-3282855D01*
X56208628Y-3282855D02*
X56113390Y-3235236D01*
X56113390Y-3235236D02*
X56065771Y-3187617D01*
X56065771Y-3187617D02*
X56018152Y-3092379D01*
X56018152Y-3092379D02*
X56018152Y-2901903D01*
X56018152Y-2901903D02*
X56065771Y-2806665D01*
X56637200Y-2378093D02*
X56684819Y-2282855D01*
X56684819Y-2282855D02*
X56684819Y-2092379D01*
X56684819Y-2092379D02*
X56637200Y-1997141D01*
X56637200Y-1997141D02*
X56541961Y-1949522D01*
X56541961Y-1949522D02*
X56494342Y-1949522D01*
X56494342Y-1949522D02*
X56399104Y-1997141D01*
X56399104Y-1997141D02*
X56351485Y-2092379D01*
X56351485Y-2092379D02*
X56351485Y-2235236D01*
X56351485Y-2235236D02*
X56303866Y-2330474D01*
X56303866Y-2330474D02*
X56208628Y-2378093D01*
X56208628Y-2378093D02*
X56161009Y-2378093D01*
X56161009Y-2378093D02*
X56065771Y-2330474D01*
X56065771Y-2330474D02*
X56018152Y-2235236D01*
X56018152Y-2235236D02*
X56018152Y-2092379D01*
X56018152Y-2092379D02*
X56065771Y-1997141D01*
X56684819Y-616188D02*
X56637200Y-711426D01*
X56637200Y-711426D02*
X56541961Y-759045D01*
X56541961Y-759045D02*
X55684819Y-759045D01*
X56684819Y193336D02*
X56161009Y193336D01*
X56161009Y193336D02*
X56065771Y145717D01*
X56065771Y145717D02*
X56018152Y50479D01*
X56018152Y50479D02*
X56018152Y-139997D01*
X56018152Y-139997D02*
X56065771Y-235235D01*
X56637200Y193336D02*
X56684819Y98098D01*
X56684819Y98098D02*
X56684819Y-139997D01*
X56684819Y-139997D02*
X56637200Y-235235D01*
X56637200Y-235235D02*
X56541961Y-282854D01*
X56541961Y-282854D02*
X56446723Y-282854D01*
X56446723Y-282854D02*
X56351485Y-235235D01*
X56351485Y-235235D02*
X56303866Y-139997D01*
X56303866Y-139997D02*
X56303866Y98098D01*
X56303866Y98098D02*
X56256247Y193336D01*
X56018152Y574289D02*
X56684819Y812384D01*
X56018152Y1050479D02*
X56684819Y812384D01*
X56684819Y812384D02*
X56922914Y717146D01*
X56922914Y717146D02*
X56970533Y669527D01*
X56970533Y669527D02*
X57018152Y574289D01*
X56637200Y1812384D02*
X56684819Y1717146D01*
X56684819Y1717146D02*
X56684819Y1526670D01*
X56684819Y1526670D02*
X56637200Y1431432D01*
X56637200Y1431432D02*
X56541961Y1383813D01*
X56541961Y1383813D02*
X56161009Y1383813D01*
X56161009Y1383813D02*
X56065771Y1431432D01*
X56065771Y1431432D02*
X56018152Y1526670D01*
X56018152Y1526670D02*
X56018152Y1717146D01*
X56018152Y1717146D02*
X56065771Y1812384D01*
X56065771Y1812384D02*
X56161009Y1860003D01*
X56161009Y1860003D02*
X56256247Y1860003D01*
X56256247Y1860003D02*
X56351485Y1383813D01*
X56684819Y2288575D02*
X56018152Y2288575D01*
X56208628Y2288575D02*
X56113390Y2336194D01*
X56113390Y2336194D02*
X56065771Y2383813D01*
X56065771Y2383813D02*
X56018152Y2479051D01*
X56018152Y2479051D02*
X56018152Y2574289D01*
D11*
X60976109Y-20889998D02*
X60476109Y-20889998D01*
X60476109Y-20889998D02*
X60476109Y-20699522D01*
X60476109Y-20699522D02*
X60499919Y-20651903D01*
X60499919Y-20651903D02*
X60523728Y-20628093D01*
X60523728Y-20628093D02*
X60571347Y-20604284D01*
X60571347Y-20604284D02*
X60642776Y-20604284D01*
X60642776Y-20604284D02*
X60690395Y-20628093D01*
X60690395Y-20628093D02*
X60714204Y-20651903D01*
X60714204Y-20651903D02*
X60738014Y-20699522D01*
X60738014Y-20699522D02*
X60738014Y-20889998D01*
X60928490Y-20104284D02*
X60952300Y-20128093D01*
X60952300Y-20128093D02*
X60976109Y-20199522D01*
X60976109Y-20199522D02*
X60976109Y-20247141D01*
X60976109Y-20247141D02*
X60952300Y-20318569D01*
X60952300Y-20318569D02*
X60904680Y-20366188D01*
X60904680Y-20366188D02*
X60857061Y-20389998D01*
X60857061Y-20389998D02*
X60761823Y-20413807D01*
X60761823Y-20413807D02*
X60690395Y-20413807D01*
X60690395Y-20413807D02*
X60595157Y-20389998D01*
X60595157Y-20389998D02*
X60547538Y-20366188D01*
X60547538Y-20366188D02*
X60499919Y-20318569D01*
X60499919Y-20318569D02*
X60476109Y-20247141D01*
X60476109Y-20247141D02*
X60476109Y-20199522D01*
X60476109Y-20199522D02*
X60499919Y-20128093D01*
X60499919Y-20128093D02*
X60523728Y-20104284D01*
X60714204Y-19723331D02*
X60738014Y-19651903D01*
X60738014Y-19651903D02*
X60761823Y-19628093D01*
X60761823Y-19628093D02*
X60809442Y-19604284D01*
X60809442Y-19604284D02*
X60880871Y-19604284D01*
X60880871Y-19604284D02*
X60928490Y-19628093D01*
X60928490Y-19628093D02*
X60952300Y-19651903D01*
X60952300Y-19651903D02*
X60976109Y-19699522D01*
X60976109Y-19699522D02*
X60976109Y-19889998D01*
X60976109Y-19889998D02*
X60476109Y-19889998D01*
X60476109Y-19889998D02*
X60476109Y-19723331D01*
X60476109Y-19723331D02*
X60499919Y-19675712D01*
X60499919Y-19675712D02*
X60523728Y-19651903D01*
X60523728Y-19651903D02*
X60571347Y-19628093D01*
X60571347Y-19628093D02*
X60618966Y-19628093D01*
X60618966Y-19628093D02*
X60666585Y-19651903D01*
X60666585Y-19651903D02*
X60690395Y-19675712D01*
X60690395Y-19675712D02*
X60714204Y-19723331D01*
X60714204Y-19723331D02*
X60714204Y-19889998D01*
X60476109Y-19080474D02*
X60476109Y-18794760D01*
X60976109Y-18937617D02*
X60476109Y-18937617D01*
X60976109Y-18628094D02*
X60476109Y-18628094D01*
X60976109Y-18413808D02*
X60714204Y-18413808D01*
X60714204Y-18413808D02*
X60666585Y-18437618D01*
X60666585Y-18437618D02*
X60642776Y-18485237D01*
X60642776Y-18485237D02*
X60642776Y-18556665D01*
X60642776Y-18556665D02*
X60666585Y-18604284D01*
X60666585Y-18604284D02*
X60690395Y-18628094D01*
X60976109Y-18175713D02*
X60642776Y-18175713D01*
X60476109Y-18175713D02*
X60499919Y-18199522D01*
X60499919Y-18199522D02*
X60523728Y-18175713D01*
X60523728Y-18175713D02*
X60499919Y-18151903D01*
X60499919Y-18151903D02*
X60476109Y-18175713D01*
X60476109Y-18175713D02*
X60523728Y-18175713D01*
X60952300Y-17723332D02*
X60976109Y-17770951D01*
X60976109Y-17770951D02*
X60976109Y-17866189D01*
X60976109Y-17866189D02*
X60952300Y-17913808D01*
X60952300Y-17913808D02*
X60928490Y-17937618D01*
X60928490Y-17937618D02*
X60880871Y-17961427D01*
X60880871Y-17961427D02*
X60738014Y-17961427D01*
X60738014Y-17961427D02*
X60690395Y-17937618D01*
X60690395Y-17937618D02*
X60666585Y-17913808D01*
X60666585Y-17913808D02*
X60642776Y-17866189D01*
X60642776Y-17866189D02*
X60642776Y-17770951D01*
X60642776Y-17770951D02*
X60666585Y-17723332D01*
X60976109Y-17509047D02*
X60476109Y-17509047D01*
X60785633Y-17461428D02*
X60976109Y-17318571D01*
X60642776Y-17318571D02*
X60833252Y-17509047D01*
X60642776Y-17104285D02*
X60976109Y-17104285D01*
X60690395Y-17104285D02*
X60666585Y-17080475D01*
X60666585Y-17080475D02*
X60642776Y-17032856D01*
X60642776Y-17032856D02*
X60642776Y-16961428D01*
X60642776Y-16961428D02*
X60666585Y-16913809D01*
X60666585Y-16913809D02*
X60714204Y-16889999D01*
X60714204Y-16889999D02*
X60976109Y-16889999D01*
X60952300Y-16461428D02*
X60976109Y-16509047D01*
X60976109Y-16509047D02*
X60976109Y-16604285D01*
X60976109Y-16604285D02*
X60952300Y-16651904D01*
X60952300Y-16651904D02*
X60904680Y-16675713D01*
X60904680Y-16675713D02*
X60714204Y-16675713D01*
X60714204Y-16675713D02*
X60666585Y-16651904D01*
X60666585Y-16651904D02*
X60642776Y-16604285D01*
X60642776Y-16604285D02*
X60642776Y-16509047D01*
X60642776Y-16509047D02*
X60666585Y-16461428D01*
X60666585Y-16461428D02*
X60714204Y-16437618D01*
X60714204Y-16437618D02*
X60761823Y-16437618D01*
X60761823Y-16437618D02*
X60809442Y-16675713D01*
X60952300Y-16247142D02*
X60976109Y-16199523D01*
X60976109Y-16199523D02*
X60976109Y-16104285D01*
X60976109Y-16104285D02*
X60952300Y-16056666D01*
X60952300Y-16056666D02*
X60904680Y-16032857D01*
X60904680Y-16032857D02*
X60880871Y-16032857D01*
X60880871Y-16032857D02*
X60833252Y-16056666D01*
X60833252Y-16056666D02*
X60809442Y-16104285D01*
X60809442Y-16104285D02*
X60809442Y-16175714D01*
X60809442Y-16175714D02*
X60785633Y-16223333D01*
X60785633Y-16223333D02*
X60738014Y-16247142D01*
X60738014Y-16247142D02*
X60714204Y-16247142D01*
X60714204Y-16247142D02*
X60666585Y-16223333D01*
X60666585Y-16223333D02*
X60642776Y-16175714D01*
X60642776Y-16175714D02*
X60642776Y-16104285D01*
X60642776Y-16104285D02*
X60666585Y-16056666D01*
X60952300Y-15842380D02*
X60976109Y-15794761D01*
X60976109Y-15794761D02*
X60976109Y-15699523D01*
X60976109Y-15699523D02*
X60952300Y-15651904D01*
X60952300Y-15651904D02*
X60904680Y-15628095D01*
X60904680Y-15628095D02*
X60880871Y-15628095D01*
X60880871Y-15628095D02*
X60833252Y-15651904D01*
X60833252Y-15651904D02*
X60809442Y-15699523D01*
X60809442Y-15699523D02*
X60809442Y-15770952D01*
X60809442Y-15770952D02*
X60785633Y-15818571D01*
X60785633Y-15818571D02*
X60738014Y-15842380D01*
X60738014Y-15842380D02*
X60714204Y-15842380D01*
X60714204Y-15842380D02*
X60666585Y-15818571D01*
X60666585Y-15818571D02*
X60642776Y-15770952D01*
X60642776Y-15770952D02*
X60642776Y-15699523D01*
X60642776Y-15699523D02*
X60666585Y-15651904D01*
X60976109Y-14770952D02*
X60976109Y-15056666D01*
X60976109Y-14913809D02*
X60476109Y-14913809D01*
X60476109Y-14913809D02*
X60547538Y-14961428D01*
X60547538Y-14961428D02*
X60595157Y-15009047D01*
X60595157Y-15009047D02*
X60618966Y-15056666D01*
X60928490Y-14556667D02*
X60952300Y-14532857D01*
X60952300Y-14532857D02*
X60976109Y-14556667D01*
X60976109Y-14556667D02*
X60952300Y-14580476D01*
X60952300Y-14580476D02*
X60928490Y-14556667D01*
X60928490Y-14556667D02*
X60976109Y-14556667D01*
X60476109Y-14080477D02*
X60476109Y-14318572D01*
X60476109Y-14318572D02*
X60714204Y-14342381D01*
X60714204Y-14342381D02*
X60690395Y-14318572D01*
X60690395Y-14318572D02*
X60666585Y-14270953D01*
X60666585Y-14270953D02*
X60666585Y-14151905D01*
X60666585Y-14151905D02*
X60690395Y-14104286D01*
X60690395Y-14104286D02*
X60714204Y-14080477D01*
X60714204Y-14080477D02*
X60761823Y-14056667D01*
X60761823Y-14056667D02*
X60880871Y-14056667D01*
X60880871Y-14056667D02*
X60928490Y-14080477D01*
X60928490Y-14080477D02*
X60952300Y-14104286D01*
X60952300Y-14104286D02*
X60976109Y-14151905D01*
X60976109Y-14151905D02*
X60976109Y-14270953D01*
X60976109Y-14270953D02*
X60952300Y-14318572D01*
X60952300Y-14318572D02*
X60928490Y-14342381D01*
X60476109Y-13890001D02*
X60476109Y-13556668D01*
X60476109Y-13556668D02*
X60976109Y-13770953D01*
X60976109Y-12985240D02*
X60642776Y-12985240D01*
X60690395Y-12985240D02*
X60666585Y-12961430D01*
X60666585Y-12961430D02*
X60642776Y-12913811D01*
X60642776Y-12913811D02*
X60642776Y-12842383D01*
X60642776Y-12842383D02*
X60666585Y-12794764D01*
X60666585Y-12794764D02*
X60714204Y-12770954D01*
X60714204Y-12770954D02*
X60976109Y-12770954D01*
X60714204Y-12770954D02*
X60666585Y-12747145D01*
X60666585Y-12747145D02*
X60642776Y-12699526D01*
X60642776Y-12699526D02*
X60642776Y-12628097D01*
X60642776Y-12628097D02*
X60666585Y-12580478D01*
X60666585Y-12580478D02*
X60714204Y-12556668D01*
X60714204Y-12556668D02*
X60976109Y-12556668D01*
X60976109Y-12318573D02*
X60642776Y-12318573D01*
X60690395Y-12318573D02*
X60666585Y-12294763D01*
X60666585Y-12294763D02*
X60642776Y-12247144D01*
X60642776Y-12247144D02*
X60642776Y-12175716D01*
X60642776Y-12175716D02*
X60666585Y-12128097D01*
X60666585Y-12128097D02*
X60714204Y-12104287D01*
X60714204Y-12104287D02*
X60976109Y-12104287D01*
X60714204Y-12104287D02*
X60666585Y-12080478D01*
X60666585Y-12080478D02*
X60642776Y-12032859D01*
X60642776Y-12032859D02*
X60642776Y-11961430D01*
X60642776Y-11961430D02*
X60666585Y-11913811D01*
X60666585Y-11913811D02*
X60714204Y-11890001D01*
X60714204Y-11890001D02*
X60976109Y-11890001D01*
M02*
