%TF.GenerationSoftware,KiCad,Pcbnew,8.0.3*%
%TF.CreationDate,2024-06-27T21:13:00-04:00*%
%TF.ProjectId,pi-pico-mgmt-module,70692d70-6963-46f2-9d6d-676d742d6d6f,rev?*%
%TF.SameCoordinates,Original*%
%TF.FileFunction,Copper,L2,Bot*%
%TF.FilePolarity,Positive*%
%FSLAX46Y46*%
G04 Gerber Fmt 4.6, Leading zero omitted, Abs format (unit mm)*
G04 Created by KiCad (PCBNEW 8.0.3) date 2024-06-27 21:13:00*
%MOMM*%
%LPD*%
G01*
G04 APERTURE LIST*
G04 Aperture macros list*
%AMRoundRect*
0 Rectangle with rounded corners*
0 $1 Rounding radius*
0 $2 $3 $4 $5 $6 $7 $8 $9 X,Y pos of 4 corners*
0 Add a 4 corners polygon primitive as box body*
4,1,4,$2,$3,$4,$5,$6,$7,$8,$9,$2,$3,0*
0 Add four circle primitives for the rounded corners*
1,1,$1+$1,$2,$3*
1,1,$1+$1,$4,$5*
1,1,$1+$1,$6,$7*
1,1,$1+$1,$8,$9*
0 Add four rect primitives between the rounded corners*
20,1,$1+$1,$2,$3,$4,$5,0*
20,1,$1+$1,$4,$5,$6,$7,0*
20,1,$1+$1,$6,$7,$8,$9,0*
20,1,$1+$1,$8,$9,$2,$3,0*%
G04 Aperture macros list end*
%TA.AperFunction,ConnectorPad*%
%ADD10R,3.200000X0.700000*%
%TD*%
%TA.AperFunction,ConnectorPad*%
%ADD11R,4.300000X0.700000*%
%TD*%
%TA.AperFunction,SMDPad,CuDef*%
%ADD12RoundRect,0.250000X0.262500X0.450000X-0.262500X0.450000X-0.262500X-0.450000X0.262500X-0.450000X0*%
%TD*%
%TA.AperFunction,ViaPad*%
%ADD13C,0.600000*%
%TD*%
%TA.AperFunction,Conductor*%
%ADD14C,0.200000*%
%TD*%
%TA.AperFunction,Conductor*%
%ADD15C,0.400000*%
%TD*%
G04 APERTURE END LIST*
D10*
%TO.P,J1,A1,~{PRSNT1}*%
%TO.N,unconnected-(J1-~{PRSNT1}-PadA1)*%
X57400000Y-21390000D03*
D11*
%TO.P,J1,A2,+12V*%
%TO.N,VIN*%
X57950000Y-20390000D03*
%TO.P,J1,A3,+12V*%
X57950000Y-19390000D03*
%TO.P,J1,A4,GND*%
%TO.N,GND*%
X57950000Y-18390000D03*
%TO.P,J1,A5,JTAG2*%
%TO.N,OVERLOAD*%
X57950000Y-17390000D03*
%TO.P,J1,A6,JTAG3*%
%TO.N,unconnected-(J1-JTAG3-PadA6)*%
X57950000Y-16390000D03*
%TO.P,J1,A7,JTAG4*%
%TO.N,unconnected-(J1-JTAG4-PadA7)*%
X57950000Y-15390000D03*
%TO.P,J1,A8,JTAG5*%
%TO.N,unconnected-(J1-JTAG5-PadA8)*%
X57950000Y-14390000D03*
%TO.P,J1,A9,+3.3V*%
%TO.N,+5V*%
X57950000Y-13390000D03*
%TO.P,J1,A10,+3.3V*%
X57950000Y-12390000D03*
%TO.P,J1,A11,~{PERST}*%
%TO.N,unconnected-(J1-~{PERST}-PadA11)*%
X57950000Y-11390000D03*
%TO.P,J1,A12,GND*%
%TO.N,GND*%
X57950000Y-8390000D03*
%TO.P,J1,A13,REFCLK+*%
%TO.N,unconnected-(J1-REFCLK+-PadA13)*%
X57950000Y-7390000D03*
%TO.P,J1,A14,REFCLK-*%
%TO.N,unconnected-(J1-REFCLK--PadA14)*%
X57950000Y-6390000D03*
%TO.P,J1,A15,GND*%
%TO.N,GND*%
X57950000Y-5390000D03*
%TO.P,J1,A16,PERp0*%
%TO.N,unconnected-(J1-PERp0-PadA16)*%
X57950000Y-4390000D03*
%TO.P,J1,A17,PERn0*%
%TO.N,unconnected-(J1-PERn0-PadA17)*%
X57950000Y-3390000D03*
%TO.P,J1,A18,GND*%
%TO.N,GND*%
X57950000Y-2390000D03*
%TD*%
D12*
%TO.P,R1,1*%
%TO.N,VIN*%
X30212500Y-18900000D03*
%TO.P,R1,2*%
%TO.N,Net-(U1-GPIO26_ADC0)*%
X28387500Y-18900000D03*
%TD*%
%TO.P,R2,1*%
%TO.N,Net-(U1-GPIO26_ADC0)*%
X26212500Y-18900000D03*
%TO.P,R2,2*%
%TO.N,GND*%
X24387500Y-18900000D03*
%TD*%
D13*
%TO.N,I2C_RESET*%
X39300000Y-16670000D03*
X32590000Y-16670000D03*
%TO.N,+5V*%
X55110000Y-14390000D03*
X50160000Y-19340000D03*
%TO.N,SCL*%
X49690000Y-6390000D03*
X53000000Y-6390000D03*
%TO.N,VIN*%
X54960000Y-20390000D03*
%TO.N,GND*%
X10000000Y-17000000D03*
X51170000Y-4740000D03*
X40000000Y-8000000D03*
X10000000Y-7000000D03*
X55100000Y-18400000D03*
X40000000Y-16000000D03*
X55100000Y-15600000D03*
X52360000Y-7130000D03*
%TO.N,I2C_A2*%
X54700000Y-5400000D03*
X41100000Y-5350000D03*
%TO.N,VDD*%
X40000000Y-19780000D03*
X41780000Y-16270000D03*
%TO.N,OVERLOAD*%
X43830000Y-19180000D03*
%TO.N,Net-(U1-GPIO26_ADC0)*%
X27300000Y-19800000D03*
%TD*%
D14*
%TO.N,I2C_RESET*%
X32590000Y-16670000D02*
X39300000Y-16670000D01*
%TO.N,+5V*%
X55110000Y-12890000D02*
X55110000Y-14390000D01*
X55610000Y-12390000D02*
X55110000Y-12890000D01*
X50160000Y-19340000D02*
X55110000Y-14390000D01*
X55110000Y-13390000D02*
X55110000Y-14390000D01*
X57950000Y-13390000D02*
X55110000Y-13390000D01*
X57950000Y-12390000D02*
X55610000Y-12390000D01*
%TO.N,SCL*%
X53000000Y-6390000D02*
X49690000Y-6390000D01*
%TO.N,VIN*%
X32872500Y-21560000D02*
X30212500Y-18900000D01*
X54960000Y-20390000D02*
X55960000Y-19390000D01*
X54960000Y-20390000D02*
X52480000Y-20390000D01*
X55960000Y-19390000D02*
X57950000Y-19390000D01*
X52480000Y-20390000D02*
X51310000Y-21560000D01*
X57950000Y-20390000D02*
X54960000Y-20390000D01*
X51310000Y-21560000D02*
X32872500Y-21560000D01*
%TO.N,I2C_A2*%
X41100000Y-5350000D02*
X41150000Y-5400000D01*
X41150000Y-5400000D02*
X54700000Y-5400000D01*
%TO.N,VDD*%
X40000000Y-18050000D02*
X41780000Y-16270000D01*
X40000000Y-19780000D02*
X40000000Y-18050000D01*
%TO.N,OVERLOAD*%
X50980000Y-20570000D02*
X54160000Y-17390000D01*
X45220000Y-20570000D02*
X50980000Y-20570000D01*
X43830000Y-19180000D02*
X45220000Y-20570000D01*
X54160000Y-17390000D02*
X57950000Y-17390000D01*
D15*
%TO.N,Net-(U1-GPIO26_ADC0)*%
X28387500Y-18900000D02*
X28200000Y-18900000D01*
X26212500Y-18900000D02*
X26400000Y-18900000D01*
X26400000Y-18900000D02*
X27300000Y-19800000D01*
X28200000Y-18900000D02*
X27300000Y-19800000D01*
%TD*%
%TA.AperFunction,Conductor*%
%TO.N,GND*%
G36*
X52442539Y-520185D02*
G01*
X52488294Y-572989D01*
X52499500Y-624500D01*
X52499500Y-1805891D01*
X52533608Y-1933187D01*
X52566554Y-1990250D01*
X52599500Y-2047314D01*
X52692686Y-2140500D01*
X52806814Y-2206392D01*
X52934108Y-2240500D01*
X52934110Y-2240500D01*
X55876000Y-2240500D01*
X55943039Y-2260185D01*
X55988794Y-2312989D01*
X56000000Y-2364500D01*
X56000000Y-2715500D01*
X55980315Y-2782539D01*
X55927511Y-2828294D01*
X55876000Y-2839500D01*
X55780247Y-2839500D01*
X55721770Y-2851131D01*
X55721769Y-2851132D01*
X55655447Y-2895447D01*
X55611132Y-2961769D01*
X55611131Y-2961770D01*
X55599500Y-3020247D01*
X55599500Y-3759752D01*
X55611131Y-3818229D01*
X55611132Y-3818231D01*
X55613058Y-3821113D01*
X55615322Y-3828344D01*
X55615806Y-3829513D01*
X55615701Y-3829556D01*
X55633933Y-3887791D01*
X55615446Y-3955171D01*
X55613058Y-3958887D01*
X55611132Y-3961768D01*
X55611131Y-3961770D01*
X55599500Y-4020247D01*
X55599500Y-4759752D01*
X55611131Y-4818229D01*
X55611132Y-4818230D01*
X55655447Y-4884552D01*
X55721769Y-4928867D01*
X55721770Y-4928868D01*
X55780247Y-4940499D01*
X55780250Y-4940500D01*
X55876000Y-4940500D01*
X55943039Y-4960185D01*
X55988794Y-5012989D01*
X56000000Y-5064500D01*
X56000000Y-5715500D01*
X55980315Y-5782539D01*
X55927511Y-5828294D01*
X55876000Y-5839500D01*
X55780247Y-5839500D01*
X55721770Y-5851131D01*
X55721769Y-5851132D01*
X55655447Y-5895447D01*
X55611132Y-5961769D01*
X55611131Y-5961770D01*
X55599500Y-6020247D01*
X55599500Y-6759752D01*
X55611131Y-6818229D01*
X55611132Y-6818231D01*
X55613058Y-6821113D01*
X55615322Y-6828344D01*
X55615806Y-6829513D01*
X55615701Y-6829556D01*
X55633933Y-6887791D01*
X55615446Y-6955171D01*
X55613058Y-6958887D01*
X55611132Y-6961768D01*
X55611131Y-6961770D01*
X55599500Y-7020247D01*
X55599500Y-7759752D01*
X55611131Y-7818229D01*
X55611132Y-7818230D01*
X55655447Y-7884552D01*
X55721769Y-7928867D01*
X55721770Y-7928868D01*
X55780247Y-7940499D01*
X55780250Y-7940500D01*
X55876000Y-7940500D01*
X55943039Y-7960185D01*
X55988794Y-8012989D01*
X56000000Y-8064500D01*
X56000000Y-8315500D01*
X55980315Y-8382539D01*
X55927511Y-8428294D01*
X55876000Y-8439500D01*
X53835838Y-8439500D01*
X53610339Y-8475215D01*
X53393196Y-8545770D01*
X53189771Y-8649421D01*
X53005061Y-8783622D01*
X52843622Y-8945061D01*
X52709421Y-9129771D01*
X52605770Y-9333196D01*
X52535215Y-9550339D01*
X52499500Y-9775837D01*
X52499500Y-10004162D01*
X52535215Y-10229660D01*
X52605770Y-10446803D01*
X52672136Y-10577052D01*
X52709421Y-10650228D01*
X52843621Y-10834937D01*
X53005063Y-10996379D01*
X53189772Y-11130579D01*
X53285884Y-11179550D01*
X53393196Y-11234229D01*
X53393198Y-11234229D01*
X53393201Y-11234231D01*
X53509592Y-11272049D01*
X53610339Y-11304784D01*
X53835838Y-11340500D01*
X53835843Y-11340500D01*
X53884108Y-11340500D01*
X55475500Y-11340500D01*
X55542539Y-11360185D01*
X55588294Y-11412989D01*
X55599500Y-11464500D01*
X55599500Y-11759752D01*
X55611131Y-11818229D01*
X55611132Y-11818231D01*
X55613058Y-11821113D01*
X55615322Y-11828344D01*
X55615806Y-11829513D01*
X55615701Y-11829556D01*
X55633933Y-11887791D01*
X55615446Y-11955171D01*
X55613058Y-11958887D01*
X55611132Y-11961768D01*
X55611132Y-11961769D01*
X55601628Y-12009548D01*
X55569242Y-12071458D01*
X55512107Y-12105129D01*
X55494012Y-12109977D01*
X55425489Y-12149540D01*
X55425486Y-12149542D01*
X54869541Y-12705487D01*
X54869535Y-12705495D01*
X54829982Y-12774004D01*
X54829979Y-12774009D01*
X54809500Y-12850439D01*
X54809500Y-13926260D01*
X54789815Y-13993299D01*
X54779213Y-14007462D01*
X54684625Y-14116622D01*
X54684622Y-14116628D01*
X54624834Y-14247543D01*
X54604353Y-14390000D01*
X54604353Y-14390001D01*
X54605661Y-14399103D01*
X54595713Y-14468261D01*
X54570603Y-14504424D01*
X50271847Y-18803181D01*
X50210524Y-18836666D01*
X50184166Y-18839500D01*
X50088036Y-18839500D01*
X49949949Y-18880045D01*
X49828873Y-18957856D01*
X49734623Y-19066626D01*
X49734622Y-19066628D01*
X49674834Y-19197543D01*
X49654353Y-19340000D01*
X49674834Y-19482456D01*
X49711227Y-19562143D01*
X49734623Y-19613373D01*
X49828872Y-19722143D01*
X49949947Y-19799953D01*
X49949950Y-19799954D01*
X49949949Y-19799954D01*
X50088036Y-19840499D01*
X50088038Y-19840500D01*
X50088039Y-19840500D01*
X50231962Y-19840500D01*
X50231962Y-19840499D01*
X50370053Y-19799953D01*
X50491128Y-19722143D01*
X50585377Y-19613373D01*
X50645165Y-19482457D01*
X50665647Y-19340000D01*
X50664339Y-19330905D01*
X50674279Y-19261749D01*
X50699392Y-19225577D01*
X54998151Y-14926819D01*
X55059474Y-14893334D01*
X55085832Y-14890500D01*
X55181962Y-14890500D01*
X55181962Y-14890499D01*
X55320050Y-14849954D01*
X55320051Y-14849954D01*
X55320053Y-14849953D01*
X55436048Y-14775407D01*
X55503087Y-14755723D01*
X55570126Y-14775407D01*
X55606193Y-14810838D01*
X55613059Y-14821115D01*
X55633933Y-14887794D01*
X55615445Y-14955173D01*
X55613058Y-14958887D01*
X55611132Y-14961768D01*
X55611131Y-14961770D01*
X55599500Y-15020247D01*
X55599500Y-15759752D01*
X55611131Y-15818229D01*
X55611132Y-15818231D01*
X55613058Y-15821113D01*
X55615322Y-15828344D01*
X55615806Y-15829513D01*
X55615701Y-15829556D01*
X55633933Y-15887791D01*
X55615446Y-15955171D01*
X55613058Y-15958887D01*
X55611132Y-15961768D01*
X55611131Y-15961770D01*
X55599500Y-16020247D01*
X55599500Y-16759752D01*
X55611131Y-16818229D01*
X55611132Y-16818231D01*
X55613058Y-16821113D01*
X55615322Y-16828344D01*
X55615806Y-16829513D01*
X55615701Y-16829556D01*
X55633933Y-16887791D01*
X55615446Y-16955171D01*
X55613058Y-16958887D01*
X55611132Y-16961768D01*
X55611132Y-16961770D01*
X55605578Y-16989692D01*
X55573193Y-17051603D01*
X55512477Y-17086177D01*
X55483961Y-17089500D01*
X54120438Y-17089500D01*
X54073663Y-17102033D01*
X54044006Y-17109980D01*
X54044005Y-17109981D01*
X54009416Y-17129952D01*
X54009415Y-17129953D01*
X53999335Y-17135772D01*
X53975489Y-17149539D01*
X53975487Y-17149541D01*
X50891848Y-20233181D01*
X50830525Y-20266666D01*
X50804167Y-20269500D01*
X45395833Y-20269500D01*
X45328794Y-20249815D01*
X45308152Y-20233181D01*
X44369395Y-19294424D01*
X44335910Y-19233101D01*
X44334339Y-19189094D01*
X44335647Y-19180000D01*
X44315165Y-19037543D01*
X44255377Y-18906627D01*
X44161128Y-18797857D01*
X44040053Y-18720047D01*
X44040051Y-18720046D01*
X44040049Y-18720045D01*
X44040050Y-18720045D01*
X43901963Y-18679500D01*
X43901961Y-18679500D01*
X43758039Y-18679500D01*
X43758036Y-18679500D01*
X43619949Y-18720045D01*
X43498873Y-18797856D01*
X43404623Y-18906626D01*
X43404622Y-18906628D01*
X43344834Y-19037543D01*
X43324353Y-19180000D01*
X43344834Y-19322456D01*
X43396095Y-19434699D01*
X43404623Y-19453373D01*
X43498872Y-19562143D01*
X43619947Y-19639953D01*
X43619950Y-19639954D01*
X43619949Y-19639954D01*
X43727107Y-19671417D01*
X43755280Y-19679690D01*
X43758036Y-19680499D01*
X43758038Y-19680500D01*
X43854167Y-19680500D01*
X43921206Y-19700185D01*
X43941848Y-19716819D01*
X44979540Y-20754511D01*
X45035489Y-20810460D01*
X45035491Y-20810461D01*
X45035495Y-20810464D01*
X45068564Y-20829556D01*
X45104011Y-20850021D01*
X45180438Y-20870500D01*
X45180440Y-20870500D01*
X51019560Y-20870500D01*
X51019562Y-20870500D01*
X51095989Y-20850021D01*
X51164511Y-20810460D01*
X51220460Y-20754511D01*
X54248152Y-17726819D01*
X54309475Y-17693334D01*
X54335833Y-17690500D01*
X55483961Y-17690500D01*
X55551000Y-17710185D01*
X55596755Y-17762989D01*
X55605578Y-17790308D01*
X55611132Y-17818229D01*
X55611132Y-17818230D01*
X55655447Y-17884552D01*
X55721769Y-17928867D01*
X55721770Y-17928868D01*
X55780247Y-17940499D01*
X55780250Y-17940500D01*
X55876000Y-17940500D01*
X55943039Y-17960185D01*
X55988794Y-18012989D01*
X56000000Y-18064500D01*
X56000000Y-18715500D01*
X55980315Y-18782539D01*
X55927511Y-18828294D01*
X55876000Y-18839500D01*
X55780247Y-18839500D01*
X55721770Y-18851131D01*
X55721769Y-18851132D01*
X55655447Y-18895447D01*
X55611132Y-18961769D01*
X55611131Y-18961770D01*
X55599500Y-19020247D01*
X55599500Y-19274166D01*
X55579815Y-19341205D01*
X55563181Y-19361847D01*
X55071847Y-19853181D01*
X55010524Y-19886666D01*
X54984166Y-19889500D01*
X54888036Y-19889500D01*
X54749949Y-19930045D01*
X54628873Y-20007856D01*
X54595212Y-20046703D01*
X54536433Y-20084477D01*
X54501499Y-20089500D01*
X52440438Y-20089500D01*
X52389486Y-20103152D01*
X52364010Y-20109979D01*
X52345823Y-20120480D01*
X52345822Y-20120480D01*
X52295492Y-20149537D01*
X52295487Y-20149541D01*
X51221848Y-21223181D01*
X51160525Y-21256666D01*
X51134167Y-21259500D01*
X33048333Y-21259500D01*
X32981294Y-21239815D01*
X32960652Y-21223181D01*
X31517471Y-19780000D01*
X39494353Y-19780000D01*
X39514834Y-19922456D01*
X39532788Y-19961769D01*
X39574623Y-20053373D01*
X39668872Y-20162143D01*
X39789947Y-20239953D01*
X39789950Y-20239954D01*
X39789949Y-20239954D01*
X39928036Y-20280499D01*
X39928038Y-20280500D01*
X39928039Y-20280500D01*
X40071962Y-20280500D01*
X40071962Y-20280499D01*
X40210053Y-20239953D01*
X40331128Y-20162143D01*
X40425377Y-20053373D01*
X40485165Y-19922457D01*
X40505647Y-19780000D01*
X40485165Y-19637543D01*
X40425377Y-19506627D01*
X40425375Y-19506625D01*
X40425374Y-19506622D01*
X40330787Y-19397462D01*
X40301762Y-19333906D01*
X40300500Y-19316260D01*
X40300500Y-18225832D01*
X40320185Y-18158793D01*
X40336814Y-18138156D01*
X41668151Y-16806818D01*
X41729474Y-16773334D01*
X41755832Y-16770500D01*
X41851962Y-16770500D01*
X41851962Y-16770499D01*
X41990053Y-16729953D01*
X42111128Y-16652143D01*
X42205377Y-16543373D01*
X42265165Y-16412457D01*
X42285647Y-16270000D01*
X42265165Y-16127543D01*
X42205377Y-15996627D01*
X42111128Y-15887857D01*
X41990053Y-15810047D01*
X41990051Y-15810046D01*
X41990049Y-15810045D01*
X41990050Y-15810045D01*
X41851963Y-15769500D01*
X41851961Y-15769500D01*
X41708039Y-15769500D01*
X41708036Y-15769500D01*
X41569949Y-15810045D01*
X41448873Y-15887856D01*
X41354623Y-15996626D01*
X41354622Y-15996628D01*
X41294834Y-16127543D01*
X41274353Y-16270000D01*
X41274353Y-16270001D01*
X41275661Y-16279103D01*
X41265713Y-16348261D01*
X41240603Y-16384424D01*
X39815489Y-17809540D01*
X39759541Y-17865487D01*
X39759535Y-17865495D01*
X39719982Y-17934004D01*
X39719979Y-17934009D01*
X39706326Y-17984962D01*
X39701667Y-18002353D01*
X39699500Y-18010439D01*
X39699500Y-19316260D01*
X39679815Y-19383299D01*
X39669213Y-19397462D01*
X39574625Y-19506622D01*
X39574622Y-19506628D01*
X39514834Y-19637543D01*
X39494353Y-19780000D01*
X31517471Y-19780000D01*
X30961819Y-19224348D01*
X30928334Y-19163025D01*
X30925500Y-19136667D01*
X30925500Y-18395730D01*
X30922646Y-18365300D01*
X30922646Y-18365298D01*
X30877793Y-18237119D01*
X30877792Y-18237117D01*
X30797150Y-18127850D01*
X30687882Y-18047207D01*
X30687880Y-18047206D01*
X30559700Y-18002353D01*
X30529270Y-17999500D01*
X30529266Y-17999500D01*
X29895734Y-17999500D01*
X29895730Y-17999500D01*
X29865300Y-18002353D01*
X29865298Y-18002353D01*
X29737119Y-18047206D01*
X29737117Y-18047207D01*
X29627850Y-18127850D01*
X29547207Y-18237117D01*
X29547206Y-18237119D01*
X29502353Y-18365298D01*
X29502353Y-18365300D01*
X29499500Y-18395730D01*
X29499500Y-19404269D01*
X29502353Y-19434699D01*
X29502353Y-19434701D01*
X29546948Y-19562143D01*
X29547207Y-19562882D01*
X29627850Y-19672150D01*
X29737118Y-19752793D01*
X29772350Y-19765121D01*
X29865299Y-19797646D01*
X29895730Y-19800500D01*
X29895734Y-19800500D01*
X30529270Y-19800500D01*
X30553612Y-19798216D01*
X30559699Y-19797646D01*
X30579107Y-19790855D01*
X30648886Y-19787292D01*
X30707744Y-19820215D01*
X32632040Y-21744511D01*
X32687989Y-21800460D01*
X32687991Y-21800461D01*
X32687995Y-21800464D01*
X32756504Y-21840017D01*
X32756511Y-21840021D01*
X32832938Y-21860500D01*
X32832940Y-21860500D01*
X51349560Y-21860500D01*
X51349562Y-21860500D01*
X51425989Y-21840021D01*
X51494511Y-21800460D01*
X51550460Y-21744511D01*
X52568152Y-20726819D01*
X52629475Y-20693334D01*
X52655833Y-20690500D01*
X54501499Y-20690500D01*
X54568538Y-20710185D01*
X54595211Y-20733296D01*
X54628872Y-20772143D01*
X54749947Y-20849953D01*
X54749950Y-20849954D01*
X54749949Y-20849954D01*
X54819924Y-20870500D01*
X54886336Y-20890000D01*
X54888036Y-20890499D01*
X54888038Y-20890500D01*
X54888039Y-20890500D01*
X55031962Y-20890500D01*
X55031962Y-20890499D01*
X55139121Y-20859035D01*
X55170050Y-20849954D01*
X55170050Y-20849953D01*
X55170053Y-20849953D01*
X55291128Y-20772143D01*
X55324788Y-20733296D01*
X55383567Y-20695523D01*
X55418501Y-20690500D01*
X55483961Y-20690500D01*
X55551000Y-20710185D01*
X55596755Y-20762989D01*
X55605578Y-20790308D01*
X55611132Y-20818229D01*
X55611132Y-20818231D01*
X55613058Y-20821113D01*
X55615322Y-20828344D01*
X55615806Y-20829513D01*
X55615701Y-20829556D01*
X55633933Y-20887791D01*
X55615446Y-20955171D01*
X55613058Y-20958887D01*
X55611132Y-20961768D01*
X55611131Y-20961770D01*
X55599500Y-21020247D01*
X55599500Y-21415500D01*
X55579815Y-21482539D01*
X55527011Y-21528294D01*
X55475500Y-21539500D01*
X52934108Y-21539500D01*
X52806812Y-21573608D01*
X52692686Y-21639500D01*
X52692683Y-21639502D01*
X52599502Y-21732683D01*
X52599500Y-21732686D01*
X52533608Y-21846812D01*
X52499500Y-21974108D01*
X52499500Y-23515500D01*
X52479815Y-23582539D01*
X52427011Y-23628294D01*
X52375500Y-23639500D01*
X624500Y-23639500D01*
X557461Y-23619815D01*
X511706Y-23567011D01*
X500500Y-23515500D01*
X500500Y-18395730D01*
X25499500Y-18395730D01*
X25499500Y-19404269D01*
X25502353Y-19434699D01*
X25502353Y-19434701D01*
X25546948Y-19562143D01*
X25547207Y-19562882D01*
X25627850Y-19672150D01*
X25737118Y-19752793D01*
X25772350Y-19765121D01*
X25865299Y-19797646D01*
X25895730Y-19800500D01*
X25895734Y-19800500D01*
X26529270Y-19800500D01*
X26559699Y-19797646D01*
X26559701Y-19797646D01*
X26613242Y-19778911D01*
X26683021Y-19775348D01*
X26741878Y-19808271D01*
X26775369Y-19841762D01*
X26808854Y-19903085D01*
X26810426Y-19911795D01*
X26814834Y-19942453D01*
X26814835Y-19942458D01*
X26850363Y-20020252D01*
X26874623Y-20073373D01*
X26968872Y-20182143D01*
X27089947Y-20259953D01*
X27089950Y-20259954D01*
X27089949Y-20259954D01*
X27228036Y-20300499D01*
X27228038Y-20300500D01*
X27228039Y-20300500D01*
X27371962Y-20300500D01*
X27371962Y-20300499D01*
X27510053Y-20259953D01*
X27631128Y-20182143D01*
X27725377Y-20073373D01*
X27785165Y-19942457D01*
X27789573Y-19911797D01*
X27818597Y-19848241D01*
X27824616Y-19841775D01*
X27858122Y-19808269D01*
X27919443Y-19774786D01*
X27986755Y-19778910D01*
X28010711Y-19787292D01*
X28040301Y-19797646D01*
X28040300Y-19797646D01*
X28070730Y-19800500D01*
X28070734Y-19800500D01*
X28704270Y-19800500D01*
X28734699Y-19797646D01*
X28734701Y-19797646D01*
X28827650Y-19765121D01*
X28862882Y-19752793D01*
X28972150Y-19672150D01*
X29052793Y-19562882D01*
X29091112Y-19453373D01*
X29097646Y-19434701D01*
X29097646Y-19434699D01*
X29100500Y-19404269D01*
X29100500Y-18395730D01*
X29097646Y-18365300D01*
X29097646Y-18365298D01*
X29052793Y-18237119D01*
X29052792Y-18237117D01*
X28972150Y-18127850D01*
X28862882Y-18047207D01*
X28862880Y-18047206D01*
X28734700Y-18002353D01*
X28704270Y-17999500D01*
X28704266Y-17999500D01*
X28070734Y-17999500D01*
X28070730Y-17999500D01*
X28040300Y-18002353D01*
X28040298Y-18002353D01*
X27912119Y-18047206D01*
X27912117Y-18047207D01*
X27802850Y-18127850D01*
X27722207Y-18237117D01*
X27722206Y-18237119D01*
X27677353Y-18365298D01*
X27677353Y-18365300D01*
X27674500Y-18395730D01*
X27674500Y-18807745D01*
X27654815Y-18874784D01*
X27638181Y-18895426D01*
X27387681Y-19145926D01*
X27326358Y-19179411D01*
X27256666Y-19174427D01*
X27212319Y-19145926D01*
X26961819Y-18895426D01*
X26928334Y-18834103D01*
X26925500Y-18807745D01*
X26925500Y-18395730D01*
X26922646Y-18365300D01*
X26922646Y-18365298D01*
X26877793Y-18237119D01*
X26877792Y-18237117D01*
X26797150Y-18127850D01*
X26687882Y-18047207D01*
X26687880Y-18047206D01*
X26559700Y-18002353D01*
X26529270Y-17999500D01*
X26529266Y-17999500D01*
X25895734Y-17999500D01*
X25895730Y-17999500D01*
X25865300Y-18002353D01*
X25865298Y-18002353D01*
X25737119Y-18047206D01*
X25737117Y-18047207D01*
X25627850Y-18127850D01*
X25547207Y-18237117D01*
X25547206Y-18237119D01*
X25502353Y-18365298D01*
X25502353Y-18365300D01*
X25499500Y-18395730D01*
X500500Y-18395730D01*
X500500Y-16670000D01*
X32084353Y-16670000D01*
X32104834Y-16812456D01*
X32137760Y-16884552D01*
X32164623Y-16943373D01*
X32258872Y-17052143D01*
X32379947Y-17129953D01*
X32379949Y-17129954D01*
X32518036Y-17170499D01*
X32518038Y-17170500D01*
X32518039Y-17170500D01*
X32661962Y-17170500D01*
X32661962Y-17170499D01*
X32800053Y-17129953D01*
X32921128Y-17052143D01*
X32954788Y-17013296D01*
X33013567Y-16975523D01*
X33048501Y-16970500D01*
X38841499Y-16970500D01*
X38908538Y-16990185D01*
X38935211Y-17013296D01*
X38968872Y-17052143D01*
X39089947Y-17129953D01*
X39089949Y-17129954D01*
X39228036Y-17170499D01*
X39228038Y-17170500D01*
X39228039Y-17170500D01*
X39371962Y-17170500D01*
X39371962Y-17170499D01*
X39510053Y-17129953D01*
X39631128Y-17052143D01*
X39725377Y-16943373D01*
X39785165Y-16812457D01*
X39805647Y-16670000D01*
X39785165Y-16527543D01*
X39725377Y-16396627D01*
X39631128Y-16287857D01*
X39510053Y-16210047D01*
X39510051Y-16210046D01*
X39510049Y-16210045D01*
X39510050Y-16210045D01*
X39371963Y-16169500D01*
X39371961Y-16169500D01*
X39228039Y-16169500D01*
X39228036Y-16169500D01*
X39089949Y-16210045D01*
X38968873Y-16287856D01*
X38935212Y-16326703D01*
X38876433Y-16364477D01*
X38841499Y-16369500D01*
X33048501Y-16369500D01*
X32981462Y-16349815D01*
X32954788Y-16326703D01*
X32921128Y-16287857D01*
X32800053Y-16210047D01*
X32800051Y-16210046D01*
X32800049Y-16210045D01*
X32800050Y-16210045D01*
X32661963Y-16169500D01*
X32661961Y-16169500D01*
X32518039Y-16169500D01*
X32518036Y-16169500D01*
X32379949Y-16210045D01*
X32258873Y-16287856D01*
X32164623Y-16396626D01*
X32164622Y-16396628D01*
X32104834Y-16527543D01*
X32084353Y-16670000D01*
X500500Y-16670000D01*
X500500Y-14563543D01*
X45999499Y-14563543D01*
X46037947Y-14756829D01*
X46037950Y-14756839D01*
X46113364Y-14938907D01*
X46113371Y-14938920D01*
X46222860Y-15102781D01*
X46222863Y-15102785D01*
X46362214Y-15242136D01*
X46362218Y-15242139D01*
X46526079Y-15351628D01*
X46526092Y-15351635D01*
X46708160Y-15427049D01*
X46708165Y-15427051D01*
X46708169Y-15427051D01*
X46708170Y-15427052D01*
X46901456Y-15465500D01*
X46901459Y-15465500D01*
X47098543Y-15465500D01*
X47228582Y-15439632D01*
X47291835Y-15427051D01*
X47473914Y-15351632D01*
X47637782Y-15242139D01*
X47777139Y-15102782D01*
X47886632Y-14938914D01*
X47962051Y-14756835D01*
X47978439Y-14674448D01*
X48879500Y-14674448D01*
X48879500Y-14855551D01*
X48907829Y-15034410D01*
X48963787Y-15206636D01*
X48963788Y-15206639D01*
X49046006Y-15367997D01*
X49152441Y-15514494D01*
X49152445Y-15514499D01*
X49280500Y-15642554D01*
X49280505Y-15642558D01*
X49408287Y-15735396D01*
X49427006Y-15748996D01*
X49532484Y-15802740D01*
X49588360Y-15831211D01*
X49588363Y-15831212D01*
X49674476Y-15859191D01*
X49760591Y-15887171D01*
X49843429Y-15900291D01*
X49939449Y-15915500D01*
X49939454Y-15915500D01*
X50120551Y-15915500D01*
X50207259Y-15901765D01*
X50299409Y-15887171D01*
X50471639Y-15831211D01*
X50632994Y-15748996D01*
X50779501Y-15642553D01*
X50907553Y-15514501D01*
X51013996Y-15367994D01*
X51096211Y-15206639D01*
X51152171Y-15034409D01*
X51169212Y-14926819D01*
X51180500Y-14855551D01*
X51180500Y-14674448D01*
X51158010Y-14532457D01*
X51152171Y-14495591D01*
X51096211Y-14323361D01*
X51096211Y-14323360D01*
X51067740Y-14267484D01*
X51013996Y-14162006D01*
X50981027Y-14116628D01*
X50907558Y-14015505D01*
X50907554Y-14015500D01*
X50779499Y-13887445D01*
X50779494Y-13887441D01*
X50632997Y-13781006D01*
X50632996Y-13781005D01*
X50632994Y-13781004D01*
X50581300Y-13754664D01*
X50471639Y-13698788D01*
X50471636Y-13698787D01*
X50299410Y-13642829D01*
X50120551Y-13614500D01*
X50120546Y-13614500D01*
X49939454Y-13614500D01*
X49939449Y-13614500D01*
X49760589Y-13642829D01*
X49588363Y-13698787D01*
X49588360Y-13698788D01*
X49427002Y-13781006D01*
X49280505Y-13887441D01*
X49280500Y-13887445D01*
X49152445Y-14015500D01*
X49152441Y-14015505D01*
X49046006Y-14162002D01*
X48963788Y-14323360D01*
X48963787Y-14323363D01*
X48907829Y-14495589D01*
X48879500Y-14674448D01*
X47978439Y-14674448D01*
X48000500Y-14563541D01*
X48000500Y-14366459D01*
X48000500Y-14366456D01*
X47962052Y-14173170D01*
X47962051Y-14173169D01*
X47962051Y-14173165D01*
X47938633Y-14116628D01*
X47886635Y-13991092D01*
X47886628Y-13991079D01*
X47777139Y-13827218D01*
X47777136Y-13827214D01*
X47637785Y-13687863D01*
X47637781Y-13687860D01*
X47473920Y-13578371D01*
X47473907Y-13578364D01*
X47291839Y-13502950D01*
X47291829Y-13502947D01*
X47098543Y-13464500D01*
X47098541Y-13464500D01*
X46901459Y-13464500D01*
X46901457Y-13464500D01*
X46708170Y-13502947D01*
X46708160Y-13502950D01*
X46526092Y-13578364D01*
X46526079Y-13578371D01*
X46362218Y-13687860D01*
X46362214Y-13687863D01*
X46222863Y-13827214D01*
X46222860Y-13827218D01*
X46113371Y-13991079D01*
X46113364Y-13991092D01*
X46037950Y-14173160D01*
X46037947Y-14173170D01*
X45999500Y-14366456D01*
X45999500Y-14366459D01*
X45999500Y-14563541D01*
X45999500Y-14563543D01*
X45999499Y-14563543D01*
X500500Y-14563543D01*
X500500Y-9713543D01*
X45999499Y-9713543D01*
X46037947Y-9906829D01*
X46037950Y-9906839D01*
X46113364Y-10088907D01*
X46113371Y-10088920D01*
X46222860Y-10252781D01*
X46222863Y-10252785D01*
X46362214Y-10392136D01*
X46362218Y-10392139D01*
X46526079Y-10501628D01*
X46526092Y-10501635D01*
X46708160Y-10577049D01*
X46708165Y-10577051D01*
X46708169Y-10577051D01*
X46708170Y-10577052D01*
X46901456Y-10615500D01*
X46901459Y-10615500D01*
X47098543Y-10615500D01*
X47228582Y-10589632D01*
X47291835Y-10577051D01*
X47473914Y-10501632D01*
X47637782Y-10392139D01*
X47777139Y-10252782D01*
X47886632Y-10088914D01*
X47962051Y-9906835D01*
X47988107Y-9775843D01*
X48000500Y-9713543D01*
X48000500Y-9516456D01*
X47962052Y-9323170D01*
X47962051Y-9323169D01*
X47962051Y-9323165D01*
X47921164Y-9224454D01*
X47921162Y-9224448D01*
X48879500Y-9224448D01*
X48879500Y-9405551D01*
X48907829Y-9584410D01*
X48963787Y-9756636D01*
X48963788Y-9756639D01*
X49019664Y-9866300D01*
X49040320Y-9906839D01*
X49046006Y-9917997D01*
X49152441Y-10064494D01*
X49152445Y-10064499D01*
X49280500Y-10192554D01*
X49280505Y-10192558D01*
X49399866Y-10279278D01*
X49427006Y-10298996D01*
X49532484Y-10352740D01*
X49588360Y-10381211D01*
X49588363Y-10381212D01*
X49621985Y-10392136D01*
X49760591Y-10437171D01*
X49843429Y-10450291D01*
X49939449Y-10465500D01*
X49939454Y-10465500D01*
X50120551Y-10465500D01*
X50207259Y-10451765D01*
X50299409Y-10437171D01*
X50471639Y-10381211D01*
X50632994Y-10298996D01*
X50779501Y-10192553D01*
X50907553Y-10064501D01*
X51013996Y-9917994D01*
X51096211Y-9756639D01*
X51152171Y-9584409D01*
X51174964Y-9440500D01*
X51180500Y-9405551D01*
X51180500Y-9224448D01*
X51164019Y-9120397D01*
X51152171Y-9045591D01*
X51096211Y-8873361D01*
X51096211Y-8873360D01*
X51050486Y-8783621D01*
X51013996Y-8712006D01*
X50971089Y-8652949D01*
X50907558Y-8565505D01*
X50907554Y-8565500D01*
X50779499Y-8437445D01*
X50779494Y-8437441D01*
X50632997Y-8331006D01*
X50632996Y-8331005D01*
X50632994Y-8331004D01*
X50581300Y-8304664D01*
X50471639Y-8248788D01*
X50471636Y-8248787D01*
X50299410Y-8192829D01*
X50120551Y-8164500D01*
X50120546Y-8164500D01*
X49939454Y-8164500D01*
X49939449Y-8164500D01*
X49760589Y-8192829D01*
X49588363Y-8248787D01*
X49588360Y-8248788D01*
X49427002Y-8331006D01*
X49280505Y-8437441D01*
X49280500Y-8437445D01*
X49152445Y-8565500D01*
X49152441Y-8565505D01*
X49046006Y-8712002D01*
X48963788Y-8873360D01*
X48963787Y-8873363D01*
X48907829Y-9045589D01*
X48879500Y-9224448D01*
X47921162Y-9224448D01*
X47886635Y-9141092D01*
X47886628Y-9141079D01*
X47777139Y-8977218D01*
X47777136Y-8977214D01*
X47637785Y-8837863D01*
X47637781Y-8837860D01*
X47473920Y-8728371D01*
X47473907Y-8728364D01*
X47291839Y-8652950D01*
X47291829Y-8652947D01*
X47098543Y-8614500D01*
X47098541Y-8614500D01*
X46901459Y-8614500D01*
X46901457Y-8614500D01*
X46708170Y-8652947D01*
X46708160Y-8652950D01*
X46526092Y-8728364D01*
X46526079Y-8728371D01*
X46362218Y-8837860D01*
X46362214Y-8837863D01*
X46222863Y-8977214D01*
X46222860Y-8977218D01*
X46113371Y-9141079D01*
X46113364Y-9141092D01*
X46037950Y-9323160D01*
X46037947Y-9323170D01*
X45999500Y-9516456D01*
X45999500Y-9516459D01*
X45999500Y-9713541D01*
X45999500Y-9713543D01*
X45999499Y-9713543D01*
X500500Y-9713543D01*
X500500Y-5350000D01*
X40594353Y-5350000D01*
X40614834Y-5492456D01*
X40637669Y-5542456D01*
X40674623Y-5623373D01*
X40768872Y-5732143D01*
X40889947Y-5809953D01*
X40889950Y-5809954D01*
X40889949Y-5809954D01*
X41028036Y-5850499D01*
X41028038Y-5850500D01*
X41028039Y-5850500D01*
X41171962Y-5850500D01*
X41171962Y-5850499D01*
X41310053Y-5809953D01*
X41431128Y-5732143D01*
X41431136Y-5732133D01*
X41432688Y-5730790D01*
X41434572Y-5729929D01*
X41438589Y-5727348D01*
X41438960Y-5727925D01*
X41496243Y-5701763D01*
X41513895Y-5700500D01*
X49414824Y-5700500D01*
X49481863Y-5720185D01*
X49527618Y-5772989D01*
X49537562Y-5842147D01*
X49508537Y-5905703D01*
X49481863Y-5928816D01*
X49479947Y-5930046D01*
X49479947Y-5930047D01*
X49430585Y-5961770D01*
X49358873Y-6007856D01*
X49264623Y-6116626D01*
X49264622Y-6116628D01*
X49204834Y-6247543D01*
X49184353Y-6390000D01*
X49204834Y-6532456D01*
X49264622Y-6663371D01*
X49264623Y-6663373D01*
X49358872Y-6772143D01*
X49479947Y-6849953D01*
X49479950Y-6849954D01*
X49479949Y-6849954D01*
X49587107Y-6881417D01*
X49616336Y-6890000D01*
X49618036Y-6890499D01*
X49618038Y-6890500D01*
X49618039Y-6890500D01*
X49761962Y-6890500D01*
X49761962Y-6890499D01*
X49900053Y-6849953D01*
X50021128Y-6772143D01*
X50054788Y-6733296D01*
X50113567Y-6695523D01*
X50148501Y-6690500D01*
X52541499Y-6690500D01*
X52608538Y-6710185D01*
X52635211Y-6733296D01*
X52668872Y-6772143D01*
X52789947Y-6849953D01*
X52789950Y-6849954D01*
X52789949Y-6849954D01*
X52897107Y-6881417D01*
X52926336Y-6890000D01*
X52928036Y-6890499D01*
X52928038Y-6890500D01*
X52928039Y-6890500D01*
X53071962Y-6890500D01*
X53071962Y-6890499D01*
X53210053Y-6849953D01*
X53331128Y-6772143D01*
X53425377Y-6663373D01*
X53485165Y-6532457D01*
X53505647Y-6390000D01*
X53485165Y-6247543D01*
X53425377Y-6116627D01*
X53331128Y-6007857D01*
X53210053Y-5930047D01*
X53210052Y-5930046D01*
X53208137Y-5928816D01*
X53162382Y-5876012D01*
X53152438Y-5806853D01*
X53181463Y-5743297D01*
X53240241Y-5705523D01*
X53275176Y-5700500D01*
X54241499Y-5700500D01*
X54308538Y-5720185D01*
X54335211Y-5743296D01*
X54368872Y-5782143D01*
X54489947Y-5859953D01*
X54489950Y-5859954D01*
X54489949Y-5859954D01*
X54628036Y-5900499D01*
X54628038Y-5900500D01*
X54628039Y-5900500D01*
X54771962Y-5900500D01*
X54771962Y-5900499D01*
X54910053Y-5859953D01*
X55031128Y-5782143D01*
X55125377Y-5673373D01*
X55185165Y-5542457D01*
X55205647Y-5400000D01*
X55185165Y-5257543D01*
X55125377Y-5126627D01*
X55031128Y-5017857D01*
X54910053Y-4940047D01*
X54910051Y-4940046D01*
X54910049Y-4940045D01*
X54910050Y-4940045D01*
X54771963Y-4899500D01*
X54771961Y-4899500D01*
X54628039Y-4899500D01*
X54628036Y-4899500D01*
X54489949Y-4940045D01*
X54368873Y-5017856D01*
X54335212Y-5056703D01*
X54276433Y-5094477D01*
X54241499Y-5099500D01*
X41601826Y-5099500D01*
X41534787Y-5079815D01*
X41508113Y-5056703D01*
X41501390Y-5048944D01*
X41431128Y-4967857D01*
X41310053Y-4890047D01*
X41310051Y-4890046D01*
X41310049Y-4890045D01*
X41310050Y-4890045D01*
X41171963Y-4849500D01*
X41171961Y-4849500D01*
X41028039Y-4849500D01*
X41028036Y-4849500D01*
X40889949Y-4890045D01*
X40768873Y-4967856D01*
X40674623Y-5076626D01*
X40674622Y-5076628D01*
X40614834Y-5207543D01*
X40594353Y-5350000D01*
X500500Y-5350000D01*
X500500Y-624500D01*
X520185Y-557461D01*
X572989Y-511706D01*
X624500Y-500500D01*
X52375500Y-500500D01*
X52442539Y-520185D01*
G37*
%TD.AperFunction*%
%TD*%
M02*
