#VRML V2.0 utf8
# 3D model generated by easyeda2kicad.py (https://github.com/uPesy/easyeda2kicad.py)

Shape{
    appearance Appearance {
        material  Material 	{
            diffuseColor 0.11372549019607843 0.11372549019607843 0.11372549019607843
            specularColor 0.058823529411764705 0.058823529411764705 0.058823529411764705
            ambientIntensity 0.1137
            transparency 0.0
            shininess 0.5
        }
    }
    geometry IndexedFaceSet {
        ccw TRUE
        solid FALSE
        coord DEF co Coordinate {
            point [
                0.0729 0.0877 0.0039, 0.4642 0.0877 0.0039, 0.4642 -1.9882 0.0039, -0.3057 0.0897 0.0039, -0.2538 0.1007 0.0039, -0.2221 0.0906 0.0039, -0.2051 0.0897 0.0039, -0.1562 0.0897 0.0039, -0.1421 0.0877 0.0039, -0.1562 0.2472 0.0039, -0.3211 0.0897 0.0039, -0.4397 0.0897 0.0039, -0.345 0.1402 0.0039, -0.4164 0.1402 0.0039, -0.7433 1.6929 0.0039, -2.9008 1.6929 0.0039, -0.1421 1.9882 0.0039, -2.9008 1.9093 0.0039, -2.9008 1.9882 0.0039, -0.238 0.2415 0.0039, -0.2664 0.2224 0.0039, -0.3804 0.2472 0.0039, -0.2825 0.1913 0.0039, -0.2855 0.1665 0.0039, -0.2766 0.1269 0.0039, -0.4551 0.0897 0.0039, -0.7433 0.0877 0.0039, -0.3824 0.2472 0.0039, -0.188 0.2472 0.0039, -0.2133 0.2462 0.0039, -2.9008 -1.9093 0.0039, -2.9008 -1.6929 0.0039, -0.7433 -1.6929 0.0039, -2.9008 -1.9882 0.0039, -0.1421 -1.9882 0.0039, -0.0391 0.2472 0.0039, -0.128 0.2472 0.0039, -0.128 0.2311 0.0039, -0.128 0.1664 0.0039, -0.0533 0.1664 0.0039, -0.0533 0.1059 0.0039, -0.128 0.1059 0.0039, -0.128 0.0897 0.0039, 0.1466 0.1694 0.0039, 0.1365 0.2096 0.0039, 0.1095 0.238 0.0039, 0.0688 0.251 0.0039, 0.2395 0.2472 0.0039, 0.2253 0.2472 0.0039, 0.1648 0.1059 0.0039, 0.2253 0.1059 0.0039, -0.128 0.1826 0.0039, -0.0533 0.1826 0.0039, -0.0533 0.2311 0.0039, 0.0619 0.2512 0.0039, 0.0234 0.2432 0.0039, 0.0073 0.2332 0.0039, -0.0391 0.0897 0.0039, -0.0068 0.2183 0.0039, -0.0019 0.2245 0.0039, 0.4642 1.9882 0.0039, 0.2395 0.0897 0.0039, 0.1648 0.0897 0.0039, 0.0973 0.0921 0.0039, 0.1127 0.1005 0.0039, 0.0977 0.2265 0.0039, 0.1221 0.2045 0.0039, 0.0627 0.2351 0.0039, 0.1322 0.1747 0.0039, 0.1325 0.1683 0.0039, 0.1243 0.1359 0.0039, 0.1026 0.1131 0.0039, 0.0717 0.1024 0.0039, 0.0418 0.0877 0.0039, 0.0413 0.0878 0.0039, 0.0234 0.0939 0.0039, 0.1216 0.1079 0.0039, 0.1266 0.1132 0.0039, 0.1418 0.1394 0.0039, -0.0068 0.1187 0.0039, 0.0055 0.1281 0.0039, 0.0055 0.2088 0.0039, 0.0307 0.1085 0.0039, 0.0311 0.2286 0.0039, 0.0618 0.1018 0.0039, 0.0459 0.2334 0.0039, 0.0562 0.2348 0.0039, 0.0538 0.086 0.0039, 0.0617 0.0857 0.0039, 0.6425 -1.6476 1.0152, 0.6425 -1.6476 1.212, 0.6425 -1.9882 1.0152, 0.6425 -1.9882 1.212, 0.6425 -1.1476 1.0152, 0.6425 -1.1476 1.212, 0.6425 -1.3524 1.0152, 0.6425 -1.3524 1.212, 0.6425 -0.6476 1.0152, 0.6425 -0.6476 1.212, 0.6425 -0.8524 1.0152, 0.6425 -0.8524 1.212, 0.6425 -0.1476 1.0152, 0.6425 -0.1476 1.212, 0.6425 -0.3524 1.0152, 0.6425 -0.3524 1.212, 0.6425 0.3524 1.0152, 0.6425 0.3524 1.212, 0.6425 0.1476 1.0152, 0.6425 0.1476 1.212, 0.6425 0.8524 1.0152, 0.6425 0.8524 1.212, 0.6425 0.6476 1.0152, 0.6425 0.6476 1.212, 0.6425 1.3524 1.0152, 0.6425 1.3524 1.212, 0.6425 1.1476 1.0152, 0.6425 1.1476 1.212, -2.9008 -1.9093 0.5551, -2.9008 -1.9882 0.5551, 0.6425 1.9882 1.0152, 0.6425 1.9882 1.212, 0.6425 1.6476 1.0152, 0.6425 1.6476 1.212, -2.9008 1.9882 0.5551, -2.785 1.9882 1.212, -2.9008 1.9093 0.5551, -2.785 -1.9882 1.212, -0.3217 -0.2806 1.7362, -2.6925 -1.8748 1.7362, -0.1814 -0.243 1.7362, 0.5501 -1.8748 1.7362, 0.5501 1.8748 1.7362, -0.3217 0.2806 1.7362, -0.1814 0.243 1.7362, -0.462 0.243 1.7362, -2.6925 1.8748 1.7362, -0.5648 0.1403 1.7362, -0.462 -0.243 1.7362, -0.5648 -0.1403 1.7362, -0.6024 0.0 1.7362, -0.0787 0.1403 1.7362, -0.0411 0.0 1.7362, -0.0787 -0.1403 1.7362
            ]
        }
        coordIndex [
            0,1,2,-1,3,4,5,-1,6,7,8,-1,8,7,9,-1,5,6,3,-1,3,6,8,-1,3,8,10,-1,10,8,11,-1,10,11,12,-1,12,11,13,-1,14,15,16,-1,16,15,17,-1,16,17,18,-1,19,20,21,-1,20,22,21,-1,21,22,23,-1,21,23,3,-1,3,23,24,-1,3,24,4,-1,25,26,27,-1,27,26,14,-1,27,14,21,-1,21,14,16,-1,21,16,19,-1,9,28,16,-1,16,28,29,-1,16,29,19,-1,30,31,32,-1,33,30,34,-1,34,30,32,-1,34,32,8,-1,8,32,26,-1,8,26,11,-1,11,26,25,-1,35,36,16,-1,9,16,8,-1,8,16,36,-1,8,36,37,-1,38,39,40,-1,41,42,8,-1,43,44,16,-1,16,44,45,-1,16,45,46,-1,47,48,16,-1,43,16,49,-1,49,16,48,-1,49,48,50,-1,40,41,38,-1,38,41,8,-1,38,8,51,-1,51,8,37,-1,51,37,52,-1,52,37,53,-1,46,54,16,-1,16,54,55,-1,16,55,56,-1,57,35,58,-1,58,35,16,-1,58,16,59,-1,59,16,56,-1,16,60,47,-1,47,60,1,-1,47,1,61,-1,61,1,0,-1,61,0,62,-1,62,0,63,-1,62,63,64,-1,65,66,67,-1,67,66,68,-1,67,68,69,-1,69,70,67,-1,67,70,71,-1,67,71,72,-1,73,57,74,-1,74,57,75,-1,64,76,62,-1,62,76,77,-1,62,77,49,-1,49,77,78,-1,49,78,43,-1,75,57,79,-1,79,57,58,-1,79,58,80,-1,80,58,81,-1,80,81,82,-1,82,81,83,-1,82,83,84,-1,84,83,85,-1,84,85,72,-1,72,85,86,-1,72,86,67,-1,42,57,8,-1,8,57,73,-1,8,73,34,-1,34,73,87,-1,34,87,2,-1,2,87,88,-1,2,88,0,-1,89,90,91,-1,91,90,92,-1,93,94,95,-1,95,94,96,-1,97,98,99,-1,99,98,100,-1,101,102,103,-1,103,102,104,-1,105,106,107,-1,107,106,108,-1,109,110,111,-1,111,110,112,-1,113,114,115,-1,115,114,116,-1,117,30,118,-1,118,30,33,-1,119,120,121,-1,121,120,122,-1,119,60,16,-1,16,18,123,-1,119,16,120,-1,120,16,123,-1,120,123,124,-1,123,18,125,-1,125,18,17,-1,118,33,34,-1,126,118,92,-1,92,118,34,-1,92,34,91,-1,91,34,2,-1,127,128,129,-1,129,128,130,-1,131,132,133,-1,132,131,134,-1,134,131,135,-1,134,135,136,-1,127,137,128,-1,128,137,138,-1,128,138,135,-1,135,138,139,-1,135,139,136,-1,133,140,131,-1,131,140,141,-1,131,141,130,-1,130,141,142,-1,130,142,129,-1,
        ]
    }
}
Shape{
    appearance Appearance {
        material  Material 	{
            diffuseColor 0.7529411764705882 0.7529411764705882 0.7529411764705882
            specularColor 0.3764705882352941 0.3764705882352941 0.3764705882352941
            ambientIntensity 0.7529
            transparency 0.0
            shininess 0.5
        }
    }
    geometry IndexedFaceSet {
        ccw TRUE
        solid FALSE
        coord DEF co Coordinate {
            point [
                1.2069 0.1476 1.212, 0.6425 0.1476 1.212, 1.2069 -0.1476 1.212, 0.6425 -0.1476 1.212, 1.2069 0.1476 0.9861, 1.2069 -0.1476 0.9861, 1.0933 0.1476 1.0152, 1.0933 -0.1476 1.0152, 0.6425 0.1476 1.0152, 0.6425 -0.1476 1.0152, 1.2069 0.6476 1.212, 0.6425 0.6476 1.212, 1.2069 0.3524 1.212, 0.6425 0.3524 1.212, 1.325 0.3524 1.1804, 1.325 0.6476 1.1804, 1.4115 0.3524 1.0939, 1.4115 0.6476 1.0939, 1.859 0.6476 0.3189, 1.859 0.3524 0.3189, 1.9454 0.6476 0.2324, 1.9454 0.3524 0.2324, 2.0635 0.6476 0.2008, 2.0635 0.3524 0.2008, 2.4614 0.6476 0.2008, 2.4614 0.3524 0.2008, 2.4614 0.6476 0.0039, 2.4614 0.3524 0.0039, 1.9499 0.6476 0.0039, 1.9499 0.3524 0.0039, 1.8691 0.3524 0.0182, 1.8691 0.6476 0.0182, 1.7981 0.3524 0.0592, 1.7981 0.6476 0.0592, 1.7453 0.3524 0.122, 1.7453 0.6476 0.122, 1.2978 0.6476 0.8971, 1.2978 0.3524 0.8971, 1.2114 0.6476 0.9835, 1.2114 0.3524 0.9835, 1.0933 0.6476 1.0152, 1.0933 0.3524 1.0152, 0.6425 0.6476 1.0152, 0.6425 0.3524 1.0152, 1.2069 1.1476 1.212, 0.6425 1.1476 1.212, 1.2069 0.8524 1.212, 0.6425 0.8524 1.212, 1.325 0.8524 1.1804, 1.325 1.1476 1.1804, 1.4115 0.8524 1.0939, 1.4115 1.1476 1.0939, 1.859 1.1476 0.3189, 1.859 0.8524 0.3189, 1.9454 1.1476 0.2324, 1.9454 0.8524 0.2324, 2.0635 1.1476 0.2008, 2.0635 0.8524 0.2008, 2.4614 1.1476 0.2008, 2.4614 0.8524 0.2008, 2.4614 1.1476 0.0039, 2.4614 0.8524 0.0039, 1.9499 1.1476 0.0039, 1.9499 0.8524 0.0039, 1.8691 0.8524 0.0182, 1.8691 1.1476 0.0182, 1.7981 0.8524 0.0592, 1.7981 1.1476 0.0592, 1.7453 0.8524 0.122, 1.7453 1.1476 0.122, 1.2978 1.1476 0.8971, 1.2978 0.8524 0.8971, 1.2114 1.1476 0.9835, 1.2114 0.8524 0.9835, 1.0933 1.1476 1.0152, 1.0933 0.8524 1.0152, 0.6425 1.1476 1.0152, 0.6425 0.8524 1.0152, 1.2069 1.6476 1.212, 0.6425 1.6476 1.212, 1.2069 1.3524 1.212, 0.6425 1.3524 1.212, 1.325 1.3524 1.1804, 1.325 1.6476 1.1804, 1.4115 1.3524 1.0939, 1.4115 1.6476 1.0939, 1.859 1.6476 0.3189, 1.859 1.3524 0.3189, 1.9454 1.6476 0.2324, 1.9454 1.3524 0.2324, 2.0635 1.6476 0.2008, 2.0635 1.3524 0.2008, 2.4614 1.6476 0.2008, 2.4614 1.3524 0.2008, 2.4614 1.6476 0.0039, 2.4614 1.3524 0.0039, 1.9499 1.6476 0.0039, 1.9499 1.3524 0.0039, 1.8691 1.3524 0.0182, 1.8691 1.6476 0.0182, 1.7981 1.3524 0.0592, 1.7981 1.6476 0.0592, 1.7453 1.3524 0.122, 1.7453 1.6476 0.122, 1.2978 1.6476 0.8971, 1.2978 1.3524 0.8971, 1.2114 1.6476 0.9835, 1.2114 1.3524 0.9835, 1.0933 1.6476 1.0152, 1.0933 1.3524 1.0152, 0.6425 1.6476 1.0152, 0.6425 1.3524 1.0152, 1.2069 -0.3524 1.212, 0.6425 -0.3524 1.212, 1.2069 -0.6476 1.212, 0.6425 -0.6476 1.212, 1.325 -0.6476 1.1804, 1.325 -0.3524 1.1804, 1.4115 -0.6476 1.0939, 1.4115 -0.3524 1.0939, 1.859 -0.3524 0.3189, 1.859 -0.6476 0.3189, 1.9454 -0.3524 0.2324, 1.9454 -0.6476 0.2324, 2.0635 -0.3524 0.2008, 2.0635 -0.6476 0.2008, 2.4614 -0.3524 0.2008, 2.4614 -0.6476 0.2008, 2.4614 -0.3524 0.0039, 2.4614 -0.6476 0.0039, 1.9499 -0.3524 0.0039, 1.9499 -0.6476 0.0039, 1.8691 -0.6476 0.0182, 1.8691 -0.3524 0.0182, 1.7981 -0.6476 0.0592, 1.7981 -0.3524 0.0592, 1.7453 -0.6476 0.122, 1.7453 -0.3524 0.122, 1.2978 -0.3524 0.8971, 1.2978 -0.6476 0.8971, 1.2114 -0.3524 0.9835, 1.2114 -0.6476 0.9835, 1.0933 -0.3524 1.0152, 1.0933 -0.6476 1.0152, 0.6425 -0.3524 1.0152, 0.6425 -0.6476 1.0152, 1.2069 -0.8524 1.212, 0.6425 -0.8524 1.212, 1.2069 -1.1476 1.212, 0.6425 -1.1476 1.212, 1.325 -1.1476 1.1804, 1.325 -0.8524 1.1804, 1.4115 -1.1476 1.0939, 1.4115 -0.8524 1.0939, 1.859 -0.8524 0.3189, 1.859 -1.1476 0.3189, 1.9454 -0.8524 0.2324, 1.9454 -1.1476 0.2324, 2.0635 -0.8524 0.2008, 2.0635 -1.1476 0.2008, 2.4614 -0.8524 0.2008, 2.4614 -1.1476 0.2008, 2.4614 -0.8524 0.0039, 2.4614 -1.1476 0.0039, 1.9499 -0.8524 0.0039, 1.9499 -1.1476 0.0039, 1.8691 -1.1476 0.0182, 1.8691 -0.8524 0.0182, 1.7981 -1.1476 0.0592, 1.7981 -0.8524 0.0592, 1.7453 -1.1476 0.122, 1.7453 -0.8524 0.122, 1.2978 -0.8524 0.8971, 1.2978 -1.1476 0.8971, 1.2114 -0.8524 0.9835, 1.2114 -1.1476 0.9835, 1.0933 -0.8524 1.0152, 1.0933 -1.1476 1.0152, 0.6425 -0.8524 1.0152, 0.6425 -1.1476 1.0152, 1.2069 -1.3524 1.212, 0.6425 -1.3524 1.212, 1.2069 -1.6476 1.212, 0.6425 -1.6476 1.212, 1.325 -1.6476 1.1804, 1.325 -1.3524 1.1804, 1.4115 -1.6476 1.0939, 1.4115 -1.3524 1.0939, 1.859 -1.3524 0.3189, 1.859 -1.6476 0.3189, 1.9454 -1.3524 0.2324, 1.9454 -1.6476 0.2324, 2.0635 -1.3524 0.2008, 2.0635 -1.6476 0.2008, 2.4614 -1.3524 0.2008, 2.4614 -1.6476 0.2008, 2.4614 -1.3524 0.0039, 2.4614 -1.6476 0.0039, 1.9499 -1.3524 0.0039, 1.9499 -1.6476 0.0039, 1.8691 -1.6476 0.0182, 1.8691 -1.3524 0.0182, 1.7981 -1.6476 0.0592, 1.7981 -1.3524 0.0592, 1.7453 -1.6476 0.122, 1.7453 -1.3524 0.122, 1.2978 -1.3524 0.8971, 1.2978 -1.6476 0.8971, 1.2114 -1.3524 0.9835, 1.2114 -1.6476 0.9835, 1.0933 -1.3524 1.0152, 1.0933 -1.6476 1.0152, 0.6425 -1.3524 1.0152, 0.6425 -1.6476 1.0152, -3.3259 -1.9093 0.5551, -2.9008 -1.9093 0.5551, -3.5386 -1.5637 0.5551, -2.9008 1.9093 0.5551, -3.5386 1.5637 0.5551, -3.3259 1.9093 0.5551, -2.9008 1.6929 0.0, -2.9008 1.9093 0.0, -2.9008 1.6929 0.0039, -2.9008 1.9093 0.0039, -2.9008 -1.9093 0.0, -2.9008 -1.6929 0.0, -2.9008 -1.9093 0.0039, -2.9008 -1.6929 0.0039, -0.7433 -1.6929 0.0, -0.7433 -1.6929 0.0039, -0.7433 0.0877 0.0039, -0.7433 1.6929 0.0, -0.7433 1.6929 0.0039, -3.3259 1.9093 0.0, -3.5386 1.5637 0.0, -3.5386 -1.5637 0.0, -3.3259 -1.9093 0.0
            ]
        }
        coordIndex [
            0,1,2,-1,2,1,3,-1,4,5,6,-1,6,5,7,-1,8,6,9,-1,9,6,7,-1,8,1,6,-1,6,1,0,-1,6,0,4,-1,3,9,2,-1,2,9,7,-1,2,7,5,-1,10,11,12,-1,12,11,13,-1,10,12,14,-1,10,14,15,-1,15,14,16,-1,15,16,17,-1,18,17,19,-1,19,17,16,-1,18,19,20,-1,20,19,21,-1,20,21,22,-1,22,21,23,-1,24,22,25,-1,25,22,23,-1,26,24,27,-1,27,24,25,-1,28,26,29,-1,29,26,27,-1,28,29,30,-1,28,30,31,-1,31,30,32,-1,31,32,33,-1,33,32,34,-1,33,34,35,-1,36,35,37,-1,37,35,34,-1,36,37,38,-1,38,37,39,-1,38,39,40,-1,40,39,41,-1,42,40,43,-1,43,40,41,-1,24,26,22,-1,22,26,28,-1,22,28,20,-1,42,11,40,-1,40,11,10,-1,40,10,38,-1,38,10,15,-1,38,15,36,-1,36,15,17,-1,36,17,35,-1,35,17,18,-1,35,18,33,-1,33,18,20,-1,33,20,31,-1,31,20,28,-1,27,25,29,-1,29,25,23,-1,29,23,30,-1,30,23,21,-1,30,21,32,-1,32,21,19,-1,13,43,12,-1,12,43,41,-1,12,41,14,-1,14,41,39,-1,14,39,16,-1,16,39,37,-1,16,37,19,-1,19,37,34,-1,19,34,32,-1,44,45,46,-1,46,45,47,-1,44,46,48,-1,44,48,49,-1,49,48,50,-1,49,50,51,-1,52,51,53,-1,53,51,50,-1,52,53,54,-1,54,53,55,-1,54,55,56,-1,56,55,57,-1,58,56,59,-1,59,56,57,-1,60,58,61,-1,61,58,59,-1,62,60,63,-1,63,60,61,-1,62,63,64,-1,62,64,65,-1,65,64,66,-1,65,66,67,-1,67,66,68,-1,67,68,69,-1,70,69,71,-1,71,69,68,-1,70,71,72,-1,72,71,73,-1,72,73,74,-1,74,73,75,-1,76,74,77,-1,77,74,75,-1,58,60,56,-1,56,60,62,-1,56,62,54,-1,76,45,74,-1,74,45,44,-1,74,44,72,-1,72,44,49,-1,72,49,70,-1,70,49,51,-1,70,51,69,-1,69,51,52,-1,69,52,67,-1,67,52,54,-1,67,54,65,-1,65,54,62,-1,61,59,63,-1,63,59,57,-1,63,57,64,-1,64,57,55,-1,64,55,66,-1,66,55,53,-1,47,77,46,-1,46,77,75,-1,46,75,48,-1,48,75,73,-1,48,73,50,-1,50,73,71,-1,50,71,53,-1,53,71,68,-1,53,68,66,-1,78,79,80,-1,80,79,81,-1,78,80,82,-1,78,82,83,-1,83,82,84,-1,83,84,85,-1,86,85,87,-1,87,85,84,-1,86,87,88,-1,88,87,89,-1,88,89,90,-1,90,89,91,-1,92,90,93,-1,93,90,91,-1,94,92,95,-1,95,92,93,-1,96,94,97,-1,97,94,95,-1,96,97,98,-1,96,98,99,-1,99,98,100,-1,99,100,101,-1,101,100,102,-1,101,102,103,-1,104,103,105,-1,105,103,102,-1,104,105,106,-1,106,105,107,-1,106,107,108,-1,108,107,109,-1,110,108,111,-1,111,108,109,-1,92,94,90,-1,90,94,96,-1,90,96,88,-1,110,79,108,-1,108,79,78,-1,108,78,106,-1,106,78,83,-1,106,83,104,-1,104,83,85,-1,104,85,103,-1,103,85,86,-1,103,86,101,-1,101,86,88,-1,101,88,99,-1,99,88,96,-1,95,93,97,-1,97,93,91,-1,97,91,98,-1,98,91,89,-1,98,89,100,-1,100,89,87,-1,81,111,80,-1,80,111,109,-1,80,109,82,-1,82,109,107,-1,82,107,84,-1,84,107,105,-1,84,105,87,-1,87,105,102,-1,87,102,100,-1,112,113,114,-1,114,113,115,-1,112,114,116,-1,112,116,117,-1,117,116,118,-1,117,118,119,-1,120,119,121,-1,121,119,118,-1,120,121,122,-1,122,121,123,-1,122,123,124,-1,124,123,125,-1,126,124,127,-1,127,124,125,-1,128,126,129,-1,129,126,127,-1,130,128,131,-1,131,128,129,-1,130,131,132,-1,130,132,133,-1,133,132,134,-1,133,134,135,-1,135,134,136,-1,135,136,137,-1,138,137,139,-1,139,137,136,-1,138,139,140,-1,140,139,141,-1,140,141,142,-1,142,141,143,-1,144,142,145,-1,145,142,143,-1,126,128,124,-1,124,128,130,-1,124,130,122,-1,144,113,142,-1,142,113,112,-1,142,112,140,-1,140,112,117,-1,140,117,138,-1,138,117,119,-1,138,119,137,-1,137,119,120,-1,137,120,135,-1,135,120,122,-1,135,122,133,-1,133,122,130,-1,129,127,131,-1,131,127,125,-1,131,125,132,-1,132,125,123,-1,132,123,134,-1,134,123,121,-1,115,145,114,-1,114,145,143,-1,114,143,116,-1,116,143,141,-1,116,141,118,-1,118,141,139,-1,118,139,121,-1,121,139,136,-1,121,136,134,-1,146,147,148,-1,148,147,149,-1,146,148,150,-1,146,150,151,-1,151,150,152,-1,151,152,153,-1,154,153,155,-1,155,153,152,-1,154,155,156,-1,156,155,157,-1,156,157,158,-1,158,157,159,-1,160,158,161,-1,161,158,159,-1,162,160,163,-1,163,160,161,-1,164,162,165,-1,165,162,163,-1,164,165,166,-1,164,166,167,-1,167,166,168,-1,167,168,169,-1,169,168,170,-1,169,170,171,-1,172,171,173,-1,173,171,170,-1,172,173,174,-1,174,173,175,-1,174,175,176,-1,176,175,177,-1,178,176,179,-1,179,176,177,-1,160,162,158,-1,158,162,164,-1,158,164,156,-1,178,147,176,-1,176,147,146,-1,176,146,174,-1,174,146,151,-1,174,151,172,-1,172,151,153,-1,172,153,171,-1,171,153,154,-1,171,154,169,-1,169,154,156,-1,169,156,167,-1,167,156,164,-1,163,161,165,-1,165,161,159,-1,165,159,166,-1,166,159,157,-1,166,157,168,-1,168,157,155,-1,149,179,148,-1,148,179,177,-1,148,177,150,-1,150,177,175,-1,150,175,152,-1,152,175,173,-1,152,173,155,-1,155,173,170,-1,155,170,168,-1,180,181,182,-1,182,181,183,-1,180,182,184,-1,180,184,185,-1,185,184,186,-1,185,186,187,-1,188,187,189,-1,189,187,186,-1,188,189,190,-1,190,189,191,-1,190,191,192,-1,192,191,193,-1,194,192,195,-1,195,192,193,-1,196,194,197,-1,197,194,195,-1,198,196,199,-1,199,196,197,-1,198,199,200,-1,198,200,201,-1,201,200,202,-1,201,202,203,-1,203,202,204,-1,203,204,205,-1,206,205,207,-1,207,205,204,-1,206,207,208,-1,208,207,209,-1,208,209,210,-1,210,209,211,-1,212,210,213,-1,213,210,211,-1,194,196,192,-1,192,196,198,-1,192,198,190,-1,212,181,210,-1,210,181,180,-1,210,180,208,-1,208,180,185,-1,208,185,206,-1,206,185,187,-1,206,187,205,-1,205,187,188,-1,205,188,203,-1,203,188,190,-1,203,190,201,-1,201,190,198,-1,197,195,199,-1,199,195,193,-1,199,193,200,-1,200,193,191,-1,200,191,202,-1,202,191,189,-1,183,213,182,-1,182,213,211,-1,182,211,184,-1,184,211,209,-1,184,209,186,-1,186,209,207,-1,186,207,189,-1,189,207,204,-1,189,204,202,-1,2,5,0,-1,0,5,4,-1,214,215,216,-1,216,215,217,-1,216,217,218,-1,218,217,219,-1,220,221,222,-1,222,221,223,-1,224,225,226,-1,226,225,227,-1,225,228,227,-1,227,228,229,-1,229,228,230,-1,230,228,231,-1,230,231,232,-1,231,220,232,-1,232,220,222,-1,221,233,223,-1,223,233,219,-1,223,219,217,-1,234,218,233,-1,233,218,219,-1,235,216,234,-1,234,216,218,-1,236,214,235,-1,235,214,216,-1,215,214,226,-1,226,214,236,-1,226,236,224,-1,233,221,234,-1,234,221,220,-1,224,236,225,-1,225,236,235,-1,231,228,220,-1,220,228,225,-1,220,225,234,-1,234,225,235,-1,
        ]
    }
}
Shape{
    appearance Appearance {
        material  Material 	{
            diffuseColor 0.11372549019607843 0.11372549019607843 0.11372549019607843
            specularColor 0.058823529411764705 0.058823529411764705 0.058823529411764705
            ambientIntensity 0.1137
            transparency 0.0
            shininess 0.5
        }
    }
    geometry IndexedFaceSet {
        ccw TRUE
        solid FALSE
        coord DEF co Coordinate {
            point [
                -2.785 1.9882 1.212, -2.9008 1.9882 0.5551, -2.9008 1.9093 0.5551, -2.9008 -1.9882 0.5551, -2.785 -1.9882 1.212, -2.9008 -1.9093 0.5551, -2.6925 -1.8748 1.7362, -2.6925 1.8748 1.7362, 0.4642 1.9882 0.0039, 0.6425 1.9882 1.0152, 0.6425 1.6476 1.0152, 0.4642 0.0877 0.0039, 0.6425 -0.1476 1.0152, 0.6425 -0.3524 1.0152, 0.6425 1.3524 1.0152, 0.6425 1.1476 1.0152, 0.6425 0.8524 1.0152, 0.6425 0.6476 1.0152, 0.6425 -0.6476 1.0152, 0.6425 -0.8524 1.0152, 0.4642 -1.9882 0.0039, 0.6425 -1.1476 1.0152, 0.6425 0.3524 1.0152, 0.6425 0.1476 1.0152, 0.6425 -1.3524 1.0152, 0.6425 -1.6476 1.0152, 0.6425 -1.9882 1.0152, 0.6425 -1.9882 1.212, 0.6425 -1.6476 1.212, 0.5501 -1.8748 1.7362, 0.6425 -1.3524 1.212, 0.6425 -1.1476 1.212, 0.6425 -0.8524 1.212, 0.6425 -0.6476 1.212, 0.6425 -0.3524 1.212, 0.6425 -0.1476 1.212, 0.5501 1.8748 1.7362, 0.6425 0.1476 1.212, 0.6425 0.3524 1.212, 0.6425 0.6476 1.212, 0.6425 0.8524 1.212, 0.6425 1.1476 1.212, 0.6425 1.3524 1.212, 0.6425 1.6476 1.212, 0.6425 1.9882 1.212, -0.0411 -0.0 1.6969, -0.0411 0.0 1.7362, -0.0787 0.1403 1.6969, -0.0787 0.1403 1.7362, -0.1814 0.243 1.6969, -0.1814 0.243 1.7362, -0.3217 0.2806 1.6969, -0.3217 0.2806 1.7362, -0.462 0.243 1.6969, -0.462 0.243 1.7362, -0.5648 0.1403 1.6969, -0.5648 0.1403 1.7362, -0.6024 0.0 1.6969, -0.6024 0.0 1.7362, -0.5648 -0.1403 1.6969, -0.5648 -0.1403 1.7362, -0.462 -0.243 1.6969, -0.462 -0.243 1.7362, -0.3217 -0.2806 1.6969, -0.3217 -0.2806 1.7362, -0.1814 -0.243 1.6969, -0.1814 -0.243 1.7362, -0.0787 -0.1403 1.6969, -0.0787 -0.1403 1.7362, -0.3217 0.0 1.6969
            ]
        }
        coordIndex [
            0,1,2,-1,3,4,5,-1,5,4,6,-1,5,6,2,-1,2,6,7,-1,2,7,0,-1,8,9,10,-1,11,12,13,-1,10,14,8,-1,8,14,15,-1,8,15,11,-1,11,15,16,-1,11,16,17,-1,13,18,11,-1,11,18,19,-1,11,19,20,-1,20,19,21,-1,17,22,11,-1,11,22,23,-1,11,23,12,-1,21,24,20,-1,20,24,25,-1,20,25,26,-1,27,28,29,-1,29,28,30,-1,30,31,29,-1,29,31,32,-1,29,32,33,-1,33,34,29,-1,29,34,35,-1,29,35,36,-1,36,35,37,-1,36,37,38,-1,38,39,36,-1,36,39,40,-1,36,40,41,-1,41,42,36,-1,36,42,43,-1,36,43,44,-1,29,6,27,-1,27,6,4,-1,44,0,36,-1,36,0,7,-1,45,46,47,-1,47,46,48,-1,47,48,49,-1,49,48,50,-1,49,50,51,-1,51,50,52,-1,51,52,53,-1,53,52,54,-1,53,54,55,-1,55,54,56,-1,55,56,57,-1,57,56,58,-1,57,58,59,-1,59,58,60,-1,59,60,61,-1,61,60,62,-1,61,62,63,-1,63,62,64,-1,63,64,65,-1,65,64,66,-1,65,66,67,-1,67,66,68,-1,67,68,45,-1,45,68,46,-1,65,67,69,-1,69,67,45,-1,69,45,47,-1,59,61,69,-1,69,61,63,-1,69,63,65,-1,53,55,69,-1,69,55,57,-1,69,57,59,-1,47,49,69,-1,69,49,51,-1,69,51,53,-1,
        ]
    }
}
Shape{
    appearance Appearance {
        material  Material 	{
            diffuseColor 0.7529411764705882 0.7529411764705882 0.7529411764705882
            specularColor 0.3764705882352941 0.3764705882352941 0.3764705882352941
            ambientIntensity 0.7529
            transparency 0.0
            shininess 0.5
        }
    }
    geometry IndexedFaceSet {
        ccw TRUE
        solid FALSE
        coord DEF co Coordinate {
            point [
                -0.3804 0.2472 0.0118, -0.3824 0.2472 0.0118, -0.3804 0.2472 0.0039, -0.3824 0.2472 0.0039, -0.4551 0.0897 0.0118, -0.4551 0.0897 0.0039, -0.4397 0.0897 0.0118, -0.4397 0.0897 0.0039, -0.4164 0.1402 0.0118, -0.4164 0.1402 0.0039, -0.345 0.1402 0.0118, -0.345 0.1402 0.0039, -0.3211 0.0897 0.0118, -0.3211 0.0897 0.0039, -0.3057 0.0897 0.0118, -0.3057 0.0897 0.0039, -0.409 0.1564 0.0118, -0.3812 0.2165 0.0118, -0.409 0.1564 0.0039, -0.3812 0.2165 0.0039, -0.3527 0.1564 0.0118, -0.3527 0.1564 0.0039, -0.2051 0.0897 0.0118, -0.1562 0.0897 0.0118, -0.2051 0.0897 0.0039, -0.1562 0.0897 0.0039, -0.1562 0.2472 0.0118, -0.1562 0.2472 0.0039, -0.188 0.2472 0.0118, -0.188 0.2472 0.0039, -0.238 0.2415 0.0118, -0.238 0.2415 0.0039, -0.2133 0.2462 0.0039, -0.2133 0.2462 0.0118, -0.2855 0.1665 0.0118, -0.2855 0.1665 0.0039, -0.2825 0.1913 0.0039, -0.2825 0.1913 0.0118, -0.2664 0.2224 0.0039, -0.2664 0.2224 0.0118, -0.2221 0.0906 0.0039, -0.2221 0.0906 0.0118, -0.2538 0.1007 0.0039, -0.2538 0.1007 0.0118, -0.2766 0.1269 0.0039, -0.2766 0.1269 0.0118, -0.1704 0.2311 0.0118, -0.1704 0.1059 0.0118, -0.1704 0.2311 0.0039, -0.1704 0.1059 0.0039, -0.1815 0.2311 0.0118, -0.1815 0.2311 0.0039, -0.2058 0.2303 0.0039, -0.2058 0.2303 0.0118, -0.2298 0.2266 0.0039, -0.2298 0.2266 0.0118, -0.2473 0.2182 0.0039, -0.2473 0.2182 0.0118, -0.2644 0.198 0.0039, -0.2644 0.198 0.0118, -0.2713 0.1665 0.0039, -0.2713 0.1665 0.0118, -0.2688 0.1469 0.0039, -0.2688 0.1469 0.0118, -0.256 0.1238 0.0039, -0.256 0.1238 0.0118, -0.2335 0.1099 0.0039, -0.2335 0.1099 0.0118, -0.2111 0.1065 0.0039, -0.2111 0.1065 0.0118, -0.1885 0.1059 0.0039, -0.1885 0.1059 0.0118, -0.0391 0.0897 0.0118, -0.0391 0.2472 0.0118, -0.0391 0.0897 0.0039, -0.0391 0.2472 0.0039, -0.128 0.2472 0.0118, -0.128 0.2472 0.0039, -0.128 0.2311 0.0118, -0.128 0.2311 0.0039, -0.0533 0.2311 0.0118, -0.0533 0.2311 0.0039, -0.0533 0.1826 0.0118, -0.0533 0.1826 0.0039, -0.128 0.1826 0.0118, -0.128 0.1826 0.0039, -0.128 0.1664 0.0118, -0.128 0.1664 0.0039, -0.0533 0.1664 0.0118, -0.0533 0.1664 0.0039, -0.0533 0.1059 0.0118, -0.0533 0.1059 0.0039, -0.128 0.1059 0.0118, -0.128 0.1059 0.0039, -0.128 0.0897 0.0118, -0.128 0.0897 0.0039, -0.0068 0.2183 0.0118, -0.0068 0.2183 0.0039, -0.0019 0.2245 0.0039, -0.0019 0.2245 0.0118, 0.0073 0.2332 0.0039, 0.0073 0.2332 0.0118, 0.0234 0.2432 0.0039, 0.0234 0.2432 0.0118, 0.0619 0.2512 0.0039, 0.0619 0.2512 0.0118, 0.0055 0.2088 0.0118, 0.0055 0.2088 0.0039, 0.0627 0.2351 0.0118, 0.0627 0.2351 0.0039, 0.0562 0.2348 0.0039, 0.0562 0.2348 0.0118, 0.0459 0.2334 0.0039, 0.0459 0.2334 0.0118, 0.0311 0.2286 0.0039, 0.0311 0.2286 0.0118, 0.1325 0.1683 0.0118, 0.1325 0.1683 0.0039, 0.1322 0.1747 0.0039, 0.1322 0.1747 0.0118, 0.1221 0.2045 0.0039, 0.1221 0.2045 0.0118, 0.0977 0.2265 0.0039, 0.0977 0.2265 0.0118, 0.0618 0.1018 0.0118, 0.0618 0.1018 0.0039, 0.0717 0.1024 0.0039, 0.0717 0.1024 0.0118, 0.1026 0.1131 0.0039, 0.1026 0.1131 0.0118, 0.1243 0.1359 0.0039, 0.1243 0.1359 0.0118, 0.0055 0.1281 0.0118, 0.0055 0.1281 0.0039, 0.0307 0.1085 0.0039, 0.0307 0.1085 0.0118, -0.0068 0.1187 0.0118, -0.0068 0.1187 0.0039, 0.0617 0.0857 0.0118, 0.0617 0.0857 0.0039, 0.0538 0.086 0.0039, 0.0538 0.086 0.0118, 0.0418 0.0877 0.0039, 0.0413 0.0878 0.0118, 0.0413 0.0878 0.0039, 0.0234 0.0939 0.0039, 0.0234 0.0939 0.0118, 0.1266 0.1132 0.0118, 0.1266 0.1132 0.0039, 0.1216 0.1079 0.0039, 0.1216 0.1079 0.0118, 0.1127 0.1005 0.0039, 0.1127 0.1005 0.0118, 0.0973 0.0921 0.0039, 0.0973 0.0921 0.0118, 0.0729 0.0877 0.0039, 0.1466 0.1694 0.0118, 0.1466 0.1694 0.0039, 0.1418 0.1394 0.0039, 0.1418 0.1394 0.0118, 0.0688 0.251 0.0039, 0.0688 0.251 0.0118, 0.1095 0.238 0.0039, 0.1095 0.238 0.0118, 0.1365 0.2096 0.0039, 0.1365 0.2096 0.0118, 0.2395 0.0897 0.0118, 0.2395 0.2472 0.0118, 0.2395 0.0897 0.0039, 0.2395 0.2472 0.0039, 0.2253 0.2472 0.0118, 0.2253 0.2472 0.0039, 0.2253 0.1059 0.0118, 0.2253 0.1059 0.0039, 0.1648 0.1059 0.0118, 0.1648 0.1059 0.0039, 0.1648 0.0897 0.0118, 0.1648 0.0897 0.0039
            ]
        }
        coordIndex [
            0,1,2,-1,2,1,3,-1,1,4,3,-1,3,4,5,-1,4,6,5,-1,5,6,7,-1,6,8,7,-1,7,8,9,-1,8,10,9,-1,9,10,11,-1,10,12,11,-1,11,12,13,-1,12,14,13,-1,13,14,15,-1,14,0,15,-1,15,0,2,-1,16,17,18,-1,18,17,19,-1,20,16,21,-1,21,16,18,-1,17,20,19,-1,19,20,21,-1,16,4,1,-1,0,20,1,-1,1,20,17,-1,1,17,16,-1,14,12,10,-1,6,4,8,-1,8,4,16,-1,8,16,10,-1,10,16,20,-1,10,20,14,-1,14,20,0,-1,22,23,24,-1,24,23,25,-1,23,26,25,-1,25,26,27,-1,26,28,27,-1,27,28,29,-1,30,31,32,-1,30,32,33,-1,33,32,29,-1,33,29,28,-1,34,35,36,-1,34,36,37,-1,37,36,38,-1,37,38,39,-1,39,38,31,-1,39,31,30,-1,22,24,40,-1,22,40,41,-1,41,40,42,-1,41,42,43,-1,43,42,44,-1,43,44,45,-1,45,44,35,-1,45,35,34,-1,46,47,48,-1,48,47,49,-1,50,46,51,-1,51,46,48,-1,50,51,52,-1,50,52,53,-1,53,52,54,-1,53,54,55,-1,55,54,56,-1,55,56,57,-1,57,56,58,-1,57,58,59,-1,59,58,60,-1,59,60,61,-1,61,60,62,-1,61,62,63,-1,63,62,64,-1,63,64,65,-1,65,64,66,-1,65,66,67,-1,67,66,68,-1,67,68,69,-1,69,68,70,-1,69,70,71,-1,47,71,49,-1,49,71,70,-1,63,65,43,-1,43,65,67,-1,43,67,41,-1,41,67,69,-1,41,69,22,-1,22,69,71,-1,22,71,23,-1,23,71,47,-1,23,47,26,-1,26,47,46,-1,26,46,28,-1,28,46,50,-1,28,50,33,-1,33,50,53,-1,33,53,30,-1,30,53,55,-1,30,55,39,-1,39,55,57,-1,39,57,37,-1,37,57,59,-1,37,59,34,-1,34,59,61,-1,34,61,45,-1,45,61,63,-1,45,63,43,-1,72,73,74,-1,74,73,75,-1,73,76,75,-1,75,76,77,-1,76,78,77,-1,77,78,79,-1,78,80,79,-1,79,80,81,-1,80,82,81,-1,81,82,83,-1,82,84,83,-1,83,84,85,-1,84,86,85,-1,85,86,87,-1,86,88,87,-1,87,88,89,-1,88,90,89,-1,89,90,91,-1,90,92,91,-1,91,92,93,-1,92,94,93,-1,93,94,95,-1,94,72,95,-1,95,72,74,-1,72,94,92,-1,92,90,72,-1,72,90,88,-1,72,88,73,-1,78,76,80,-1,80,76,73,-1,80,73,82,-1,82,73,88,-1,82,88,84,-1,84,88,86,-1,96,97,98,-1,96,98,99,-1,99,98,100,-1,99,100,101,-1,101,100,102,-1,101,102,103,-1,103,102,104,-1,103,104,105,-1,96,106,97,-1,97,106,107,-1,108,109,110,-1,108,110,111,-1,111,110,112,-1,111,112,113,-1,113,112,114,-1,113,114,115,-1,115,114,107,-1,115,107,106,-1,116,117,118,-1,116,118,119,-1,119,118,120,-1,119,120,121,-1,121,120,122,-1,121,122,123,-1,123,122,109,-1,123,109,108,-1,124,125,126,-1,124,126,127,-1,127,126,128,-1,127,128,129,-1,129,128,130,-1,129,130,131,-1,131,130,117,-1,131,117,116,-1,132,133,134,-1,132,134,135,-1,135,134,125,-1,135,125,124,-1,132,136,133,-1,133,136,137,-1,138,139,140,-1,138,140,141,-1,141,140,142,-1,141,142,143,-1,142,144,143,-1,143,144,145,-1,143,145,146,-1,146,145,137,-1,146,137,136,-1,147,148,149,-1,147,149,150,-1,150,149,151,-1,150,151,152,-1,152,151,153,-1,152,153,154,-1,154,153,138,-1,138,153,155,-1,138,155,139,-1,156,157,158,-1,156,158,159,-1,159,158,148,-1,159,148,147,-1,105,104,160,-1,105,160,161,-1,161,160,162,-1,161,162,163,-1,163,162,164,-1,163,164,165,-1,165,164,157,-1,165,157,156,-1,136,132,146,-1,146,132,135,-1,156,159,131,-1,131,159,129,-1,129,159,147,-1,129,147,150,-1,106,96,99,-1,106,99,115,-1,115,99,101,-1,115,101,103,-1,150,152,129,-1,129,152,154,-1,129,154,127,-1,127,154,138,-1,127,138,124,-1,124,138,141,-1,124,141,135,-1,135,141,143,-1,135,143,146,-1,131,116,156,-1,156,116,119,-1,156,119,165,-1,165,119,121,-1,165,121,163,-1,163,121,123,-1,163,123,161,-1,161,123,108,-1,161,108,105,-1,105,108,111,-1,105,111,103,-1,103,111,113,-1,103,113,115,-1,166,167,168,-1,168,167,169,-1,167,170,169,-1,169,170,171,-1,170,172,171,-1,171,172,173,-1,172,174,173,-1,173,174,175,-1,174,176,175,-1,175,176,177,-1,176,166,177,-1,177,166,168,-1,170,167,172,-1,172,167,166,-1,172,166,174,-1,174,166,176,-1,
        ]
    }
}
Shape{
    appearance Appearance {
        material  Material 	{
            diffuseColor 0.11372549019607843 0.11372549019607843 0.11372549019607843
            specularColor 0.058823529411764705 0.058823529411764705 0.058823529411764705
            ambientIntensity 0.1137
            transparency 0.0
            shininess 0.5
        }
    }
    geometry IndexedFaceSet {
        ccw TRUE
        solid FALSE
        coord DEF co Coordinate {
            point [
                -0.3812 0.2165 0.0039, -0.3527 0.1564 0.0039, -0.409 0.1564 0.0039, -0.1704 0.2311 0.0039, -0.1704 0.1059 0.0039, -0.1815 0.2311 0.0039, -0.1885 0.1059 0.0039, -0.2058 0.2303 0.0039, -0.2111 0.1065 0.0039, -0.2298 0.2266 0.0039, -0.2335 0.1099 0.0039, -0.256 0.1238 0.0039, -0.2688 0.1469 0.0039, -0.2713 0.1665 0.0039, -0.2644 0.198 0.0039, -0.2473 0.2182 0.0039
            ]
        }
        coordIndex [
            0,1,2,-1,3,4,5,-1,5,4,6,-1,5,6,7,-1,7,6,8,-1,7,8,9,-1,10,11,8,-1,8,11,12,-1,8,12,13,-1,13,14,8,-1,8,14,15,-1,8,15,9,-1,
        ]
    }
}