#VRML V2.0 utf8
# 3D model generated by easyeda2kicad.py (https://github.com/uPesy/easyeda2kicad.py)

Shape{
    appearance Appearance {
        material  Material 	{
            diffuseColor 0.20784313725490197 0.20784313725490197 0.20784313725490197
            specularColor 0.01568627450980392 0.01568627450980392 0.01568627450980392
            ambientIntensity 0.298
            transparency 0.0
            shininess 0.5
        }
    }
    geometry IndexedFaceSet {
        ccw TRUE
        solid FALSE
        coord DEF co Coordinate {
            point [
                -0.315 0.1969 0.2165, -0.315 -0.1969 0.2165, -0.1986 0.1969 0.2165, -0.1986 -0.1969 0.2165, 0.315 -0.1969 0.2165, 0.315 0.1969 0.2165, -0.1665 -0.1969 0.2165, -0.1665 0.1969 0.2165, -0.315 -0.1969 0.0079, -0.315 -0.1772 0.0079, -0.1099 -0.1772 0.0079, -0.0082 0.0104 0.0079, -0.0082 0.1969 0.0079, 0.0206 0.1969 0.0079, -0.1378 -0.0294 0.0079, -0.1378 0.0104 0.0079, -0.1099 0.0104 0.0079, 0.0206 -0.0294 0.0079, 0.0206 0.0104 0.0079, 0.0245 -0.0228 0.0079, 0.0245 -0.0271 0.0079, 0.0287 -0.0289 0.0079, 0.0327 -0.0294 0.0079, 0.0303 0.0104 0.0079, 0.029 0.0103 0.0079, 0.0245 0.0091 0.0079, 0.0245 0.0038 0.0079, 0.0289 0.0057 0.0079, 0.0252 -0.0232 0.0079, 0.0337 0.0063 0.0079, 0.0376 0.0059 0.0079, 0.0405 0.0048 0.0079, 0.0433 0.003 0.0079, 0.0456 0.0004 0.0079, 0.0485 -0.0099 0.0079, 0.0481 -0.0142 0.0079, 0.047 -0.0176 0.0079, 0.0383 -0.0249 0.0079, 0.0346 -0.0253 0.0079, 0.0411 -0.0239 0.0079, 0.0435 -0.0223 0.0079, 0.0454 -0.0203 0.0079, 0.0294 -0.0248 0.0079, 0.0473 -0.0026 0.0079, 0.0483 -0.0069 0.0079, 0.0402 -0.0292 0.0079, 0.044 -0.0279 0.0079, 0.0555 -0.0294 0.0079, 0.0472 -0.0258 0.0079, 0.0501 -0.0227 0.0079, 0.0522 -0.019 0.0079, 0.0517 -0.0002 0.0079, 0.0494 0.0035 0.0079, 0.0555 0.0104 0.0079, 0.0458 0.0069 0.0079, 0.0421 0.0091 0.0079, 0.0377 0.0103 0.0079, 0.0367 0.0104 0.0079, 0.0534 -0.0148 0.0079, 0.0538 -0.0102 0.0079, 0.0532 -0.0046 0.0079, 0.0342 -0.0296 0.0079, 0.0206 -0.1772 0.0079, 0.0555 -0.1772 0.0079, 0.0353 -0.0297 0.0079, 0.0376 -0.0294 0.0079, -0.1378 0.1575 0.0079, -0.1099 0.1969 0.0079, -0.315 0.1969 0.0079, -0.1378 -0.1575 0.0079, -0.2756 -0.1575 0.0079, -0.2756 -0.0294 0.0079, -0.315 -0.0294 0.0079, -0.2756 0.0104 0.0079, -0.315 0.0104 0.0079, -0.2756 0.1181 0.0079, -0.2362 0.1575 0.0079, 0.1378 0.1575 0.0079, 0.1075 0.1969 0.0079, 0.2756 0.1575 0.0079, 0.2953 0.1969 0.0079, 0.2756 0.0104 0.0079, 0.2953 0.0104 0.0079, 0.2756 -0.0294 0.0079, 0.2953 -0.0294 0.0079, 0.2756 -0.1575 0.0079, 0.2953 -0.1772 0.0079, 0.1378 -0.1575 0.0079, 0.1075 -0.1772 0.0079, 0.1378 -0.0294 0.0079, 0.1075 0.0104 0.0079, 0.1378 0.0104 0.0079, 0.1075 -0.0294 0.0079, -0.0451 0.1969 0.0079, -0.0451 0.0104 0.0079, 0.0338 0.0107 0.0079, 0.0555 0.1969 0.0079, -0.0451 -0.0294 0.0079, -0.0466 -0.0292 0.0079, -0.0724 -0.0181 0.0079, -0.0561 -0.0181 0.0079, -0.0763 -0.0292 0.0079, -0.0523 -0.0292 0.0079, -0.0615 0.0102 0.0079, -0.0667 0.0102 0.0079, -0.1099 -0.0294 0.0079, -0.0821 -0.0292 0.0079, -0.0417 -0.0184 0.0079, -0.0395 -0.0219 0.0079, -0.0362 -0.025 0.0079, -0.0321 -0.0274 0.0079, -0.0231 0.0102 0.0079, -0.0288 0.0096 0.0079, -0.0334 0.008 0.0079, -0.0377 0.0051 0.0079, -0.0377 0.005 0.0079, -0.0405 0.002 0.0079, -0.0423 -0.0014 0.0079, -0.0276 -0.0288 0.0079, -0.0227 -0.0292 0.0079, -0.0082 -0.0294 0.0079, -0.012 -0.0292 0.0079, -0.012 0.0102 0.0079, -0.0434 -0.0053 0.0079, -0.0437 -0.009 0.0079, -0.0431 -0.0143 0.0079, -0.0034 0.0102 0.0079, -0.0034 0.0059 0.0079, -0.0043 -0.0249 0.0079, -0.0043 -0.0292 0.0079, 0.0168 -0.0292 0.0079, 0.0168 0.0102 0.0079, 0.0115 -0.0114 0.0079, 0.0115 -0.0249 0.0079, -0.0024 -0.0114 0.0079, -0.0024 -0.0071 0.0079, 0.0115 -0.0071 0.0079, 0.0115 0.0059 0.0079, 0.0571 -0.0249 0.0079, 0.0571 -0.0292 0.0079, 0.0773 -0.0292 0.0079, 0.072 -0.0249 0.0079, 0.072 0.0102 0.0079, 0.0773 0.0102 0.0079, -0.0082 -0.1772 0.0079, -0.0451 -0.1772 0.0079, 0.315 0.1969 0.0079, 0.315 0.0104 0.0079, 0.315 -0.0294 0.0079, 0.315 -0.1772 0.0079, -0.1099 -0.1969 0.0079, -0.0451 -0.1969 0.0079, -0.0082 -0.1969 0.0079, 0.0206 -0.1969 0.0079, 0.0555 -0.1969 0.0079, 0.1075 -0.1969 0.0079, 0.2953 -0.1969 0.0079, 0.315 -0.1969 0.0079
            ]
        }
        coordIndex [
            0,1,2,-1,2,1,3,-1,4,5,6,-1,6,5,7,-1,8,9,10,-1,11,12,13,-1,14,15,16,-1,17,18,19,-1,19,20,17,-1,17,20,21,-1,17,21,22,-1,18,23,24,-1,24,25,18,-1,18,25,26,-1,18,26,19,-1,19,26,27,-1,19,27,28,-1,28,27,29,-1,28,29,30,-1,30,31,28,-1,28,31,32,-1,28,32,33,-1,34,35,28,-1,28,35,36,-1,37,38,39,-1,39,38,40,-1,36,41,28,-1,28,41,40,-1,28,40,42,-1,42,40,38,-1,33,43,28,-1,28,43,44,-1,28,44,34,-1,45,46,47,-1,46,48,47,-1,47,48,49,-1,47,49,50,-1,51,52,53,-1,53,52,54,-1,54,55,53,-1,53,55,56,-1,53,56,57,-1,50,58,47,-1,47,58,59,-1,47,59,53,-1,53,59,60,-1,53,60,51,-1,22,61,62,-1,62,61,63,-1,63,61,64,-1,63,64,65,-1,15,66,67,-1,67,66,68,-1,69,10,70,-1,70,10,9,-1,70,9,71,-1,71,9,72,-1,71,72,73,-1,73,72,74,-1,73,74,75,-1,75,74,68,-1,75,68,76,-1,76,68,66,-1,77,78,79,-1,79,78,80,-1,79,80,81,-1,81,80,82,-1,81,82,83,-1,83,82,84,-1,83,84,85,-1,85,84,86,-1,85,86,87,-1,87,86,88,-1,87,88,89,-1,90,91,92,-1,92,91,89,-1,15,67,16,-1,16,67,93,-1,16,93,94,-1,95,13,57,-1,57,13,96,-1,57,96,53,-1,53,96,78,-1,53,78,90,-1,90,78,77,-1,90,77,91,-1,94,97,98,-1,99,100,101,-1,101,100,102,-1,98,103,94,-1,94,103,104,-1,94,104,16,-1,16,104,105,-1,16,105,14,-1,104,106,105,-1,105,106,101,-1,105,101,97,-1,97,101,102,-1,97,102,98,-1,107,108,97,-1,97,108,109,-1,97,109,110,-1,93,12,94,-1,94,12,11,-1,94,11,111,-1,111,112,94,-1,94,112,113,-1,94,113,114,-1,114,115,94,-1,94,115,116,-1,94,116,117,-1,110,118,97,-1,97,118,119,-1,97,119,120,-1,120,119,121,-1,120,121,11,-1,11,121,122,-1,11,122,111,-1,117,123,94,-1,94,123,124,-1,94,124,97,-1,97,124,125,-1,97,125,107,-1,95,23,13,-1,13,23,18,-1,13,18,11,-1,11,18,126,-1,126,127,11,-1,11,127,128,-1,11,128,120,-1,120,128,129,-1,120,129,17,-1,17,129,130,-1,17,130,18,-1,18,130,131,-1,18,131,126,-1,132,133,134,-1,134,133,128,-1,134,128,135,-1,135,128,127,-1,135,127,136,-1,136,127,137,-1,53,138,47,-1,47,138,139,-1,47,139,140,-1,141,138,142,-1,142,138,53,-1,142,53,143,-1,143,53,90,-1,143,90,140,-1,140,90,92,-1,140,92,47,-1,22,62,17,-1,17,62,144,-1,17,144,120,-1,120,144,145,-1,120,145,97,-1,97,145,10,-1,97,10,105,-1,105,10,69,-1,105,69,14,-1,89,88,92,-1,92,88,63,-1,92,63,47,-1,47,63,65,-1,47,65,45,-1,80,146,82,-1,82,146,147,-1,82,147,84,-1,84,147,148,-1,84,148,86,-1,86,148,149,-1,8,10,150,-1,150,10,145,-1,150,145,151,-1,151,145,144,-1,151,144,152,-1,152,144,62,-1,152,62,153,-1,153,62,63,-1,153,63,154,-1,154,63,88,-1,154,88,155,-1,155,88,86,-1,155,86,156,-1,156,86,149,-1,156,149,157,-1,157,149,4,-1,4,149,148,-1,4,148,5,-1,5,148,147,-1,5,147,146,-1,146,80,5,-1,5,80,78,-1,5,78,7,-1,78,96,7,-1,7,96,13,-1,7,13,12,-1,12,93,7,-1,7,93,67,-1,7,67,2,-1,2,67,68,-1,2,68,0,-1,9,8,1,-1,0,68,74,-1,0,74,1,-1,1,74,72,-1,1,72,9,-1,156,157,4,-1,1,8,3,-1,3,8,150,-1,3,150,6,-1,6,150,151,-1,6,151,152,-1,152,153,6,-1,6,153,154,-1,6,154,4,-1,4,154,155,-1,4,155,156,-1,
        ]
    }
}
Shape{
    appearance Appearance {
        material  Material 	{
            diffuseColor 0.34901960784313724 0.34901960784313724 0.34901960784313724
            specularColor 0.023529411764705882 0.023529411764705882 0.023529411764705882
            ambientIntensity 0.498
            transparency 0.0
            shininess 0.5
        }
    }
    geometry IndexedFaceSet {
        ccw TRUE
        solid FALSE
        coord DEF co Coordinate {
            point [
                -0.1986 -0.1969 0.2165, -0.1665 -0.1969 0.2165, -0.1986 0.1969 0.2165, -0.1665 0.1969 0.2165
            ]
        }
        coordIndex [
            0,1,2,-1,2,1,3,-1,
        ]
    }
}
Shape{
    appearance Appearance {
        material  Material 	{
            diffuseColor 0.6666666666666666 0.6666666666666666 0.6666666666666666
            specularColor 0.4666666666666667 0.4666666666666667 0.4666666666666667
            ambientIntensity 0.6667
            transparency 0.0
            shininess 0.5
        }
    }
    geometry IndexedFaceSet {
        ccw TRUE
        solid FALSE
        coord DEF co Coordinate {
            point [
                0.1378 -0.1575 0.0079, 0.1378 -0.0294 0.0079, 0.1378 -0.1575 0.0, 0.1378 0.0104 0.0079, 0.1378 0.1575 0.0, 0.1378 0.1575 0.0079, 0.2756 0.1575 0.0, 0.2756 0.1575 0.0079, 0.2756 -0.0294 0.0079, 0.2756 -0.1575 0.0079, 0.2756 -0.1575 0.0, 0.2756 0.0104 0.0079, -0.1378 -0.0294 0.0079, -0.1378 -0.1575 0.0079, -0.1378 -0.1575 0.0, -0.1378 0.0104 0.0079, -0.1378 0.1575 0.0, -0.1378 0.1575 0.0079, -0.2756 -0.1575 0.0, -0.2756 -0.1575 0.0079, -0.2756 0.0104 0.0079, -0.2756 0.1181 0.0079, -0.2756 0.1181 0.0, -0.2756 -0.0294 0.0079, -0.2362 0.1575 0.0, -0.2362 0.1575 0.0079
            ]
        }
        coordIndex [
            0,1,2,-1,2,1,3,-1,2,3,4,-1,4,3,5,-1,6,4,7,-1,7,4,5,-1,8,9,10,-1,8,10,11,-1,11,10,6,-1,11,6,7,-1,2,10,0,-1,0,10,9,-1,6,10,4,-1,4,10,2,-1,12,13,14,-1,12,14,15,-1,15,14,16,-1,15,16,17,-1,18,14,19,-1,19,14,13,-1,20,21,22,-1,20,22,23,-1,23,22,18,-1,23,18,19,-1,24,22,25,-1,25,22,21,-1,16,24,17,-1,17,24,25,-1,18,22,14,-1,14,22,24,-1,14,24,16,-1,
        ]
    }
}
Shape{
    appearance Appearance {
        material  Material 	{
            diffuseColor 1.0 1.0 1.0
            specularColor 0.8784313725490196 0.8784313725490196 0.8784313725490196
            ambientIntensity 1.0
            transparency 0.0
            shininess 0.5
        }
    }
    geometry IndexedFaceSet {
        ccw TRUE
        solid FALSE
        coord DEF co Coordinate {
            point [
                -0.0821 -0.0292 0.0118, -0.0821 -0.0292 0.0079, -0.0667 0.0102 0.0118, -0.0667 0.0102 0.0079, -0.0763 -0.0292 0.0118, -0.0763 -0.0292 0.0079, -0.0724 -0.0181 0.0118, -0.0724 -0.0181 0.0079, -0.0561 -0.0181 0.0118, -0.0561 -0.0181 0.0079, -0.0523 -0.0292 0.0118, -0.0523 -0.0292 0.0079, -0.0466 -0.0292 0.0118, -0.0466 -0.0292 0.0079, -0.0615 0.0102 0.0118, -0.0615 0.0102 0.0079, -0.0574 -0.0138 0.0118, -0.0706 -0.0138 0.0118, -0.0633 0.0026 0.0118, -0.0637 0.004 0.0118, -0.0639 0.0054 0.0118, -0.0641 0.0054 0.0118, -0.0643 0.004 0.0118, -0.0647 0.0026 0.0118, -0.0706 -0.0138 0.0079, -0.0574 -0.0138 0.0079, -0.0633 0.0026 0.0079, -0.0637 0.004 0.0079, -0.0639 0.0054 0.0079, -0.0641 0.0054 0.0079, -0.0643 0.004 0.0079, -0.0647 0.0026 0.0079, -0.012 -0.0292 0.0118, -0.012 -0.0292 0.0079, -0.0227 -0.0292 0.0118, -0.0227 -0.0292 0.0079, -0.012 0.0102 0.0118, -0.012 0.0102 0.0079, -0.0231 0.0102 0.0118, -0.0231 0.0102 0.0079, -0.0437 -0.009 0.0118, -0.0437 -0.009 0.0079, -0.0434 -0.0053 0.0079, -0.0434 -0.0053 0.0118, -0.0423 -0.0014 0.0079, -0.0423 -0.0014 0.0118, -0.0405 0.002 0.0079, -0.0405 0.002 0.0118, -0.0377 0.005 0.0079, -0.0377 0.005 0.0118, -0.0377 0.0051 0.0079, -0.0377 0.0051 0.0118, -0.0334 0.008 0.0079, -0.0334 0.008 0.0118, -0.0288 0.0096 0.0079, -0.0288 0.0096 0.0118, -0.0276 -0.0288 0.0079, -0.0276 -0.0288 0.0118, -0.0321 -0.0274 0.0079, -0.0321 -0.0274 0.0118, -0.0362 -0.025 0.0079, -0.0362 -0.025 0.0118, -0.0395 -0.0219 0.0079, -0.0395 -0.0219 0.0118, -0.0417 -0.0184 0.0079, -0.0417 -0.0184 0.0118, -0.0431 -0.0143 0.0079, -0.0431 -0.0143 0.0118, -0.0358 0.0003 0.0118, -0.0339 0.0024 0.0118, -0.031 0.0042 0.0118, -0.0278 0.0054 0.0118, -0.0231 0.0059 0.0118, -0.0173 0.0059 0.0118, -0.0173 -0.0249 0.0118, -0.0229 -0.0249 0.0118, -0.027 -0.0245 0.0118, -0.0303 -0.0234 0.0118, -0.033 -0.0219 0.0118, -0.0352 -0.0197 0.0118, -0.0369 -0.017 0.0118, -0.038 -0.0133 0.0118, -0.0384 -0.0091 0.0118, -0.0381 -0.0052 0.0118, -0.0372 -0.0021 0.0118, -0.0173 0.0059 0.0079, -0.0231 0.0059 0.0079, -0.0278 0.0054 0.0079, -0.031 0.0042 0.0079, -0.0339 0.0024 0.0079, -0.0358 0.0003 0.0079, -0.0372 -0.0021 0.0079, -0.0381 -0.0052 0.0079, -0.0384 -0.0091 0.0079, -0.038 -0.0133 0.0079, -0.0369 -0.017 0.0079, -0.0352 -0.0197 0.0079, -0.033 -0.0219 0.0079, -0.0303 -0.0234 0.0079, -0.027 -0.0245 0.0079, -0.0229 -0.0249 0.0079, -0.0173 -0.0249 0.0079, -0.0043 -0.0292 0.0118, -0.0043 -0.0292 0.0079, -0.0043 -0.0249 0.0118, -0.0043 -0.0249 0.0079, 0.0168 -0.0292 0.0118, 0.0168 -0.0292 0.0079, 0.0168 0.0102 0.0118, 0.0168 0.0102 0.0079, -0.0034 0.0102 0.0118, -0.0034 0.0102 0.0079, -0.0034 0.0059 0.0118, -0.0034 0.0059 0.0079, 0.0115 0.0059 0.0118, 0.0115 0.0059 0.0079, 0.0115 -0.0071 0.0118, 0.0115 -0.0071 0.0079, -0.0024 -0.0071 0.0118, -0.0024 -0.0071 0.0079, -0.0024 -0.0114 0.0118, -0.0024 -0.0114 0.0079, 0.0115 -0.0114 0.0118, 0.0115 -0.0114 0.0079, 0.0115 -0.0249 0.0118, 0.0115 -0.0249 0.0079, 0.0245 -0.0271 0.0118, 0.0245 -0.0271 0.0079, 0.0245 -0.0228 0.0118, 0.0245 -0.0228 0.0079, 0.0287 -0.0289 0.0118, 0.0353 -0.0297 0.0118, 0.0353 -0.0297 0.0079, 0.0342 -0.0296 0.0079, 0.0342 -0.0296 0.0118, 0.0327 -0.0294 0.0079, 0.0287 -0.0289 0.0079, 0.0538 -0.0102 0.0118, 0.0538 -0.0102 0.0079, 0.0534 -0.0148 0.0079, 0.0534 -0.0148 0.0118, 0.0522 -0.019 0.0079, 0.0522 -0.019 0.0118, 0.0501 -0.0227 0.0079, 0.0501 -0.0227 0.0118, 0.0472 -0.0258 0.0079, 0.0472 -0.0258 0.0118, 0.044 -0.0279 0.0079, 0.044 -0.0279 0.0118, 0.0402 -0.0292 0.0079, 0.0402 -0.0292 0.0118, 0.0376 -0.0294 0.0079, 0.0338 0.0107 0.0079, 0.0367 0.0104 0.0079, 0.0338 0.0107 0.0118, 0.0377 0.0103 0.0118, 0.0377 0.0103 0.0079, 0.0421 0.0091 0.0079, 0.0421 0.0091 0.0118, 0.0458 0.0069 0.0079, 0.0458 0.0069 0.0118, 0.0494 0.0035 0.0079, 0.0494 0.0035 0.0118, 0.0517 -0.0002 0.0079, 0.0517 -0.0002 0.0118, 0.0532 -0.0046 0.0079, 0.0532 -0.0046 0.0118, 0.0303 0.0104 0.0079, 0.029 0.0103 0.0118, 0.029 0.0103 0.0079, 0.0245 0.0091 0.0118, 0.0245 0.0091 0.0079, 0.0245 0.0038 0.0118, 0.0245 0.0038 0.0079, 0.0337 0.0063 0.0118, 0.0337 0.0063 0.0079, 0.0289 0.0057 0.0079, 0.0289 0.0057 0.0118, 0.0485 -0.0099 0.0118, 0.0485 -0.0099 0.0079, 0.0483 -0.0069 0.0079, 0.0483 -0.0069 0.0118, 0.0473 -0.0026 0.0079, 0.0473 -0.0026 0.0118, 0.0456 0.0004 0.0079, 0.0456 0.0004 0.0118, 0.0433 0.003 0.0079, 0.0433 0.003 0.0118, 0.0405 0.0048 0.0079, 0.0405 0.0048 0.0118, 0.0376 0.0059 0.0079, 0.0376 0.0059 0.0118, 0.0346 -0.0253 0.0118, 0.0346 -0.0253 0.0079, 0.0383 -0.0249 0.0079, 0.0383 -0.0249 0.0118, 0.0411 -0.0239 0.0079, 0.0411 -0.0239 0.0118, 0.0435 -0.0223 0.0079, 0.0435 -0.0223 0.0118, 0.0454 -0.0203 0.0079, 0.0454 -0.0203 0.0118, 0.047 -0.0176 0.0079, 0.047 -0.0176 0.0118, 0.0481 -0.0142 0.0079, 0.0481 -0.0142 0.0118, 0.0252 -0.0232 0.0079, 0.0252 -0.0232 0.0118, 0.0294 -0.0248 0.0079, 0.0294 -0.0248 0.0118, 0.0571 -0.0292 0.0118, 0.0571 -0.0292 0.0079, 0.0571 -0.0249 0.0118, 0.0571 -0.0249 0.0079, 0.0773 -0.0292 0.0118, 0.0773 -0.0292 0.0079, 0.0773 0.0102 0.0118, 0.0773 0.0102 0.0079, 0.072 0.0102 0.0118, 0.072 0.0102 0.0079, 0.072 -0.0249 0.0118, 0.072 -0.0249 0.0079
            ]
        }
        coordIndex [
            0,1,2,-1,2,1,3,-1,4,5,0,-1,0,5,1,-1,6,7,4,-1,4,7,5,-1,8,9,6,-1,6,9,7,-1,10,11,8,-1,8,11,9,-1,12,13,10,-1,10,13,11,-1,14,15,12,-1,12,15,13,-1,2,3,14,-1,14,3,15,-1,16,8,17,-1,17,8,6,-1,18,14,16,-1,16,14,12,-1,16,12,8,-1,8,12,10,-1,18,19,14,-1,14,19,20,-1,14,20,2,-1,2,20,21,-1,2,21,22,-1,22,23,2,-1,2,23,17,-1,2,17,0,-1,0,17,6,-1,0,6,4,-1,17,24,16,-1,16,24,25,-1,16,25,18,-1,18,25,26,-1,18,26,27,-1,18,27,19,-1,19,27,28,-1,19,28,20,-1,20,28,21,-1,21,28,29,-1,21,29,30,-1,21,30,22,-1,22,30,31,-1,22,31,23,-1,23,31,17,-1,17,31,24,-1,32,33,34,-1,34,33,35,-1,36,37,32,-1,32,37,33,-1,38,39,36,-1,36,39,37,-1,40,41,42,-1,40,42,43,-1,43,42,44,-1,43,44,45,-1,45,44,46,-1,45,46,47,-1,47,46,48,-1,47,48,49,-1,49,48,50,-1,49,50,51,-1,51,50,52,-1,51,52,53,-1,53,52,54,-1,53,54,55,-1,55,54,39,-1,55,39,38,-1,34,35,56,-1,34,56,57,-1,57,56,58,-1,57,58,59,-1,59,58,60,-1,59,60,61,-1,61,60,62,-1,61,62,63,-1,63,62,64,-1,63,64,65,-1,65,64,66,-1,65,66,67,-1,67,66,41,-1,67,41,40,-1,45,47,68,-1,68,47,49,-1,68,49,69,-1,69,49,51,-1,69,51,70,-1,70,51,53,-1,70,53,71,-1,71,53,55,-1,71,55,72,-1,72,55,38,-1,72,38,73,-1,73,38,36,-1,73,36,74,-1,74,36,32,-1,74,32,75,-1,75,32,34,-1,75,34,76,-1,76,34,57,-1,76,57,77,-1,77,57,59,-1,77,59,78,-1,78,59,61,-1,78,61,79,-1,79,61,63,-1,79,63,80,-1,80,63,65,-1,80,65,81,-1,81,65,67,-1,81,67,82,-1,82,67,40,-1,82,40,83,-1,83,40,43,-1,83,43,84,-1,84,43,45,-1,84,45,68,-1,73,85,72,-1,72,85,86,-1,72,86,87,-1,72,87,71,-1,71,87,88,-1,71,88,70,-1,70,88,89,-1,70,89,69,-1,69,89,90,-1,69,90,68,-1,68,90,91,-1,68,91,84,-1,84,91,92,-1,84,92,83,-1,83,92,93,-1,83,93,82,-1,82,93,94,-1,82,94,81,-1,81,94,95,-1,81,95,80,-1,80,95,96,-1,80,96,79,-1,79,96,97,-1,79,97,78,-1,78,97,98,-1,78,98,77,-1,77,98,99,-1,77,99,76,-1,76,99,100,-1,76,100,75,-1,75,100,74,-1,74,100,101,-1,74,101,73,-1,73,101,85,-1,102,103,104,-1,104,103,105,-1,106,107,102,-1,102,107,103,-1,108,109,106,-1,106,109,107,-1,110,111,108,-1,108,111,109,-1,112,113,110,-1,110,113,111,-1,114,115,112,-1,112,115,113,-1,116,117,114,-1,114,117,115,-1,118,119,116,-1,116,119,117,-1,120,121,118,-1,118,121,119,-1,122,123,120,-1,120,123,121,-1,124,125,122,-1,122,125,123,-1,104,105,124,-1,124,105,125,-1,106,102,104,-1,104,124,106,-1,106,124,122,-1,106,122,108,-1,112,110,114,-1,114,110,108,-1,114,108,116,-1,116,108,122,-1,116,122,118,-1,118,122,120,-1,126,127,128,-1,128,127,129,-1,127,126,130,-1,131,132,133,-1,131,133,134,-1,134,133,135,-1,134,135,130,-1,130,135,136,-1,130,136,127,-1,137,138,139,-1,137,139,140,-1,140,139,141,-1,140,141,142,-1,142,141,143,-1,142,143,144,-1,144,143,145,-1,144,145,146,-1,146,145,147,-1,146,147,148,-1,148,147,149,-1,148,149,150,-1,150,149,131,-1,131,149,151,-1,131,151,132,-1,152,153,154,-1,154,153,155,-1,153,156,155,-1,155,156,157,-1,155,157,158,-1,158,157,159,-1,158,159,160,-1,160,159,161,-1,160,161,162,-1,162,161,163,-1,162,163,164,-1,164,163,165,-1,164,165,166,-1,166,165,138,-1,166,138,137,-1,152,154,167,-1,167,154,168,-1,167,168,169,-1,169,168,170,-1,169,170,171,-1,172,173,170,-1,170,173,171,-1,174,175,176,-1,174,176,177,-1,177,176,173,-1,177,173,172,-1,178,179,180,-1,178,180,181,-1,181,180,182,-1,181,182,183,-1,183,182,184,-1,183,184,185,-1,185,184,186,-1,185,186,187,-1,187,186,188,-1,187,188,189,-1,189,188,190,-1,189,190,191,-1,191,190,175,-1,191,175,174,-1,192,193,194,-1,192,194,195,-1,195,194,196,-1,195,196,197,-1,197,196,198,-1,197,198,199,-1,199,198,200,-1,199,200,201,-1,201,200,202,-1,201,202,203,-1,203,202,204,-1,203,204,205,-1,205,204,179,-1,205,179,178,-1,128,129,206,-1,128,206,207,-1,207,206,208,-1,207,208,209,-1,209,208,193,-1,209,193,192,-1,195,131,192,-1,192,131,134,-1,192,134,209,-1,209,134,130,-1,209,130,207,-1,207,130,126,-1,207,126,128,-1,172,170,177,-1,177,170,168,-1,177,168,174,-1,174,168,154,-1,174,154,191,-1,191,154,155,-1,191,155,189,-1,189,155,158,-1,189,158,187,-1,187,158,160,-1,187,160,185,-1,185,160,162,-1,185,162,183,-1,183,162,164,-1,183,164,181,-1,181,164,166,-1,181,166,178,-1,178,166,137,-1,178,137,205,-1,205,137,140,-1,205,140,203,-1,203,140,142,-1,203,142,201,-1,201,142,144,-1,201,144,199,-1,199,144,146,-1,199,146,197,-1,197,146,148,-1,197,148,195,-1,195,148,150,-1,195,150,131,-1,210,211,212,-1,212,211,213,-1,214,215,210,-1,210,215,211,-1,216,217,214,-1,214,217,215,-1,218,219,216,-1,216,219,217,-1,220,221,218,-1,218,221,219,-1,212,213,220,-1,220,213,221,-1,218,216,220,-1,220,216,214,-1,220,214,212,-1,212,214,210,-1,
        ]
    }
}
Shape{
    appearance Appearance {
        material  Material 	{
            diffuseColor 0.20784313725490197 0.20784313725490197 0.20784313725490197
            specularColor 0.01568627450980392 0.01568627450980392 0.01568627450980392
            ambientIntensity 0.298
            transparency 0.0
            shininess 0.5
        }
    }
    geometry IndexedFaceSet {
        ccw TRUE
        solid FALSE
        coord DEF co Coordinate {
            point [
                -0.0574 -0.0138 0.0079, -0.0706 -0.0138 0.0079, -0.0633 0.0026 0.0079, -0.0647 0.0026 0.0079, -0.0637 0.004 0.0079, -0.0643 0.004 0.0079, -0.0639 0.0054 0.0079, -0.0641 0.0054 0.0079, -0.0173 0.0059 0.0079, -0.0173 -0.0249 0.0079, -0.0231 0.0059 0.0079, -0.0229 -0.0249 0.0079, -0.027 -0.0245 0.0079, -0.0384 -0.0091 0.0079, -0.0381 -0.0052 0.0079, -0.0372 -0.0021 0.0079, -0.0278 0.0054 0.0079, -0.0303 -0.0234 0.0079, -0.033 -0.0219 0.0079, -0.0352 -0.0197 0.0079, -0.0369 -0.017 0.0079, -0.038 -0.0133 0.0079, -0.0358 0.0003 0.0079, -0.0339 0.0024 0.0079, -0.031 0.0042 0.0079
            ]
        }
        coordIndex [
            0,1,2,-1,2,1,3,-1,2,3,4,-1,4,3,5,-1,4,5,6,-1,6,5,7,-1,8,9,10,-1,10,9,11,-1,10,11,12,-1,13,14,10,-1,10,14,15,-1,10,15,16,-1,12,17,10,-1,10,17,18,-1,10,18,19,-1,19,20,10,-1,10,20,21,-1,10,21,13,-1,22,23,15,-1,15,23,24,-1,15,24,16,-1,
        ]
    }
}