#VRML V2.0 utf8
# 3D model generated by easyeda2kicad.py (https://github.com/uPesy/easyeda2kicad.py)

Shape{
    appearance Appearance {
        material  Material 	{
            diffuseColor 1.0 1.0 1.0
            specularColor 0.5019607843137255 0.5019607843137255 0.5019607843137255
            ambientIntensity 1.0
            transparency 0.0
            shininess 0.5
        }
    }
    geometry IndexedFaceSet {
        ccw TRUE
        solid FALSE
        coord DEF co Coordinate {
            point [
                0.0637 0.0274 0.0546, 0.0714 0.0266 0.0546, 0.0466 -0.0317 0.0546, 0.1509 -0.0436 0.0546, 0.0715 -0.0441 0.0546, 0.1105 -0.0436 0.0546, 0.0766 -0.0436 0.0546, 0.0842 -0.041 0.0546, 0.0541 0.0262 0.0546, 0.0452 -0.0309 0.0546, 0.0452 0.0224 0.0546, 0.0376 0.3982 0.0546, 0.0452 0.0329 0.0546, 0.0773 0.0244 0.0546, 0.0828 0.0208 0.0546, 0.0875 0.0155 0.0546, 0.0932 -0.0051 0.0546, 0.0924 -0.0136 0.0546, 0.0903 -0.0204 0.0546, 0.0728 -0.0351 0.0546, 0.0654 -0.036 0.0546, 0.0785 -0.033 0.0546, 0.0834 -0.0298 0.0546, 0.0871 -0.0259 0.0546, 0.055 -0.0348 0.0546, 0.0908 0.0095 0.0546, 0.0929 0.001 0.0546, 0.0906 -0.0369 0.0546, 0.0965 -0.0307 0.0546, 0.1105 -0.035 0.0546, 0.1007 -0.0232 0.0546, 0.1403 -0.035 0.0546, 0.095 0.0217 0.0546, 0.0879 0.0286 0.0546, 0.0804 0.0329 0.0546, 0.0717 0.0354 0.0546, 0.103 -0.0149 0.0546, 0.1038 -0.0058 0.0546, 0.1403 0.0351 0.0546, 0.1027 0.0054 0.0546, 0.0997 0.0144 0.0546, 0.0638 0.0361 0.0546, 0.0543 0.0354 0.0546, 0.0452 -0.0396 0.0546, 0.0536 -0.043 0.0546, 0.0376 -0.0441 0.0546, 0.0616 -0.0441 0.0546, 0.0376 -0.3982 0.0546, 0.0647 -0.0446 0.0546, 0.0669 -0.0446 0.0546, 0.1509 0.0351 0.0546, 1.1024 0.3982 0.0546, 1.1024 -0.0441 0.0546, 1.1024 -0.3982 0.0546, -0.0105 0.0351 0.0546, -1.1024 0.3982 0.0546, 0.0299 0.0351 0.0546, -0.0969 -0.0436 0.0546, -0.0872 -0.0221 0.0546, -0.0827 -0.0291 0.0546, -1.1024 -0.0441 0.0546, -0.1372 0.0351 0.0546, 0.0193 0.0265 0.0546, 0.0193 0.0005 0.0546, -0.0105 0.0265 0.0546, -0.0085 0.0005 0.0546, -0.0085 -0.0081 0.0546, -0.0277 -0.0436 0.0546, -0.0277 0.0351 0.0546, -0.0762 -0.0353 0.0546, -0.068 -0.0401 0.0546, -0.0589 -0.0428 0.0546, -0.1267 0.0351 0.0546, -0.0613 0.0339 0.0546, -0.0706 0.0307 0.0546, -0.0791 0.0249 0.0546, -0.05 0.0351 0.0546, -0.0792 0.0248 0.0546, -0.0848 0.0187 0.0546, -0.0884 0.0119 0.0546, -0.0906 0.0041 0.0546, -0.0911 -0.0033 0.0546, -0.09 -0.0138 0.0546, -0.1679 -0.0436 0.0546, -0.1564 -0.0436 0.0546, -0.0492 -0.0436 0.0546, 0.0193 -0.0081 0.0546, 0.0193 -0.035 0.0546, -0.0124 -0.035 0.0546, -0.0124 -0.0436 0.0546, 0.0299 -0.0436 0.0546, -0.1485 -0.0215 0.0546, -0.1159 -0.0215 0.0546, -0.1084 -0.0436 0.0546, -1.1024 -0.3982 0.0546
            ]
        }
        coordIndex [
            0,1,2,-1,3,4,5,-1,5,4,6,-1,5,6,7,-1,0,2,8,-1,8,2,9,-1,8,9,10,-1,10,9,11,-1,10,11,12,-1,1,13,2,-1,2,13,14,-1,2,14,15,-1,16,17,2,-1,2,17,18,-1,19,20,21,-1,21,20,22,-1,18,23,2,-1,2,23,22,-1,2,22,24,-1,24,22,20,-1,15,25,2,-1,2,25,26,-1,2,26,16,-1,7,27,5,-1,5,27,28,-1,5,28,29,-1,29,28,30,-1,29,30,31,-1,32,33,11,-1,11,33,34,-1,11,34,35,-1,30,36,31,-1,31,36,37,-1,31,37,38,-1,38,37,39,-1,38,39,40,-1,35,41,11,-1,11,41,42,-1,11,42,12,-1,43,44,45,-1,45,44,46,-1,45,46,47,-1,46,48,47,-1,47,48,49,-1,47,49,4,-1,40,32,38,-1,38,32,11,-1,38,11,50,-1,50,11,51,-1,50,51,3,-1,3,51,52,-1,3,52,4,-1,4,52,53,-1,4,53,47,-1,54,55,56,-1,56,55,11,-1,56,11,45,-1,45,11,9,-1,45,9,43,-1,57,58,59,-1,60,55,61,-1,62,63,64,-1,64,63,65,-1,66,67,65,-1,65,67,68,-1,65,68,64,-1,59,69,57,-1,57,69,70,-1,57,70,71,-1,61,55,72,-1,73,74,72,-1,72,74,75,-1,73,72,76,-1,76,72,55,-1,76,55,68,-1,68,55,54,-1,68,54,64,-1,75,77,72,-1,72,77,78,-1,72,78,79,-1,79,80,72,-1,72,80,81,-1,72,81,57,-1,57,81,82,-1,57,82,58,-1,83,84,45,-1,45,85,67,-1,86,87,66,-1,66,87,88,-1,66,88,67,-1,67,88,89,-1,67,89,45,-1,45,89,90,-1,45,90,56,-1,91,92,84,-1,84,92,93,-1,84,93,45,-1,45,93,57,-1,45,57,85,-1,85,57,71,-1,61,83,60,-1,60,83,45,-1,60,45,94,-1,94,45,47,-1,
        ]
    }
}
Shape{
    appearance Appearance {
        material  Material 	{
            diffuseColor 1.0 0.8274509803921568 0.41568627450980394
            specularColor 0.5019607843137255 0.4117647058823529 0.20784313725490197
            ambientIntensity 0.8321
            transparency 0.0
            shininess 0.5
        }
    }
    geometry IndexedFaceSet {
        ccw TRUE
        solid FALSE
        coord DEF co Coordinate {
            point [
                0.6299 0.4348 1.0059, 0.6299 0.4173 1.0079, 0.6299 0.4331 1.0236, 0.6299 -0.4331 1.0236, 0.6299 -0.4173 1.0079, 0.6299 -0.4377 1.0052, 0.6299 -0.4535 1.0209, 0.6299 -0.4567 0.9973, 0.6299 0.5118 0.0787, 0.6299 0.5091 0.0584, 0.6299 0.4855 0.0551, 0.6299 0.5013 0.0394, 0.6299 0.473 0.0388, 0.6299 0.4887 0.0231, 0.6299 0.4567 0.0263, 0.6299 -0.5118 0.9449, 0.6299 -0.5091 0.9653, 0.6299 -0.4855 0.9685, 0.6299 -0.5013 0.9843, 0.6299 -0.473 0.9848, 0.6299 -0.4887 1.0006, 0.6299 -0.4724 1.0131, 0.6299 -0.4934 0.9495, 0.6299 -0.4961 0.9291, 0.6299 -0.5118 0.0787, 0.6299 -0.4331 0.0, 0.6299 -0.4535 0.0027, 0.6299 -0.4567 0.0263, 0.6299 -0.4724 0.0105, 0.6299 -0.473 0.0388, 0.6299 -0.4887 0.0231, 0.6299 -0.4855 0.0551, 0.6299 -0.4377 0.0184, 0.6299 -0.4173 0.0157, 0.6299 0.4331 0.0, 0.6299 0.4515 1.0001, 0.6299 0.4535 1.0209, 0.6299 0.4664 0.9907, 0.6299 -0.5013 0.0394, 0.6299 -0.5091 0.0584, 0.6299 -0.4934 0.0741, 0.6299 -0.4961 0.0945, 0.6299 0.4724 0.0105, 0.6299 0.4535 0.0027, 0.6299 0.4377 0.0184, 0.6299 0.4173 0.0157, 0.6299 0.4934 0.0741, 0.6299 0.4961 0.0945, 0.6299 0.5118 0.9449, 0.6299 0.4961 0.9291, 0.6299 0.4941 0.9467, 0.6299 0.5091 0.9653, 0.6299 0.4883 0.9633, 0.6299 0.5013 0.9843, 0.6299 0.4789 0.9782, 0.6299 0.4887 1.0006, 0.6299 0.4724 1.0131, 1.122 -0.4331 1.0236, 1.122 0.4331 1.0236, 1.122 0.5118 0.9449, 1.122 0.5118 0.0787, 1.122 0.4331 0.0, 1.122 -0.4331 0.0, 1.122 -0.5118 0.0787, 1.122 -0.5118 0.9449, 1.122 -0.4535 0.0027, 1.122 -0.4724 0.0105, 1.122 -0.4887 0.0231, 1.122 -0.5013 0.0394, 1.122 -0.5091 0.0584, 1.122 -0.5091 0.9653, 1.122 -0.5013 0.9843, 1.122 -0.4887 1.0006, 1.122 -0.4724 1.0131, 1.122 -0.4535 1.0209, 1.122 0.5091 0.0584, 1.122 0.5013 0.0394, 1.122 0.4887 0.0231, 1.122 0.4724 0.0105, 1.122 0.4535 0.0027, 1.122 0.4535 1.0209, 1.122 0.4724 1.0131, 1.122 0.4887 1.0006, 1.122 0.5013 0.9843, 1.122 0.5091 0.9653, 1.2008 0.4331 0.9449, 1.2008 -0.4331 0.9449, 1.2008 0.4331 0.0787, 1.2008 -0.4331 0.0787, 1.1424 -0.5091 0.0787, 1.1424 -0.5091 0.9449, 1.1614 -0.5013 0.0787, 1.1614 -0.5013 0.9449, 1.1777 -0.4887 0.0787, 1.1777 -0.4887 0.9449, 1.1902 -0.4724 0.0787, 1.1902 -0.4724 0.9449, 1.1981 -0.4535 0.0787, 1.1981 -0.4535 0.9449, 1.1955 -0.4528 0.0584, 1.1879 -0.4711 0.0584, 1.1879 -0.4507 0.0394, 1.1811 -0.4672 0.0394, 1.1758 -0.4475 0.0231, 1.1703 -0.4609 0.0231, 1.1601 -0.4433 0.0105, 1.1561 -0.4528 0.0105, 1.1417 -0.4383 0.0027, 1.1397 -0.4433 0.0027, 1.1758 -0.4869 0.0584, 1.1703 -0.4813 0.0394, 1.1614 -0.4724 0.0231, 1.1499 -0.4609 0.0105, 1.1365 -0.4475 0.0027, 1.1981 -0.4331 0.0584, 1.1902 -0.4331 0.0394, 1.1777 -0.4331 0.0231, 1.1614 -0.4331 0.0105, 1.1424 -0.4331 0.0027, 1.1601 -0.4989 0.0584, 1.1417 -0.5065 0.0584, 1.1561 -0.4921 0.0394, 1.1397 -0.4989 0.0394, 1.1499 -0.4813 0.0231, 1.1365 -0.4869 0.0231, 1.1417 -0.4672 0.0105, 1.1322 -0.4711 0.0105, 1.1322 -0.4507 0.0027, 1.1273 -0.4528 0.0027, 1.1981 -0.4331 0.9653, 1.1955 -0.4528 0.9653, 1.1561 -0.4528 1.0131, 1.1397 -0.4433 1.0209, 1.1365 -0.4475 1.0209, 1.1273 -0.4528 1.0209, 1.1417 -0.4383 1.0209, 1.1601 -0.4433 1.0131, 1.1758 -0.4475 1.0006, 1.1424 -0.4331 1.0209, 1.1499 -0.4609 1.0131, 1.1322 -0.4507 1.0209, 1.1417 -0.4672 1.0131, 1.1322 -0.4711 1.0131, 1.1614 -0.4331 1.0131, 1.1777 -0.4331 1.0006, 1.1902 -0.4331 0.9843, 1.1703 -0.4609 1.0006, 1.1614 -0.4724 1.0006, 1.1499 -0.4813 1.0006, 1.1365 -0.4869 1.0006, 1.1879 -0.4507 0.9843, 1.1811 -0.4672 0.9843, 1.1703 -0.4813 0.9843, 1.1561 -0.4921 0.9843, 1.1397 -0.4989 0.9843, 1.1879 -0.4711 0.9653, 1.1758 -0.4869 0.9653, 1.1601 -0.4989 0.9653, 1.1417 -0.5065 0.9653, 1.1424 0.4331 0.0027, 1.1614 0.4331 0.0105, 1.1777 0.4331 0.0231, 1.1902 0.4331 0.0394, 1.1981 0.4331 0.0584, 1.1424 0.4331 1.0209, 1.1614 0.4331 1.0131, 1.1777 0.4331 1.0006, 1.1902 0.4331 0.9843, 1.1981 0.4331 0.9653, 1.1424 0.5091 0.0787, 1.1614 0.5013 0.0787, 1.1417 0.5065 0.0584, 1.1601 0.4989 0.0584, 1.1397 0.4989 0.0394, 1.1561 0.4921 0.0394, 1.1365 0.4869 0.0231, 1.1499 0.4813 0.0231, 1.1322 0.4711 0.0105, 1.1417 0.4672 0.0105, 1.1273 0.4528 0.0027, 1.1322 0.4507 0.0027, 1.1777 0.4887 0.0787, 1.1758 0.4869 0.0584, 1.1703 0.4813 0.0394, 1.1614 0.4724 0.0231, 1.1499 0.4609 0.0105, 1.1365 0.4475 0.0027, 1.1902 0.4724 0.0787, 1.1981 0.4535 0.0787, 1.1879 0.4711 0.0584, 1.1955 0.4528 0.0584, 1.1811 0.4672 0.0394, 1.1879 0.4507 0.0394, 1.1703 0.4609 0.0231, 1.1758 0.4475 0.0231, 1.1561 0.4528 0.0105, 1.1601 0.4433 0.0105, 1.1397 0.4433 0.0027, 1.1417 0.4383 0.0027, 1.1417 0.5065 0.9653, 1.1417 0.4672 1.0131, 1.1322 0.4507 1.0209, 1.1365 0.4475 1.0209, 1.1417 0.4383 1.0209, 1.1273 0.4528 1.0209, 1.1322 0.4711 1.0131, 1.1365 0.4869 1.0006, 1.1499 0.4609 1.0131, 1.1397 0.4433 1.0209, 1.1561 0.4528 1.0131, 1.1601 0.4433 1.0131, 1.1499 0.4813 1.0006, 1.1614 0.4724 1.0006, 1.1703 0.4609 1.0006, 1.1758 0.4475 1.0006, 1.1397 0.4989 0.9843, 1.1561 0.4921 0.9843, 1.1703 0.4813 0.9843, 1.1811 0.4672 0.9843, 1.1879 0.4507 0.9843, 1.1601 0.4989 0.9653, 1.1758 0.4869 0.9653, 1.1879 0.4711 0.9653, 1.1955 0.4528 0.9653, 1.1424 0.5091 0.9449, 1.1614 0.5013 0.9449, 1.1777 0.4887 0.9449, 1.1902 0.4724 0.9449, 1.1981 0.4535 0.9449, 1.1024 0.4961 0.0945, 1.1024 0.4934 0.0741, 1.1024 0.4855 0.0551, 1.1024 0.473 0.0388, 1.1024 0.4567 0.0263, 1.1024 0.4377 0.0184, 1.1024 0.4173 0.0157, 1.1024 0.4961 0.9291, 1.1024 0.4173 1.0079, 1.1024 0.4348 1.0059, 1.1024 0.4515 1.0001, 1.1024 0.4664 0.9907, 1.1024 0.4789 0.9782, 1.1024 0.4883 0.9633, 1.1024 0.4941 0.9467, 1.1024 -0.4173 1.0079, 1.1024 -0.4961 0.9291, 1.1024 -0.4934 0.9495, 1.1024 -0.4855 0.9685, 1.1024 -0.473 0.9848, 1.1024 -0.4567 0.9973, 1.1024 -0.4377 1.0052, 1.1024 -0.4961 0.0945, 1.1024 -0.4173 0.0157, 1.1024 -0.4377 0.0184, 1.1024 -0.4567 0.0263, 1.1024 -0.473 0.0388, 1.1024 -0.4855 0.0551, 1.1024 -0.4934 0.0741, 1.1024 0.4493 0.9395, 1.1024 0.44 0.9518, 1.1024 0.4277 0.9612, 1.1024 -0.4135 0.9671, 1.1024 -0.4277 0.9612, 1.1024 -0.44 0.9518, 1.1024 -0.4493 0.9395, 1.1024 -0.4552 0.9253, 1.1024 -0.4573 0.91, 1.1024 0.4277 0.0625, 1.1024 0.44 0.0718, 1.1024 0.4135 0.9671, 1.1024 0.3982 0.9691, 1.1024 -0.3982 0.9691, 1.1024 -0.4573 0.1136, 1.1024 -0.4552 0.0983, 1.1024 -0.4493 0.0841, 1.1024 0.4552 0.9253, 1.1024 -0.44 0.0718, 1.1024 -0.4277 0.0625, 1.1024 -0.4135 0.0566, 1.1024 0.4493 0.0841, 1.1024 0.4552 0.0983, 1.1024 0.4573 0.1136, 1.1024 0.4573 0.91, 1.1024 0.4135 0.0566, 1.1024 -0.3982 0.0546, 1.1024 -0.0441 0.0546, 1.1024 0.3982 0.0546
            ]
        }
        coordIndex [
            0,1,2,-1,2,1,3,-1,1,4,3,-1,3,4,5,-1,3,5,6,-1,6,5,7,-1,8,9,10,-1,10,9,11,-1,10,11,12,-1,12,11,13,-1,12,13,14,-1,15,16,17,-1,17,16,18,-1,17,18,19,-1,19,18,20,-1,19,20,7,-1,7,20,21,-1,7,21,6,-1,17,22,15,-1,15,22,23,-1,15,23,24,-1,25,26,27,-1,27,26,28,-1,27,28,29,-1,29,28,30,-1,29,30,31,-1,27,32,25,-1,25,32,33,-1,25,33,34,-1,0,2,35,-1,35,2,36,-1,35,36,37,-1,30,38,31,-1,31,38,39,-1,31,39,40,-1,40,39,24,-1,40,24,41,-1,41,24,23,-1,13,42,14,-1,14,42,43,-1,14,43,44,-1,44,43,34,-1,44,34,45,-1,45,34,33,-1,10,46,8,-1,8,46,47,-1,8,47,48,-1,47,49,48,-1,48,49,50,-1,48,50,51,-1,51,50,52,-1,51,52,53,-1,53,52,54,-1,53,54,55,-1,55,54,37,-1,55,37,56,-1,56,37,36,-1,3,57,2,-1,2,57,58,-1,48,59,8,-1,8,59,60,-1,34,61,25,-1,25,61,62,-1,24,63,15,-1,15,63,64,-1,25,62,65,-1,25,65,26,-1,26,65,66,-1,26,66,28,-1,28,66,67,-1,28,67,30,-1,30,67,68,-1,30,68,38,-1,38,68,69,-1,38,69,39,-1,39,69,63,-1,39,63,24,-1,15,64,70,-1,15,70,16,-1,16,70,71,-1,16,71,18,-1,18,71,72,-1,18,72,20,-1,20,72,73,-1,20,73,21,-1,21,73,74,-1,21,74,6,-1,6,74,57,-1,6,57,3,-1,8,60,75,-1,8,75,9,-1,9,75,76,-1,9,76,11,-1,11,76,77,-1,11,77,13,-1,13,77,78,-1,13,78,42,-1,42,78,79,-1,42,79,43,-1,43,79,61,-1,43,61,34,-1,2,58,80,-1,2,80,36,-1,36,80,81,-1,36,81,56,-1,56,81,82,-1,56,82,55,-1,55,82,83,-1,55,83,53,-1,53,83,84,-1,53,84,51,-1,51,84,59,-1,51,59,48,-1,85,86,87,-1,87,86,88,-1,64,63,89,-1,64,89,90,-1,90,89,91,-1,90,91,92,-1,92,91,93,-1,92,93,94,-1,94,93,95,-1,94,95,96,-1,96,95,97,-1,96,97,98,-1,98,97,88,-1,98,88,86,-1,97,95,99,-1,99,95,100,-1,99,100,101,-1,101,100,102,-1,101,102,103,-1,103,102,104,-1,103,104,105,-1,105,104,106,-1,105,106,107,-1,107,106,108,-1,107,108,62,-1,95,93,100,-1,100,93,109,-1,100,109,102,-1,102,109,110,-1,102,110,104,-1,104,110,111,-1,104,111,106,-1,106,111,112,-1,106,112,108,-1,108,112,113,-1,108,113,62,-1,88,97,114,-1,114,97,99,-1,114,99,115,-1,115,99,101,-1,115,101,116,-1,116,101,103,-1,116,103,117,-1,117,103,105,-1,117,105,118,-1,118,105,107,-1,118,107,62,-1,91,89,119,-1,119,89,120,-1,119,120,121,-1,121,120,122,-1,121,122,123,-1,123,122,124,-1,123,124,125,-1,125,124,126,-1,125,126,127,-1,127,126,128,-1,127,128,62,-1,89,63,120,-1,120,63,69,-1,120,69,122,-1,122,69,68,-1,122,68,124,-1,124,68,67,-1,124,67,126,-1,126,67,66,-1,126,66,128,-1,128,66,65,-1,128,65,62,-1,93,91,109,-1,109,91,119,-1,109,119,110,-1,110,119,121,-1,110,121,111,-1,111,121,123,-1,111,123,112,-1,112,123,125,-1,112,125,113,-1,113,125,127,-1,113,127,62,-1,86,129,130,-1,131,132,133,-1,57,74,134,-1,133,132,57,-1,135,57,132,-1,135,132,136,-1,136,132,131,-1,136,131,137,-1,138,57,135,-1,139,140,141,-1,141,140,134,-1,141,134,142,-1,142,134,74,-1,142,74,73,-1,138,135,143,-1,143,135,136,-1,143,136,144,-1,144,136,137,-1,144,137,145,-1,146,139,147,-1,147,139,141,-1,147,141,148,-1,148,141,142,-1,148,142,149,-1,149,142,73,-1,149,73,72,-1,150,146,151,-1,151,146,147,-1,151,147,152,-1,152,147,148,-1,152,148,153,-1,153,148,149,-1,153,149,154,-1,154,149,72,-1,154,72,71,-1,129,150,130,-1,130,150,151,-1,130,151,155,-1,155,151,152,-1,155,152,156,-1,156,152,153,-1,156,153,157,-1,157,153,154,-1,157,154,158,-1,158,154,71,-1,158,71,70,-1,86,130,98,-1,98,130,155,-1,98,155,96,-1,96,155,156,-1,96,156,94,-1,94,156,157,-1,94,157,92,-1,92,157,158,-1,92,158,90,-1,90,158,70,-1,90,70,64,-1,140,57,134,-1,129,145,150,-1,150,145,137,-1,150,137,146,-1,146,137,131,-1,146,131,139,-1,139,131,133,-1,139,133,140,-1,140,133,57,-1,62,61,159,-1,62,159,118,-1,118,159,160,-1,118,160,117,-1,117,160,161,-1,117,161,116,-1,116,161,162,-1,116,162,115,-1,115,162,163,-1,115,163,114,-1,114,163,87,-1,114,87,88,-1,58,57,138,-1,58,138,164,-1,164,138,143,-1,164,143,165,-1,165,143,144,-1,165,144,166,-1,166,144,145,-1,166,145,167,-1,167,145,129,-1,167,129,168,-1,168,129,86,-1,168,86,85,-1,169,170,171,-1,171,170,172,-1,171,172,173,-1,173,172,174,-1,173,174,175,-1,175,174,176,-1,175,176,177,-1,177,176,178,-1,177,178,179,-1,179,178,180,-1,179,180,61,-1,170,181,172,-1,172,181,182,-1,172,182,174,-1,174,182,183,-1,174,183,176,-1,176,183,184,-1,176,184,178,-1,178,184,185,-1,178,185,180,-1,180,185,186,-1,180,186,61,-1,60,169,75,-1,75,169,171,-1,75,171,76,-1,76,171,173,-1,76,173,77,-1,77,173,175,-1,77,175,78,-1,78,175,177,-1,78,177,79,-1,79,177,179,-1,79,179,61,-1,187,188,189,-1,189,188,190,-1,189,190,191,-1,191,190,192,-1,191,192,193,-1,193,192,194,-1,193,194,195,-1,195,194,196,-1,195,196,197,-1,197,196,198,-1,197,198,61,-1,188,87,190,-1,190,87,163,-1,190,163,192,-1,192,163,162,-1,192,162,194,-1,194,162,161,-1,194,161,196,-1,196,161,160,-1,196,160,198,-1,198,160,159,-1,198,159,61,-1,181,187,182,-1,182,187,189,-1,182,189,183,-1,183,189,191,-1,183,191,184,-1,184,191,193,-1,184,193,185,-1,185,193,195,-1,185,195,186,-1,186,195,197,-1,186,197,61,-1,59,84,199,-1,200,201,202,-1,58,164,203,-1,202,201,58,-1,204,58,201,-1,204,201,205,-1,205,201,200,-1,205,200,206,-1,80,58,204,-1,207,208,209,-1,209,208,203,-1,209,203,210,-1,210,203,164,-1,210,164,165,-1,80,204,81,-1,81,204,205,-1,81,205,82,-1,82,205,206,-1,82,206,83,-1,211,207,212,-1,212,207,209,-1,212,209,213,-1,213,209,210,-1,213,210,214,-1,214,210,165,-1,214,165,166,-1,215,211,216,-1,216,211,212,-1,216,212,217,-1,217,212,213,-1,217,213,218,-1,218,213,214,-1,218,214,219,-1,219,214,166,-1,219,166,167,-1,84,215,199,-1,199,215,216,-1,199,216,220,-1,220,216,217,-1,220,217,221,-1,221,217,218,-1,221,218,222,-1,222,218,219,-1,222,219,223,-1,223,219,167,-1,223,167,168,-1,59,199,224,-1,224,199,220,-1,224,220,225,-1,225,220,221,-1,225,221,226,-1,226,221,222,-1,226,222,227,-1,227,222,223,-1,227,223,228,-1,228,223,168,-1,228,168,85,-1,208,58,203,-1,84,83,215,-1,215,83,206,-1,215,206,211,-1,211,206,200,-1,211,200,207,-1,207,200,202,-1,207,202,208,-1,208,202,58,-1,60,59,224,-1,60,224,169,-1,169,224,225,-1,169,225,170,-1,170,225,226,-1,170,226,181,-1,181,226,227,-1,181,227,187,-1,187,227,228,-1,187,228,188,-1,188,228,85,-1,188,85,87,-1,229,47,230,-1,230,47,46,-1,230,46,231,-1,231,46,10,-1,231,10,232,-1,232,10,12,-1,232,12,233,-1,233,12,14,-1,233,14,234,-1,234,14,44,-1,234,44,235,-1,235,44,45,-1,236,49,229,-1,229,49,47,-1,237,1,238,-1,238,1,0,-1,238,0,239,-1,239,0,35,-1,239,35,240,-1,240,35,37,-1,240,37,241,-1,241,37,54,-1,241,54,242,-1,242,54,52,-1,242,52,243,-1,243,52,50,-1,243,50,236,-1,236,50,49,-1,244,4,237,-1,237,4,1,-1,245,23,246,-1,246,23,22,-1,246,22,247,-1,247,22,17,-1,247,17,248,-1,248,17,19,-1,248,19,249,-1,249,19,7,-1,249,7,250,-1,250,7,5,-1,250,5,244,-1,244,5,4,-1,251,41,245,-1,245,41,23,-1,252,33,253,-1,253,33,32,-1,253,32,254,-1,254,32,27,-1,254,27,255,-1,255,27,29,-1,255,29,256,-1,256,29,31,-1,256,31,257,-1,257,31,40,-1,257,40,251,-1,251,40,41,-1,235,45,252,-1,252,45,33,-1,258,259,241,-1,241,259,240,-1,240,259,260,-1,240,260,239,-1,244,261,250,-1,250,261,262,-1,250,262,249,-1,249,262,248,-1,248,262,263,-1,248,263,247,-1,247,263,264,-1,247,264,246,-1,246,264,265,-1,246,265,245,-1,245,265,266,-1,245,266,251,-1,267,268,232,-1,239,260,238,-1,238,260,269,-1,238,269,237,-1,237,269,270,-1,237,270,244,-1,244,270,271,-1,244,271,261,-1,266,272,251,-1,251,272,273,-1,251,273,257,-1,257,273,274,-1,257,274,256,-1,236,275,243,-1,243,275,258,-1,243,258,242,-1,242,258,241,-1,256,274,255,-1,255,274,276,-1,255,276,254,-1,254,276,277,-1,254,277,253,-1,253,277,278,-1,253,278,252,-1,232,268,231,-1,231,268,279,-1,231,279,230,-1,230,279,280,-1,230,280,229,-1,229,280,281,-1,229,281,236,-1,236,281,282,-1,236,282,275,-1,235,283,234,-1,234,283,267,-1,234,267,233,-1,233,267,232,-1,278,284,252,-1,252,284,285,-1,252,285,235,-1,235,285,286,-1,235,286,283,-1,
        ]
    }
}
Shape{
    appearance Appearance {
        material  Material 	{
            diffuseColor 1.0 1.0 1.0
            specularColor 0.5019607843137255 0.5019607843137255 0.5019607843137255
            ambientIntensity 1.0
            transparency 0.0
            shininess 0.5
        }
    }
    geometry IndexedFaceSet {
        ccw TRUE
        solid FALSE
        coord DEF co Coordinate {
            point [
                0.0376 -0.3982 0.0546, 1.1024 -0.3982 0.0546, 1.1024 -0.4135 0.0566, -1.1024 -0.4135 0.0566, -1.1024 -0.3982 0.0546, 1.1024 -0.4277 0.0625, -1.1024 -0.4277 0.0625, 1.1024 -0.44 0.0718, -1.1024 -0.44 0.0718, 1.1024 -0.4493 0.0841, -1.1024 -0.4493 0.0841, 1.1024 -0.4552 0.0983, -1.1024 -0.4552 0.0983, 1.1024 -0.4573 0.1136, -1.1024 -0.4573 0.1136, 1.1024 -0.4573 0.91, -1.1024 -0.4573 0.91, 1.1024 -0.4552 0.9253, -1.1024 -0.4552 0.9253, 1.1024 -0.4493 0.9395, -1.1024 -0.4493 0.9395, 1.1024 -0.44 0.9518, -1.1024 -0.44 0.9518, 1.1024 -0.4277 0.9612, -1.1024 -0.4277 0.9612, 1.1024 -0.4135 0.9671, -1.1024 -0.4135 0.9671, 1.1024 -0.3982 0.9691, -1.1024 -0.3982 0.9691, 1.1024 0.3982 0.9691, -1.1024 0.3982 0.9691, 1.1024 0.4135 0.9671, -1.1024 0.4135 0.9671, 1.1024 0.4277 0.9612, -1.1024 0.4277 0.9612, 1.1024 0.44 0.9518, -1.1024 0.44 0.9518, 1.1024 0.4493 0.9395, -1.1024 0.4493 0.9395, 1.1024 0.4552 0.9253, -1.1024 0.4552 0.9253, 1.1024 0.4573 0.91, -1.1024 0.4573 0.91, 1.1024 0.4573 0.1136, -1.1024 0.4573 0.1136, 1.1024 0.4552 0.0983, 1.1024 0.4135 0.0566, 1.1024 0.3982 0.0546, 0.0376 0.3982 0.0546, -1.1024 0.4552 0.0983, 1.1024 0.4493 0.0841, -1.1024 0.4493 0.0841, 1.1024 0.44 0.0718, -1.1024 0.44 0.0718, 1.1024 0.4277 0.0625, -1.1024 0.4277 0.0625, -1.1024 0.4135 0.0566, -1.1024 0.3982 0.0546
            ]
        }
        coordIndex [
            0,1,2,-1,3,4,0,-1,0,2,3,-1,3,2,5,-1,3,5,6,-1,6,5,7,-1,6,7,8,-1,8,7,9,-1,8,9,10,-1,10,9,11,-1,10,11,12,-1,12,11,13,-1,12,13,14,-1,15,16,13,-1,13,16,14,-1,16,15,17,-1,16,17,18,-1,18,17,19,-1,18,19,20,-1,20,19,21,-1,20,21,22,-1,22,21,23,-1,22,23,24,-1,24,23,25,-1,24,25,26,-1,26,25,27,-1,26,27,28,-1,29,30,27,-1,27,30,28,-1,30,29,31,-1,30,31,32,-1,32,31,33,-1,32,33,34,-1,34,33,35,-1,34,35,36,-1,36,35,37,-1,36,37,38,-1,38,37,39,-1,38,39,40,-1,40,39,41,-1,40,41,42,-1,43,44,41,-1,41,44,42,-1,44,43,45,-1,46,47,48,-1,44,45,49,-1,49,45,50,-1,49,50,51,-1,51,50,52,-1,51,52,53,-1,53,52,54,-1,53,54,55,-1,55,54,46,-1,55,46,56,-1,56,46,48,-1,56,48,57,-1,
        ]
    }
}
Shape{
    appearance Appearance {
        material  Material 	{
            diffuseColor 1.0 0.8274509803921568 0.41568627450980394
            specularColor 0.5019607843137255 0.4117647058823529 0.20784313725490197
            ambientIntensity 0.8321
            transparency 0.0
            shininess 0.5
        }
    }
    geometry IndexedFaceSet {
        ccw TRUE
        solid FALSE
        coord DEF co Coordinate {
            point [
                -0.6299 -0.4331 0.0, -0.6299 -0.4377 0.0184, -0.6299 -0.4535 0.0027, -0.6299 -0.4567 0.0263, -0.6299 0.4789 0.9782, -0.6299 0.4883 0.9633, -0.6299 0.5091 0.9653, -0.6299 0.4567 0.0263, -0.6299 0.4377 0.0184, -0.6299 0.4331 0.0, -0.6299 0.4173 0.0157, -0.6299 -0.4173 0.0157, -0.6299 -0.5118 0.0787, -0.6299 -0.5091 0.0584, -0.6299 -0.4855 0.0551, -0.6299 -0.5013 0.0394, -0.6299 -0.473 0.0388, -0.6299 -0.4887 0.0231, -0.6299 -0.4724 0.0105, -0.6299 -0.4331 1.0236, -0.6299 -0.4535 1.0209, -0.6299 -0.4567 0.9973, -0.6299 -0.4724 1.0131, -0.6299 -0.473 0.9848, -0.6299 -0.4887 1.0006, -0.6299 -0.4855 0.9685, -0.6299 0.5118 0.9449, -0.6299 0.5118 0.0787, -0.6299 0.4934 0.0741, -0.6299 0.5091 0.0584, -0.6299 0.4855 0.0551, -0.6299 0.4535 0.0027, -0.6299 0.4724 0.0105, -0.6299 0.473 0.0388, -0.6299 0.4887 0.0231, -0.6299 0.5013 0.0394, -0.6299 -0.5118 0.9449, -0.6299 -0.4934 0.9495, -0.6299 -0.5091 0.9653, -0.6299 -0.5013 0.9843, -0.6299 -0.4934 0.0741, -0.6299 -0.4961 0.0945, -0.6299 -0.4961 0.9291, -0.6299 -0.4377 1.0052, -0.6299 -0.4173 1.0079, -0.6299 0.4331 1.0236, -0.6299 0.4941 0.9467, -0.6299 0.4961 0.9291, -0.6299 0.4961 0.0945, -0.6299 0.4173 1.0079, -0.6299 0.4348 1.0059, -0.6299 0.4535 1.0209, -0.6299 0.4515 1.0001, -0.6299 0.4724 1.0131, -0.6299 0.4664 0.9907, -0.6299 0.4887 1.0006, -0.6299 0.5013 0.9843, -1.2008 -0.4331 0.9449, -1.2008 0.4331 0.9449, -1.2008 -0.4331 0.0787, -1.2008 0.4331 0.0787, -1.122 -0.4331 1.0236, -1.122 0.4331 1.0236, -1.1424 0.4331 1.0209, -1.1424 -0.4331 1.0209, -1.1614 0.4331 1.0131, -1.1614 -0.4331 1.0131, -1.1777 0.4331 1.0006, -1.1777 -0.4331 1.0006, -1.1902 0.4331 0.9843, -1.1902 -0.4331 0.9843, -1.1981 0.4331 0.9653, -1.1981 -0.4331 0.9653, -1.122 0.5118 0.9449, -1.122 0.5118 0.0787, -1.1424 0.5091 0.0787, -1.1424 0.5091 0.9449, -1.1614 0.5013 0.0787, -1.1614 0.5013 0.9449, -1.1777 0.4887 0.0787, -1.1777 0.4887 0.9449, -1.1902 0.4724 0.0787, -1.1902 0.4724 0.9449, -1.1981 0.4535 0.0787, -1.1981 0.4535 0.9449, -1.122 0.4331 0.0, -1.122 -0.4331 0.0, -1.1424 -0.4331 0.0027, -1.1424 0.4331 0.0027, -1.1614 -0.4331 0.0105, -1.1614 0.4331 0.0105, -1.1777 -0.4331 0.0231, -1.1777 0.4331 0.0231, -1.1902 -0.4331 0.0394, -1.1902 0.4331 0.0394, -1.1981 -0.4331 0.0584, -1.1981 0.4331 0.0584, -1.122 -0.5118 0.0787, -1.122 -0.5118 0.9449, -1.1424 -0.5091 0.9449, -1.1424 -0.5091 0.0787, -1.1614 -0.5013 0.9449, -1.1614 -0.5013 0.0787, -1.1777 -0.4887 0.9449, -1.1777 -0.4887 0.0787, -1.1902 -0.4724 0.9449, -1.1902 -0.4724 0.0787, -1.1981 -0.4535 0.9449, -1.1981 -0.4535 0.0787, -1.1417 -0.5065 0.0584, -1.1601 -0.4989 0.0584, -1.1397 -0.4989 0.0394, -1.1561 -0.4921 0.0394, -1.1365 -0.4869 0.0231, -1.1499 -0.4813 0.0231, -1.1322 -0.4711 0.0105, -1.1417 -0.4672 0.0105, -1.1273 -0.4528 0.0027, -1.1322 -0.4507 0.0027, -1.1758 -0.4869 0.0584, -1.1703 -0.4813 0.0394, -1.1614 -0.4724 0.0231, -1.1499 -0.4609 0.0105, -1.1365 -0.4475 0.0027, -1.122 -0.5091 0.0584, -1.122 -0.5013 0.0394, -1.122 -0.4887 0.0231, -1.122 -0.4724 0.0105, -1.122 -0.4535 0.0027, -1.1879 -0.4711 0.0584, -1.1955 -0.4528 0.0584, -1.1811 -0.4672 0.0394, -1.1879 -0.4507 0.0394, -1.1703 -0.4609 0.0231, -1.1758 -0.4475 0.0231, -1.1561 -0.4528 0.0105, -1.1601 -0.4433 0.0105, -1.1397 -0.4433 0.0027, -1.1417 -0.4383 0.0027, -1.122 -0.5091 0.9653, -1.1417 -0.5065 0.9653, -1.1417 -0.4672 1.0131, -1.1322 -0.4507 1.0209, -1.1365 -0.4475 1.0209, -1.1417 -0.4383 1.0209, -1.1273 -0.4528 1.0209, -1.1322 -0.4711 1.0131, -1.1365 -0.4869 1.0006, -1.122 -0.4535 1.0209, -1.1499 -0.4609 1.0131, -1.1397 -0.4433 1.0209, -1.1561 -0.4528 1.0131, -1.1601 -0.4433 1.0131, -1.122 -0.4724 1.0131, -1.122 -0.4887 1.0006, -1.122 -0.5013 0.9843, -1.1499 -0.4813 1.0006, -1.1614 -0.4724 1.0006, -1.1703 -0.4609 1.0006, -1.1758 -0.4475 1.0006, -1.1397 -0.4989 0.9843, -1.1561 -0.4921 0.9843, -1.1703 -0.4813 0.9843, -1.1811 -0.4672 0.9843, -1.1879 -0.4507 0.9843, -1.1601 -0.4989 0.9653, -1.1758 -0.4869 0.9653, -1.1879 -0.4711 0.9653, -1.1955 -0.4528 0.9653, -1.1955 0.4528 0.0584, -1.1879 0.4711 0.0584, -1.1879 0.4507 0.0394, -1.1811 0.4672 0.0394, -1.1758 0.4475 0.0231, -1.1703 0.4609 0.0231, -1.1601 0.4433 0.0105, -1.1561 0.4528 0.0105, -1.1417 0.4383 0.0027, -1.1397 0.4433 0.0027, -1.1758 0.4869 0.0584, -1.1703 0.4813 0.0394, -1.1614 0.4724 0.0231, -1.1499 0.4609 0.0105, -1.1365 0.4475 0.0027, -1.1601 0.4989 0.0584, -1.1417 0.5065 0.0584, -1.1561 0.4921 0.0394, -1.1397 0.4989 0.0394, -1.1499 0.4813 0.0231, -1.1365 0.4869 0.0231, -1.1417 0.4672 0.0105, -1.1322 0.4711 0.0105, -1.1322 0.4507 0.0027, -1.1273 0.4528 0.0027, -1.122 0.5091 0.0584, -1.122 0.5013 0.0394, -1.122 0.4887 0.0231, -1.122 0.4724 0.0105, -1.122 0.4535 0.0027, -1.1955 0.4528 0.9653, -1.1561 0.4528 1.0131, -1.1397 0.4433 1.0209, -1.1365 0.4475 1.0209, -1.122 0.4535 1.0209, -1.1273 0.4528 1.0209, -1.1417 0.4383 1.0209, -1.1601 0.4433 1.0131, -1.1758 0.4475 1.0006, -1.1499 0.4609 1.0131, -1.1322 0.4507 1.0209, -1.1417 0.4672 1.0131, -1.1322 0.4711 1.0131, -1.122 0.4724 1.0131, -1.1703 0.4609 1.0006, -1.1614 0.4724 1.0006, -1.1499 0.4813 1.0006, -1.1365 0.4869 1.0006, -1.122 0.4887 1.0006, -1.1879 0.4507 0.9843, -1.1811 0.4672 0.9843, -1.1703 0.4813 0.9843, -1.1561 0.4921 0.9843, -1.1397 0.4989 0.9843, -1.122 0.5013 0.9843, -1.1879 0.4711 0.9653, -1.1758 0.4869 0.9653, -1.1601 0.4989 0.9653, -1.1417 0.5065 0.9653, -1.122 0.5091 0.9653, -1.1024 0.4961 0.0945, -1.1024 0.4934 0.0741, -1.1024 0.4855 0.0551, -1.1024 0.473 0.0388, -1.1024 0.4567 0.0263, -1.1024 0.4377 0.0184, -1.1024 0.4173 0.0157, -1.1024 0.4961 0.9291, -1.1024 0.4173 1.0079, -1.1024 0.4348 1.0059, -1.1024 0.4515 1.0001, -1.1024 0.4664 0.9907, -1.1024 0.4789 0.9782, -1.1024 0.4883 0.9633, -1.1024 0.4941 0.9467, -1.1024 -0.4173 1.0079, -1.1024 -0.4961 0.9291, -1.1024 -0.4934 0.9495, -1.1024 -0.4855 0.9685, -1.1024 -0.473 0.9848, -1.1024 -0.4567 0.9973, -1.1024 -0.4377 1.0052, -1.1024 -0.4961 0.0945, -1.1024 -0.4173 0.0157, -1.1024 -0.4377 0.0184, -1.1024 -0.4567 0.0263, -1.1024 -0.473 0.0388, -1.1024 -0.4855 0.0551, -1.1024 -0.4934 0.0741, -1.1024 -0.0441 0.0546, -1.1024 0.44 0.9518, -1.1024 0.4277 0.9612, -1.1024 0.4135 0.9671, -1.1024 0.3982 0.9691, -1.1024 -0.3982 0.0546, -1.1024 -0.4135 0.0566, -1.1024 -0.4277 0.0625, -1.1024 -0.44 0.0718, -1.1024 -0.4493 0.0841, -1.1024 -0.4552 0.0983, -1.1024 -0.4573 0.1136, -1.1024 -0.4573 0.91, -1.1024 -0.4552 0.9253, -1.1024 -0.4493 0.9395, -1.1024 -0.3982 0.9691, -1.1024 -0.4135 0.9671, -1.1024 -0.4277 0.9612, -1.1024 -0.44 0.9518, -1.1024 0.4552 0.0983, -1.1024 0.4493 0.0841, -1.1024 0.4493 0.9395, -1.1024 0.4552 0.9253, -1.1024 0.4573 0.91, -1.1024 0.4573 0.1136, -1.1024 0.44 0.0718, -1.1024 0.4277 0.0625, -1.1024 0.4135 0.0566, -1.1024 0.3982 0.0546
            ]
        }
        coordIndex [
            0,1,2,-1,2,1,3,-1,4,5,6,-1,7,8,9,-1,9,8,10,-1,9,10,0,-1,0,10,11,-1,0,11,1,-1,12,13,14,-1,14,13,15,-1,14,15,16,-1,16,15,17,-1,16,17,3,-1,3,17,18,-1,3,18,2,-1,19,20,21,-1,21,20,22,-1,21,22,23,-1,23,22,24,-1,23,24,25,-1,6,5,26,-1,27,28,29,-1,29,28,30,-1,9,31,7,-1,7,31,32,-1,7,32,33,-1,33,32,34,-1,33,34,30,-1,30,34,35,-1,30,35,29,-1,36,37,38,-1,38,37,25,-1,38,25,39,-1,39,25,24,-1,14,40,12,-1,12,40,41,-1,12,41,36,-1,36,41,42,-1,36,42,37,-1,21,43,19,-1,19,43,44,-1,19,44,45,-1,5,46,26,-1,26,46,47,-1,26,47,27,-1,27,47,48,-1,27,48,28,-1,44,49,45,-1,45,49,50,-1,45,50,51,-1,51,50,52,-1,51,52,53,-1,53,52,54,-1,53,54,55,-1,55,54,4,-1,55,4,56,-1,56,4,6,-1,57,58,59,-1,59,58,60,-1,61,62,63,-1,61,63,64,-1,64,63,65,-1,64,65,66,-1,66,65,67,-1,66,67,68,-1,68,67,69,-1,68,69,70,-1,70,69,71,-1,70,71,72,-1,72,71,58,-1,72,58,57,-1,73,74,75,-1,73,75,76,-1,76,75,77,-1,76,77,78,-1,78,77,79,-1,78,79,80,-1,80,79,81,-1,80,81,82,-1,82,81,83,-1,82,83,84,-1,84,83,60,-1,84,60,58,-1,85,86,87,-1,85,87,88,-1,88,87,89,-1,88,89,90,-1,90,89,91,-1,90,91,92,-1,92,91,93,-1,92,93,94,-1,94,93,95,-1,94,95,96,-1,96,95,59,-1,96,59,60,-1,97,98,99,-1,97,99,100,-1,100,99,101,-1,100,101,102,-1,102,101,103,-1,102,103,104,-1,104,103,105,-1,104,105,106,-1,106,105,107,-1,106,107,108,-1,108,107,57,-1,108,57,59,-1,100,102,109,-1,109,102,110,-1,109,110,111,-1,111,110,112,-1,111,112,113,-1,113,112,114,-1,113,114,115,-1,115,114,116,-1,115,116,117,-1,117,116,118,-1,117,118,86,-1,102,104,110,-1,110,104,119,-1,110,119,112,-1,112,119,120,-1,112,120,114,-1,114,120,121,-1,114,121,116,-1,116,121,122,-1,116,122,118,-1,118,122,123,-1,118,123,86,-1,97,100,124,-1,124,100,109,-1,124,109,125,-1,125,109,111,-1,125,111,126,-1,126,111,113,-1,126,113,127,-1,127,113,115,-1,127,115,128,-1,128,115,117,-1,128,117,86,-1,106,108,129,-1,129,108,130,-1,129,130,131,-1,131,130,132,-1,131,132,133,-1,133,132,134,-1,133,134,135,-1,135,134,136,-1,135,136,137,-1,137,136,138,-1,137,138,86,-1,108,59,130,-1,130,59,95,-1,130,95,132,-1,132,95,93,-1,132,93,134,-1,134,93,91,-1,134,91,136,-1,136,91,89,-1,136,89,138,-1,138,89,87,-1,138,87,86,-1,104,106,119,-1,119,106,129,-1,119,129,120,-1,120,129,131,-1,120,131,121,-1,121,131,133,-1,121,133,122,-1,122,133,135,-1,122,135,123,-1,123,135,137,-1,123,137,86,-1,98,139,140,-1,141,142,143,-1,61,64,144,-1,143,142,61,-1,145,61,142,-1,145,142,146,-1,146,142,141,-1,146,141,147,-1,148,61,145,-1,149,150,151,-1,151,150,144,-1,151,144,152,-1,152,144,64,-1,152,64,66,-1,148,145,153,-1,153,145,146,-1,153,146,154,-1,154,146,147,-1,154,147,155,-1,156,149,157,-1,157,149,151,-1,157,151,158,-1,158,151,152,-1,158,152,159,-1,159,152,66,-1,159,66,68,-1,160,156,161,-1,161,156,157,-1,161,157,162,-1,162,157,158,-1,162,158,163,-1,163,158,159,-1,163,159,164,-1,164,159,68,-1,164,68,70,-1,139,160,140,-1,140,160,161,-1,140,161,165,-1,165,161,162,-1,165,162,166,-1,166,162,163,-1,166,163,167,-1,167,163,164,-1,167,164,168,-1,168,164,70,-1,168,70,72,-1,98,140,99,-1,99,140,165,-1,99,165,101,-1,101,165,166,-1,101,166,103,-1,103,166,167,-1,103,167,105,-1,105,167,168,-1,105,168,107,-1,107,168,72,-1,107,72,57,-1,150,61,144,-1,139,155,160,-1,160,155,147,-1,160,147,156,-1,156,147,141,-1,156,141,149,-1,149,141,143,-1,149,143,150,-1,150,143,61,-1,83,81,169,-1,169,81,170,-1,169,170,171,-1,171,170,172,-1,171,172,173,-1,173,172,174,-1,173,174,175,-1,175,174,176,-1,175,176,177,-1,177,176,178,-1,177,178,85,-1,81,79,170,-1,170,79,179,-1,170,179,172,-1,172,179,180,-1,172,180,174,-1,174,180,181,-1,174,181,176,-1,176,181,182,-1,176,182,178,-1,178,182,183,-1,178,183,85,-1,60,83,96,-1,96,83,169,-1,96,169,94,-1,94,169,171,-1,94,171,92,-1,92,171,173,-1,92,173,90,-1,90,173,175,-1,90,175,88,-1,88,175,177,-1,88,177,85,-1,77,75,184,-1,184,75,185,-1,184,185,186,-1,186,185,187,-1,186,187,188,-1,188,187,189,-1,188,189,190,-1,190,189,191,-1,190,191,192,-1,192,191,193,-1,192,193,85,-1,75,74,185,-1,185,74,194,-1,185,194,187,-1,187,194,195,-1,187,195,189,-1,189,195,196,-1,189,196,191,-1,191,196,197,-1,191,197,193,-1,193,197,198,-1,193,198,85,-1,79,77,179,-1,179,77,184,-1,179,184,180,-1,180,184,186,-1,180,186,181,-1,181,186,188,-1,181,188,182,-1,182,188,190,-1,182,190,183,-1,183,190,192,-1,183,192,85,-1,58,71,199,-1,200,201,202,-1,62,203,204,-1,202,201,62,-1,205,62,201,-1,205,201,206,-1,206,201,200,-1,206,200,207,-1,63,62,205,-1,208,209,210,-1,210,209,204,-1,210,204,211,-1,211,204,203,-1,211,203,212,-1,63,205,65,-1,65,205,206,-1,65,206,67,-1,67,206,207,-1,67,207,69,-1,213,208,214,-1,214,208,210,-1,214,210,215,-1,215,210,211,-1,215,211,216,-1,216,211,212,-1,216,212,217,-1,218,213,219,-1,219,213,214,-1,219,214,220,-1,220,214,215,-1,220,215,221,-1,221,215,216,-1,221,216,222,-1,222,216,217,-1,222,217,223,-1,71,218,199,-1,199,218,219,-1,199,219,224,-1,224,219,220,-1,224,220,225,-1,225,220,221,-1,225,221,226,-1,226,221,222,-1,226,222,227,-1,227,222,223,-1,227,223,228,-1,58,199,84,-1,84,199,224,-1,84,224,82,-1,82,224,225,-1,82,225,80,-1,80,225,226,-1,80,226,78,-1,78,226,227,-1,78,227,76,-1,76,227,228,-1,76,228,73,-1,209,62,204,-1,71,69,218,-1,218,69,207,-1,218,207,213,-1,213,207,200,-1,213,200,208,-1,208,200,202,-1,208,202,209,-1,209,202,62,-1,62,45,51,-1,62,51,203,-1,203,51,53,-1,203,53,212,-1,212,53,55,-1,212,55,217,-1,217,55,56,-1,217,56,223,-1,223,56,6,-1,223,6,228,-1,228,6,26,-1,228,26,73,-1,74,27,29,-1,74,29,194,-1,194,29,35,-1,194,35,195,-1,195,35,34,-1,195,34,196,-1,196,34,32,-1,196,32,197,-1,197,32,31,-1,197,31,198,-1,198,31,9,-1,198,9,85,-1,86,0,2,-1,86,2,128,-1,128,2,18,-1,128,18,127,-1,127,18,17,-1,127,17,126,-1,126,17,15,-1,126,15,125,-1,125,15,13,-1,125,13,124,-1,124,13,12,-1,124,12,97,-1,98,36,38,-1,98,38,139,-1,139,38,39,-1,139,39,155,-1,155,39,24,-1,155,24,154,-1,154,24,22,-1,154,22,153,-1,153,22,20,-1,153,20,148,-1,148,20,19,-1,148,19,61,-1,98,97,36,-1,36,97,12,-1,86,85,0,-1,0,85,9,-1,74,73,27,-1,27,73,26,-1,62,61,45,-1,45,61,19,-1,48,229,28,-1,28,229,230,-1,28,230,30,-1,30,230,231,-1,30,231,33,-1,33,231,232,-1,33,232,7,-1,7,232,233,-1,7,233,8,-1,8,233,234,-1,8,234,10,-1,10,234,235,-1,236,229,47,-1,47,229,48,-1,49,237,50,-1,50,237,238,-1,50,238,52,-1,52,238,239,-1,52,239,54,-1,54,239,240,-1,54,240,4,-1,4,240,241,-1,4,241,5,-1,5,241,242,-1,5,242,46,-1,46,242,243,-1,46,243,47,-1,47,243,236,-1,244,237,44,-1,44,237,49,-1,42,245,37,-1,37,245,246,-1,37,246,25,-1,25,246,247,-1,25,247,23,-1,23,247,248,-1,23,248,21,-1,21,248,249,-1,21,249,43,-1,43,249,250,-1,43,250,44,-1,44,250,244,-1,251,245,41,-1,41,245,42,-1,11,252,1,-1,1,252,253,-1,1,253,3,-1,3,253,254,-1,3,254,16,-1,16,254,255,-1,16,255,14,-1,14,255,256,-1,14,256,40,-1,40,256,257,-1,40,257,41,-1,41,257,251,-1,235,252,10,-1,10,252,11,-1,258,252,235,-1,259,241,240,-1,259,240,260,-1,240,239,260,-1,260,239,238,-1,260,238,261,-1,261,238,237,-1,261,237,262,-1,258,263,252,-1,252,263,264,-1,252,264,253,-1,253,264,265,-1,253,265,254,-1,254,265,255,-1,255,265,266,-1,255,266,256,-1,256,266,267,-1,256,267,257,-1,257,267,268,-1,257,268,251,-1,251,268,269,-1,251,269,245,-1,269,270,245,-1,245,270,271,-1,245,271,246,-1,246,271,272,-1,262,237,273,-1,273,237,244,-1,273,244,274,-1,274,244,250,-1,274,250,275,-1,275,250,249,-1,275,249,276,-1,276,249,248,-1,276,248,272,-1,272,248,247,-1,272,247,246,-1,229,277,230,-1,230,277,278,-1,230,278,231,-1,241,259,242,-1,242,259,279,-1,242,279,243,-1,243,279,280,-1,243,280,236,-1,236,280,281,-1,236,281,229,-1,229,281,282,-1,229,282,277,-1,231,278,232,-1,232,278,283,-1,232,283,233,-1,233,283,284,-1,233,284,234,-1,234,284,285,-1,234,285,235,-1,235,285,286,-1,235,286,258,-1,
        ]
    }
}
Shape{
    appearance Appearance {
        material  Material 	{
            diffuseColor 0.48627450980392156 0.48627450980392156 0.48627450980392156
            specularColor 0.24313725490196078 0.24313725490196078 0.24313725490196078
            ambientIntensity 0.4863
            transparency 0.0
            shininess 0.5
        }
    }
    geometry IndexedFaceSet {
        ccw TRUE
        solid FALSE
        coord DEF co Coordinate {
            point [
                -0.1372 0.0351 0.0585, -0.1679 -0.0436 0.0585, -0.1372 0.0351 0.0546, -0.1679 -0.0436 0.0546, -0.1564 -0.0436 0.0585, -0.1564 -0.0436 0.0546, -0.1485 -0.0215 0.0585, -0.1485 -0.0215 0.0546, -0.1159 -0.0215 0.0585, -0.1159 -0.0215 0.0546, -0.1084 -0.0436 0.0585, -0.1084 -0.0436 0.0546, -0.0969 -0.0436 0.0585, -0.0969 -0.0436 0.0546, -0.1267 0.0351 0.0585, -0.1267 0.0351 0.0546, -0.1186 -0.0129 0.0585, -0.1449 -0.0129 0.0585, -0.1303 0.02 0.0585, -0.1311 0.0227 0.0585, -0.1316 0.0255 0.0585, -0.1318 0.0255 0.0585, -0.1324 0.0227 0.0585, -0.1331 0.02 0.0585, -0.1186 -0.0129 0.0546, -0.1449 -0.0129 0.0546, -0.1303 0.02 0.0546, -0.1311 0.0227 0.0546, -0.1316 0.0255 0.0546, -0.1318 0.0255 0.0546, -0.1324 0.0227 0.0546, -0.1331 0.02 0.0546, -0.0492 -0.0436 0.0585, -0.0277 -0.0436 0.0585, -0.0492 -0.0436 0.0546, -0.0277 -0.0436 0.0546, -0.0277 0.0351 0.0585, -0.0277 0.0351 0.0546, -0.05 0.0351 0.0585, -0.05 0.0351 0.0546, -0.0911 -0.0033 0.0585, -0.0911 -0.0033 0.0546, -0.0906 0.0041 0.0546, -0.0906 0.0041 0.0585, -0.0884 0.0119 0.0546, -0.0884 0.0119 0.0585, -0.0848 0.0187 0.0546, -0.0848 0.0187 0.0585, -0.0792 0.0248 0.0546, -0.0792 0.0248 0.0585, -0.0791 0.0249 0.0546, -0.0791 0.0249 0.0585, -0.0706 0.0307 0.0546, -0.0706 0.0307 0.0585, -0.0613 0.0339 0.0546, -0.0613 0.0339 0.0585, -0.0589 -0.0428 0.0546, -0.0589 -0.0428 0.0585, -0.068 -0.0401 0.0546, -0.068 -0.0401 0.0585, -0.0762 -0.0353 0.0546, -0.0762 -0.0353 0.0585, -0.0827 -0.0291 0.0546, -0.0827 -0.0291 0.0585, -0.0872 -0.0221 0.0546, -0.0872 -0.0221 0.0585, -0.09 -0.0138 0.0546, -0.09 -0.0138 0.0585, -0.0753 0.0154 0.0585, -0.0715 0.0195 0.0585, -0.0657 0.0232 0.0585, -0.0592 0.0255 0.0585, -0.0499 0.0265 0.0585, -0.0383 0.0265 0.0585, -0.0383 -0.035 0.0585, -0.0495 -0.035 0.0585, -0.0578 -0.0342 0.0585, -0.0644 -0.0322 0.0585, -0.0698 -0.029 0.0585, -0.0742 -0.0246 0.0585, -0.0775 -0.0192 0.0585, -0.0798 -0.0118 0.0585, -0.0806 -0.0035 0.0585, -0.0799 0.0043 0.0585, -0.0781 0.0106 0.0585, -0.0499 0.0265 0.0546, -0.0383 0.0265 0.0546, -0.0592 0.0255 0.0546, -0.0657 0.0232 0.0546, -0.0715 0.0195 0.0546, -0.0753 0.0154 0.0546, -0.0781 0.0106 0.0546, -0.0799 0.0043 0.0546, -0.0806 -0.0035 0.0546, -0.0798 -0.0118 0.0546, -0.0775 -0.0192 0.0546, -0.0742 -0.0246 0.0546, -0.0698 -0.029 0.0546, -0.0644 -0.0322 0.0546, -0.0578 -0.0342 0.0546, -0.0495 -0.035 0.0546, -0.0383 -0.035 0.0546, -0.0124 -0.035 0.0585, -0.0124 -0.0436 0.0585, -0.0124 -0.035 0.0546, -0.0124 -0.0436 0.0546, 0.0299 -0.0436 0.0585, 0.0299 -0.0436 0.0546, 0.0299 0.0351 0.0585, 0.0299 0.0351 0.0546, -0.0105 0.0351 0.0585, -0.0105 0.0351 0.0546, -0.0105 0.0265 0.0585, -0.0105 0.0265 0.0546, 0.0193 0.0265 0.0585, 0.0193 0.0265 0.0546, 0.0193 0.0005 0.0585, 0.0193 0.0005 0.0546, -0.0085 0.0005 0.0585, -0.0085 0.0005 0.0546, -0.0085 -0.0081 0.0585, -0.0085 -0.0081 0.0546, 0.0193 -0.0081 0.0585, 0.0193 -0.0081 0.0546, 0.0193 -0.035 0.0585, 0.0193 -0.035 0.0546, 0.0452 -0.0309 0.0585, 0.0452 -0.0396 0.0585, 0.0452 -0.0309 0.0546, 0.0452 -0.0396 0.0546, 0.0536 -0.043 0.0585, 0.0669 -0.0446 0.0585, 0.0669 -0.0446 0.0546, 0.0647 -0.0446 0.0546, 0.0647 -0.0446 0.0585, 0.0616 -0.0441 0.0546, 0.0536 -0.043 0.0546, 0.1038 -0.0058 0.0585, 0.1038 -0.0058 0.0546, 0.103 -0.0149 0.0546, 0.103 -0.0149 0.0585, 0.1007 -0.0232 0.0546, 0.1007 -0.0232 0.0585, 0.0965 -0.0307 0.0546, 0.0965 -0.0307 0.0585, 0.0906 -0.0369 0.0546, 0.0906 -0.0369 0.0585, 0.0842 -0.041 0.0546, 0.0842 -0.041 0.0585, 0.0766 -0.0436 0.0546, 0.0766 -0.0436 0.0585, 0.0715 -0.0441 0.0546, 0.0638 0.0361 0.0585, 0.0638 0.0361 0.0546, 0.0717 0.0354 0.0546, 0.0717 0.0354 0.0585, 0.0804 0.0329 0.0546, 0.0804 0.0329 0.0585, 0.0879 0.0286 0.0546, 0.0879 0.0286 0.0585, 0.095 0.0217 0.0546, 0.095 0.0217 0.0585, 0.0997 0.0144 0.0546, 0.0997 0.0144 0.0585, 0.1027 0.0054 0.0546, 0.1027 0.0054 0.0585, 0.0452 0.0329 0.0585, 0.0452 0.0329 0.0546, 0.0543 0.0354 0.0546, 0.0543 0.0354 0.0585, 0.0452 0.0224 0.0585, 0.0452 0.0224 0.0546, 0.0637 0.0274 0.0585, 0.0637 0.0274 0.0546, 0.0541 0.0262 0.0546, 0.0541 0.0262 0.0585, 0.0932 -0.0051 0.0585, 0.0932 -0.0051 0.0546, 0.0929 0.001 0.0546, 0.0929 0.001 0.0585, 0.0908 0.0095 0.0546, 0.0908 0.0095 0.0585, 0.0875 0.0155 0.0546, 0.0875 0.0155 0.0585, 0.0828 0.0208 0.0546, 0.0828 0.0208 0.0585, 0.0773 0.0244 0.0546, 0.0773 0.0244 0.0585, 0.0714 0.0266 0.0546, 0.0714 0.0266 0.0585, 0.0654 -0.036 0.0585, 0.0654 -0.036 0.0546, 0.0728 -0.0351 0.0546, 0.0728 -0.0351 0.0585, 0.0785 -0.033 0.0546, 0.0785 -0.033 0.0585, 0.0834 -0.0298 0.0546, 0.0834 -0.0298 0.0585, 0.0871 -0.0259 0.0546, 0.0871 -0.0259 0.0585, 0.0903 -0.0204 0.0546, 0.0903 -0.0204 0.0585, 0.0924 -0.0136 0.0546, 0.0924 -0.0136 0.0585, 0.0466 -0.0317 0.0546, 0.0466 -0.0317 0.0585, 0.055 -0.0348 0.0546, 0.055 -0.0348 0.0585, 0.1105 -0.035 0.0585, 0.1105 -0.0436 0.0585, 0.1105 -0.035 0.0546, 0.1105 -0.0436 0.0546, 0.1509 -0.0436 0.0585, 0.1509 -0.0436 0.0546, 0.1509 0.0351 0.0585, 0.1509 0.0351 0.0546, 0.1403 0.0351 0.0585, 0.1403 0.0351 0.0546, 0.1403 -0.035 0.0585, 0.1403 -0.035 0.0546
            ]
        }
        coordIndex [
            0,1,2,-1,2,1,3,-1,1,4,3,-1,3,4,5,-1,4,6,5,-1,5,6,7,-1,6,8,7,-1,7,8,9,-1,8,10,9,-1,9,10,11,-1,10,12,11,-1,11,12,13,-1,12,14,13,-1,13,14,15,-1,14,0,15,-1,15,0,2,-1,16,8,17,-1,17,8,6,-1,18,14,16,-1,16,14,12,-1,16,12,8,-1,8,12,10,-1,18,19,14,-1,14,19,20,-1,14,20,0,-1,0,20,21,-1,0,21,22,-1,22,23,0,-1,0,23,17,-1,0,17,1,-1,1,17,6,-1,1,6,4,-1,16,17,24,-1,24,17,25,-1,18,16,26,-1,26,16,24,-1,18,26,27,-1,18,27,19,-1,19,27,28,-1,19,28,20,-1,21,20,29,-1,29,20,28,-1,21,29,30,-1,21,30,22,-1,22,30,31,-1,22,31,23,-1,17,23,25,-1,25,23,31,-1,32,33,34,-1,34,33,35,-1,33,36,35,-1,35,36,37,-1,36,38,37,-1,37,38,39,-1,40,41,42,-1,40,42,43,-1,43,42,44,-1,43,44,45,-1,45,44,46,-1,45,46,47,-1,47,46,48,-1,47,48,49,-1,49,48,50,-1,49,50,51,-1,51,50,52,-1,51,52,53,-1,53,52,54,-1,53,54,55,-1,55,54,39,-1,55,39,38,-1,32,34,56,-1,32,56,57,-1,57,56,58,-1,57,58,59,-1,59,58,60,-1,59,60,61,-1,61,60,62,-1,61,62,63,-1,63,62,64,-1,63,64,65,-1,65,64,66,-1,65,66,67,-1,67,66,41,-1,67,41,40,-1,45,47,68,-1,68,47,49,-1,68,49,69,-1,69,49,51,-1,69,51,70,-1,70,51,53,-1,70,53,71,-1,71,53,55,-1,71,55,72,-1,72,55,38,-1,72,38,73,-1,73,38,36,-1,73,36,74,-1,74,36,33,-1,74,33,75,-1,75,33,32,-1,75,32,76,-1,76,32,57,-1,76,57,77,-1,77,57,59,-1,77,59,78,-1,78,59,61,-1,78,61,79,-1,79,61,63,-1,79,63,80,-1,80,63,65,-1,80,65,81,-1,81,65,67,-1,81,67,82,-1,82,67,40,-1,82,40,83,-1,83,40,43,-1,83,43,84,-1,84,43,45,-1,84,45,68,-1,72,73,85,-1,85,73,86,-1,72,85,87,-1,72,87,71,-1,71,87,88,-1,71,88,70,-1,70,88,89,-1,70,89,69,-1,69,89,90,-1,69,90,68,-1,68,90,91,-1,68,91,84,-1,84,91,92,-1,84,92,83,-1,83,92,93,-1,83,93,82,-1,82,93,94,-1,82,94,81,-1,81,94,95,-1,81,95,80,-1,80,95,96,-1,80,96,79,-1,79,96,97,-1,79,97,78,-1,78,97,98,-1,78,98,77,-1,77,98,99,-1,77,99,76,-1,76,99,100,-1,76,100,75,-1,74,75,101,-1,101,75,100,-1,73,74,86,-1,86,74,101,-1,102,103,104,-1,104,103,105,-1,103,106,105,-1,105,106,107,-1,106,108,107,-1,107,108,109,-1,108,110,109,-1,109,110,111,-1,110,112,111,-1,111,112,113,-1,112,114,113,-1,113,114,115,-1,114,116,115,-1,115,116,117,-1,116,118,117,-1,117,118,119,-1,118,120,119,-1,119,120,121,-1,120,122,121,-1,121,122,123,-1,122,124,123,-1,123,124,125,-1,124,102,125,-1,125,102,104,-1,106,103,102,-1,102,124,106,-1,106,124,122,-1,106,122,108,-1,112,110,114,-1,114,110,108,-1,114,108,116,-1,116,108,122,-1,116,122,118,-1,118,122,120,-1,126,127,128,-1,128,127,129,-1,129,127,130,-1,131,132,133,-1,131,133,134,-1,134,133,135,-1,134,135,130,-1,130,135,136,-1,130,136,129,-1,137,138,139,-1,137,139,140,-1,140,139,141,-1,140,141,142,-1,142,141,143,-1,142,143,144,-1,144,143,145,-1,144,145,146,-1,146,145,147,-1,146,147,148,-1,148,147,149,-1,148,149,150,-1,150,149,131,-1,131,149,151,-1,131,151,132,-1,152,153,154,-1,152,154,155,-1,155,154,156,-1,155,156,157,-1,157,156,158,-1,157,158,159,-1,159,158,160,-1,159,160,161,-1,161,160,162,-1,161,162,163,-1,163,162,164,-1,163,164,165,-1,165,164,138,-1,165,138,137,-1,166,167,168,-1,166,168,169,-1,169,168,153,-1,169,153,152,-1,166,170,167,-1,167,170,171,-1,172,173,174,-1,172,174,175,-1,175,174,171,-1,175,171,170,-1,176,177,178,-1,176,178,179,-1,179,178,180,-1,179,180,181,-1,181,180,182,-1,181,182,183,-1,183,182,184,-1,183,184,185,-1,185,184,186,-1,185,186,187,-1,187,186,188,-1,187,188,189,-1,189,188,173,-1,189,173,172,-1,190,191,192,-1,190,192,193,-1,193,192,194,-1,193,194,195,-1,195,194,196,-1,195,196,197,-1,197,196,198,-1,197,198,199,-1,199,198,200,-1,199,200,201,-1,201,200,202,-1,201,202,203,-1,203,202,177,-1,203,177,176,-1,126,128,204,-1,126,204,205,-1,205,204,206,-1,205,206,207,-1,207,206,191,-1,207,191,190,-1,193,131,190,-1,190,131,134,-1,190,134,207,-1,207,134,130,-1,207,130,205,-1,205,130,127,-1,205,127,126,-1,170,166,175,-1,175,166,169,-1,175,169,172,-1,172,169,152,-1,172,152,189,-1,189,152,155,-1,189,155,187,-1,187,155,157,-1,187,157,185,-1,185,157,159,-1,185,159,183,-1,183,159,161,-1,183,161,181,-1,181,161,163,-1,181,163,179,-1,179,163,165,-1,179,165,176,-1,176,165,137,-1,176,137,203,-1,203,137,140,-1,203,140,201,-1,201,140,142,-1,201,142,199,-1,199,142,144,-1,199,144,197,-1,197,144,146,-1,197,146,195,-1,195,146,148,-1,195,148,193,-1,193,148,150,-1,193,150,131,-1,208,209,210,-1,210,209,211,-1,209,212,211,-1,211,212,213,-1,212,214,213,-1,213,214,215,-1,214,216,215,-1,215,216,217,-1,216,218,217,-1,217,218,219,-1,218,208,219,-1,219,208,210,-1,216,214,218,-1,218,214,212,-1,218,212,208,-1,208,212,209,-1,
        ]
    }
}
Shape{
    appearance Appearance {
        material  Material 	{
            diffuseColor 1.0 1.0 1.0
            specularColor 0.5019607843137255 0.5019607843137255 0.5019607843137255
            ambientIntensity 1.0
            transparency 0.0
            shininess 0.5
        }
    }
    geometry IndexedFaceSet {
        ccw TRUE
        solid FALSE
        coord DEF co Coordinate {
            point [
                -0.1186 -0.0129 0.0546, -0.1449 -0.0129 0.0546, -0.1303 0.02 0.0546, -0.1331 0.02 0.0546, -0.1311 0.0227 0.0546, -0.1324 0.0227 0.0546, -0.1316 0.0255 0.0546, -0.1318 0.0255 0.0546, -0.0383 0.0265 0.0546, -0.0383 -0.035 0.0546, -0.0499 0.0265 0.0546, -0.0495 -0.035 0.0546, -0.0578 -0.0342 0.0546, -0.0806 -0.0035 0.0546, -0.0799 0.0043 0.0546, -0.0781 0.0106 0.0546, -0.0592 0.0255 0.0546, -0.0644 -0.0322 0.0546, -0.0698 -0.029 0.0546, -0.0742 -0.0246 0.0546, -0.0775 -0.0192 0.0546, -0.0798 -0.0118 0.0546, -0.0753 0.0154 0.0546, -0.0715 0.0195 0.0546, -0.0657 0.0232 0.0546
            ]
        }
        coordIndex [
            0,1,2,-1,2,1,3,-1,2,3,4,-1,4,3,5,-1,4,5,6,-1,6,5,7,-1,8,9,10,-1,10,9,11,-1,10,11,12,-1,13,14,10,-1,10,14,15,-1,10,15,16,-1,12,17,10,-1,10,17,18,-1,10,18,19,-1,19,20,10,-1,10,20,21,-1,10,21,13,-1,22,23,15,-1,15,23,24,-1,15,24,16,-1,
        ]
    }
}