#VRML V2.0 utf8
# 3D model generated by easyeda2kicad.py (https://github.com/uPesy/easyeda2kicad.py)

Shape{
    appearance Appearance {
        material  Material 	{
            diffuseColor 0.8549019607843137 0.8549019607843137 0.8549019607843137
            specularColor 0.42745098039215684 0.42745098039215684 0.42745098039215684
            ambientIntensity 0.8549
            transparency 0.0
            shininess 0.5
        }
    }
    geometry IndexedFaceSet {
        ccw TRUE
        solid FALSE
        coord DEF co Coordinate {
            point [
                0.2366 0.1693 0.1732, 0.2366 0.1968 0.1732, 0.2366 0.1693 0.0, 0.2366 0.1968 0.0, 0.2559 0.1693 0.1732, 0.2559 0.1693 0.0, 0.2559 0.0787 0.1732, 0.2559 0.0787 0.0, 0.3346 0.0787 0.1732, 0.3346 0.0787 0.0, 0.3346 0.1693 0.1732, 0.3346 0.1693 0.0, 0.3933 0.1693 0.1732, 0.3933 0.1693 0.0, 0.3933 0.1968 0.1732, 0.3933 0.1968 0.0, -0.3933 0.1693 0.1732, -0.3933 0.1968 0.1732, -0.3933 0.1693 0.0, -0.3933 0.1968 0.0, -0.3347 0.1693 0.1732, -0.3347 0.1693 0.0, -0.3347 0.0787 0.1732, -0.3347 0.0787 0.0, -0.2559 0.0787 0.1732, -0.2559 0.0787 0.0, -0.2559 0.1693 0.1732, -0.2559 0.1693 0.0, -0.2366 0.1693 0.1732, -0.2366 0.1693 0.0, -0.2366 0.1968 0.1732, -0.2366 0.1968 0.0, -0.1571 0.1693 0.1732, -0.1571 0.1968 0.1732, -0.1571 0.1693 0.0, -0.1571 0.1968 0.0, -0.1378 0.1693 0.1732, -0.1378 0.1693 0.0, -0.1378 0.0787 0.1732, -0.1378 0.0787 0.0, -0.0591 0.0787 0.1732, -0.0591 0.0787 0.0, -0.0591 0.1693 0.1732, -0.0591 0.1693 0.0, -0.0398 0.1693 0.1732, -0.0398 0.1693 0.0, -0.0398 0.1968 0.1732, -0.0398 0.1968 0.0, 0.0398 0.1693 0.1732, 0.0398 0.1968 0.1732, 0.0398 0.1693 0.0, 0.0398 0.1968 0.0, 0.059 0.1693 0.1732, 0.059 0.1693 0.0, 0.059 0.0787 0.1732, 0.059 0.0787 0.0, 0.1378 0.0787 0.1732, 0.1378 0.0787 0.0, 0.1378 0.1693 0.1732, 0.1378 0.1693 0.0, 0.1571 0.1693 0.1732, 0.1571 0.1693 0.0, 0.1571 0.1968 0.1732, 0.1571 0.1968 0.0
            ]
        }
        coordIndex [
            0,1,2,-1,2,1,3,-1,4,0,5,-1,5,0,2,-1,6,4,7,-1,7,4,5,-1,8,6,9,-1,9,6,7,-1,10,8,11,-1,11,8,9,-1,12,10,13,-1,13,10,11,-1,14,12,15,-1,15,12,13,-1,1,14,3,-1,3,14,15,-1,14,1,4,-1,4,1,0,-1,12,14,10,-1,10,14,4,-1,10,4,8,-1,8,4,6,-1,5,2,3,-1,15,13,11,-1,9,7,11,-1,11,7,5,-1,11,5,15,-1,15,5,3,-1,16,17,18,-1,18,17,19,-1,20,16,21,-1,21,16,18,-1,22,20,23,-1,23,20,21,-1,24,22,25,-1,25,22,23,-1,26,24,27,-1,27,24,25,-1,28,26,29,-1,29,26,27,-1,30,28,31,-1,31,28,29,-1,17,30,19,-1,19,30,31,-1,30,17,20,-1,20,17,16,-1,28,30,26,-1,26,30,20,-1,26,20,24,-1,24,20,22,-1,19,31,27,-1,27,31,29,-1,18,19,21,-1,21,19,27,-1,21,27,23,-1,23,27,25,-1,32,33,34,-1,34,33,35,-1,36,32,37,-1,37,32,34,-1,38,36,39,-1,39,36,37,-1,40,38,41,-1,41,38,39,-1,42,40,43,-1,43,40,41,-1,44,42,45,-1,45,42,43,-1,46,44,47,-1,47,44,45,-1,33,46,35,-1,35,46,47,-1,46,33,36,-1,36,33,32,-1,44,46,42,-1,42,46,36,-1,42,36,40,-1,40,36,38,-1,35,47,43,-1,43,47,45,-1,34,35,37,-1,37,35,43,-1,37,43,39,-1,39,43,41,-1,48,49,50,-1,50,49,51,-1,52,48,53,-1,53,48,50,-1,54,52,55,-1,55,52,53,-1,56,54,57,-1,57,54,55,-1,58,56,59,-1,59,56,57,-1,60,58,61,-1,61,58,59,-1,62,60,63,-1,63,60,61,-1,49,62,51,-1,51,62,63,-1,62,49,52,-1,52,49,48,-1,60,62,58,-1,58,62,52,-1,58,52,56,-1,56,52,54,-1,51,63,59,-1,59,63,61,-1,50,51,53,-1,53,51,59,-1,53,59,55,-1,55,59,57,-1,
        ]
    }
}
Shape{
    appearance Appearance {
        material  Material 	{
            diffuseColor 0.25098039215686274 0.25098039215686274 0.25098039215686274
            specularColor 0.12549019607843137 0.12549019607843137 0.12549019607843137
            ambientIntensity 0.251
            transparency 0.0
            shininess 0.5
        }
    }
    geometry IndexedFaceSet {
        ccw TRUE
        solid FALSE
        coord DEF co Coordinate {
            point [
                0.3937 0.1142 0.1772, 0.3937 -0.1142 0.1772, 0.3937 0.1142 0.1693, 0.3937 -0.1142 0.1693, -0.3937 0.1142 0.1772, -0.3937 0.1142 0.1693, -0.3937 -0.1142 0.1772, -0.3937 -0.1142 0.1693
            ]
        }
        coordIndex [
            0,1,2,-1,2,1,3,-1,4,0,5,-1,5,0,2,-1,6,4,7,-1,7,4,5,-1,1,6,3,-1,3,6,7,-1,4,6,0,-1,0,6,1,-1,7,5,3,-1,3,5,2,-1,
        ]
    }
}
Shape{
    appearance Appearance {
        material  Material 	{
            diffuseColor 1.0 1.0 1.0
            specularColor 0.5019607843137255 0.5019607843137255 0.5019607843137255
            ambientIntensity 1.0
            transparency 0.0
            shininess 0.5
        }
    }
    geometry IndexedFaceSet {
        ccw TRUE
        solid FALSE
        coord DEF co Coordinate {
            point [
                -0.0398 -0.1693 0.0039, -0.0591 -0.1693 0.0039, -0.0591 -0.0788 0.0039, 0.0313 0.0191 0.0039, 0.0351 0.0186 0.0039, 0.0227 -0.0105 0.0039, 0.0749 0.0229 0.0039, 0.0696 0.0229 0.0039, 0.0182 0.1142 0.0039, 0.0265 0.0184 0.0039, 0.022 -0.0101 0.0039, 0.022 0.0166 0.0039, 0.022 0.0218 0.0039, 0.0394 0.1929 0.0039, 0.1575 0.1929 0.0039, 0.0394 0.1142 0.0039, 0.1575 0.1142 0.0039, 0.0749 -0.0165 0.0039, 0.2362 0.1142 0.0039, 0.0381 0.0176 0.0039, 0.0408 0.0157 0.0039, 0.0432 0.0131 0.0039, 0.046 0.0028 0.0039, 0.0456 -0.0015 0.0039, 0.0446 -0.0048 0.0039, 0.0358 -0.0122 0.0039, 0.0321 -0.0126 0.0039, 0.0387 -0.0111 0.0039, 0.0411 -0.0095 0.0039, 0.0429 -0.0076 0.0039, 0.0269 -0.012 0.0039, 0.0415 -0.0151 0.0039, 0.0447 -0.0131 0.0039, 0.0547 -0.0165 0.0039, 0.0477 -0.01 0.0039, 0.0547 -0.0121 0.0039, 0.0498 -0.0062 0.0039, 0.0696 -0.0121 0.0039, 0.0493 0.0125 0.0039, 0.0469 0.0162 0.0039, 0.0434 0.0196 0.0039, 0.0396 0.0218 0.0039, 0.0353 0.0231 0.0039, 0.0448 0.0101 0.0039, 0.0459 0.0059 0.0039, 0.2362 0.1929 0.0039, 0.3937 0.1929 0.0039, 0.3937 -0.0167 0.0039, 0.0352 -0.0167 0.0039, 0.0377 -0.0164 0.0039, 0.0509 -0.0021 0.0039, 0.0513 0.0025 0.0039, 0.0508 0.0081 0.0039, 0.0313 0.0234 0.0039, 0.0266 0.0231 0.0039, 0.3937 -0.1929 0.0039, 0.3933 -0.1929 0.0039, 0.3933 -0.1693 0.0039, 0.1575 -0.1142 0.0039, 0.1575 -0.1929 0.0039, 0.1571 -0.1693 0.0039, 0.1571 -0.1929 0.0039, 0.0398 -0.1929 0.0039, 0.0394 -0.1929 0.0039, 0.0398 -0.1693 0.0039, 0.0394 -0.1142 0.0039, 0.059 -0.1693 0.0039, 0.059 -0.0788 0.0039, 0.2559 -0.0788 0.0039, 0.2559 -0.1693 0.0039, 0.2366 -0.1693 0.0039, 0.2366 -0.1929 0.0039, 0.2362 -0.1929 0.0039, 0.2362 -0.1142 0.0039, 0.1378 -0.0788 0.0039, 0.1378 -0.1693 0.0039, 0.022 -0.0144 0.0039, 0.0262 -0.0161 0.0039, 0.0182 -0.0167 0.0039, 0.0302 -0.0167 0.0039, 0.0318 -0.0169 0.0039, 0.0329 -0.0169 0.0039, 0.3346 -0.0788 0.0039, 0.3346 -0.1693 0.0039, 0.0144 -0.0165 0.0039, 0.0144 0.0229 0.0039, -0.049 -0.0165 0.0039, -0.0442 -0.0057 0.0039, -0.0419 -0.0092 0.0039, -0.1575 0.1929 0.0039, -0.0394 0.1929 0.0039, -0.0394 0.1142 0.0039, -0.0058 0.0186 0.0039, 0.0091 0.0186 0.0039, 0.0091 0.0056 0.0039, -0.3937 0.1929 0.0039, -0.2362 0.1929 0.0039, -0.3937 -0.0167 0.0039, -0.2362 0.1142 0.0039, -0.0058 0.0229 0.0039, -0.0144 0.0229 0.0039, -0.0048 0.0056 0.0039, -0.0144 -0.0165 0.0039, -0.0048 0.0013 0.0039, -0.0387 -0.0123 0.0039, -0.0346 -0.0147 0.0039, -0.03 -0.016 0.0039, 0.0091 0.0013 0.0039, 0.0091 -0.0121 0.0039, -0.0068 -0.0121 0.0039, -0.0068 -0.0165 0.0039, -0.0256 0.0229 0.0039, -0.0312 0.0223 0.0039, -0.0845 -0.0165 0.0039, -0.0788 -0.0165 0.0039, -0.0252 -0.0165 0.0039, -0.0448 0.0113 0.0039, -0.0459 0.0074 0.0039, -0.0639 0.0229 0.0039, -0.0461 0.0037 0.0039, -0.0456 -0.0015 0.0039, -0.0692 0.0229 0.0039, -0.1575 0.1142 0.0039, -0.043 0.0147 0.0039, -0.0359 0.0207 0.0039, -0.0401 0.0178 0.0039, -0.0402 0.0178 0.0039, -0.0748 -0.0054 0.0039, -0.0585 -0.0054 0.0039, -0.0548 -0.0165 0.0039, 0.0182 -0.1142 0.0039, -0.0394 -0.1142 0.0039, -0.0394 -0.1929 0.0039, -0.0398 -0.1929 0.0039, -0.1378 -0.0788 0.0039, -0.1378 -0.1693 0.0039, -0.1571 -0.1693 0.0039, -0.2362 -0.1142 0.0039, -0.2362 -0.1929 0.0039, -0.2366 -0.1693 0.0039, -0.2366 -0.1929 0.0039, -0.3933 -0.1929 0.0039, -0.3937 -0.1929 0.0039, -0.3933 -0.1693 0.0039, -0.3347 -0.1693 0.0039, -0.3347 -0.0788 0.0039, -0.1571 -0.1929 0.0039, -0.1575 -0.1929 0.0039, -0.1575 -0.1142 0.0039, -0.2559 -0.0788 0.0039, -0.2559 -0.1693 0.0039, 0.3933 -0.1693 0.1693, 0.3933 -0.1929 0.1693, 0.3937 -0.1929 0.1693, 0.3937 0.1929 0.1693, 0.2362 0.1929 0.1693, 0.2362 0.1142 0.1693, -0.0398 -0.1693 0.1693, -0.0398 -0.1929 0.1693, -0.0394 -0.1929 0.1693, 0.1575 0.1929 0.1693, 0.0394 0.1929 0.1693, 0.1575 0.1142 0.1693, 0.0394 0.1142 0.1693, 0.2366 -0.1693 0.1693, 0.2559 -0.1693 0.1693, 0.2559 -0.0788 0.1693, -0.0394 0.1929 0.1693, -0.1575 0.1929 0.1693, -0.0394 0.1142 0.1693, -0.1575 0.1142 0.1693, 0.0394 -0.1929 0.1693, 0.0398 -0.1929 0.1693, 0.0398 -0.1693 0.1693, 0.059 -0.1693 0.1693, 0.059 -0.0788 0.1693, 0.0394 -0.1142 0.1693, -0.3933 -0.1693 0.1693, -0.3347 -0.1693 0.1693, -0.3347 -0.0788 0.1693, -0.0394 -0.1142 0.1693, -0.0591 -0.0788 0.1693, -0.0591 -0.1693 0.1693, -0.2559 -0.0788 0.1693, -0.2559 -0.1693 0.1693, -0.2366 -0.1693 0.1693, -0.2362 0.1929 0.1693, -0.2362 0.1142 0.1693, 0.1378 -0.0788 0.1693, 0.1571 -0.1929 0.1693, 0.1575 -0.1929 0.1693, 0.1571 -0.1693 0.1693, 0.1575 -0.1142 0.1693, -0.1575 -0.1142 0.1693, -0.1575 -0.1929 0.1693, -0.1571 -0.1693 0.1693, -0.1571 -0.1929 0.1693, -0.3937 0.1929 0.1693, -0.3937 -0.1929 0.1693, -0.3933 -0.1929 0.1693, 0.2362 -0.1929 0.1693, 0.2366 -0.1929 0.1693, -0.2366 -0.1929 0.1693, -0.2362 -0.1929 0.1693, -0.2362 -0.1142 0.1693, -0.1378 -0.0788 0.1693, -0.1378 -0.1693 0.1693, 0.2362 -0.1142 0.1693, 0.3346 -0.1693 0.1693, 0.3346 -0.0788 0.1693, 0.1378 -0.1693 0.1693
            ]
        }
        coordIndex [
            0,1,2,-1,3,4,5,-1,6,7,8,-1,3,5,9,-1,9,5,10,-1,9,10,11,-1,11,10,8,-1,11,8,12,-1,13,14,15,-1,15,14,16,-1,8,15,6,-1,6,15,16,-1,6,16,17,-1,17,16,18,-1,4,19,5,-1,5,19,20,-1,5,20,21,-1,22,23,5,-1,5,23,24,-1,25,26,27,-1,27,26,28,-1,24,29,5,-1,5,29,28,-1,5,28,30,-1,30,28,26,-1,31,32,33,-1,33,32,34,-1,33,34,35,-1,35,34,36,-1,35,36,37,-1,38,39,7,-1,7,39,40,-1,7,40,8,-1,8,40,41,-1,8,41,42,-1,21,43,5,-1,5,43,44,-1,5,44,22,-1,45,46,18,-1,18,46,47,-1,18,47,17,-1,17,47,48,-1,17,48,33,-1,33,48,49,-1,33,49,31,-1,36,50,37,-1,37,50,51,-1,37,51,7,-1,7,51,52,-1,7,52,38,-1,42,53,8,-1,8,53,54,-1,8,54,12,-1,55,56,57,-1,58,59,60,-1,60,59,61,-1,62,63,64,-1,64,63,65,-1,64,65,66,-1,66,65,67,-1,55,57,47,-1,68,69,70,-1,71,72,70,-1,70,72,73,-1,70,73,68,-1,68,73,58,-1,68,58,74,-1,74,58,60,-1,74,60,75,-1,76,77,78,-1,78,77,79,-1,78,79,67,-1,79,80,67,-1,67,80,81,-1,67,81,74,-1,74,81,48,-1,74,48,68,-1,68,48,47,-1,68,47,82,-1,82,47,57,-1,82,57,83,-1,78,84,85,-1,86,87,88,-1,89,90,91,-1,92,93,94,-1,95,96,97,-1,97,96,98,-1,92,89,99,-1,99,89,91,-1,99,91,85,-1,85,91,8,-1,85,8,78,-1,78,8,10,-1,78,10,76,-1,100,101,102,-1,102,101,103,-1,88,104,86,-1,86,104,105,-1,86,105,106,-1,107,108,103,-1,103,108,109,-1,103,109,102,-1,102,109,110,-1,94,101,92,-1,92,101,100,-1,92,100,89,-1,89,100,111,-1,89,111,112,-1,113,114,78,-1,115,102,78,-1,78,102,110,-1,78,110,84,-1,116,117,118,-1,118,117,119,-1,118,119,86,-1,86,119,120,-1,86,120,87,-1,78,97,113,-1,113,97,98,-1,113,98,121,-1,121,98,122,-1,121,122,118,-1,118,122,123,-1,118,123,116,-1,112,124,89,-1,89,124,125,-1,89,125,122,-1,122,125,126,-1,122,126,123,-1,127,128,114,-1,114,128,129,-1,114,129,78,-1,78,129,86,-1,78,86,115,-1,115,86,106,-1,67,65,78,-1,78,65,130,-1,78,130,131,-1,132,133,0,-1,134,135,136,-1,137,138,139,-1,139,138,140,-1,141,142,143,-1,143,142,97,-1,143,97,144,-1,144,97,145,-1,146,147,136,-1,136,147,148,-1,136,148,134,-1,134,148,137,-1,134,137,149,-1,149,137,139,-1,149,139,150,-1,132,0,131,-1,131,0,2,-1,131,2,78,-1,78,2,134,-1,78,134,97,-1,97,134,149,-1,97,149,145,-1,151,152,153,-1,153,154,151,-1,151,154,155,-1,151,155,156,-1,157,158,159,-1,160,161,162,-1,162,161,163,-1,164,165,166,-1,167,168,169,-1,169,168,170,-1,171,172,173,-1,174,175,173,-1,173,175,176,-1,173,176,171,-1,177,178,179,-1,159,180,157,-1,157,180,181,-1,157,181,182,-1,183,184,185,-1,186,177,187,-1,187,177,179,-1,187,179,170,-1,188,156,175,-1,175,156,162,-1,189,190,191,-1,191,190,192,-1,193,194,195,-1,195,194,196,-1,186,197,177,-1,177,197,198,-1,177,198,199,-1,200,201,164,-1,202,203,185,-1,185,203,204,-1,185,204,183,-1,183,204,193,-1,183,193,205,-1,205,193,195,-1,205,195,206,-1,200,164,207,-1,207,164,166,-1,207,166,192,-1,208,151,209,-1,209,151,156,-1,209,156,166,-1,166,156,188,-1,166,188,192,-1,192,188,210,-1,192,210,191,-1,170,179,169,-1,169,179,183,-1,169,183,163,-1,163,183,205,-1,163,205,162,-1,162,205,181,-1,162,181,175,-1,175,181,180,-1,175,180,176,-1,171,63,172,-1,172,63,62,-1,59,190,61,-1,61,190,189,-1,194,147,196,-1,196,147,146,-1,132,159,133,-1,133,159,158,-1,198,142,199,-1,199,142,141,-1,138,203,140,-1,140,203,202,-1,200,72,201,-1,201,72,71,-1,55,153,56,-1,56,153,152,-1,96,95,186,-1,186,95,197,-1,168,167,89,-1,89,167,90,-1,161,160,13,-1,13,160,14,-1,46,154,47,-1,47,154,153,-1,47,153,55,-1,155,154,45,-1,45,154,46,-1,197,95,198,-1,198,95,97,-1,198,97,142,-1,16,14,162,-1,162,14,160,-1,45,18,155,-1,155,18,156,-1,18,16,156,-1,156,16,162,-1,91,90,169,-1,169,90,167,-1,13,15,161,-1,161,15,163,-1,91,169,8,-1,8,169,163,-1,8,163,15,-1,98,96,187,-1,187,96,186,-1,89,122,168,-1,168,122,170,-1,122,98,170,-1,170,98,187,-1,59,58,190,-1,190,58,192,-1,58,73,192,-1,192,73,207,-1,73,72,207,-1,207,72,200,-1,132,131,159,-1,159,131,180,-1,65,176,130,-1,130,176,180,-1,130,180,131,-1,65,63,176,-1,176,63,171,-1,138,137,203,-1,203,137,204,-1,137,148,204,-1,204,148,193,-1,148,147,193,-1,193,147,194,-1,
        ]
    }
}
Shape{
    appearance Appearance {
        material  Material 	{
            diffuseColor 0.8549019607843137 0.8549019607843137 0.8549019607843137
            specularColor 0.42745098039215684 0.42745098039215684 0.42745098039215684
            ambientIntensity 0.8549
            transparency 0.0
            shininess 0.5
        }
    }
    geometry IndexedFaceSet {
        ccw TRUE
        solid FALSE
        coord DEF co Coordinate {
            point [
                0.2366 -0.1693 0.0039, 0.2366 -0.1693 0.0, 0.2366 -0.1929 0.0039, 0.2366 -0.1969 0.0, 0.2366 -0.1929 0.1693, 0.2366 -0.1969 0.1732, 0.2366 -0.1693 0.1693, 0.2366 -0.1693 0.1732, 0.2559 -0.1693 0.1693, 0.2559 -0.1693 0.1732, 0.2559 -0.0788 0.1693, 0.2559 -0.0788 0.1732, 0.3346 -0.0788 0.1693, 0.3346 -0.0788 0.1732, 0.3346 -0.1693 0.1693, 0.3346 -0.1693 0.1732, 0.3933 -0.1693 0.1693, 0.3933 -0.1693 0.1732, 0.3933 -0.1929 0.1693, 0.3933 -0.1969 0.1732, 0.3933 -0.1929 0.0039, 0.3933 -0.1969 0.0, 0.3933 -0.1693 0.0039, 0.3933 -0.1693 0.0, 0.2559 -0.1693 0.0, 0.2559 -0.1693 0.0039, 0.2559 -0.0788 0.0, 0.2559 -0.0788 0.0039, 0.3346 -0.0788 0.0, 0.3346 -0.0788 0.0039, 0.3346 -0.1693 0.0, 0.3346 -0.1693 0.0039, -0.3933 -0.1693 0.1693, -0.3933 -0.1693 0.1732, -0.3347 -0.1693 0.1693, -0.3347 -0.1693 0.1732, -0.3347 -0.0788 0.1693, -0.3347 -0.0788 0.1732, -0.2559 -0.0788 0.1693, -0.2559 -0.0788 0.1732, -0.2559 -0.1693 0.1693, -0.2559 -0.1693 0.1732, -0.2366 -0.1693 0.1693, -0.2366 -0.1693 0.1732, -0.3933 -0.1693 0.0039, -0.3933 -0.1693 0.0, -0.3933 -0.1929 0.0039, -0.3933 -0.1969 0.0, -0.3933 -0.1929 0.1693, -0.3933 -0.1969 0.1732, -0.2366 -0.1929 0.1693, -0.2366 -0.1969 0.1732, -0.2366 -0.1929 0.0039, -0.2366 -0.1969 0.0, -0.2366 -0.1693 0.0039, -0.2366 -0.1693 0.0, -0.3347 -0.1693 0.0, -0.3347 -0.1693 0.0039, -0.3347 -0.0788 0.0, -0.3347 -0.0788 0.0039, -0.2559 -0.0788 0.0, -0.2559 -0.0788 0.0039, -0.2559 -0.1693 0.0, -0.2559 -0.1693 0.0039, -0.1571 -0.1693 0.1693, -0.1571 -0.1693 0.1732, -0.1378 -0.1693 0.1693, -0.1378 -0.1693 0.1732, -0.1378 -0.0788 0.1693, -0.1378 -0.0788 0.1732, -0.0591 -0.0788 0.1693, -0.0591 -0.0788 0.1732, -0.0591 -0.1693 0.1693, -0.0591 -0.1693 0.1732, -0.0398 -0.1693 0.1693, -0.0398 -0.1693 0.1732, -0.1571 -0.1693 0.0039, -0.1571 -0.1693 0.0, -0.1571 -0.1929 0.0039, -0.1571 -0.1969 0.0, -0.1571 -0.1929 0.1693, -0.1571 -0.1969 0.1732, -0.0398 -0.1929 0.1693, -0.0398 -0.1969 0.1732, -0.0398 -0.1929 0.0039, -0.0398 -0.1969 0.0, -0.0398 -0.1693 0.0039, -0.0398 -0.1693 0.0, -0.1378 -0.1693 0.0, -0.1378 -0.1693 0.0039, -0.1378 -0.0788 0.0, -0.1378 -0.0788 0.0039, -0.0591 -0.0788 0.0, -0.0591 -0.0788 0.0039, -0.0591 -0.1693 0.0, -0.0591 -0.1693 0.0039, 0.0398 -0.1693 0.1693, 0.0398 -0.1693 0.1732, 0.059 -0.1693 0.1693, 0.059 -0.1693 0.1732, 0.059 -0.0788 0.1693, 0.059 -0.0788 0.1732, 0.1378 -0.0788 0.1693, 0.1378 -0.0788 0.1732, 0.1378 -0.1693 0.1693, 0.1378 -0.1693 0.1732, 0.1571 -0.1693 0.1693, 0.1571 -0.1693 0.1732, 0.0398 -0.1693 0.0039, 0.0398 -0.1693 0.0, 0.0398 -0.1929 0.0039, 0.0398 -0.1969 0.0, 0.0398 -0.1929 0.1693, 0.0398 -0.1969 0.1732, 0.1571 -0.1929 0.1693, 0.1571 -0.1969 0.1732, 0.1571 -0.1929 0.0039, 0.1571 -0.1969 0.0, 0.1571 -0.1693 0.0039, 0.1571 -0.1693 0.0, 0.059 -0.1693 0.0, 0.059 -0.1693 0.0039, 0.059 -0.0788 0.0, 0.059 -0.0788 0.0039, 0.1378 -0.0788 0.0, 0.1378 -0.0788 0.0039, 0.1378 -0.1693 0.0, 0.1378 -0.1693 0.0039
            ]
        }
        coordIndex [
            0,1,2,-1,2,1,3,-1,2,3,4,-1,4,3,5,-1,4,5,6,-1,6,5,7,-1,6,7,8,-1,8,7,9,-1,8,9,10,-1,10,9,11,-1,10,11,12,-1,12,11,13,-1,12,13,14,-1,14,13,15,-1,14,15,16,-1,16,15,17,-1,16,17,18,-1,18,17,19,-1,18,19,20,-1,20,19,21,-1,20,21,22,-1,22,21,23,-1,24,1,25,-1,25,1,0,-1,26,24,27,-1,27,24,25,-1,28,26,29,-1,29,26,27,-1,30,28,31,-1,31,28,29,-1,23,30,22,-1,22,30,31,-1,19,5,21,-1,21,5,3,-1,9,7,5,-1,19,17,15,-1,13,11,15,-1,15,11,9,-1,15,9,19,-1,19,9,5,-1,21,3,24,-1,24,3,1,-1,23,21,30,-1,30,21,24,-1,30,24,28,-1,28,24,26,-1,32,33,34,-1,34,33,35,-1,34,35,36,-1,36,35,37,-1,36,37,38,-1,38,37,39,-1,38,39,40,-1,40,39,41,-1,40,41,42,-1,42,41,43,-1,44,45,46,-1,46,45,47,-1,46,47,48,-1,48,47,49,-1,48,49,32,-1,32,49,33,-1,42,43,50,-1,50,43,51,-1,50,51,52,-1,52,51,53,-1,52,53,54,-1,54,53,55,-1,56,45,57,-1,57,45,44,-1,58,56,59,-1,59,56,57,-1,60,58,61,-1,61,58,59,-1,62,60,63,-1,63,60,61,-1,55,62,54,-1,54,62,63,-1,51,49,53,-1,53,49,47,-1,49,51,41,-1,41,51,43,-1,33,49,35,-1,35,49,41,-1,35,41,37,-1,37,41,39,-1,53,47,56,-1,56,47,45,-1,55,53,62,-1,62,53,56,-1,62,56,60,-1,60,56,58,-1,64,65,66,-1,66,65,67,-1,66,67,68,-1,68,67,69,-1,68,69,70,-1,70,69,71,-1,70,71,72,-1,72,71,73,-1,72,73,74,-1,74,73,75,-1,76,77,78,-1,78,77,79,-1,78,79,80,-1,80,79,81,-1,80,81,64,-1,64,81,65,-1,74,75,82,-1,82,75,83,-1,82,83,84,-1,84,83,85,-1,84,85,86,-1,86,85,87,-1,88,77,89,-1,89,77,76,-1,90,88,91,-1,91,88,89,-1,92,90,93,-1,93,90,91,-1,94,92,95,-1,95,92,93,-1,87,94,86,-1,86,94,95,-1,83,81,85,-1,85,81,79,-1,81,83,73,-1,73,83,75,-1,65,81,67,-1,67,81,73,-1,67,73,69,-1,69,73,71,-1,85,79,88,-1,88,79,77,-1,87,85,94,-1,94,85,88,-1,94,88,92,-1,92,88,90,-1,96,97,98,-1,98,97,99,-1,98,99,100,-1,100,99,101,-1,100,101,102,-1,102,101,103,-1,102,103,104,-1,104,103,105,-1,104,105,106,-1,106,105,107,-1,108,109,110,-1,110,109,111,-1,110,111,112,-1,112,111,113,-1,112,113,96,-1,96,113,97,-1,106,107,114,-1,114,107,115,-1,114,115,116,-1,116,115,117,-1,116,117,118,-1,118,117,119,-1,120,109,121,-1,121,109,108,-1,122,120,123,-1,123,120,121,-1,124,122,125,-1,125,122,123,-1,126,124,127,-1,127,124,125,-1,119,126,118,-1,118,126,127,-1,115,113,117,-1,117,113,111,-1,113,115,105,-1,105,115,107,-1,97,113,99,-1,99,113,105,-1,99,105,101,-1,101,105,103,-1,117,111,120,-1,120,111,109,-1,119,117,126,-1,126,117,120,-1,126,120,124,-1,124,120,122,-1,
        ]
    }
}
Shape{
    appearance Appearance {
        material  Material 	{
            diffuseColor 0.25098039215686274 0.25098039215686274 0.25098039215686274
            specularColor 0.12549019607843137 0.12549019607843137 0.12549019607843137
            ambientIntensity 0.251
            transparency 0.0
            shininess 0.5
        }
    }
    geometry IndexedFaceSet {
        ccw TRUE
        solid FALSE
        coord DEF co Coordinate {
            point [
                -0.0692 0.0229 0.0079, -0.0845 -0.0165 0.0079, -0.0692 0.0229 0.0039, -0.0845 -0.0165 0.0039, -0.0788 -0.0165 0.0079, -0.0788 -0.0165 0.0039, -0.0748 -0.0054 0.0079, -0.0748 -0.0054 0.0039, -0.0585 -0.0054 0.0079, -0.0585 -0.0054 0.0039, -0.0548 -0.0165 0.0079, -0.0548 -0.0165 0.0039, -0.049 -0.0165 0.0079, -0.049 -0.0165 0.0039, -0.0639 0.0229 0.0079, -0.0639 0.0229 0.0039, -0.0599 -0.0011 0.0079, -0.073 -0.0011 0.0079, -0.0657 0.0154 0.0079, -0.0661 0.0167 0.0079, -0.0664 0.0181 0.0079, -0.0665 0.0181 0.0079, -0.0668 0.0167 0.0079, -0.0671 0.0154 0.0079, -0.0599 -0.0011 0.0039, -0.073 -0.0011 0.0039, -0.0657 0.0154 0.0039, -0.0661 0.0167 0.0039, -0.0664 0.0181 0.0039, -0.0665 0.0181 0.0039, -0.0668 0.0167 0.0039, -0.0671 0.0154 0.0039, -0.0252 -0.0165 0.0079, -0.0144 -0.0165 0.0079, -0.0252 -0.0165 0.0039, -0.0144 -0.0165 0.0039, -0.0144 0.0229 0.0079, -0.0144 0.0229 0.0039, -0.0256 0.0229 0.0079, -0.0256 0.0229 0.0039, -0.0461 0.0037 0.0079, -0.0461 0.0037 0.0039, -0.0459 0.0074 0.0039, -0.0459 0.0074 0.0079, -0.0448 0.0113 0.0039, -0.0448 0.0113 0.0079, -0.043 0.0147 0.0039, -0.043 0.0147 0.0079, -0.0402 0.0178 0.0039, -0.0402 0.0178 0.0079, -0.0401 0.0178 0.0039, -0.0401 0.0178 0.0079, -0.0359 0.0207 0.0039, -0.0359 0.0207 0.0079, -0.0312 0.0223 0.0039, -0.0312 0.0223 0.0079, -0.03 -0.016 0.0039, -0.03 -0.016 0.0079, -0.0346 -0.0147 0.0039, -0.0346 -0.0147 0.0079, -0.0387 -0.0123 0.0039, -0.0387 -0.0123 0.0079, -0.0419 -0.0092 0.0039, -0.0419 -0.0092 0.0079, -0.0442 -0.0057 0.0039, -0.0442 -0.0057 0.0079, -0.0456 -0.0015 0.0039, -0.0456 -0.0015 0.0079, -0.0382 0.0131 0.0079, -0.0363 0.0151 0.0079, -0.0334 0.017 0.0079, -0.0302 0.0181 0.0079, -0.0255 0.0186 0.0079, -0.0197 0.0186 0.0079, -0.0197 -0.0121 0.0079, -0.0253 -0.0121 0.0079, -0.0295 -0.0117 0.0079, -0.0328 -0.0107 0.0079, -0.0355 -0.0091 0.0079, -0.0377 -0.0069 0.0079, -0.0393 -0.0042 0.0079, -0.0405 -0.0005 0.0079, -0.0409 0.0036 0.0079, -0.0405 0.0075 0.0079, -0.0396 0.0106 0.0079, -0.0255 0.0186 0.0039, -0.0197 0.0186 0.0039, -0.0302 0.0181 0.0039, -0.0334 0.017 0.0039, -0.0363 0.0151 0.0039, -0.0382 0.0131 0.0039, -0.0396 0.0106 0.0039, -0.0405 0.0075 0.0039, -0.0409 0.0036 0.0039, -0.0405 -0.0005 0.0039, -0.0393 -0.0042 0.0039, -0.0377 -0.0069 0.0039, -0.0355 -0.0091 0.0039, -0.0328 -0.0107 0.0039, -0.0295 -0.0117 0.0039, -0.0253 -0.0121 0.0039, -0.0197 -0.0121 0.0039, -0.0068 -0.0121 0.0079, -0.0068 -0.0165 0.0079, -0.0068 -0.0121 0.0039, -0.0068 -0.0165 0.0039, 0.0144 -0.0165 0.0079, 0.0144 -0.0165 0.0039, 0.0144 0.0229 0.0079, 0.0144 0.0229 0.0039, -0.0058 0.0229 0.0079, -0.0058 0.0229 0.0039, -0.0058 0.0186 0.0079, -0.0058 0.0186 0.0039, 0.0091 0.0186 0.0079, 0.0091 0.0186 0.0039, 0.0091 0.0056 0.0079, 0.0091 0.0056 0.0039, -0.0048 0.0056 0.0079, -0.0048 0.0056 0.0039, -0.0048 0.0013 0.0079, -0.0048 0.0013 0.0039, 0.0091 0.0013 0.0079, 0.0091 0.0013 0.0039, 0.0091 -0.0121 0.0079, 0.0091 -0.0121 0.0039, 0.022 -0.0101 0.0079, 0.022 -0.0144 0.0079, 0.022 -0.0101 0.0039, 0.022 -0.0144 0.0039, 0.0262 -0.0161 0.0079, 0.0329 -0.0169 0.0079, 0.0329 -0.0169 0.0039, 0.0318 -0.0169 0.0039, 0.0318 -0.0169 0.0079, 0.0302 -0.0167 0.0039, 0.0262 -0.0161 0.0039, 0.0513 0.0025 0.0079, 0.0513 0.0025 0.0039, 0.0509 -0.0021 0.0039, 0.0509 -0.0021 0.0079, 0.0498 -0.0062 0.0039, 0.0498 -0.0062 0.0079, 0.0477 -0.01 0.0039, 0.0477 -0.01 0.0079, 0.0447 -0.0131 0.0039, 0.0447 -0.0131 0.0079, 0.0415 -0.0151 0.0039, 0.0415 -0.0151 0.0079, 0.0377 -0.0164 0.0039, 0.0377 -0.0164 0.0079, 0.0352 -0.0167 0.0039, 0.0313 0.0234 0.0079, 0.0313 0.0234 0.0039, 0.0353 0.0231 0.0039, 0.0353 0.0231 0.0079, 0.0396 0.0218 0.0039, 0.0396 0.0218 0.0079, 0.0434 0.0196 0.0039, 0.0434 0.0196 0.0079, 0.0469 0.0162 0.0039, 0.0469 0.0162 0.0079, 0.0493 0.0125 0.0039, 0.0493 0.0125 0.0079, 0.0508 0.0081 0.0039, 0.0508 0.0081 0.0079, 0.022 0.0218 0.0079, 0.022 0.0218 0.0039, 0.0266 0.0231 0.0039, 0.0266 0.0231 0.0079, 0.022 0.0166 0.0079, 0.022 0.0166 0.0039, 0.0313 0.0191 0.0079, 0.0313 0.0191 0.0039, 0.0265 0.0184 0.0039, 0.0265 0.0184 0.0079, 0.046 0.0028 0.0079, 0.046 0.0028 0.0039, 0.0459 0.0059 0.0039, 0.0459 0.0059 0.0079, 0.0448 0.0101 0.0039, 0.0448 0.0101 0.0079, 0.0432 0.0131 0.0039, 0.0432 0.0131 0.0079, 0.0408 0.0157 0.0039, 0.0408 0.0157 0.0079, 0.0381 0.0176 0.0039, 0.0381 0.0176 0.0079, 0.0351 0.0186 0.0039, 0.0351 0.0186 0.0079, 0.0321 -0.0126 0.0079, 0.0321 -0.0126 0.0039, 0.0358 -0.0122 0.0039, 0.0358 -0.0122 0.0079, 0.0387 -0.0111 0.0039, 0.0387 -0.0111 0.0079, 0.0411 -0.0095 0.0039, 0.0411 -0.0095 0.0079, 0.0429 -0.0076 0.0039, 0.0429 -0.0076 0.0079, 0.0446 -0.0048 0.0039, 0.0446 -0.0048 0.0079, 0.0456 -0.0015 0.0039, 0.0456 -0.0015 0.0079, 0.0227 -0.0105 0.0039, 0.0227 -0.0105 0.0079, 0.0269 -0.012 0.0039, 0.0269 -0.012 0.0079, 0.0547 -0.0121 0.0079, 0.0547 -0.0165 0.0079, 0.0547 -0.0121 0.0039, 0.0547 -0.0165 0.0039, 0.0749 -0.0165 0.0079, 0.0749 -0.0165 0.0039, 0.0749 0.0229 0.0079, 0.0749 0.0229 0.0039, 0.0696 0.0229 0.0079, 0.0696 0.0229 0.0039, 0.0696 -0.0121 0.0079, 0.0696 -0.0121 0.0039
            ]
        }
        coordIndex [
            0,1,2,-1,2,1,3,-1,1,4,3,-1,3,4,5,-1,4,6,5,-1,5,6,7,-1,6,8,7,-1,7,8,9,-1,8,10,9,-1,9,10,11,-1,10,12,11,-1,11,12,13,-1,12,14,13,-1,13,14,15,-1,14,0,15,-1,15,0,2,-1,16,8,17,-1,17,8,6,-1,18,14,16,-1,16,14,12,-1,16,12,8,-1,8,12,10,-1,18,19,14,-1,14,19,20,-1,14,20,0,-1,0,20,21,-1,0,21,22,-1,22,23,0,-1,0,23,17,-1,0,17,1,-1,1,17,6,-1,1,6,4,-1,16,17,24,-1,24,17,25,-1,18,16,26,-1,26,16,24,-1,18,26,27,-1,18,27,19,-1,19,27,28,-1,19,28,20,-1,21,20,29,-1,29,20,28,-1,21,29,30,-1,21,30,22,-1,22,30,31,-1,22,31,23,-1,17,23,25,-1,25,23,31,-1,32,33,34,-1,34,33,35,-1,33,36,35,-1,35,36,37,-1,36,38,37,-1,37,38,39,-1,40,41,42,-1,40,42,43,-1,43,42,44,-1,43,44,45,-1,45,44,46,-1,45,46,47,-1,47,46,48,-1,47,48,49,-1,49,48,50,-1,49,50,51,-1,51,50,52,-1,51,52,53,-1,53,52,54,-1,53,54,55,-1,55,54,39,-1,55,39,38,-1,32,34,56,-1,32,56,57,-1,57,56,58,-1,57,58,59,-1,59,58,60,-1,59,60,61,-1,61,60,62,-1,61,62,63,-1,63,62,64,-1,63,64,65,-1,65,64,66,-1,65,66,67,-1,67,66,41,-1,67,41,40,-1,45,47,68,-1,68,47,49,-1,68,49,69,-1,69,49,51,-1,69,51,70,-1,70,51,53,-1,70,53,71,-1,71,53,55,-1,71,55,72,-1,72,55,38,-1,72,38,73,-1,73,38,36,-1,73,36,74,-1,74,36,33,-1,74,33,75,-1,75,33,32,-1,75,32,76,-1,76,32,57,-1,76,57,77,-1,77,57,59,-1,77,59,78,-1,78,59,61,-1,78,61,79,-1,79,61,63,-1,79,63,80,-1,80,63,65,-1,80,65,81,-1,81,65,67,-1,81,67,82,-1,82,67,40,-1,82,40,83,-1,83,40,43,-1,83,43,84,-1,84,43,45,-1,84,45,68,-1,72,73,85,-1,85,73,86,-1,72,85,87,-1,72,87,71,-1,71,87,88,-1,71,88,70,-1,70,88,89,-1,70,89,69,-1,69,89,90,-1,69,90,68,-1,68,90,91,-1,68,91,84,-1,84,91,92,-1,84,92,83,-1,83,92,93,-1,83,93,82,-1,82,93,94,-1,82,94,81,-1,81,94,95,-1,81,95,80,-1,80,95,96,-1,80,96,79,-1,79,96,97,-1,79,97,78,-1,78,97,98,-1,78,98,77,-1,77,98,99,-1,77,99,76,-1,76,99,100,-1,76,100,75,-1,74,75,101,-1,101,75,100,-1,73,74,86,-1,86,74,101,-1,102,103,104,-1,104,103,105,-1,103,106,105,-1,105,106,107,-1,106,108,107,-1,107,108,109,-1,108,110,109,-1,109,110,111,-1,110,112,111,-1,111,112,113,-1,112,114,113,-1,113,114,115,-1,114,116,115,-1,115,116,117,-1,116,118,117,-1,117,118,119,-1,118,120,119,-1,119,120,121,-1,120,122,121,-1,121,122,123,-1,122,124,123,-1,123,124,125,-1,124,102,125,-1,125,102,104,-1,106,103,102,-1,102,124,106,-1,106,124,122,-1,106,122,108,-1,112,110,114,-1,114,110,108,-1,114,108,116,-1,116,108,122,-1,116,122,118,-1,118,122,120,-1,126,127,128,-1,128,127,129,-1,129,127,130,-1,131,132,133,-1,131,133,134,-1,134,133,135,-1,134,135,130,-1,130,135,136,-1,130,136,129,-1,137,138,139,-1,137,139,140,-1,140,139,141,-1,140,141,142,-1,142,141,143,-1,142,143,144,-1,144,143,145,-1,144,145,146,-1,146,145,147,-1,146,147,148,-1,148,147,149,-1,148,149,150,-1,150,149,131,-1,131,149,151,-1,131,151,132,-1,152,153,154,-1,152,154,155,-1,155,154,156,-1,155,156,157,-1,157,156,158,-1,157,158,159,-1,159,158,160,-1,159,160,161,-1,161,160,162,-1,161,162,163,-1,163,162,164,-1,163,164,165,-1,165,164,138,-1,165,138,137,-1,166,167,168,-1,166,168,169,-1,169,168,153,-1,169,153,152,-1,166,170,167,-1,167,170,171,-1,172,173,174,-1,172,174,175,-1,175,174,171,-1,175,171,170,-1,176,177,178,-1,176,178,179,-1,179,178,180,-1,179,180,181,-1,181,180,182,-1,181,182,183,-1,183,182,184,-1,183,184,185,-1,185,184,186,-1,185,186,187,-1,187,186,188,-1,187,188,189,-1,189,188,173,-1,189,173,172,-1,190,191,192,-1,190,192,193,-1,193,192,194,-1,193,194,195,-1,195,194,196,-1,195,196,197,-1,197,196,198,-1,197,198,199,-1,199,198,200,-1,199,200,201,-1,201,200,202,-1,201,202,203,-1,203,202,177,-1,203,177,176,-1,126,128,204,-1,126,204,205,-1,205,204,206,-1,205,206,207,-1,207,206,191,-1,207,191,190,-1,193,131,190,-1,190,131,134,-1,190,134,207,-1,207,134,130,-1,207,130,205,-1,205,130,127,-1,205,127,126,-1,170,166,175,-1,175,166,169,-1,175,169,172,-1,172,169,152,-1,172,152,189,-1,189,152,155,-1,189,155,187,-1,187,155,157,-1,187,157,185,-1,185,157,159,-1,185,159,183,-1,183,159,161,-1,183,161,181,-1,181,161,163,-1,181,163,179,-1,179,163,165,-1,179,165,176,-1,176,165,137,-1,176,137,203,-1,203,137,140,-1,203,140,201,-1,201,140,142,-1,201,142,199,-1,199,142,144,-1,199,144,197,-1,197,144,146,-1,197,146,195,-1,195,146,148,-1,195,148,193,-1,193,148,150,-1,193,150,131,-1,208,209,210,-1,210,209,211,-1,209,212,211,-1,211,212,213,-1,212,214,213,-1,213,214,215,-1,214,216,215,-1,215,216,217,-1,216,218,217,-1,217,218,219,-1,218,208,219,-1,219,208,210,-1,216,214,218,-1,218,214,212,-1,218,212,208,-1,208,212,209,-1,
        ]
    }
}
Shape{
    appearance Appearance {
        material  Material 	{
            diffuseColor 1.0 1.0 1.0
            specularColor 0.5019607843137255 0.5019607843137255 0.5019607843137255
            ambientIntensity 1.0
            transparency 0.0
            shininess 0.5
        }
    }
    geometry IndexedFaceSet {
        ccw TRUE
        solid FALSE
        coord DEF co Coordinate {
            point [
                -0.0599 -0.0011 0.0039, -0.073 -0.0011 0.0039, -0.0657 0.0154 0.0039, -0.0671 0.0154 0.0039, -0.0661 0.0167 0.0039, -0.0668 0.0167 0.0039, -0.0664 0.0181 0.0039, -0.0665 0.0181 0.0039, -0.0197 0.0186 0.0039, -0.0197 -0.0121 0.0039, -0.0255 0.0186 0.0039, -0.0253 -0.0121 0.0039, -0.0295 -0.0117 0.0039, -0.0409 0.0036 0.0039, -0.0405 0.0075 0.0039, -0.0396 0.0106 0.0039, -0.0302 0.0181 0.0039, -0.0328 -0.0107 0.0039, -0.0355 -0.0091 0.0039, -0.0377 -0.0069 0.0039, -0.0393 -0.0042 0.0039, -0.0405 -0.0005 0.0039, -0.0382 0.0131 0.0039, -0.0363 0.0151 0.0039, -0.0334 0.017 0.0039
            ]
        }
        coordIndex [
            0,1,2,-1,2,1,3,-1,2,3,4,-1,4,3,5,-1,4,5,6,-1,6,5,7,-1,8,9,10,-1,10,9,11,-1,10,11,12,-1,13,14,10,-1,10,14,15,-1,10,15,16,-1,12,17,10,-1,10,17,18,-1,10,18,19,-1,19,20,10,-1,10,20,21,-1,10,21,13,-1,22,23,15,-1,15,23,24,-1,15,24,16,-1,
        ]
    }
}