#VRML V2.0 utf8
# 3D model generated by easyeda2kicad.py (https://github.com/uPesy/easyeda2kicad.py)

Shape{
    appearance Appearance {
        material  Material 	{
            diffuseColor 0.6666666666666666 0.6666666666666666 0.6666666666666666
            specularColor 0.4666666666666667 0.4666666666666667 0.4666666666666667
            ambientIntensity 0.6667
            transparency 0.0
            shininess 0.5
        }
    }
    geometry IndexedFaceSet {
        ccw TRUE
        solid FALSE
        coord DEF co Coordinate {
            point [
                0.9724 -1.2795 0.0394, 1.2677 -1.2795 0.0394, 1.2677 -2.3819 0.0394, -0.3371 -0.4319 0.0394, -0.3759 -0.4276 0.0394, -0.252 -0.1363 0.0394, -0.2065 0.3071 0.0394, -0.5714 -0.0766 0.0394, -1.2678 0.3071 0.0394, -0.773 -0.0766 0.0394, -0.2065 -0.4727 0.0394, -0.2449 -0.4595 0.0394, -0.2449 -0.4067 0.0394, -0.2892 -0.4257 0.0394, -0.2449 -0.1402 0.0394, -0.4053 -0.4169 0.0394, -0.4326 -0.3987 0.0394, -0.4564 -0.3724 0.0394, -0.485 -0.2693 0.0394, -0.481 -0.2266 0.0394, -0.4703 -0.1928 0.0394, -0.3827 -0.1192 0.0394, -0.346 -0.115 0.0394, -0.4114 -0.1297 0.0394, -0.4355 -0.146 0.0394, -0.454 -0.1655 0.0394, -0.2937 -0.1208 0.0394, -0.8963 -0.4727 0.0394, -0.8964 -0.4717 0.0394, -0.773 -0.4703 0.0394, -0.9043 -0.4527 0.0394, -0.9168 -0.4364 0.0394, -0.9331 -0.4239 0.0394, -0.9521 -0.416 0.0394, -0.9725 -0.4133 0.0394, -1.2678 -0.4133 0.0394, -0.4717 -0.1103 0.0394, -0.5714 -0.1198 0.0394, -0.44 -0.09 0.0394, -0.4017 -0.0768 0.0394, -0.5171 -0.3665 0.0394, -0.494 -0.4033 0.0394, -0.7202 -0.4703 0.0394, -0.4585 -0.4375 0.0394, -0.4726 -0.342 0.0394, -0.4831 -0.2999 0.0394, -0.2449 -0.097 0.0394, -0.2869 -0.0798 0.0394, -0.3425 -0.072 0.0394, -0.5012 -0.1414 0.0394, -0.5222 -0.1789 0.0394, -0.7202 -0.1198 0.0394, -0.4211 -0.4591 0.0394, -0.3773 -0.4719 0.0394, -0.3668 -0.4727 0.0394, -0.3532 -0.0718 0.0394, -0.534 -0.2205 0.0394, -0.5378 -0.266 0.0394, -0.5323 -0.3213 0.0394, -1.2678 -2.3819 0.0394, -1.2678 -1.2795 0.0394, -0.9725 -1.2795 0.0394, -0.2065 -2.3819 0.0394, -0.9521 -1.2768 0.0394, -0.9331 -1.2689 0.0394, -0.3376 -0.4751 0.0394, -0.3028 -0.4727 0.0394, -0.2904 -0.4719 0.0394, -0.9168 -1.2564 0.0394, -0.9043 -1.2401 0.0394, -0.8964 -1.2211 0.0394, -0.8937 -0.4921 0.0394, -0.8937 -1.2007 0.0394, 0.8962 -0.4727 0.0394, 0.8937 -0.4921 0.0394, 0.8937 -1.2007 0.0394, 0.8963 -1.2211 0.0394, 0.9042 -1.2401 0.0394, 0.9167 -1.2564 0.0394, 0.933 -1.2689 0.0394, 0.952 -1.2768 0.0394, 0.7634 -0.0766 0.0394, 0.7235 -0.187 0.0394, 0.5609 -0.187 0.0394, 0.4657 -0.0766 0.0394, 0.5233 -0.0766 0.0394, 1.2677 0.3071 0.0394, 0.227 -0.0766 0.0394, 0.12 -0.0766 0.0394, 0.4313 -0.2257 0.0394, 0.4172 -0.1846 0.0394, 0.3947 -0.1494 0.0394, 0.0336 -0.4271 0.0394, -0.1153 -0.4271 0.0394, -0.1153 -0.2975 0.0394, 0.3623 -0.1183 0.0394, 0.3212 -0.0944 0.0394, 0.2759 -0.0809 0.0394, 0.2874 -0.4644 0.0394, 0.3334 -0.4484 0.0394, 0.6145 -0.4703 0.0394, 0.12 -0.4703 0.0394, 0.024 -0.2975 0.0394, 0.024 -0.2543 0.0394, -0.1153 -0.2543 0.0394, -0.1153 -0.1198 0.0394, 0.0432 -0.1198 0.0394, 0.0432 -0.0766 0.0394, -0.1681 -0.0766 0.0394, 0.2311 -0.4703 0.0394, 0.0336 -0.4703 0.0394, -0.1681 -0.4703 0.0394, 0.3764 -0.4197 0.0394, 0.3786 -0.4178 0.0394, 0.406 -0.3869 0.0394, 0.424 -0.3528 0.0394, 0.4343 -0.314 0.0394, 0.4369 -0.2784 0.0394, 0.9724 -0.4133 0.0394, 0.952 -0.416 0.0394, 0.821 -0.0766 0.0394, 0.933 -0.4239 0.0394, 0.9167 -0.4364 0.0394, 0.6673 -0.4703 0.0394, 0.9042 -0.4527 0.0394, 0.8963 -0.4717 0.0394, 1.2677 -0.4133 0.0394, 0.433 0.563 1.2835, 0.433 0.504 1.2835, 0.433 0.563 1.1654, 0.433 0.504 1.1654, 1.5745 0.8977 1.1761, 1.6092 0.8977 1.1457, 1.3874 0.8977 1.1457, 1.1889 0.8977 1.1654, 1.1889 0.8977 1.2835, 1.2677 0.8977 1.1654, 1.2677 0.8977 1.2835, 1.3509 0.8977 1.156, 1.3772 0.8977 1.2711, 1.4812 0.8977 1.2347, 1.7598 0.8977 0.6732, 1.7598 0.8977 -0.1968, 1.6417 0.8977 0.6732, 1.6417 0.8977 -0.1968, 1.7598 -1.2795 0.5315, 1.7598 -2.3819 0.5315, 1.7475 -2.3819 0.422, 1.7475 -1.2795 0.422, 1.7111 -2.3819 0.318, 1.7111 -1.2795 0.318, 1.6524 -2.3819 0.2247, 1.6524 -1.2795 0.2247, 1.5745 -2.3819 0.1467, 1.5745 -1.2795 0.1467, 1.4812 -2.3819 0.0881, 1.4812 -1.2795 0.0881, 1.3772 -2.3819 0.0517, 1.3772 -1.2795 0.0517, 1.2677 -1.2795 0.1575, 1.2677 -2.3819 0.1575, 1.3509 -1.2795 0.1669, 1.3509 -2.3819 0.1669, 1.43 -1.2795 0.1945, 1.43 -2.3819 0.1945, 1.5009 -1.2795 0.2391, 1.5009 -2.3819 0.2391, 1.5601 -1.2795 0.2983, 1.5601 -2.3819 0.2983, 1.6047 -1.2795 0.3692, 1.6047 -2.3819 0.3692, 1.6323 -1.2795 0.4483, 1.6323 -2.3819 0.4483, 1.6417 -1.2795 0.5315, 1.6417 -2.3819 0.5315, 1.7563 0.3098 0.4731, 1.7574 0.3131 0.4829, 1.7598 -0.4133 0.5315, 1.755 0.3078 0.463, 1.7582 0.3177 0.4921, 1.7588 0.3234 0.5007, 1.7593 0.3302 0.5084, 1.7595 0.3379 0.5152, 1.7597 0.3465 0.5209, 1.7598 0.3557 0.5255, 1.7598 0.3655 0.5288, 1.7598 0.3756 0.5308, 1.7598 0.3859 0.5315, 1.7535 0.3071 0.4528, 1.7475 -0.4133 0.422, 1.7475 0.3071 0.422, 1.7111 -0.4133 0.318, 1.7111 0.3071 0.318, 1.6524 -0.4133 0.2247, 1.6524 0.3071 0.2247, 1.5745 -0.4133 0.1467, 1.5745 0.3071 0.1467, 1.4812 -0.4133 0.0881, 1.4812 0.3071 0.0881, 1.3772 -0.4133 0.0517, 1.3772 0.3071 0.0517, 0.4436 0.6024 1.2835, 0.4561 0.6187 1.2835, -0.4358 0.5834 1.2835, 1.0996 0.4646 1.2835, 1.2677 -2.3819 1.2835, 1.1075 0.4836 1.2835, 1.1102 0.504 1.2835, 1.1102 0.8189 1.2835, 1.1129 0.8393 1.2835, 1.0871 0.4483 1.2835, 1.0708 0.4358 1.2835, 1.0518 0.4279 1.2835, -0.4725 0.6312 1.2835, -0.4562 0.6187 1.2835, -0.4437 0.6024 1.2835, 1.1496 0.8871 1.2835, 1.1333 0.8746 1.2835, 1.1207 0.8583 1.2835, -1.0519 0.4279 1.2835, -1.0709 0.4358 1.2835, -1.2678 -2.3819 1.2835, -1.0872 0.4483 1.2835, -1.0997 0.4646 1.2835, -1.1076 0.4836 1.2835, -1.2678 0.8977 1.2835, -1.1103 0.8189 1.2835, -1.113 0.8393 1.2835, -1.1103 0.504 1.2835, -1.1208 0.8583 1.2835, -1.1333 0.8746 1.2835, -0.4358 0.4836 1.2835, -0.4437 0.4646 1.2835, 0.4436 0.4646 1.2835, -0.4562 0.4483 1.2835, -0.4725 0.4358 1.2835, 0.4724 0.4358 1.2835, 0.4561 0.4483 1.2835, -0.4908 0.6389 1.2835, -0.4908 0.8977 1.2835, 0.4907 0.8977 1.2835, 0.4724 0.6312 1.2835, 0.4907 0.6389 1.2835, 1.1686 0.895 1.2835, 1.0315 0.4252 1.2835, 0.5118 0.4252 1.2835, 0.4914 0.4279 1.2835, -0.4915 0.4279 1.2835, -0.5119 0.4252 1.2835, -1.0315 0.4252 1.2835, -1.1496 0.8871 1.2835, -1.1686 0.895 1.2835, -1.189 0.8977 1.2835, 0.4357 0.4836 1.2835, -0.4331 0.504 1.2835, -0.4331 0.563 1.2835, 0.4357 0.5834 1.2835, 1.6474 0.6833 1.1043, 1.6462 0.692 1.1058, 1.6495 0.6748 1.1019, 1.6524 -2.3819 1.0982, 1.6524 0.6661 1.0982, 1.5745 -2.3819 1.1761, 1.6522 0.6667 1.0985, 1.6261 0.8938 1.1286, 1.6181 0.8967 1.1369, 1.628 0.878 1.1265, 1.645 0.8671 1.1073, 1.6439 0.8714 1.1085, 1.6425 0.8754 1.1102, 1.6385 0.8829 1.1149, 1.633 0.8891 1.1211, 1.6458 0.7008 1.1063, 1.6458 0.8583 1.1063, 1.6456 0.8627 1.1066, 1.6789 0.6299 1.0617, 1.6687 0.6393 1.0767, 1.6595 0.6517 1.0891, 1.7111 0.6221 1.0049, 1.6994 0.6221 1.0276, 1.6893 0.6241 1.0451, 1.7111 -2.3819 1.0049, 1.7475 -2.3819 0.9008, 1.7475 0.6221 0.9008, 1.7598 -2.3819 0.7913, 1.7598 0.6221 0.7913, 1.4812 -2.3819 1.2347, 1.3772 -2.3819 1.2711, 1.7598 -1.1614 0.5997, 1.7598 -1.1451 0.5872, 1.7598 -0.807 -0.1968, 1.7598 -0.807 -0.0984, 1.7598 -1.122 -0.1968, 1.7598 -0.8044 -0.078, 1.7598 -1.122 0.5315, 1.7598 -0.7965 -0.0591, 1.7598 -1.1247 0.5519, 1.7598 -0.784 -0.0427, 1.7598 -1.1326 0.5709, 1.7598 -1.2768 0.5519, 1.7598 -0.7677 -0.0302, 1.7598 -0.7487 -0.0224, 1.7598 -0.7283 -0.0197, 1.7598 -1.2689 0.5709, 1.7598 -1.2564 0.5872, 1.7598 -1.2401 0.5997, 1.7598 -1.2211 0.6076, 1.7598 -1.2007 0.6102, 1.7598 -1.1804 0.6076, 1.7598 -0.5681 0.5519, 1.7598 -0.5603 0.5709, 1.7598 -0.5478 0.5872, 1.7598 -0.5315 0.5997, 1.7598 -0.8532 -0.3082, 1.7598 -0.8281 -0.2756, 1.7598 -0.8124 -0.2376, 1.7598 -0.5708 0.5315, 1.7598 -0.6496 -0.0197, 1.7598 -0.5708 0.0591, 1.7598 -1.1166 -0.2376, 1.7598 -1.1009 -0.2756, 1.7598 -1.0759 -0.3082, 1.7598 0.7008 0.6732, 1.7598 -1.0053 -0.349, 1.7598 -0.9645 -0.3543, 1.7598 -0.9238 -0.349, 1.7598 -0.5125 0.6076, 1.7598 -0.4921 0.6102, 1.7598 -0.4717 0.6076, 1.7598 -0.4527 0.5997, 1.7598 -0.4364 0.5872, 1.7598 -0.4239 0.5709, 1.7598 -0.416 0.5519, 1.7598 -1.0433 -0.3332, 1.7598 -0.8858 -0.3332, 1.7598 -0.6102 -0.0091, 1.7598 -0.5939 0.0034, 1.7598 -0.5814 0.0197, 1.7598 0.6221 -0.3543, 1.7598 0.6804 0.6759, 1.7598 0.6326 0.7126, 1.7598 0.4062 0.5288, 1.7598 -0.6292 -0.017, 1.7598 -0.5735 0.0387, 1.7598 0.781 -0.349, 1.7598 0.8189 -0.3332, 1.7598 0.6615 0.6838, 1.7598 0.4646 0.4528, 1.7598 0.4646 -0.1968, 1.7598 0.47 -0.2376, 1.7598 0.4857 -0.2756, 1.7598 0.6248 0.7316, 1.7598 0.6221 0.752, 1.7598 0.7402 -0.3543, 1.7598 0.5107 -0.3082, 1.7598 0.5433 -0.3332, 1.7598 0.5813 -0.349, 1.7598 0.4252 0.5209, 1.7598 0.4415 0.5084, 1.7598 0.6451 0.6963, 1.7598 0.4541 0.4921, 1.7598 0.4619 0.4731, 1.7598 0.8516 -0.3082, 1.7598 0.8766 -0.2756, 1.7598 0.8923 -0.2376, -1.3773 -2.3819 0.0517, -1.2678 -2.3819 0.1575, 1.6417 -2.3819 0.7913, 1.6323 -2.3819 0.8746, 1.6047 -2.3819 0.9536, 1.5601 -2.3819 1.0245, 1.5009 -2.3819 1.0838, 1.43 -2.3819 1.1283, 1.3509 -2.3819 1.156, 1.2677 -2.3819 1.1654, -1.2678 -2.3819 1.1654, -1.351 -2.3819 1.156, -1.3773 -2.3819 1.2711, -1.43 -2.3819 1.1283, -1.4813 -2.3819 1.2347, -1.501 -2.3819 1.0838, -1.5746 -2.3819 1.1761, -1.5602 -2.3819 1.0245, -1.6525 -2.3819 1.0982, -1.6047 -2.3819 0.9536, -1.7111 -2.3819 1.0049, -1.6324 -2.3819 0.8746, -1.7475 -2.3819 0.9008, -1.6418 -2.3819 0.7913, -1.7599 -2.3819 0.7913, -1.6418 -2.3819 0.5315, -1.7599 -2.3819 0.5315, -1.6324 -2.3819 0.4483, -1.7475 -2.3819 0.422, -1.6047 -2.3819 0.3692, -1.7111 -2.3819 0.318, -1.5602 -2.3819 0.2983, -1.6525 -2.3819 0.2247, -1.501 -2.3819 0.2391, -1.5746 -2.3819 0.1467, -1.43 -2.3819 0.1945, -1.4813 -2.3819 0.0881, -1.351 -2.3819 0.1669, 1.6417 0.3859 0.5315, 1.6417 0.3756 0.5308, 1.6417 -0.4133 0.5315, 1.6417 0.3655 0.5288, 1.6416 0.3557 0.5255, 1.6415 0.3465 0.5209, 1.6413 0.3379 0.5152, 1.641 0.3302 0.5084, 1.6404 0.3234 0.5007, 1.6396 0.3177 0.4921, 1.6385 0.3131 0.4829, 1.6371 0.3098 0.4731, 1.6354 0.3078 0.463, 1.6323 -0.4133 0.4483, 1.2677 0.3071 0.1575, 1.2677 -0.4133 0.1575, 1.3509 0.3071 0.1669, 1.3509 -0.4133 0.1669, 1.43 0.3071 0.1945, 1.43 -0.4133 0.1945, 1.5009 0.3071 0.2391, 1.5009 -0.4133 0.2391, 1.5601 0.3071 0.2983, 1.5601 -0.4133 0.2983, 1.6047 0.3071 0.3692, 1.6047 -0.4133 0.3692, 1.6323 0.3071 0.4483, 1.6333 0.3071 0.4528, -0.9725 -1.2795 0.1575, -1.2678 -1.2795 0.1575, 0.9724 -1.2795 0.1575, 0.952 -1.2768 0.1575, 0.9724 -0.4133 0.1575, 0.952 -0.416 0.1575, -1.2678 -0.4133 0.1575, -0.9725 -0.4133 0.1575, -1.2678 0.3071 0.1575, -0.9521 -0.416 0.1575, -0.9331 -0.4239 0.1575, 0.933 -0.4239 0.1575, 0.9167 -0.4364 0.1575, -0.9168 -0.4364 0.1575, -0.9168 -1.2564 0.1575, -0.9331 -1.2689 0.1575, -0.9521 -1.2768 0.1575, -0.9043 -0.4527 0.1575, -0.8964 -0.4717 0.1575, 0.9042 -0.4527 0.1575, 0.933 -1.2689 0.1575, 0.9167 -1.2564 0.1575, 0.9042 -1.2401 0.1575, -0.9043 -1.2401 0.1575, -0.8964 -1.2211 0.1575, 0.8963 -1.2211 0.1575, 0.8937 -1.2007 0.1575, -0.8937 -1.2007 0.1575, -0.8937 -0.4921 0.1575, 0.8937 -0.4921 0.1575, 0.8963 -0.4717 0.1575, 0.4561 0.6187 1.1654, -0.4908 0.8977 1.1654, 0.4724 0.6312 1.1654, 0.4907 0.8977 1.1654, 0.4907 0.6389 1.1654, -0.4725 0.4358 1.1654, 0.4436 0.4646 1.1654, -0.4915 0.4279 1.1654, -0.5119 0.4252 1.1654, 0.4357 0.4836 1.1654, -0.4358 0.4836 1.1654, -1.0709 0.4358 1.1654, -1.0519 0.4279 1.1654, 1.0871 0.4483 1.1654, 1.0996 0.4646 1.1654, 1.1075 0.4836 1.1654, 1.1102 0.504 1.1654, 1.1102 0.8189 1.1654, -0.4562 0.4483 1.1654, -0.4437 0.4646 1.1654, -1.0872 0.4483 1.1654, 1.0315 0.4252 1.1654, 1.0518 0.4279 1.1654, 1.0708 0.4358 1.1654, -1.189 0.8977 1.1654, -1.1103 0.504 1.1654, -1.2678 0.8977 1.1654, -1.1076 0.4836 1.1654, -1.0997 0.4646 1.1654, 1.1207 0.8583 1.1654, 1.1333 0.8746 1.1654, 1.1496 0.8871 1.1654, 0.4436 0.6024 1.1654, -0.4358 0.5834 1.1654, 0.4357 0.5834 1.1654, 1.1129 0.8393 1.1654, 1.1686 0.895 1.1654, -0.4437 0.6024 1.1654, -0.4562 0.6187 1.1654, -0.4725 0.6312 1.1654, -0.4908 0.6389 1.1654, -1.1208 0.8583 1.1654, -1.113 0.8393 1.1654, -1.1103 0.8189 1.1654, 0.4561 0.4483 1.1654, -1.0315 0.4252 1.1654, 0.4724 0.4358 1.1654, 0.4914 0.4279 1.1654, 0.5118 0.4252 1.1654, -1.1333 0.8746 1.1654, -1.1686 0.895 1.1654, -1.1496 0.8871 1.1654, -0.4331 0.504 1.1654, -0.4331 0.563 1.1654, 1.5261 0.6299 1.0617, 1.5425 0.6241 1.0451, 1.6417 0.6221 0.7913, 1.6323 0.6221 0.8746, 1.6047 0.6221 0.9536, 1.5601 0.6221 1.0245, 1.5577 0.6221 1.0276, 1.4441 0.8891 1.1211, 1.4553 0.8829 1.1149, 1.45 0.876 1.1179, 1.4595 0.8794 1.1124, 1.4632 0.8754 1.1102, 1.4658 0.8714 1.1086, 1.4678 0.8671 1.1073, 1.469 0.8628 1.1066, 1.4694 0.8583 1.1063, 1.4694 0.7008 1.1063, 1.4299 0.8936 1.1283, 1.4702 0.6919 1.1058, 1.4724 0.6833 1.1043, 1.4762 0.6746 1.1018, 1.4811 0.6667 1.0985, 1.494 0.6517 1.0891, 1.5008 0.6463 1.0837, 1.5095 0.6393 1.0767, 1.4294 0.8938 1.1286, 1.4084 0.8957 1.1371, 1.6417 -1.2768 0.5519, 1.6417 0.7402 -0.3543, 1.6417 0.6221 -0.3543, 1.6417 -1.1451 0.5872, 1.6417 -1.1614 0.5997, 1.6417 -1.1326 0.5709, 1.6417 -0.5681 0.5519, 1.6417 -1.2401 0.5997, 1.6417 -1.2564 0.5872, 1.6417 -1.2689 0.5709, 1.6417 -0.5315 0.5997, 1.6417 -0.5478 0.5872, 1.6417 -0.5603 0.5709, 1.6417 -1.1804 0.6076, 1.6417 -1.2007 0.6102, 1.6417 -1.2211 0.6076, 1.6417 -0.807 -0.0984, 1.6417 -0.807 -0.1968, 1.6417 -1.122 -0.1968, 1.6417 -0.8124 -0.2376, 1.6417 -0.7677 -0.0302, 1.6417 -0.784 -0.0427, 1.6417 -1.122 0.5315, 1.6417 -0.7965 -0.0591, 1.6417 -0.8044 -0.078, 1.6417 -0.8281 -0.2756, 1.6417 -0.8532 -0.3082, 1.6417 -1.1166 -0.2376, 1.6417 0.4646 -0.1968, 1.6417 0.4646 0.4528, 1.6417 0.6615 0.6838, 1.6417 0.4619 0.4731, 1.6417 0.4541 0.4921, 1.6417 0.4415 0.5084, 1.6417 0.4252 0.5209, 1.6417 0.6326 0.7126, 1.6417 -0.4364 0.5872, 1.6417 -0.4527 0.5997, 1.6417 -0.4717 0.6076, 1.6417 -0.4921 0.6102, 1.6417 -0.5125 0.6076, 1.6417 -0.9238 -0.349, 1.6417 -0.9645 -0.3543, 1.6417 -1.0053 -0.349, 1.6417 -1.0433 -0.3332, 1.6417 -1.0759 -0.3082, 1.6417 -1.1009 -0.2756, 1.6417 0.47 -0.2376, 1.6417 0.781 -0.349, 1.6417 -1.1247 0.5519, 1.6417 -0.7487 -0.0224, 1.6417 -0.7283 -0.0197, 1.6417 -0.5708 0.5315, 1.6417 -0.6496 -0.0197, 1.6417 -0.5708 0.0591, 1.6417 -0.6292 -0.017, 1.6417 0.4062 0.5288, 1.6417 0.6248 0.7316, 1.6417 0.6221 0.752, 1.6417 -0.416 0.5519, 1.6417 -0.4239 0.5709, 1.6417 0.5813 -0.349, 1.6417 0.5433 -0.3332, 1.6417 0.6804 0.6759, 1.6417 0.7008 0.6732, 1.6417 0.8766 -0.2756, 1.6417 0.8516 -0.3082, 1.6417 0.8189 -0.3332, 1.6417 -0.5814 0.0197, 1.6417 -0.5939 0.0034, 1.6417 -0.6102 -0.0091, 1.6417 -0.8858 -0.3332, 1.6417 0.6451 0.6963, 1.6417 0.5107 -0.3082, 1.6417 0.4857 -0.2756, 1.6417 0.8923 -0.2376, 1.6417 -0.5735 0.0387, -1.351 0.3071 0.1669, -1.3773 0.3071 0.0517, -1.43 0.3071 0.1945, -1.4813 0.3071 0.0881, -1.501 0.3071 0.2391, -1.5746 0.3071 0.1467, -1.5602 0.3071 0.2983, -1.6525 0.3071 0.2247, -1.6047 0.3071 0.3692, -1.7111 0.3071 0.318, -1.6324 0.3071 0.4483, -1.7475 0.3071 0.422, -1.6334 0.3071 0.4528, -1.7535 0.3071 0.4528, -0.924 0.8977 0.9274, -0.983 0.8977 1.0297, -0.5301 0.8977 1.1548, -0.5892 0.8977 1.2571, -0.5111 0.8977 1.1627, -0.5417 0.8977 1.2768, 0.5111 0.8977 1.1627, 0.5416 0.8977 1.2768, 0.53 0.8977 1.1548, 0.5891 0.8977 1.2571, 0.9239 0.8977 0.9274, 0.983 0.8977 1.0297, 0.53 0.6418 1.1548, 0.9239 0.6418 0.9274, 0.9898 0.7001 0.8894, 0.983 0.6811 0.8933, 0.9721 0.6648 0.8996, 0.958 0.6523 0.9077, 0.9415 0.6445 0.9172, 0.9415 0.895 0.9172, 0.958 0.8871 0.9077, 0.9721 0.8746 0.8996, 0.983 0.8583 0.8933, 0.9898 0.8393 0.8894, 0.9921 0.8189 0.888, 0.9921 0.7205 0.888, 1.0511 0.8189 0.9903, 1.0511 0.7205 0.9903, 0.5891 0.6418 1.2571, 0.983 0.6418 1.0297, 1.0488 0.8393 0.9917, 1.042 0.8583 0.9956, 1.042 0.6811 0.9956, 1.0312 0.6648 1.0019, 1.0006 0.6445 1.0195, 1.017 0.6523 1.01, 1.0488 0.7001 0.9917, 1.0312 0.8746 1.0019, 1.017 0.8871 1.01, 1.0006 0.895 1.0195, 0.4914 0.6391 1.2835, 0.5015 0.6411 1.2832, 0.5118 0.6418 1.2823, 0.5416 0.6418 1.2768, 0.4914 0.639 1.1653, 0.5118 0.6418 1.1625, 0.5111 0.6418 1.1627, 0.5012 0.6411 1.1646, 0.4914 0.6391 1.2835, -1.3773 0.8977 1.2711, -1.351 0.8977 1.156, -1.4813 0.8977 1.2347, -1.3875 0.8977 1.1457, -1.5746 0.8977 1.1761, -1.6093 0.8977 1.1457, -1.7599 0.8977 -0.1968, -1.7599 0.8977 0.6732, -1.6418 0.8977 -0.1968, -1.6418 0.8977 0.6732, -1.3773 -1.2795 0.0517, -1.4813 -1.2795 0.0881, -1.5746 -1.2795 0.1467, -1.6525 -1.2795 0.2247, -1.7111 -1.2795 0.318, -1.7475 -1.2795 0.422, -1.7599 -1.2795 0.5315, -1.6418 -1.2795 0.5315, -1.6324 -1.2795 0.4483, -1.6047 -1.2795 0.3692, -1.5602 -1.2795 0.2983, -1.501 -1.2795 0.2391, -1.43 -1.2795 0.1945, -1.351 -1.2795 0.1669, -1.7599 0.3859 0.5315, -1.7599 0.3756 0.5308, -1.7599 -0.4133 0.5315, -1.7599 0.3655 0.5288, -1.7598 0.3557 0.5255, -1.7598 0.3465 0.5209, -1.7596 0.3379 0.5152, -1.7593 0.3302 0.5084, -1.7589 0.3234 0.5007, -1.7583 0.3177 0.4921, -1.7575 0.3131 0.4829, -1.7564 0.3098 0.4731, -1.7551 0.3078 0.463, -1.7475 -0.4133 0.422, -1.7111 -0.4133 0.318, -1.6525 -0.4133 0.2247, -1.5746 -0.4133 0.1467, -1.4813 -0.4133 0.0881, -1.3773 -0.4133 0.0517, -1.7475 0.6221 0.9008, -1.7599 0.6221 0.7913, -1.6687 0.6393 1.0767, -1.6789 0.6299 1.0617, -1.6894 0.6241 1.0451, -1.6995 0.6221 1.0276, -1.7111 0.6221 1.0049, -1.6459 0.7008 1.1063, -1.6463 0.692 1.1058, -1.6459 0.8583 1.1063, -1.6426 0.8754 1.1102, -1.644 0.8714 1.1085, -1.6281 0.878 1.1265, -1.6386 0.8829 1.1149, -1.6451 0.8671 1.1073, -1.6457 0.8627 1.1065, -1.6181 0.8967 1.1369, -1.6262 0.8938 1.1286, -1.633 0.8891 1.1211, -1.6475 0.6833 1.1043, -1.6495 0.6748 1.1019, -1.6523 0.6667 1.0985, -1.6525 0.6661 1.0982, -1.6596 0.6517 1.0891, -1.7599 -1.1009 -0.2756, -1.7599 -1.1166 -0.2376, -1.7599 -1.122 -0.1968, -1.7599 -1.2768 0.5519, -1.7599 -0.807 -0.0984, -1.7599 -0.807 -0.1968, -1.7599 -1.1451 0.5872, -1.7599 -1.1614 0.5997, -1.7599 -1.1804 0.6076, -1.7599 -1.2007 0.6102, -1.7599 -1.2211 0.6076, -1.7599 -1.2401 0.5997, -1.7599 -1.2564 0.5872, -1.7599 -1.2689 0.5709, -1.7599 -0.5315 0.5997, -1.7599 -0.5478 0.5872, -1.7599 0.4619 0.4731, -1.7599 0.4541 0.4921, -1.7599 0.6615 0.6838, -1.7599 -0.4364 0.5872, -1.7599 -0.4527 0.5997, -1.7599 -0.5603 0.5709, -1.7599 -0.5681 0.5519, -1.7599 -1.1326 0.5709, -1.7599 -0.7677 -0.0302, -1.7599 -0.784 -0.0427, -1.7599 -1.122 0.5315, -1.7599 -0.7965 -0.0591, -1.7599 -0.8044 -0.078, -1.7599 -0.8124 -0.2376, -1.7599 -0.8281 -0.2756, -1.7599 -0.8532 -0.3082, -1.7599 -1.0759 -0.3082, -1.7599 -0.8858 -0.3332, -1.7599 -0.9238 -0.349, -1.7599 -0.9645 -0.3543, -1.7599 0.6326 0.7126, -1.7599 0.6248 0.7316, -1.7599 0.6221 0.752, -1.7599 -0.416 0.5519, -1.7599 -0.4239 0.5709, -1.7599 -0.4717 0.6076, -1.7599 -0.4921 0.6102, -1.7599 -0.5125 0.6076, -1.7599 -1.1247 0.5519, -1.7599 -0.7487 -0.0224, -1.7599 -0.7283 -0.0197, -1.7599 -0.5708 0.5315, -1.7599 -0.6496 -0.0197, -1.7599 -0.5708 0.0591, -1.7599 -0.6292 -0.017, -1.7599 -1.0053 -0.349, -1.7599 -1.0433 -0.3332, -1.7599 0.4415 0.5084, -1.7599 0.4252 0.5209, -1.7599 0.4062 0.5288, -1.7599 0.6221 -0.3543, -1.7599 0.7008 0.6732, -1.7599 0.7402 -0.3543, -1.7599 -0.5814 0.0197, -1.7599 -0.5939 0.0034, -1.7599 -0.6102 -0.0091, -1.7599 0.6451 0.6963, -1.7599 0.5813 -0.349, -1.7599 0.5433 -0.3332, -1.7599 0.5107 -0.3082, -1.7599 0.4857 -0.2756, -1.7599 0.47 -0.2376, -1.7599 0.6804 0.6759, -1.7599 0.4646 -0.1968, -1.7599 0.4646 0.4528, -1.7599 -0.5735 0.0387, -1.7599 0.8516 -0.3082, -1.7599 0.8189 -0.3332, -1.7599 0.8766 -0.2756, -1.7599 0.8923 -0.2376, -1.7599 0.781 -0.349, -1.6372 0.3098 0.4731, -1.6386 0.3131 0.4829, -1.6418 -0.4133 0.5315, -1.6324 -0.4133 0.4483, -1.6354 0.3078 0.463, -1.6397 0.3177 0.4921, -1.6405 0.3234 0.5007, -1.6411 0.3302 0.5084, -1.6414 0.3379 0.5152, -1.6416 0.3465 0.5209, -1.6417 0.3557 0.5255, -1.6418 0.3655 0.5288, -1.6418 0.3756 0.5308, -1.6418 0.3859 0.5315, -1.351 -0.4133 0.1669, -1.43 -0.4133 0.1945, -1.501 -0.4133 0.2391, -1.5602 -0.4133 0.2983, -1.6047 -0.4133 0.3692, -1.5009 0.6463 1.0837, -1.4941 0.6517 1.0891, -1.4812 0.6667 1.0985, -1.4763 0.6746 1.1018, -1.4725 0.6833 1.1043, -1.4703 0.6919 1.1058, -1.4695 0.7008 1.1063, -1.4695 0.8583 1.1063, -1.4501 0.876 1.1179, -1.4554 0.8829 1.1149, -1.4442 0.8891 1.1211, -1.43 0.8936 1.1283, -1.4659 0.8715 1.1086, -1.4632 0.8754 1.1102, -1.4596 0.8794 1.1124, -1.4691 0.8628 1.1066, -1.4679 0.8671 1.1073, -1.5425 0.6241 1.0451, -1.5262 0.6299 1.0617, -1.5096 0.6393 1.0767, -1.6418 0.6221 0.7913, -1.6324 0.6221 0.8746, -1.6047 0.6221 0.9536, -1.5602 0.6221 1.0245, -1.5577 0.6221 1.0276, -1.4085 0.8957 1.1371, -1.4295 0.8938 1.1286, -1.6418 -1.1614 0.5997, -1.6418 -1.1451 0.5872, -1.6418 -1.2768 0.5519, -1.6418 -1.2689 0.5709, -1.6418 -1.2211 0.6076, -1.6418 -1.2007 0.6102, -1.6418 -1.1804 0.6076, -1.6418 -1.2564 0.5872, -1.6418 -1.2401 0.5997, -1.6418 -0.807 -0.1968, -1.6418 -0.807 -0.0984, -1.6418 -1.122 -0.1968, -1.6418 -0.8044 -0.078, -1.6418 -1.122 0.5315, -1.6418 -1.1166 -0.2376, -1.6418 -1.1009 -0.2756, -1.6418 -1.0759 -0.3082, -1.6418 -0.8858 -0.3332, -1.6418 -0.8532 -0.3082, -1.6418 -0.8281 -0.2756, -1.6418 -0.5681 0.5519, -1.6418 -0.5603 0.5709, -1.6418 -0.5478 0.5872, -1.6418 -0.5315 0.5997, -1.6418 -0.4527 0.5997, -1.6418 -0.4364 0.5872, -1.6418 -0.4239 0.5709, -1.6418 -0.416 0.5519, -1.6418 -1.0433 -0.3332, -1.6418 -1.0053 -0.349, -1.6418 -0.9645 -0.3543, -1.6418 -0.7965 -0.0591, -1.6418 -0.784 -0.0427, -1.6418 -1.1247 0.5519, -1.6418 -0.7677 -0.0302, -1.6418 -1.1326 0.5709, -1.6418 -0.7487 -0.0224, -1.6418 -0.7283 -0.0197, -1.6418 -0.5708 0.5315, -1.6418 -0.6496 -0.0197, -1.6418 -0.5708 0.0591, -1.6418 -0.5125 0.6076, -1.6418 -0.4921 0.6102, -1.6418 -0.4717 0.6076, -1.6418 0.6326 0.7126, -1.6418 0.4062 0.5288, -1.6418 0.4619 0.4731, -1.6418 0.4541 0.4921, -1.6418 0.7008 0.6732, -1.6418 0.6804 0.6759, -1.6418 -0.8124 -0.2376, -1.6418 -0.9238 -0.349, -1.6418 0.6248 0.7316, -1.6418 0.6221 0.752, -1.6418 -0.6102 -0.0091, -1.6418 -0.5939 0.0034, -1.6418 -0.5814 0.0197, -1.6418 0.4252 0.5209, -1.6418 0.4415 0.5084, -1.6418 0.6451 0.6963, -1.6418 0.6615 0.6838, -1.6418 0.4646 0.4528, -1.6418 0.4646 -0.1968, -1.6418 0.6221 -0.3543, -1.6418 -0.6292 -0.017, -1.6418 -0.5735 0.0387, -1.6418 0.4857 -0.2756, -1.6418 0.5107 -0.3082, -1.6418 0.5433 -0.3332, -1.6418 0.781 -0.349, -1.6418 0.8189 -0.3332, -1.6418 0.47 -0.2376, -1.6418 0.5813 -0.349, -1.6418 0.7402 -0.3543, -1.6418 0.8516 -0.3082, -1.6418 0.8766 -0.2756, -1.6418 0.8923 -0.2376, -0.5301 0.6418 1.1548, -0.924 0.6418 0.9274, -0.9922 0.7205 0.888, -0.9922 0.8189 0.888, -0.9898 0.8393 0.8894, -0.983 0.8583 0.8933, -0.9416 0.895 0.9172, -0.9722 0.8746 0.8996, -0.9581 0.8871 0.9077, -0.9416 0.6445 0.9172, -0.9581 0.6523 0.9077, -0.9898 0.7001 0.8894, -0.9722 0.6648 0.8996, -0.983 0.6811 0.8933, -1.0512 0.7205 0.9903, -1.0512 0.8189 0.9903, -1.0007 0.6445 1.0195, -0.983 0.6418 1.0297, -1.0421 0.6811 0.9956, -1.0312 0.6648 1.0019, -1.0171 0.6523 1.01, -0.5892 0.6418 1.2571, -1.0007 0.895 1.0195, -1.0171 0.8871 1.01, -1.0489 0.7001 0.9917, -1.0312 0.8746 1.0019, -1.0421 0.8583 0.9956, -1.0489 0.8393 0.9917, -0.5417 0.6418 1.2768, -0.5119 0.6418 1.2823, -0.5016 0.6411 1.2832, -0.4915 0.6391 1.2835, -0.4915 0.639 1.1653, -0.5013 0.6411 1.1646, -0.5111 0.6418 1.1627, -0.5119 0.6418 1.1625, -0.4915 0.6391 1.2835
            ]
        }
        coordIndex [
            0,1,2,-1,3,4,5,-1,6,7,8,-1,8,7,9,-1,10,11,12,-1,3,5,13,-1,13,5,14,-1,13,14,12,-1,4,15,5,-1,5,15,16,-1,5,16,17,-1,18,19,5,-1,5,19,20,-1,21,22,23,-1,23,22,24,-1,20,25,5,-1,5,25,24,-1,5,24,26,-1,26,24,22,-1,27,28,29,-1,29,28,30,-1,29,30,9,-1,9,30,31,-1,31,32,9,-1,9,32,33,-1,9,33,8,-1,8,33,34,-1,8,34,35,-1,36,37,38,-1,38,37,39,-1,40,41,42,-1,42,41,43,-1,17,44,5,-1,5,44,45,-1,5,45,18,-1,12,14,10,-1,10,14,46,-1,10,46,6,-1,6,46,47,-1,6,47,48,-1,36,49,37,-1,37,49,50,-1,37,50,51,-1,43,52,42,-1,42,52,53,-1,42,53,54,-1,37,7,39,-1,39,7,6,-1,39,6,55,-1,55,6,48,-1,50,56,51,-1,51,56,57,-1,51,57,42,-1,42,57,58,-1,42,58,40,-1,59,60,61,-1,59,61,62,-1,62,61,63,-1,62,63,64,-1,54,65,62,-1,62,65,66,-1,62,66,10,-1,10,66,67,-1,10,67,11,-1,64,68,62,-1,62,68,69,-1,62,69,70,-1,29,42,27,-1,27,42,54,-1,27,54,71,-1,71,54,62,-1,71,62,72,-1,72,62,70,-1,73,74,10,-1,10,74,75,-1,10,75,62,-1,62,75,76,-1,62,76,77,-1,77,78,62,-1,62,78,79,-1,62,79,2,-1,2,79,80,-1,2,80,0,-1,81,82,83,-1,84,6,85,-1,85,6,86,-1,6,87,88,-1,89,90,84,-1,84,90,91,-1,92,93,94,-1,91,95,84,-1,84,95,96,-1,84,96,6,-1,6,96,97,-1,6,97,87,-1,98,99,100,-1,101,102,88,-1,88,102,103,-1,104,105,103,-1,103,105,106,-1,103,106,88,-1,88,106,107,-1,88,107,6,-1,6,107,108,-1,6,108,10,-1,98,100,109,-1,94,102,92,-1,92,102,101,-1,92,101,110,-1,110,101,10,-1,110,10,111,-1,111,10,108,-1,99,112,100,-1,100,112,113,-1,100,113,114,-1,114,115,100,-1,100,115,116,-1,100,116,84,-1,84,116,117,-1,84,117,89,-1,118,119,120,-1,119,121,120,-1,120,121,122,-1,120,122,123,-1,123,122,124,-1,124,125,123,-1,123,125,73,-1,123,73,100,-1,100,73,10,-1,100,10,109,-1,109,10,101,-1,83,85,81,-1,81,85,86,-1,81,86,120,-1,120,86,126,-1,120,126,118,-1,127,128,129,-1,129,128,130,-1,131,132,133,-1,134,135,136,-1,136,135,137,-1,136,137,138,-1,138,137,139,-1,138,139,133,-1,133,139,140,-1,133,140,131,-1,141,142,143,-1,143,142,144,-1,145,146,147,-1,145,147,148,-1,148,147,149,-1,148,149,150,-1,150,149,151,-1,150,151,152,-1,152,151,153,-1,152,153,154,-1,154,153,155,-1,154,155,156,-1,156,155,157,-1,156,157,158,-1,158,157,2,-1,158,2,1,-1,159,160,161,-1,161,160,162,-1,161,162,163,-1,163,162,164,-1,163,164,165,-1,165,164,166,-1,165,166,167,-1,167,166,168,-1,167,168,169,-1,169,168,170,-1,169,170,171,-1,171,170,172,-1,171,172,173,-1,173,172,174,-1,175,176,177,-1,175,177,178,-1,176,179,177,-1,177,179,180,-1,177,180,181,-1,181,182,177,-1,177,182,183,-1,177,183,184,-1,184,185,177,-1,177,185,186,-1,177,186,187,-1,178,177,188,-1,188,177,189,-1,188,189,190,-1,190,189,191,-1,190,191,192,-1,192,191,193,-1,192,193,194,-1,194,193,195,-1,194,195,196,-1,196,195,197,-1,196,197,198,-1,198,197,199,-1,198,199,200,-1,200,199,126,-1,200,126,86,-1,201,202,203,-1,204,205,206,-1,206,205,137,-1,206,137,207,-1,207,137,135,-1,207,135,208,-1,208,135,209,-1,204,210,205,-1,205,210,211,-1,205,211,212,-1,213,214,202,-1,202,214,215,-1,202,215,203,-1,216,217,218,-1,219,220,221,-1,221,220,222,-1,222,223,221,-1,221,223,224,-1,221,224,225,-1,226,227,228,-1,228,227,229,-1,228,229,230,-1,231,232,233,-1,233,232,234,-1,233,234,235,-1,236,237,221,-1,221,237,233,-1,238,213,239,-1,239,213,202,-1,239,202,240,-1,240,202,241,-1,240,241,242,-1,209,135,218,-1,218,135,243,-1,218,243,216,-1,212,244,205,-1,205,244,245,-1,205,245,221,-1,221,245,246,-1,221,246,236,-1,235,247,233,-1,233,247,248,-1,233,248,221,-1,221,248,249,-1,221,249,219,-1,230,250,228,-1,228,250,251,-1,228,251,224,-1,224,251,252,-1,224,252,225,-1,233,253,231,-1,231,253,128,-1,231,128,254,-1,254,128,255,-1,255,128,127,-1,255,127,203,-1,203,127,256,-1,203,256,201,-1,257,258,131,-1,257,131,259,-1,260,261,262,-1,262,261,263,-1,262,263,259,-1,264,265,266,-1,266,265,132,-1,266,132,131,-1,267,268,266,-1,266,268,269,-1,269,270,266,-1,266,270,271,-1,266,271,264,-1,258,272,131,-1,131,272,273,-1,131,273,266,-1,266,273,274,-1,266,274,267,-1,275,276,260,-1,260,276,277,-1,260,277,261,-1,278,279,260,-1,260,279,280,-1,260,280,275,-1,260,281,278,-1,278,281,282,-1,278,282,283,-1,283,282,284,-1,283,284,285,-1,259,131,262,-1,262,131,140,-1,262,140,286,-1,286,140,139,-1,286,139,287,-1,287,139,137,-1,287,137,205,-1,288,289,285,-1,290,291,292,-1,292,291,293,-1,292,293,294,-1,294,293,295,-1,294,295,296,-1,296,295,297,-1,296,297,298,-1,146,145,284,-1,284,145,299,-1,297,300,298,-1,298,300,301,-1,298,301,302,-1,299,303,284,-1,284,303,304,-1,284,304,305,-1,305,306,284,-1,284,306,307,-1,284,307,285,-1,285,307,308,-1,285,308,288,-1,309,310,289,-1,289,310,311,-1,289,311,312,-1,313,314,292,-1,292,314,315,-1,292,315,290,-1,289,298,309,-1,309,298,302,-1,309,302,316,-1,316,302,317,-1,316,317,318,-1,292,319,313,-1,313,319,320,-1,313,320,321,-1,142,141,322,-1,323,324,325,-1,312,326,289,-1,289,326,327,-1,289,327,285,-1,285,327,328,-1,285,328,329,-1,329,330,285,-1,285,330,331,-1,285,331,332,-1,321,333,313,-1,313,333,323,-1,313,323,334,-1,334,323,325,-1,335,336,337,-1,338,322,339,-1,340,187,341,-1,317,342,318,-1,318,342,335,-1,318,335,343,-1,343,335,337,-1,344,345,142,-1,346,347,339,-1,339,347,348,-1,339,348,338,-1,338,348,349,-1,338,349,350,-1,187,340,177,-1,177,340,351,-1,177,351,332,-1,332,351,352,-1,332,352,285,-1,322,338,142,-1,142,338,353,-1,142,353,344,-1,350,354,338,-1,338,354,355,-1,338,355,356,-1,341,357,340,-1,340,357,358,-1,340,358,359,-1,359,358,360,-1,359,360,346,-1,346,360,361,-1,346,361,347,-1,362,363,345,-1,345,363,364,-1,345,364,142,-1,365,59,366,-1,366,59,62,-1,366,62,160,-1,160,62,2,-1,160,2,162,-1,162,2,157,-1,162,157,164,-1,164,157,155,-1,164,155,166,-1,166,155,153,-1,166,153,168,-1,168,153,151,-1,168,151,170,-1,170,151,149,-1,170,149,172,-1,172,149,147,-1,172,147,174,-1,174,147,146,-1,174,146,367,-1,367,146,284,-1,367,284,368,-1,368,284,282,-1,368,282,369,-1,369,282,281,-1,369,281,370,-1,370,281,260,-1,370,260,371,-1,371,260,262,-1,371,262,372,-1,372,262,286,-1,372,286,373,-1,373,286,287,-1,373,287,374,-1,374,287,205,-1,374,205,375,-1,375,205,221,-1,375,221,376,-1,376,221,377,-1,376,377,378,-1,378,377,379,-1,378,379,380,-1,380,379,381,-1,380,381,382,-1,382,381,383,-1,382,383,384,-1,384,383,385,-1,384,385,386,-1,386,385,387,-1,386,387,388,-1,388,387,389,-1,388,389,390,-1,390,389,391,-1,390,391,392,-1,392,391,393,-1,392,393,394,-1,394,393,395,-1,394,395,396,-1,396,395,397,-1,396,397,398,-1,398,397,399,-1,398,399,400,-1,400,399,401,-1,400,401,402,-1,402,401,365,-1,402,365,366,-1,403,404,405,-1,405,404,406,-1,405,406,407,-1,407,408,405,-1,405,408,409,-1,405,409,410,-1,410,411,405,-1,405,411,412,-1,405,412,413,-1,413,414,405,-1,405,414,415,-1,405,415,416,-1,417,418,419,-1,419,418,420,-1,419,420,421,-1,421,420,422,-1,421,422,423,-1,423,422,424,-1,423,424,425,-1,425,424,426,-1,425,426,427,-1,427,426,428,-1,427,428,429,-1,429,428,416,-1,429,416,430,-1,430,416,415,-1,431,432,366,-1,159,433,160,-1,160,433,434,-1,160,434,366,-1,418,417,435,-1,435,417,436,-1,437,438,439,-1,439,438,440,-1,439,440,441,-1,436,417,442,-1,442,417,439,-1,442,439,443,-1,443,439,441,-1,443,441,444,-1,445,446,366,-1,366,446,447,-1,366,447,431,-1,444,448,443,-1,443,448,449,-1,443,449,450,-1,434,451,366,-1,366,451,452,-1,366,452,445,-1,445,452,453,-1,445,453,454,-1,454,453,455,-1,453,456,455,-1,455,456,457,-1,455,457,458,-1,458,457,459,-1,459,457,460,-1,459,460,449,-1,449,460,461,-1,449,461,450,-1,462,463,464,-1,464,463,465,-1,464,465,466,-1,467,468,469,-1,469,468,470,-1,471,468,472,-1,473,474,375,-1,475,476,374,-1,374,476,477,-1,374,477,136,-1,136,477,478,-1,136,478,134,-1,134,478,479,-1,467,480,468,-1,468,480,481,-1,468,481,472,-1,473,375,482,-1,483,484,374,-1,374,484,485,-1,374,485,475,-1,486,487,488,-1,488,487,489,-1,488,489,375,-1,375,489,490,-1,375,490,482,-1,491,492,493,-1,462,494,495,-1,495,494,496,-1,495,496,129,-1,479,497,134,-1,134,497,491,-1,134,491,498,-1,498,491,493,-1,495,499,462,-1,462,499,500,-1,462,500,463,-1,463,500,501,-1,463,501,502,-1,503,504,486,-1,486,504,505,-1,486,505,487,-1,468,506,470,-1,470,506,375,-1,470,375,507,-1,507,375,474,-1,506,508,375,-1,375,508,509,-1,375,509,374,-1,374,509,510,-1,374,510,483,-1,503,486,511,-1,511,486,512,-1,511,512,513,-1,471,472,130,-1,130,472,514,-1,130,514,129,-1,129,514,515,-1,129,515,495,-1,516,517,370,-1,518,367,519,-1,519,367,368,-1,519,368,520,-1,520,368,369,-1,520,369,521,-1,521,369,370,-1,521,370,522,-1,522,370,517,-1,523,524,525,-1,524,526,525,-1,525,526,527,-1,525,527,528,-1,528,529,525,-1,525,529,530,-1,525,530,531,-1,531,532,525,-1,525,532,533,-1,525,533,523,-1,534,535,372,-1,372,535,536,-1,536,537,372,-1,372,537,538,-1,372,538,371,-1,371,538,539,-1,371,539,370,-1,370,539,540,-1,370,540,516,-1,532,534,533,-1,533,534,372,-1,533,372,541,-1,541,372,373,-1,541,373,542,-1,542,373,133,-1,374,136,373,-1,373,136,138,-1,373,138,133,-1,173,174,543,-1,543,174,367,-1,544,545,144,-1,518,546,547,-1,548,546,549,-1,550,551,367,-1,367,551,552,-1,367,552,543,-1,553,554,546,-1,546,554,555,-1,546,555,549,-1,547,556,518,-1,518,556,557,-1,518,557,367,-1,367,557,558,-1,367,558,550,-1,559,560,561,-1,561,560,562,-1,563,564,565,-1,565,564,566,-1,565,566,561,-1,561,566,567,-1,561,567,559,-1,562,568,561,-1,561,568,569,-1,561,569,570,-1,571,572,573,-1,573,572,574,-1,573,574,575,-1,576,577,578,-1,518,579,580,-1,580,581,518,-1,518,581,582,-1,518,582,546,-1,546,582,583,-1,546,583,553,-1,584,585,586,-1,587,588,569,-1,569,588,589,-1,569,589,570,-1,545,590,571,-1,544,144,591,-1,565,592,563,-1,563,592,548,-1,563,548,593,-1,593,548,549,-1,593,549,594,-1,594,549,595,-1,594,595,596,-1,596,595,597,-1,596,597,598,-1,577,599,578,-1,578,599,403,-1,578,403,600,-1,600,403,405,-1,600,405,601,-1,601,405,602,-1,601,602,518,-1,518,602,603,-1,518,603,579,-1,545,604,605,-1,573,606,571,-1,571,606,607,-1,571,607,545,-1,545,607,143,-1,545,143,144,-1,608,609,610,-1,611,612,613,-1,587,569,586,-1,586,569,614,-1,586,614,584,-1,576,578,575,-1,575,578,615,-1,575,615,573,-1,605,616,545,-1,545,616,617,-1,545,617,590,-1,591,144,610,-1,610,144,618,-1,610,618,608,-1,598,597,613,-1,613,597,619,-1,613,619,611,-1,460,457,74,-1,74,457,75,-1,173,145,171,-1,171,145,148,-1,171,148,169,-1,169,148,150,-1,169,150,167,-1,167,150,152,-1,167,152,165,-1,165,152,154,-1,165,154,163,-1,163,154,156,-1,163,156,161,-1,161,156,158,-1,161,158,159,-1,159,158,1,-1,159,1,433,-1,433,1,0,-1,435,118,418,-1,418,118,126,-1,418,126,420,-1,420,126,199,-1,420,199,422,-1,422,199,197,-1,422,197,424,-1,424,197,195,-1,424,195,426,-1,426,195,193,-1,426,193,428,-1,428,193,191,-1,428,191,416,-1,416,191,189,-1,416,189,405,-1,405,189,177,-1,560,559,290,-1,290,559,291,-1,292,294,561,-1,561,294,565,-1,316,318,595,-1,595,318,597,-1,317,302,596,-1,596,302,594,-1,430,188,429,-1,429,188,190,-1,429,190,427,-1,427,190,192,-1,427,192,425,-1,425,192,194,-1,425,194,423,-1,423,194,196,-1,423,196,421,-1,421,196,198,-1,421,198,419,-1,419,198,200,-1,419,200,417,-1,200,86,417,-1,417,86,6,-1,417,6,439,-1,439,6,8,-1,439,8,620,-1,620,8,621,-1,620,621,622,-1,622,621,623,-1,622,623,624,-1,624,623,625,-1,624,625,626,-1,626,625,627,-1,626,627,628,-1,628,627,629,-1,628,629,630,-1,630,629,631,-1,630,631,632,-1,632,631,633,-1,353,338,544,-1,544,338,545,-1,348,347,571,-1,571,347,572,-1,572,347,574,-1,574,347,361,-1,574,361,575,-1,575,361,360,-1,575,360,576,-1,576,360,358,-1,576,358,577,-1,577,358,357,-1,577,357,599,-1,599,357,341,-1,599,341,403,-1,403,341,187,-1,410,180,411,-1,411,180,179,-1,411,179,412,-1,412,179,176,-1,412,176,413,-1,413,176,175,-1,413,175,414,-1,414,175,178,-1,414,178,415,-1,415,178,188,-1,415,188,430,-1,403,187,404,-1,404,187,186,-1,404,186,406,-1,406,186,185,-1,406,185,407,-1,407,185,184,-1,407,184,408,-1,408,184,183,-1,408,183,409,-1,409,183,182,-1,409,182,410,-1,410,182,181,-1,410,181,180,-1,118,435,119,-1,119,435,436,-1,119,436,121,-1,121,436,442,-1,121,442,122,-1,122,442,443,-1,122,443,124,-1,124,443,450,-1,124,450,125,-1,125,450,461,-1,125,461,73,-1,73,461,460,-1,73,460,74,-1,433,0,434,-1,434,0,80,-1,434,80,451,-1,451,80,79,-1,451,79,452,-1,452,79,78,-1,452,78,453,-1,453,78,77,-1,453,77,456,-1,456,77,76,-1,456,76,457,-1,457,76,75,-1,316,595,309,-1,309,595,549,-1,309,549,310,-1,310,549,555,-1,310,555,311,-1,311,555,554,-1,311,554,312,-1,312,554,553,-1,312,553,326,-1,326,553,583,-1,326,583,327,-1,327,583,582,-1,327,582,328,-1,328,582,581,-1,328,581,329,-1,329,581,580,-1,329,580,330,-1,330,580,579,-1,330,579,331,-1,331,579,603,-1,331,603,332,-1,332,603,602,-1,332,602,177,-1,177,602,405,-1,317,596,598,-1,317,598,342,-1,342,598,613,-1,342,613,335,-1,335,613,612,-1,335,612,336,-1,336,612,611,-1,336,611,337,-1,337,611,619,-1,337,619,343,-1,343,619,597,-1,343,597,318,-1,594,302,593,-1,593,302,301,-1,593,301,563,-1,563,301,300,-1,563,300,564,-1,564,300,297,-1,564,297,566,-1,566,297,295,-1,566,295,567,-1,567,295,293,-1,567,293,559,-1,559,293,291,-1,145,173,299,-1,299,173,543,-1,299,543,303,-1,303,543,552,-1,303,552,304,-1,304,552,551,-1,304,551,305,-1,305,551,550,-1,305,550,306,-1,306,550,558,-1,306,558,307,-1,307,558,557,-1,565,294,592,-1,592,294,296,-1,592,296,548,-1,548,296,298,-1,548,298,546,-1,546,298,289,-1,546,289,547,-1,547,289,288,-1,547,288,556,-1,556,288,308,-1,556,308,557,-1,557,308,307,-1,144,142,364,-1,144,364,618,-1,618,364,363,-1,618,363,608,-1,608,363,362,-1,608,362,609,-1,609,362,345,-1,609,345,610,-1,610,345,344,-1,610,344,591,-1,591,344,353,-1,591,353,544,-1,348,571,590,-1,348,590,349,-1,349,590,617,-1,349,617,350,-1,350,617,616,-1,350,616,354,-1,354,616,605,-1,354,605,355,-1,355,605,604,-1,355,604,356,-1,356,604,545,-1,356,545,338,-1,585,324,323,-1,585,323,586,-1,586,323,333,-1,586,333,587,-1,587,333,321,-1,587,321,588,-1,588,321,320,-1,588,320,589,-1,589,320,319,-1,589,319,570,-1,570,319,292,-1,570,292,561,-1,324,585,584,-1,324,584,325,-1,325,584,614,-1,325,614,334,-1,334,614,569,-1,334,569,313,-1,313,569,568,-1,313,568,314,-1,314,568,562,-1,314,562,315,-1,315,562,560,-1,315,560,290,-1,352,601,285,-1,285,601,518,-1,285,518,283,-1,283,518,519,-1,283,519,278,-1,278,519,520,-1,278,520,279,-1,279,520,521,-1,279,521,522,-1,322,141,607,-1,607,141,143,-1,273,272,531,-1,531,272,532,-1,279,522,517,-1,279,517,280,-1,280,517,516,-1,280,516,275,-1,275,516,540,-1,275,540,276,-1,276,540,277,-1,277,540,539,-1,277,539,538,-1,532,272,534,-1,534,272,258,-1,534,258,535,-1,535,258,257,-1,535,257,536,-1,536,257,259,-1,536,259,537,-1,537,259,263,-1,537,263,538,-1,538,263,261,-1,538,261,277,-1,322,607,339,-1,339,607,606,-1,339,606,346,-1,346,606,573,-1,346,573,359,-1,359,573,615,-1,359,615,340,-1,340,615,578,-1,340,578,351,-1,351,578,600,-1,351,600,352,-1,352,600,601,-1,479,478,208,-1,208,478,207,-1,483,510,244,-1,244,510,245,-1,634,635,636,-1,636,635,637,-1,636,637,638,-1,638,637,639,-1,638,639,463,-1,463,639,239,-1,463,239,465,-1,465,239,240,-1,465,240,640,-1,640,240,641,-1,640,641,642,-1,642,641,643,-1,642,643,644,-1,644,643,645,-1,646,642,647,-1,647,642,644,-1,647,648,649,-1,649,650,647,-1,647,650,651,-1,647,651,652,-1,653,654,655,-1,655,656,653,-1,653,656,657,-1,653,657,644,-1,644,657,658,-1,644,658,647,-1,647,658,659,-1,647,659,648,-1,660,661,658,-1,658,661,659,-1,643,662,645,-1,645,662,663,-1,664,665,645,-1,666,663,667,-1,667,663,668,-1,667,668,669,-1,666,670,663,-1,663,670,661,-1,663,661,645,-1,645,661,660,-1,645,660,664,-1,671,672,665,-1,665,672,673,-1,665,673,645,-1,662,643,641,-1,240,242,674,-1,674,675,240,-1,240,675,676,-1,240,676,641,-1,641,676,677,-1,641,677,662,-1,678,466,465,-1,640,642,646,-1,646,679,640,-1,640,679,680,-1,640,680,465,-1,465,680,681,-1,465,681,678,-1,646,647,663,-1,676,679,677,-1,677,679,646,-1,677,646,662,-1,662,646,663,-1,660,658,657,-1,660,657,664,-1,664,657,656,-1,664,656,665,-1,665,656,655,-1,665,655,671,-1,671,655,654,-1,671,654,672,-1,672,654,653,-1,672,653,673,-1,673,653,644,-1,673,644,645,-1,479,208,209,-1,479,209,497,-1,497,209,218,-1,497,218,491,-1,491,218,217,-1,491,217,492,-1,492,217,216,-1,492,216,493,-1,493,216,243,-1,493,243,498,-1,498,243,135,-1,498,135,134,-1,659,661,670,-1,659,670,648,-1,648,670,666,-1,648,666,649,-1,649,666,667,-1,649,667,650,-1,650,667,669,-1,650,669,651,-1,651,669,668,-1,651,668,652,-1,652,668,663,-1,652,663,647,-1,207,478,206,-1,206,478,477,-1,206,477,204,-1,204,477,476,-1,204,476,210,-1,210,476,475,-1,210,475,211,-1,211,475,485,-1,211,485,212,-1,212,485,484,-1,212,484,244,-1,244,484,483,-1,127,129,256,-1,256,129,496,-1,256,496,201,-1,201,496,494,-1,201,494,202,-1,202,494,462,-1,202,462,241,-1,241,462,464,-1,241,464,242,-1,242,464,466,-1,242,466,682,-1,682,466,678,-1,682,678,675,-1,675,678,681,-1,675,681,676,-1,676,681,680,-1,676,680,679,-1,130,128,471,-1,471,128,253,-1,471,253,468,-1,468,253,233,-1,468,233,506,-1,506,233,237,-1,506,237,508,-1,508,237,236,-1,508,236,509,-1,509,236,246,-1,509,246,510,-1,510,246,245,-1,254,255,514,-1,514,255,515,-1,252,486,225,-1,225,486,488,-1,225,488,683,-1,683,488,684,-1,683,684,685,-1,685,684,686,-1,685,686,687,-1,687,686,688,-1,689,690,691,-1,691,690,692,-1,60,59,365,-1,60,365,693,-1,693,365,401,-1,693,401,694,-1,694,401,399,-1,694,399,695,-1,695,399,397,-1,695,397,696,-1,696,397,395,-1,696,395,697,-1,697,395,393,-1,697,393,698,-1,698,393,391,-1,698,391,699,-1,700,390,701,-1,701,390,392,-1,701,392,702,-1,702,392,394,-1,702,394,703,-1,703,394,396,-1,703,396,704,-1,704,396,398,-1,704,398,705,-1,705,398,400,-1,705,400,706,-1,706,400,402,-1,706,402,432,-1,432,402,366,-1,707,708,709,-1,709,708,710,-1,709,710,711,-1,711,712,709,-1,709,712,713,-1,709,713,714,-1,714,715,709,-1,709,715,716,-1,709,716,717,-1,717,718,709,-1,709,718,719,-1,709,719,720,-1,720,719,633,-1,633,631,720,-1,720,631,629,-1,720,629,721,-1,721,629,627,-1,721,627,722,-1,722,627,625,-1,722,625,723,-1,723,625,623,-1,723,623,724,-1,724,623,621,-1,724,621,725,-1,725,621,8,-1,725,8,35,-1,385,726,387,-1,387,726,727,-1,387,727,389,-1,728,729,385,-1,385,729,730,-1,730,731,385,-1,385,731,732,-1,385,732,726,-1,733,734,687,-1,733,687,735,-1,736,737,738,-1,736,738,739,-1,737,740,738,-1,738,740,741,-1,738,741,735,-1,735,687,738,-1,738,687,688,-1,738,688,742,-1,742,743,738,-1,738,743,744,-1,738,744,739,-1,734,745,381,-1,745,746,381,-1,381,746,747,-1,381,747,383,-1,383,747,748,-1,383,748,385,-1,385,748,749,-1,385,749,728,-1,734,381,687,-1,687,381,379,-1,687,379,685,-1,685,379,377,-1,685,377,683,-1,683,377,221,-1,683,221,225,-1,750,751,752,-1,699,391,753,-1,753,391,389,-1,752,754,755,-1,727,756,757,-1,757,758,727,-1,727,758,759,-1,727,759,389,-1,389,759,760,-1,389,760,761,-1,761,762,389,-1,389,762,763,-1,389,763,753,-1,756,764,765,-1,766,767,768,-1,727,769,770,-1,765,771,756,-1,756,771,772,-1,756,772,773,-1,774,775,776,-1,776,775,777,-1,776,777,752,-1,752,777,778,-1,752,778,754,-1,755,779,752,-1,752,779,780,-1,752,780,781,-1,750,752,782,-1,781,783,752,-1,752,783,784,-1,752,784,785,-1,786,707,787,-1,787,707,709,-1,787,709,788,-1,788,709,789,-1,788,789,727,-1,727,789,790,-1,727,790,769,-1,770,791,727,-1,727,791,792,-1,727,792,756,-1,756,792,793,-1,756,793,764,-1,776,794,774,-1,774,794,773,-1,774,773,795,-1,795,773,772,-1,795,772,796,-1,796,772,797,-1,796,797,798,-1,798,797,799,-1,798,799,800,-1,785,801,752,-1,752,801,802,-1,752,802,782,-1,803,804,786,-1,786,804,805,-1,786,805,707,-1,806,807,808,-1,808,807,690,-1,809,810,811,-1,803,786,767,-1,767,786,812,-1,767,812,768,-1,806,813,807,-1,807,813,814,-1,807,814,815,-1,815,816,807,-1,807,816,817,-1,807,817,818,-1,818,817,819,-1,818,819,768,-1,768,819,820,-1,768,820,766,-1,800,799,811,-1,811,799,821,-1,811,821,809,-1,822,823,824,-1,824,823,825,-1,690,689,808,-1,808,689,825,-1,808,825,826,-1,826,825,823,-1,827,828,829,-1,830,632,829,-1,829,632,831,-1,829,831,827,-1,828,832,829,-1,829,832,833,-1,829,833,834,-1,834,835,829,-1,829,835,836,-1,829,836,837,-1,837,838,829,-1,829,838,839,-1,829,839,840,-1,437,439,841,-1,841,439,620,-1,841,620,842,-1,842,620,622,-1,842,622,843,-1,843,622,624,-1,843,624,844,-1,844,624,626,-1,844,626,845,-1,845,626,628,-1,845,628,830,-1,830,628,630,-1,830,630,632,-1,380,846,378,-1,378,846,847,-1,378,847,848,-1,848,849,378,-1,378,849,850,-1,378,850,851,-1,852,853,854,-1,855,856,854,-1,854,856,857,-1,854,857,852,-1,858,859,854,-1,854,859,860,-1,854,860,855,-1,853,861,854,-1,854,861,862,-1,854,862,858,-1,863,864,380,-1,380,864,865,-1,380,865,846,-1,388,866,386,-1,386,866,867,-1,386,867,384,-1,384,867,868,-1,384,868,382,-1,382,868,869,-1,382,869,380,-1,380,869,870,-1,380,870,863,-1,871,376,872,-1,872,376,378,-1,872,378,857,-1,857,378,851,-1,857,851,852,-1,488,375,684,-1,684,375,376,-1,684,376,686,-1,686,376,871,-1,873,874,866,-1,390,700,388,-1,388,700,875,-1,388,875,876,-1,877,878,388,-1,388,878,866,-1,866,878,879,-1,866,879,873,-1,876,880,388,-1,388,880,881,-1,388,881,877,-1,882,883,884,-1,884,883,885,-1,884,885,886,-1,884,887,882,-1,882,887,888,-1,882,888,889,-1,890,891,892,-1,893,894,874,-1,874,894,895,-1,874,895,896,-1,897,898,866,-1,866,898,899,-1,866,899,900,-1,889,901,882,-1,882,901,902,-1,882,902,903,-1,885,904,886,-1,886,904,905,-1,886,905,906,-1,906,905,907,-1,906,907,908,-1,908,907,909,-1,908,909,910,-1,874,908,893,-1,893,908,910,-1,893,910,911,-1,911,910,912,-1,911,912,913,-1,896,914,874,-1,874,914,915,-1,874,915,866,-1,866,915,916,-1,866,916,897,-1,917,840,918,-1,919,692,920,-1,920,692,921,-1,920,921,922,-1,892,923,890,-1,890,923,882,-1,890,882,924,-1,924,882,903,-1,840,917,829,-1,829,917,925,-1,829,925,900,-1,900,925,926,-1,900,926,866,-1,927,928,929,-1,918,930,917,-1,917,930,931,-1,917,931,932,-1,932,931,920,-1,932,920,933,-1,933,920,922,-1,934,935,936,-1,912,937,913,-1,913,937,927,-1,913,927,938,-1,938,927,929,-1,939,940,941,-1,942,943,691,-1,935,944,936,-1,936,944,939,-1,936,939,945,-1,945,939,941,-1,919,934,692,-1,692,934,936,-1,692,936,691,-1,691,936,946,-1,691,946,942,-1,947,948,943,-1,943,948,949,-1,943,949,691,-1,458,459,72,-1,72,459,71,-1,431,61,432,-1,432,61,60,-1,432,60,706,-1,706,60,693,-1,706,693,705,-1,705,693,694,-1,705,694,704,-1,704,694,695,-1,704,695,703,-1,703,695,696,-1,703,696,702,-1,702,696,697,-1,702,697,701,-1,701,697,698,-1,701,698,700,-1,700,698,699,-1,829,709,830,-1,830,709,720,-1,830,720,845,-1,845,720,721,-1,845,721,844,-1,844,721,722,-1,844,722,843,-1,843,722,723,-1,843,723,842,-1,842,723,724,-1,842,724,841,-1,841,724,725,-1,841,725,437,-1,437,725,35,-1,437,35,438,-1,438,35,34,-1,883,882,754,-1,754,882,755,-1,776,752,886,-1,886,752,884,-1,799,797,913,-1,913,797,911,-1,796,798,910,-1,910,798,912,-1,806,808,936,-1,936,808,946,-1,820,819,934,-1,934,819,935,-1,840,707,918,-1,918,707,805,-1,918,805,930,-1,930,805,804,-1,930,804,931,-1,931,804,803,-1,931,803,920,-1,920,803,767,-1,920,767,919,-1,919,767,766,-1,919,766,934,-1,934,766,820,-1,707,840,708,-1,708,840,839,-1,708,839,710,-1,710,839,838,-1,710,838,711,-1,711,838,837,-1,711,837,712,-1,712,837,836,-1,712,836,713,-1,713,836,835,-1,713,835,714,-1,714,835,834,-1,714,834,715,-1,715,834,833,-1,715,833,716,-1,716,833,832,-1,716,832,717,-1,717,832,828,-1,717,828,718,-1,718,828,827,-1,718,827,719,-1,719,827,831,-1,719,831,633,-1,633,831,632,-1,71,459,27,-1,27,459,449,-1,438,34,440,-1,440,34,33,-1,440,33,441,-1,441,33,32,-1,441,32,444,-1,444,32,31,-1,444,31,448,-1,448,31,30,-1,448,30,449,-1,449,30,28,-1,449,28,27,-1,458,72,455,-1,455,72,70,-1,455,70,454,-1,454,70,69,-1,454,69,445,-1,445,69,68,-1,445,68,446,-1,446,68,64,-1,446,64,447,-1,447,64,63,-1,447,63,431,-1,431,63,61,-1,792,915,793,-1,793,915,914,-1,793,914,764,-1,764,914,896,-1,764,896,765,-1,765,896,895,-1,765,895,771,-1,771,895,894,-1,771,894,772,-1,772,894,893,-1,772,893,797,-1,797,893,911,-1,709,829,789,-1,789,829,900,-1,789,900,790,-1,790,900,899,-1,790,899,769,-1,769,899,898,-1,769,898,770,-1,770,898,897,-1,770,897,791,-1,791,897,916,-1,791,916,792,-1,792,916,915,-1,799,913,938,-1,799,938,821,-1,821,938,929,-1,821,929,809,-1,809,929,928,-1,809,928,810,-1,810,928,927,-1,810,927,811,-1,811,927,937,-1,811,937,800,-1,800,937,912,-1,800,912,798,-1,883,754,885,-1,885,754,778,-1,885,778,904,-1,904,778,777,-1,904,777,905,-1,905,777,775,-1,905,775,907,-1,907,775,774,-1,907,774,909,-1,909,774,795,-1,909,795,910,-1,910,795,796,-1,759,878,760,-1,760,878,877,-1,760,877,761,-1,761,877,881,-1,761,881,762,-1,762,881,880,-1,762,880,763,-1,763,880,876,-1,763,876,753,-1,753,876,875,-1,753,875,699,-1,699,875,700,-1,878,759,879,-1,879,759,758,-1,879,758,873,-1,873,758,757,-1,873,757,874,-1,874,757,756,-1,874,756,908,-1,908,756,773,-1,908,773,906,-1,906,773,794,-1,906,794,886,-1,886,794,776,-1,946,808,826,-1,946,826,942,-1,942,826,823,-1,942,823,943,-1,943,823,822,-1,943,822,947,-1,947,822,824,-1,947,824,948,-1,948,824,825,-1,948,825,949,-1,949,825,689,-1,949,689,691,-1,806,936,945,-1,806,945,813,-1,813,945,941,-1,813,941,814,-1,814,941,940,-1,814,940,815,-1,815,940,939,-1,815,939,816,-1,816,939,944,-1,816,944,817,-1,817,944,935,-1,817,935,819,-1,884,752,751,-1,884,751,887,-1,887,751,750,-1,887,750,888,-1,888,750,782,-1,888,782,889,-1,889,782,802,-1,889,802,901,-1,901,802,801,-1,901,801,902,-1,902,801,785,-1,902,785,903,-1,755,882,923,-1,755,923,779,-1,779,923,892,-1,779,892,780,-1,780,892,891,-1,780,891,781,-1,781,891,890,-1,781,890,783,-1,783,890,924,-1,783,924,784,-1,784,924,903,-1,784,903,785,-1,926,788,866,-1,866,788,727,-1,866,727,867,-1,867,727,726,-1,867,726,868,-1,868,726,732,-1,868,732,869,-1,869,732,731,-1,869,731,870,-1,690,807,692,-1,692,807,921,-1,853,852,735,-1,735,852,733,-1,848,747,746,-1,848,746,849,-1,849,746,745,-1,849,745,850,-1,850,745,734,-1,850,734,851,-1,851,734,733,-1,851,733,852,-1,747,848,748,-1,748,848,847,-1,748,847,749,-1,749,847,846,-1,749,846,728,-1,846,865,728,-1,728,865,864,-1,728,864,729,-1,729,864,863,-1,729,863,730,-1,730,863,870,-1,730,870,731,-1,788,926,787,-1,787,926,925,-1,787,925,786,-1,786,925,917,-1,786,917,812,-1,812,917,932,-1,812,932,768,-1,768,932,933,-1,768,933,818,-1,818,933,922,-1,818,922,807,-1,807,922,921,-1,487,505,228,-1,228,505,226,-1,470,507,248,-1,248,507,249,-1,634,636,950,-1,950,951,634,-1,634,951,952,-1,634,952,953,-1,953,954,634,-1,634,954,955,-1,634,955,956,-1,956,955,957,-1,956,957,958,-1,951,959,952,-1,952,959,960,-1,952,960,961,-1,961,960,962,-1,961,962,963,-1,964,965,952,-1,952,965,953,-1,966,967,964,-1,964,967,965,-1,968,969,970,-1,971,637,967,-1,967,637,635,-1,967,635,965,-1,965,635,972,-1,965,972,973,-1,966,964,970,-1,970,964,974,-1,970,974,968,-1,973,975,965,-1,965,975,976,-1,965,976,977,-1,978,979,239,-1,979,980,239,-1,239,980,981,-1,239,981,238,-1,239,639,978,-1,978,639,637,-1,978,637,971,-1,502,982,463,-1,463,982,983,-1,463,983,638,-1,638,983,984,-1,638,984,636,-1,636,984,985,-1,636,985,950,-1,967,951,971,-1,971,951,950,-1,971,950,978,-1,978,950,985,-1,978,985,979,-1,635,634,956,-1,635,956,972,-1,972,956,958,-1,972,958,973,-1,973,958,957,-1,973,957,975,-1,975,957,955,-1,975,955,976,-1,976,955,954,-1,976,954,977,-1,977,954,953,-1,977,953,965,-1,486,252,251,-1,486,251,512,-1,512,251,250,-1,512,250,513,-1,513,250,230,-1,513,230,511,-1,511,230,229,-1,511,229,503,-1,503,229,227,-1,503,227,504,-1,504,227,226,-1,504,226,505,-1,951,967,966,-1,951,966,959,-1,959,966,970,-1,959,970,960,-1,960,970,969,-1,960,969,962,-1,962,969,968,-1,962,968,963,-1,963,968,974,-1,963,974,961,-1,961,974,964,-1,961,964,952,-1,249,507,219,-1,219,507,474,-1,219,474,220,-1,220,474,473,-1,220,473,222,-1,222,473,482,-1,222,482,223,-1,223,482,490,-1,223,490,224,-1,224,490,489,-1,224,489,228,-1,228,489,487,-1,515,255,495,-1,495,255,203,-1,495,203,499,-1,499,203,215,-1,499,215,500,-1,500,215,214,-1,500,214,501,-1,985,984,979,-1,979,984,983,-1,979,983,980,-1,980,983,982,-1,980,982,986,-1,986,982,502,-1,986,502,238,-1,238,502,501,-1,238,501,213,-1,213,501,214,-1,470,248,469,-1,469,248,247,-1,469,247,467,-1,467,247,235,-1,467,235,480,-1,480,235,234,-1,480,234,481,-1,481,234,232,-1,481,232,472,-1,472,232,231,-1,472,231,514,-1,514,231,254,-1,270,524,523,-1,273,531,274,-1,274,531,530,-1,274,530,267,-1,267,530,529,-1,267,529,268,-1,268,529,528,-1,268,528,269,-1,269,528,527,-1,269,527,270,-1,270,527,526,-1,270,526,524,-1,533,264,523,-1,523,264,271,-1,523,271,270,-1,533,541,264,-1,264,541,542,-1,264,542,265,-1,265,542,133,-1,265,133,132,-1,872,742,871,-1,871,742,688,-1,871,688,686,-1,857,744,872,-1,872,744,743,-1,872,743,742,-1,857,856,744,-1,744,856,855,-1,744,855,739,-1,739,855,860,-1,739,860,736,-1,860,859,736,-1,736,859,858,-1,736,858,737,-1,737,858,862,-1,737,862,740,-1,740,862,861,-1,740,861,741,-1,741,861,853,-1,741,853,735,-1,
        ]
    }
}
Shape{
    appearance Appearance {
        material  Material 	{
            diffuseColor 1.0 1.0 1.0
            specularColor 0.8784313725490196 0.8784313725490196 0.8784313725490196
            ambientIntensity 1.0
            transparency 0.0
            shininess 0.5
        }
    }
    geometry IndexedFaceSet {
        ccw TRUE
        solid FALSE
        coord DEF co Coordinate {
            point [
                0.6673 -0.4703 0.0472, 0.821 -0.0766 0.0472, 0.6673 -0.4703 0.0394, 0.821 -0.0766 0.0394, 0.7634 -0.0766 0.0472, 0.7634 -0.0766 0.0394, 0.7235 -0.187 0.0472, 0.7235 -0.187 0.0394, 0.5609 -0.187 0.0472, 0.5609 -0.187 0.0394, 0.5233 -0.0766 0.0472, 0.5233 -0.0766 0.0394, 0.4657 -0.0766 0.0472, 0.4657 -0.0766 0.0394, 0.6145 -0.4703 0.0472, 0.6145 -0.4703 0.0394, 0.5742 -0.2303 0.0472, 0.6329 -0.3947 0.0472, 0.6367 -0.4084 0.0472, 0.6392 -0.4223 0.0472, 0.6405 -0.4223 0.0472, 0.643 -0.4084 0.0472, 0.7058 -0.2303 0.0472, 0.6466 -0.3947 0.0472, 0.5742 -0.2303 0.0394, 0.7058 -0.2303 0.0394, 0.6329 -0.3947 0.0394, 0.6367 -0.4084 0.0394, 0.6392 -0.4223 0.0394, 0.6405 -0.4223 0.0394, 0.643 -0.4084 0.0394, 0.6466 -0.3947 0.0394, 0.227 -0.0766 0.0472, 0.12 -0.0766 0.0472, 0.227 -0.0766 0.0394, 0.12 -0.0766 0.0394, 0.12 -0.4703 0.0472, 0.12 -0.4703 0.0394, 0.2311 -0.4703 0.0472, 0.2311 -0.4703 0.0394, 0.4369 -0.2784 0.0472, 0.4369 -0.2784 0.0394, 0.4343 -0.314 0.0394, 0.4343 -0.314 0.0472, 0.424 -0.3528 0.0394, 0.424 -0.3528 0.0472, 0.406 -0.3869 0.0394, 0.406 -0.3869 0.0472, 0.3786 -0.4178 0.0394, 0.3786 -0.4178 0.0472, 0.3764 -0.4197 0.0394, 0.3764 -0.4197 0.0472, 0.3334 -0.4484 0.0394, 0.3334 -0.4484 0.0472, 0.2874 -0.4644 0.0394, 0.2874 -0.4644 0.0472, 0.2759 -0.0809 0.0394, 0.2759 -0.0809 0.0472, 0.3212 -0.0944 0.0394, 0.3212 -0.0944 0.0472, 0.3623 -0.1183 0.0394, 0.3623 -0.1183 0.0472, 0.3947 -0.1494 0.0394, 0.3947 -0.1494 0.0472, 0.4172 -0.1846 0.0394, 0.4172 -0.1846 0.0472, 0.4313 -0.2257 0.0394, 0.4313 -0.2257 0.0472, 0.3578 -0.372 0.0472, 0.3387 -0.3923 0.0472, 0.3099 -0.4108 0.0472, 0.2774 -0.4222 0.0472, 0.2309 -0.4271 0.0472, 0.1728 -0.4271 0.0472, 0.1728 -0.1198 0.0472, 0.2287 -0.1198 0.0472, 0.2702 -0.1237 0.0472, 0.3034 -0.134 0.0472, 0.3302 -0.15 0.0472, 0.3523 -0.1718 0.0472, 0.3689 -0.199 0.0472, 0.3804 -0.236 0.0472, 0.3841 -0.2773 0.0472, 0.3807 -0.3165 0.0472, 0.3715 -0.3477 0.0472, 0.2309 -0.4271 0.0394, 0.1728 -0.4271 0.0394, 0.2774 -0.4222 0.0394, 0.3099 -0.4108 0.0394, 0.3387 -0.3923 0.0394, 0.3578 -0.372 0.0394, 0.3715 -0.3477 0.0394, 0.3807 -0.3165 0.0394, 0.3841 -0.2773 0.0394, 0.3804 -0.236 0.0394, 0.3689 -0.199 0.0394, 0.3523 -0.1718 0.0394, 0.3302 -0.15 0.0394, 0.3034 -0.134 0.0394, 0.2702 -0.1237 0.0394, 0.2287 -0.1198 0.0394, 0.1728 -0.1198 0.0394, 0.0432 -0.1198 0.0472, 0.0432 -0.0766 0.0472, 0.0432 -0.1198 0.0394, 0.0432 -0.0766 0.0394, -0.1681 -0.0766 0.0472, -0.1681 -0.0766 0.0394, -0.1681 -0.4703 0.0472, -0.1681 -0.4703 0.0394, 0.0336 -0.4703 0.0472, 0.0336 -0.4703 0.0394, 0.0336 -0.4271 0.0472, 0.0336 -0.4271 0.0394, -0.1153 -0.4271 0.0472, -0.1153 -0.4271 0.0394, -0.1153 -0.2975 0.0472, -0.1153 -0.2975 0.0394, 0.024 -0.2975 0.0472, 0.024 -0.2975 0.0394, 0.024 -0.2543 0.0472, 0.024 -0.2543 0.0394, -0.1153 -0.2543 0.0472, -0.1153 -0.2543 0.0394, -0.1153 -0.1198 0.0472, -0.1153 -0.1198 0.0394, -0.2449 -0.1402 0.0472, -0.2449 -0.097 0.0472, -0.2449 -0.1402 0.0394, -0.2449 -0.097 0.0394, -0.3532 -0.0718 0.0472, -0.3532 -0.0718 0.0394, -0.3425 -0.072 0.0394, -0.3425 -0.072 0.0472, -0.2869 -0.0798 0.0394, -0.2869 -0.0798 0.0472, -0.5378 -0.266 0.0472, -0.5378 -0.266 0.0394, -0.534 -0.2205 0.0394, -0.534 -0.2205 0.0472, -0.5222 -0.1789 0.0394, -0.5222 -0.1789 0.0472, -0.5012 -0.1414 0.0394, -0.5012 -0.1414 0.0472, -0.4717 -0.1103 0.0394, -0.4717 -0.1103 0.0472, -0.44 -0.09 0.0394, -0.44 -0.09 0.0472, -0.4017 -0.0768 0.0394, -0.4017 -0.0768 0.0472, -0.3376 -0.4751 0.0472, -0.3376 -0.4751 0.0394, -0.3773 -0.4719 0.0472, -0.3668 -0.4727 0.0394, -0.3773 -0.4719 0.0394, -0.4211 -0.4591 0.0394, -0.4211 -0.4591 0.0472, -0.4585 -0.4375 0.0394, -0.4585 -0.4375 0.0472, -0.494 -0.4033 0.0394, -0.494 -0.4033 0.0472, -0.5171 -0.3665 0.0394, -0.5171 -0.3665 0.0472, -0.5323 -0.3213 0.0394, -0.5323 -0.3213 0.0472, -0.3028 -0.4727 0.0394, -0.2904 -0.4719 0.0472, -0.2904 -0.4719 0.0394, -0.2449 -0.4595 0.0472, -0.2449 -0.4595 0.0394, -0.2449 -0.4067 0.0472, -0.2449 -0.4067 0.0394, -0.3371 -0.4319 0.0472, -0.3371 -0.4319 0.0394, -0.2892 -0.4257 0.0394, -0.2892 -0.4257 0.0472, -0.485 -0.2693 0.0472, -0.485 -0.2693 0.0394, -0.4831 -0.2999 0.0394, -0.4831 -0.2999 0.0472, -0.4726 -0.342 0.0394, -0.4726 -0.342 0.0472, -0.4564 -0.3724 0.0394, -0.4564 -0.3724 0.0472, -0.4326 -0.3987 0.0394, -0.4326 -0.3987 0.0472, -0.4053 -0.4169 0.0394, -0.4053 -0.4169 0.0472, -0.3759 -0.4276 0.0394, -0.3759 -0.4276 0.0472, -0.346 -0.115 0.0472, -0.346 -0.115 0.0394, -0.3827 -0.1192 0.0394, -0.3827 -0.1192 0.0472, -0.4114 -0.1297 0.0394, -0.4114 -0.1297 0.0472, -0.4355 -0.146 0.0394, -0.4355 -0.146 0.0472, -0.454 -0.1655 0.0394, -0.454 -0.1655 0.0472, -0.4703 -0.1928 0.0394, -0.4703 -0.1928 0.0472, -0.481 -0.2266 0.0394, -0.481 -0.2266 0.0472, -0.252 -0.1363 0.0394, -0.252 -0.1363 0.0472, -0.2937 -0.1208 0.0394, -0.2937 -0.1208 0.0472, -0.5714 -0.1198 0.0472, -0.5714 -0.0766 0.0472, -0.5714 -0.1198 0.0394, -0.5714 -0.0766 0.0394, -0.773 -0.0766 0.0472, -0.773 -0.0766 0.0394, -0.773 -0.4703 0.0472, -0.773 -0.4703 0.0394, -0.7202 -0.4703 0.0472, -0.7202 -0.4703 0.0394, -0.7202 -0.1198 0.0472, -0.7202 -0.1198 0.0394
            ]
        }
        coordIndex [
            0,1,2,-1,2,1,3,-1,1,4,3,-1,3,4,5,-1,4,6,5,-1,5,6,7,-1,6,8,7,-1,7,8,9,-1,8,10,9,-1,9,10,11,-1,10,12,11,-1,11,12,13,-1,12,14,13,-1,13,14,15,-1,14,0,15,-1,15,0,2,-1,16,17,14,-1,12,10,8,-1,17,18,14,-1,14,18,19,-1,14,19,0,-1,0,19,20,-1,0,20,21,-1,14,12,16,-1,16,12,8,-1,16,8,22,-1,22,8,6,-1,21,23,0,-1,0,23,22,-1,0,22,1,-1,1,22,6,-1,1,6,4,-1,16,22,24,-1,24,22,25,-1,17,16,26,-1,26,16,24,-1,17,26,27,-1,17,27,18,-1,18,27,28,-1,18,28,19,-1,20,19,29,-1,29,19,28,-1,20,29,30,-1,20,30,21,-1,21,30,31,-1,21,31,23,-1,22,23,25,-1,25,23,31,-1,32,33,34,-1,34,33,35,-1,33,36,35,-1,35,36,37,-1,36,38,37,-1,37,38,39,-1,40,41,42,-1,40,42,43,-1,43,42,44,-1,43,44,45,-1,45,44,46,-1,45,46,47,-1,47,46,48,-1,47,48,49,-1,49,48,50,-1,49,50,51,-1,51,50,52,-1,51,52,53,-1,53,52,54,-1,53,54,55,-1,55,54,39,-1,55,39,38,-1,32,34,56,-1,32,56,57,-1,57,56,58,-1,57,58,59,-1,59,58,60,-1,59,60,61,-1,61,60,62,-1,61,62,63,-1,63,62,64,-1,63,64,65,-1,65,64,66,-1,65,66,67,-1,67,66,41,-1,67,41,40,-1,45,47,68,-1,68,47,49,-1,68,49,69,-1,69,49,51,-1,69,51,70,-1,70,51,53,-1,70,53,71,-1,71,53,55,-1,71,55,72,-1,72,55,38,-1,72,38,73,-1,73,38,36,-1,73,36,74,-1,74,36,33,-1,74,33,75,-1,75,33,32,-1,75,32,76,-1,76,32,57,-1,76,57,77,-1,77,57,59,-1,77,59,78,-1,78,59,61,-1,78,61,79,-1,79,61,63,-1,79,63,80,-1,80,63,65,-1,80,65,81,-1,81,65,67,-1,81,67,82,-1,82,67,40,-1,82,40,83,-1,83,40,43,-1,83,43,84,-1,84,43,45,-1,84,45,68,-1,72,73,85,-1,85,73,86,-1,72,85,87,-1,72,87,71,-1,71,87,88,-1,71,88,70,-1,70,88,89,-1,70,89,69,-1,69,89,90,-1,69,90,68,-1,68,90,91,-1,68,91,84,-1,84,91,92,-1,84,92,83,-1,83,92,93,-1,83,93,82,-1,82,93,94,-1,82,94,81,-1,81,94,95,-1,81,95,80,-1,80,95,96,-1,80,96,79,-1,79,96,97,-1,79,97,78,-1,78,97,98,-1,78,98,77,-1,77,98,99,-1,77,99,76,-1,76,99,100,-1,76,100,75,-1,74,75,101,-1,101,75,100,-1,73,74,86,-1,86,74,101,-1,102,103,104,-1,104,103,105,-1,103,106,105,-1,105,106,107,-1,106,108,107,-1,107,108,109,-1,108,110,109,-1,109,110,111,-1,110,112,111,-1,111,112,113,-1,112,114,113,-1,113,114,115,-1,114,116,115,-1,115,116,117,-1,116,118,117,-1,117,118,119,-1,118,120,119,-1,119,120,121,-1,120,122,121,-1,121,122,123,-1,122,124,123,-1,123,124,125,-1,124,102,125,-1,125,102,104,-1,106,103,102,-1,102,124,106,-1,106,124,122,-1,106,122,108,-1,112,110,114,-1,114,110,108,-1,114,108,116,-1,116,108,122,-1,116,122,118,-1,118,122,120,-1,126,127,128,-1,128,127,129,-1,130,131,132,-1,130,132,133,-1,133,132,134,-1,133,134,135,-1,135,134,129,-1,135,129,127,-1,136,137,138,-1,136,138,139,-1,139,138,140,-1,139,140,141,-1,141,140,142,-1,141,142,143,-1,143,142,144,-1,143,144,145,-1,145,144,146,-1,145,146,147,-1,147,146,148,-1,147,148,149,-1,149,148,131,-1,149,131,130,-1,150,151,152,-1,152,151,153,-1,153,154,152,-1,152,154,155,-1,152,155,156,-1,156,155,157,-1,156,157,158,-1,158,157,159,-1,158,159,160,-1,160,159,161,-1,160,161,162,-1,162,161,163,-1,162,163,164,-1,164,163,137,-1,164,137,136,-1,151,150,165,-1,165,150,166,-1,165,166,167,-1,167,166,168,-1,167,168,169,-1,168,170,169,-1,169,170,171,-1,172,173,174,-1,172,174,175,-1,175,174,171,-1,175,171,170,-1,176,177,178,-1,176,178,179,-1,179,178,180,-1,179,180,181,-1,181,180,182,-1,181,182,183,-1,183,182,184,-1,183,184,185,-1,185,184,186,-1,185,186,187,-1,187,186,188,-1,187,188,189,-1,189,188,173,-1,189,173,172,-1,190,191,192,-1,190,192,193,-1,193,192,194,-1,193,194,195,-1,195,194,196,-1,195,196,197,-1,197,196,198,-1,197,198,199,-1,199,198,200,-1,199,200,201,-1,201,200,202,-1,201,202,203,-1,203,202,177,-1,203,177,176,-1,126,128,204,-1,126,204,205,-1,205,204,206,-1,205,206,207,-1,207,206,191,-1,207,191,190,-1,193,130,190,-1,190,130,133,-1,190,133,207,-1,207,133,135,-1,207,135,205,-1,205,135,127,-1,205,127,126,-1,170,168,175,-1,175,168,166,-1,175,166,172,-1,172,166,150,-1,172,150,189,-1,189,150,152,-1,189,152,187,-1,187,152,156,-1,187,156,185,-1,185,156,158,-1,185,158,183,-1,183,158,160,-1,183,160,181,-1,181,160,162,-1,181,162,179,-1,179,162,164,-1,179,164,176,-1,176,164,136,-1,176,136,203,-1,203,136,139,-1,203,139,201,-1,201,139,141,-1,201,141,199,-1,199,141,143,-1,199,143,197,-1,197,143,145,-1,197,145,195,-1,195,145,147,-1,195,147,193,-1,193,147,149,-1,193,149,130,-1,208,209,210,-1,210,209,211,-1,209,212,211,-1,211,212,213,-1,212,214,213,-1,213,214,215,-1,214,216,215,-1,215,216,217,-1,216,218,217,-1,217,218,219,-1,218,208,219,-1,219,208,210,-1,216,214,218,-1,218,214,212,-1,218,212,208,-1,208,212,209,-1,
        ]
    }
}
Shape{
    appearance Appearance {
        material  Material 	{
            diffuseColor 0.6666666666666666 0.6666666666666666 0.6666666666666666
            specularColor 0.4666666666666667 0.4666666666666667 0.4666666666666667
            ambientIntensity 0.6667
            transparency 0.0
            shininess 0.5
        }
    }
    geometry IndexedFaceSet {
        ccw TRUE
        solid FALSE
        coord DEF co Coordinate {
            point [
                0.5742 -0.2303 0.0394, 0.7058 -0.2303 0.0394, 0.6329 -0.3947 0.0394, 0.6466 -0.3947 0.0394, 0.6367 -0.4084 0.0394, 0.643 -0.4084 0.0394, 0.6392 -0.4223 0.0394, 0.6405 -0.4223 0.0394, 0.1728 -0.4271 0.0394, 0.1728 -0.1198 0.0394, 0.2309 -0.4271 0.0394, 0.2287 -0.1198 0.0394, 0.2702 -0.1237 0.0394, 0.3841 -0.2773 0.0394, 0.3807 -0.3165 0.0394, 0.3715 -0.3477 0.0394, 0.2774 -0.4222 0.0394, 0.3034 -0.134 0.0394, 0.3302 -0.15 0.0394, 0.3523 -0.1718 0.0394, 0.3689 -0.199 0.0394, 0.3804 -0.236 0.0394, 0.3578 -0.372 0.0394, 0.3387 -0.3923 0.0394, 0.3099 -0.4108 0.0394
            ]
        }
        coordIndex [
            0,1,2,-1,2,1,3,-1,2,3,4,-1,4,3,5,-1,4,5,6,-1,6,5,7,-1,8,9,10,-1,10,9,11,-1,10,11,12,-1,13,14,10,-1,10,14,15,-1,10,15,16,-1,12,17,10,-1,10,17,18,-1,10,18,19,-1,19,20,10,-1,10,20,21,-1,10,21,13,-1,22,23,15,-1,15,23,24,-1,15,24,16,-1,
        ]
    }
}
Shape{
    appearance Appearance {
        material  Material 	{
            diffuseColor 1.0 1.0 1.0
            specularColor 0.30196078431372547 0.30196078431372547 0.30196078431372547
            ambientIntensity 1.0
            transparency 0.0
            shininess 0.5
        }
    }
    geometry IndexedFaceSet {
        ccw TRUE
        solid FALSE
        coord DEF co Coordinate {
            point [
                1.6417 0.9056 0.0394, 1.3248 0.9056 0.0394, 1.3248 0.9056 0.0591, 1.0098 0.9056 0.0591, 0.8523 0.9056 0.0591, -0.4908 0.9056 1.1575, 0.6496 0.9056 0.0394, 0.5315 0.9056 0.0394, 0.6496 0.9056 0.0591, 0.5315 0.9056 0.0591, 0.1378 0.9056 0.0591, 0.059 0.9056 0.0591, -1.1496 0.9056 0.8701, 1.1496 0.9056 0.8701, 1.1496 0.9056 1.1654, 1.6417 0.9056 0.6811, 1.2677 0.9056 1.1654, 1.7598 0.9056 1.0984, 1.7598 0.9056 0.6811, 1.4812 0.9056 1.0984, 0.4527 0.9056 0.0394, 0.3346 0.9056 0.0394, 0.4527 0.9056 0.0591, 0.3346 0.9056 0.0591, 1.1673 0.9056 0.0394, 1.0098 0.9056 0.0394, 1.1673 0.9056 0.0591, 0.8523 0.9056 0.0394, 0.7283 0.9056 0.0394, 0.7283 0.9056 0.0591, 0.2559 0.9056 0.0394, 0.1378 0.9056 0.0394, 0.2559 0.9056 0.0591, 0.509 0.9056 1.1551, 0.5261 0.9056 1.148, 1.0075 0.9056 0.8701, 1.3509 0.9056 1.156, 1.43 0.9056 1.1283, -0.5031 0.9056 1.1564, -1.0075 0.9056 0.8701, -0.5262 0.9056 1.148, -0.515 0.9056 1.1532, 0.4907 0.9056 1.1575, -0.7284 0.9056 0.0591, -0.7284 0.9056 0.0394, -0.8524 0.9056 0.0394, -0.8524 0.9056 0.0591, -1.0099 0.9056 0.0591, -1.3248 0.9056 0.0591, -1.3248 0.9056 0.0394, -1.6418 0.9056 0.0394, -1.0099 0.9056 0.0394, -1.1674 0.9056 0.0394, -1.1674 0.9056 0.0591, -1.6418 0.9056 0.6811, -1.1496 0.9056 1.1654, 0.059 0.9056 0.0394, -0.0591 0.9056 0.0394, -0.0591 0.9056 0.0591, -0.1378 0.9056 0.0591, -0.1378 0.9056 0.0394, -0.2559 0.9056 0.0394, -0.2559 0.9056 0.0591, -0.3347 0.9056 0.0591, -1.7599 0.9056 0.6811, -1.7599 0.9056 1.0984, -1.4813 0.9056 1.0984, -1.43 0.9056 1.1283, -0.3347 0.9056 0.0394, -0.4528 0.9056 0.0394, -0.4528 0.9056 0.0591, -0.5315 0.9056 0.0591, -1.351 0.9056 1.156, -1.2678 0.9056 1.1654, -0.5315 0.9056 0.0394, -0.6496 0.9056 0.0394, -0.6496 0.9056 0.0591, -1.6418 0.3071 0.0394, -1.3248 0.7481 0.0394, -1.0526 0.5335 0.0394, -1.0099 0.7481 0.0394, -1.0428 0.5098 0.0394, -1.0394 0.4843 0.0394, 1.3248 0.7481 0.0394, 1.6417 0.3071 0.0394, -0.6496 0.7481 0.0394, -0.5315 0.7481 0.0394, -0.4528 0.7481 0.0394, 1.1123 0.3892 0.0394, -0.7284 0.7481 0.0394, -0.8524 0.7481 0.0394, 1.2074 0.5539 0.0394, 1.187 0.5695 0.0394, -1.0886 0.3991 0.0394, -1.0682 0.4147 0.0394, -1.0526 0.4351 0.0394, -1.0428 0.4588 0.0394, 1.187 0.3991 0.0394, 1.2074 0.4147 0.0394, 1.223 0.4351 0.0394, 1.2328 0.4588 0.0394, 1.1673 0.7481 0.0394, -0.2559 0.7481 0.0394, -1.187 0.5695 0.0394, -1.1633 0.5794 0.0394, -1.1674 0.7481 0.0394, -1.1378 0.5827 0.0394, -1.1124 0.5794 0.0394, -1.0886 0.5695 0.0394, -1.0682 0.5539 0.0394, -1.2363 0.4843 0.0394, -1.2329 0.4588 0.0394, -1.187 0.3991 0.0394, -1.1633 0.3892 0.0394, -1.1378 0.3859 0.0394, -1.1124 0.3892 0.0394, -0.1378 0.7481 0.0394, -0.0591 0.7481 0.0394, -1.2074 0.5539 0.0394, -1.2231 0.5335 0.0394, -1.2329 0.5098 0.0394, -1.2231 0.4351 0.0394, -1.2074 0.4147 0.0394, 1.1378 0.3859 0.0394, 1.1632 0.3892 0.0394, 1.2362 0.4843 0.0394, 1.2328 0.5098 0.0394, 1.223 0.5335 0.0394, -0.3347 0.7481 0.0394, 0.1378 0.7481 0.0394, 0.2559 0.7481 0.0394, 0.059 0.7481 0.0394, 1.0885 0.3991 0.0394, 0.3346 0.7481 0.0394, 0.4527 0.7481 0.0394, 0.5315 0.7481 0.0394, 1.0682 0.4147 0.0394, 0.7283 0.7481 0.0394, 0.8523 0.7481 0.0394, 0.6496 0.7481 0.0394, 1.0525 0.4351 0.0394, 1.1632 0.5794 0.0394, 1.1378 0.5827 0.0394, 1.0098 0.7481 0.0394, 1.1123 0.5794 0.0394, 1.0885 0.5695 0.0394, 1.0682 0.5539 0.0394, 1.0525 0.5335 0.0394, 1.0427 0.5098 0.0394, 1.0393 0.4843 0.0394, 1.0427 0.4588 0.0394, -1.6418 0.63 0.7913, -1.6418 -0.0472 0.7913, -1.6324 -0.0472 0.8746, -1.6324 0.63 0.8746, -1.6047 -0.0472 0.9536, -1.6047 0.63 0.9536, -1.5602 -0.0472 1.0245, -1.5602 0.63 1.0245, -1.5084 0.6507 1.0777, -1.5248 0.6395 1.063, -1.501 -0.0472 1.0838, -1.5418 0.6324 1.0459, -1.5577 0.63 1.0276, -1.4813 0.7008 1.0984, -1.4822 0.6914 1.0978, -1.43 -0.0472 1.1283, -1.4847 0.6825 1.096, -1.489 0.6734 1.0929, -1.4943 0.6654 1.0889, -1.5009 0.6585 1.0837, -1.351 -0.0472 1.156, -1.2678 -0.0472 1.1654, -1.6418 -0.0472 0.5315, -1.6418 0.3071 0.5315, -1.6418 0.63 0.752, -1.6418 0.6324 0.7336, -1.6418 0.6395 0.7165, -1.6418 0.6507 0.7019, -1.6418 0.6654 0.6906, -1.6418 0.6825 0.6835, -1.6418 0.7008 0.6811, 1.3779 -0.0866 0.7992, 1.3779 -1.3204 0.7992, 1.3779 -0.0866 0.5236, 1.3779 -1.3204 0.5236, -1.2152 -1.6023 0.7992, 1.2152 -1.6023 0.7992, -1.378 -1.3204 0.7992, -1.378 -0.0866 0.7992, -1.378 -0.0866 0.5236, -1.378 -1.3204 0.5236, 1.2152 -1.6023 0.5236, -1.2152 -1.6023 0.5236, 1.1811 -1.6614 0.5827, 1.1811 -1.6614 0.7402, -1.1811 -1.6614 0.5827, -1.1811 -1.6614 0.7402, 1.5692 -0.0866 0.9365, 1.5293 -0.0866 1.0, 1.5293 -0.0866 0.3228, 1.5692 -0.0866 0.3863, 1.5939 -0.0866 0.8658, 1.3421 -0.0866 1.1176, 1.2677 -0.0866 1.126, 1.5939 -0.0866 0.457, 1.6023 -0.0866 0.5315, 1.6023 -0.0866 0.7913, -1.4764 -0.0866 0.2699, -1.413 -0.0866 0.23, -1.3422 -0.0866 0.2052, -1.2678 -0.0866 0.1969, 1.2677 -0.0866 0.1969, 1.3421 -0.0866 0.2052, -1.5693 -0.0866 0.9365, -1.594 -0.0866 0.8658, -1.6024 -0.0866 0.7913, -1.6024 -0.0866 0.5315, -1.594 -0.0866 0.457, -1.2678 -0.0866 1.126, -1.3422 -0.0866 1.1176, -1.413 -0.0866 1.0928, 1.4129 -0.0866 0.23, 1.4763 -0.0866 0.2699, -1.5693 -0.0866 0.3863, -1.5294 -0.0866 0.3228, -1.4764 -0.0866 1.053, -1.5294 -0.0866 1.0, 1.4763 -0.0866 1.053, 1.4129 -0.0866 1.0928, -1.6324 0.3071 0.4483, -1.6324 -0.0472 0.4483, -1.6047 0.3071 0.3692, -1.6047 -0.0472 0.3692, -1.5602 0.3071 0.2983, -1.5602 -0.0472 0.2983, -1.501 0.3071 0.2391, -1.501 -0.0472 0.2391, -1.43 0.3071 0.1945, -1.43 -0.0472 0.1945, -1.351 0.3071 0.1669, -1.351 -0.0472 0.1669, -1.2678 0.3071 0.1575, -1.2678 -0.0472 0.1575, 1.2677 -0.0472 0.1575, 1.2677 0.3071 0.1575, 1.3509 0.3071 0.1669, 1.3509 -0.0472 0.1669, 1.43 0.3071 0.1945, 1.43 -0.0472 0.1945, 1.5009 0.3071 0.2391, 1.5009 -0.0472 0.2391, 1.5601 0.3071 0.2983, 1.5601 -0.0472 0.2983, 1.6047 0.3071 0.3692, 1.6047 -0.0472 0.3692, 1.6323 0.3071 0.4483, 1.6323 -0.0472 0.4483, 1.6417 0.3071 0.5315, 1.6417 -0.0472 0.5315, 1.6417 -0.0472 0.7913, 1.6417 0.63 0.7913, 1.6417 0.63 0.752, 1.6417 0.6324 0.7336, 1.6417 0.6825 0.6835, 1.6417 0.7008 0.6811, 1.6417 0.6654 0.6906, 1.6417 0.6507 0.7019, 1.6417 0.6395 0.7165, 1.4812 0.7008 1.0984, 1.5417 0.6324 1.0459, 1.5248 0.6395 1.063, 1.5009 -0.0472 1.0838, 1.5577 0.63 1.0276, 1.5601 -0.0472 1.0245, 1.5601 0.63 1.0245, 1.6047 -0.0472 0.9536, 1.6047 0.63 0.9536, 1.6323 -0.0472 0.8746, 1.6323 0.63 0.8746, 1.5083 0.6507 1.0777, 1.5008 0.6585 1.0837, 1.43 -0.0472 1.1283, 1.4942 0.6654 1.0889, 1.4889 0.6734 1.0929, 1.4846 0.6825 1.096, 1.4821 0.6914 1.0978, 1.3509 -0.0472 1.156, 1.2677 -0.0472 1.1654, 1.1496 0.6221 1.1654, -1.1496 0.6221 1.1654, 1.1496 0.6221 0.8701, 1.0075 0.6221 0.8701, 0.5261 0.6221 1.148, 0.509 0.6221 1.1551, -0.5031 0.6221 1.1564, -0.4908 0.6221 1.1575, 0.4907 0.6221 1.1575, -1.0075 0.6221 0.8701, -1.1496 0.6221 0.8701, -0.5262 0.6221 1.148, -0.515 0.6221 1.1532, 1.7598 0.7008 0.6811, 1.7598 0.6825 0.6835, 1.7598 0.6654 0.6906, 1.7598 0.6507 0.7019, 1.7598 0.6395 0.7165, 1.7598 0.6324 0.7336, 1.7598 0.63 0.752, 1.7598 0.7008 1.0984, 1.7598 0.63 1.0276, 1.7598 0.6324 1.0459, 1.7598 0.6395 1.063, 1.7598 0.6507 1.0777, 1.7598 0.6654 1.0889, 1.7598 0.6825 1.096, -1.7599 0.7008 1.0984, -1.7599 0.6825 1.096, -1.7599 0.6654 1.0889, -1.7599 0.6507 1.0777, -1.7599 0.6395 1.063, -1.7599 0.6324 1.0459, -1.7599 0.63 1.0276, -1.7599 0.63 0.752, -1.7599 0.6324 0.7336, -1.7599 0.6395 0.7165, -1.7599 0.6507 0.7019, -1.7599 0.6654 0.6906, -1.7599 0.6825 0.6835, -1.7599 0.7008 0.6811
            ]
        }
        coordIndex [
            0,1,2,-1,3,4,5,-1,6,7,8,-1,8,7,9,-1,10,11,12,-1,13,14,15,-1,15,14,16,-1,17,18,19,-1,19,18,15,-1,20,21,22,-1,22,21,23,-1,24,25,26,-1,26,25,3,-1,27,28,4,-1,4,28,29,-1,4,29,5,-1,30,31,32,-1,32,31,10,-1,33,34,26,-1,26,34,35,-1,26,35,2,-1,2,35,13,-1,2,13,0,-1,0,13,15,-1,16,36,15,-1,15,36,37,-1,15,37,19,-1,29,8,5,-1,5,8,9,-1,5,9,38,-1,38,9,22,-1,10,12,32,-1,32,12,39,-1,32,39,23,-1,23,39,40,-1,23,40,22,-1,22,40,41,-1,22,41,38,-1,3,5,26,-1,26,5,42,-1,26,42,33,-1,43,44,45,-1,46,47,12,-1,48,49,50,-1,51,52,53,-1,54,55,12,-1,56,57,11,-1,11,57,58,-1,11,58,12,-1,12,58,59,-1,60,61,59,-1,59,61,62,-1,59,62,12,-1,12,62,63,-1,50,54,48,-1,48,54,12,-1,48,12,53,-1,53,12,47,-1,53,47,51,-1,64,65,54,-1,54,65,66,-1,54,66,67,-1,68,69,63,-1,63,69,70,-1,63,70,12,-1,12,70,71,-1,67,72,54,-1,54,72,73,-1,54,73,55,-1,74,75,71,-1,71,75,76,-1,71,76,12,-1,12,76,43,-1,12,43,46,-1,46,43,45,-1,50,49,77,-1,77,49,78,-1,79,80,81,-1,81,80,82,-1,1,0,83,-1,83,0,84,-1,85,75,74,-1,86,87,88,-1,74,86,85,-1,85,86,88,-1,85,88,89,-1,89,88,90,-1,89,90,44,-1,44,90,45,-1,91,92,83,-1,93,94,84,-1,84,94,95,-1,84,95,96,-1,97,98,84,-1,84,98,99,-1,84,99,100,-1,83,92,101,-1,102,61,60,-1,103,78,104,-1,104,78,105,-1,104,105,106,-1,106,105,52,-1,106,52,107,-1,107,52,51,-1,107,51,108,-1,108,51,80,-1,108,80,109,-1,109,80,79,-1,110,111,77,-1,112,113,77,-1,77,113,114,-1,77,114,84,-1,84,114,115,-1,84,115,93,-1,116,117,88,-1,103,118,78,-1,78,118,119,-1,78,119,77,-1,77,119,120,-1,77,120,110,-1,111,121,77,-1,77,121,122,-1,77,122,112,-1,80,90,82,-1,82,90,88,-1,82,88,96,-1,96,88,123,-1,96,123,84,-1,84,123,124,-1,84,124,97,-1,100,125,84,-1,84,125,126,-1,84,126,83,-1,83,126,127,-1,83,127,91,-1,60,116,102,-1,102,116,88,-1,102,88,128,-1,128,88,87,-1,128,87,68,-1,68,87,69,-1,31,30,129,-1,129,30,130,-1,57,56,117,-1,117,56,131,-1,117,131,88,-1,88,131,129,-1,88,129,132,-1,132,129,130,-1,132,130,133,-1,21,20,133,-1,133,20,134,-1,133,134,132,-1,132,134,135,-1,132,135,136,-1,28,27,137,-1,137,27,138,-1,7,6,135,-1,135,6,139,-1,135,139,136,-1,136,139,137,-1,136,137,140,-1,92,141,101,-1,101,141,142,-1,101,142,24,-1,24,142,143,-1,24,143,25,-1,142,144,143,-1,143,144,145,-1,143,145,138,-1,138,145,146,-1,138,146,137,-1,137,146,147,-1,137,147,148,-1,148,149,137,-1,137,149,150,-1,137,150,140,-1,151,152,153,-1,151,153,154,-1,154,153,155,-1,154,155,156,-1,156,155,157,-1,156,157,158,-1,159,160,161,-1,161,160,162,-1,161,162,157,-1,157,162,163,-1,157,163,158,-1,67,66,164,-1,164,165,166,-1,166,165,167,-1,167,168,166,-1,166,168,169,-1,166,169,161,-1,161,169,170,-1,161,170,159,-1,164,166,67,-1,67,166,171,-1,67,171,72,-1,72,171,172,-1,72,172,73,-1,173,152,174,-1,174,152,151,-1,174,151,175,-1,175,176,174,-1,174,176,177,-1,174,177,77,-1,77,177,178,-1,178,179,77,-1,77,179,180,-1,77,180,50,-1,50,180,181,-1,50,181,54,-1,182,183,184,-1,184,183,185,-1,186,187,188,-1,188,187,183,-1,188,183,189,-1,189,183,182,-1,190,191,189,-1,189,191,188,-1,190,184,185,-1,192,193,185,-1,185,193,191,-1,185,191,190,-1,194,195,196,-1,196,195,197,-1,188,191,186,-1,186,191,193,-1,186,193,197,-1,197,193,196,-1,195,194,187,-1,187,194,192,-1,187,192,183,-1,183,192,185,-1,192,194,193,-1,193,194,196,-1,186,197,187,-1,187,197,195,-1,198,199,182,-1,184,200,201,-1,198,182,202,-1,203,204,182,-1,201,205,184,-1,184,205,206,-1,184,206,182,-1,182,206,207,-1,182,207,202,-1,190,208,209,-1,209,210,190,-1,190,210,211,-1,190,211,184,-1,184,211,212,-1,184,212,213,-1,214,215,189,-1,189,215,216,-1,189,216,190,-1,190,216,217,-1,190,217,218,-1,182,204,189,-1,204,219,189,-1,189,219,220,-1,189,220,221,-1,213,222,184,-1,184,222,223,-1,184,223,200,-1,218,224,190,-1,190,224,225,-1,190,225,208,-1,221,226,189,-1,189,226,227,-1,189,227,214,-1,199,228,182,-1,182,228,229,-1,182,229,203,-1,173,174,230,-1,173,230,231,-1,231,230,232,-1,231,232,233,-1,233,232,234,-1,233,234,235,-1,235,234,236,-1,235,236,237,-1,237,236,238,-1,237,238,239,-1,239,238,240,-1,239,240,241,-1,241,240,242,-1,241,242,243,-1,243,242,244,-1,244,242,245,-1,244,245,246,-1,244,246,247,-1,247,246,248,-1,247,248,249,-1,249,248,250,-1,249,250,251,-1,251,250,252,-1,251,252,253,-1,253,252,254,-1,253,254,255,-1,255,254,256,-1,255,256,257,-1,257,256,258,-1,257,258,259,-1,260,259,261,-1,261,259,258,-1,261,258,262,-1,262,258,263,-1,264,84,265,-1,265,84,0,-1,265,0,15,-1,264,266,84,-1,84,266,267,-1,84,267,258,-1,258,267,268,-1,258,268,263,-1,269,19,37,-1,270,271,272,-1,270,272,273,-1,273,272,274,-1,273,274,275,-1,275,274,276,-1,275,276,277,-1,277,276,278,-1,277,278,279,-1,279,278,260,-1,279,260,261,-1,271,280,272,-1,272,280,281,-1,272,281,282,-1,282,281,283,-1,282,283,284,-1,284,285,282,-1,282,285,286,-1,282,286,269,-1,269,37,282,-1,282,37,36,-1,282,36,287,-1,287,36,16,-1,287,16,288,-1,16,14,289,-1,55,73,290,-1,290,73,172,-1,290,172,289,-1,289,172,288,-1,289,288,16,-1,174,77,230,-1,230,77,232,-1,254,84,256,-1,256,84,258,-1,240,238,77,-1,254,252,84,-1,84,252,250,-1,84,250,248,-1,238,236,77,-1,77,236,234,-1,77,234,232,-1,248,246,84,-1,84,246,245,-1,84,245,77,-1,77,245,242,-1,77,242,240,-1,219,172,171,-1,219,171,220,-1,220,171,166,-1,220,166,221,-1,221,166,161,-1,221,161,226,-1,226,161,157,-1,226,157,227,-1,227,157,155,-1,227,155,214,-1,214,155,153,-1,214,153,215,-1,215,153,152,-1,215,152,216,-1,173,217,152,-1,152,217,216,-1,204,288,219,-1,219,288,172,-1,217,173,231,-1,217,231,218,-1,218,231,233,-1,218,233,224,-1,224,233,235,-1,224,235,225,-1,225,235,237,-1,225,237,208,-1,208,237,239,-1,208,239,209,-1,209,239,241,-1,209,241,210,-1,210,241,243,-1,210,243,211,-1,207,260,278,-1,207,278,202,-1,202,278,276,-1,202,276,198,-1,198,276,274,-1,198,274,199,-1,199,274,272,-1,199,272,228,-1,228,272,282,-1,228,282,229,-1,229,282,287,-1,229,287,203,-1,203,287,288,-1,203,288,204,-1,244,212,243,-1,243,212,211,-1,206,259,207,-1,207,259,260,-1,212,244,247,-1,212,247,213,-1,213,247,249,-1,213,249,222,-1,222,249,251,-1,222,251,223,-1,223,251,253,-1,223,253,200,-1,200,253,255,-1,200,255,201,-1,201,255,257,-1,201,257,205,-1,205,257,259,-1,205,259,206,-1,291,292,289,-1,289,292,293,-1,289,293,294,-1,295,290,296,-1,296,290,289,-1,296,289,297,-1,297,289,294,-1,298,299,300,-1,300,299,290,-1,300,290,301,-1,301,290,295,-1,12,55,299,-1,299,55,290,-1,39,12,298,-1,298,12,299,-1,40,39,300,-1,300,39,298,-1,296,5,38,-1,296,38,295,-1,295,38,41,-1,295,41,301,-1,301,41,40,-1,301,40,300,-1,42,5,297,-1,297,5,296,-1,293,34,33,-1,293,33,294,-1,294,33,42,-1,294,42,297,-1,35,34,292,-1,292,34,293,-1,13,35,291,-1,291,35,292,-1,14,13,289,-1,289,13,291,-1,18,302,15,-1,15,302,265,-1,265,302,303,-1,265,303,264,-1,264,303,304,-1,264,304,266,-1,266,304,305,-1,266,305,267,-1,267,305,306,-1,267,306,268,-1,268,306,307,-1,268,307,263,-1,263,307,308,-1,263,308,262,-1,309,17,269,-1,269,17,19,-1,273,310,311,-1,273,311,270,-1,270,311,312,-1,270,312,271,-1,271,312,313,-1,271,313,280,-1,280,313,281,-1,281,313,314,-1,281,314,283,-1,283,314,284,-1,284,314,315,-1,284,315,285,-1,285,315,286,-1,286,315,309,-1,286,309,269,-1,310,273,275,-1,275,277,310,-1,310,277,279,-1,310,279,308,-1,308,279,261,-1,308,261,262,-1,315,314,313,-1,311,310,309,-1,309,310,302,-1,309,302,17,-1,17,302,18,-1,315,313,309,-1,309,313,312,-1,309,312,311,-1,305,304,306,-1,306,304,307,-1,310,308,302,-1,302,308,307,-1,302,307,303,-1,303,307,304,-1,65,316,66,-1,66,316,164,-1,164,316,165,-1,165,316,317,-1,165,317,167,-1,159,170,318,-1,318,170,169,-1,318,169,317,-1,317,169,168,-1,317,168,167,-1,318,319,159,-1,159,319,320,-1,159,320,160,-1,160,320,321,-1,160,321,162,-1,162,321,322,-1,162,322,163,-1,154,322,151,-1,151,322,323,-1,151,323,175,-1,154,156,322,-1,322,156,158,-1,322,158,163,-1,175,323,324,-1,175,324,176,-1,176,324,325,-1,176,325,177,-1,177,325,326,-1,177,326,178,-1,178,326,327,-1,178,327,179,-1,179,327,328,-1,179,328,180,-1,180,328,329,-1,180,329,181,-1,329,64,181,-1,181,64,54,-1,324,323,329,-1,329,323,316,-1,329,316,64,-1,64,316,65,-1,328,327,326,-1,323,322,316,-1,316,322,321,-1,316,321,320,-1,320,319,316,-1,316,319,318,-1,316,318,317,-1,328,326,329,-1,329,326,325,-1,329,325,324,-1,
        ]
    }
}
Shape{
    appearance Appearance {
        material  Material 	{
            diffuseColor 0.8274509803921568 0.6666666666666666 0.12941176470588237
            specularColor 0.8274509803921568 0.6666666666666666 0.12941176470588237
            ambientIntensity 0.6535
            transparency 0.0
            shininess 0.5
        }
    }
    geometry IndexedFaceSet {
        ccw TRUE
        solid FALSE
        coord DEF co Coordinate {
            point [
                0.1378 1.063 0.0591, 0.059 1.063 0.0591, 0.1378 0.9056 0.0591, 0.059 0.9056 0.0591, 0.059 0.7481 0.0394, 0.059 0.7481 0.0, 0.1378 0.7481 0.0394, 0.1378 0.7481 0.0, 0.1378 1.063 0.0, 0.059 1.063 0.0, 0.1378 0.9056 0.0394, 0.059 0.9056 0.0394, 0.3346 1.063 0.0591, 0.2559 1.063 0.0591, 0.3346 0.9056 0.0591, 0.2559 0.9056 0.0591, 0.2559 0.7481 0.0394, 0.2559 0.7481 0.0, 0.3346 0.7481 0.0394, 0.3346 0.7481 0.0, 0.3346 1.063 0.0, 0.2559 1.063 0.0, 0.3346 0.9056 0.0394, 0.2559 0.9056 0.0394, 0.5315 1.063 0.0591, 0.4527 1.063 0.0591, 0.5315 0.9056 0.0591, 0.4527 0.9056 0.0591, 0.4527 0.7481 0.0394, 0.4527 0.7481 0.0, 0.5315 0.7481 0.0394, 0.5315 0.7481 0.0, 0.5315 1.063 0.0, 0.4527 1.063 0.0, 0.5315 0.9056 0.0394, 0.4527 0.9056 0.0394, 0.7283 1.063 0.0591, 0.6496 1.063 0.0591, 0.7283 0.9056 0.0591, 0.6496 0.9056 0.0591, 0.6496 0.7481 0.0394, 0.6496 0.7481 0.0, 0.7283 0.7481 0.0394, 0.7283 0.7481 0.0, 0.7283 1.063 0.0, 0.6496 1.063 0.0, 0.7283 0.9056 0.0394, 0.6496 0.9056 0.0394, 1.0098 1.063 0.0591, 0.8523 1.063 0.0591, 1.0098 0.9056 0.0591, 0.8523 0.9056 0.0591, 0.8523 0.7481 0.0394, 0.8523 0.7481 0.0, 1.0098 0.7481 0.0394, 1.0098 0.7481 0.0, 1.0098 1.063 0.0, 0.8523 1.063 0.0, 1.0098 0.9056 0.0394, 0.8523 0.9056 0.0394, 1.3248 1.063 0.0591, 1.1673 1.063 0.0591, 1.3248 0.9056 0.0591, 1.1673 0.9056 0.0591, 1.1673 0.7481 0.0394, 1.1673 0.7481 0.0, 1.3248 0.7481 0.0394, 1.3248 0.7481 0.0, 1.3248 1.063 0.0, 1.1673 1.063 0.0, 1.3248 0.9056 0.0394, 1.1673 0.9056 0.0394, -0.0591 0.9056 0.0591, -0.0591 1.063 0.0591, -0.1378 0.9056 0.0591, -0.1378 1.063 0.0591, -0.1378 1.063 0.0, -0.0591 1.063 0.0, -0.1378 0.7481 0.0, -0.0591 0.7481 0.0, -0.1378 0.7481 0.0394, -0.0591 0.7481 0.0394, -0.1378 0.9056 0.0394, -0.0591 0.9056 0.0394, -0.2559 0.9056 0.0591, -0.2559 1.063 0.0591, -0.3347 0.9056 0.0591, -0.3347 1.063 0.0591, -0.3347 1.063 0.0, -0.2559 1.063 0.0, -0.3347 0.7481 0.0, -0.2559 0.7481 0.0, -0.3347 0.7481 0.0394, -0.2559 0.7481 0.0394, -0.3347 0.9056 0.0394, -0.2559 0.9056 0.0394, -0.4528 0.9056 0.0591, -0.4528 1.063 0.0591, -0.5315 0.9056 0.0591, -0.5315 1.063 0.0591, -0.5315 1.063 0.0, -0.4528 1.063 0.0, -0.5315 0.7481 0.0, -0.4528 0.7481 0.0, -0.5315 0.7481 0.0394, -0.4528 0.7481 0.0394, -0.5315 0.9056 0.0394, -0.4528 0.9056 0.0394, -0.6496 0.9056 0.0591, -0.6496 1.063 0.0591, -0.7284 0.9056 0.0591, -0.7284 1.063 0.0591, -0.7284 1.063 0.0, -0.6496 1.063 0.0, -0.7284 0.7481 0.0, -0.6496 0.7481 0.0, -0.7284 0.7481 0.0394, -0.6496 0.7481 0.0394, -0.7284 0.9056 0.0394, -0.6496 0.9056 0.0394, -0.8524 0.9056 0.0591, -0.8524 1.063 0.0591, -1.0099 0.9056 0.0591, -1.0099 1.063 0.0591, -1.0099 1.063 0.0, -0.8524 1.063 0.0, -1.0099 0.7481 0.0, -0.8524 0.7481 0.0, -1.0099 0.7481 0.0394, -0.8524 0.7481 0.0394, -1.0099 0.9056 0.0394, -0.8524 0.9056 0.0394, -1.1674 0.9056 0.0591, -1.1674 1.063 0.0591, -1.3248 0.9056 0.0591, -1.3248 1.063 0.0591, -1.3248 1.063 0.0, -1.1674 1.063 0.0, -1.3248 0.7481 0.0, -1.1674 0.7481 0.0, -1.3248 0.7481 0.0394, -1.1674 0.7481 0.0394, -1.3248 0.9056 0.0394, -1.1674 0.9056 0.0394
            ]
        }
        coordIndex [
            0,1,2,-1,2,1,3,-1,4,5,6,-1,6,5,7,-1,8,7,9,-1,9,7,5,-1,0,8,1,-1,1,8,9,-1,6,7,10,-1,10,7,8,-1,10,8,2,-1,2,8,0,-1,5,4,11,-1,3,1,11,-1,11,1,9,-1,11,9,5,-1,12,13,14,-1,14,13,15,-1,16,17,18,-1,18,17,19,-1,20,19,21,-1,21,19,17,-1,12,20,13,-1,13,20,21,-1,18,19,22,-1,22,19,20,-1,22,20,14,-1,14,20,12,-1,17,16,23,-1,15,13,23,-1,23,13,21,-1,23,21,17,-1,24,25,26,-1,26,25,27,-1,28,29,30,-1,30,29,31,-1,32,31,33,-1,33,31,29,-1,24,32,25,-1,25,32,33,-1,30,31,34,-1,34,31,32,-1,34,32,26,-1,26,32,24,-1,29,28,35,-1,27,25,35,-1,35,25,33,-1,35,33,29,-1,36,37,38,-1,38,37,39,-1,40,41,42,-1,42,41,43,-1,44,43,45,-1,45,43,41,-1,36,44,37,-1,37,44,45,-1,42,43,46,-1,46,43,44,-1,46,44,38,-1,38,44,36,-1,41,40,47,-1,39,37,47,-1,47,37,45,-1,47,45,41,-1,48,49,50,-1,50,49,51,-1,52,53,54,-1,54,53,55,-1,56,55,57,-1,57,55,53,-1,48,56,49,-1,49,56,57,-1,54,55,58,-1,58,55,56,-1,58,56,50,-1,50,56,48,-1,53,52,59,-1,51,49,59,-1,59,49,57,-1,59,57,53,-1,60,61,62,-1,62,61,63,-1,64,65,66,-1,66,65,67,-1,68,67,69,-1,69,67,65,-1,60,68,61,-1,61,68,69,-1,66,67,70,-1,70,67,68,-1,70,68,62,-1,62,68,60,-1,65,64,71,-1,63,61,71,-1,71,61,69,-1,71,69,65,-1,72,73,74,-1,74,73,75,-1,76,75,77,-1,77,75,73,-1,78,76,79,-1,79,76,77,-1,78,79,80,-1,80,79,81,-1,78,80,82,-1,74,75,82,-1,82,75,76,-1,82,76,78,-1,81,79,83,-1,83,79,77,-1,83,77,72,-1,72,77,73,-1,84,85,86,-1,86,85,87,-1,88,87,89,-1,89,87,85,-1,90,88,91,-1,91,88,89,-1,90,91,92,-1,92,91,93,-1,90,92,94,-1,86,87,94,-1,94,87,88,-1,94,88,90,-1,93,91,95,-1,95,91,89,-1,95,89,84,-1,84,89,85,-1,96,97,98,-1,98,97,99,-1,100,99,101,-1,101,99,97,-1,102,100,103,-1,103,100,101,-1,102,103,104,-1,104,103,105,-1,102,104,106,-1,98,99,106,-1,106,99,100,-1,106,100,102,-1,105,103,107,-1,107,103,101,-1,107,101,96,-1,96,101,97,-1,108,109,110,-1,110,109,111,-1,112,111,113,-1,113,111,109,-1,114,112,115,-1,115,112,113,-1,114,115,116,-1,116,115,117,-1,114,116,118,-1,110,111,118,-1,118,111,112,-1,118,112,114,-1,117,115,119,-1,119,115,113,-1,119,113,108,-1,108,113,109,-1,120,121,122,-1,122,121,123,-1,124,123,125,-1,125,123,121,-1,126,124,127,-1,127,124,125,-1,126,127,128,-1,128,127,129,-1,126,128,130,-1,122,123,130,-1,130,123,124,-1,130,124,126,-1,129,127,131,-1,131,127,125,-1,131,125,120,-1,120,125,121,-1,132,133,134,-1,134,133,135,-1,136,135,137,-1,137,135,133,-1,138,136,139,-1,139,136,137,-1,138,139,140,-1,140,139,141,-1,138,140,142,-1,134,135,142,-1,142,135,136,-1,142,136,138,-1,141,139,143,-1,143,139,137,-1,143,137,132,-1,132,137,133,-1,
        ]
    }
}
Shape{
    appearance Appearance {
        material  Material 	{
            diffuseColor 1.0 1.0 1.0
            specularColor 0.30196078431372547 0.30196078431372547 0.30196078431372547
            ambientIntensity 1.0
            transparency 0.0
            shininess 0.5
        }
    }
    geometry IndexedFaceSet {
        ccw TRUE
        solid FALSE
        coord DEF co Coordinate {
            point [
                -1.2363 0.4843 0.0394, -1.2329 0.4588 -0.2165, -1.2329 0.4588 0.0394, -1.2231 0.4351 -0.2165, -1.2231 0.4351 0.0394, -1.2074 0.4147 -0.2165, -1.2074 0.4147 0.0394, -1.187 0.3991 -0.2165, -1.187 0.3991 0.0394, -1.1633 0.3892 -0.2165, -1.1633 0.3892 0.0394, -1.1378 0.3859 -0.2165, -1.1378 0.3859 0.0394, -1.1124 0.3892 -0.2165, -1.1124 0.3892 0.0394, -1.0886 0.3991 -0.2165, -1.0886 0.3991 0.0394, -1.0682 0.4147 -0.2165, -1.0682 0.4147 0.0394, -1.0526 0.4351 -0.2165, -1.0526 0.4351 0.0394, -1.0428 0.4588 -0.2165, -1.0428 0.4588 0.0394, -1.0394 0.4843 -0.2165, -1.0394 0.4843 0.0394, -1.0428 0.5098 -0.2165, -1.0428 0.5098 0.0394, -1.0526 0.5335 -0.2165, -1.0526 0.5335 0.0394, -1.0682 0.5539 -0.2165, -1.0682 0.5539 0.0394, -1.0886 0.5695 -0.2165, -1.0886 0.5695 0.0394, -1.1124 0.5794 -0.2165, -1.1124 0.5794 0.0394, -1.1378 0.5827 -0.2165, -1.1378 0.5827 0.0394, -1.1633 0.5794 -0.2165, -1.1633 0.5794 0.0394, -1.187 0.5695 -0.2165, -1.187 0.5695 0.0394, -1.2074 0.5539 -0.2165, -1.2074 0.5539 0.0394, -1.2231 0.5335 -0.2165, -1.2231 0.5335 0.0394, -1.2329 0.5098 -0.2165, -1.2329 0.5098 0.0394, -1.2363 0.4843 -0.2165, -1.1674 0.5354 -0.2559, -1.1531 0.5413 -0.2559, -1.1378 0.4843 -0.2559, -1.1378 0.5433 -0.2559, -1.1226 0.5413 -0.2559, -1.1949 0.4996 -0.2559, -1.189 0.5138 -0.2559, -1.1796 0.526 -0.2559, -1.189 0.4548 -0.2559, -1.1949 0.469 -0.2559, -1.1969 0.4843 -0.2559, -1.1531 0.4272 -0.2559, -1.1674 0.4331 -0.2559, -1.1796 0.4425 -0.2559, -1.1083 0.4331 -0.2559, -1.1226 0.4272 -0.2559, -1.1378 0.4252 -0.2559, -1.0808 0.469 -0.2559, -1.0867 0.4548 -0.2559, -1.0961 0.4425 -0.2559, -1.0867 0.5138 -0.2559, -1.0808 0.4996 -0.2559, -1.0788 0.4843 -0.2559, -1.1083 0.5354 -0.2559, -1.0961 0.526 -0.2559, 1.2362 0.4843 0.0394, 1.2328 0.5098 -0.2165, 1.2328 0.5098 0.0394, 1.223 0.5335 -0.2165, 1.223 0.5335 0.0394, 1.2074 0.5539 -0.2165, 1.2074 0.5539 0.0394, 1.187 0.5695 -0.2165, 1.187 0.5695 0.0394, 1.1632 0.5794 -0.2165, 1.1632 0.5794 0.0394, 1.1378 0.5827 -0.2165, 1.1378 0.5827 0.0394, 1.1123 0.5794 -0.2165, 1.1123 0.5794 0.0394, 1.0885 0.5695 -0.2165, 1.0885 0.5695 0.0394, 1.0682 0.5539 -0.2165, 1.0682 0.5539 0.0394, 1.0525 0.5335 -0.2165, 1.0525 0.5335 0.0394, 1.0427 0.5098 -0.2165, 1.0427 0.5098 0.0394, 1.0393 0.4843 -0.2165, 1.0393 0.4843 0.0394, 1.0427 0.4588 -0.2165, 1.0427 0.4588 0.0394, 1.0525 0.4351 -0.2165, 1.0525 0.4351 0.0394, 1.0682 0.4147 -0.2165, 1.0682 0.4147 0.0394, 1.0885 0.3991 -0.2165, 1.0885 0.3991 0.0394, 1.1123 0.3892 -0.2165, 1.1123 0.3892 0.0394, 1.1378 0.3859 -0.2165, 1.1378 0.3859 0.0394, 1.1632 0.3892 -0.2165, 1.1632 0.3892 0.0394, 1.187 0.3991 -0.2165, 1.187 0.3991 0.0394, 1.2074 0.4147 -0.2165, 1.2074 0.4147 0.0394, 1.223 0.4351 -0.2165, 1.223 0.4351 0.0394, 1.2328 0.4588 -0.2165, 1.2328 0.4588 0.0394, 1.2362 0.4843 -0.2165, 1.1082 0.5354 -0.2559, 1.1225 0.5413 -0.2559, 1.1378 0.4843 -0.2559, 1.1378 0.5433 -0.2559, 1.153 0.5413 -0.2559, 1.0807 0.4996 -0.2559, 1.0866 0.5138 -0.2559, 1.096 0.526 -0.2559, 1.0866 0.4548 -0.2559, 1.0807 0.469 -0.2559, 1.0787 0.4843 -0.2559, 1.1225 0.4272 -0.2559, 1.1082 0.4331 -0.2559, 1.096 0.4425 -0.2559, 1.1673 0.4331 -0.2559, 1.153 0.4272 -0.2559, 1.1378 0.4252 -0.2559, 1.1948 0.469 -0.2559, 1.1889 0.4548 -0.2559, 1.1795 0.4425 -0.2559, 1.1889 0.5138 -0.2559, 1.1948 0.4996 -0.2559, 1.1968 0.4843 -0.2559, 1.1673 0.5354 -0.2559, 1.1795 0.526 -0.2559
            ]
        }
        coordIndex [
            0,1,2,-1,2,1,3,-1,2,3,4,-1,4,3,5,-1,4,5,6,-1,6,5,7,-1,6,7,8,-1,8,7,9,-1,8,9,10,-1,10,9,11,-1,10,11,12,-1,12,11,13,-1,12,13,14,-1,14,13,15,-1,14,15,16,-1,16,15,17,-1,16,17,18,-1,18,17,19,-1,18,19,20,-1,20,19,21,-1,20,21,22,-1,22,21,23,-1,22,23,24,-1,24,23,25,-1,24,25,26,-1,26,25,27,-1,26,27,28,-1,28,27,29,-1,28,29,30,-1,30,29,31,-1,30,31,32,-1,32,31,33,-1,32,33,34,-1,34,33,35,-1,34,35,36,-1,36,35,37,-1,36,37,38,-1,38,37,39,-1,38,39,40,-1,40,39,41,-1,40,41,42,-1,42,41,43,-1,42,43,44,-1,44,43,45,-1,44,45,46,-1,46,45,47,-1,46,47,0,-1,0,47,1,-1,48,49,50,-1,50,49,51,-1,50,51,52,-1,53,54,50,-1,50,54,55,-1,50,55,48,-1,56,57,50,-1,50,57,58,-1,50,58,53,-1,59,60,50,-1,50,60,61,-1,50,61,56,-1,62,63,50,-1,50,63,64,-1,50,64,59,-1,65,66,50,-1,50,66,67,-1,50,67,62,-1,68,69,50,-1,50,69,70,-1,50,70,65,-1,52,71,50,-1,50,71,72,-1,50,72,68,-1,11,63,13,-1,13,63,62,-1,13,62,15,-1,15,62,67,-1,15,67,17,-1,17,67,66,-1,17,66,19,-1,19,66,65,-1,19,65,21,-1,21,65,70,-1,21,70,23,-1,23,70,69,-1,23,69,25,-1,25,69,68,-1,25,68,27,-1,27,68,72,-1,27,72,29,-1,29,72,71,-1,29,71,31,-1,31,71,52,-1,31,52,33,-1,33,52,51,-1,33,51,35,-1,35,51,49,-1,35,49,37,-1,37,49,48,-1,37,48,39,-1,39,48,55,-1,39,55,41,-1,41,55,54,-1,41,54,43,-1,43,54,53,-1,43,53,45,-1,45,53,58,-1,45,58,47,-1,47,58,57,-1,47,57,1,-1,1,57,56,-1,1,56,3,-1,3,56,61,-1,3,61,5,-1,5,61,60,-1,5,60,7,-1,7,60,59,-1,7,59,9,-1,9,59,64,-1,9,64,11,-1,11,64,63,-1,73,74,75,-1,75,74,76,-1,75,76,77,-1,77,76,78,-1,77,78,79,-1,79,78,80,-1,79,80,81,-1,81,80,82,-1,81,82,83,-1,83,82,84,-1,83,84,85,-1,85,84,86,-1,85,86,87,-1,87,86,88,-1,87,88,89,-1,89,88,90,-1,89,90,91,-1,91,90,92,-1,91,92,93,-1,93,92,94,-1,93,94,95,-1,95,94,96,-1,95,96,97,-1,97,96,98,-1,97,98,99,-1,99,98,100,-1,99,100,101,-1,101,100,102,-1,101,102,103,-1,103,102,104,-1,103,104,105,-1,105,104,106,-1,105,106,107,-1,107,106,108,-1,107,108,109,-1,109,108,110,-1,109,110,111,-1,111,110,112,-1,111,112,113,-1,113,112,114,-1,113,114,115,-1,115,114,116,-1,115,116,117,-1,117,116,118,-1,117,118,119,-1,119,118,120,-1,119,120,73,-1,73,120,74,-1,121,122,123,-1,123,122,124,-1,123,124,125,-1,126,127,123,-1,123,127,128,-1,123,128,121,-1,129,130,123,-1,123,130,131,-1,123,131,126,-1,132,133,123,-1,123,133,134,-1,123,134,129,-1,135,136,123,-1,123,136,137,-1,123,137,132,-1,138,139,123,-1,123,139,140,-1,123,140,135,-1,141,142,123,-1,123,142,143,-1,123,143,138,-1,125,144,123,-1,123,144,145,-1,123,145,141,-1,108,136,110,-1,110,136,135,-1,110,135,112,-1,112,135,140,-1,112,140,114,-1,114,140,139,-1,114,139,116,-1,116,139,138,-1,116,138,118,-1,118,138,143,-1,118,143,120,-1,120,143,142,-1,120,142,74,-1,74,142,141,-1,74,141,76,-1,76,141,145,-1,76,145,78,-1,78,145,144,-1,78,144,80,-1,80,144,125,-1,80,125,82,-1,82,125,124,-1,82,124,84,-1,84,124,122,-1,84,122,86,-1,86,122,121,-1,86,121,88,-1,88,121,128,-1,88,128,90,-1,90,128,127,-1,90,127,92,-1,92,127,126,-1,92,126,94,-1,94,126,131,-1,94,131,96,-1,96,131,130,-1,96,130,98,-1,98,130,129,-1,98,129,100,-1,100,129,134,-1,100,134,102,-1,102,134,133,-1,102,133,104,-1,104,133,132,-1,104,132,106,-1,106,132,137,-1,106,137,108,-1,108,137,136,-1,
        ]
    }
}