#VRML V2.0 utf8
# 3D model generated by easyeda2kicad.py (https://github.com/uPesy/easyeda2kicad.py)

Shape{
    appearance Appearance {
        material  Material 	{
            diffuseColor 0.2235294117647059 0.2235294117647059 0.2235294117647059
            specularColor 0.11372549019607843 0.11372549019607843 0.11372549019607843
            ambientIntensity 0.2235
            transparency 0.0
            shininess 0.5
        }
    }
    geometry IndexedFaceSet {
        ccw TRUE
        solid FALSE
        coord DEF co Coordinate {
            point [
                0.1601 -0.3438 0.0039, 0.1428 -0.3438 0.0039, 0.1385 -0.3431 0.0039, 0.561 0.5413 0.0039, 0.7874 0.5413 0.0039, 0.7874 0.4847 0.0039, 0.1969 -0.5728 0.0039, 0.1969 -0.689 0.0039, 0.1385 -0.689 0.0039, -0.0984 -0.5728 0.0039, -0.0984 -0.689 0.0039, -0.1633 -0.689 0.0039, -0.0588 -0.2805 0.0039, 0.0276 -0.2805 0.0039, 0.0276 -0.3431 0.0039, -0.213 -0.4619 0.0039, -0.213 -0.3568 0.0039, -0.1703 -0.3568 0.0039, -0.2288 -0.4619 0.0039, -0.1703 -0.4626 0.0039, -0.1633 -0.4626 0.0039, -0.1683 -0.3568 0.0039, -0.1633 -0.3431 0.0039, -0.1683 -0.3438 0.0039, -0.1703 -0.3431 0.0039, -0.1703 -0.3438 0.0039, -0.7874 -0.4626 0.0039, -0.7874 -0.4431 0.0039, -0.6811 -0.4431 0.0039, -0.6442 -0.4253 0.0039, -0.6385 -0.4163 0.0039, -0.2288 -0.3438 0.0039, -0.6516 -0.4328 0.0039, -0.6811 -0.3447 0.0039, -0.7874 -0.3447 0.0039, -0.7874 -0.3431 0.0039, -0.6706 -0.3458 0.0039, -0.6706 -0.4419 0.0039, -0.6606 -0.4384 0.0039, -0.635 -0.4064 0.0039, -0.6339 -0.3958 0.0039, -0.6339 -0.3919 0.0039, -0.635 -0.3814 0.0039, -0.6385 -0.3714 0.0039, -0.6442 -0.3625 0.0039, -0.6516 -0.355 0.0039, -0.6606 -0.3493 0.0039, 0.1762 -0.2805 0.0039, 0.2866 -0.2805 0.0039, 0.2866 -0.3431 0.0039, 0.3238 -0.2805 0.0039, 0.6319 -0.2462 0.0039, 0.7874 -0.2462 0.0039, 0.7874 -0.3431 0.0039, 0.635 0.3814 0.0039, 0.6385 0.3714 0.0039, 0.3238 0.2805 0.0039, 0.2866 0.2805 0.0039, 0.6606 0.4384 0.0039, 0.6516 0.4328 0.0039, 0.6442 0.4253 0.0039, 0.6385 0.4163 0.0039, 0.635 0.4064 0.0039, 0.5858 -0.2095 0.0039, 0.5893 -0.2195 0.0039, 0.7874 0.4431 0.0039, 0.6811 0.4431 0.0039, 0.6706 0.4419 0.0039, 0.2866 0.4847 0.0039, 0.6339 0.3958 0.0039, 0.6339 0.3919 0.0039, 0.595 0.2284 0.0039, 0.5893 0.2195 0.0039, 0.5858 0.2095 0.0039, 0.595 -0.2284 0.0039, 0.6024 -0.2359 0.0039, 0.6114 -0.2416 0.0039, 0.6214 -0.2451 0.0039, 0.5893 0.0225 0.0039, 0.5893 0.1746 0.0039, 0.595 0.1656 0.0039, 0.5858 0.1845 0.0039, 0.7874 0.3447 0.0039, 0.7874 0.2462 0.0039, 0.6811 0.3447 0.0039, 0.6319 0.2462 0.0039, 0.6114 0.2416 0.0039, 0.6024 0.2359 0.0039, 0.5846 0.199 0.0039, 0.5846 0.1951 0.0039, 0.6214 0.048 0.0039, 0.6114 0.0445 0.0039, 0.6114 0.1525 0.0039, 0.6024 0.0389 0.0039, 0.5858 0.0125 0.0039, 0.5846 0.002 0.0039, 0.6319 0.1478 0.0039, 0.7874 0.1478 0.0039, 0.7874 0.0492 0.0039, 0.6024 0.1581 0.0039, 0.595 0.0314 0.0039, 0.5846 -0.002 0.0039, 0.5858 -0.0125 0.0039, 0.5893 -0.0225 0.0039, 0.6024 -0.0389 0.0039, 0.6114 -0.0445 0.0039, 0.6214 -0.149 0.0039, 0.6114 -0.1525 0.0039, 0.6024 -0.1581 0.0039, 0.595 -0.1656 0.0039, 0.5893 -0.1746 0.0039, 0.5858 -0.1845 0.0039, 0.6442 0.3625 0.0039, 0.6516 0.355 0.0039, 0.6214 0.2451 0.0039, 0.6606 0.3493 0.0039, 0.6706 0.3458 0.0039, 0.6214 0.149 0.0039, 0.6319 0.0492 0.0039, 0.595 -0.0314 0.0039, 0.5846 -0.1951 0.0039, 0.5846 -0.199 0.0039, 0.6319 -0.0492 0.0039, 0.7874 -0.0492 0.0039, 0.7874 -0.1478 0.0039, 0.6214 -0.048 0.0039, 0.6319 -0.1478 0.0039, 0.1385 0.4847 0.0039, 0.1762 0.2805 0.0039, 0.0758 -0.2805 0.0039, 0.0758 0.2805 0.0039, 0.0276 0.2805 0.0039, 0.0276 0.4847 0.0039, -0.1633 0.4847 0.0039, -0.0588 0.4847 0.0039, -0.0588 0.2805 0.0039, -0.0719 0.2805 0.0039, -0.0719 -0.2805 0.0039, -0.1029 -0.3424 0.0039, -0.1098 -0.3431 0.0039, 0.0504 0.5623 0.0039, 0.0539 0.5523 0.0039, 0.0595 0.5434 0.0039, 0.067 0.5359 0.0039, 0.1004 0.5256 0.0039, 0.1109 0.5268 0.0039, 0.1209 0.5303 0.0039, 0.1298 0.5359 0.0039, 0.0492 0.5728 0.0039, 0.0276 0.689 0.0039, 0.0492 0.689 0.0039, 0.076 0.5303 0.0039, 0.0859 0.5268 0.0039, 0.0965 0.5256 0.0039, -0.0588 0.5445 0.0039, -0.0539 0.5523 0.0039, -0.0492 0.689 0.0039, -0.0492 0.5728 0.0039, -0.0504 0.5623 0.0039, -0.0859 0.5268 0.0039, -0.076 0.5303 0.0039, -0.1476 0.5728 0.0039, -0.1465 0.5623 0.0039, -0.0965 0.5256 0.0039, -0.143 0.5523 0.0039, -0.1373 0.5434 0.0039, -0.1298 0.5359 0.0039, -0.067 0.5359 0.0039, -0.0595 0.5434 0.0039, -0.1209 0.5303 0.0039, -0.1109 0.5268 0.0039, -0.1004 0.5256 0.0039, -0.3642 0.5531 0.0039, -0.3642 0.689 0.0039, -0.1703 0.689 0.0039, -0.4009 0.5071 0.0039, -0.3909 0.5106 0.0039, -0.1703 0.4847 0.0039, -0.382 0.5162 0.0039, -0.3745 0.5237 0.0039, -0.3689 0.5327 0.0039, -0.3654 0.5426 0.0039, -0.561 0.689 0.0039, -0.4626 0.689 0.0039, -0.561 0.603 0.0039, -0.4626 0.5531 0.0039, -0.6212 0.5413 0.0039, -0.4614 0.5426 0.0039, -0.4579 0.5327 0.0039, -0.4523 0.5237 0.0039, -0.4448 0.5162 0.0039, -0.7874 0.4847 0.0039, -0.7874 0.5413 0.0039, -0.4359 0.5106 0.0039, -0.4259 0.5071 0.0039, -0.4154 0.5059 0.0039, -0.4114 0.5059 0.0039, -0.3199 -0.2805 0.0039, -0.1722 -0.2805 0.0039, -0.1722 0.2805 0.0039, -0.3199 0.2805 0.0039, -0.6442 0.4253 0.0039, -0.6516 0.4328 0.0039, -0.6606 0.4384 0.0039, -0.6706 0.4419 0.0039, -0.6811 0.4431 0.0039, -0.7874 0.4431 0.0039, -0.7874 -0.2462 0.0039, -0.6319 -0.2462 0.0039, -0.6214 -0.2451 0.0039, -0.6114 -0.2416 0.0039, -0.6024 -0.2359 0.0039, -0.595 -0.2284 0.0039, -0.5893 -0.2195 0.0039, -0.5858 -0.2095 0.0039, -0.5858 -0.1845 0.0039, -0.5893 -0.1746 0.0039, -0.6024 -0.0389 0.0039, -0.595 -0.0314 0.0039, -0.595 -0.1656 0.0039, -0.5893 -0.0225 0.0039, -0.5858 0.2095 0.0039, -0.5893 0.2195 0.0039, -0.6024 0.0389 0.0039, -0.6024 0.1581 0.0039, -0.595 0.0314 0.0039, -0.595 0.1656 0.0039, -0.5893 0.1746 0.0039, -0.5858 0.1845 0.0039, -0.595 0.2284 0.0039, -0.6024 0.2359 0.0039, -0.6114 0.2416 0.0039, -0.6442 0.3625 0.0039, -0.6385 0.3714 0.0039, -0.635 0.3814 0.0039, -0.6339 0.3919 0.0039, -0.5846 -0.199 0.0039, -0.5846 -0.1951 0.0039, -0.6024 -0.1581 0.0039, -0.6114 -0.1525 0.0039, -0.6114 -0.0445 0.0039, -0.6214 -0.048 0.0039, -0.5858 -0.0125 0.0039, -0.5846 -0.002 0.0039, -0.5846 0.1951 0.0039, -0.5846 0.199 0.0039, -0.6339 0.3958 0.0039, -0.635 0.4064 0.0039, -0.6385 0.4163 0.0039, -0.6319 0.2462 0.0039, -0.7874 0.2462 0.0039, -0.7874 0.3447 0.0039, -0.5846 0.002 0.0039, -0.5858 0.0125 0.0039, -0.5893 0.0225 0.0039, -0.6811 0.3447 0.0039, -0.6706 0.3458 0.0039, -0.6214 0.2451 0.0039, -0.6606 0.3493 0.0039, -0.6516 0.355 0.0039, -0.6319 -0.1478 0.0039, -0.7874 -0.1478 0.0039, -0.7874 -0.0492 0.0039, -0.6114 0.0445 0.0039, -0.6214 0.149 0.0039, -0.6114 0.1525 0.0039, -0.6214 -0.149 0.0039, -0.6319 -0.0492 0.0039, -0.6319 0.0492 0.0039, -0.7874 0.0492 0.0039, -0.7874 0.1478 0.0039, -0.6214 0.048 0.0039, -0.6319 0.1478 0.0039, -0.5906 -0.5438 0.0039, -0.7874 -0.5438 0.0039, -0.3953 -0.5606 0.0039, -0.2814 -0.5394 0.0039, -0.2889 -0.5492 0.0039, -0.2205 -0.5319 0.0039, -0.2319 -0.5272 0.0039, -0.4783 -0.5394 0.0039, -0.4858 -0.5492 0.0039, -0.1969 -0.5728 0.0039, -0.1985 -0.5606 0.0039, -0.2953 -0.5728 0.0039, -0.2953 -0.689 0.0039, -0.3937 -0.689 0.0039, -0.2032 -0.5492 0.0039, -0.2107 -0.5394 0.0039, -0.4921 -0.689 0.0039, -0.5906 -0.689 0.0039, -0.4921 -0.5728 0.0039, -0.4905 -0.5606 0.0039, -0.2937 -0.5606 0.0039, -0.3937 -0.5728 0.0039, -0.4075 -0.5394 0.0039, -0.4173 -0.5319 0.0039, -0.4287 -0.5272 0.0039, -0.4409 -0.5256 0.0039, -0.4449 -0.5256 0.0039, -0.4571 -0.5272 0.0039, -0.4685 -0.5319 0.0039, -0.2441 -0.5256 0.0039, -0.248 -0.5256 0.0039, -0.2603 -0.5272 0.0039, -0.4 -0.5492 0.0039, -0.2717 -0.5319 0.0039, -0.0748 -0.5319 0.0039, -0.0846 -0.5394 0.0039, -0.0921 -0.5492 0.0039, -0.0968 -0.5606 0.0039, 0.0 -0.5728 0.0039, -0.0016 -0.5606 0.0039, 0.0276 -0.4626 0.0039, -0.0063 -0.5492 0.0039, -0.0138 -0.5394 0.0039, -0.0236 -0.5319 0.0039, -0.035 -0.5272 0.0039, -0.0588 -0.4626 0.0039, -0.0472 -0.5256 0.0039, 0.2866 -0.5462 0.0039, 0.2814 -0.5394 0.0039, 0.2866 -0.4626 0.0039, 0.2717 -0.5319 0.0039, 0.2319 -0.5272 0.0039, 0.2205 -0.5319 0.0039, 0.1385 -0.4626 0.0039, 0.2441 -0.5256 0.0039, 0.2107 -0.5394 0.0039, 0.2032 -0.5492 0.0039, 0.1985 -0.5606 0.0039, 0.2603 -0.5272 0.0039, 0.248 -0.5256 0.0039, 0.7874 -0.4626 0.0039, 0.7874 -0.5438 0.0039, 0.5906 -0.5438 0.0039, 0.5906 -0.689 0.0039, 0.4921 -0.689 0.0039, 0.4921 -0.5728 0.0039, 0.4905 -0.5606 0.0039, 0.4858 -0.5492 0.0039, 0.4783 -0.5394 0.0039, 0.4685 -0.5319 0.0039, 0.4287 -0.5272 0.0039, 0.4173 -0.5319 0.0039, 0.4571 -0.5272 0.0039, 0.4449 -0.5256 0.0039, 0.4409 -0.5256 0.0039, 0.3937 -0.689 0.0039, 0.2953 -0.689 0.0039, 0.3937 -0.5728 0.0039, 0.2953 -0.5728 0.0039, 0.3953 -0.5606 0.0039, 0.2937 -0.5606 0.0039, 0.2889 -0.5492 0.0039, 0.4 -0.5492 0.0039, 0.4075 -0.5394 0.0039, 0.7874 -0.3447 0.0039, 0.6811 -0.3447 0.0039, 0.6706 -0.3458 0.0039, 0.6606 -0.3493 0.0039, 0.6811 -0.4431 0.0039, 0.7874 -0.4431 0.0039, 0.635 -0.4064 0.0039, 0.6385 -0.4163 0.0039, 0.6442 -0.4253 0.0039, 0.6516 -0.4328 0.0039, 0.6516 -0.355 0.0039, 0.6442 -0.3625 0.0039, 0.6385 -0.3714 0.0039, 0.6606 -0.4384 0.0039, 0.6706 -0.4419 0.0039, 0.635 -0.3814 0.0039, 0.6339 -0.3919 0.0039, 0.6339 -0.3958 0.0039, 0.4009 0.5071 0.0039, 0.3909 0.5106 0.0039, 0.382 0.5162 0.0039, 0.4448 0.5162 0.0039, 0.4523 0.5237 0.0039, 0.4579 0.5327 0.0039, 0.3654 0.5426 0.0039, 0.3689 0.5327 0.0039, 0.3745 0.5237 0.0039, 0.4626 0.689 0.0039, 0.561 0.689 0.0039, 0.4626 0.5531 0.0039, 0.4614 0.5426 0.0039, 0.2866 0.689 0.0039, 0.3642 0.689 0.0039, 0.3642 0.5531 0.0039, 0.4114 0.5059 0.0039, 0.4154 0.5059 0.0039, 0.4259 0.5071 0.0039, 0.4359 0.5106 0.0039, 0.1373 0.5434 0.0039, 0.1385 0.5452 0.0039, 0.143 0.5523 0.0039, 0.1476 0.689 0.0039, 0.1476 0.5728 0.0039, 0.1465 0.5623 0.0039, -0.098 -0.4504 0.0039, -0.1096 -0.4491 0.0039, -0.0725 -0.3617 0.0039, -0.0704 -0.3629 0.0039, -0.0704 -0.3499 0.0039, -0.0588 -0.3431 0.0039, -0.0829 -0.3448 0.0039, -0.0949 -0.3431 0.0039, -0.0877 -0.4626 0.0039, -0.084 -0.4624 0.0039, -0.0704 -0.4587 0.0039, -0.0704 -0.4428 0.0039, -0.0837 -0.4485 0.0039, -0.1185 -0.4459 0.0039, -0.1267 -0.4404 0.0039, -0.1338 -0.4325 0.0039, -0.1424 -0.4016 0.0039, -0.1412 -0.3888 0.0039, -0.138 -0.3786 0.0039, -0.1117 -0.3566 0.0039, -0.1007 -0.3553 0.0039, -0.1203 -0.3597 0.0039, -0.1275 -0.3646 0.0039, -0.1331 -0.3705 0.0039, -0.085 -0.3571 0.0039, -0.1387 -0.4234 0.0039, -0.1418 -0.4108 0.0039, -0.1289 -0.3478 0.0039, -0.1384 -0.3539 0.0039, -0.1472 -0.3632 0.0039, -0.1535 -0.3744 0.0039, -0.1174 -0.3439 0.0039, -0.152 -0.4308 0.0039, -0.1451 -0.4418 0.0039, -0.1344 -0.4521 0.0039, -0.1232 -0.4586 0.0039, -0.0512 -0.5256 0.0039, -0.0588 -0.5266 0.0039, -0.0634 -0.5272 0.0039, -0.0982 -0.4633 0.0039, -0.107 -0.4626 0.0039, -0.11 -0.4624 0.0039, -0.1571 -0.3869 0.0039, -0.1582 -0.4006 0.0039, -0.1565 -0.4174 0.0039, -0.1476 0.689 0.0039, -0.1633 0.689 0.0039, -0.0473 -0.3438 0.0039, 0.0132 -0.4489 0.0039, -0.0315 -0.4489 0.0039, -0.0315 -0.4101 0.0039, -0.0473 -0.4619 0.0039, 0.0132 -0.4619 0.0039, 0.0103 -0.4101 0.0039, -0.0315 -0.3971 0.0039, -0.0315 -0.3568 0.0039, 0.0103 -0.3971 0.0039, 0.0161 -0.3568 0.0039, 0.0161 -0.3438 0.0039, -0.0996 -0.3424 0.0039, 0.0724 -0.4619 0.0039, 0.0895 -0.4601 0.0039, 0.1033 -0.4552 0.0039, 0.1162 -0.4466 0.0039, 0.1283 -0.3762 0.0039, 0.1215 -0.3656 0.0039, 0.1118 -0.3563 0.0039, 0.0995 -0.3491 0.0039, 0.1163 -0.4465 0.0039, 0.1247 -0.4372 0.0039, 0.1301 -0.4271 0.0039, 0.0858 -0.3451 0.0039, 0.0712 -0.3438 0.0039, 0.0391 -0.3438 0.0039, 0.0391 -0.4619 0.0039, 0.1333 -0.4155 0.0039, 0.1342 -0.4043 0.0039, 0.1325 -0.3885 0.0039, 0.1875 -0.4619 0.0039, 0.2033 -0.4619 0.0039, 0.2494 -0.3438 0.0039, 0.2321 -0.3438 0.0039, 0.2202 -0.3769 0.0039, 0.1714 -0.3769 0.0039, -0.1703 -0.689 0.0039, -0.1969 -0.689 0.0039, 0.0276 -0.689 0.0039, 0.0 -0.689 0.0039, 0.7185 0.6299 0.0039, 0.7185 0.689 0.0039, 0.7874 0.6299 0.0039, 0.7874 0.689 0.0039, 0.7283 -0.6324 0.0039, 0.7874 -0.6324 0.0039, 0.7283 -0.689 0.0039, 0.7874 -0.689 0.0039, -0.7185 0.6299 0.0039, -0.7874 0.6299 0.0039, -0.7185 0.689 0.0039, -0.7874 0.689 0.0039, -0.7874 0.4431 0.0433, -0.7874 0.3447 0.0433, -0.7874 0.2462 0.0433, -0.7874 0.6299 0.0433, -0.7874 -0.0492 0.0433, -0.7874 -0.2462 0.0433, -0.7874 -0.3447 0.0433, -0.7874 -0.4431 0.0433, -0.7874 -0.689 0.3583, -0.7874 0.689 0.3583, -0.7874 -0.1478 0.0433, -0.7874 -0.5438 0.0433, -0.7874 0.1478 0.0433, -0.7874 0.5413 0.0433, -0.7874 0.0492 0.0433, -0.7874 -0.6324 0.0039, -0.7874 -0.689 0.0039, -0.7874 -0.6324 0.0433, 0.1969 -0.689 0.0433, 0.2953 -0.689 0.0433, 0.7874 -0.689 0.3583, -0.7283 -0.689 0.0039, -0.7283 -0.689 0.0433, -0.5906 -0.689 0.0433, 0.4921 -0.689 0.0433, 0.3937 -0.689 0.0433, -0.3937 -0.689 0.0433, 0.7283 -0.689 0.0433, 0.5906 -0.689 0.0433, -0.2953 -0.689 0.0433, -0.1969 -0.689 0.0433, -0.4921 -0.689 0.0433, -0.0984 -0.689 0.0433, 0.0 -0.689 0.0433, 0.7874 -0.2462 0.0433, 0.7874 0.6299 0.0433, 0.7874 0.689 0.3583, 0.7874 0.5413 0.0433, 0.7874 -0.6324 0.0433, 0.7874 -0.1478 0.0433, 0.7874 -0.0492 0.0433, 0.7874 0.0492 0.0433, 0.7874 -0.4431 0.0433, 0.7874 -0.5438 0.0433, 0.7874 -0.3447 0.0433, 0.7874 0.1478 0.0433, 0.7874 0.2462 0.0433, 0.7874 0.4431 0.0433, 0.7874 0.3447 0.0433, -0.0492 0.689 0.0433, 0.1476 0.689 0.0433, 0.3642 0.689 0.0433, -0.3642 0.689 0.0433, -0.4626 0.689 0.0433, 0.561 0.689 0.0433, 0.7185 0.689 0.0433, 0.4626 0.689 0.0433, 0.0492 0.689 0.0433, -0.1476 0.689 0.0433, -0.7185 0.689 0.0433, -0.561 0.689 0.0433, -0.6191 0.6209 0.3583, -0.6098 0.6087 0.3583, -0.6039 0.5945 0.3583, -0.6019 0.5793 0.3583, -0.6039 0.5641 0.3583, -0.6098 0.55 0.3583, -0.6607 0.5206 0.3583, -0.6759 0.5226 0.3583, -0.69 0.5285 0.3583, -0.7022 0.5378 0.3583, -0.69 0.6302 0.3583, -0.6759 0.6361 0.3583, -0.6607 0.6381 0.3583, -0.6455 0.6361 0.3583, -0.6313 0.6302 0.3583, -0.6191 0.5378 0.3583, -0.6313 0.5285 0.3583, -0.6455 0.5226 0.3583, -0.7174 0.5945 0.3583, -0.7115 0.6087 0.3583, -0.7022 0.6209 0.3583, -0.7115 0.55 0.3583, -0.7174 0.5641 0.3583, -0.7194 0.5793 0.3583, -0.7283 -0.6324 0.0039
            ]
        }
        coordIndex [
            0,1,2,-1,3,4,5,-1,6,7,8,-1,9,10,11,-1,12,13,14,-1,15,16,17,-1,18,15,19,-1,19,15,17,-1,19,17,20,-1,20,17,21,-1,20,21,22,-1,22,21,23,-1,22,23,24,-1,24,23,25,-1,26,27,28,-1,29,30,31,-1,29,31,32,-1,33,34,35,-1,25,31,24,-1,24,31,36,-1,24,36,33,-1,26,28,18,-1,18,28,37,-1,18,37,31,-1,31,37,38,-1,31,38,32,-1,30,39,31,-1,31,39,40,-1,31,40,41,-1,41,42,31,-1,31,42,43,-1,31,43,44,-1,44,45,31,-1,31,45,46,-1,31,46,36,-1,47,48,49,-1,49,48,50,-1,51,52,53,-1,54,55,56,-1,57,58,56,-1,56,58,59,-1,59,60,56,-1,56,60,61,-1,56,61,62,-1,63,64,50,-1,65,66,5,-1,5,66,67,-1,5,67,68,-1,62,69,56,-1,56,69,70,-1,56,70,54,-1,71,72,56,-1,56,72,73,-1,64,74,50,-1,50,74,75,-1,50,75,76,-1,51,53,77,-1,78,79,80,-1,79,50,81,-1,81,50,56,-1,82,83,84,-1,84,83,85,-1,55,86,56,-1,56,86,87,-1,56,87,71,-1,73,88,56,-1,56,88,89,-1,56,89,81,-1,90,91,92,-1,92,91,93,-1,79,78,50,-1,50,78,94,-1,50,94,95,-1,96,97,98,-1,80,99,78,-1,78,99,92,-1,78,92,100,-1,100,92,93,-1,95,101,50,-1,50,101,102,-1,50,102,103,-1,104,105,106,-1,107,108,103,-1,103,108,109,-1,103,109,50,-1,50,109,110,-1,50,110,111,-1,55,112,86,-1,86,112,113,-1,86,113,114,-1,114,113,115,-1,114,115,85,-1,85,115,116,-1,85,116,84,-1,92,117,90,-1,90,117,96,-1,90,96,118,-1,118,96,98,-1,107,103,106,-1,106,103,119,-1,106,119,104,-1,111,120,50,-1,50,120,121,-1,50,121,63,-1,122,123,124,-1,105,125,106,-1,106,125,122,-1,106,122,126,-1,126,122,124,-1,67,58,68,-1,68,58,57,-1,68,57,127,-1,127,57,128,-1,14,13,2,-1,2,13,129,-1,2,129,130,-1,131,132,130,-1,130,132,127,-1,130,127,2,-1,2,127,128,-1,133,134,135,-1,136,137,22,-1,137,138,139,-1,135,134,131,-1,140,141,132,-1,132,141,142,-1,132,142,143,-1,144,145,127,-1,127,145,146,-1,127,146,147,-1,140,132,148,-1,148,132,149,-1,148,149,150,-1,143,151,132,-1,132,151,152,-1,132,152,127,-1,127,152,153,-1,127,153,144,-1,131,134,132,-1,132,134,154,-1,132,154,155,-1,156,149,157,-1,157,149,132,-1,157,132,158,-1,158,132,155,-1,159,160,134,-1,161,162,133,-1,159,134,163,-1,162,164,133,-1,133,164,165,-1,133,165,166,-1,160,167,134,-1,134,167,168,-1,134,168,154,-1,166,169,133,-1,133,169,170,-1,133,170,134,-1,134,170,171,-1,134,171,163,-1,172,173,174,-1,175,176,177,-1,177,176,178,-1,178,179,177,-1,177,179,180,-1,177,180,181,-1,182,183,184,-1,184,183,185,-1,184,185,186,-1,186,185,187,-1,187,188,186,-1,186,188,189,-1,186,189,190,-1,191,192,186,-1,190,193,186,-1,186,193,194,-1,186,194,191,-1,191,194,195,-1,191,195,177,-1,177,195,196,-1,177,196,175,-1,33,35,24,-1,24,35,197,-1,24,197,198,-1,177,199,200,-1,201,202,200,-1,200,202,203,-1,200,203,177,-1,177,203,204,-1,177,204,191,-1,191,204,205,-1,191,205,206,-1,207,208,35,-1,35,208,209,-1,35,209,197,-1,197,209,210,-1,197,210,211,-1,211,212,197,-1,197,212,213,-1,197,213,214,-1,197,215,216,-1,217,218,219,-1,219,218,220,-1,219,220,216,-1,200,221,222,-1,223,224,225,-1,225,224,226,-1,225,226,227,-1,197,227,200,-1,200,227,228,-1,222,229,200,-1,200,229,230,-1,200,230,231,-1,232,233,231,-1,231,233,234,-1,231,234,235,-1,214,236,197,-1,197,236,237,-1,197,237,215,-1,219,238,217,-1,217,238,239,-1,217,239,240,-1,240,239,241,-1,216,220,197,-1,197,220,242,-1,197,242,243,-1,228,244,200,-1,200,244,245,-1,200,245,221,-1,235,246,231,-1,231,246,247,-1,231,247,200,-1,200,247,248,-1,200,248,201,-1,249,250,251,-1,243,252,197,-1,197,252,253,-1,197,253,227,-1,227,253,254,-1,227,254,225,-1,251,255,249,-1,249,255,256,-1,249,256,257,-1,257,256,258,-1,257,258,231,-1,231,258,259,-1,231,259,232,-1,260,261,262,-1,263,264,223,-1,223,264,265,-1,223,265,224,-1,239,266,241,-1,241,266,260,-1,241,260,267,-1,267,260,262,-1,268,269,270,-1,263,271,264,-1,264,271,268,-1,264,268,272,-1,272,268,270,-1,18,19,26,-1,26,19,273,-1,26,273,274,-1,275,276,277,-1,278,279,19,-1,280,281,273,-1,282,283,19,-1,284,285,286,-1,283,287,19,-1,19,287,288,-1,19,288,278,-1,289,290,291,-1,291,290,273,-1,291,273,292,-1,292,273,281,-1,277,293,275,-1,275,293,284,-1,275,284,294,-1,294,284,286,-1,295,296,19,-1,19,296,297,-1,19,297,298,-1,298,299,19,-1,19,299,300,-1,19,300,273,-1,273,300,301,-1,273,301,280,-1,279,302,19,-1,19,302,303,-1,19,303,304,-1,295,19,305,-1,305,19,304,-1,305,304,275,-1,275,304,306,-1,275,306,276,-1,307,308,20,-1,20,308,309,-1,20,309,310,-1,311,312,313,-1,313,312,314,-1,313,314,315,-1,315,316,313,-1,313,316,317,-1,313,317,318,-1,318,317,319,-1,320,321,322,-1,322,321,323,-1,324,325,326,-1,324,326,327,-1,325,328,326,-1,326,328,329,-1,326,329,330,-1,323,331,322,-1,322,331,332,-1,322,332,327,-1,333,334,335,-1,336,337,335,-1,335,337,338,-1,335,338,339,-1,339,340,335,-1,335,340,341,-1,335,341,342,-1,322,343,344,-1,345,346,322,-1,322,346,347,-1,322,347,343,-1,348,349,350,-1,350,349,351,-1,350,351,352,-1,352,351,353,-1,353,354,352,-1,352,354,320,-1,352,320,355,-1,355,320,322,-1,355,322,356,-1,356,322,344,-1,53,357,358,-1,49,359,360,-1,342,345,335,-1,335,345,322,-1,335,322,333,-1,333,322,361,-1,333,361,362,-1,76,77,50,-1,50,77,53,-1,50,53,49,-1,49,53,358,-1,49,358,359,-1,363,364,322,-1,322,364,365,-1,322,365,366,-1,360,367,49,-1,49,367,368,-1,49,368,369,-1,366,370,322,-1,322,370,371,-1,322,371,361,-1,369,372,49,-1,49,372,373,-1,49,373,322,-1,322,373,374,-1,322,374,363,-1,375,68,376,-1,376,68,377,-1,378,379,3,-1,3,379,380,-1,381,382,68,-1,68,382,383,-1,68,383,377,-1,384,385,386,-1,386,385,3,-1,386,3,387,-1,387,3,380,-1,388,389,68,-1,68,389,390,-1,68,390,381,-1,375,391,68,-1,68,391,392,-1,68,392,5,-1,5,392,393,-1,5,393,3,-1,3,393,394,-1,3,394,378,-1,147,395,127,-1,127,395,396,-1,127,396,68,-1,68,396,397,-1,398,388,399,-1,399,388,68,-1,399,68,400,-1,400,68,397,-1,401,402,403,-1,404,405,406,-1,406,405,407,-1,406,407,408,-1,409,410,318,-1,318,410,411,-1,318,411,412,-1,401,403,413,-1,413,403,404,-1,413,404,412,-1,402,414,403,-1,403,414,415,-1,403,415,416,-1,417,418,403,-1,403,418,419,-1,420,421,422,-1,422,421,423,-1,419,424,403,-1,403,424,423,-1,403,423,425,-1,425,423,421,-1,416,426,403,-1,403,426,427,-1,403,427,417,-1,428,429,22,-1,22,429,430,-1,22,430,431,-1,137,139,22,-1,22,139,432,-1,22,432,428,-1,433,434,20,-1,20,434,435,-1,20,435,436,-1,319,437,318,-1,318,437,438,-1,318,438,409,-1,409,438,439,-1,409,439,440,-1,440,439,307,-1,440,307,441,-1,441,307,20,-1,441,20,442,-1,442,20,436,-1,431,443,22,-1,22,443,444,-1,22,444,20,-1,20,444,445,-1,20,445,433,-1,446,161,447,-1,447,161,133,-1,447,133,174,-1,174,133,177,-1,174,177,172,-1,172,177,181,-1,135,136,133,-1,133,136,22,-1,133,22,177,-1,177,22,24,-1,177,24,199,-1,199,24,198,-1,412,404,318,-1,318,404,406,-1,318,406,448,-1,449,450,451,-1,448,452,318,-1,318,452,453,-1,318,453,313,-1,313,453,449,-1,313,449,454,-1,454,449,451,-1,455,456,457,-1,457,456,458,-1,459,14,458,-1,458,14,313,-1,458,313,457,-1,457,313,454,-1,459,448,14,-1,14,448,406,-1,14,406,12,-1,12,406,408,-1,12,408,137,-1,137,408,460,-1,137,460,138,-1,461,326,313,-1,461,462,326,-1,326,462,463,-1,326,463,464,-1,465,466,2,-1,2,466,467,-1,2,467,468,-1,464,469,326,-1,326,469,470,-1,326,470,471,-1,468,472,2,-1,2,472,473,-1,2,473,14,-1,14,473,474,-1,14,474,313,-1,313,474,475,-1,313,475,461,-1,471,476,326,-1,326,476,477,-1,326,477,2,-1,2,477,478,-1,2,478,465,-1,2,1,326,-1,326,1,479,-1,326,479,480,-1,327,326,322,-1,322,326,480,-1,322,480,49,-1,49,480,481,-1,49,481,482,-1,483,484,482,-1,482,484,0,-1,482,0,49,-1,49,0,2,-1,49,2,47,-1,47,2,128,-1,310,9,20,-1,20,9,11,-1,20,11,19,-1,19,11,485,-1,19,485,282,-1,282,485,486,-1,330,6,326,-1,326,6,8,-1,326,8,313,-1,313,8,487,-1,313,487,311,-1,311,487,488,-1,489,490,491,-1,491,490,492,-1,493,494,495,-1,495,494,496,-1,497,498,499,-1,499,498,500,-1,191,206,501,-1,251,250,502,-1,502,250,503,-1,500,498,504,-1,505,262,261,-1,506,207,35,-1,507,508,509,-1,510,511,509,-1,509,511,506,-1,509,506,507,-1,507,506,35,-1,507,35,34,-1,26,274,512,-1,501,502,510,-1,510,502,503,-1,510,503,513,-1,500,504,510,-1,510,504,514,-1,510,514,501,-1,501,514,192,-1,501,192,191,-1,270,269,513,-1,513,269,515,-1,513,515,510,-1,510,515,505,-1,510,505,511,-1,511,505,261,-1,516,517,518,-1,518,517,509,-1,518,509,512,-1,512,509,508,-1,512,508,26,-1,26,508,27,-1,519,520,521,-1,517,522,523,-1,517,523,509,-1,509,523,524,-1,509,524,521,-1,525,521,526,-1,526,521,520,-1,526,520,348,-1,348,520,349,-1,527,286,285,-1,495,496,528,-1,528,496,521,-1,528,521,529,-1,529,521,525,-1,529,525,336,-1,336,525,337,-1,530,531,521,-1,285,530,527,-1,527,530,521,-1,527,521,532,-1,532,521,524,-1,532,524,289,-1,289,524,290,-1,11,10,533,-1,531,486,485,-1,8,7,519,-1,534,488,487,-1,485,11,531,-1,531,11,533,-1,531,533,521,-1,521,533,534,-1,521,534,519,-1,519,534,487,-1,519,487,8,-1,53,52,535,-1,491,492,536,-1,536,492,537,-1,536,537,538,-1,496,494,539,-1,540,124,123,-1,541,542,537,-1,362,543,333,-1,333,543,544,-1,333,544,334,-1,496,539,521,-1,521,539,544,-1,521,544,537,-1,537,544,543,-1,537,543,545,-1,123,541,540,-1,540,541,537,-1,540,537,535,-1,535,537,545,-1,535,545,53,-1,53,545,357,-1,98,97,542,-1,542,97,546,-1,542,546,537,-1,537,546,547,-1,548,65,5,-1,83,82,547,-1,547,82,549,-1,547,549,537,-1,537,549,548,-1,537,548,538,-1,538,548,5,-1,538,5,4,-1,149,156,550,-1,398,551,388,-1,388,551,552,-1,388,552,389,-1,553,554,510,-1,555,537,556,-1,556,537,492,-1,556,492,490,-1,385,384,555,-1,555,384,557,-1,555,557,537,-1,537,557,552,-1,537,552,510,-1,510,552,551,-1,510,551,558,-1,446,447,559,-1,559,447,174,-1,150,149,558,-1,558,149,550,-1,558,550,510,-1,510,550,559,-1,510,559,553,-1,553,559,174,-1,553,174,173,-1,499,500,560,-1,560,500,510,-1,560,510,561,-1,561,510,554,-1,561,554,182,-1,182,554,183,-1,562,563,537,-1,537,563,564,-1,564,565,537,-1,537,565,566,-1,537,566,521,-1,521,566,567,-1,568,569,509,-1,509,569,570,-1,509,570,571,-1,510,572,573,-1,573,574,510,-1,510,574,575,-1,510,575,537,-1,537,575,576,-1,537,576,562,-1,567,577,521,-1,521,577,578,-1,521,578,509,-1,509,578,579,-1,509,579,568,-1,580,581,510,-1,510,581,582,-1,510,582,572,-1,571,583,509,-1,509,583,584,-1,509,584,510,-1,510,584,585,-1,510,585,580,-1,586,522,516,-1,516,522,517,-1,
        ]
    }
}
Shape{
    appearance Appearance {
        material  Material 	{
            diffuseColor 0.8509803921568627 0.8509803921568627 0.8509803921568627
            specularColor 0.4235294117647059 0.4235294117647059 0.4235294117647059
            ambientIntensity 0.851
            transparency 0.0
            shininess 0.5
        }
    }
    geometry IndexedFaceSet {
        ccw TRUE
        solid FALSE
        coord DEF co Coordinate {
            point [
                -0.7194 0.5793 0.3543, -0.7194 0.5793 0.3583, -0.7174 0.5641 0.3543, -0.7174 0.5641 0.3583, -0.7115 0.55 0.3543, -0.7115 0.55 0.3583, -0.7022 0.5378 0.3543, -0.7022 0.5378 0.3583, -0.69 0.5285 0.3543, -0.69 0.5285 0.3583, -0.6759 0.5226 0.3543, -0.6759 0.5226 0.3583, -0.6607 0.5206 0.3543, -0.6607 0.5206 0.3583, -0.6455 0.5226 0.3543, -0.6455 0.5226 0.3583, -0.6313 0.5285 0.3543, -0.6313 0.5285 0.3583, -0.6191 0.5378 0.3543, -0.6191 0.5378 0.3583, -0.6098 0.55 0.3543, -0.6098 0.55 0.3583, -0.6039 0.5641 0.3543, -0.6039 0.5641 0.3583, -0.6019 0.5793 0.3543, -0.6019 0.5793 0.3583, -0.6039 0.5945 0.3543, -0.6039 0.5945 0.3583, -0.6098 0.6087 0.3543, -0.6098 0.6087 0.3583, -0.6191 0.6209 0.3543, -0.6191 0.6209 0.3583, -0.6313 0.6302 0.3543, -0.6313 0.6302 0.3583, -0.6455 0.6361 0.3543, -0.6455 0.6361 0.3583, -0.6607 0.6381 0.3543, -0.6607 0.6381 0.3583, -0.6759 0.6361 0.3543, -0.6759 0.6361 0.3583, -0.69 0.6302 0.3543, -0.69 0.6302 0.3583, -0.7022 0.6209 0.3543, -0.7022 0.6209 0.3583, -0.7115 0.6087 0.3543, -0.7115 0.6087 0.3583, -0.7174 0.5945 0.3543, -0.7174 0.5945 0.3583, -0.6607 0.5793 0.3543
            ]
        }
        coordIndex [
            0,1,2,-1,2,1,3,-1,2,3,4,-1,4,3,5,-1,4,5,6,-1,6,5,7,-1,6,7,8,-1,8,7,9,-1,8,9,10,-1,10,9,11,-1,10,11,12,-1,12,11,13,-1,12,13,14,-1,14,13,15,-1,14,15,16,-1,16,15,17,-1,16,17,18,-1,18,17,19,-1,18,19,20,-1,20,19,21,-1,20,21,22,-1,22,21,23,-1,22,23,24,-1,24,23,25,-1,24,25,26,-1,26,25,27,-1,26,27,28,-1,28,27,29,-1,28,29,30,-1,30,29,31,-1,30,31,32,-1,32,31,33,-1,32,33,34,-1,34,33,35,-1,34,35,36,-1,36,35,37,-1,36,37,38,-1,38,37,39,-1,38,39,40,-1,40,39,41,-1,40,41,42,-1,42,41,43,-1,42,43,44,-1,44,43,45,-1,44,45,46,-1,46,45,47,-1,46,47,0,-1,0,47,1,-1,44,46,48,-1,48,46,0,-1,48,0,2,-1,38,40,48,-1,48,40,42,-1,48,42,44,-1,32,34,48,-1,48,34,36,-1,48,36,38,-1,26,28,48,-1,48,28,30,-1,48,30,32,-1,20,22,48,-1,48,22,24,-1,48,24,26,-1,14,16,48,-1,48,16,18,-1,48,18,20,-1,8,10,48,-1,48,10,12,-1,48,12,14,-1,2,4,48,-1,48,4,6,-1,48,6,8,-1,
        ]
    }
}
Shape{
    appearance Appearance {
        material  Material 	{
            diffuseColor 0.6666666666666666 0.6980392156862745 0.7686274509803922
            specularColor 0.3333333333333333 0.34901960784313724 0.3843137254901961
            ambientIntensity 0.6967
            transparency 0.0
            shininess 0.5
        }
    }
    geometry IndexedFaceSet {
        ccw TRUE
        solid FALSE
        coord DEF co Coordinate {
            point [
                -0.7874 -0.5438 0.0433, -0.7913 -0.5438 0.0433, -0.7874 -0.6324 0.0433, -0.7913 -0.6324 0.0433, -0.7283 -0.689 0.0433, -0.7283 -0.6929 0.0433, -0.5906 -0.689 0.0433, -0.5906 -0.6929 0.0433, -0.5906 -0.689 0.0039, -0.5906 -0.6929 0.0, -0.5906 -0.5438 0.0039, -0.5906 -0.5438 0.0, -0.7874 -0.5438 0.0039, -0.7913 -0.5438 0.0, -0.7874 -0.6324 0.0039, -0.7913 -0.6324 0.0, -0.7283 -0.6324 0.0039, -0.7283 -0.6324 0.0, -0.7283 -0.689 0.0039, -0.7283 -0.6929 0.0, -0.6212 0.5413 0.0, -0.561 0.603 0.0, -0.6212 0.5413 0.0039, -0.561 0.603 0.0039, -0.7874 0.5413 0.0433, -0.7913 0.5413 0.0433, -0.7874 0.5413 0.0039, -0.7913 0.5413 0.0, -0.7185 0.6299 0.0039, -0.7185 0.6299 0.0, -0.7874 0.6299 0.0039, -0.7913 0.6299 0.0, -0.7874 0.6299 0.0433, -0.7913 0.6299 0.0433, -0.561 0.689 0.0039, -0.561 0.6929 0.0, -0.561 0.689 0.0433, -0.561 0.6929 0.0433, -0.7185 0.689 0.0433, -0.7185 0.6929 0.0433, -0.7185 0.689 0.0039, -0.7185 0.6929 0.0, 0.5906 -0.5438 0.0039, 0.5906 -0.5438 0.0, 0.5906 -0.689 0.0039, 0.5906 -0.6929 0.0, 0.5906 -0.689 0.0433, 0.5906 -0.6929 0.0433, 0.7283 -0.689 0.0433, 0.7283 -0.6929 0.0433, 0.7283 -0.689 0.0039, 0.7283 -0.6929 0.0, 0.7283 -0.6324 0.0039, 0.7283 -0.6324 0.0, 0.7874 -0.5438 0.0433, 0.7913 -0.5438 0.0433, 0.7874 -0.5438 0.0039, 0.7913 -0.5438 0.0, 0.7874 -0.6324 0.0039, 0.7913 -0.6324 0.0, 0.7874 -0.6324 0.0433, 0.7913 -0.6324 0.0433, 0.7874 0.6299 0.0433, 0.7913 0.6299 0.0433, 0.7874 0.6299 0.0039, 0.7913 0.6299 0.0, 0.7185 0.6299 0.0039, 0.7185 0.6299 0.0, 0.561 0.5413 0.0039, 0.561 0.5413 0.0, 0.7874 0.5413 0.0039, 0.7913 0.5413 0.0, 0.7874 0.5413 0.0433, 0.7913 0.5413 0.0433, 0.7185 0.689 0.0039, 0.7185 0.6929 0.0, 0.7185 0.689 0.0433, 0.7185 0.6929 0.0433, 0.561 0.689 0.0433, 0.561 0.6929 0.0433, 0.561 0.689 0.0039, 0.561 0.6929 0.0, -0.6811 -0.4431 0.0039, -0.6811 -0.4431 0.0, -0.6706 -0.4419 0.0, -0.6706 -0.4419 0.0039, -0.6606 -0.4384 0.0, -0.6606 -0.4384 0.0039, -0.6516 -0.4328 0.0, -0.6516 -0.4328 0.0039, -0.6442 -0.4253 0.0, -0.6442 -0.4253 0.0039, -0.6385 -0.4163 0.0, -0.6385 -0.4163 0.0039, -0.635 -0.4064 0.0, -0.635 -0.4064 0.0039, -0.6339 -0.3958 0.0, -0.6339 -0.3958 0.0039, -0.6339 -0.3919 0.0, -0.6339 -0.3919 0.0039, -0.635 -0.3814 0.0, -0.635 -0.3814 0.0039, -0.6385 -0.3714 0.0, -0.6385 -0.3714 0.0039, -0.6442 -0.3625 0.0, -0.6442 -0.3625 0.0039, -0.6516 -0.355 0.0, -0.6516 -0.355 0.0039, -0.6606 -0.3493 0.0, -0.6606 -0.3493 0.0039, -0.6706 -0.3458 0.0, -0.6706 -0.3458 0.0039, -0.6811 -0.3447 0.0, -0.6811 -0.3447 0.0039, -0.7874 -0.4431 0.0433, -0.7913 -0.4431 0.0433, -0.7874 -0.4431 0.0039, -0.7913 -0.4431 0.0, -0.7874 -0.3447 0.0039, -0.7913 -0.3447 0.0, -0.7874 -0.3447 0.0433, -0.7913 -0.3447 0.0433, -0.6319 -0.2462 0.0039, -0.6319 -0.2462 0.0, -0.6214 -0.2451 0.0, -0.6214 -0.2451 0.0039, -0.6114 -0.2416 0.0, -0.6114 -0.2416 0.0039, -0.6024 -0.2359 0.0, -0.6024 -0.2359 0.0039, -0.595 -0.2284 0.0, -0.595 -0.2284 0.0039, -0.5893 -0.2195 0.0, -0.5893 -0.2195 0.0039, -0.5858 -0.2095 0.0, -0.5858 -0.2095 0.0039, -0.5846 -0.199 0.0, -0.5846 -0.199 0.0039, -0.5846 -0.1951 0.0, -0.5846 -0.1951 0.0039, -0.5858 -0.1845 0.0, -0.5858 -0.1845 0.0039, -0.5893 -0.1746 0.0, -0.5893 -0.1746 0.0039, -0.595 -0.1656 0.0, -0.595 -0.1656 0.0039, -0.6024 -0.1581 0.0, -0.6024 -0.1581 0.0039, -0.6114 -0.1525 0.0, -0.6114 -0.1525 0.0039, -0.6214 -0.149 0.0, -0.6214 -0.149 0.0039, -0.6319 -0.1478 0.0, -0.6319 -0.1478 0.0039, -0.7874 -0.2462 0.0433, -0.7913 -0.2462 0.0433, -0.7874 -0.2462 0.0039, -0.7913 -0.2462 0.0, -0.7874 -0.1478 0.0039, -0.7913 -0.1478 0.0, -0.7874 -0.1478 0.0433, -0.7913 -0.1478 0.0433, -0.6319 -0.0492 0.0039, -0.6319 -0.0492 0.0, -0.6214 -0.048 0.0, -0.6214 -0.048 0.0039, -0.6114 -0.0445 0.0, -0.6114 -0.0445 0.0039, -0.6024 -0.0389 0.0, -0.6024 -0.0389 0.0039, -0.595 -0.0314 0.0, -0.595 -0.0314 0.0039, -0.5893 -0.0225 0.0, -0.5893 -0.0225 0.0039, -0.5858 -0.0125 0.0, -0.5858 -0.0125 0.0039, -0.5846 -0.002 0.0, -0.5846 -0.002 0.0039, -0.5846 0.002 0.0, -0.5846 0.002 0.0039, -0.5858 0.0125 0.0, -0.5858 0.0125 0.0039, -0.5893 0.0225 0.0, -0.5893 0.0225 0.0039, -0.595 0.0314 0.0, -0.595 0.0314 0.0039, -0.6024 0.0389 0.0, -0.6024 0.0389 0.0039, -0.6114 0.0445 0.0, -0.6114 0.0445 0.0039, -0.6214 0.048 0.0, -0.6214 0.048 0.0039, -0.6319 0.0492 0.0, -0.6319 0.0492 0.0039, -0.7874 0.0492 0.0039, -0.7913 0.0492 0.0, -0.7874 0.0492 0.0433, -0.7913 0.0492 0.0433, -0.7874 -0.0492 0.0433, -0.7913 -0.0492 0.0433, -0.7874 -0.0492 0.0039, -0.7913 -0.0492 0.0, -0.6319 0.1478 0.0039, -0.6319 0.1478 0.0, -0.6214 0.149 0.0, -0.6214 0.149 0.0039, -0.6114 0.1525 0.0, -0.6114 0.1525 0.0039, -0.6024 0.1581 0.0, -0.6024 0.1581 0.0039, -0.595 0.1656 0.0, -0.595 0.1656 0.0039, -0.5893 0.1746 0.0, -0.5893 0.1746 0.0039, -0.5858 0.1845 0.0, -0.5858 0.1845 0.0039, -0.5846 0.1951 0.0, -0.5846 0.1951 0.0039, -0.5846 0.199 0.0, -0.5846 0.199 0.0039, -0.5858 0.2095 0.0, -0.5858 0.2095 0.0039, -0.5893 0.2195 0.0, -0.5893 0.2195 0.0039, -0.595 0.2284 0.0, -0.595 0.2284 0.0039, -0.6024 0.2359 0.0, -0.6024 0.2359 0.0039, -0.6114 0.2416 0.0, -0.6114 0.2416 0.0039, -0.6214 0.2451 0.0, -0.6214 0.2451 0.0039, -0.6319 0.2462 0.0, -0.6319 0.2462 0.0039, -0.7874 0.2462 0.0039, -0.7913 0.2462 0.0, -0.7874 0.2462 0.0433, -0.7913 0.2462 0.0433, -0.7874 0.1478 0.0433, -0.7913 0.1478 0.0433, -0.7874 0.1478 0.0039, -0.7913 0.1478 0.0, -0.6811 0.3447 0.0039, -0.6811 0.3447 0.0, -0.6706 0.3458 0.0, -0.6706 0.3458 0.0039, -0.6606 0.3493 0.0, -0.6606 0.3493 0.0039, -0.6516 0.355 0.0, -0.6516 0.355 0.0039, -0.6442 0.3625 0.0, -0.6442 0.3625 0.0039, -0.6385 0.3714 0.0, -0.6385 0.3714 0.0039, -0.635 0.3814 0.0, -0.635 0.3814 0.0039, -0.6339 0.3919 0.0, -0.6339 0.3919 0.0039, -0.6339 0.3958 0.0, -0.6339 0.3958 0.0039, -0.635 0.4064 0.0, -0.635 0.4064 0.0039, -0.6385 0.4163 0.0, -0.6385 0.4163 0.0039, -0.6442 0.4253 0.0, -0.6442 0.4253 0.0039, -0.6516 0.4328 0.0, -0.6516 0.4328 0.0039, -0.6606 0.4384 0.0, -0.6606 0.4384 0.0039, -0.6706 0.4419 0.0, -0.6706 0.4419 0.0039, -0.6811 0.4431 0.0, -0.6811 0.4431 0.0039, -0.7874 0.3447 0.0433, -0.7913 0.3447 0.0433, -0.7874 0.3447 0.0039, -0.7913 0.3447 0.0, -0.7874 0.4431 0.0039, -0.7913 0.4431 0.0, -0.7874 0.4431 0.0433, -0.7913 0.4431 0.0433, 0.6811 0.4431 0.0039, 0.6811 0.4431 0.0, 0.6706 0.4419 0.0, 0.6706 0.4419 0.0039, 0.6606 0.4384 0.0, 0.6606 0.4384 0.0039, 0.6516 0.4328 0.0, 0.6516 0.4328 0.0039, 0.6442 0.4253 0.0, 0.6442 0.4253 0.0039, 0.6385 0.4163 0.0, 0.6385 0.4163 0.0039, 0.635 0.4064 0.0, 0.635 0.4064 0.0039, 0.6339 0.3958 0.0, 0.6339 0.3958 0.0039, 0.6339 0.3919 0.0, 0.6339 0.3919 0.0039, 0.635 0.3814 0.0, 0.635 0.3814 0.0039, 0.6385 0.3714 0.0, 0.6385 0.3714 0.0039, 0.6442 0.3625 0.0, 0.6442 0.3625 0.0039, 0.6516 0.355 0.0, 0.6516 0.355 0.0039, 0.6606 0.3493 0.0, 0.6606 0.3493 0.0039, 0.6706 0.3458 0.0, 0.6706 0.3458 0.0039, 0.6811 0.3447 0.0, 0.6811 0.3447 0.0039, 0.7874 0.3447 0.0039, 0.7913 0.3447 0.0, 0.7874 0.3447 0.0433, 0.7913 0.3447 0.0433, 0.7874 0.4431 0.0433, 0.7913 0.4431 0.0433, 0.7874 0.4431 0.0039, 0.7913 0.4431 0.0, 0.5846 0.1951 0.0039, 0.5846 0.1951 0.0, 0.5858 0.1845 0.0, 0.5858 0.1845 0.0039, 0.5893 0.1746 0.0, 0.5893 0.1746 0.0039, 0.595 0.1656 0.0, 0.595 0.1656 0.0039, 0.6024 0.1581 0.0, 0.6024 0.1581 0.0039, 0.6114 0.1525 0.0, 0.6114 0.1525 0.0039, 0.6214 0.149 0.0, 0.6214 0.149 0.0039, 0.6319 0.1478 0.0, 0.6319 0.1478 0.0039, 0.6319 0.2462 0.0039, 0.6319 0.2462 0.0, 0.6214 0.2451 0.0, 0.6214 0.2451 0.0039, 0.6114 0.2416 0.0, 0.6114 0.2416 0.0039, 0.6024 0.2359 0.0, 0.6024 0.2359 0.0039, 0.595 0.2284 0.0, 0.595 0.2284 0.0039, 0.5893 0.2195 0.0, 0.5893 0.2195 0.0039, 0.5858 0.2095 0.0, 0.5858 0.2095 0.0039, 0.5846 0.199 0.0, 0.5846 0.199 0.0039, 0.7874 0.1478 0.0039, 0.7913 0.1478 0.0, 0.7874 0.1478 0.0433, 0.7913 0.1478 0.0433, 0.7874 0.2462 0.0433, 0.7913 0.2462 0.0433, 0.7874 0.2462 0.0039, 0.7913 0.2462 0.0, 0.5846 -0.002 0.0039, 0.5846 -0.002 0.0, 0.5858 -0.0125 0.0, 0.5858 -0.0125 0.0039, 0.5893 -0.0225 0.0, 0.5893 -0.0225 0.0039, 0.595 -0.0314 0.0, 0.595 -0.0314 0.0039, 0.6024 -0.0389 0.0, 0.6024 -0.0389 0.0039, 0.6114 -0.0445 0.0, 0.6114 -0.0445 0.0039, 0.6214 -0.048 0.0, 0.6214 -0.048 0.0039, 0.6319 -0.0492 0.0, 0.6319 -0.0492 0.0039, 0.6319 0.0492 0.0039, 0.6319 0.0492 0.0, 0.6214 0.048 0.0, 0.6214 0.048 0.0039, 0.6114 0.0445 0.0, 0.6114 0.0445 0.0039, 0.6024 0.0389 0.0, 0.6024 0.0389 0.0039, 0.595 0.0314 0.0, 0.595 0.0314 0.0039, 0.5893 0.0225 0.0, 0.5893 0.0225 0.0039, 0.5858 0.0125 0.0, 0.5858 0.0125 0.0039, 0.5846 0.002 0.0, 0.5846 0.002 0.0039, 0.7874 -0.0492 0.0039, 0.7913 -0.0492 0.0, 0.7874 -0.0492 0.0433, 0.7913 -0.0492 0.0433, 0.7874 0.0492 0.0433, 0.7913 0.0492 0.0433, 0.7874 0.0492 0.0039, 0.7913 0.0492 0.0, 0.6319 -0.1478 0.0039, 0.6319 -0.1478 0.0, 0.6214 -0.149 0.0, 0.6214 -0.149 0.0039, 0.6114 -0.1525 0.0, 0.6114 -0.1525 0.0039, 0.6024 -0.1581 0.0, 0.6024 -0.1581 0.0039, 0.595 -0.1656 0.0, 0.595 -0.1656 0.0039, 0.5893 -0.1746 0.0, 0.5893 -0.1746 0.0039, 0.5858 -0.1845 0.0, 0.5858 -0.1845 0.0039, 0.5846 -0.1951 0.0, 0.5846 -0.1951 0.0039, 0.5846 -0.199 0.0, 0.5846 -0.199 0.0039, 0.5858 -0.2095 0.0, 0.5858 -0.2095 0.0039, 0.5893 -0.2195 0.0, 0.5893 -0.2195 0.0039, 0.595 -0.2284 0.0, 0.595 -0.2284 0.0039, 0.6024 -0.2359 0.0, 0.6024 -0.2359 0.0039, 0.6114 -0.2416 0.0, 0.6114 -0.2416 0.0039, 0.6214 -0.2451 0.0, 0.6214 -0.2451 0.0039, 0.6319 -0.2462 0.0, 0.6319 -0.2462 0.0039, 0.7874 -0.2462 0.0039, 0.7913 -0.2462 0.0, 0.7874 -0.2462 0.0433, 0.7913 -0.2462 0.0433, 0.7874 -0.1478 0.0433, 0.7913 -0.1478 0.0433, 0.7874 -0.1478 0.0039, 0.7913 -0.1478 0.0, 0.6811 -0.3447 0.0039, 0.6811 -0.3447 0.0, 0.6706 -0.3458 0.0, 0.6706 -0.3458 0.0039, 0.6606 -0.3493 0.0, 0.6606 -0.3493 0.0039, 0.6516 -0.355 0.0, 0.6516 -0.355 0.0039, 0.6442 -0.3625 0.0, 0.6442 -0.3625 0.0039, 0.6385 -0.3714 0.0, 0.6385 -0.3714 0.0039, 0.635 -0.3814 0.0, 0.635 -0.3814 0.0039, 0.6339 -0.3919 0.0, 0.6339 -0.3919 0.0039, 0.6339 -0.3958 0.0, 0.6339 -0.3958 0.0039, 0.635 -0.4064 0.0, 0.635 -0.4064 0.0039, 0.6385 -0.4163 0.0, 0.6385 -0.4163 0.0039, 0.6442 -0.4253 0.0, 0.6442 -0.4253 0.0039, 0.6516 -0.4328 0.0, 0.6516 -0.4328 0.0039, 0.6606 -0.4384 0.0, 0.6606 -0.4384 0.0039, 0.6706 -0.4419 0.0, 0.6706 -0.4419 0.0039, 0.6811 -0.4431 0.0, 0.6811 -0.4431 0.0039, 0.7874 -0.4431 0.0039, 0.7913 -0.4431 0.0, 0.7874 -0.4431 0.0433, 0.7913 -0.4431 0.0433, 0.7874 -0.3447 0.0433, 0.7913 -0.3447 0.0433, 0.7874 -0.3447 0.0039, 0.7913 -0.3447 0.0, -0.1722 -0.2805 0.0, -0.1722 0.2805 0.0, -0.1722 -0.2805 0.0039, -0.1722 0.2805 0.0039, -0.3199 0.2805 0.0, -0.3199 0.2805 0.0039, -0.3199 -0.2805 0.0, -0.3199 -0.2805 0.0039, -0.3937 -0.5728 0.0039, -0.3937 -0.5728 0.0, -0.3953 -0.5606 0.0, -0.3953 -0.5606 0.0039, -0.4 -0.5492 0.0, -0.4 -0.5492 0.0039, -0.4075 -0.5394 0.0, -0.4075 -0.5394 0.0039, -0.4173 -0.5319 0.0, -0.4173 -0.5319 0.0039, -0.4287 -0.5272 0.0, -0.4287 -0.5272 0.0039, -0.4409 -0.5256 0.0, -0.4409 -0.5256 0.0039, -0.4449 -0.5256 0.0, -0.4449 -0.5256 0.0039, -0.4571 -0.5272 0.0, -0.4571 -0.5272 0.0039, -0.4685 -0.5319 0.0, -0.4685 -0.5319 0.0039, -0.4783 -0.5394 0.0, -0.4783 -0.5394 0.0039, -0.4858 -0.5492 0.0, -0.4858 -0.5492 0.0039, -0.4905 -0.5606 0.0, -0.4905 -0.5606 0.0039, -0.4921 -0.5728 0.0, -0.4921 -0.5728 0.0039, -0.3937 -0.689 0.0433, -0.3937 -0.6929 0.0433, -0.3937 -0.689 0.0039, -0.3937 -0.6929 0.0, -0.4921 -0.689 0.0039, -0.4921 -0.6929 0.0, -0.4921 -0.689 0.0433, -0.4921 -0.6929 0.0433, -0.0719 0.2805 0.0039, -0.0588 0.2805 0.0039, -0.0719 0.2805 0.0, 0.0276 0.2805 0.0039, 0.0758 0.2805 0.0, 0.0758 0.2805 0.0039, -0.0719 -0.2805 0.0, -0.0719 -0.2805 0.0039, -0.0588 -0.2805 0.0039, 0.0276 -0.2805 0.0039, 0.0758 -0.2805 0.0, 0.0758 -0.2805 0.0039, 0.3238 0.2805 0.0039, 0.3238 0.2805 0.0, 0.2866 0.2805 0.0039, 0.1762 0.2805 0.0, 0.1762 0.2805 0.0039, 0.1762 -0.2805 0.0, 0.1762 -0.2805 0.0039, 0.2866 -0.2805 0.0039, 0.3238 -0.2805 0.0, 0.3238 -0.2805 0.0039, 0.2889 -0.5492 0.0, 0.2937 -0.5606 0.0039, 0.2937 -0.5606 0.0, 0.2953 -0.5728 0.0039, 0.2953 -0.5728 0.0, 0.2814 -0.5394 0.0039, 0.2866 -0.5462 0.0039, 0.2889 -0.5492 0.0039, 0.2814 -0.5394 0.0, 0.2717 -0.5319 0.0, 0.2717 -0.5319 0.0039, 0.2603 -0.5272 0.0, 0.2603 -0.5272 0.0039, 0.248 -0.5256 0.0, 0.248 -0.5256 0.0039, 0.2441 -0.5256 0.0, 0.2441 -0.5256 0.0039, 0.2319 -0.5272 0.0, 0.2319 -0.5272 0.0039, 0.2205 -0.5319 0.0, 0.2205 -0.5319 0.0039, 0.2107 -0.5394 0.0, 0.2107 -0.5394 0.0039, 0.2032 -0.5492 0.0, 0.2032 -0.5492 0.0039, 0.1985 -0.5606 0.0, 0.1985 -0.5606 0.0039, 0.1969 -0.5728 0.0, 0.1969 -0.5728 0.0039, 0.2953 -0.689 0.0433, 0.2953 -0.6929 0.0433, 0.2953 -0.689 0.0039, 0.2953 -0.6929 0.0, 0.1969 -0.689 0.0039, 0.1969 -0.6929 0.0, 0.1969 -0.689 0.0433, 0.1969 -0.6929 0.0433, -0.1969 -0.5728 0.0039, -0.1969 -0.5728 0.0, -0.1985 -0.5606 0.0, -0.1985 -0.5606 0.0039, -0.2032 -0.5492 0.0, -0.2032 -0.5492 0.0039, -0.2107 -0.5394 0.0, -0.2107 -0.5394 0.0039, -0.2205 -0.5319 0.0, -0.2205 -0.5319 0.0039, -0.2319 -0.5272 0.0, -0.2319 -0.5272 0.0039, -0.2441 -0.5256 0.0, -0.2441 -0.5256 0.0039, -0.248 -0.5256 0.0, -0.248 -0.5256 0.0039, -0.2603 -0.5272 0.0, -0.2603 -0.5272 0.0039, -0.2717 -0.5319 0.0, -0.2717 -0.5319 0.0039, -0.2814 -0.5394 0.0, -0.2814 -0.5394 0.0039, -0.2889 -0.5492 0.0, -0.2889 -0.5492 0.0039, -0.2937 -0.5606 0.0, -0.2937 -0.5606 0.0039, -0.2953 -0.5728 0.0, -0.2953 -0.5728 0.0039, -0.1969 -0.689 0.0433, -0.1969 -0.6929 0.0433, -0.1969 -0.689 0.0039, -0.1969 -0.6929 0.0, -0.2953 -0.689 0.0039, -0.2953 -0.6929 0.0, -0.2953 -0.689 0.0433, -0.2953 -0.6929 0.0433, 0.0 -0.5728 0.0039, 0.0 -0.5728 0.0, -0.0016 -0.5606 0.0, -0.0016 -0.5606 0.0039, -0.0063 -0.5492 0.0, -0.0063 -0.5492 0.0039, -0.0138 -0.5394 0.0, -0.0138 -0.5394 0.0039, -0.0236 -0.5319 0.0, -0.0236 -0.5319 0.0039, -0.035 -0.5272 0.0, -0.035 -0.5272 0.0039, -0.0472 -0.5256 0.0, -0.0472 -0.5256 0.0039, -0.0512 -0.5256 0.0, -0.0512 -0.5256 0.0039, -0.0588 -0.5266 0.0039, -0.0634 -0.5272 0.0, -0.0634 -0.5272 0.0039, -0.0748 -0.5319 0.0, -0.0748 -0.5319 0.0039, -0.0846 -0.5394 0.0, -0.0846 -0.5394 0.0039, -0.0921 -0.5492 0.0, -0.0921 -0.5492 0.0039, -0.0968 -0.5606 0.0, -0.0968 -0.5606 0.0039, -0.0984 -0.5728 0.0, -0.0984 -0.5728 0.0039, 0.0 -0.689 0.0433, 0.0 -0.6929 0.0433, 0.0 -0.689 0.0039, 0.0 -0.6929 0.0, -0.0984 -0.689 0.0039, -0.0984 -0.6929 0.0, -0.0984 -0.689 0.0433, -0.0984 -0.6929 0.0433, 0.4921 -0.5728 0.0039, 0.4921 -0.5728 0.0, 0.4905 -0.5606 0.0, 0.4905 -0.5606 0.0039, 0.4858 -0.5492 0.0, 0.4858 -0.5492 0.0039, 0.4783 -0.5394 0.0, 0.4783 -0.5394 0.0039, 0.4685 -0.5319 0.0, 0.4685 -0.5319 0.0039, 0.4571 -0.5272 0.0, 0.4571 -0.5272 0.0039, 0.4449 -0.5256 0.0, 0.4449 -0.5256 0.0039, 0.4409 -0.5256 0.0, 0.4409 -0.5256 0.0039, 0.4287 -0.5272 0.0, 0.4287 -0.5272 0.0039, 0.4173 -0.5319 0.0, 0.4173 -0.5319 0.0039, 0.4075 -0.5394 0.0, 0.4075 -0.5394 0.0039, 0.4 -0.5492 0.0, 0.4 -0.5492 0.0039, 0.3953 -0.5606 0.0, 0.3953 -0.5606 0.0039, 0.3937 -0.5728 0.0, 0.3937 -0.5728 0.0039, 0.4921 -0.689 0.0433, 0.4921 -0.6929 0.0433, 0.4921 -0.689 0.0039, 0.4921 -0.6929 0.0, 0.3937 -0.689 0.0039, 0.3937 -0.6929 0.0, 0.3937 -0.689 0.0433, 0.3937 -0.6929 0.0433, -0.4626 0.5531 0.0039, -0.4626 0.5531 0.0, -0.4614 0.5426 0.0, -0.4614 0.5426 0.0039, -0.4579 0.5327 0.0, -0.4579 0.5327 0.0039, -0.4523 0.5237 0.0, -0.4523 0.5237 0.0039, -0.4448 0.5162 0.0, -0.4448 0.5162 0.0039, -0.4359 0.5106 0.0, -0.4359 0.5106 0.0039, -0.4259 0.5071 0.0, -0.4259 0.5071 0.0039, -0.4154 0.5059 0.0, -0.4154 0.5059 0.0039, -0.4114 0.5059 0.0, -0.4114 0.5059 0.0039, -0.4009 0.5071 0.0, -0.4009 0.5071 0.0039, -0.3909 0.5106 0.0, -0.3909 0.5106 0.0039, -0.382 0.5162 0.0, -0.382 0.5162 0.0039, -0.3745 0.5237 0.0, -0.3745 0.5237 0.0039, -0.3689 0.5327 0.0, -0.3689 0.5327 0.0039, -0.3654 0.5426 0.0, -0.3654 0.5426 0.0039, -0.3642 0.5531 0.0, -0.3642 0.5531 0.0039, -0.3642 0.689 0.0039, -0.3642 0.6929 0.0, -0.3642 0.689 0.0433, -0.3642 0.6929 0.0433, -0.4626 0.689 0.0433, -0.4626 0.6929 0.0433, -0.4626 0.689 0.0039, -0.4626 0.6929 0.0, 0.3642 0.5531 0.0039, 0.3642 0.5531 0.0, 0.3654 0.5426 0.0, 0.3654 0.5426 0.0039, 0.3689 0.5327 0.0, 0.3689 0.5327 0.0039, 0.3745 0.5237 0.0, 0.3745 0.5237 0.0039, 0.382 0.5162 0.0, 0.382 0.5162 0.0039, 0.3909 0.5106 0.0, 0.3909 0.5106 0.0039, 0.4009 0.5071 0.0, 0.4009 0.5071 0.0039, 0.4114 0.5059 0.0, 0.4114 0.5059 0.0039, 0.4154 0.5059 0.0, 0.4154 0.5059 0.0039, 0.4259 0.5071 0.0, 0.4259 0.5071 0.0039, 0.4359 0.5106 0.0, 0.4359 0.5106 0.0039, 0.4448 0.5162 0.0, 0.4448 0.5162 0.0039, 0.4523 0.5237 0.0, 0.4523 0.5237 0.0039, 0.4579 0.5327 0.0, 0.4579 0.5327 0.0039, 0.4614 0.5426 0.0, 0.4614 0.5426 0.0039, 0.4626 0.5531 0.0, 0.4626 0.5531 0.0039, 0.4626 0.689 0.0039, 0.4626 0.6929 0.0, 0.4626 0.689 0.0433, 0.4626 0.6929 0.0433, 0.3642 0.689 0.0433, 0.3642 0.6929 0.0433, 0.3642 0.689 0.0039, 0.3642 0.6929 0.0, -0.1476 0.5728 0.0039, -0.1476 0.5728 0.0, -0.1465 0.5623 0.0, -0.1465 0.5623 0.0039, -0.143 0.5523 0.0, -0.143 0.5523 0.0039, -0.1373 0.5434 0.0, -0.1373 0.5434 0.0039, -0.1298 0.5359 0.0, -0.1298 0.5359 0.0039, -0.1209 0.5303 0.0, -0.1209 0.5303 0.0039, -0.1109 0.5268 0.0, -0.1109 0.5268 0.0039, -0.1004 0.5256 0.0, -0.1004 0.5256 0.0039, -0.0965 0.5256 0.0, -0.0965 0.5256 0.0039, -0.0859 0.5268 0.0, -0.0859 0.5268 0.0039, -0.076 0.5303 0.0, -0.076 0.5303 0.0039, -0.067 0.5359 0.0, -0.067 0.5359 0.0039, -0.0595 0.5434 0.0, -0.0595 0.5434 0.0039, -0.0588 0.5445 0.0039, -0.0539 0.5523 0.0, -0.0539 0.5523 0.0039, -0.0504 0.5623 0.0, -0.0504 0.5623 0.0039, -0.0492 0.5728 0.0, -0.0492 0.5728 0.0039, -0.0492 0.689 0.0039, -0.0492 0.6929 0.0, -0.0492 0.689 0.0433, -0.0492 0.6929 0.0433, -0.1476 0.689 0.0433, -0.1476 0.6929 0.0433, -0.1476 0.689 0.0039, -0.1476 0.6929 0.0, 0.0492 0.5728 0.0039, 0.0492 0.5728 0.0, 0.0504 0.5623 0.0, 0.0504 0.5623 0.0039, 0.0539 0.5523 0.0, 0.0539 0.5523 0.0039, 0.0595 0.5434 0.0, 0.0595 0.5434 0.0039, 0.067 0.5359 0.0, 0.067 0.5359 0.0039, 0.076 0.5303 0.0, 0.076 0.5303 0.0039, 0.0859 0.5268 0.0, 0.0859 0.5268 0.0039, 0.0965 0.5256 0.0, 0.0965 0.5256 0.0039, 0.1004 0.5256 0.0, 0.1004 0.5256 0.0039, 0.1109 0.5268 0.0, 0.1109 0.5268 0.0039, 0.1209 0.5303 0.0, 0.1209 0.5303 0.0039, 0.1298 0.5359 0.0, 0.1298 0.5359 0.0039, 0.1373 0.5434 0.0, 0.1373 0.5434 0.0039, 0.1385 0.5452 0.0039, 0.143 0.5523 0.0, 0.143 0.5523 0.0039, 0.1465 0.5623 0.0, 0.1465 0.5623 0.0039, 0.1476 0.5728 0.0, 0.1476 0.5728 0.0039, 0.1476 0.689 0.0039, 0.1476 0.6929 0.0, 0.1476 0.689 0.0433, 0.1476 0.6929 0.0433, 0.0492 0.689 0.0433, 0.0492 0.6929 0.0433, 0.0492 0.689 0.0039, 0.0492 0.6929 0.0
            ]
        }
        coordIndex [
            0,1,2,-1,2,1,3,-1,4,5,6,-1,6,5,7,-1,6,7,8,-1,8,7,9,-1,8,9,10,-1,10,9,11,-1,10,11,12,-1,12,11,13,-1,12,13,0,-1,0,13,1,-1,2,3,14,-1,14,3,15,-1,14,15,16,-1,16,15,17,-1,16,17,18,-1,18,17,19,-1,18,19,4,-1,4,19,5,-1,9,7,19,-1,19,7,5,-1,15,3,13,-1,13,3,1,-1,15,13,17,-1,17,13,11,-1,17,11,19,-1,19,11,9,-1,20,21,22,-1,22,21,23,-1,24,25,26,-1,26,25,27,-1,26,27,22,-1,22,27,20,-1,28,29,30,-1,30,29,31,-1,30,31,32,-1,32,31,33,-1,23,21,34,-1,34,21,35,-1,34,35,36,-1,36,35,37,-1,38,39,40,-1,40,39,41,-1,40,41,28,-1,28,41,29,-1,33,25,32,-1,32,25,24,-1,37,39,36,-1,36,39,38,-1,27,25,31,-1,31,25,33,-1,41,39,35,-1,35,39,37,-1,27,31,20,-1,20,31,29,-1,20,29,21,-1,21,29,41,-1,21,41,35,-1,42,43,44,-1,44,43,45,-1,44,45,46,-1,46,45,47,-1,48,49,50,-1,50,49,51,-1,50,51,52,-1,52,51,53,-1,54,55,56,-1,56,55,57,-1,56,57,42,-1,42,57,43,-1,52,53,58,-1,58,53,59,-1,58,59,60,-1,60,59,61,-1,47,49,46,-1,46,49,48,-1,61,55,60,-1,60,55,54,-1,51,49,45,-1,45,49,47,-1,57,55,59,-1,59,55,61,-1,51,45,53,-1,53,45,43,-1,53,43,59,-1,59,43,57,-1,62,63,64,-1,64,63,65,-1,64,65,66,-1,66,65,67,-1,68,69,70,-1,70,69,71,-1,70,71,72,-1,72,71,73,-1,66,67,74,-1,74,67,75,-1,74,75,76,-1,76,75,77,-1,78,79,80,-1,80,79,81,-1,80,81,68,-1,68,81,69,-1,72,73,62,-1,62,73,63,-1,76,77,78,-1,78,77,79,-1,65,63,71,-1,71,63,73,-1,81,79,75,-1,75,79,77,-1,65,71,67,-1,67,71,69,-1,67,69,75,-1,75,69,81,-1,82,83,84,-1,82,84,85,-1,85,84,86,-1,85,86,87,-1,87,86,88,-1,87,88,89,-1,89,88,90,-1,89,90,91,-1,91,90,92,-1,91,92,93,-1,93,92,94,-1,93,94,95,-1,95,94,96,-1,95,96,97,-1,96,98,97,-1,97,98,99,-1,99,98,100,-1,99,100,101,-1,101,100,102,-1,101,102,103,-1,103,102,104,-1,103,104,105,-1,105,104,106,-1,105,106,107,-1,107,106,108,-1,107,108,109,-1,109,108,110,-1,109,110,111,-1,111,110,112,-1,111,112,113,-1,114,115,116,-1,116,115,117,-1,116,117,82,-1,82,117,83,-1,113,112,118,-1,118,112,119,-1,118,119,120,-1,120,119,121,-1,121,115,120,-1,120,115,114,-1,117,115,119,-1,119,115,121,-1,86,84,119,-1,119,84,83,-1,119,83,117,-1,100,98,112,-1,112,98,96,-1,112,96,119,-1,119,96,94,-1,119,94,92,-1,106,104,108,-1,108,104,110,-1,110,104,112,-1,112,104,102,-1,112,102,100,-1,92,90,119,-1,119,90,88,-1,119,88,86,-1,122,123,124,-1,122,124,125,-1,125,124,126,-1,125,126,127,-1,127,126,128,-1,127,128,129,-1,129,128,130,-1,129,130,131,-1,131,130,132,-1,131,132,133,-1,133,132,134,-1,133,134,135,-1,135,134,136,-1,135,136,137,-1,136,138,137,-1,137,138,139,-1,139,138,140,-1,139,140,141,-1,141,140,142,-1,141,142,143,-1,143,142,144,-1,143,144,145,-1,145,144,146,-1,145,146,147,-1,147,146,148,-1,147,148,149,-1,149,148,150,-1,149,150,151,-1,151,150,152,-1,151,152,153,-1,154,155,156,-1,156,155,157,-1,156,157,122,-1,122,157,123,-1,153,152,158,-1,158,152,159,-1,158,159,160,-1,160,159,161,-1,161,155,160,-1,160,155,154,-1,157,155,159,-1,159,155,161,-1,123,157,159,-1,136,159,152,-1,136,152,138,-1,138,152,150,-1,138,150,140,-1,132,130,123,-1,159,136,123,-1,123,136,134,-1,123,134,132,-1,150,148,146,-1,128,126,130,-1,130,126,124,-1,130,124,123,-1,146,144,150,-1,150,144,142,-1,150,142,140,-1,162,163,164,-1,162,164,165,-1,165,164,166,-1,165,166,167,-1,167,166,168,-1,167,168,169,-1,169,168,170,-1,169,170,171,-1,171,170,172,-1,171,172,173,-1,173,172,174,-1,173,174,175,-1,175,174,176,-1,175,176,177,-1,176,178,177,-1,177,178,179,-1,179,178,180,-1,179,180,181,-1,181,180,182,-1,181,182,183,-1,183,182,184,-1,183,184,185,-1,185,184,186,-1,185,186,187,-1,187,186,188,-1,187,188,189,-1,189,188,190,-1,189,190,191,-1,191,190,192,-1,191,192,193,-1,193,192,194,-1,194,192,195,-1,194,195,196,-1,196,195,197,-1,198,199,200,-1,200,199,201,-1,200,201,162,-1,162,201,163,-1,196,197,198,-1,198,197,199,-1,201,199,195,-1,195,199,197,-1,164,163,174,-1,182,192,190,-1,201,195,178,-1,178,195,192,-1,178,192,180,-1,180,192,182,-1,201,178,163,-1,163,178,176,-1,163,176,174,-1,172,170,168,-1,190,188,182,-1,182,188,186,-1,182,186,184,-1,172,168,174,-1,174,168,166,-1,174,166,164,-1,202,203,204,-1,202,204,205,-1,205,204,206,-1,205,206,207,-1,207,206,208,-1,207,208,209,-1,209,208,210,-1,209,210,211,-1,211,210,212,-1,211,212,213,-1,213,212,214,-1,213,214,215,-1,215,214,216,-1,215,216,217,-1,216,218,217,-1,217,218,219,-1,219,218,220,-1,219,220,221,-1,221,220,222,-1,221,222,223,-1,223,222,224,-1,223,224,225,-1,225,224,226,-1,225,226,227,-1,227,226,228,-1,227,228,229,-1,229,228,230,-1,229,230,231,-1,231,230,232,-1,231,232,233,-1,233,232,234,-1,234,232,235,-1,234,235,236,-1,236,235,237,-1,238,239,240,-1,240,239,241,-1,240,241,202,-1,202,241,203,-1,236,237,238,-1,238,237,239,-1,241,239,235,-1,235,239,237,-1,203,241,235,-1,230,228,226,-1,222,220,232,-1,232,220,218,-1,232,218,216,-1,206,214,208,-1,208,214,212,-1,208,212,210,-1,230,226,232,-1,232,226,224,-1,232,224,222,-1,206,204,214,-1,214,204,203,-1,214,203,216,-1,216,203,235,-1,216,235,232,-1,242,243,244,-1,242,244,245,-1,245,244,246,-1,245,246,247,-1,247,246,248,-1,247,248,249,-1,249,248,250,-1,249,250,251,-1,251,250,252,-1,251,252,253,-1,253,252,254,-1,253,254,255,-1,255,254,256,-1,255,256,257,-1,256,258,257,-1,257,258,259,-1,259,258,260,-1,259,260,261,-1,261,260,262,-1,261,262,263,-1,263,262,264,-1,263,264,265,-1,265,264,266,-1,265,266,267,-1,267,266,268,-1,267,268,269,-1,269,268,270,-1,269,270,271,-1,271,270,272,-1,271,272,273,-1,274,275,276,-1,276,275,277,-1,276,277,242,-1,242,277,243,-1,273,272,278,-1,278,272,279,-1,278,279,280,-1,280,279,281,-1,281,275,280,-1,280,275,274,-1,277,275,279,-1,279,275,281,-1,252,250,279,-1,279,250,248,-1,279,248,246,-1,246,244,279,-1,279,244,243,-1,279,243,277,-1,262,270,264,-1,264,270,268,-1,264,268,266,-1,262,260,270,-1,270,260,258,-1,270,258,272,-1,272,258,256,-1,272,256,279,-1,279,256,254,-1,279,254,252,-1,282,283,284,-1,282,284,285,-1,285,284,286,-1,285,286,287,-1,287,286,288,-1,287,288,289,-1,289,288,290,-1,289,290,291,-1,291,290,292,-1,291,292,293,-1,293,292,294,-1,293,294,295,-1,295,294,296,-1,295,296,297,-1,296,298,297,-1,297,298,299,-1,299,298,300,-1,299,300,301,-1,301,300,302,-1,301,302,303,-1,303,302,304,-1,303,304,305,-1,305,304,306,-1,305,306,307,-1,307,306,308,-1,307,308,309,-1,309,308,310,-1,309,310,311,-1,311,310,312,-1,311,312,313,-1,313,312,314,-1,314,312,315,-1,314,315,316,-1,316,315,317,-1,318,319,320,-1,320,319,321,-1,320,321,282,-1,282,321,283,-1,317,319,316,-1,316,319,318,-1,321,319,315,-1,315,319,317,-1,286,284,315,-1,315,284,283,-1,315,283,321,-1,310,308,298,-1,308,306,298,-1,298,306,304,-1,298,304,300,-1,300,304,302,-1,310,298,312,-1,312,298,296,-1,312,296,315,-1,315,296,294,-1,315,294,292,-1,292,290,315,-1,315,290,288,-1,315,288,286,-1,322,323,324,-1,322,324,325,-1,325,324,326,-1,325,326,327,-1,327,326,328,-1,327,328,329,-1,329,328,330,-1,329,330,331,-1,331,330,332,-1,331,332,333,-1,333,332,334,-1,333,334,335,-1,335,334,336,-1,335,336,337,-1,338,339,340,-1,338,340,341,-1,341,340,342,-1,341,342,343,-1,343,342,344,-1,343,344,345,-1,345,344,346,-1,345,346,347,-1,347,346,348,-1,347,348,349,-1,349,348,350,-1,349,350,351,-1,351,350,352,-1,351,352,353,-1,352,323,353,-1,353,323,322,-1,337,336,354,-1,354,336,355,-1,354,355,356,-1,356,355,357,-1,358,359,360,-1,360,359,361,-1,360,361,338,-1,338,361,339,-1,357,359,356,-1,356,359,358,-1,361,359,355,-1,355,359,357,-1,324,323,336,-1,336,323,352,-1,336,352,355,-1,344,350,346,-1,346,350,348,-1,361,355,339,-1,339,355,352,-1,339,352,340,-1,340,352,350,-1,340,350,342,-1,342,350,344,-1,332,330,334,-1,334,330,328,-1,334,328,336,-1,336,328,326,-1,336,326,324,-1,362,363,364,-1,362,364,365,-1,365,364,366,-1,365,366,367,-1,367,366,368,-1,367,368,369,-1,369,368,370,-1,369,370,371,-1,371,370,372,-1,371,372,373,-1,373,372,374,-1,373,374,375,-1,375,374,376,-1,375,376,377,-1,378,379,380,-1,378,380,381,-1,381,380,382,-1,381,382,383,-1,383,382,384,-1,383,384,385,-1,385,384,386,-1,385,386,387,-1,387,386,388,-1,387,388,389,-1,389,388,390,-1,389,390,391,-1,391,390,392,-1,391,392,393,-1,392,363,393,-1,393,363,362,-1,377,376,394,-1,394,376,395,-1,394,395,396,-1,396,395,397,-1,398,399,400,-1,400,399,401,-1,400,401,378,-1,378,401,379,-1,397,399,396,-1,396,399,398,-1,401,399,395,-1,395,399,397,-1,395,376,363,-1,392,379,363,-1,363,379,401,-1,363,401,395,-1,368,366,376,-1,376,366,364,-1,376,364,363,-1,368,376,370,-1,370,376,374,-1,370,374,372,-1,392,390,379,-1,379,390,388,-1,379,388,386,-1,386,384,379,-1,379,384,382,-1,379,382,380,-1,402,403,404,-1,402,404,405,-1,405,404,406,-1,405,406,407,-1,407,406,408,-1,407,408,409,-1,409,408,410,-1,409,410,411,-1,411,410,412,-1,411,412,413,-1,413,412,414,-1,413,414,415,-1,415,414,416,-1,415,416,417,-1,416,418,417,-1,417,418,419,-1,419,418,420,-1,419,420,421,-1,421,420,422,-1,421,422,423,-1,423,422,424,-1,423,424,425,-1,425,424,426,-1,425,426,427,-1,427,426,428,-1,427,428,429,-1,429,428,430,-1,429,430,431,-1,431,430,432,-1,431,432,433,-1,433,432,434,-1,434,432,435,-1,434,435,436,-1,436,435,437,-1,438,439,440,-1,440,439,441,-1,440,441,402,-1,402,441,403,-1,436,437,438,-1,438,437,439,-1,441,439,435,-1,435,439,437,-1,404,403,416,-1,420,418,432,-1,432,418,416,-1,432,416,435,-1,435,416,403,-1,435,403,441,-1,410,408,412,-1,412,408,414,-1,414,408,416,-1,416,408,406,-1,416,406,404,-1,428,426,430,-1,430,426,424,-1,430,424,432,-1,432,424,422,-1,432,422,420,-1,442,443,444,-1,442,444,445,-1,445,444,446,-1,445,446,447,-1,447,446,448,-1,447,448,449,-1,449,448,450,-1,449,450,451,-1,451,450,452,-1,451,452,453,-1,453,452,454,-1,453,454,455,-1,455,454,456,-1,455,456,457,-1,456,458,457,-1,457,458,459,-1,459,458,460,-1,459,460,461,-1,461,460,462,-1,461,462,463,-1,463,462,464,-1,463,464,465,-1,465,464,466,-1,465,466,467,-1,467,466,468,-1,467,468,469,-1,469,468,470,-1,469,470,471,-1,471,470,472,-1,471,472,473,-1,473,472,474,-1,474,472,475,-1,474,475,476,-1,476,475,477,-1,478,479,480,-1,480,479,481,-1,480,481,442,-1,442,481,443,-1,476,477,478,-1,478,477,479,-1,481,479,475,-1,475,479,477,-1,454,452,475,-1,452,450,475,-1,475,450,448,-1,475,448,446,-1,446,444,475,-1,475,444,443,-1,475,443,481,-1,454,475,456,-1,456,475,472,-1,456,472,458,-1,458,472,470,-1,458,470,468,-1,468,466,458,-1,458,466,464,-1,458,464,460,-1,460,464,462,-1,482,483,484,-1,484,483,485,-1,483,486,485,-1,485,486,487,-1,486,488,487,-1,487,488,489,-1,488,482,489,-1,489,482,484,-1,488,486,482,-1,482,486,483,-1,490,491,492,-1,490,492,493,-1,493,492,494,-1,493,494,495,-1,495,494,496,-1,495,496,497,-1,497,496,498,-1,497,498,499,-1,499,498,500,-1,499,500,501,-1,501,500,502,-1,501,502,503,-1,502,504,503,-1,503,504,505,-1,505,504,506,-1,505,506,507,-1,507,506,508,-1,507,508,509,-1,509,508,510,-1,509,510,511,-1,511,510,512,-1,511,512,513,-1,513,512,514,-1,513,514,515,-1,515,514,516,-1,515,516,517,-1,518,519,520,-1,520,519,521,-1,520,521,490,-1,490,521,491,-1,517,516,522,-1,522,516,523,-1,522,523,524,-1,524,523,525,-1,525,519,524,-1,524,519,518,-1,521,519,523,-1,523,519,525,-1,491,521,523,-1,491,523,492,-1,514,512,510,-1,506,504,516,-1,516,504,502,-1,516,502,523,-1,523,502,500,-1,523,500,498,-1,498,496,523,-1,523,496,494,-1,523,494,492,-1,514,510,516,-1,516,510,508,-1,516,508,506,-1,526,527,528,-1,528,527,529,-1,528,529,530,-1,530,529,531,-1,528,532,526,-1,526,532,533,-1,534,533,532,-1,534,532,535,-1,535,532,536,-1,535,536,537,-1,536,530,537,-1,537,530,531,-1,536,532,530,-1,530,532,528,-1,538,539,540,-1,540,539,541,-1,540,541,542,-1,541,543,542,-1,542,543,544,-1,544,543,545,-1,545,543,546,-1,545,546,547,-1,546,539,547,-1,547,539,538,-1,546,543,539,-1,539,543,541,-1,548,549,550,-1,550,549,551,-1,550,551,552,-1,553,554,548,-1,548,554,555,-1,548,555,549,-1,548,556,553,-1,553,556,557,-1,553,557,558,-1,558,557,559,-1,558,559,560,-1,560,559,561,-1,560,561,562,-1,561,563,562,-1,562,563,564,-1,564,563,565,-1,564,565,566,-1,566,565,567,-1,566,567,568,-1,568,567,569,-1,568,569,570,-1,570,569,571,-1,570,571,572,-1,572,571,573,-1,572,573,574,-1,574,573,575,-1,574,575,576,-1,577,578,579,-1,579,578,580,-1,579,580,551,-1,551,580,552,-1,576,575,581,-1,581,575,582,-1,581,582,583,-1,583,582,584,-1,584,578,583,-1,583,578,577,-1,580,578,582,-1,582,578,584,-1,552,580,582,-1,552,582,550,-1,565,563,573,-1,573,563,575,-1,575,563,561,-1,575,561,582,-1,582,561,559,-1,582,559,557,-1,557,556,582,-1,582,556,548,-1,582,548,550,-1,571,569,573,-1,573,569,567,-1,573,567,565,-1,585,586,587,-1,585,587,588,-1,588,587,589,-1,588,589,590,-1,590,589,591,-1,590,591,592,-1,592,591,593,-1,592,593,594,-1,594,593,595,-1,594,595,596,-1,596,595,597,-1,596,597,598,-1,597,599,598,-1,598,599,600,-1,600,599,601,-1,600,601,602,-1,602,601,603,-1,602,603,604,-1,604,603,605,-1,604,605,606,-1,606,605,607,-1,606,607,608,-1,608,607,609,-1,608,609,610,-1,610,609,611,-1,610,611,612,-1,613,614,615,-1,615,614,616,-1,615,616,585,-1,585,616,586,-1,612,611,617,-1,617,611,618,-1,617,618,619,-1,619,618,620,-1,619,620,613,-1,613,620,614,-1,616,614,618,-1,618,614,620,-1,586,616,618,-1,599,597,611,-1,586,618,587,-1,611,597,618,-1,618,597,595,-1,618,595,593,-1,593,591,618,-1,618,591,589,-1,618,589,587,-1,607,605,609,-1,609,605,603,-1,609,603,611,-1,611,603,601,-1,611,601,599,-1,621,622,623,-1,621,623,624,-1,624,623,625,-1,624,625,626,-1,626,625,627,-1,626,627,628,-1,628,627,629,-1,628,629,630,-1,630,629,631,-1,630,631,632,-1,632,631,633,-1,632,633,634,-1,633,635,634,-1,634,635,636,-1,636,635,637,-1,637,635,638,-1,637,638,639,-1,639,638,640,-1,639,640,641,-1,641,640,642,-1,641,642,643,-1,643,642,644,-1,643,644,645,-1,645,644,646,-1,645,646,647,-1,647,646,648,-1,647,648,649,-1,650,651,652,-1,652,651,653,-1,652,653,621,-1,621,653,622,-1,649,648,654,-1,654,648,655,-1,654,655,656,-1,656,655,657,-1,656,657,650,-1,650,657,651,-1,653,651,655,-1,655,651,657,-1,622,653,655,-1,622,655,623,-1,638,635,648,-1,648,635,633,-1,648,633,655,-1,655,633,631,-1,655,631,629,-1,644,642,640,-1,629,627,655,-1,655,627,625,-1,655,625,623,-1,638,648,640,-1,640,648,646,-1,640,646,644,-1,658,659,660,-1,658,660,661,-1,661,660,662,-1,661,662,663,-1,663,662,664,-1,663,664,665,-1,665,664,666,-1,665,666,667,-1,667,666,668,-1,667,668,669,-1,669,668,670,-1,669,670,671,-1,670,672,671,-1,671,672,673,-1,673,672,674,-1,673,674,675,-1,675,674,676,-1,675,676,677,-1,677,676,678,-1,677,678,679,-1,679,678,680,-1,679,680,681,-1,681,680,682,-1,681,682,683,-1,683,682,684,-1,683,684,685,-1,686,687,688,-1,688,687,689,-1,688,689,658,-1,658,689,659,-1,685,684,690,-1,690,684,691,-1,690,691,692,-1,692,691,693,-1,693,687,692,-1,692,687,686,-1,689,687,691,-1,691,687,693,-1,668,691,670,-1,670,691,684,-1,670,684,672,-1,672,684,682,-1,672,682,680,-1,668,666,691,-1,691,666,664,-1,691,664,662,-1,662,660,691,-1,691,660,659,-1,691,659,689,-1,680,678,672,-1,672,678,676,-1,672,676,674,-1,694,695,696,-1,694,696,697,-1,697,696,698,-1,697,698,699,-1,699,698,700,-1,699,700,701,-1,701,700,702,-1,701,702,703,-1,703,702,704,-1,703,704,705,-1,705,704,706,-1,705,706,707,-1,707,706,708,-1,707,708,709,-1,708,710,709,-1,709,710,711,-1,711,710,712,-1,711,712,713,-1,713,712,714,-1,713,714,715,-1,715,714,716,-1,715,716,717,-1,717,716,718,-1,717,718,719,-1,719,718,720,-1,719,720,721,-1,721,720,722,-1,721,722,723,-1,723,722,724,-1,723,724,725,-1,725,724,726,-1,726,724,727,-1,726,727,728,-1,728,727,729,-1,730,731,732,-1,732,731,733,-1,732,733,694,-1,694,733,695,-1,728,729,730,-1,730,729,731,-1,733,731,727,-1,727,731,729,-1,712,710,724,-1,724,710,727,-1,720,718,716,-1,720,716,722,-1,722,716,724,-1,724,716,714,-1,724,714,712,-1,698,696,708,-1,708,696,695,-1,708,695,710,-1,710,695,733,-1,710,733,727,-1,708,706,698,-1,698,706,704,-1,698,704,700,-1,700,704,702,-1,734,735,736,-1,734,736,737,-1,737,736,738,-1,737,738,739,-1,739,738,740,-1,739,740,741,-1,741,740,742,-1,741,742,743,-1,743,742,744,-1,743,744,745,-1,745,744,746,-1,745,746,747,-1,747,746,748,-1,747,748,749,-1,748,750,749,-1,749,750,751,-1,751,750,752,-1,751,752,753,-1,753,752,754,-1,753,754,755,-1,755,754,756,-1,755,756,757,-1,757,756,758,-1,757,758,759,-1,759,758,760,-1,759,760,761,-1,761,760,762,-1,761,762,763,-1,763,762,764,-1,763,764,765,-1,765,764,766,-1,766,764,767,-1,766,767,768,-1,768,767,769,-1,770,771,772,-1,772,771,773,-1,772,773,734,-1,734,773,735,-1,768,769,770,-1,770,769,771,-1,773,771,767,-1,767,771,769,-1,752,750,764,-1,764,750,767,-1,760,758,756,-1,748,735,750,-1,750,735,773,-1,750,773,767,-1,760,756,762,-1,762,756,764,-1,764,756,754,-1,764,754,752,-1,748,746,735,-1,735,746,744,-1,735,744,742,-1,742,740,735,-1,735,740,738,-1,735,738,736,-1,774,775,776,-1,774,776,777,-1,777,776,778,-1,777,778,779,-1,779,778,780,-1,779,780,781,-1,781,780,782,-1,781,782,783,-1,783,782,784,-1,783,784,785,-1,785,784,786,-1,785,786,787,-1,787,786,788,-1,787,788,789,-1,788,790,789,-1,789,790,791,-1,791,790,792,-1,791,792,793,-1,793,792,794,-1,793,794,795,-1,795,794,796,-1,795,796,797,-1,797,796,798,-1,797,798,799,-1,799,798,800,-1,800,798,801,-1,800,801,802,-1,802,801,803,-1,802,803,804,-1,804,803,805,-1,804,805,806,-1,806,805,807,-1,807,805,808,-1,807,808,809,-1,809,808,810,-1,811,812,813,-1,813,812,814,-1,813,814,774,-1,774,814,775,-1,809,810,811,-1,811,810,812,-1,814,812,808,-1,808,812,810,-1,805,788,808,-1,808,788,786,-1,808,786,784,-1,784,782,808,-1,808,782,780,-1,808,780,778,-1,778,776,808,-1,808,776,775,-1,808,775,814,-1,796,803,798,-1,798,803,801,-1,796,794,803,-1,803,794,792,-1,803,792,805,-1,805,792,790,-1,805,790,788,-1,815,816,817,-1,815,817,818,-1,818,817,819,-1,818,819,820,-1,820,819,821,-1,820,821,822,-1,822,821,823,-1,822,823,824,-1,824,823,825,-1,824,825,826,-1,826,825,827,-1,826,827,828,-1,828,827,829,-1,828,829,830,-1,829,831,830,-1,830,831,832,-1,832,831,833,-1,832,833,834,-1,834,833,835,-1,834,835,836,-1,836,835,837,-1,836,837,838,-1,838,837,839,-1,838,839,840,-1,840,839,841,-1,841,839,842,-1,841,842,843,-1,843,842,844,-1,843,844,845,-1,845,844,846,-1,845,846,847,-1,847,846,848,-1,848,846,849,-1,848,849,850,-1,850,849,851,-1,852,853,854,-1,854,853,855,-1,854,855,815,-1,815,855,816,-1,850,851,852,-1,852,851,853,-1,855,853,849,-1,849,853,851,-1,816,855,849,-1,842,839,831,-1,831,839,837,-1,831,837,833,-1,833,837,835,-1,827,825,849,-1,849,825,823,-1,849,823,821,-1,821,819,849,-1,849,819,817,-1,849,817,816,-1,827,849,829,-1,829,849,846,-1,829,846,831,-1,831,846,844,-1,831,844,842,-1,
        ]
    }
}
Shape{
    appearance Appearance {
        material  Material 	{
            diffuseColor 0.8509803921568627 0.8509803921568627 0.8509803921568627
            specularColor 0.4235294117647059 0.4235294117647059 0.4235294117647059
            ambientIntensity 0.851
            transparency 0.0
            shininess 0.5
        }
    }
    geometry IndexedFaceSet {
        ccw TRUE
        solid FALSE
        coord DEF co Coordinate {
            point [
                0.2033 -0.4619 0.0043, 0.2494 -0.3438 0.0043, 0.2033 -0.4619 0.0039, 0.2494 -0.3438 0.0039, 0.2321 -0.3438 0.0043, 0.2321 -0.3438 0.0039, 0.2202 -0.3769 0.0043, 0.2202 -0.3769 0.0039, 0.1714 -0.3769 0.0043, 0.1714 -0.3769 0.0039, 0.1601 -0.3438 0.0043, 0.1601 -0.3438 0.0039, 0.1428 -0.3438 0.0043, 0.1428 -0.3438 0.0039, 0.1875 -0.4619 0.0043, 0.1875 -0.4619 0.0039, 0.1754 -0.3899 0.0043, 0.193 -0.4392 0.0043, 0.1941 -0.4433 0.0043, 0.1949 -0.4475 0.0043, 0.1953 -0.4475 0.0043, 0.196 -0.4433 0.0043, 0.2149 -0.3899 0.0043, 0.1971 -0.4392 0.0043, 0.1754 -0.3899 0.0039, 0.2149 -0.3899 0.0039, 0.193 -0.4392 0.0039, 0.1941 -0.4433 0.0039, 0.1949 -0.4475 0.0039, 0.1953 -0.4475 0.0039, 0.196 -0.4433 0.0039, 0.1971 -0.4392 0.0039, 0.0712 -0.3438 0.0043, 0.0391 -0.3438 0.0043, 0.0712 -0.3438 0.0039, 0.0391 -0.3438 0.0039, 0.0391 -0.4619 0.0043, 0.0391 -0.4619 0.0039, 0.0724 -0.4619 0.0043, 0.0724 -0.4619 0.0039, 0.1342 -0.4043 0.0043, 0.1342 -0.4043 0.0039, 0.1333 -0.4155 0.0039, 0.1333 -0.4155 0.0043, 0.1301 -0.4271 0.0039, 0.1301 -0.4271 0.0043, 0.1247 -0.4372 0.0039, 0.1247 -0.4372 0.0043, 0.1163 -0.4465 0.0039, 0.1163 -0.4465 0.0043, 0.1162 -0.4466 0.0039, 0.1162 -0.4466 0.0043, 0.1033 -0.4552 0.0039, 0.1033 -0.4552 0.0043, 0.0895 -0.4601 0.0039, 0.0895 -0.4601 0.0043, 0.0858 -0.3451 0.0039, 0.0858 -0.3451 0.0043, 0.0995 -0.3491 0.0039, 0.0995 -0.3491 0.0043, 0.1118 -0.3563 0.0039, 0.1118 -0.3563 0.0043, 0.1215 -0.3656 0.0039, 0.1215 -0.3656 0.0043, 0.1283 -0.3762 0.0039, 0.1283 -0.3762 0.0043, 0.1325 -0.3885 0.0039, 0.1325 -0.3885 0.0043, 0.1105 -0.4324 0.0043, 0.1047 -0.4385 0.0043, 0.0961 -0.444 0.0043, 0.0864 -0.4475 0.0043, 0.0724 -0.4489 0.0043, 0.055 -0.4489 0.0043, 0.055 -0.3568 0.0043, 0.0717 -0.3568 0.0043, 0.0842 -0.3579 0.0043, 0.0941 -0.361 0.0043, 0.1022 -0.3658 0.0043, 0.1088 -0.3724 0.0043, 0.1138 -0.3805 0.0043, 0.1172 -0.3916 0.0043, 0.1183 -0.404 0.0043, 0.1173 -0.4158 0.0043, 0.1146 -0.4251 0.0043, 0.0724 -0.4489 0.0039, 0.055 -0.4489 0.0039, 0.0864 -0.4475 0.0039, 0.0961 -0.444 0.0039, 0.1047 -0.4385 0.0039, 0.1105 -0.4324 0.0039, 0.1146 -0.4251 0.0039, 0.1173 -0.4158 0.0039, 0.1183 -0.404 0.0039, 0.1172 -0.3916 0.0039, 0.1138 -0.3805 0.0039, 0.1088 -0.3724 0.0039, 0.1022 -0.3658 0.0039, 0.0941 -0.361 0.0039, 0.0842 -0.3579 0.0039, 0.0717 -0.3568 0.0039, 0.055 -0.3568 0.0039, 0.0161 -0.3568 0.0043, 0.0161 -0.3438 0.0043, 0.0161 -0.3568 0.0039, 0.0161 -0.3438 0.0039, -0.0473 -0.3438 0.0043, -0.0473 -0.3438 0.0039, -0.0473 -0.4619 0.0043, -0.0473 -0.4619 0.0039, 0.0132 -0.4619 0.0043, 0.0132 -0.4619 0.0039, 0.0132 -0.4489 0.0043, 0.0132 -0.4489 0.0039, -0.0315 -0.4489 0.0043, -0.0315 -0.4489 0.0039, -0.0315 -0.4101 0.0043, -0.0315 -0.4101 0.0039, 0.0103 -0.4101 0.0043, 0.0103 -0.4101 0.0039, 0.0103 -0.3971 0.0043, 0.0103 -0.3971 0.0039, -0.0315 -0.3971 0.0043, -0.0315 -0.3971 0.0039, -0.0315 -0.3568 0.0043, -0.0315 -0.3568 0.0039, -0.0704 -0.3629 0.0043, -0.0704 -0.3499 0.0043, -0.0704 -0.3629 0.0039, -0.0704 -0.3499 0.0039, -0.0829 -0.3448 0.0043, -0.1029 -0.3424 0.0043, -0.1029 -0.3424 0.0039, -0.0996 -0.3424 0.0039, -0.0996 -0.3424 0.0043, -0.0949 -0.3431 0.0039, -0.0829 -0.3448 0.0039, -0.1098 -0.3431 0.0039, -0.1174 -0.3439 0.0043, -0.1174 -0.3439 0.0039, -0.1289 -0.3478 0.0043, -0.1289 -0.3478 0.0039, -0.1384 -0.3539 0.0043, -0.1384 -0.3539 0.0039, -0.1472 -0.3632 0.0043, -0.1472 -0.3632 0.0039, -0.1535 -0.3744 0.0043, -0.1535 -0.3744 0.0039, -0.1571 -0.3869 0.0043, -0.1571 -0.3869 0.0039, -0.1582 -0.4006 0.0043, -0.1582 -0.4006 0.0039, -0.11 -0.4624 0.0043, -0.0982 -0.4633 0.0043, -0.107 -0.4626 0.0039, -0.0982 -0.4633 0.0039, -0.11 -0.4624 0.0039, -0.1232 -0.4586 0.0039, -0.1232 -0.4586 0.0043, -0.1344 -0.4521 0.0039, -0.1344 -0.4521 0.0043, -0.1451 -0.4418 0.0039, -0.1451 -0.4418 0.0043, -0.152 -0.4308 0.0039, -0.152 -0.4308 0.0043, -0.1565 -0.4174 0.0039, -0.1565 -0.4174 0.0043, -0.0877 -0.4626 0.0039, -0.084 -0.4624 0.0043, -0.084 -0.4624 0.0039, -0.0704 -0.4587 0.0043, -0.0704 -0.4587 0.0039, -0.0704 -0.4428 0.0043, -0.0704 -0.4428 0.0039, -0.098 -0.4504 0.0043, -0.098 -0.4504 0.0039, -0.0837 -0.4485 0.0039, -0.0837 -0.4485 0.0043, -0.1424 -0.4016 0.0043, -0.1424 -0.4016 0.0039, -0.1418 -0.4108 0.0039, -0.1418 -0.4108 0.0043, -0.1387 -0.4234 0.0039, -0.1387 -0.4234 0.0043, -0.1338 -0.4325 0.0039, -0.1338 -0.4325 0.0043, -0.1267 -0.4404 0.0039, -0.1267 -0.4404 0.0043, -0.1185 -0.4459 0.0039, -0.1185 -0.4459 0.0043, -0.1096 -0.4491 0.0039, -0.1096 -0.4491 0.0043, -0.1007 -0.3553 0.0043, -0.1007 -0.3553 0.0039, -0.1117 -0.3566 0.0039, -0.1117 -0.3566 0.0043, -0.1203 -0.3597 0.0039, -0.1203 -0.3597 0.0043, -0.1275 -0.3646 0.0039, -0.1275 -0.3646 0.0043, -0.1331 -0.3705 0.0039, -0.1331 -0.3705 0.0043, -0.138 -0.3786 0.0039, -0.138 -0.3786 0.0043, -0.1412 -0.3888 0.0039, -0.1412 -0.3888 0.0043, -0.0725 -0.3617 0.0039, -0.0725 -0.3617 0.0043, -0.085 -0.3571 0.0039, -0.085 -0.3571 0.0043, -0.1683 -0.3568 0.0043, -0.1683 -0.3438 0.0043, -0.1683 -0.3568 0.0039, -0.1683 -0.3438 0.0039, -0.1703 -0.3438 0.0039, -0.2288 -0.3438 0.0043, -0.2288 -0.3438 0.0039, -0.2288 -0.4619 0.0043, -0.2288 -0.4619 0.0039, -0.213 -0.4619 0.0043, -0.213 -0.4619 0.0039, -0.213 -0.3568 0.0043, -0.213 -0.3568 0.0039, -0.1703 -0.3568 0.0039
            ]
        }
        coordIndex [
            0,1,2,-1,2,1,3,-1,1,4,3,-1,3,4,5,-1,4,6,5,-1,5,6,7,-1,6,8,7,-1,7,8,9,-1,8,10,9,-1,9,10,11,-1,10,12,11,-1,11,12,13,-1,12,14,13,-1,13,14,15,-1,14,0,15,-1,15,0,2,-1,16,17,14,-1,12,10,8,-1,17,18,14,-1,14,18,19,-1,14,19,0,-1,0,19,20,-1,0,20,21,-1,14,12,16,-1,16,12,8,-1,16,8,22,-1,22,8,6,-1,21,23,0,-1,0,23,22,-1,0,22,1,-1,1,22,6,-1,1,6,4,-1,16,22,24,-1,24,22,25,-1,17,16,26,-1,26,16,24,-1,17,26,27,-1,17,27,18,-1,18,27,28,-1,18,28,19,-1,20,19,29,-1,29,19,28,-1,20,29,30,-1,20,30,21,-1,21,30,31,-1,21,31,23,-1,22,23,25,-1,25,23,31,-1,32,33,34,-1,34,33,35,-1,33,36,35,-1,35,36,37,-1,36,38,37,-1,37,38,39,-1,40,41,42,-1,40,42,43,-1,43,42,44,-1,43,44,45,-1,45,44,46,-1,45,46,47,-1,47,46,48,-1,47,48,49,-1,49,48,50,-1,49,50,51,-1,51,50,52,-1,51,52,53,-1,53,52,54,-1,53,54,55,-1,55,54,39,-1,55,39,38,-1,32,34,56,-1,32,56,57,-1,57,56,58,-1,57,58,59,-1,59,58,60,-1,59,60,61,-1,61,60,62,-1,61,62,63,-1,63,62,64,-1,63,64,65,-1,65,64,66,-1,65,66,67,-1,67,66,41,-1,67,41,40,-1,45,47,68,-1,68,47,49,-1,68,49,69,-1,69,49,51,-1,69,51,70,-1,70,51,53,-1,70,53,71,-1,71,53,55,-1,71,55,72,-1,72,55,38,-1,72,38,73,-1,73,38,36,-1,73,36,74,-1,74,36,33,-1,74,33,75,-1,75,33,32,-1,75,32,76,-1,76,32,57,-1,76,57,77,-1,77,57,59,-1,77,59,78,-1,78,59,61,-1,78,61,79,-1,79,61,63,-1,79,63,80,-1,80,63,65,-1,80,65,81,-1,81,65,67,-1,81,67,82,-1,82,67,40,-1,82,40,83,-1,83,40,43,-1,83,43,84,-1,84,43,45,-1,84,45,68,-1,72,73,85,-1,85,73,86,-1,72,85,87,-1,72,87,71,-1,71,87,88,-1,71,88,70,-1,70,88,89,-1,70,89,69,-1,69,89,90,-1,69,90,68,-1,68,90,91,-1,68,91,84,-1,84,91,92,-1,84,92,83,-1,83,92,93,-1,83,93,82,-1,82,93,94,-1,82,94,81,-1,81,94,95,-1,81,95,80,-1,80,95,96,-1,80,96,79,-1,79,96,97,-1,79,97,78,-1,78,97,98,-1,78,98,77,-1,77,98,99,-1,77,99,76,-1,76,99,100,-1,76,100,75,-1,74,75,101,-1,101,75,100,-1,73,74,86,-1,86,74,101,-1,102,103,104,-1,104,103,105,-1,103,106,105,-1,105,106,107,-1,106,108,107,-1,107,108,109,-1,108,110,109,-1,109,110,111,-1,110,112,111,-1,111,112,113,-1,112,114,113,-1,113,114,115,-1,114,116,115,-1,115,116,117,-1,116,118,117,-1,117,118,119,-1,118,120,119,-1,119,120,121,-1,120,122,121,-1,121,122,123,-1,122,124,123,-1,123,124,125,-1,124,102,125,-1,125,102,104,-1,112,110,114,-1,114,110,108,-1,114,108,116,-1,103,102,106,-1,106,102,124,-1,106,124,122,-1,120,118,122,-1,122,118,116,-1,122,116,106,-1,106,116,108,-1,126,127,128,-1,128,127,129,-1,129,127,130,-1,131,132,133,-1,131,133,134,-1,134,133,135,-1,134,135,130,-1,130,135,136,-1,130,136,129,-1,132,131,137,-1,137,131,138,-1,137,138,139,-1,139,138,140,-1,139,140,141,-1,141,140,142,-1,141,142,143,-1,143,142,144,-1,143,144,145,-1,145,144,146,-1,145,146,147,-1,147,146,148,-1,147,148,149,-1,149,148,150,-1,149,150,151,-1,152,153,154,-1,154,153,155,-1,154,156,152,-1,152,156,157,-1,152,157,158,-1,158,157,159,-1,158,159,160,-1,160,159,161,-1,160,161,162,-1,162,161,163,-1,162,163,164,-1,164,163,165,-1,164,165,166,-1,166,165,151,-1,166,151,150,-1,155,153,167,-1,167,153,168,-1,167,168,169,-1,169,168,170,-1,169,170,171,-1,170,172,171,-1,171,172,173,-1,174,175,176,-1,174,176,177,-1,177,176,173,-1,177,173,172,-1,178,179,180,-1,178,180,181,-1,181,180,182,-1,181,182,183,-1,183,182,184,-1,183,184,185,-1,185,184,186,-1,185,186,187,-1,187,186,188,-1,187,188,189,-1,189,188,190,-1,189,190,191,-1,191,190,175,-1,191,175,174,-1,192,193,194,-1,192,194,195,-1,195,194,196,-1,195,196,197,-1,197,196,198,-1,197,198,199,-1,199,198,200,-1,199,200,201,-1,201,200,202,-1,201,202,203,-1,203,202,204,-1,203,204,205,-1,205,204,179,-1,205,179,178,-1,126,128,206,-1,126,206,207,-1,207,206,208,-1,207,208,209,-1,209,208,193,-1,209,193,192,-1,195,131,192,-1,192,131,134,-1,192,134,209,-1,209,134,130,-1,209,130,207,-1,207,130,127,-1,207,127,126,-1,172,170,177,-1,177,170,168,-1,177,168,174,-1,174,168,153,-1,174,153,191,-1,191,153,152,-1,191,152,189,-1,189,152,158,-1,189,158,187,-1,187,158,160,-1,187,160,185,-1,185,160,162,-1,185,162,183,-1,183,162,164,-1,183,164,181,-1,181,164,166,-1,181,166,178,-1,178,166,150,-1,178,150,205,-1,205,150,148,-1,205,148,203,-1,203,148,146,-1,203,146,201,-1,201,146,144,-1,201,144,199,-1,199,144,142,-1,199,142,197,-1,197,142,140,-1,197,140,195,-1,195,140,138,-1,195,138,131,-1,210,211,212,-1,212,211,213,-1,213,211,214,-1,214,211,215,-1,214,215,216,-1,215,217,216,-1,216,217,218,-1,217,219,218,-1,218,219,220,-1,219,221,220,-1,220,221,222,-1,222,221,223,-1,223,221,210,-1,223,210,212,-1,219,217,221,-1,221,217,215,-1,221,215,210,-1,210,215,211,-1,
        ]
    }
}
Shape{
    appearance Appearance {
        material  Material 	{
            diffuseColor 0.2235294117647059 0.2235294117647059 0.2235294117647059
            specularColor 0.11372549019607843 0.11372549019607843 0.11372549019607843
            ambientIntensity 0.2235
            transparency 0.0
            shininess 0.5
        }
    }
    geometry IndexedFaceSet {
        ccw TRUE
        solid FALSE
        coord DEF co Coordinate {
            point [
                0.1754 -0.3899 0.0039, 0.2149 -0.3899 0.0039, 0.193 -0.4392 0.0039, 0.1971 -0.4392 0.0039, 0.1941 -0.4433 0.0039, 0.196 -0.4433 0.0039, 0.1949 -0.4475 0.0039, 0.1953 -0.4475 0.0039, 0.055 -0.4489 0.0039, 0.055 -0.3568 0.0039, 0.0724 -0.4489 0.0039, 0.0717 -0.3568 0.0039, 0.0842 -0.3579 0.0039, 0.1183 -0.404 0.0039, 0.1173 -0.4158 0.0039, 0.1146 -0.4251 0.0039, 0.0864 -0.4475 0.0039, 0.0941 -0.361 0.0039, 0.1022 -0.3658 0.0039, 0.1088 -0.3724 0.0039, 0.1138 -0.3805 0.0039, 0.1172 -0.3916 0.0039, 0.1105 -0.4324 0.0039, 0.1047 -0.4385 0.0039, 0.0961 -0.444 0.0039
            ]
        }
        coordIndex [
            0,1,2,-1,2,1,3,-1,2,3,4,-1,4,3,5,-1,4,5,6,-1,6,5,7,-1,8,9,10,-1,10,9,11,-1,10,11,12,-1,13,14,10,-1,10,14,15,-1,10,15,16,-1,12,17,10,-1,10,17,18,-1,10,18,19,-1,19,20,10,-1,10,20,21,-1,10,21,13,-1,22,23,15,-1,15,23,24,-1,15,24,16,-1,
        ]
    }
}