#VRML V2.0 utf8
# 3D model generated by easyeda2kicad.py (https://github.com/uPesy/easyeda2kicad.py)

Shape{
    appearance Appearance {
        material  Material 	{
            diffuseColor 0.6666666666666666 0.6666666666666666 0.6666666666666666
            specularColor 0.4666666666666667 0.4666666666666667 0.4666666666666667
            ambientIntensity 0.6667
            transparency 0.0
            shininess 0.5
        }
    }
    geometry IndexedFaceSet {
        ccw TRUE
        solid FALSE
        coord DEF co Coordinate {
            point [
                -0.1575 0.4921 0.0, -0.0658 0.4921 0.0, -0.0658 0.0097 0.0, -0.2559 0.3937 0.0, -0.0521 -0.0018 0.0, -0.0651 -0.0018 0.0, -0.0651 -0.0652 0.0, -0.0658 -0.1277 0.0, -0.0651 -0.1862 0.0, -0.0651 -0.2467 0.0, 0.0531 -0.0047 0.0, 0.0401 -0.0047 0.0, -0.0589 -0.0882 0.0, -0.046 -0.0882 0.0, 0.0531 -0.0652 0.0, -0.0118 -0.0076 0.0, -0.0118 -0.0493 0.0, -0.0521 -0.0493 0.0, -0.055 -0.1562 0.0, -0.0456 -0.1651 0.0, 0.0012 -0.0076 0.0, 0.0012 -0.0493 0.0, 0.0401 -0.0493 0.0, 0.022 -0.1698 0.0, 0.033 -0.1629 0.0, 0.0531 -0.2308 0.0, 0.2559 0.0097 0.0, 0.0498 -0.0882 0.0, 0.034 -0.0882 0.0, -0.0521 -0.1862 0.0, 0.0402 -0.1275 0.0, 0.037 -0.1364 0.0, -0.0471 -0.0903 0.0, 0.0316 -0.1445 0.0, 0.0237 -0.1517 0.0, -0.0073 -0.1602 0.0, -0.02 -0.159 0.0, -0.0302 -0.1558 0.0, -0.0523 -0.1296 0.0, -0.0535 -0.1185 0.0, -0.0491 -0.1382 0.0, -0.0442 -0.1454 0.0, -0.0384 -0.151 0.0, -0.0518 -0.1029 0.0, 0.0397 -0.1015 0.0, 0.0415 -0.1159 0.0, 0.0146 -0.1565 0.0, 0.0019 -0.1597 0.0, -0.065 -0.1353 0.0, -0.061 -0.1467 0.0, 0.0433 -0.1522 0.0, 0.0497 -0.141 0.0, 0.0535 -0.1278 0.0, -0.0344 -0.1714 0.0, -0.0219 -0.1749 0.0, -0.0521 -0.2308 0.0, -0.0082 -0.1761 0.0, 0.0086 -0.1744 0.0, 0.0545 -0.116 0.0, 0.0535 -0.1019 0.0, -0.0641 -0.1008 0.0, -0.0658 -0.1127 0.0, -0.2559 0.0097 0.0, -0.0664 -0.1175 0.0, -0.0665 -0.1207 0.0, 0.0531 -0.2467 0.0, 0.2559 -0.4921 0.0, -0.0658 -0.4921 0.0, -0.2559 -0.4921 0.0, -0.0651 0.2143 0.0, -0.0319 0.2023 0.0, -0.0319 0.1535 0.0, -0.0651 0.1422 0.0, -0.0651 0.125 0.0, -0.0651 0.2315 0.0, 0.0531 0.1854 0.0, 0.2559 0.4921 0.0, 0.0531 0.1696 0.0, 0.0531 0.0212 0.0, 0.0531 0.0546 0.0, 0.0376 0.0985 0.0, 0.0283 0.1068 0.0, 0.0182 0.1123 0.0, -0.0327 0.1104 0.0, -0.0432 0.1036 0.0, -0.0526 0.0939 0.0, -0.0597 0.0816 0.0, 0.0512 0.0716 0.0, 0.0464 0.0854 0.0, 0.0378 0.0983 0.0, -0.0638 0.068 0.0, -0.0651 0.0534 0.0, -0.0651 0.0212 0.0, 0.0065 0.1155 0.0, -0.0045 0.1163 0.0, -0.0203 0.1147 0.0
            ]
        }
        coordIndex [
            0,1,2,-1,0,2,3,-1,4,5,2,-1,2,5,6,-1,7,8,9,-1,10,11,2,-1,12,6,13,-1,13,6,14,-1,15,16,17,-1,18,19,8,-1,17,4,15,-1,15,4,2,-1,15,2,20,-1,20,2,11,-1,20,11,21,-1,21,11,22,-1,23,24,25,-1,26,27,28,-1,8,19,29,-1,30,31,32,-1,32,31,33,-1,32,33,34,-1,35,36,32,-1,32,36,37,-1,38,39,40,-1,40,39,41,-1,37,42,32,-1,32,42,41,-1,32,41,43,-1,43,41,39,-1,10,26,14,-1,14,26,28,-1,14,28,13,-1,13,28,44,-1,13,44,32,-1,32,44,45,-1,32,45,30,-1,34,46,32,-1,32,46,47,-1,32,47,35,-1,7,48,8,-1,8,48,49,-1,8,49,18,-1,50,51,26,-1,26,51,52,-1,19,53,29,-1,29,53,54,-1,29,54,55,-1,55,54,56,-1,55,56,25,-1,25,56,57,-1,25,57,23,-1,52,58,26,-1,26,58,59,-1,26,59,27,-1,12,60,6,-1,6,60,61,-1,6,61,2,-1,2,61,62,-1,2,62,3,-1,61,63,62,-1,62,63,64,-1,62,64,7,-1,24,50,25,-1,25,50,26,-1,25,26,65,-1,65,26,66,-1,65,66,9,-1,9,66,67,-1,9,67,7,-1,7,67,68,-1,7,68,62,-1,69,70,71,-1,2,72,73,-1,71,72,69,-1,69,72,2,-1,69,2,74,-1,74,2,1,-1,74,1,75,-1,75,1,76,-1,75,76,77,-1,77,76,26,-1,10,2,26,-1,26,2,78,-1,26,78,79,-1,80,81,77,-1,77,81,82,-1,83,84,73,-1,73,84,85,-1,73,85,86,-1,79,87,26,-1,26,87,88,-1,26,88,77,-1,77,88,89,-1,77,89,80,-1,86,90,73,-1,73,90,91,-1,73,91,2,-1,2,91,92,-1,2,92,78,-1,82,93,77,-1,77,93,94,-1,77,94,73,-1,73,94,95,-1,73,95,83,-1,
        ]
    }
}
Shape{
    appearance Appearance {
        material  Material 	{
            diffuseColor 0.20784313725490197 0.20784313725490197 0.20784313725490197
            specularColor 0.01568627450980392 0.01568627450980392 0.01568627450980392
            ambientIntensity 0.298
            transparency 0.0
            shininess 0.5
        }
    }
    geometry IndexedFaceSet {
        ccw TRUE
        solid FALSE
        coord DEF co Coordinate {
            point [
                0.5079 -0.5413 0.0079, 0.5906 -0.5413 0.0079, 0.5906 -0.5906 0.0079, -0.4653 0.4697 0.0079, -0.4619 0.4796 0.0079, -0.2559 0.3937 0.0079, -0.5906 0.5906 0.0079, 0.5906 0.5906 0.0079, -0.1575 0.4921 0.0079, 0.2559 0.4921 0.0079, 0.2559 -0.4921 0.0079, -0.2559 -0.4921 0.0079, -0.5906 -0.5906 0.0079, -0.4607 0.4941 0.0079, -0.4619 0.5046 0.0079, 0.4619 0.2828 0.0079, 0.4653 0.2728 0.0079, 0.4653 0.1209 0.0079, -0.471 -0.5236 0.0079, -0.4653 -0.5146 0.0079, -0.4607 0.4902 0.0079, -0.4653 0.5146 0.0079, -0.471 0.5236 0.0079, -0.4785 0.531 0.0079, -0.4874 0.5367 0.0079, -0.4974 0.5402 0.0079, -0.5079 0.5413 0.0079, -0.5906 0.5413 0.0079, -0.5906 -0.5413 0.0079, -0.5079 -0.5413 0.0079, -0.4619 -0.3078 0.0079, -0.4607 -0.2972 0.0079, -0.4619 -0.0859 0.0079, -0.4653 -0.076 0.0079, -0.4653 0.076 0.0079, -0.471 -0.1298 0.0079, -0.4653 -0.1209 0.0079, -0.4785 -0.2564 0.0079, -0.4785 0.3342 0.0079, -0.4785 0.4532 0.0079, -0.471 0.3267 0.0079, -0.4653 0.3177 0.0079, 0.471 0.2639 0.0079, 0.4785 0.2564 0.0079, 0.471 0.1298 0.0079, 0.471 -0.3267 0.0079, 0.4785 -0.3342 0.0079, 0.4785 -0.4532 0.0079, -0.4974 -0.5402 0.0079, -0.4874 -0.5367 0.0079, -0.4785 -0.531 0.0079, -0.4653 -0.2728 0.0079, -0.4619 -0.2828 0.0079, -0.4607 -0.2933 0.0079, -0.471 -0.2639 0.0079, -0.4607 0.1004 0.0079, -0.4619 0.1109 0.0079, -0.4653 0.1209 0.0079, -0.471 0.1298 0.0079, -0.4785 0.1373 0.0079, -0.4874 0.3398 0.0079, -0.4974 0.3433 0.0079, -0.4874 0.4476 0.0079, -0.471 0.4607 0.0079, 0.471 0.5236 0.0079, 0.4653 0.5146 0.0079, 0.4619 -0.1109 0.0079, 0.4653 -0.1209 0.0079, 0.4653 -0.2728 0.0079, -0.4619 0.2828 0.0079, -0.4607 0.2933 0.0079, 0.5906 0.5413 0.0079, 0.5079 0.5413 0.0079, 0.4974 0.1465 0.0079, 0.4874 0.143 0.0079, 0.4785 0.1373 0.0079, 0.4874 -0.3398 0.0079, 0.4974 -0.3433 0.0079, 0.4874 -0.4476 0.0079, 0.471 -0.4607 0.0079, 0.4653 -0.3177 0.0079, -0.4785 -0.4532 0.0079, -0.4874 -0.4476 0.0079, -0.4874 -0.3398 0.0079, -0.4974 -0.4441 0.0079, -0.4785 -0.3342 0.0079, -0.471 -0.3267 0.0079, -0.4653 -0.3177 0.0079, -0.4785 0.0595 0.0079, -0.4785 -0.0595 0.0079, -0.4874 -0.0539 0.0079, -0.471 -0.067 0.0079, -0.471 0.067 0.0079, -0.4874 0.143 0.0079, -0.4874 0.2507 0.0079, -0.4974 0.1465 0.0079, -0.4607 0.2972 0.0079, -0.4619 0.3078 0.0079, 0.4974 0.5402 0.0079, 0.4874 0.5367 0.0079, 0.4785 0.531 0.0079, 0.4619 0.3078 0.0079, 0.4607 0.2972 0.0079, 0.4607 0.2933 0.0079, 0.4607 -0.2933 0.0079, 0.4607 -0.2972 0.0079, 0.4619 -0.3078 0.0079, -0.4619 -0.5046 0.0079, -0.4607 -0.4941 0.0079, -0.4607 -0.4902 0.0079, -0.4619 -0.4796 0.0079, -0.4653 -0.4697 0.0079, -0.471 -0.4607 0.0079, -0.4974 -0.1465 0.0079, -0.4874 -0.143 0.0079, -0.4785 -0.1373 0.0079, -0.4785 0.2564 0.0079, -0.471 0.2639 0.0079, -0.4653 0.2728 0.0079, 0.4619 0.1109 0.0079, 0.4607 0.1004 0.0079, 0.4785 -0.0595 0.0079, 0.4785 0.0595 0.0079, 0.4874 0.0539 0.0079, 0.471 -0.067 0.0079, 0.4653 -0.076 0.0079, 0.471 0.067 0.0079, 0.4619 -0.0859 0.0079, 0.4607 -0.0965 0.0079, 0.4653 -0.4697 0.0079, 0.4619 -0.4796 0.0079, 0.4607 -0.4902 0.0079, 0.4653 -0.5146 0.0079, 0.471 -0.5236 0.0079, 0.4785 -0.531 0.0079, 0.4874 -0.5367 0.0079, 0.4974 -0.5402 0.0079, -0.4607 -0.0965 0.0079, -0.4619 0.0859 0.0079, -0.4607 0.0965 0.0079, -0.5906 0.3445 0.0079, -0.5906 0.4429 0.0079, -0.5079 0.3445 0.0079, -0.5079 0.4429 0.0079, -0.4974 0.4441 0.0079, 0.4785 0.4532 0.0079, 0.4874 0.4476 0.0079, 0.4874 0.3398 0.0079, 0.4974 0.4441 0.0079, 0.4785 0.3342 0.0079, 0.471 0.3267 0.0079, 0.4653 0.3177 0.0079, 0.4607 0.0965 0.0079, 0.4619 0.0859 0.0079, 0.4653 0.076 0.0079, 0.4607 -0.1004 0.0079, 0.4785 -0.2564 0.0079, 0.4785 -0.1373 0.0079, 0.4874 -0.2507 0.0079, 0.4874 -0.143 0.0079, 0.4974 -0.1465 0.0079, 0.471 -0.1298 0.0079, 0.471 -0.2639 0.0079, 0.4607 -0.4941 0.0079, 0.4619 -0.5046 0.0079, -0.4619 -0.1109 0.0079, -0.4607 -0.1004 0.0079, 0.4619 0.5046 0.0079, 0.4607 0.4941 0.0079, 0.4607 0.4902 0.0079, 0.4619 0.4796 0.0079, 0.4653 0.4697 0.0079, 0.471 0.4607 0.0079, 0.5906 0.2461 0.0079, 0.5906 0.1476 0.0079, 0.5079 0.2461 0.0079, 0.5079 0.1476 0.0079, 0.4974 0.2472 0.0079, 0.4874 0.2507 0.0079, 0.4619 -0.2828 0.0079, 0.5906 -0.3445 0.0079, 0.5906 -0.4429 0.0079, 0.5079 -0.3445 0.0079, 0.5079 -0.4429 0.0079, 0.4974 -0.4441 0.0079, -0.5906 -0.4429 0.0079, -0.5906 -0.3445 0.0079, -0.5079 -0.4429 0.0079, -0.5079 -0.3445 0.0079, -0.4974 -0.3433 0.0079, -0.5906 0.1476 0.0079, -0.5906 0.2461 0.0079, -0.5079 0.1476 0.0079, -0.5079 0.2461 0.0079, -0.4974 0.2472 0.0079, -0.5906 -0.0492 0.0079, -0.5906 0.0492 0.0079, -0.5079 -0.0492 0.0079, -0.5079 0.0492 0.0079, -0.4974 -0.0504 0.0079, -0.4974 0.0504 0.0079, -0.4874 0.0539 0.0079, -0.5906 -0.2461 0.0079, -0.5906 -0.1476 0.0079, -0.5079 -0.2461 0.0079, -0.5079 -0.1476 0.0079, -0.4974 -0.2472 0.0079, -0.4874 -0.2507 0.0079, 0.5906 0.4429 0.0079, 0.5906 0.3445 0.0079, 0.5079 0.4429 0.0079, 0.5079 0.3445 0.0079, 0.4974 0.3433 0.0079, 0.5906 0.0492 0.0079, 0.5906 -0.0492 0.0079, 0.5079 0.0492 0.0079, 0.5079 -0.0492 0.0079, 0.4974 0.0504 0.0079, 0.4974 -0.0504 0.0079, 0.4874 -0.0539 0.0079, 0.5906 -0.1476 0.0079, 0.5906 -0.2461 0.0079, 0.5079 -0.1476 0.0079, 0.5079 -0.2461 0.0079, 0.4974 -0.2472 0.0079, 0.5906 -0.5906 0.2953, -0.5906 -0.5906 0.2953, 0.5906 -0.4429 0.0787, 0.5906 -0.5413 0.0787, 0.5906 -0.2461 0.0787, 0.5906 -0.1476 0.0787, 0.5906 -0.3445 0.0787, 0.5906 0.5906 0.2953, 0.5906 -0.0492 0.0787, 0.5906 0.1476 0.0787, 0.5906 0.2461 0.0787, 0.5906 0.3445 0.0787, 0.5906 0.0492 0.0787, 0.5906 0.5413 0.0787, 0.5906 0.4429 0.0787, -0.5906 0.5906 0.2953, -0.5906 -0.5413 0.0787, -0.5906 -0.4429 0.0787, -0.5906 0.5413 0.0787, -0.5906 0.4429 0.0787, -0.5906 0.3445 0.0787, -0.5906 0.2461 0.0787, -0.5906 0.0492 0.0787, -0.5906 -0.0492 0.0787, -0.5906 -0.1476 0.0787, -0.5906 0.1476 0.0787, -0.5906 -0.3445 0.0787, -0.5906 -0.2461 0.0787, -0.4626 0.4842 0.2953, -0.4484 0.4901 0.2953, -0.376 0.4484 0.2953, -0.3819 0.4626 0.2953, -0.3913 0.4748 0.2953, -0.4331 0.4921 0.2953, -0.4178 0.4901 0.2953, -0.4035 0.4842 0.2953, -0.4901 0.4484 0.2953, -0.4842 0.4626 0.2953, -0.4748 0.4748 0.2953, -0.374 0.4331 0.2953, -0.376 0.4178 0.2953, -0.3819 0.4035 0.2953, -0.3913 0.3913 0.2953, -0.4035 0.3819 0.2953, -0.4178 0.376 0.2953, -0.4331 0.374 0.2953, -0.4484 0.376 0.2953, -0.4626 0.3819 0.2953, -0.4901 0.4178 0.2953, -0.4921 0.4331 0.2953, -0.4748 0.3913 0.2953, -0.4842 0.4035 0.2953
            ]
        }
        coordIndex [
            0,1,2,-1,3,4,5,-1,6,7,8,-1,8,7,9,-1,10,2,11,-1,11,2,12,-1,13,14,8,-1,15,16,17,-1,18,19,11,-1,5,4,8,-1,8,4,20,-1,8,20,13,-1,14,21,8,-1,8,21,22,-1,8,22,23,-1,23,24,8,-1,8,24,25,-1,8,25,6,-1,6,25,26,-1,6,26,27,-1,12,28,29,-1,11,30,31,-1,32,33,34,-1,35,36,37,-1,38,39,40,-1,40,39,41,-1,16,42,17,-1,17,42,43,-1,17,43,44,-1,45,46,47,-1,29,48,12,-1,12,48,49,-1,12,49,11,-1,11,49,50,-1,11,50,18,-1,51,5,52,-1,52,5,11,-1,52,11,53,-1,53,11,31,-1,37,36,54,-1,55,56,5,-1,56,57,5,-1,5,57,58,-1,5,58,59,-1,38,60,39,-1,39,60,61,-1,39,61,62,-1,41,39,5,-1,5,39,63,-1,5,63,3,-1,64,65,9,-1,66,67,68,-1,5,69,70,-1,7,71,72,-1,73,74,43,-1,43,74,75,-1,43,75,44,-1,46,76,47,-1,47,76,77,-1,47,77,78,-1,79,10,47,-1,47,10,80,-1,47,80,45,-1,81,82,83,-1,83,82,84,-1,83,85,11,-1,85,86,11,-1,11,86,87,-1,11,87,30,-1,88,89,90,-1,33,91,34,-1,34,91,89,-1,34,89,92,-1,92,89,88,-1,59,93,94,-1,94,93,95,-1,70,96,5,-1,5,96,97,-1,5,97,41,-1,72,98,7,-1,7,98,99,-1,7,99,9,-1,9,99,100,-1,9,100,64,-1,101,102,9,-1,9,102,103,-1,9,103,15,-1,104,105,10,-1,10,105,106,-1,10,106,80,-1,19,107,11,-1,11,107,108,-1,11,108,109,-1,109,110,11,-1,11,110,111,-1,11,111,83,-1,83,111,112,-1,83,112,81,-1,113,114,37,-1,37,114,115,-1,37,115,35,-1,94,116,59,-1,59,116,117,-1,59,117,5,-1,5,117,118,-1,5,118,69,-1,15,17,9,-1,9,17,119,-1,9,119,120,-1,121,122,123,-1,121,124,122,-1,122,124,125,-1,122,125,126,-1,125,127,9,-1,9,127,128,-1,79,129,10,-1,10,129,130,-1,10,130,131,-1,10,132,133,-1,133,134,10,-1,10,134,135,-1,10,135,2,-1,2,135,136,-1,2,136,0,-1,32,34,137,-1,137,34,138,-1,137,138,5,-1,5,138,139,-1,5,139,55,-1,140,141,142,-1,142,141,143,-1,142,143,61,-1,61,143,144,-1,61,144,62,-1,145,146,147,-1,147,146,148,-1,147,149,9,-1,149,150,9,-1,9,150,151,-1,9,151,101,-1,120,152,9,-1,9,152,153,-1,9,153,125,-1,125,153,154,-1,125,154,126,-1,66,68,155,-1,156,157,158,-1,158,157,159,-1,158,159,160,-1,67,161,68,-1,68,161,157,-1,68,157,162,-1,162,157,156,-1,131,163,10,-1,10,163,164,-1,10,164,132,-1,54,36,51,-1,51,36,165,-1,51,165,5,-1,5,165,166,-1,5,166,137,-1,65,167,9,-1,9,167,168,-1,9,168,169,-1,169,170,9,-1,9,170,171,-1,9,171,147,-1,147,171,172,-1,147,172,145,-1,173,174,175,-1,175,174,176,-1,175,176,177,-1,177,176,73,-1,177,73,178,-1,178,73,43,-1,128,155,9,-1,9,155,68,-1,9,68,10,-1,10,68,179,-1,10,179,104,-1,180,181,182,-1,182,181,183,-1,182,183,77,-1,77,183,184,-1,77,184,78,-1,185,186,187,-1,187,186,188,-1,187,188,84,-1,84,188,189,-1,84,189,83,-1,190,191,192,-1,192,191,193,-1,192,193,95,-1,95,193,194,-1,95,194,94,-1,195,196,197,-1,197,196,198,-1,197,198,199,-1,199,198,200,-1,199,200,90,-1,90,200,201,-1,90,201,88,-1,202,203,204,-1,204,203,205,-1,204,205,206,-1,206,205,113,-1,206,113,207,-1,207,113,37,-1,208,209,210,-1,210,209,211,-1,210,211,148,-1,148,211,212,-1,148,212,147,-1,213,214,215,-1,215,214,216,-1,215,216,217,-1,217,216,218,-1,217,218,123,-1,123,218,219,-1,123,219,121,-1,220,221,222,-1,222,221,223,-1,222,223,160,-1,160,223,224,-1,160,224,158,-1,225,226,2,-1,2,226,12,-1,227,225,228,-1,228,225,2,-1,228,2,1,-1,221,220,229,-1,229,220,230,-1,181,180,227,-1,227,180,231,-1,227,231,225,-1,225,231,229,-1,225,229,232,-1,232,229,230,-1,232,230,233,-1,234,174,173,-1,235,236,232,-1,173,235,234,-1,234,235,232,-1,234,232,237,-1,237,232,233,-1,237,233,213,-1,213,233,214,-1,71,7,238,-1,238,7,232,-1,238,232,239,-1,239,232,236,-1,239,236,208,-1,208,236,209,-1,240,232,6,-1,6,232,7,-1,28,12,241,-1,241,12,226,-1,241,226,242,-1,6,27,243,-1,141,140,244,-1,244,140,245,-1,6,243,240,-1,240,243,244,-1,240,244,226,-1,226,244,245,-1,226,245,246,-1,247,196,195,-1,248,249,226,-1,195,248,247,-1,247,248,226,-1,247,226,250,-1,250,226,246,-1,250,246,190,-1,190,246,191,-1,251,186,185,-1,203,202,249,-1,249,202,252,-1,249,252,226,-1,226,252,251,-1,226,251,242,-1,242,251,185,-1,253,254,240,-1,255,232,256,-1,256,232,257,-1,254,258,240,-1,240,258,259,-1,240,259,232,-1,232,259,260,-1,232,260,257,-1,261,262,240,-1,240,262,263,-1,240,263,253,-1,255,264,232,-1,232,264,265,-1,232,265,225,-1,225,265,266,-1,266,267,225,-1,225,267,268,-1,225,268,226,-1,226,268,269,-1,269,270,226,-1,226,270,271,-1,226,271,272,-1,226,273,240,-1,240,273,274,-1,240,274,261,-1,272,275,226,-1,226,275,276,-1,226,276,273,-1,
        ]
    }
}
Shape{
    appearance Appearance {
        material  Material 	{
            diffuseColor 0.6666666666666666 0.6666666666666666 0.6666666666666666
            specularColor 0.4666666666666667 0.4666666666666667 0.4666666666666667
            ambientIntensity 0.6667
            transparency 0.0
            shininess 0.5
        }
    }
    geometry IndexedFaceSet {
        ccw TRUE
        solid FALSE
        coord DEF co Coordinate {
            point [
                0.5906 -0.5413 0.0787, 0.5906 -0.4429 0.0787, 0.5906 -0.5413 0.0787, 0.5906 -0.4429 0.0787, 0.5906 -0.4429 0.0079, 0.5906 -0.4429 0.0, 0.5079 -0.4429 0.0079, 0.5079 -0.4429 0.0, 0.5906 -0.5413 0.0079, 0.5079 -0.5413 0.0079, 0.5079 -0.5413 0.0, 0.5906 -0.5413 0.0, 0.4974 -0.4441 0.0, 0.4974 -0.4441 0.0079, 0.4874 -0.4476 0.0, 0.4874 -0.4476 0.0079, 0.4785 -0.4532 0.0, 0.4785 -0.4532 0.0079, 0.471 -0.4607 0.0, 0.471 -0.4607 0.0079, 0.4653 -0.4697 0.0, 0.4653 -0.4697 0.0079, 0.4619 -0.4796 0.0, 0.4619 -0.4796 0.0079, 0.4607 -0.4902 0.0, 0.4607 -0.4902 0.0079, 0.4607 -0.4941 0.0079, 0.4607 -0.4941 0.0, 0.4619 -0.5046 0.0, 0.4619 -0.5046 0.0079, 0.4653 -0.5146 0.0, 0.4653 -0.5146 0.0079, 0.471 -0.5236 0.0, 0.471 -0.5236 0.0079, 0.4785 -0.531 0.0, 0.4785 -0.531 0.0079, 0.4874 -0.5367 0.0, 0.4874 -0.5367 0.0079, 0.4974 -0.5402 0.0, 0.4974 -0.5402 0.0079, 0.5906 -0.3445 0.0787, 0.5906 -0.2461 0.0787, 0.5906 -0.3445 0.0787, 0.5906 -0.2461 0.0787, 0.5906 -0.2461 0.0079, 0.5906 -0.2461 0.0, 0.5079 -0.2461 0.0079, 0.5079 -0.2461 0.0, 0.4974 -0.2472 0.0, 0.4974 -0.2472 0.0079, 0.4874 -0.2507 0.0, 0.4874 -0.2507 0.0079, 0.4785 -0.2564 0.0, 0.4785 -0.2564 0.0079, 0.471 -0.2639 0.0, 0.471 -0.2639 0.0079, 0.4653 -0.2728 0.0, 0.4653 -0.2728 0.0079, 0.4619 -0.2828 0.0, 0.4619 -0.2828 0.0079, 0.4607 -0.2933 0.0, 0.4607 -0.2933 0.0079, 0.4607 -0.2972 0.0079, 0.4607 -0.2972 0.0, 0.4619 -0.3078 0.0, 0.4619 -0.3078 0.0079, 0.4653 -0.3177 0.0, 0.4653 -0.3177 0.0079, 0.471 -0.3267 0.0, 0.471 -0.3267 0.0079, 0.4785 -0.3342 0.0, 0.4785 -0.3342 0.0079, 0.4874 -0.3398 0.0, 0.4874 -0.3398 0.0079, 0.4974 -0.3433 0.0, 0.4974 -0.3433 0.0079, 0.5079 -0.3445 0.0, 0.5079 -0.3445 0.0079, 0.5906 -0.3445 0.0079, 0.5906 -0.3445 0.0, 0.5906 -0.1476 0.0787, 0.5906 -0.0492 0.0787, 0.5906 -0.1476 0.0787, 0.5906 -0.0492 0.0787, 0.5906 -0.0492 0.0079, 0.5906 -0.0492 0.0, 0.5079 -0.0492 0.0079, 0.5079 -0.0492 0.0, 0.4974 -0.0504 0.0, 0.4974 -0.0504 0.0079, 0.4874 -0.0539 0.0, 0.4874 -0.0539 0.0079, 0.4785 -0.0595 0.0, 0.4785 -0.0595 0.0079, 0.471 -0.067 0.0, 0.471 -0.067 0.0079, 0.4653 -0.076 0.0, 0.4653 -0.076 0.0079, 0.4619 -0.0859 0.0, 0.4619 -0.0859 0.0079, 0.4607 -0.0965 0.0, 0.4607 -0.0965 0.0079, 0.4607 -0.1004 0.0079, 0.4607 -0.1004 0.0, 0.4619 -0.1109 0.0, 0.4619 -0.1109 0.0079, 0.4653 -0.1209 0.0, 0.4653 -0.1209 0.0079, 0.471 -0.1298 0.0, 0.471 -0.1298 0.0079, 0.4785 -0.1373 0.0, 0.4785 -0.1373 0.0079, 0.4874 -0.143 0.0, 0.4874 -0.143 0.0079, 0.4974 -0.1465 0.0, 0.4974 -0.1465 0.0079, 0.5079 -0.1476 0.0, 0.5079 -0.1476 0.0079, 0.5906 -0.1476 0.0079, 0.5906 -0.1476 0.0, 0.5906 0.0492 0.0787, 0.5906 0.1476 0.0787, 0.5906 0.0492 0.0787, 0.5906 0.1476 0.0787, 0.5906 0.1476 0.0079, 0.5906 0.1476 0.0, 0.5079 0.1476 0.0079, 0.5079 0.1476 0.0, 0.4974 0.1465 0.0, 0.4974 0.1465 0.0079, 0.4874 0.143 0.0, 0.4874 0.143 0.0079, 0.4785 0.1373 0.0, 0.4785 0.1373 0.0079, 0.471 0.1298 0.0, 0.471 0.1298 0.0079, 0.4653 0.1209 0.0, 0.4653 0.1209 0.0079, 0.4619 0.1109 0.0, 0.4619 0.1109 0.0079, 0.4607 0.1004 0.0, 0.4607 0.1004 0.0079, 0.4607 0.0965 0.0079, 0.4607 0.0965 0.0, 0.4619 0.0859 0.0, 0.4619 0.0859 0.0079, 0.4653 0.076 0.0, 0.4653 0.076 0.0079, 0.471 0.067 0.0, 0.471 0.067 0.0079, 0.4785 0.0595 0.0, 0.4785 0.0595 0.0079, 0.4874 0.0539 0.0, 0.4874 0.0539 0.0079, 0.4974 0.0504 0.0, 0.4974 0.0504 0.0079, 0.5079 0.0492 0.0, 0.5079 0.0492 0.0079, 0.5906 0.0492 0.0079, 0.5906 0.0492 0.0, 0.5906 0.2461 0.0787, 0.5906 0.3445 0.0787, 0.5906 0.2461 0.0787, 0.5906 0.3445 0.0787, 0.5906 0.3445 0.0079, 0.5906 0.3445 0.0, 0.5079 0.3445 0.0079, 0.5079 0.3445 0.0, 0.4974 0.3433 0.0, 0.4974 0.3433 0.0079, 0.4874 0.3398 0.0, 0.4874 0.3398 0.0079, 0.4785 0.3342 0.0, 0.4785 0.3342 0.0079, 0.471 0.3267 0.0, 0.471 0.3267 0.0079, 0.4653 0.3177 0.0, 0.4653 0.3177 0.0079, 0.4619 0.3078 0.0, 0.4619 0.3078 0.0079, 0.4607 0.2972 0.0, 0.4607 0.2972 0.0079, 0.4607 0.2933 0.0079, 0.4607 0.2933 0.0, 0.4619 0.2828 0.0, 0.4619 0.2828 0.0079, 0.4653 0.2728 0.0, 0.4653 0.2728 0.0079, 0.471 0.2639 0.0, 0.471 0.2639 0.0079, 0.4785 0.2564 0.0, 0.4785 0.2564 0.0079, 0.4874 0.2507 0.0, 0.4874 0.2507 0.0079, 0.4974 0.2472 0.0, 0.4974 0.2472 0.0079, 0.5079 0.2461 0.0, 0.5079 0.2461 0.0079, 0.5906 0.2461 0.0079, 0.5906 0.2461 0.0, 0.5906 0.4429 0.0787, 0.5906 0.5413 0.0787, 0.5906 0.4429 0.0787, 0.5906 0.5413 0.0787, 0.5906 0.5413 0.0079, 0.5906 0.5413 0.0, 0.5079 0.5413 0.0079, 0.5079 0.5413 0.0, 0.4974 0.5402 0.0, 0.4974 0.5402 0.0079, 0.4874 0.5367 0.0, 0.4874 0.5367 0.0079, 0.4785 0.531 0.0, 0.4785 0.531 0.0079, 0.471 0.5236 0.0, 0.471 0.5236 0.0079, 0.4653 0.5146 0.0, 0.4653 0.5146 0.0079, 0.4619 0.5046 0.0, 0.4619 0.5046 0.0079, 0.4607 0.4941 0.0, 0.4607 0.4941 0.0079, 0.4607 0.4902 0.0079, 0.4607 0.4902 0.0, 0.4619 0.4796 0.0, 0.4619 0.4796 0.0079, 0.4653 0.4697 0.0, 0.4653 0.4697 0.0079, 0.471 0.4607 0.0, 0.471 0.4607 0.0079, 0.4785 0.4532 0.0, 0.4785 0.4532 0.0079, 0.4874 0.4476 0.0, 0.4874 0.4476 0.0079, 0.4974 0.4441 0.0, 0.4974 0.4441 0.0079, 0.5079 0.4429 0.0, 0.5079 0.4429 0.0079, 0.5906 0.4429 0.0079, 0.5906 0.4429 0.0, -0.5906 0.5413 0.0787, -0.5906 0.4429 0.0787, -0.5906 0.5413 0.0787, -0.5906 0.4429 0.0787, -0.5906 0.4429 0.0079, -0.5906 0.4429 0.0, -0.5079 0.4429 0.0079, -0.5079 0.4429 0.0, -0.4974 0.4441 0.0, -0.4974 0.4441 0.0079, -0.4874 0.4476 0.0, -0.4874 0.4476 0.0079, -0.4785 0.4532 0.0, -0.4785 0.4532 0.0079, -0.471 0.4607 0.0, -0.471 0.4607 0.0079, -0.4653 0.4697 0.0, -0.4653 0.4697 0.0079, -0.4619 0.4796 0.0, -0.4619 0.4796 0.0079, -0.4607 0.4902 0.0, -0.4607 0.4902 0.0079, -0.4607 0.4941 0.0079, -0.4607 0.4941 0.0, -0.4619 0.5046 0.0, -0.4619 0.5046 0.0079, -0.4653 0.5146 0.0, -0.4653 0.5146 0.0079, -0.471 0.5236 0.0, -0.471 0.5236 0.0079, -0.4785 0.531 0.0, -0.4785 0.531 0.0079, -0.4874 0.5367 0.0, -0.4874 0.5367 0.0079, -0.4974 0.5402 0.0, -0.4974 0.5402 0.0079, -0.5079 0.5413 0.0, -0.5079 0.5413 0.0079, -0.5906 0.5413 0.0079, -0.5906 0.5413 0.0, -0.5906 0.3445 0.0787, -0.5906 0.2461 0.0787, -0.5906 0.3445 0.0787, -0.5906 0.2461 0.0787, -0.5906 0.2461 0.0079, -0.5906 0.2461 0.0, -0.5079 0.2461 0.0079, -0.5079 0.2461 0.0, -0.4974 0.2472 0.0, -0.4974 0.2472 0.0079, -0.4874 0.2507 0.0, -0.4874 0.2507 0.0079, -0.4785 0.2564 0.0, -0.4785 0.2564 0.0079, -0.471 0.2639 0.0, -0.471 0.2639 0.0079, -0.4653 0.2728 0.0, -0.4653 0.2728 0.0079, -0.4619 0.2828 0.0, -0.4619 0.2828 0.0079, -0.4607 0.2933 0.0, -0.4607 0.2933 0.0079, -0.4607 0.2972 0.0079, -0.4607 0.2972 0.0, -0.4619 0.3078 0.0, -0.4619 0.3078 0.0079, -0.4653 0.3177 0.0, -0.4653 0.3177 0.0079, -0.471 0.3267 0.0, -0.471 0.3267 0.0079, -0.4785 0.3342 0.0, -0.4785 0.3342 0.0079, -0.4874 0.3398 0.0, -0.4874 0.3398 0.0079, -0.4974 0.3433 0.0, -0.4974 0.3433 0.0079, -0.5079 0.3445 0.0, -0.5079 0.3445 0.0079, -0.5906 0.3445 0.0079, -0.5906 0.3445 0.0, -0.5906 0.1476 0.0787, -0.5906 0.0492 0.0787, -0.5906 0.1476 0.0787, -0.5906 0.0492 0.0787, -0.5906 0.0492 0.0079, -0.5906 0.0492 0.0, -0.5079 0.0492 0.0079, -0.5079 0.0492 0.0, -0.4974 0.0504 0.0, -0.4974 0.0504 0.0079, -0.4874 0.0539 0.0, -0.4874 0.0539 0.0079, -0.4785 0.0595 0.0, -0.4785 0.0595 0.0079, -0.471 0.067 0.0, -0.471 0.067 0.0079, -0.4653 0.076 0.0, -0.4653 0.076 0.0079, -0.4619 0.0859 0.0, -0.4619 0.0859 0.0079, -0.4607 0.0965 0.0, -0.4607 0.0965 0.0079, -0.4607 0.1004 0.0079, -0.4607 0.1004 0.0, -0.4619 0.1109 0.0, -0.4619 0.1109 0.0079, -0.4653 0.1209 0.0, -0.4653 0.1209 0.0079, -0.471 0.1298 0.0, -0.471 0.1298 0.0079, -0.4785 0.1373 0.0, -0.4785 0.1373 0.0079, -0.4874 0.143 0.0, -0.4874 0.143 0.0079, -0.4974 0.1465 0.0, -0.4974 0.1465 0.0079, -0.5079 0.1476 0.0, -0.5079 0.1476 0.0079, -0.5906 0.1476 0.0079, -0.5906 0.1476 0.0, -0.5906 -0.0492 0.0787, -0.5906 -0.1476 0.0787, -0.5906 -0.0492 0.0787, -0.5906 -0.1476 0.0787, -0.5906 -0.1476 0.0079, -0.5906 -0.1476 0.0, -0.5079 -0.1476 0.0079, -0.5079 -0.1476 0.0, -0.4974 -0.1465 0.0, -0.4974 -0.1465 0.0079, -0.4874 -0.143 0.0, -0.4874 -0.143 0.0079, -0.4785 -0.1373 0.0, -0.4785 -0.1373 0.0079, -0.471 -0.1298 0.0, -0.471 -0.1298 0.0079, -0.4653 -0.1209 0.0, -0.4653 -0.1209 0.0079, -0.4619 -0.1109 0.0, -0.4619 -0.1109 0.0079, -0.4607 -0.1004 0.0, -0.4607 -0.1004 0.0079, -0.4607 -0.0965 0.0079, -0.4607 -0.0965 0.0, -0.4619 -0.0859 0.0, -0.4619 -0.0859 0.0079, -0.4653 -0.076 0.0, -0.4653 -0.076 0.0079, -0.471 -0.067 0.0, -0.471 -0.067 0.0079, -0.4785 -0.0595 0.0, -0.4785 -0.0595 0.0079, -0.4874 -0.0539 0.0, -0.4874 -0.0539 0.0079, -0.4974 -0.0504 0.0, -0.4974 -0.0504 0.0079, -0.5079 -0.0492 0.0, -0.5079 -0.0492 0.0079, -0.5906 -0.0492 0.0079, -0.5906 -0.0492 0.0, -0.5906 -0.2461 0.0787, -0.5906 -0.3445 0.0787, -0.5906 -0.2461 0.0787, -0.5906 -0.3445 0.0787, -0.5906 -0.3445 0.0079, -0.5906 -0.3445 0.0, -0.5079 -0.3445 0.0079, -0.5079 -0.3445 0.0, -0.4974 -0.3433 0.0, -0.4974 -0.3433 0.0079, -0.4874 -0.3398 0.0, -0.4874 -0.3398 0.0079, -0.4785 -0.3342 0.0, -0.4785 -0.3342 0.0079, -0.471 -0.3267 0.0, -0.471 -0.3267 0.0079, -0.4653 -0.3177 0.0, -0.4653 -0.3177 0.0079, -0.4619 -0.3078 0.0, -0.4619 -0.3078 0.0079, -0.4607 -0.2972 0.0, -0.4607 -0.2972 0.0079, -0.4607 -0.2933 0.0079, -0.4607 -0.2933 0.0, -0.4619 -0.2828 0.0, -0.4619 -0.2828 0.0079, -0.4653 -0.2728 0.0, -0.4653 -0.2728 0.0079, -0.471 -0.2639 0.0, -0.471 -0.2639 0.0079, -0.4785 -0.2564 0.0, -0.4785 -0.2564 0.0079, -0.4874 -0.2507 0.0, -0.4874 -0.2507 0.0079, -0.4974 -0.2472 0.0, -0.4974 -0.2472 0.0079, -0.5079 -0.2461 0.0, -0.5079 -0.2461 0.0079, -0.5906 -0.2461 0.0079, -0.5906 -0.2461 0.0, -0.5906 -0.4429 0.0787, -0.5906 -0.5413 0.0787, -0.5906 -0.4429 0.0787, -0.5906 -0.5413 0.0787, -0.5906 -0.5413 0.0079, -0.5906 -0.5413 0.0, -0.5079 -0.5413 0.0079, -0.5079 -0.5413 0.0, -0.4974 -0.5402 0.0, -0.4974 -0.5402 0.0079, -0.4874 -0.5367 0.0, -0.4874 -0.5367 0.0079, -0.4785 -0.531 0.0, -0.4785 -0.531 0.0079, -0.471 -0.5236 0.0, -0.471 -0.5236 0.0079, -0.4653 -0.5146 0.0, -0.4653 -0.5146 0.0079, -0.4619 -0.5046 0.0, -0.4619 -0.5046 0.0079, -0.4607 -0.4941 0.0, -0.4607 -0.4941 0.0079, -0.4607 -0.4902 0.0079, -0.4607 -0.4902 0.0, -0.4619 -0.4796 0.0, -0.4619 -0.4796 0.0079, -0.4653 -0.4697 0.0, -0.4653 -0.4697 0.0079, -0.471 -0.4607 0.0, -0.471 -0.4607 0.0079, -0.4785 -0.4532 0.0, -0.4785 -0.4532 0.0079, -0.4874 -0.4476 0.0, -0.4874 -0.4476 0.0079, -0.4974 -0.4441 0.0, -0.4974 -0.4441 0.0079, -0.5079 -0.4429 0.0, -0.5079 -0.4429 0.0079, -0.5906 -0.4429 0.0079, -0.5906 -0.4429 0.0, -0.1575 0.4921 0.0, -0.1575 0.4921 0.0079, -0.0658 0.4921 0.0, 0.2559 0.4921 0.0079, 0.2559 0.4921 0.0, 0.2559 0.0097 0.0, 0.2559 -0.4921 0.0079, 0.2559 -0.4921 0.0, -0.0658 -0.4921 0.0, -0.2559 -0.4921 0.0079, -0.2559 -0.4921 0.0, -0.2559 0.0097 0.0, -0.2559 0.3937 0.0079, -0.2559 0.3937 0.0
            ]
        }
        coordIndex [
            0,1,2,-1,2,1,3,-1,3,1,4,-1,4,1,5,-1,4,5,6,-1,6,5,7,-1,8,9,10,-1,10,11,8,-1,8,11,0,-1,8,0,2,-1,6,7,12,-1,6,12,13,-1,13,12,14,-1,13,14,15,-1,15,14,16,-1,15,16,17,-1,17,16,18,-1,17,18,19,-1,19,18,20,-1,19,20,21,-1,21,20,22,-1,21,22,23,-1,23,22,24,-1,23,24,25,-1,25,24,26,-1,26,24,27,-1,26,27,28,-1,26,28,29,-1,29,28,30,-1,29,30,31,-1,31,30,32,-1,31,32,33,-1,33,32,34,-1,33,34,35,-1,35,34,36,-1,35,36,37,-1,37,36,38,-1,37,38,39,-1,39,38,10,-1,39,10,9,-1,1,0,5,-1,5,0,11,-1,30,28,5,-1,28,27,5,-1,5,27,24,-1,5,24,7,-1,7,24,22,-1,7,22,12,-1,11,10,5,-1,5,10,38,-1,5,38,36,-1,18,16,14,-1,36,34,5,-1,5,34,32,-1,5,32,30,-1,12,22,14,-1,14,22,20,-1,14,20,18,-1,40,41,42,-1,42,41,43,-1,43,41,44,-1,44,41,45,-1,44,45,46,-1,46,45,47,-1,46,47,48,-1,46,48,49,-1,49,48,50,-1,49,50,51,-1,51,50,52,-1,51,52,53,-1,53,52,54,-1,53,54,55,-1,55,54,56,-1,55,56,57,-1,57,56,58,-1,57,58,59,-1,59,58,60,-1,59,60,61,-1,61,60,62,-1,62,60,63,-1,62,63,64,-1,62,64,65,-1,65,64,66,-1,65,66,67,-1,67,66,68,-1,67,68,69,-1,69,68,70,-1,69,70,71,-1,71,70,72,-1,71,72,73,-1,73,72,74,-1,73,74,75,-1,75,74,76,-1,75,76,77,-1,78,77,76,-1,76,79,78,-1,78,79,40,-1,78,40,42,-1,41,40,45,-1,45,40,79,-1,66,64,45,-1,64,63,45,-1,45,63,60,-1,45,60,47,-1,47,60,58,-1,79,76,45,-1,45,76,74,-1,45,74,72,-1,72,70,45,-1,45,70,68,-1,45,68,66,-1,58,56,47,-1,47,56,54,-1,47,54,48,-1,48,54,52,-1,48,52,50,-1,80,81,82,-1,82,81,83,-1,83,81,84,-1,84,81,85,-1,84,85,86,-1,86,85,87,-1,86,87,88,-1,86,88,89,-1,89,88,90,-1,89,90,91,-1,91,90,92,-1,91,92,93,-1,93,92,94,-1,93,94,95,-1,95,94,96,-1,95,96,97,-1,97,96,98,-1,97,98,99,-1,99,98,100,-1,99,100,101,-1,101,100,102,-1,102,100,103,-1,102,103,104,-1,102,104,105,-1,105,104,106,-1,105,106,107,-1,107,106,108,-1,107,108,109,-1,109,108,110,-1,109,110,111,-1,111,110,112,-1,111,112,113,-1,113,112,114,-1,113,114,115,-1,115,114,116,-1,115,116,117,-1,118,117,116,-1,116,119,118,-1,118,119,80,-1,118,80,82,-1,81,80,85,-1,85,80,119,-1,106,104,85,-1,104,103,85,-1,85,103,100,-1,85,100,87,-1,87,100,98,-1,119,116,85,-1,85,116,114,-1,85,114,112,-1,112,110,85,-1,85,110,108,-1,85,108,106,-1,94,92,90,-1,98,96,87,-1,87,96,94,-1,87,94,88,-1,88,94,90,-1,120,121,122,-1,122,121,123,-1,123,121,124,-1,124,121,125,-1,124,125,126,-1,126,125,127,-1,126,127,128,-1,126,128,129,-1,129,128,130,-1,129,130,131,-1,131,130,132,-1,131,132,133,-1,133,132,134,-1,133,134,135,-1,135,134,136,-1,135,136,137,-1,137,136,138,-1,137,138,139,-1,139,138,140,-1,139,140,141,-1,141,140,142,-1,142,140,143,-1,142,143,144,-1,142,144,145,-1,145,144,146,-1,145,146,147,-1,147,146,148,-1,147,148,149,-1,149,148,150,-1,149,150,151,-1,151,150,152,-1,151,152,153,-1,153,152,154,-1,153,154,155,-1,155,154,156,-1,155,156,157,-1,158,157,156,-1,156,159,158,-1,158,159,120,-1,158,120,122,-1,121,120,125,-1,125,120,159,-1,125,159,156,-1,156,154,125,-1,125,154,152,-1,125,152,150,-1,150,148,125,-1,125,148,146,-1,125,146,144,-1,144,143,125,-1,125,143,140,-1,125,140,127,-1,127,140,138,-1,134,132,130,-1,138,136,127,-1,127,136,134,-1,127,134,128,-1,128,134,130,-1,160,161,162,-1,162,161,163,-1,163,161,164,-1,164,161,165,-1,164,165,166,-1,166,165,167,-1,166,167,168,-1,166,168,169,-1,169,168,170,-1,169,170,171,-1,171,170,172,-1,171,172,173,-1,173,172,174,-1,173,174,175,-1,175,174,176,-1,175,176,177,-1,177,176,178,-1,177,178,179,-1,179,178,180,-1,179,180,181,-1,181,180,182,-1,182,180,183,-1,182,183,184,-1,182,184,185,-1,185,184,186,-1,185,186,187,-1,187,186,188,-1,187,188,189,-1,189,188,190,-1,189,190,191,-1,191,190,192,-1,191,192,193,-1,193,192,194,-1,193,194,195,-1,195,194,196,-1,195,196,197,-1,198,197,196,-1,196,199,198,-1,198,199,160,-1,198,160,162,-1,161,160,165,-1,165,160,199,-1,186,184,165,-1,184,183,165,-1,165,183,180,-1,165,180,167,-1,167,180,178,-1,199,196,165,-1,165,196,194,-1,165,194,192,-1,192,190,165,-1,165,190,188,-1,165,188,186,-1,178,176,167,-1,167,176,174,-1,167,174,168,-1,168,174,172,-1,168,172,170,-1,200,201,202,-1,202,201,203,-1,203,201,204,-1,204,201,205,-1,204,205,206,-1,206,205,207,-1,206,207,208,-1,206,208,209,-1,209,208,210,-1,209,210,211,-1,211,210,212,-1,211,212,213,-1,213,212,214,-1,213,214,215,-1,215,214,216,-1,215,216,217,-1,217,216,218,-1,217,218,219,-1,219,218,220,-1,219,220,221,-1,221,220,222,-1,222,220,223,-1,222,223,224,-1,222,224,225,-1,225,224,226,-1,225,226,227,-1,227,226,228,-1,227,228,229,-1,229,228,230,-1,229,230,231,-1,231,230,232,-1,231,232,233,-1,233,232,234,-1,233,234,235,-1,235,234,236,-1,235,236,237,-1,238,237,236,-1,236,239,238,-1,238,239,200,-1,238,200,202,-1,201,200,205,-1,205,200,239,-1,226,224,205,-1,224,223,205,-1,205,223,220,-1,205,220,207,-1,207,220,218,-1,207,218,208,-1,239,236,205,-1,205,236,234,-1,205,234,232,-1,214,212,210,-1,232,230,205,-1,205,230,228,-1,205,228,226,-1,208,218,210,-1,210,218,216,-1,210,216,214,-1,240,241,242,-1,242,241,243,-1,243,241,244,-1,244,241,245,-1,244,245,246,-1,246,245,247,-1,246,247,248,-1,246,248,249,-1,249,248,250,-1,249,250,251,-1,251,250,252,-1,251,252,253,-1,253,252,254,-1,253,254,255,-1,255,254,256,-1,255,256,257,-1,257,256,258,-1,257,258,259,-1,259,258,260,-1,259,260,261,-1,261,260,262,-1,262,260,263,-1,262,263,264,-1,262,264,265,-1,265,264,266,-1,265,266,267,-1,267,266,268,-1,267,268,269,-1,269,268,270,-1,269,270,271,-1,271,270,272,-1,271,272,273,-1,273,272,274,-1,273,274,275,-1,275,274,276,-1,275,276,277,-1,278,277,276,-1,276,279,278,-1,278,279,240,-1,278,240,242,-1,241,240,245,-1,245,240,279,-1,266,264,245,-1,264,263,245,-1,245,263,260,-1,245,260,247,-1,247,260,258,-1,247,258,248,-1,279,276,245,-1,245,276,274,-1,245,274,272,-1,254,252,250,-1,272,270,245,-1,245,270,268,-1,245,268,266,-1,248,258,250,-1,250,258,256,-1,250,256,254,-1,280,281,282,-1,282,281,283,-1,283,281,284,-1,284,281,285,-1,284,285,286,-1,286,285,287,-1,286,287,288,-1,286,288,289,-1,289,288,290,-1,289,290,291,-1,291,290,292,-1,291,292,293,-1,293,292,294,-1,293,294,295,-1,295,294,296,-1,295,296,297,-1,297,296,298,-1,297,298,299,-1,299,298,300,-1,299,300,301,-1,301,300,302,-1,302,300,303,-1,302,303,304,-1,302,304,305,-1,305,304,306,-1,305,306,307,-1,307,306,308,-1,307,308,309,-1,309,308,310,-1,309,310,311,-1,311,310,312,-1,311,312,313,-1,313,312,314,-1,313,314,315,-1,315,314,316,-1,315,316,317,-1,318,317,316,-1,316,319,318,-1,318,319,280,-1,318,280,282,-1,281,280,285,-1,285,280,319,-1,306,304,285,-1,304,303,285,-1,285,303,300,-1,285,300,287,-1,287,300,298,-1,319,316,285,-1,285,316,314,-1,285,314,312,-1,312,310,285,-1,285,310,308,-1,285,308,306,-1,298,296,287,-1,287,296,294,-1,287,294,288,-1,288,294,292,-1,288,292,290,-1,320,321,322,-1,322,321,323,-1,323,321,324,-1,324,321,325,-1,324,325,326,-1,326,325,327,-1,326,327,328,-1,326,328,329,-1,329,328,330,-1,329,330,331,-1,331,330,332,-1,331,332,333,-1,333,332,334,-1,333,334,335,-1,335,334,336,-1,335,336,337,-1,337,336,338,-1,337,338,339,-1,339,338,340,-1,339,340,341,-1,341,340,342,-1,342,340,343,-1,342,343,344,-1,342,344,345,-1,345,344,346,-1,345,346,347,-1,347,346,348,-1,347,348,349,-1,349,348,350,-1,349,350,351,-1,351,350,352,-1,351,352,353,-1,353,352,354,-1,353,354,355,-1,355,354,356,-1,355,356,357,-1,358,357,356,-1,356,359,358,-1,358,359,320,-1,358,320,322,-1,321,320,325,-1,325,320,359,-1,346,344,325,-1,344,343,325,-1,325,343,340,-1,325,340,327,-1,327,340,338,-1,359,356,325,-1,325,356,354,-1,325,354,352,-1,352,350,325,-1,325,350,348,-1,325,348,346,-1,334,332,330,-1,338,336,327,-1,327,336,334,-1,327,334,328,-1,328,334,330,-1,360,361,362,-1,362,361,363,-1,363,361,364,-1,364,361,365,-1,364,365,366,-1,366,365,367,-1,366,367,368,-1,366,368,369,-1,369,368,370,-1,369,370,371,-1,371,370,372,-1,371,372,373,-1,373,372,374,-1,373,374,375,-1,375,374,376,-1,375,376,377,-1,377,376,378,-1,377,378,379,-1,379,378,380,-1,379,380,381,-1,381,380,382,-1,382,380,383,-1,382,383,384,-1,382,384,385,-1,385,384,386,-1,385,386,387,-1,387,386,388,-1,387,388,389,-1,389,388,390,-1,389,390,391,-1,391,390,392,-1,391,392,393,-1,393,392,394,-1,393,394,395,-1,395,394,396,-1,395,396,397,-1,398,397,396,-1,396,399,398,-1,398,399,360,-1,398,360,362,-1,361,360,365,-1,365,360,399,-1,378,367,380,-1,380,367,365,-1,380,365,383,-1,399,396,365,-1,365,396,394,-1,394,392,365,-1,365,392,390,-1,365,390,388,-1,388,386,365,-1,365,386,384,-1,365,384,383,-1,374,372,370,-1,378,376,367,-1,367,376,374,-1,367,374,368,-1,368,374,370,-1,400,401,402,-1,402,401,403,-1,403,401,404,-1,404,401,405,-1,404,405,406,-1,406,405,407,-1,406,407,408,-1,406,408,409,-1,409,408,410,-1,409,410,411,-1,411,410,412,-1,411,412,413,-1,413,412,414,-1,413,414,415,-1,415,414,416,-1,415,416,417,-1,417,416,418,-1,417,418,419,-1,419,418,420,-1,419,420,421,-1,421,420,422,-1,422,420,423,-1,422,423,424,-1,422,424,425,-1,425,424,426,-1,425,426,427,-1,427,426,428,-1,427,428,429,-1,429,428,430,-1,429,430,431,-1,431,430,432,-1,431,432,433,-1,433,432,434,-1,433,434,435,-1,435,434,436,-1,435,436,437,-1,438,437,436,-1,436,439,438,-1,438,439,400,-1,438,400,402,-1,401,400,405,-1,405,400,439,-1,426,424,405,-1,424,423,405,-1,405,423,420,-1,405,420,407,-1,407,420,418,-1,439,436,405,-1,405,436,434,-1,405,434,432,-1,432,430,405,-1,405,430,428,-1,405,428,426,-1,418,416,407,-1,407,416,414,-1,407,414,408,-1,408,414,412,-1,408,412,410,-1,440,441,442,-1,442,441,443,-1,443,441,444,-1,444,441,445,-1,444,445,446,-1,446,445,447,-1,446,447,448,-1,446,448,449,-1,449,448,450,-1,449,450,451,-1,451,450,452,-1,451,452,453,-1,453,452,454,-1,453,454,455,-1,455,454,456,-1,455,456,457,-1,457,456,458,-1,457,458,459,-1,459,458,460,-1,459,460,461,-1,461,460,462,-1,462,460,463,-1,462,463,464,-1,462,464,465,-1,465,464,466,-1,465,466,467,-1,467,466,468,-1,467,468,469,-1,469,468,470,-1,469,470,471,-1,471,470,472,-1,471,472,473,-1,473,472,474,-1,473,474,475,-1,475,474,476,-1,475,476,477,-1,478,477,476,-1,476,479,478,-1,478,479,440,-1,478,440,442,-1,441,440,445,-1,445,440,479,-1,466,464,445,-1,464,463,445,-1,445,463,460,-1,445,460,447,-1,447,460,458,-1,447,458,448,-1,479,476,445,-1,445,476,474,-1,445,474,472,-1,454,452,450,-1,472,470,445,-1,445,470,468,-1,445,468,466,-1,448,458,450,-1,450,458,456,-1,450,456,454,-1,480,481,482,-1,482,481,483,-1,482,483,484,-1,484,483,485,-1,485,483,486,-1,485,486,487,-1,487,486,488,-1,488,486,489,-1,488,489,490,-1,490,489,491,-1,491,489,492,-1,491,492,493,-1,480,493,481,-1,481,493,492,-1,
        ]
    }
}
Shape{
    appearance Appearance {
        material  Material 	{
            diffuseColor 0.34901960784313724 0.34901960784313724 0.34901960784313724
            specularColor 0.023529411764705882 0.023529411764705882 0.023529411764705882
            ambientIntensity 0.498
            transparency 0.0
            shininess 0.5
        }
    }
    geometry IndexedFaceSet {
        ccw TRUE
        solid FALSE
        coord DEF co Coordinate {
            point [
                -0.4331 0.374 0.2874, -0.4331 0.374 0.2953, -0.4178 0.376 0.2874, -0.4178 0.376 0.2953, -0.4035 0.3819 0.2874, -0.4035 0.3819 0.2953, -0.3913 0.3913 0.2874, -0.3913 0.3913 0.2953, -0.3819 0.4035 0.2874, -0.3819 0.4035 0.2953, -0.376 0.4178 0.2874, -0.376 0.4178 0.2953, -0.374 0.4331 0.2874, -0.374 0.4331 0.2953, -0.376 0.4484 0.2874, -0.376 0.4484 0.2953, -0.3819 0.4626 0.2874, -0.3819 0.4626 0.2953, -0.3913 0.4748 0.2874, -0.3913 0.4748 0.2953, -0.4035 0.4842 0.2874, -0.4035 0.4842 0.2953, -0.4178 0.4901 0.2874, -0.4178 0.4901 0.2953, -0.4331 0.4921 0.2874, -0.4331 0.4921 0.2953, -0.4484 0.4901 0.2874, -0.4484 0.4901 0.2953, -0.4626 0.4842 0.2874, -0.4626 0.4842 0.2953, -0.4748 0.4748 0.2874, -0.4748 0.4748 0.2953, -0.4842 0.4626 0.2874, -0.4842 0.4626 0.2953, -0.4901 0.4484 0.2874, -0.4901 0.4484 0.2953, -0.4921 0.4331 0.2874, -0.4921 0.4331 0.2953, -0.4901 0.4178 0.2874, -0.4901 0.4178 0.2953, -0.4842 0.4035 0.2874, -0.4842 0.4035 0.2953, -0.4748 0.3913 0.2874, -0.4748 0.3913 0.2953, -0.4626 0.3819 0.2874, -0.4626 0.3819 0.2953, -0.4484 0.376 0.2874, -0.4484 0.376 0.2953, -0.4331 0.4331 0.2874
            ]
        }
        coordIndex [
            0,1,2,-1,2,1,3,-1,2,3,4,-1,4,3,5,-1,4,5,6,-1,6,5,7,-1,6,7,8,-1,8,7,9,-1,8,9,10,-1,10,9,11,-1,10,11,12,-1,12,11,13,-1,12,13,14,-1,14,13,15,-1,14,15,16,-1,16,15,17,-1,16,17,18,-1,18,17,19,-1,18,19,20,-1,20,19,21,-1,20,21,22,-1,22,21,23,-1,22,23,24,-1,24,23,25,-1,24,25,26,-1,26,25,27,-1,26,27,28,-1,28,27,29,-1,28,29,30,-1,30,29,31,-1,30,31,32,-1,32,31,33,-1,32,33,34,-1,34,33,35,-1,34,35,36,-1,36,35,37,-1,36,37,38,-1,38,37,39,-1,38,39,40,-1,40,39,41,-1,40,41,42,-1,42,41,43,-1,42,43,44,-1,44,43,45,-1,44,45,46,-1,46,45,47,-1,46,47,0,-1,0,47,1,-1,44,46,48,-1,48,46,0,-1,48,0,2,-1,38,40,48,-1,48,40,42,-1,48,42,44,-1,32,34,48,-1,48,34,36,-1,48,36,38,-1,26,28,48,-1,48,28,30,-1,48,30,32,-1,20,22,48,-1,48,22,24,-1,48,24,26,-1,14,16,48,-1,48,16,18,-1,48,18,20,-1,8,10,48,-1,48,10,12,-1,48,12,14,-1,2,4,48,-1,48,4,6,-1,48,6,8,-1,
        ]
    }
}
Shape{
    appearance Appearance {
        material  Material 	{
            diffuseColor 1.0 1.0 1.0
            specularColor 0.8784313725490196 0.8784313725490196 0.8784313725490196
            ambientIntensity 1.0
            transparency 0.0
            shininess 0.5
        }
    }
    geometry IndexedFaceSet {
        ccw TRUE
        solid FALSE
        coord DEF co Coordinate {
            point [
                0.0531 0.1854 0.0079, -0.0651 0.2315 0.0079, 0.0531 0.1854 0.0, -0.0651 0.2315 0.0, -0.0651 0.2143 0.0079, -0.0651 0.2143 0.0, -0.0319 0.2023 0.0079, -0.0319 0.2023 0.0, -0.0319 0.1535 0.0079, -0.0319 0.1535 0.0, -0.0651 0.1422 0.0079, -0.0651 0.1422 0.0, -0.0651 0.125 0.0079, -0.0651 0.125 0.0, 0.0531 0.1696 0.0079, 0.0531 0.1696 0.0, -0.019 0.1575 0.0079, 0.0304 0.1751 0.0079, 0.0345 0.1763 0.0079, 0.0387 0.177 0.0079, 0.0387 0.1774 0.0079, 0.0345 0.1782 0.0079, -0.019 0.197 0.0079, 0.0304 0.1792 0.0079, -0.019 0.1575 0.0, -0.019 0.197 0.0, 0.0304 0.1751 0.0, 0.0345 0.1763 0.0, 0.0387 0.177 0.0, 0.0387 0.1774 0.0, 0.0345 0.1782 0.0, 0.0304 0.1792 0.0, -0.0651 0.0534 0.0079, -0.0651 0.0212 0.0079, -0.0651 0.0534 0.0, -0.0651 0.0212 0.0, 0.0531 0.0212 0.0079, 0.0531 0.0212 0.0, 0.0531 0.0546 0.0079, 0.0531 0.0546 0.0, -0.0045 0.1163 0.0079, -0.0045 0.1163 0.0, 0.0065 0.1155 0.0, 0.0065 0.1155 0.0079, 0.0182 0.1123 0.0, 0.0182 0.1123 0.0079, 0.0283 0.1068 0.0, 0.0283 0.1068 0.0079, 0.0376 0.0985 0.0, 0.0376 0.0985 0.0079, 0.0378 0.0983 0.0, 0.0378 0.0983 0.0079, 0.0464 0.0854 0.0, 0.0464 0.0854 0.0079, 0.0512 0.0716 0.0, 0.0512 0.0716 0.0079, -0.0638 0.068 0.0, -0.0638 0.068 0.0079, -0.0597 0.0816 0.0, -0.0597 0.0816 0.0079, -0.0526 0.0939 0.0, -0.0526 0.0939 0.0079, -0.0432 0.1036 0.0, -0.0432 0.1036 0.0079, -0.0327 0.1104 0.0, -0.0327 0.1104 0.0079, -0.0203 0.1147 0.0, -0.0203 0.1147 0.0079, 0.0235 0.0926 0.0079, 0.0296 0.0869 0.0079, 0.0352 0.0782 0.0079, 0.0386 0.0685 0.0079, 0.0401 0.0545 0.0079, 0.0401 0.0371 0.0079, -0.0521 0.0371 0.0079, -0.0521 0.0539 0.0079, -0.0509 0.0663 0.0079, -0.0478 0.0763 0.0079, -0.043 0.0843 0.0079, -0.0365 0.0909 0.0079, -0.0284 0.0959 0.0079, -0.0173 0.0994 0.0079, -0.0049 0.1005 0.0079, 0.0069 0.0995 0.0079, 0.0162 0.0967 0.0079, 0.0401 0.0545 0.0, 0.0401 0.0371 0.0, 0.0386 0.0685 0.0, 0.0352 0.0782 0.0, 0.0296 0.0869 0.0, 0.0235 0.0926 0.0, 0.0162 0.0967 0.0, 0.0069 0.0995 0.0, -0.0049 0.1005 0.0, -0.0173 0.0994 0.0, -0.0284 0.0959 0.0, -0.0365 0.0909 0.0, -0.043 0.0843 0.0, -0.0478 0.0763 0.0, -0.0509 0.0663 0.0, -0.0521 0.0539 0.0, -0.0521 0.0371 0.0, -0.0521 -0.0018 0.0079, -0.0651 -0.0018 0.0079, -0.0521 -0.0018 0.0, -0.0651 -0.0018 0.0, -0.0651 -0.0652 0.0079, -0.0651 -0.0652 0.0, 0.0531 -0.0652 0.0079, 0.0531 -0.0652 0.0, 0.0531 -0.0047 0.0079, 0.0531 -0.0047 0.0, 0.0401 -0.0047 0.0079, 0.0401 -0.0047 0.0, 0.0401 -0.0493 0.0079, 0.0401 -0.0493 0.0, 0.0012 -0.0493 0.0079, 0.0012 -0.0493 0.0, 0.0012 -0.0076 0.0079, 0.0012 -0.0076 0.0, -0.0118 -0.0076 0.0079, -0.0118 -0.0076 0.0, -0.0118 -0.0493 0.0079, -0.0118 -0.0493 0.0, -0.0521 -0.0493 0.0079, -0.0521 -0.0493 0.0, -0.046 -0.0882 0.0079, -0.0589 -0.0882 0.0079, -0.046 -0.0882 0.0, -0.0589 -0.0882 0.0, -0.0641 -0.1008 0.0079, -0.0665 -0.1207 0.0079, -0.0665 -0.1207 0.0, -0.0664 -0.1175 0.0, -0.0664 -0.1175 0.0079, -0.0658 -0.1127 0.0, -0.0641 -0.1008 0.0, -0.0082 -0.1761 0.0079, -0.0082 -0.1761 0.0, -0.0219 -0.1749 0.0, -0.0219 -0.1749 0.0079, -0.0344 -0.1714 0.0, -0.0344 -0.1714 0.0079, -0.0456 -0.1651 0.0, -0.0456 -0.1651 0.0079, -0.055 -0.1562 0.0, -0.055 -0.1562 0.0079, -0.061 -0.1467 0.0, -0.061 -0.1467 0.0079, -0.065 -0.1353 0.0, -0.065 -0.1353 0.0079, -0.0658 -0.1277 0.0, 0.0545 -0.116 0.0079, 0.0545 -0.116 0.0, 0.0535 -0.1278 0.0, 0.0535 -0.1278 0.0079, 0.0497 -0.141 0.0, 0.0497 -0.141 0.0079, 0.0433 -0.1522 0.0, 0.0433 -0.1522 0.0079, 0.033 -0.1629 0.0, 0.033 -0.1629 0.0079, 0.022 -0.1698 0.0, 0.022 -0.1698 0.0079, 0.0086 -0.1744 0.0, 0.0086 -0.1744 0.0079, 0.0498 -0.0882 0.0079, 0.0498 -0.0882 0.0, 0.0535 -0.1019 0.0, 0.0535 -0.1019 0.0079, 0.034 -0.0882 0.0079, 0.034 -0.0882 0.0, 0.0415 -0.1159 0.0079, 0.0415 -0.1159 0.0, 0.0397 -0.1015 0.0, 0.0397 -0.1015 0.0079, -0.0073 -0.1602 0.0079, -0.0073 -0.1602 0.0, 0.0019 -0.1597 0.0, 0.0019 -0.1597 0.0079, 0.0146 -0.1565 0.0, 0.0146 -0.1565 0.0079, 0.0237 -0.1517 0.0, 0.0237 -0.1517 0.0079, 0.0316 -0.1445 0.0, 0.0316 -0.1445 0.0079, 0.037 -0.1364 0.0, 0.037 -0.1364 0.0079, 0.0402 -0.1275 0.0, 0.0402 -0.1275 0.0079, -0.0535 -0.1185 0.0079, -0.0535 -0.1185 0.0, -0.0523 -0.1296 0.0, -0.0523 -0.1296 0.0079, -0.0491 -0.1382 0.0, -0.0491 -0.1382 0.0079, -0.0442 -0.1454 0.0, -0.0442 -0.1454 0.0079, -0.0384 -0.151 0.0, -0.0384 -0.151 0.0079, -0.0302 -0.1558 0.0, -0.0302 -0.1558 0.0079, -0.02 -0.159 0.0, -0.02 -0.159 0.0079, -0.0471 -0.0903 0.0, -0.0471 -0.0903 0.0079, -0.0518 -0.1029 0.0, -0.0518 -0.1029 0.0079, -0.0521 -0.1862 0.0079, -0.0651 -0.1862 0.0079, -0.0521 -0.1862 0.0, -0.0651 -0.1862 0.0, -0.0651 -0.2467 0.0079, -0.0651 -0.2467 0.0, 0.0531 -0.2467 0.0079, 0.0531 -0.2467 0.0, 0.0531 -0.2308 0.0079, 0.0531 -0.2308 0.0, -0.0521 -0.2308 0.0079, -0.0521 -0.2308 0.0
            ]
        }
        coordIndex [
            0,1,2,-1,2,1,3,-1,1,4,3,-1,3,4,5,-1,4,6,5,-1,5,6,7,-1,6,8,7,-1,7,8,9,-1,8,10,9,-1,9,10,11,-1,10,12,11,-1,11,12,13,-1,12,14,13,-1,13,14,15,-1,14,0,15,-1,15,0,2,-1,16,17,14,-1,12,10,8,-1,17,18,14,-1,14,18,19,-1,14,19,0,-1,0,19,20,-1,0,20,21,-1,14,12,16,-1,16,12,8,-1,16,8,22,-1,22,8,6,-1,21,23,0,-1,0,23,22,-1,0,22,1,-1,1,22,6,-1,1,6,4,-1,16,22,24,-1,24,22,25,-1,17,16,26,-1,26,16,24,-1,17,26,27,-1,17,27,18,-1,18,27,28,-1,18,28,19,-1,20,19,29,-1,29,19,28,-1,20,29,30,-1,20,30,21,-1,21,30,31,-1,21,31,23,-1,22,23,25,-1,25,23,31,-1,32,33,34,-1,34,33,35,-1,33,36,35,-1,35,36,37,-1,36,38,37,-1,37,38,39,-1,40,41,42,-1,40,42,43,-1,43,42,44,-1,43,44,45,-1,45,44,46,-1,45,46,47,-1,47,46,48,-1,47,48,49,-1,49,48,50,-1,49,50,51,-1,51,50,52,-1,51,52,53,-1,53,52,54,-1,53,54,55,-1,55,54,39,-1,55,39,38,-1,32,34,56,-1,32,56,57,-1,57,56,58,-1,57,58,59,-1,59,58,60,-1,59,60,61,-1,61,60,62,-1,61,62,63,-1,63,62,64,-1,63,64,65,-1,65,64,66,-1,65,66,67,-1,67,66,41,-1,67,41,40,-1,45,47,68,-1,68,47,49,-1,68,49,69,-1,69,49,51,-1,69,51,70,-1,70,51,53,-1,70,53,71,-1,71,53,55,-1,71,55,72,-1,72,55,38,-1,72,38,73,-1,73,38,36,-1,73,36,74,-1,74,36,33,-1,74,33,75,-1,75,33,32,-1,75,32,76,-1,76,32,57,-1,76,57,77,-1,77,57,59,-1,77,59,78,-1,78,59,61,-1,78,61,79,-1,79,61,63,-1,79,63,80,-1,80,63,65,-1,80,65,81,-1,81,65,67,-1,81,67,82,-1,82,67,40,-1,82,40,83,-1,83,40,43,-1,83,43,84,-1,84,43,45,-1,84,45,68,-1,72,73,85,-1,85,73,86,-1,72,85,87,-1,72,87,71,-1,71,87,88,-1,71,88,70,-1,70,88,89,-1,70,89,69,-1,69,89,90,-1,69,90,68,-1,68,90,91,-1,68,91,84,-1,84,91,92,-1,84,92,83,-1,83,92,93,-1,83,93,82,-1,82,93,94,-1,82,94,81,-1,81,94,95,-1,81,95,80,-1,80,95,96,-1,80,96,79,-1,79,96,97,-1,79,97,78,-1,78,97,98,-1,78,98,77,-1,77,98,99,-1,77,99,76,-1,76,99,100,-1,76,100,75,-1,74,75,101,-1,101,75,100,-1,73,74,86,-1,86,74,101,-1,102,103,104,-1,104,103,105,-1,103,106,105,-1,105,106,107,-1,106,108,107,-1,107,108,109,-1,108,110,109,-1,109,110,111,-1,110,112,111,-1,111,112,113,-1,112,114,113,-1,113,114,115,-1,114,116,115,-1,115,116,117,-1,116,118,117,-1,117,118,119,-1,118,120,119,-1,119,120,121,-1,120,122,121,-1,121,122,123,-1,122,124,123,-1,123,124,125,-1,124,102,125,-1,125,102,104,-1,106,103,102,-1,102,124,106,-1,106,124,122,-1,106,122,108,-1,112,110,114,-1,114,110,108,-1,114,108,116,-1,116,108,122,-1,116,122,118,-1,118,122,120,-1,126,127,128,-1,128,127,129,-1,129,127,130,-1,131,132,133,-1,131,133,134,-1,134,133,135,-1,134,135,130,-1,130,135,136,-1,130,136,129,-1,137,138,139,-1,137,139,140,-1,140,139,141,-1,140,141,142,-1,142,141,143,-1,142,143,144,-1,144,143,145,-1,144,145,146,-1,146,145,147,-1,146,147,148,-1,148,147,149,-1,148,149,150,-1,150,149,131,-1,131,149,151,-1,131,151,132,-1,152,153,154,-1,152,154,155,-1,155,154,156,-1,155,156,157,-1,157,156,158,-1,157,158,159,-1,159,158,160,-1,159,160,161,-1,161,160,162,-1,161,162,163,-1,163,162,164,-1,163,164,165,-1,165,164,138,-1,165,138,137,-1,166,167,168,-1,166,168,169,-1,169,168,153,-1,169,153,152,-1,166,170,167,-1,167,170,171,-1,172,173,174,-1,172,174,175,-1,175,174,171,-1,175,171,170,-1,176,177,178,-1,176,178,179,-1,179,178,180,-1,179,180,181,-1,181,180,182,-1,181,182,183,-1,183,182,184,-1,183,184,185,-1,185,184,186,-1,185,186,187,-1,187,186,188,-1,187,188,189,-1,189,188,173,-1,189,173,172,-1,190,191,192,-1,190,192,193,-1,193,192,194,-1,193,194,195,-1,195,194,196,-1,195,196,197,-1,197,196,198,-1,197,198,199,-1,199,198,200,-1,199,200,201,-1,201,200,202,-1,201,202,203,-1,203,202,177,-1,203,177,176,-1,126,128,204,-1,126,204,205,-1,205,204,206,-1,205,206,207,-1,207,206,191,-1,207,191,190,-1,193,131,190,-1,190,131,134,-1,190,134,207,-1,207,134,130,-1,207,130,205,-1,205,130,127,-1,205,127,126,-1,170,166,175,-1,175,166,169,-1,175,169,172,-1,172,169,152,-1,172,152,189,-1,189,152,155,-1,189,155,187,-1,187,155,157,-1,187,157,185,-1,185,157,159,-1,185,159,183,-1,183,159,161,-1,183,161,181,-1,181,161,163,-1,181,163,179,-1,179,163,165,-1,179,165,176,-1,176,165,137,-1,176,137,203,-1,203,137,140,-1,203,140,201,-1,201,140,142,-1,201,142,199,-1,199,142,144,-1,199,144,197,-1,197,144,146,-1,197,146,195,-1,195,146,148,-1,195,148,193,-1,193,148,150,-1,193,150,131,-1,208,209,210,-1,210,209,211,-1,209,212,211,-1,211,212,213,-1,212,214,213,-1,213,214,215,-1,214,216,215,-1,215,216,217,-1,216,218,217,-1,217,218,219,-1,218,208,219,-1,219,208,210,-1,216,214,218,-1,218,214,212,-1,218,212,208,-1,208,212,209,-1,
        ]
    }
}
Shape{
    appearance Appearance {
        material  Material 	{
            diffuseColor 0.6666666666666666 0.6666666666666666 0.6666666666666666
            specularColor 0.4666666666666667 0.4666666666666667 0.4666666666666667
            ambientIntensity 0.6667
            transparency 0.0
            shininess 0.5
        }
    }
    geometry IndexedFaceSet {
        ccw TRUE
        solid FALSE
        coord DEF co Coordinate {
            point [
                -0.019 0.1575 0.0, -0.019 0.197 0.0, 0.0304 0.1751 0.0, 0.0304 0.1792 0.0, 0.0345 0.1763 0.0, 0.0345 0.1782 0.0, 0.0387 0.177 0.0, 0.0387 0.1774 0.0, 0.0401 0.0371 0.0, -0.0521 0.0371 0.0, 0.0401 0.0545 0.0, -0.0521 0.0539 0.0, -0.0509 0.0663 0.0, -0.0049 0.1005 0.0, 0.0069 0.0995 0.0, 0.0162 0.0967 0.0, 0.0386 0.0685 0.0, -0.0478 0.0763 0.0, -0.043 0.0843 0.0, -0.0365 0.0909 0.0, -0.0284 0.0959 0.0, -0.0173 0.0994 0.0, 0.0235 0.0926 0.0, 0.0296 0.0869 0.0, 0.0352 0.0782 0.0
            ]
        }
        coordIndex [
            0,1,2,-1,2,1,3,-1,2,3,4,-1,4,3,5,-1,4,5,6,-1,6,5,7,-1,8,9,10,-1,10,9,11,-1,10,11,12,-1,13,14,10,-1,10,14,15,-1,10,15,16,-1,12,17,10,-1,10,17,18,-1,10,18,19,-1,19,20,10,-1,10,20,21,-1,10,21,13,-1,22,23,15,-1,15,23,24,-1,15,24,16,-1,
        ]
    }
}