%TF.GenerationSoftware,KiCad,Pcbnew,8.0.3*%
%TF.CreationDate,2024-06-27T21:22:13-04:00*%
%TF.ProjectId,rp2040-mgmt-module,72703230-3430-42d6-9d67-6d742d6d6f64,v0.0.0*%
%TF.SameCoordinates,Original*%
%TF.FileFunction,Other,Comment*%
%FSLAX46Y46*%
G04 Gerber Fmt 4.6, Leading zero omitted, Abs format (unit mm)*
G04 Created by KiCad (PCBNEW 8.0.3) date 2024-06-27 21:22:13*
%MOMM*%
%LPD*%
G01*
G04 APERTURE LIST*
%ADD10C,0.100000*%
G04 APERTURE END LIST*
D10*
X84976109Y-20889998D02*
X84476109Y-20889998D01*
X84476109Y-20889998D02*
X84476109Y-20699522D01*
X84476109Y-20699522D02*
X84499919Y-20651903D01*
X84499919Y-20651903D02*
X84523728Y-20628093D01*
X84523728Y-20628093D02*
X84571347Y-20604284D01*
X84571347Y-20604284D02*
X84642776Y-20604284D01*
X84642776Y-20604284D02*
X84690395Y-20628093D01*
X84690395Y-20628093D02*
X84714204Y-20651903D01*
X84714204Y-20651903D02*
X84738014Y-20699522D01*
X84738014Y-20699522D02*
X84738014Y-20889998D01*
X84928490Y-20104284D02*
X84952300Y-20128093D01*
X84952300Y-20128093D02*
X84976109Y-20199522D01*
X84976109Y-20199522D02*
X84976109Y-20247141D01*
X84976109Y-20247141D02*
X84952300Y-20318569D01*
X84952300Y-20318569D02*
X84904680Y-20366188D01*
X84904680Y-20366188D02*
X84857061Y-20389998D01*
X84857061Y-20389998D02*
X84761823Y-20413807D01*
X84761823Y-20413807D02*
X84690395Y-20413807D01*
X84690395Y-20413807D02*
X84595157Y-20389998D01*
X84595157Y-20389998D02*
X84547538Y-20366188D01*
X84547538Y-20366188D02*
X84499919Y-20318569D01*
X84499919Y-20318569D02*
X84476109Y-20247141D01*
X84476109Y-20247141D02*
X84476109Y-20199522D01*
X84476109Y-20199522D02*
X84499919Y-20128093D01*
X84499919Y-20128093D02*
X84523728Y-20104284D01*
X84714204Y-19723331D02*
X84738014Y-19651903D01*
X84738014Y-19651903D02*
X84761823Y-19628093D01*
X84761823Y-19628093D02*
X84809442Y-19604284D01*
X84809442Y-19604284D02*
X84880871Y-19604284D01*
X84880871Y-19604284D02*
X84928490Y-19628093D01*
X84928490Y-19628093D02*
X84952300Y-19651903D01*
X84952300Y-19651903D02*
X84976109Y-19699522D01*
X84976109Y-19699522D02*
X84976109Y-19889998D01*
X84976109Y-19889998D02*
X84476109Y-19889998D01*
X84476109Y-19889998D02*
X84476109Y-19723331D01*
X84476109Y-19723331D02*
X84499919Y-19675712D01*
X84499919Y-19675712D02*
X84523728Y-19651903D01*
X84523728Y-19651903D02*
X84571347Y-19628093D01*
X84571347Y-19628093D02*
X84618966Y-19628093D01*
X84618966Y-19628093D02*
X84666585Y-19651903D01*
X84666585Y-19651903D02*
X84690395Y-19675712D01*
X84690395Y-19675712D02*
X84714204Y-19723331D01*
X84714204Y-19723331D02*
X84714204Y-19889998D01*
X84476109Y-19080474D02*
X84476109Y-18794760D01*
X84976109Y-18937617D02*
X84476109Y-18937617D01*
X84976109Y-18628094D02*
X84476109Y-18628094D01*
X84976109Y-18413808D02*
X84714204Y-18413808D01*
X84714204Y-18413808D02*
X84666585Y-18437618D01*
X84666585Y-18437618D02*
X84642776Y-18485237D01*
X84642776Y-18485237D02*
X84642776Y-18556665D01*
X84642776Y-18556665D02*
X84666585Y-18604284D01*
X84666585Y-18604284D02*
X84690395Y-18628094D01*
X84976109Y-18175713D02*
X84642776Y-18175713D01*
X84476109Y-18175713D02*
X84499919Y-18199522D01*
X84499919Y-18199522D02*
X84523728Y-18175713D01*
X84523728Y-18175713D02*
X84499919Y-18151903D01*
X84499919Y-18151903D02*
X84476109Y-18175713D01*
X84476109Y-18175713D02*
X84523728Y-18175713D01*
X84952300Y-17723332D02*
X84976109Y-17770951D01*
X84976109Y-17770951D02*
X84976109Y-17866189D01*
X84976109Y-17866189D02*
X84952300Y-17913808D01*
X84952300Y-17913808D02*
X84928490Y-17937618D01*
X84928490Y-17937618D02*
X84880871Y-17961427D01*
X84880871Y-17961427D02*
X84738014Y-17961427D01*
X84738014Y-17961427D02*
X84690395Y-17937618D01*
X84690395Y-17937618D02*
X84666585Y-17913808D01*
X84666585Y-17913808D02*
X84642776Y-17866189D01*
X84642776Y-17866189D02*
X84642776Y-17770951D01*
X84642776Y-17770951D02*
X84666585Y-17723332D01*
X84976109Y-17509047D02*
X84476109Y-17509047D01*
X84785633Y-17461428D02*
X84976109Y-17318571D01*
X84642776Y-17318571D02*
X84833252Y-17509047D01*
X84642776Y-17104285D02*
X84976109Y-17104285D01*
X84690395Y-17104285D02*
X84666585Y-17080475D01*
X84666585Y-17080475D02*
X84642776Y-17032856D01*
X84642776Y-17032856D02*
X84642776Y-16961428D01*
X84642776Y-16961428D02*
X84666585Y-16913809D01*
X84666585Y-16913809D02*
X84714204Y-16889999D01*
X84714204Y-16889999D02*
X84976109Y-16889999D01*
X84952300Y-16461428D02*
X84976109Y-16509047D01*
X84976109Y-16509047D02*
X84976109Y-16604285D01*
X84976109Y-16604285D02*
X84952300Y-16651904D01*
X84952300Y-16651904D02*
X84904680Y-16675713D01*
X84904680Y-16675713D02*
X84714204Y-16675713D01*
X84714204Y-16675713D02*
X84666585Y-16651904D01*
X84666585Y-16651904D02*
X84642776Y-16604285D01*
X84642776Y-16604285D02*
X84642776Y-16509047D01*
X84642776Y-16509047D02*
X84666585Y-16461428D01*
X84666585Y-16461428D02*
X84714204Y-16437618D01*
X84714204Y-16437618D02*
X84761823Y-16437618D01*
X84761823Y-16437618D02*
X84809442Y-16675713D01*
X84952300Y-16247142D02*
X84976109Y-16199523D01*
X84976109Y-16199523D02*
X84976109Y-16104285D01*
X84976109Y-16104285D02*
X84952300Y-16056666D01*
X84952300Y-16056666D02*
X84904680Y-16032857D01*
X84904680Y-16032857D02*
X84880871Y-16032857D01*
X84880871Y-16032857D02*
X84833252Y-16056666D01*
X84833252Y-16056666D02*
X84809442Y-16104285D01*
X84809442Y-16104285D02*
X84809442Y-16175714D01*
X84809442Y-16175714D02*
X84785633Y-16223333D01*
X84785633Y-16223333D02*
X84738014Y-16247142D01*
X84738014Y-16247142D02*
X84714204Y-16247142D01*
X84714204Y-16247142D02*
X84666585Y-16223333D01*
X84666585Y-16223333D02*
X84642776Y-16175714D01*
X84642776Y-16175714D02*
X84642776Y-16104285D01*
X84642776Y-16104285D02*
X84666585Y-16056666D01*
X84952300Y-15842380D02*
X84976109Y-15794761D01*
X84976109Y-15794761D02*
X84976109Y-15699523D01*
X84976109Y-15699523D02*
X84952300Y-15651904D01*
X84952300Y-15651904D02*
X84904680Y-15628095D01*
X84904680Y-15628095D02*
X84880871Y-15628095D01*
X84880871Y-15628095D02*
X84833252Y-15651904D01*
X84833252Y-15651904D02*
X84809442Y-15699523D01*
X84809442Y-15699523D02*
X84809442Y-15770952D01*
X84809442Y-15770952D02*
X84785633Y-15818571D01*
X84785633Y-15818571D02*
X84738014Y-15842380D01*
X84738014Y-15842380D02*
X84714204Y-15842380D01*
X84714204Y-15842380D02*
X84666585Y-15818571D01*
X84666585Y-15818571D02*
X84642776Y-15770952D01*
X84642776Y-15770952D02*
X84642776Y-15699523D01*
X84642776Y-15699523D02*
X84666585Y-15651904D01*
X84976109Y-14770952D02*
X84976109Y-15056666D01*
X84976109Y-14913809D02*
X84476109Y-14913809D01*
X84476109Y-14913809D02*
X84547538Y-14961428D01*
X84547538Y-14961428D02*
X84595157Y-15009047D01*
X84595157Y-15009047D02*
X84618966Y-15056666D01*
X84928490Y-14556667D02*
X84952300Y-14532857D01*
X84952300Y-14532857D02*
X84976109Y-14556667D01*
X84976109Y-14556667D02*
X84952300Y-14580476D01*
X84952300Y-14580476D02*
X84928490Y-14556667D01*
X84928490Y-14556667D02*
X84976109Y-14556667D01*
X84476109Y-14080477D02*
X84476109Y-14318572D01*
X84476109Y-14318572D02*
X84714204Y-14342381D01*
X84714204Y-14342381D02*
X84690395Y-14318572D01*
X84690395Y-14318572D02*
X84666585Y-14270953D01*
X84666585Y-14270953D02*
X84666585Y-14151905D01*
X84666585Y-14151905D02*
X84690395Y-14104286D01*
X84690395Y-14104286D02*
X84714204Y-14080477D01*
X84714204Y-14080477D02*
X84761823Y-14056667D01*
X84761823Y-14056667D02*
X84880871Y-14056667D01*
X84880871Y-14056667D02*
X84928490Y-14080477D01*
X84928490Y-14080477D02*
X84952300Y-14104286D01*
X84952300Y-14104286D02*
X84976109Y-14151905D01*
X84976109Y-14151905D02*
X84976109Y-14270953D01*
X84976109Y-14270953D02*
X84952300Y-14318572D01*
X84952300Y-14318572D02*
X84928490Y-14342381D01*
X84476109Y-13890001D02*
X84476109Y-13556668D01*
X84476109Y-13556668D02*
X84976109Y-13770953D01*
X84976109Y-12985240D02*
X84642776Y-12985240D01*
X84690395Y-12985240D02*
X84666585Y-12961430D01*
X84666585Y-12961430D02*
X84642776Y-12913811D01*
X84642776Y-12913811D02*
X84642776Y-12842383D01*
X84642776Y-12842383D02*
X84666585Y-12794764D01*
X84666585Y-12794764D02*
X84714204Y-12770954D01*
X84714204Y-12770954D02*
X84976109Y-12770954D01*
X84714204Y-12770954D02*
X84666585Y-12747145D01*
X84666585Y-12747145D02*
X84642776Y-12699526D01*
X84642776Y-12699526D02*
X84642776Y-12628097D01*
X84642776Y-12628097D02*
X84666585Y-12580478D01*
X84666585Y-12580478D02*
X84714204Y-12556668D01*
X84714204Y-12556668D02*
X84976109Y-12556668D01*
X84976109Y-12318573D02*
X84642776Y-12318573D01*
X84690395Y-12318573D02*
X84666585Y-12294763D01*
X84666585Y-12294763D02*
X84642776Y-12247144D01*
X84642776Y-12247144D02*
X84642776Y-12175716D01*
X84642776Y-12175716D02*
X84666585Y-12128097D01*
X84666585Y-12128097D02*
X84714204Y-12104287D01*
X84714204Y-12104287D02*
X84976109Y-12104287D01*
X84714204Y-12104287D02*
X84666585Y-12080478D01*
X84666585Y-12080478D02*
X84642776Y-12032859D01*
X84642776Y-12032859D02*
X84642776Y-11961430D01*
X84642776Y-11961430D02*
X84666585Y-11913811D01*
X84666585Y-11913811D02*
X84714204Y-11890001D01*
X84714204Y-11890001D02*
X84976109Y-11890001D01*
M02*
