%TF.GenerationSoftware,KiCad,Pcbnew,8.0.3*%
%TF.CreationDate,2024-06-27T21:22:13-04:00*%
%TF.ProjectId,rp2040-mgmt-module,72703230-3430-42d6-9d67-6d742d6d6f64,v0.0.0*%
%TF.SameCoordinates,Original*%
%TF.FileFunction,Legend,Bot*%
%TF.FilePolarity,Positive*%
%FSLAX46Y46*%
G04 Gerber Fmt 4.6, Leading zero omitted, Abs format (unit mm)*
G04 Created by KiCad (PCBNEW 8.0.3) date 2024-06-27 21:22:13*
%MOMM*%
%LPD*%
G01*
G04 APERTURE LIST*
G04 Aperture macros list*
%AMRoundRect*
0 Rectangle with rounded corners*
0 $1 Rounding radius*
0 $2 $3 $4 $5 $6 $7 $8 $9 X,Y pos of 4 corners*
0 Add a 4 corners polygon primitive as box body*
4,1,4,$2,$3,$4,$5,$6,$7,$8,$9,$2,$3,0*
0 Add four circle primitives for the rounded corners*
1,1,$1+$1,$2,$3*
1,1,$1+$1,$4,$5*
1,1,$1+$1,$6,$7*
1,1,$1+$1,$8,$9*
0 Add four rect primitives between the rounded corners*
20,1,$1+$1,$2,$3,$4,$5,0*
20,1,$1+$1,$4,$5,$6,$7,0*
20,1,$1+$1,$6,$7,$8,$9,0*
20,1,$1+$1,$8,$9,$2,$3,0*%
G04 Aperture macros list end*
%ADD10C,0.150000*%
%ADD11C,3.250000*%
%ADD12RoundRect,0.250500X-0.499500X0.499500X-0.499500X-0.499500X0.499500X-0.499500X0.499500X0.499500X0*%
%ADD13C,1.500000*%
%ADD14C,2.500000*%
%ADD15R,1.700000X1.700000*%
%ADD16O,1.700000X1.700000*%
%ADD17O,1.350000X1.700000*%
%ADD18O,1.100000X1.500000*%
%ADD19R,3.200000X0.700000*%
%ADD20R,4.300000X0.700000*%
G04 APERTURE END LIST*
D10*
G36*
X45939902Y-2583234D02*
G01*
X46096282Y-2588257D01*
X46251151Y-2597187D01*
X46342508Y-2604931D01*
X46490147Y-2624406D01*
X46637299Y-2654340D01*
X46637299Y-5490000D01*
X46227704Y-5490000D01*
X46227704Y-4411423D01*
X45903105Y-4411423D01*
X45826981Y-4410656D01*
X45662987Y-4403321D01*
X45509077Y-4388219D01*
X45349895Y-4362330D01*
X45218087Y-4329609D01*
X45072889Y-4276864D01*
X44934438Y-4203328D01*
X44873223Y-4159820D01*
X44759857Y-4049821D01*
X44672854Y-3918297D01*
X44621125Y-3788912D01*
X44590868Y-3642556D01*
X44581995Y-3494780D01*
X44582516Y-3485987D01*
X45012107Y-3485987D01*
X45026114Y-3640118D01*
X45075854Y-3780544D01*
X45135882Y-3865910D01*
X45255373Y-3961528D01*
X45393269Y-4020842D01*
X45539672Y-4055317D01*
X45615436Y-4066166D01*
X45766932Y-4079245D01*
X45919225Y-4083161D01*
X46227704Y-4083161D01*
X46227704Y-2923251D01*
X46128742Y-2916683D01*
X45978441Y-2912011D01*
X45826901Y-2910795D01*
X45816614Y-2910820D01*
X45666434Y-2917206D01*
X45514759Y-2936441D01*
X45392261Y-2966594D01*
X45255373Y-3028032D01*
X45172025Y-3089110D01*
X45078053Y-3205352D01*
X45026597Y-3339659D01*
X45012107Y-3485987D01*
X44582516Y-3485987D01*
X44590081Y-3358323D01*
X44621130Y-3209121D01*
X44686787Y-3055108D01*
X44784140Y-2922693D01*
X44913189Y-2811877D01*
X44934167Y-2797767D01*
X45071725Y-2722513D01*
X45229324Y-2663385D01*
X45375967Y-2626431D01*
X45536527Y-2600674D01*
X45711004Y-2586116D01*
X45860607Y-2582533D01*
X45939902Y-2583234D01*
G37*
G36*
X43387076Y-2583234D02*
G01*
X43543456Y-2588257D01*
X43698325Y-2597187D01*
X43789682Y-2604931D01*
X43937321Y-2624406D01*
X44084473Y-2654340D01*
X44084473Y-5418192D01*
X44006890Y-5435453D01*
X43852575Y-5460438D01*
X43698325Y-5475345D01*
X43606757Y-5481055D01*
X43457779Y-5487581D01*
X43307780Y-5490000D01*
X43263133Y-5489653D01*
X43110517Y-5482986D01*
X42963581Y-5467834D01*
X42802610Y-5440128D01*
X42649057Y-5401339D01*
X42539663Y-5364923D01*
X42403101Y-5306511D01*
X42262168Y-5227331D01*
X42134682Y-5133893D01*
X42069742Y-5075504D01*
X41964841Y-4958863D01*
X41875357Y-4827384D01*
X41801290Y-4681067D01*
X41786916Y-4646434D01*
X41738694Y-4500347D01*
X41705309Y-4342169D01*
X41688269Y-4193846D01*
X41682588Y-4036266D01*
X42117096Y-4036266D01*
X42119621Y-4134197D01*
X42135048Y-4288142D01*
X42172074Y-4457574D01*
X42229296Y-4610313D01*
X42306713Y-4746360D01*
X42404326Y-4865715D01*
X42501295Y-4950995D01*
X42636689Y-5034251D01*
X42792846Y-5096693D01*
X42938837Y-5132829D01*
X43099247Y-5154510D01*
X43274075Y-5161737D01*
X43392846Y-5161222D01*
X43542254Y-5158073D01*
X43674877Y-5149281D01*
X43674877Y-2923251D01*
X43542254Y-2915191D01*
X43427581Y-2911894D01*
X43274075Y-2910795D01*
X43133059Y-2915420D01*
X42969766Y-2934211D01*
X42820891Y-2967456D01*
X42661273Y-3026429D01*
X42522418Y-3106216D01*
X42404326Y-3206817D01*
X42337007Y-3284532D01*
X42252857Y-3415015D01*
X42188904Y-3562191D01*
X42145146Y-3726059D01*
X42124109Y-3875366D01*
X42117096Y-4036266D01*
X41682588Y-4036266D01*
X41683052Y-3990302D01*
X41691978Y-3835422D01*
X41712264Y-3689869D01*
X41749358Y-3534942D01*
X41801290Y-3392198D01*
X41840535Y-3308886D01*
X41923167Y-3170645D01*
X42021216Y-3047473D01*
X42134682Y-2939371D01*
X42232676Y-2865180D01*
X42370621Y-2782568D01*
X42504527Y-2721202D01*
X42649057Y-2671193D01*
X42686750Y-2660457D01*
X42842157Y-2624438D01*
X43004983Y-2599503D01*
X43153542Y-2586775D01*
X43307780Y-2582533D01*
X43387076Y-2583234D01*
G37*
G36*
X40002442Y-5536894D02*
G01*
X40157981Y-5529997D01*
X40316662Y-5506155D01*
X40460460Y-5465282D01*
X40500697Y-5449699D01*
X40636773Y-5381630D01*
X40764680Y-5289993D01*
X40846545Y-5209364D01*
X40937976Y-5087228D01*
X41010035Y-4949429D01*
X41047313Y-4848862D01*
X41084441Y-4701310D01*
X41106157Y-4545793D01*
X41112526Y-4397501D01*
X41112526Y-2582533D01*
X40703663Y-2582533D01*
X40703663Y-4372588D01*
X40696837Y-4528728D01*
X40671617Y-4689534D01*
X40620040Y-4845147D01*
X40544191Y-4970718D01*
X40509490Y-5010062D01*
X40390878Y-5106050D01*
X40253487Y-5170624D01*
X40097317Y-5203784D01*
X40002442Y-5208632D01*
X39853332Y-5196542D01*
X39718143Y-5160272D01*
X39584423Y-5088582D01*
X39496127Y-5010062D01*
X39409248Y-4886496D01*
X39352512Y-4750676D01*
X39317950Y-4600410D01*
X39303731Y-4452857D01*
X39301953Y-4372588D01*
X39301953Y-2582533D01*
X38893091Y-2582533D01*
X38893091Y-4397501D01*
X38899531Y-4545793D01*
X38921491Y-4701310D01*
X38959036Y-4848862D01*
X39018044Y-4997102D01*
X39097247Y-5129680D01*
X39161270Y-5209364D01*
X39274133Y-5314603D01*
X39407192Y-5401706D01*
X39507117Y-5449699D01*
X39659864Y-5499343D01*
X39814653Y-5526591D01*
X39966933Y-5536554D01*
X40002442Y-5536894D01*
G37*
G36*
X37522156Y-5208632D02*
G01*
X37371889Y-5201511D01*
X37212231Y-5172581D01*
X37061964Y-5108490D01*
X36943629Y-4993215D01*
X36886653Y-4834323D01*
X36881018Y-4752875D01*
X36901167Y-4601148D01*
X36938171Y-4514005D01*
X37029894Y-4395850D01*
X37092044Y-4343279D01*
X37223821Y-4263481D01*
X37313328Y-4226043D01*
X37458099Y-4175759D01*
X37577110Y-4136650D01*
X37723846Y-4086643D01*
X37863175Y-4027299D01*
X37881193Y-4018681D01*
X38015282Y-3942110D01*
X38130321Y-3853084D01*
X38230020Y-3741171D01*
X38297383Y-3625938D01*
X38342995Y-3480491D01*
X38357962Y-3330986D01*
X38358199Y-3307934D01*
X38345682Y-3147129D01*
X38308130Y-3002592D01*
X38234560Y-2857329D01*
X38128291Y-2733314D01*
X38096615Y-2705631D01*
X37972670Y-2621121D01*
X37829721Y-2557368D01*
X37667769Y-2514372D01*
X37513827Y-2494039D01*
X37374877Y-2488743D01*
X37213362Y-2494325D01*
X37061292Y-2511069D01*
X36904925Y-2542380D01*
X36891277Y-2545896D01*
X36744445Y-2590203D01*
X36606983Y-2649645D01*
X36572540Y-2670460D01*
X36703698Y-2977473D01*
X36839463Y-2912990D01*
X36967480Y-2869762D01*
X37119199Y-2835604D01*
X37275992Y-2819530D01*
X37374877Y-2817006D01*
X37522770Y-2828366D01*
X37594696Y-2843384D01*
X37732357Y-2897789D01*
X37772016Y-2922519D01*
X37877465Y-3031174D01*
X37892184Y-3055875D01*
X37934044Y-3199255D01*
X37936147Y-3245652D01*
X37914329Y-3395549D01*
X37889986Y-3451549D01*
X37793904Y-3569293D01*
X37758827Y-3598094D01*
X37630150Y-3674350D01*
X37563189Y-3702142D01*
X37421795Y-3749998D01*
X37315526Y-3782742D01*
X37166533Y-3834937D01*
X37027939Y-3892694D01*
X36967480Y-3921228D01*
X36837129Y-3994938D01*
X36715520Y-4086676D01*
X36693440Y-4106608D01*
X36595970Y-4216603D01*
X36522007Y-4344630D01*
X36513921Y-4363063D01*
X36470344Y-4504774D01*
X36451730Y-4658215D01*
X36450174Y-4722833D01*
X36463603Y-4885677D01*
X36503889Y-5031200D01*
X36582818Y-5176303D01*
X36696826Y-5298783D01*
X36730809Y-5325868D01*
X36864596Y-5408094D01*
X37020403Y-5470124D01*
X37171477Y-5507219D01*
X37338728Y-5529475D01*
X37490461Y-5536688D01*
X37522156Y-5536894D01*
X37678315Y-5531742D01*
X37831753Y-5514889D01*
X37840893Y-5513447D01*
X37986927Y-5486831D01*
X38101011Y-5459225D01*
X38242628Y-5413510D01*
X38297383Y-5391814D01*
X38425610Y-5330265D01*
X38303244Y-5018122D01*
X38162209Y-5084119D01*
X38020266Y-5136975D01*
X38007955Y-5141221D01*
X37860962Y-5179600D01*
X37709150Y-5200666D01*
X37557713Y-5208368D01*
X37522156Y-5208632D01*
G37*
G36*
X35223404Y-2582743D02*
G01*
X35373796Y-2586929D01*
X35430848Y-2589750D01*
X35578227Y-2600118D01*
X35636226Y-2605000D01*
X35783391Y-2620635D01*
X35820717Y-2625615D01*
X35968771Y-2654340D01*
X35968771Y-5418192D01*
X35931099Y-5427068D01*
X35783391Y-5451898D01*
X35725985Y-5458615D01*
X35578227Y-5473147D01*
X35520112Y-5477391D01*
X35371598Y-5485603D01*
X35327099Y-5487316D01*
X35179623Y-5490000D01*
X35093450Y-5489149D01*
X34929983Y-5482349D01*
X34778354Y-5468748D01*
X34605465Y-5442183D01*
X34451073Y-5404992D01*
X34290219Y-5346336D01*
X34156001Y-5272379D01*
X34062911Y-5199167D01*
X33959092Y-5079179D01*
X33886197Y-4938785D01*
X33844228Y-4777985D01*
X33833570Y-4633440D01*
X34254919Y-4633440D01*
X34269084Y-4761547D01*
X34328925Y-4895757D01*
X34397036Y-4972798D01*
X34525296Y-5058422D01*
X34666683Y-5110000D01*
X34810327Y-5139023D01*
X34851120Y-5144346D01*
X34998762Y-5157389D01*
X35153977Y-5161737D01*
X35177974Y-5161703D01*
X35325436Y-5159539D01*
X35453663Y-5152944D01*
X35563572Y-5144884D01*
X35563572Y-4130055D01*
X35036008Y-4130055D01*
X35013974Y-4130153D01*
X34867114Y-4136284D01*
X34715073Y-4154968D01*
X34605037Y-4180772D01*
X34468143Y-4238499D01*
X34408294Y-4278613D01*
X34309874Y-4394570D01*
X34274293Y-4481007D01*
X34254919Y-4633440D01*
X33833570Y-4633440D01*
X33832868Y-4623914D01*
X33833463Y-4587704D01*
X33850877Y-4437582D01*
X33898504Y-4295387D01*
X33985275Y-4168890D01*
X33994858Y-4158854D01*
X34113869Y-4059702D01*
X34243699Y-3987445D01*
X34394138Y-3932219D01*
X34325650Y-3902062D01*
X34195643Y-3818342D01*
X34090788Y-3709469D01*
X34035533Y-3618781D01*
X33989989Y-3477307D01*
X33978721Y-3351898D01*
X34398534Y-3351898D01*
X34404115Y-3429435D01*
X34455687Y-3568785D01*
X34491139Y-3614458D01*
X34611758Y-3708004D01*
X34698176Y-3745547D01*
X34846231Y-3781277D01*
X34985266Y-3796664D01*
X35132728Y-3801793D01*
X35563572Y-3801793D01*
X35563572Y-2927648D01*
X35549960Y-2926044D01*
X35403105Y-2915191D01*
X35305174Y-2912036D01*
X35158374Y-2910795D01*
X35015760Y-2916269D01*
X34863084Y-2935708D01*
X34763719Y-2957655D01*
X34620551Y-3011179D01*
X34565618Y-3042284D01*
X34457885Y-3146001D01*
X34426587Y-3202000D01*
X34398534Y-3351898D01*
X33978721Y-3351898D01*
X33976482Y-3326985D01*
X33978754Y-3263336D01*
X34005926Y-3112919D01*
X34069539Y-2975275D01*
X34093719Y-2940242D01*
X34195660Y-2831328D01*
X34324528Y-2743733D01*
X34420723Y-2698331D01*
X34563588Y-2650417D01*
X34709211Y-2619169D01*
X34723073Y-2616915D01*
X34879708Y-2596844D01*
X35028715Y-2586110D01*
X35184019Y-2582533D01*
X35223404Y-2582743D01*
G37*
G36*
X46234542Y-6830635D02*
G01*
X46157362Y-6835031D01*
X46071388Y-6846266D01*
X45994207Y-6860432D01*
X45941939Y-6873133D01*
X45986880Y-7122749D01*
X46085014Y-7097313D01*
X46089462Y-7096371D01*
X46189199Y-7083319D01*
X46274110Y-7080739D01*
X46374167Y-7088128D01*
X46419190Y-7096371D01*
X46513468Y-7117376D01*
X46513468Y-8300000D01*
X46774808Y-8300000D01*
X46774808Y-6923935D01*
X46677921Y-6893195D01*
X46577978Y-6867943D01*
X46544242Y-6860432D01*
X46445276Y-6843467D01*
X46338460Y-6833544D01*
X46234542Y-6830635D01*
G37*
G36*
X45162572Y-6830739D02*
G01*
X45260589Y-6833809D01*
X45361339Y-6842205D01*
X45462247Y-6857501D01*
X45496326Y-6864149D01*
X45597069Y-6884806D01*
X45694277Y-6906838D01*
X45694277Y-8831472D01*
X45432937Y-8831472D01*
X45432937Y-8233077D01*
X45381606Y-8260566D01*
X45287857Y-8297557D01*
X45263097Y-8305457D01*
X45162089Y-8325700D01*
X45064131Y-8331263D01*
X44978397Y-8326896D01*
X44881063Y-8309701D01*
X44784228Y-8276064D01*
X44739606Y-8253801D01*
X44652234Y-8194844D01*
X44577599Y-8121214D01*
X44537909Y-8069007D01*
X44487992Y-7981766D01*
X44449616Y-7883810D01*
X44424586Y-7785825D01*
X44409945Y-7681953D01*
X44405652Y-7582414D01*
X44405659Y-7580949D01*
X44678715Y-7580949D01*
X44683653Y-7677105D01*
X44701186Y-7778297D01*
X44724119Y-7848566D01*
X44774459Y-7937055D01*
X44820573Y-7987070D01*
X44905373Y-8043056D01*
X44999590Y-8072786D01*
X45097836Y-8081158D01*
X45200662Y-8071999D01*
X45295184Y-8044521D01*
X45347258Y-8021337D01*
X45432937Y-7968318D01*
X45432937Y-7108583D01*
X45425287Y-7106502D01*
X45327424Y-7089043D01*
X45242606Y-7082564D01*
X45143265Y-7080739D01*
X45079383Y-7083912D01*
X44974793Y-7105610D01*
X44883573Y-7147865D01*
X44805722Y-7210676D01*
X44750157Y-7282362D01*
X44706622Y-7379649D01*
X44684793Y-7480918D01*
X44678715Y-7580949D01*
X44405659Y-7580949D01*
X44405703Y-7571549D01*
X44411828Y-7466677D01*
X44428162Y-7368675D01*
X44457920Y-7268806D01*
X44486557Y-7201639D01*
X44539818Y-7110964D01*
X44605443Y-7032379D01*
X44655787Y-6986797D01*
X44740578Y-6928843D01*
X44836496Y-6883391D01*
X44933169Y-6853355D01*
X45037808Y-6835787D01*
X45139846Y-6830635D01*
X45162572Y-6830739D01*
G37*
G36*
X42956315Y-6867271D02*
G01*
X42966573Y-6965701D01*
X42997348Y-7060711D01*
X43044731Y-7152913D01*
X43101575Y-7238243D01*
X43105792Y-7243893D01*
X43168049Y-7322406D01*
X43236851Y-7399797D01*
X43257711Y-7421702D01*
X43326057Y-7491785D01*
X43399841Y-7565997D01*
X43426238Y-7592184D01*
X43495802Y-7661096D01*
X43537613Y-7703070D01*
X43606341Y-7776520D01*
X43656803Y-7836427D01*
X43717140Y-7916903D01*
X43751081Y-7969783D01*
X43787844Y-8062805D01*
X43789183Y-8081158D01*
X42891835Y-8081158D01*
X42891835Y-8300000D01*
X44073482Y-8300000D01*
X44076413Y-8266782D01*
X44076413Y-8236008D01*
X44069238Y-8132623D01*
X44047712Y-8035204D01*
X44032937Y-7992254D01*
X43992863Y-7902667D01*
X43944083Y-7817273D01*
X43918632Y-7779274D01*
X43858738Y-7699845D01*
X43793362Y-7624286D01*
X43761339Y-7590718D01*
X43690779Y-7519451D01*
X43621186Y-7450118D01*
X43589392Y-7418771D01*
X43516722Y-7348599D01*
X43456036Y-7287369D01*
X43389077Y-7213420D01*
X43343196Y-7155478D01*
X43289348Y-7070908D01*
X43264549Y-7018702D01*
X43238273Y-6922160D01*
X43234752Y-6868736D01*
X43246322Y-6768328D01*
X43261618Y-6724633D01*
X43317060Y-6641012D01*
X43333426Y-6625471D01*
X43420392Y-6574002D01*
X43438939Y-6567829D01*
X43537590Y-6550155D01*
X43566922Y-6549267D01*
X43667891Y-6558944D01*
X43715910Y-6571737D01*
X43809333Y-6609564D01*
X43837055Y-6624005D01*
X43919921Y-6679535D01*
X43926936Y-6685554D01*
X43983112Y-6734891D01*
X44112561Y-6563921D01*
X44039966Y-6497567D01*
X44036845Y-6495045D01*
X43953723Y-6438584D01*
X43915701Y-6417864D01*
X43826315Y-6378319D01*
X43758408Y-6355826D01*
X43661507Y-6336007D01*
X43569364Y-6330425D01*
X43459885Y-6335371D01*
X43361155Y-6350209D01*
X43259558Y-6380022D01*
X43161365Y-6430580D01*
X43109699Y-6471109D01*
X43042594Y-6548442D01*
X42994661Y-6640247D01*
X42965901Y-6746523D01*
X42956465Y-6851386D01*
X42956315Y-6867271D01*
G37*
G36*
X41936021Y-6331440D02*
G01*
X42043091Y-6346667D01*
X42140819Y-6380167D01*
X42229204Y-6431939D01*
X42308247Y-6501983D01*
X42377948Y-6590300D01*
X42388587Y-6606757D01*
X42436715Y-6695515D01*
X42476400Y-6795053D01*
X42507641Y-6905373D01*
X42526554Y-7001391D01*
X42540064Y-7104309D01*
X42548170Y-7214126D01*
X42550872Y-7330844D01*
X42548170Y-7447561D01*
X42540064Y-7557379D01*
X42526554Y-7660297D01*
X42502068Y-7779241D01*
X42469138Y-7887405D01*
X42427765Y-7984787D01*
X42377948Y-8071388D01*
X42355752Y-8102857D01*
X42282937Y-8185083D01*
X42200780Y-8249037D01*
X42109281Y-8294718D01*
X42008439Y-8322126D01*
X41898255Y-8331263D01*
X41860432Y-8330247D01*
X41753236Y-8315020D01*
X41655451Y-8281521D01*
X41567077Y-8229749D01*
X41488114Y-8159705D01*
X41418562Y-8071388D01*
X41407893Y-8054930D01*
X41359629Y-7966173D01*
X41319832Y-7866634D01*
X41288503Y-7756315D01*
X41269536Y-7660297D01*
X41255988Y-7557379D01*
X41247859Y-7447561D01*
X41245150Y-7330844D01*
X41521144Y-7330844D01*
X41522957Y-7428751D01*
X41529138Y-7532702D01*
X41539706Y-7632728D01*
X41547377Y-7684763D01*
X41568077Y-7781209D01*
X41601256Y-7880879D01*
X41604002Y-7887462D01*
X41652180Y-7976133D01*
X41718004Y-8049895D01*
X41799703Y-8096789D01*
X41898255Y-8112421D01*
X41991141Y-8098682D01*
X42078506Y-8049895D01*
X42083057Y-8045914D01*
X42147949Y-7970810D01*
X42195254Y-7880879D01*
X42213083Y-7832773D01*
X42239867Y-7734257D01*
X42257292Y-7632728D01*
X42267582Y-7532702D01*
X42273601Y-7428751D01*
X42275366Y-7330844D01*
X42273601Y-7232985D01*
X42267582Y-7129196D01*
X42257292Y-7029448D01*
X42249455Y-6977247D01*
X42228527Y-6880573D01*
X42195254Y-6780809D01*
X42192508Y-6774226D01*
X42144330Y-6685676D01*
X42078506Y-6612281D01*
X41996807Y-6565020D01*
X41898255Y-6549267D01*
X41805369Y-6563113D01*
X41718004Y-6612281D01*
X41713453Y-6616232D01*
X41648561Y-6690985D01*
X41601256Y-6780809D01*
X41583451Y-6828938D01*
X41556834Y-6927622D01*
X41539706Y-7029448D01*
X41529138Y-7129196D01*
X41522957Y-7232985D01*
X41521144Y-7330844D01*
X41245150Y-7330844D01*
X41247859Y-7214126D01*
X41255988Y-7104309D01*
X41269536Y-7001391D01*
X41294091Y-6882446D01*
X41327114Y-6774283D01*
X41368604Y-6676901D01*
X41418562Y-6590300D01*
X41440700Y-6558830D01*
X41513389Y-6476605D01*
X41595489Y-6412651D01*
X41687000Y-6366970D01*
X41787922Y-6339561D01*
X41898255Y-6330425D01*
X41936021Y-6331440D01*
G37*
G36*
X40192616Y-6431267D02*
G01*
X40259996Y-6504692D01*
X40327193Y-6581965D01*
X40394207Y-6663084D01*
X40459848Y-6746462D01*
X40523412Y-6830512D01*
X40584900Y-6915234D01*
X40644312Y-7000628D01*
X40687268Y-7064598D01*
X40741979Y-7148877D01*
X40800025Y-7242304D01*
X40854361Y-7334263D01*
X40860123Y-7344330D01*
X40908505Y-7431407D01*
X40954920Y-7520727D01*
X41000418Y-7617585D01*
X41000418Y-7799790D01*
X40127983Y-7799790D01*
X40127983Y-8300000D01*
X39874947Y-8300000D01*
X39874947Y-7799790D01*
X39643893Y-7799790D01*
X39643893Y-7580949D01*
X39874947Y-7580949D01*
X40127983Y-7580949D01*
X40746894Y-7580949D01*
X40717829Y-7522239D01*
X40670568Y-7432914D01*
X40618911Y-7342079D01*
X40573077Y-7266020D01*
X40520456Y-7183678D01*
X40465526Y-7102721D01*
X40424494Y-7044958D01*
X40362028Y-6960602D01*
X40298464Y-6878995D01*
X40260921Y-6832960D01*
X40196887Y-6758611D01*
X40127983Y-6684577D01*
X40127983Y-7580949D01*
X39874947Y-7580949D01*
X39874947Y-6361688D01*
X40125052Y-6361688D01*
X40192616Y-6431267D01*
G37*
G36*
X38778449Y-6331440D02*
G01*
X38885519Y-6346667D01*
X38983247Y-6380167D01*
X39071632Y-6431939D01*
X39150676Y-6501983D01*
X39220376Y-6590300D01*
X39231015Y-6606757D01*
X39279143Y-6695515D01*
X39318828Y-6795053D01*
X39350069Y-6905373D01*
X39368983Y-7001391D01*
X39382493Y-7104309D01*
X39390598Y-7214126D01*
X39393300Y-7330844D01*
X39390598Y-7447561D01*
X39382493Y-7557379D01*
X39368983Y-7660297D01*
X39344497Y-7779241D01*
X39311567Y-7887405D01*
X39270193Y-7984787D01*
X39220376Y-8071388D01*
X39198181Y-8102857D01*
X39125366Y-8185083D01*
X39043209Y-8249037D01*
X38951709Y-8294718D01*
X38850867Y-8322126D01*
X38740683Y-8331263D01*
X38702860Y-8330247D01*
X38595664Y-8315020D01*
X38497879Y-8281521D01*
X38409505Y-8229749D01*
X38330542Y-8159705D01*
X38260990Y-8071388D01*
X38250321Y-8054930D01*
X38202057Y-7966173D01*
X38162261Y-7866634D01*
X38130931Y-7756315D01*
X38111964Y-7660297D01*
X38098416Y-7557379D01*
X38090288Y-7447561D01*
X38087578Y-7330844D01*
X38363572Y-7330844D01*
X38365385Y-7428751D01*
X38371567Y-7532702D01*
X38382135Y-7632728D01*
X38389806Y-7684763D01*
X38410505Y-7781209D01*
X38443684Y-7880879D01*
X38446430Y-7887462D01*
X38494609Y-7976133D01*
X38560432Y-8049895D01*
X38642131Y-8096789D01*
X38740683Y-8112421D01*
X38833570Y-8098682D01*
X38920935Y-8049895D01*
X38925485Y-8045914D01*
X38990377Y-7970810D01*
X39037683Y-7880879D01*
X39055511Y-7832773D01*
X39082295Y-7734257D01*
X39099720Y-7632728D01*
X39110011Y-7532702D01*
X39116029Y-7428751D01*
X39117794Y-7330844D01*
X39116029Y-7232985D01*
X39110011Y-7129196D01*
X39099720Y-7029448D01*
X39091884Y-6977247D01*
X39070955Y-6880573D01*
X39037683Y-6780809D01*
X39034936Y-6774226D01*
X38986758Y-6685676D01*
X38920935Y-6612281D01*
X38839235Y-6565020D01*
X38740683Y-6549267D01*
X38647797Y-6563113D01*
X38560432Y-6612281D01*
X38555882Y-6616232D01*
X38490989Y-6690985D01*
X38443684Y-6780809D01*
X38425879Y-6828938D01*
X38399262Y-6927622D01*
X38382135Y-7029448D01*
X38371567Y-7129196D01*
X38365385Y-7232985D01*
X38363572Y-7330844D01*
X38087578Y-7330844D01*
X38090288Y-7214126D01*
X38098416Y-7104309D01*
X38111964Y-7001391D01*
X38136520Y-6882446D01*
X38169542Y-6774283D01*
X38211033Y-6676901D01*
X38260990Y-6590300D01*
X38283129Y-6558830D01*
X38355818Y-6476605D01*
X38437918Y-6412651D01*
X38529429Y-6366970D01*
X38630350Y-6339561D01*
X38740683Y-6330425D01*
X38778449Y-6331440D01*
G37*
G36*
X37881926Y-7362107D02*
G01*
X37187299Y-7362107D01*
X37187299Y-7580949D01*
X37881926Y-7580949D01*
X37881926Y-7362107D01*
G37*
G36*
X36893719Y-6903907D02*
G01*
X36796790Y-6882197D01*
X36692295Y-6862340D01*
X36656315Y-6856036D01*
X36559276Y-6842641D01*
X36453174Y-6834207D01*
X36349932Y-6830858D01*
X36313886Y-6830635D01*
X36214693Y-6835993D01*
X36114943Y-6855788D01*
X36077459Y-6868736D01*
X35989532Y-6915631D01*
X35917236Y-6980111D01*
X35855687Y-6940544D01*
X35766729Y-6897214D01*
X35751639Y-6891207D01*
X35655394Y-6859827D01*
X35613886Y-6849197D01*
X35514243Y-6833245D01*
X35450244Y-6830635D01*
X35350925Y-6835357D01*
X35247610Y-6853492D01*
X35174738Y-6878995D01*
X35090014Y-6929070D01*
X35018952Y-6999946D01*
X35007187Y-7016259D01*
X34959095Y-7106448D01*
X34929896Y-7203794D01*
X34925610Y-7226308D01*
X34912010Y-7328843D01*
X34905610Y-7430074D01*
X34904605Y-7492044D01*
X34904605Y-8300000D01*
X35166434Y-8300000D01*
X35166434Y-7561409D01*
X35168865Y-7458814D01*
X35177596Y-7358277D01*
X35179134Y-7346964D01*
X35202138Y-7250907D01*
X35227006Y-7197487D01*
X35294050Y-7125680D01*
X35322749Y-7109560D01*
X35422219Y-7083554D01*
X35478576Y-7080739D01*
X35578476Y-7086544D01*
X35674711Y-7107667D01*
X35696929Y-7115910D01*
X35785566Y-7158916D01*
X35813189Y-7178925D01*
X35788535Y-7277139D01*
X35779483Y-7333286D01*
X35770102Y-7435815D01*
X35768248Y-7509141D01*
X35768248Y-8300000D01*
X36030076Y-8300000D01*
X36030076Y-7561409D01*
X36032788Y-7458814D01*
X36042527Y-7358277D01*
X36044242Y-7346964D01*
X36068470Y-7250907D01*
X36093579Y-7197487D01*
X36160624Y-7125680D01*
X36189323Y-7109560D01*
X36287638Y-7083554D01*
X36342707Y-7080739D01*
X36427215Y-7083670D01*
X36513189Y-7090509D01*
X36587438Y-7100279D01*
X36632379Y-7108583D01*
X36632379Y-8300000D01*
X36893719Y-8300000D01*
X36893719Y-6903907D01*
G37*
G36*
X33957804Y-6835882D02*
G01*
X34060763Y-6853776D01*
X34155757Y-6884368D01*
X34219168Y-6913586D01*
X34304783Y-6967143D01*
X34378995Y-7032379D01*
X34421951Y-7082021D01*
X34476196Y-7164957D01*
X34518213Y-7258060D01*
X34543458Y-7342104D01*
X34560428Y-7440393D01*
X34566085Y-7544801D01*
X34561171Y-7651724D01*
X34544416Y-7758209D01*
X34515771Y-7853035D01*
X34495432Y-7899901D01*
X34442527Y-7991193D01*
X34377529Y-8068457D01*
X34343709Y-8099301D01*
X34263363Y-8155288D01*
X34173342Y-8196441D01*
X34129029Y-8210385D01*
X34029365Y-8230701D01*
X33924703Y-8237473D01*
X33900715Y-8237164D01*
X33796263Y-8227547D01*
X33698046Y-8202302D01*
X33658555Y-8187332D01*
X33567131Y-8144173D01*
X33567131Y-8204256D01*
X33575284Y-8306528D01*
X33607393Y-8408543D01*
X33670202Y-8490997D01*
X33705455Y-8517032D01*
X33795138Y-8555862D01*
X33897714Y-8575719D01*
X34006280Y-8581367D01*
X34044674Y-8580783D01*
X34142379Y-8573794D01*
X34244173Y-8557431D01*
X34343148Y-8533489D01*
X34436636Y-8502721D01*
X34484508Y-8755268D01*
X34467371Y-8761053D01*
X34373190Y-8787657D01*
X34272505Y-8809002D01*
X34218138Y-8817757D01*
X34113327Y-8828312D01*
X34012142Y-8831472D01*
X33990153Y-8831325D01*
X33885489Y-8826183D01*
X33771509Y-8810314D01*
X33670204Y-8783867D01*
X33568033Y-8739642D01*
X33483112Y-8681018D01*
X33472383Y-8671466D01*
X33406816Y-8594556D01*
X33357940Y-8500069D01*
X33329329Y-8405089D01*
X33312980Y-8297195D01*
X33308722Y-8197418D01*
X33308722Y-7111514D01*
X33570062Y-7111514D01*
X33570062Y-7888695D01*
X33617386Y-7919231D01*
X33708304Y-7958060D01*
X33799528Y-7980041D01*
X33899302Y-7987369D01*
X33951172Y-7984309D01*
X34047313Y-7961479D01*
X34094660Y-7940332D01*
X34173831Y-7881367D01*
X34214655Y-7832320D01*
X34261270Y-7744103D01*
X34286426Y-7646357D01*
X34293510Y-7544312D01*
X34291731Y-7493212D01*
X34274725Y-7387669D01*
X34239713Y-7295186D01*
X34179692Y-7207745D01*
X34141611Y-7171157D01*
X34051279Y-7116584D01*
X33953829Y-7088677D01*
X33854361Y-7080739D01*
X33776623Y-7082113D01*
X33676064Y-7090509D01*
X33667864Y-7091736D01*
X33570062Y-7111514D01*
X33308722Y-7111514D01*
X33308722Y-6906838D01*
X33345073Y-6898257D01*
X33441911Y-6877033D01*
X33538311Y-6857501D01*
X33555528Y-6854248D01*
X33656703Y-6840106D01*
X33758198Y-6832760D01*
X33857292Y-6830635D01*
X33957804Y-6835882D01*
G37*
G36*
X32866643Y-6903907D02*
G01*
X32769714Y-6882197D01*
X32665219Y-6862340D01*
X32629239Y-6856036D01*
X32532200Y-6842641D01*
X32426098Y-6834207D01*
X32322856Y-6830858D01*
X32286810Y-6830635D01*
X32187617Y-6835993D01*
X32087867Y-6855788D01*
X32050383Y-6868736D01*
X31962456Y-6915631D01*
X31890160Y-6980111D01*
X31828611Y-6940544D01*
X31739653Y-6897214D01*
X31724563Y-6891207D01*
X31628318Y-6859827D01*
X31586810Y-6849197D01*
X31487167Y-6833245D01*
X31423168Y-6830635D01*
X31323849Y-6835357D01*
X31220534Y-6853492D01*
X31147662Y-6878995D01*
X31062938Y-6929070D01*
X30991876Y-6999946D01*
X30980111Y-7016259D01*
X30932019Y-7106448D01*
X30902820Y-7203794D01*
X30898534Y-7226308D01*
X30884934Y-7328843D01*
X30878534Y-7430074D01*
X30877529Y-7492044D01*
X30877529Y-8300000D01*
X31139357Y-8300000D01*
X31139357Y-7561409D01*
X31141788Y-7458814D01*
X31150520Y-7358277D01*
X31152058Y-7346964D01*
X31175062Y-7250907D01*
X31199930Y-7197487D01*
X31266974Y-7125680D01*
X31295673Y-7109560D01*
X31395143Y-7083554D01*
X31451500Y-7080739D01*
X31551399Y-7086544D01*
X31647634Y-7107667D01*
X31669853Y-7115910D01*
X31758490Y-7158916D01*
X31786113Y-7178925D01*
X31761459Y-7277139D01*
X31752407Y-7333286D01*
X31743026Y-7435815D01*
X31741172Y-7509141D01*
X31741172Y-8300000D01*
X32003000Y-8300000D01*
X32003000Y-7561409D01*
X32005712Y-7458814D01*
X32015451Y-7358277D01*
X32017166Y-7346964D01*
X32041394Y-7250907D01*
X32066503Y-7197487D01*
X32133548Y-7125680D01*
X32162247Y-7109560D01*
X32260562Y-7083554D01*
X32315631Y-7080739D01*
X32400139Y-7083670D01*
X32486113Y-7090509D01*
X32560362Y-7100279D01*
X32605303Y-7108583D01*
X32605303Y-8300000D01*
X32866643Y-8300000D01*
X32866643Y-6903907D01*
G37*
G36*
X30212700Y-6830635D02*
G01*
X29658269Y-6830635D01*
X29658269Y-7080739D01*
X30212700Y-7080739D01*
X30212700Y-7707466D01*
X30208013Y-7806015D01*
X30196092Y-7876482D01*
X30155417Y-7968420D01*
X30145289Y-7981018D01*
X30060781Y-8034263D01*
X29963228Y-8049513D01*
X29942568Y-8049895D01*
X29842046Y-8044099D01*
X29753035Y-8023517D01*
X29660658Y-7988468D01*
X29652896Y-7985415D01*
X29602093Y-8221353D01*
X29694692Y-8256433D01*
X29740334Y-8270690D01*
X29838609Y-8291728D01*
X29941565Y-8299742D01*
X29965038Y-8300000D01*
X30069795Y-8294779D01*
X30166693Y-8277340D01*
X30211723Y-8262875D01*
X30299040Y-8216468D01*
X30367550Y-8151500D01*
X30420425Y-8062440D01*
X30450593Y-7967829D01*
X30466955Y-7865969D01*
X30473687Y-7768241D01*
X30474528Y-7715771D01*
X30474528Y-6436915D01*
X30212700Y-6392951D01*
X30212700Y-6830635D01*
G37*
G36*
X29593300Y-7362107D02*
G01*
X28898674Y-7362107D01*
X28898674Y-7580949D01*
X29593300Y-7580949D01*
X29593300Y-7362107D01*
G37*
G36*
X28605094Y-6903907D02*
G01*
X28508165Y-6882197D01*
X28403670Y-6862340D01*
X28367690Y-6856036D01*
X28270651Y-6842641D01*
X28164548Y-6834207D01*
X28061307Y-6830858D01*
X28025261Y-6830635D01*
X27926068Y-6835993D01*
X27826318Y-6855788D01*
X27788834Y-6868736D01*
X27700907Y-6915631D01*
X27628611Y-6980111D01*
X27567062Y-6940544D01*
X27478104Y-6897214D01*
X27463014Y-6891207D01*
X27366769Y-6859827D01*
X27325261Y-6849197D01*
X27225618Y-6833245D01*
X27161618Y-6830635D01*
X27062299Y-6835357D01*
X26958985Y-6853492D01*
X26886113Y-6878995D01*
X26801389Y-6929070D01*
X26730327Y-6999946D01*
X26718562Y-7016259D01*
X26670469Y-7106448D01*
X26641271Y-7203794D01*
X26636985Y-7226308D01*
X26623385Y-7328843D01*
X26616985Y-7430074D01*
X26615980Y-7492044D01*
X26615980Y-8300000D01*
X26877808Y-8300000D01*
X26877808Y-7561409D01*
X26880239Y-7458814D01*
X26888971Y-7358277D01*
X26890509Y-7346964D01*
X26913513Y-7250907D01*
X26938381Y-7197487D01*
X27005425Y-7125680D01*
X27034124Y-7109560D01*
X27133594Y-7083554D01*
X27189951Y-7080739D01*
X27289850Y-7086544D01*
X27386085Y-7107667D01*
X27408304Y-7115910D01*
X27496941Y-7158916D01*
X27524563Y-7178925D01*
X27499910Y-7277139D01*
X27490858Y-7333286D01*
X27481477Y-7435815D01*
X27479623Y-7509141D01*
X27479623Y-8300000D01*
X27741451Y-8300000D01*
X27741451Y-7561409D01*
X27744162Y-7458814D01*
X27753902Y-7358277D01*
X27755617Y-7346964D01*
X27779844Y-7250907D01*
X27804954Y-7197487D01*
X27871999Y-7125680D01*
X27900697Y-7109560D01*
X27999013Y-7083554D01*
X28054082Y-7080739D01*
X28138590Y-7083670D01*
X28224563Y-7090509D01*
X28298813Y-7100279D01*
X28343754Y-7108583D01*
X28343754Y-8300000D01*
X28605094Y-8300000D01*
X28605094Y-6903907D01*
G37*
G36*
X25664227Y-6833993D02*
G01*
X25768595Y-6851624D01*
X25866643Y-6884368D01*
X25927734Y-6913860D01*
X26011242Y-6968861D01*
X26084996Y-7036775D01*
X26133171Y-7095684D01*
X26187428Y-7183967D01*
X26227145Y-7274668D01*
X26255791Y-7373450D01*
X26272546Y-7479044D01*
X26277459Y-7580949D01*
X26272546Y-7684256D01*
X26255791Y-7790400D01*
X26227145Y-7888695D01*
X26199210Y-7954945D01*
X26147805Y-8045392D01*
X26084996Y-8125122D01*
X26036911Y-8171864D01*
X25956654Y-8231329D01*
X25866643Y-8278018D01*
X25793699Y-8303756D01*
X25690911Y-8324971D01*
X25591137Y-8331263D01*
X25517834Y-8327935D01*
X25413259Y-8310464D01*
X25315143Y-8278018D01*
X25254082Y-8248312D01*
X25170734Y-8193105D01*
X25097278Y-8125122D01*
X25048905Y-8066329D01*
X24994626Y-7978562D01*
X24955129Y-7888695D01*
X24952003Y-7880083D01*
X24924171Y-7781075D01*
X24909287Y-7684256D01*
X24904326Y-7580949D01*
X25177390Y-7580949D01*
X25181305Y-7664045D01*
X25198707Y-7764367D01*
X25234926Y-7862925D01*
X25288764Y-7946336D01*
X25310264Y-7970430D01*
X25392162Y-8033628D01*
X25489801Y-8070493D01*
X25591137Y-8081158D01*
X25626337Y-8079973D01*
X25723486Y-8062199D01*
X25816565Y-8017433D01*
X25893998Y-7946336D01*
X25937205Y-7882770D01*
X25977163Y-7787578D01*
X25997954Y-7690247D01*
X26004884Y-7580949D01*
X26000986Y-7497853D01*
X25983660Y-7397530D01*
X25947600Y-7298972D01*
X25893998Y-7215561D01*
X25872411Y-7191467D01*
X25790285Y-7128269D01*
X25692511Y-7091404D01*
X25591137Y-7080739D01*
X25555942Y-7081924D01*
X25458857Y-7099699D01*
X25365939Y-7144464D01*
X25288764Y-7215561D01*
X25245367Y-7279127D01*
X25205233Y-7374319D01*
X25184351Y-7471650D01*
X25177390Y-7580949D01*
X24904326Y-7580949D01*
X24909287Y-7479044D01*
X24926205Y-7373450D01*
X24955129Y-7274668D01*
X24982881Y-7207776D01*
X25034240Y-7116712D01*
X25097278Y-7036775D01*
X25145150Y-6990064D01*
X25225200Y-6930759D01*
X25315143Y-6884368D01*
X25388125Y-6858393D01*
X25491085Y-6836984D01*
X25591137Y-6830635D01*
X25664227Y-6833993D01*
G37*
G36*
X23599581Y-6187787D02*
G01*
X23599581Y-6928820D01*
X23650912Y-6901331D01*
X23744661Y-6864340D01*
X23769307Y-6856440D01*
X23870021Y-6836197D01*
X23967899Y-6830635D01*
X24053869Y-6835001D01*
X24151386Y-6852197D01*
X24248290Y-6885833D01*
X24292763Y-6908079D01*
X24380049Y-6966881D01*
X24454919Y-7040195D01*
X24494426Y-7092219D01*
X24544297Y-7179413D01*
X24582903Y-7277599D01*
X24607655Y-7375594D01*
X24622132Y-7480170D01*
X24626378Y-7580949D01*
X24626327Y-7591783D01*
X24620259Y-7696407D01*
X24604078Y-7794257D01*
X24574598Y-7894068D01*
X24545747Y-7961021D01*
X24492281Y-8051490D01*
X24426587Y-8130006D01*
X24376273Y-8175405D01*
X24291643Y-8233314D01*
X24196022Y-8278995D01*
X24099071Y-8308753D01*
X23994270Y-8326158D01*
X23892184Y-8331263D01*
X23869452Y-8331163D01*
X23771268Y-8328261D01*
X23670060Y-8320323D01*
X23568318Y-8305861D01*
X23533941Y-8299626D01*
X23433179Y-8279254D01*
X23337752Y-8255547D01*
X23337752Y-7193091D01*
X23599581Y-7193091D01*
X23599581Y-8049895D01*
X23612733Y-8053382D01*
X23710956Y-8071388D01*
X23791189Y-8078715D01*
X23889253Y-8081158D01*
X23953147Y-8077974D01*
X24057819Y-8056194D01*
X24149198Y-8013780D01*
X24227285Y-7950732D01*
X24282636Y-7878711D01*
X24326003Y-7781411D01*
X24347749Y-7680455D01*
X24353803Y-7580949D01*
X24348865Y-7485036D01*
X24331332Y-7383600D01*
X24308399Y-7312779D01*
X24258060Y-7224354D01*
X24211945Y-7174420D01*
X24127145Y-7118841D01*
X24032928Y-7089111D01*
X23934682Y-7080739D01*
X23831978Y-7089898D01*
X23737822Y-7117376D01*
X23685491Y-7140302D01*
X23599581Y-7193091D01*
X23337752Y-7193091D01*
X23337752Y-6142847D01*
X23599581Y-6187787D01*
G37*
G36*
X21731123Y-8227215D02*
G01*
X21828159Y-8248925D01*
X21924181Y-8267220D01*
X21969016Y-8275087D01*
X22075921Y-8289270D01*
X22182625Y-8297056D01*
X22286407Y-8299902D01*
X22310467Y-8300000D01*
X22410855Y-8295277D01*
X22509160Y-8279173D01*
X22594766Y-8251639D01*
X22681016Y-8205736D01*
X22757311Y-8141515D01*
X22780390Y-8114863D01*
X22834460Y-8031088D01*
X22873569Y-7935345D01*
X22881995Y-7905792D01*
X22901921Y-7803486D01*
X22911297Y-7701465D01*
X22912770Y-7638590D01*
X22912770Y-6830635D01*
X22650942Y-6830635D01*
X22650942Y-7569225D01*
X22646898Y-7675053D01*
X22632373Y-7778825D01*
X22603406Y-7873674D01*
X22566434Y-7938520D01*
X22486841Y-8006389D01*
X22385398Y-8041085D01*
X22282135Y-8049895D01*
X22195184Y-8046964D01*
X22110676Y-8040125D01*
X22038869Y-8031821D01*
X21992463Y-8021563D01*
X21992463Y-6830635D01*
X21731123Y-6830635D01*
X21731123Y-8227215D01*
G37*
G36*
X20850872Y-8300000D02*
G01*
X20949951Y-8293301D01*
X21046755Y-8274998D01*
X21143116Y-8236148D01*
X21194277Y-8198394D01*
X21255895Y-8111246D01*
X21285519Y-8015743D01*
X21295295Y-7912007D01*
X21295394Y-7899441D01*
X21295394Y-6186810D01*
X21033565Y-6142847D01*
X21033565Y-7826168D01*
X21023691Y-7923598D01*
X21022330Y-7928750D01*
X20985694Y-7993719D01*
X20918283Y-8029867D01*
X20821912Y-8048843D01*
X20814235Y-8049895D01*
X20850872Y-8300000D01*
G37*
G36*
X19987590Y-6832283D02*
G01*
X20088680Y-6847167D01*
X20187997Y-6877529D01*
X20232281Y-6896763D01*
X20321632Y-6949749D01*
X20401953Y-7018213D01*
X20451262Y-7074559D01*
X20507992Y-7161708D01*
X20550942Y-7253663D01*
X20560981Y-7280645D01*
X20587313Y-7376663D01*
X20602674Y-7482031D01*
X20607117Y-7584856D01*
X20602872Y-7683947D01*
X20588394Y-7786995D01*
X20563642Y-7883810D01*
X20538790Y-7949633D01*
X20490751Y-8039667D01*
X20429797Y-8119260D01*
X20375336Y-8171677D01*
X20290580Y-8231108D01*
X20200697Y-8275087D01*
X20174134Y-8285126D01*
X20078956Y-8311458D01*
X19973569Y-8326819D01*
X19869993Y-8331263D01*
X19805094Y-8329907D01*
X19701127Y-8321274D01*
X19598883Y-8302930D01*
X19525089Y-8284076D01*
X19431332Y-8249685D01*
X19467480Y-8010816D01*
X19514035Y-8029315D01*
X19609630Y-8057222D01*
X19633878Y-8062832D01*
X19736911Y-8077208D01*
X19841660Y-8081158D01*
X19915119Y-8078439D01*
X20019457Y-8062777D01*
X20117422Y-8028516D01*
X20202163Y-7969783D01*
X20235792Y-7932450D01*
X20288666Y-7842615D01*
X20319857Y-7744469D01*
X20334542Y-7643475D01*
X19332658Y-7643475D01*
X19329727Y-7595603D01*
X19329727Y-7553593D01*
X19330344Y-7508592D01*
X19337277Y-7402499D01*
X19338742Y-7393370D01*
X19602791Y-7393370D01*
X20328681Y-7393370D01*
X20324914Y-7371474D01*
X20293510Y-7278576D01*
X20280750Y-7254416D01*
X20218771Y-7178436D01*
X20190182Y-7155295D01*
X20102023Y-7108094D01*
X20042594Y-7090383D01*
X19943265Y-7080739D01*
X19876464Y-7084947D01*
X19777282Y-7111737D01*
X19691695Y-7168667D01*
X19665310Y-7197337D01*
X19616050Y-7290301D01*
X19602791Y-7393370D01*
X19338742Y-7393370D01*
X19355767Y-7287277D01*
X19385351Y-7185245D01*
X19426029Y-7096401D01*
X19487508Y-7009420D01*
X19551353Y-6948661D01*
X19638124Y-6893663D01*
X19738124Y-6855776D01*
X19834369Y-6836920D01*
X19940334Y-6830635D01*
X19987590Y-6832283D01*
G37*
G36*
X45632728Y-10190635D02*
G01*
X45660793Y-10293293D01*
X45690034Y-10394883D01*
X45720449Y-10495404D01*
X45752041Y-10594856D01*
X45784807Y-10693241D01*
X45818750Y-10790556D01*
X45853867Y-10886803D01*
X45890160Y-10981981D01*
X45926888Y-11075389D01*
X45963311Y-11166324D01*
X46008410Y-11276514D01*
X46053032Y-11382841D01*
X46097177Y-11485304D01*
X46140845Y-11583903D01*
X46175436Y-11660000D01*
X46411863Y-11660000D01*
X46455161Y-11564492D01*
X46498960Y-11465120D01*
X46543260Y-11361885D01*
X46588061Y-11254785D01*
X46633363Y-11143822D01*
X46669965Y-11052269D01*
X46697627Y-10981981D01*
X46733920Y-10886803D01*
X46769037Y-10790556D01*
X46802979Y-10693241D01*
X46835746Y-10594856D01*
X46867337Y-10495404D01*
X46897753Y-10394883D01*
X46926994Y-10293293D01*
X46955059Y-10190635D01*
X46673691Y-10190635D01*
X46649018Y-10286861D01*
X46621343Y-10387475D01*
X46593579Y-10482749D01*
X46564051Y-10579292D01*
X46533473Y-10675357D01*
X46501845Y-10770946D01*
X46495394Y-10790006D01*
X46462631Y-10884050D01*
X46429677Y-10976280D01*
X46393208Y-11075639D01*
X46389881Y-11084563D01*
X46353632Y-11178712D01*
X46315667Y-11273257D01*
X46288276Y-11338576D01*
X46248493Y-11242689D01*
X46210197Y-11145304D01*
X46187159Y-11084563D01*
X46150448Y-10985403D01*
X46117476Y-10893354D01*
X46084885Y-10799492D01*
X46081646Y-10790006D01*
X46049551Y-10694513D01*
X46018601Y-10598543D01*
X45988796Y-10502096D01*
X45982972Y-10482749D01*
X45955209Y-10387475D01*
X45927534Y-10286861D01*
X45902861Y-10190635D01*
X45632728Y-10190635D01*
G37*
G36*
X44839580Y-9691440D02*
G01*
X44946650Y-9706667D01*
X45044378Y-9740167D01*
X45132763Y-9791939D01*
X45211806Y-9861983D01*
X45281507Y-9950300D01*
X45292146Y-9966757D01*
X45340274Y-10055515D01*
X45379959Y-10155053D01*
X45411200Y-10265373D01*
X45430113Y-10361391D01*
X45443623Y-10464309D01*
X45451729Y-10574126D01*
X45454431Y-10690844D01*
X45451729Y-10807561D01*
X45443623Y-10917379D01*
X45430113Y-11020297D01*
X45405627Y-11139241D01*
X45372697Y-11247405D01*
X45331324Y-11344787D01*
X45281507Y-11431388D01*
X45259311Y-11462857D01*
X45186496Y-11545083D01*
X45104339Y-11609037D01*
X45012840Y-11654718D01*
X44911998Y-11682126D01*
X44801814Y-11691263D01*
X44763991Y-11690247D01*
X44656795Y-11675020D01*
X44559010Y-11641521D01*
X44470636Y-11589749D01*
X44391673Y-11519705D01*
X44322121Y-11431388D01*
X44311452Y-11414930D01*
X44263188Y-11326173D01*
X44223391Y-11226634D01*
X44192062Y-11116315D01*
X44173095Y-11020297D01*
X44159547Y-10917379D01*
X44151418Y-10807561D01*
X44148709Y-10690844D01*
X44424703Y-10690844D01*
X44426516Y-10788751D01*
X44432697Y-10892702D01*
X44443265Y-10992728D01*
X44450936Y-11044763D01*
X44471636Y-11141209D01*
X44504815Y-11240879D01*
X44507561Y-11247462D01*
X44555739Y-11336133D01*
X44621563Y-11409895D01*
X44703262Y-11456789D01*
X44801814Y-11472421D01*
X44894700Y-11458682D01*
X44982065Y-11409895D01*
X44986616Y-11405914D01*
X45051508Y-11330810D01*
X45098813Y-11240879D01*
X45116641Y-11192773D01*
X45143426Y-11094257D01*
X45160851Y-10992728D01*
X45171141Y-10892702D01*
X45177160Y-10788751D01*
X45178925Y-10690844D01*
X45177160Y-10592985D01*
X45171141Y-10489196D01*
X45160851Y-10389448D01*
X45153014Y-10337247D01*
X45132086Y-10240573D01*
X45098813Y-10140809D01*
X45096067Y-10134226D01*
X45047889Y-10045676D01*
X44982065Y-9972281D01*
X44900366Y-9925020D01*
X44801814Y-9909267D01*
X44708928Y-9923113D01*
X44621563Y-9972281D01*
X44617012Y-9976232D01*
X44552120Y-10050985D01*
X44504815Y-10140809D01*
X44487010Y-10188938D01*
X44460393Y-10287622D01*
X44443265Y-10389448D01*
X44432697Y-10489196D01*
X44426516Y-10592985D01*
X44424703Y-10690844D01*
X44148709Y-10690844D01*
X44151418Y-10574126D01*
X44159547Y-10464309D01*
X44173095Y-10361391D01*
X44197650Y-10242446D01*
X44230673Y-10134283D01*
X44272163Y-10036901D01*
X44322121Y-9950300D01*
X44344259Y-9918830D01*
X44416948Y-9836605D01*
X44499048Y-9772651D01*
X44590559Y-9726970D01*
X44691481Y-9699561D01*
X44801814Y-9690425D01*
X44839580Y-9691440D01*
G37*
G36*
X43481926Y-11503684D02*
G01*
X43505938Y-11598557D01*
X43532728Y-11635575D01*
X43619226Y-11685824D01*
X43669993Y-11691263D01*
X43768978Y-11667280D01*
X43808234Y-11635575D01*
X43854568Y-11544728D01*
X43858548Y-11503684D01*
X43832556Y-11405190D01*
X43808234Y-11372281D01*
X43721064Y-11321591D01*
X43669993Y-11316106D01*
X43571648Y-11340298D01*
X43532728Y-11372281D01*
X43485944Y-11462678D01*
X43481926Y-11503684D01*
G37*
G36*
X42573006Y-9691440D02*
G01*
X42680076Y-9706667D01*
X42777804Y-9740167D01*
X42866189Y-9791939D01*
X42945232Y-9861983D01*
X43014933Y-9950300D01*
X43025572Y-9966757D01*
X43073700Y-10055515D01*
X43113385Y-10155053D01*
X43144626Y-10265373D01*
X43163540Y-10361391D01*
X43177049Y-10464309D01*
X43185155Y-10574126D01*
X43187857Y-10690844D01*
X43185155Y-10807561D01*
X43177049Y-10917379D01*
X43163540Y-11020297D01*
X43139053Y-11139241D01*
X43106124Y-11247405D01*
X43064750Y-11344787D01*
X43014933Y-11431388D01*
X42992738Y-11462857D01*
X42919923Y-11545083D01*
X42837766Y-11609037D01*
X42746266Y-11654718D01*
X42645424Y-11682126D01*
X42535240Y-11691263D01*
X42497417Y-11690247D01*
X42390221Y-11675020D01*
X42292436Y-11641521D01*
X42204062Y-11589749D01*
X42125099Y-11519705D01*
X42055547Y-11431388D01*
X42044878Y-11414930D01*
X41996614Y-11326173D01*
X41956817Y-11226634D01*
X41925488Y-11116315D01*
X41906521Y-11020297D01*
X41892973Y-10917379D01*
X41884844Y-10807561D01*
X41882135Y-10690844D01*
X42158129Y-10690844D01*
X42159942Y-10788751D01*
X42166123Y-10892702D01*
X42176692Y-10992728D01*
X42184363Y-11044763D01*
X42205062Y-11141209D01*
X42238241Y-11240879D01*
X42240987Y-11247462D01*
X42289166Y-11336133D01*
X42354989Y-11409895D01*
X42436688Y-11456789D01*
X42535240Y-11472421D01*
X42628126Y-11458682D01*
X42715491Y-11409895D01*
X42720042Y-11405914D01*
X42784934Y-11330810D01*
X42832240Y-11240879D01*
X42850068Y-11192773D01*
X42876852Y-11094257D01*
X42894277Y-10992728D01*
X42904567Y-10892702D01*
X42910586Y-10788751D01*
X42912351Y-10690844D01*
X42910586Y-10592985D01*
X42904567Y-10489196D01*
X42894277Y-10389448D01*
X42886440Y-10337247D01*
X42865512Y-10240573D01*
X42832240Y-10140809D01*
X42829493Y-10134226D01*
X42781315Y-10045676D01*
X42715491Y-9972281D01*
X42633792Y-9925020D01*
X42535240Y-9909267D01*
X42442354Y-9923113D01*
X42354989Y-9972281D01*
X42350439Y-9976232D01*
X42285546Y-10050985D01*
X42238241Y-10140809D01*
X42220436Y-10188938D01*
X42193819Y-10287622D01*
X42176692Y-10389448D01*
X42166123Y-10489196D01*
X42159942Y-10592985D01*
X42158129Y-10690844D01*
X41882135Y-10690844D01*
X41884844Y-10574126D01*
X41892973Y-10464309D01*
X41906521Y-10361391D01*
X41931076Y-10242446D01*
X41964099Y-10134283D01*
X42005590Y-10036901D01*
X42055547Y-9950300D01*
X42077686Y-9918830D01*
X42150375Y-9836605D01*
X42232475Y-9772651D01*
X42323985Y-9726970D01*
X42424907Y-9699561D01*
X42535240Y-9690425D01*
X42573006Y-9691440D01*
G37*
G36*
X41215352Y-11503684D02*
G01*
X41239364Y-11598557D01*
X41266154Y-11635575D01*
X41352653Y-11685824D01*
X41403419Y-11691263D01*
X41502405Y-11667280D01*
X41541660Y-11635575D01*
X41587994Y-11544728D01*
X41591974Y-11503684D01*
X41565982Y-11405190D01*
X41541660Y-11372281D01*
X41454490Y-11321591D01*
X41403419Y-11316106D01*
X41305074Y-11340298D01*
X41266154Y-11372281D01*
X41219370Y-11462678D01*
X41215352Y-11503684D01*
G37*
G36*
X40306433Y-9691440D02*
G01*
X40413503Y-9706667D01*
X40511230Y-9740167D01*
X40599616Y-9791939D01*
X40678659Y-9861983D01*
X40748360Y-9950300D01*
X40758998Y-9966757D01*
X40807127Y-10055515D01*
X40846811Y-10155053D01*
X40878053Y-10265373D01*
X40896966Y-10361391D01*
X40910476Y-10464309D01*
X40918582Y-10574126D01*
X40921284Y-10690844D01*
X40918582Y-10807561D01*
X40910476Y-10917379D01*
X40896966Y-11020297D01*
X40872480Y-11139241D01*
X40839550Y-11247405D01*
X40798177Y-11344787D01*
X40748360Y-11431388D01*
X40726164Y-11462857D01*
X40653349Y-11545083D01*
X40571192Y-11609037D01*
X40479692Y-11654718D01*
X40378851Y-11682126D01*
X40268667Y-11691263D01*
X40230843Y-11690247D01*
X40123647Y-11675020D01*
X40025863Y-11641521D01*
X39937489Y-11589749D01*
X39858526Y-11519705D01*
X39788974Y-11431388D01*
X39778305Y-11414930D01*
X39730041Y-11326173D01*
X39690244Y-11226634D01*
X39658914Y-11116315D01*
X39639947Y-11020297D01*
X39626400Y-10917379D01*
X39618271Y-10807561D01*
X39615561Y-10690844D01*
X39891556Y-10690844D01*
X39893368Y-10788751D01*
X39899550Y-10892702D01*
X39910118Y-10992728D01*
X39917789Y-11044763D01*
X39938488Y-11141209D01*
X39971667Y-11240879D01*
X39974414Y-11247462D01*
X40022592Y-11336133D01*
X40088415Y-11409895D01*
X40170115Y-11456789D01*
X40268667Y-11472421D01*
X40361553Y-11458682D01*
X40448918Y-11409895D01*
X40453468Y-11405914D01*
X40518361Y-11330810D01*
X40565666Y-11240879D01*
X40583494Y-11192773D01*
X40610278Y-11094257D01*
X40627704Y-10992728D01*
X40637994Y-10892702D01*
X40644013Y-10788751D01*
X40645778Y-10690844D01*
X40644013Y-10592985D01*
X40637994Y-10489196D01*
X40627704Y-10389448D01*
X40619867Y-10337247D01*
X40598938Y-10240573D01*
X40565666Y-10140809D01*
X40562920Y-10134226D01*
X40514741Y-10045676D01*
X40448918Y-9972281D01*
X40367219Y-9925020D01*
X40268667Y-9909267D01*
X40175780Y-9923113D01*
X40088415Y-9972281D01*
X40083865Y-9976232D01*
X40018973Y-10050985D01*
X39971667Y-10140809D01*
X39953862Y-10188938D01*
X39927246Y-10287622D01*
X39910118Y-10389448D01*
X39899550Y-10489196D01*
X39893368Y-10592985D01*
X39891556Y-10690844D01*
X39615561Y-10690844D01*
X39618271Y-10574126D01*
X39626400Y-10464309D01*
X39639947Y-10361391D01*
X39664503Y-10242446D01*
X39697526Y-10134283D01*
X39739016Y-10036901D01*
X39788974Y-9950300D01*
X39811112Y-9918830D01*
X39883801Y-9836605D01*
X39965901Y-9772651D01*
X40057412Y-9726970D01*
X40158334Y-9699561D01*
X40268667Y-9690425D01*
X40306433Y-9691440D01*
G37*
%LPC*%
D11*
%TO.C,J3*%
X6200000Y-6370000D03*
X6200000Y-17800000D03*
D12*
X12560000Y-7645000D03*
D13*
X15100000Y-8905000D03*
X12560000Y-10185000D03*
X15100000Y-11445000D03*
X12560000Y-12725000D03*
X15100000Y-13985000D03*
X12560000Y-15265000D03*
X15100000Y-16525000D03*
X1300000Y-5460000D03*
X1300000Y-8000000D03*
X1300000Y-16170000D03*
X1300000Y-18710000D03*
D14*
X9250000Y-4340000D03*
X9250000Y-19830000D03*
%TD*%
D15*
%TO.C,J4*%
X50700000Y-16560000D03*
D16*
X50700000Y-19100000D03*
X50700000Y-21640000D03*
%TD*%
D17*
%TO.C,J2*%
X54830000Y-22280000D03*
D18*
X55140000Y-19280000D03*
X59980000Y-19280000D03*
D17*
X60290000Y-22280000D03*
%TD*%
D19*
%TO.C,J1*%
X81400000Y-21390000D03*
D20*
X81950000Y-20390000D03*
X81950000Y-19390000D03*
X81950000Y-18390000D03*
X81950000Y-17390000D03*
X81950000Y-16390000D03*
X81950000Y-15390000D03*
X81950000Y-14390000D03*
X81950000Y-13390000D03*
X81950000Y-12390000D03*
X81950000Y-11390000D03*
X81950000Y-8390000D03*
X81950000Y-7390000D03*
X81950000Y-6390000D03*
X81950000Y-5390000D03*
X81950000Y-4390000D03*
X81950000Y-3390000D03*
X81950000Y-2390000D03*
%TD*%
%LPD*%
M02*
