M48
; DRILL file {KiCad 8.0.3} date 2024-06-27T21:22:13-0400
; FORMAT={-:-/ absolute / inch / decimal}
; #@! TF.CreationDate,2024-06-27T21:22:13-04:00
; #@! TF.GenerationSoftware,Kicad,Pcbnew,8.0.3
; #@! TF.FileFunction,Plated,1,4,PTH
FMAT,2
INCH
; #@! TA.AperFunction,Plated,PTH,ViaDrill
T1C0.0138
; #@! TA.AperFunction,Plated,PTH,ComponentDrill
T2C0.0256
; #@! TA.AperFunction,Plated,PTH,ComponentDrill
T3C0.0276
; #@! TA.AperFunction,Plated,PTH,ComponentDrill
T4C0.0350
; #@! TA.AperFunction,Plated,PTH,ComponentDrill
T5C0.0394
; #@! TA.AperFunction,Plated,PTH,ComponentDrill
T6C0.0402
; #@! TA.AperFunction,Plated,PTH,ComponentDrill
T7C0.0642
%
G90
G05
T1
X1.7982Y-0.4921
X1.9026Y-0.4567
T4
X0.4945Y-0.301
X0.4945Y-0.401
X0.4945Y-0.501
X0.4945Y-0.601
X0.5945Y-0.3506
X0.5945Y-0.4506
X0.5945Y-0.5506
X0.5945Y-0.6506
T5
X1.9961Y-0.652
X1.9961Y-0.752
X1.9961Y-0.852
T6
X0.0512Y-0.215
X0.0512Y-0.315
X0.0512Y-0.6366
X0.0512Y-0.7366
T7
X0.3642Y-0.1709
X0.3642Y-0.7807
T2
G00X2.1709Y-0.7669
M15
G01X2.1709Y-0.7512
M16
G05
G00X2.3614Y-0.7669
M15
G01X2.3614Y-0.7512
M16
G05
T3
G00X2.1587Y-0.887
M15
G01X2.1587Y-0.8673
M16
G05
G00X2.3736Y-0.887
M15
G01X2.3736Y-0.8673
M16
G05
M30
