%TF.GenerationSoftware,KiCad,Pcbnew,8.0.3*%
%TF.CreationDate,2024-06-27T21:22:13-04:00*%
%TF.ProjectId,rp2040-mgmt-module,72703230-3430-42d6-9d67-6d742d6d6f64,v0.0.0*%
%TF.SameCoordinates,Original*%
%TF.FileFunction,Paste,Top*%
%TF.FilePolarity,Positive*%
%FSLAX46Y46*%
G04 Gerber Fmt 4.6, Leading zero omitted, Abs format (unit mm)*
G04 Created by KiCad (PCBNEW 8.0.3) date 2024-06-27 21:22:13*
%MOMM*%
%LPD*%
G01*
G04 APERTURE LIST*
G04 Aperture macros list*
%AMRoundRect*
0 Rectangle with rounded corners*
0 $1 Rounding radius*
0 $2 $3 $4 $5 $6 $7 $8 $9 X,Y pos of 4 corners*
0 Add a 4 corners polygon primitive as box body*
4,1,4,$2,$3,$4,$5,$6,$7,$8,$9,$2,$3,0*
0 Add four circle primitives for the rounded corners*
1,1,$1+$1,$2,$3*
1,1,$1+$1,$4,$5*
1,1,$1+$1,$6,$7*
1,1,$1+$1,$8,$9*
0 Add four rect primitives between the rounded corners*
20,1,$1+$1,$2,$3,$4,$5,0*
20,1,$1+$1,$4,$5,$6,$7,0*
20,1,$1+$1,$6,$7,$8,$9,0*
20,1,$1+$1,$8,$9,$2,$3,0*%
G04 Aperture macros list end*
%ADD10RoundRect,0.140000X-0.140000X-0.170000X0.140000X-0.170000X0.140000X0.170000X-0.140000X0.170000X0*%
%ADD11RoundRect,0.250000X-0.250000X-0.475000X0.250000X-0.475000X0.250000X0.475000X-0.250000X0.475000X0*%
%ADD12RoundRect,0.375000X0.625000X0.375000X-0.625000X0.375000X-0.625000X-0.375000X0.625000X-0.375000X0*%
%ADD13RoundRect,0.500000X0.500000X1.400000X-0.500000X1.400000X-0.500000X-1.400000X0.500000X-1.400000X0*%
%ADD14RoundRect,0.218750X-0.218750X-0.256250X0.218750X-0.256250X0.218750X0.256250X-0.218750X0.256250X0*%
%ADD15R,1.200000X1.000000*%
%ADD16RoundRect,0.135000X-0.135000X-0.185000X0.135000X-0.185000X0.135000X0.185000X-0.135000X0.185000X0*%
%ADD17R,1.400000X1.200000*%
%ADD18RoundRect,0.150000X-0.587500X-0.150000X0.587500X-0.150000X0.587500X0.150000X-0.587500X0.150000X0*%
%ADD19RoundRect,0.112500X-0.187500X-0.112500X0.187500X-0.112500X0.187500X0.112500X-0.187500X0.112500X0*%
%ADD20RoundRect,0.249999X-0.395001X0.395001X-0.395001X-0.395001X0.395001X-0.395001X0.395001X0.395001X0*%
%ADD21RoundRect,0.050000X-0.050000X0.387500X-0.050000X-0.387500X0.050000X-0.387500X0.050000X0.387500X0*%
%ADD22RoundRect,0.050000X-0.387500X0.050000X-0.387500X-0.050000X0.387500X-0.050000X0.387500X0.050000X0*%
%ADD23R,0.400000X1.650000*%
%ADD24R,1.825000X0.700000*%
%ADD25R,2.000000X1.500000*%
%ADD26R,1.350000X2.000000*%
%ADD27R,1.430000X2.500000*%
%ADD28RoundRect,0.150000X-0.150000X0.650000X-0.150000X-0.650000X0.150000X-0.650000X0.150000X0.650000X0*%
%ADD29RoundRect,0.075000X-0.662500X-0.075000X0.662500X-0.075000X0.662500X0.075000X-0.662500X0.075000X0*%
%ADD30RoundRect,0.075000X-0.075000X-0.662500X0.075000X-0.662500X0.075000X0.662500X-0.075000X0.662500X0*%
G04 APERTURE END LIST*
D10*
%TO.C,C7*%
X31100000Y-8700000D03*
X32060000Y-8700000D03*
%TD*%
%TO.C,C6*%
X49520000Y-11100000D03*
X50480000Y-11100000D03*
%TD*%
D11*
%TO.C,C4*%
X49700000Y-4290000D03*
X51600000Y-4290000D03*
%TD*%
D12*
%TO.C,U1*%
X72750000Y-16800000D03*
X72750000Y-14500000D03*
D13*
X66450000Y-14500000D03*
D12*
X72750000Y-12200000D03*
%TD*%
D10*
%TO.C,C13*%
X36840000Y-820000D03*
X37800000Y-820000D03*
%TD*%
D14*
%TO.C,FB1*%
X23700000Y-21055000D03*
X25275000Y-21055000D03*
%TD*%
D15*
%TO.C,SW1*%
X72700000Y-4000000D03*
X65300000Y-4000000D03*
%TD*%
D10*
%TO.C,C2*%
X31100000Y-2790000D03*
X32060000Y-2790000D03*
%TD*%
%TO.C,C15*%
X36840000Y-4760000D03*
X37800000Y-4760000D03*
%TD*%
D11*
%TO.C,C16*%
X49700000Y-7300000D03*
X51600000Y-7300000D03*
%TD*%
D10*
%TO.C,C1*%
X31100000Y-820000D03*
X32060000Y-820000D03*
%TD*%
%TO.C,C10*%
X33970000Y-4760000D03*
X34930000Y-4760000D03*
%TD*%
D16*
%TO.C,R1*%
X53880000Y-1900000D03*
X54900000Y-1900000D03*
%TD*%
%TO.C,R7*%
X53880000Y-13840000D03*
X54900000Y-13840000D03*
%TD*%
D10*
%TO.C,C17*%
X36840000Y-6730000D03*
X37800000Y-6730000D03*
%TD*%
%TO.C,C9*%
X49520000Y-12200000D03*
X50480000Y-12200000D03*
%TD*%
%TO.C,C11*%
X33970000Y-6730000D03*
X34930000Y-6730000D03*
%TD*%
D17*
%TO.C,Y2*%
X19117500Y-15475000D03*
X21317500Y-15475000D03*
X21317500Y-13775000D03*
X19117500Y-13775000D03*
%TD*%
D10*
%TO.C,C8*%
X33970000Y-820000D03*
X34930000Y-820000D03*
%TD*%
D18*
%TO.C,Q1*%
X19100000Y-18300000D03*
X19100000Y-20200000D03*
X20975000Y-19250000D03*
%TD*%
D10*
%TO.C,C5*%
X31100000Y-4760000D03*
X32060000Y-4760000D03*
%TD*%
%TO.C,C12*%
X33970000Y-8700000D03*
X34930000Y-8700000D03*
%TD*%
D17*
%TO.C,Y1*%
X41300000Y-20750000D03*
X43500000Y-20750000D03*
X43500000Y-19050000D03*
X41300000Y-19050000D03*
%TD*%
D19*
%TO.C,D1*%
X23602500Y-18325000D03*
X25702500Y-18325000D03*
%TD*%
D16*
%TO.C,R3*%
X53880000Y-5880000D03*
X54900000Y-5880000D03*
%TD*%
%TO.C,R2*%
X53880000Y-3890000D03*
X54900000Y-3890000D03*
%TD*%
D20*
%TO.C,U3*%
X44362500Y-11000000D03*
X42762500Y-11000000D03*
X44362500Y-12600000D03*
X42762500Y-12600000D03*
D21*
X46162500Y-8362500D03*
X45762500Y-8362500D03*
X45362500Y-8362500D03*
X44962500Y-8362500D03*
X44562500Y-8362500D03*
X44162500Y-8362500D03*
X43762500Y-8362500D03*
X43362500Y-8362500D03*
X42962500Y-8362500D03*
X42562500Y-8362500D03*
X42162500Y-8362500D03*
X41762500Y-8362500D03*
X41362500Y-8362500D03*
X40962500Y-8362500D03*
D22*
X40125000Y-9200000D03*
X40125000Y-9600000D03*
X40125000Y-10000000D03*
X40125000Y-10400000D03*
X40125000Y-10800000D03*
X40125000Y-11200000D03*
X40125000Y-11600000D03*
X40125000Y-12000000D03*
X40125000Y-12400000D03*
X40125000Y-12800000D03*
X40125000Y-13200000D03*
X40125000Y-13600000D03*
X40125000Y-14000000D03*
X40125000Y-14400000D03*
D21*
X40962500Y-15237500D03*
X41362500Y-15237500D03*
X41762500Y-15237500D03*
X42162500Y-15237500D03*
X42562500Y-15237500D03*
X42962500Y-15237500D03*
X43362500Y-15237500D03*
X43762500Y-15237500D03*
X44162500Y-15237500D03*
X44562500Y-15237500D03*
X44962500Y-15237500D03*
X45362500Y-15237500D03*
X45762500Y-15237500D03*
X46162500Y-15237500D03*
D22*
X47000000Y-14400000D03*
X47000000Y-14000000D03*
X47000000Y-13600000D03*
X47000000Y-13200000D03*
X47000000Y-12800000D03*
X47000000Y-12400000D03*
X47000000Y-12000000D03*
X47000000Y-11600000D03*
X47000000Y-11200000D03*
X47000000Y-10800000D03*
X47000000Y-10400000D03*
X47000000Y-10000000D03*
X47000000Y-9600000D03*
X47000000Y-9200000D03*
%TD*%
D10*
%TO.C,C14*%
X36840000Y-2790000D03*
X37800000Y-2790000D03*
%TD*%
D23*
%TO.C,J2*%
X56260000Y-19400000D03*
X56910000Y-19400000D03*
X57560000Y-19400000D03*
X58210000Y-19400000D03*
X58860000Y-19400000D03*
D24*
X54610000Y-20600000D03*
D25*
X54710000Y-19300000D03*
D26*
X54830000Y-21350000D03*
D27*
X56600000Y-22550000D03*
X58520000Y-22550000D03*
D26*
X60310000Y-21350000D03*
D25*
X60460000Y-19280000D03*
D24*
X60560000Y-20600000D03*
%TD*%
D16*
%TO.C,R4*%
X53880000Y-7870000D03*
X54900000Y-7870000D03*
%TD*%
%TO.C,R6*%
X53880000Y-11850000D03*
X54900000Y-11850000D03*
%TD*%
D28*
%TO.C,U2*%
X62205000Y-2800000D03*
X60935000Y-2800000D03*
X59665000Y-2800000D03*
X58395000Y-2800000D03*
X58395000Y-10000000D03*
X59665000Y-10000000D03*
X60935000Y-10000000D03*
X62205000Y-10000000D03*
%TD*%
D29*
%TO.C,U4*%
X19105000Y-3975000D03*
X19105000Y-4475000D03*
X19105000Y-4975000D03*
X19105000Y-5475000D03*
X19105000Y-5975000D03*
X19105000Y-6475000D03*
X19105000Y-6975000D03*
X19105000Y-7475000D03*
X19105000Y-7975000D03*
X19105000Y-8475000D03*
X19105000Y-8975000D03*
X19105000Y-9475000D03*
D30*
X20517500Y-10887500D03*
X21017500Y-10887500D03*
X21517500Y-10887500D03*
X22017500Y-10887500D03*
X22517500Y-10887500D03*
X23017500Y-10887500D03*
X23517500Y-10887500D03*
X24017500Y-10887500D03*
X24517500Y-10887500D03*
X25017500Y-10887500D03*
X25517500Y-10887500D03*
X26017500Y-10887500D03*
D29*
X27430000Y-9475000D03*
X27430000Y-8975000D03*
X27430000Y-8475000D03*
X27430000Y-7975000D03*
X27430000Y-7475000D03*
X27430000Y-6975000D03*
X27430000Y-6475000D03*
X27430000Y-5975000D03*
X27430000Y-5475000D03*
X27430000Y-4975000D03*
X27430000Y-4475000D03*
X27430000Y-3975000D03*
D30*
X26017500Y-2562500D03*
X25517500Y-2562500D03*
X25017500Y-2562500D03*
X24517500Y-2562500D03*
X24017500Y-2562500D03*
X23517500Y-2562500D03*
X23017500Y-2562500D03*
X22517500Y-2562500D03*
X22017500Y-2562500D03*
X21517500Y-2562500D03*
X21017500Y-2562500D03*
X20517500Y-2562500D03*
%TD*%
D16*
%TO.C,R5*%
X53880000Y-9860000D03*
X54900000Y-9860000D03*
%TD*%
D11*
%TO.C,C3*%
X49700000Y-1280000D03*
X51600000Y-1280000D03*
%TD*%
M02*
