%TF.GenerationSoftware,KiCad,Pcbnew,8.0.3*%
%TF.CreationDate,2024-06-27T21:22:13-04:00*%
%TF.ProjectId,rp2040-mgmt-module,72703230-3430-42d6-9d67-6d742d6d6f64,v0.0.0*%
%TF.SameCoordinates,Original*%
%TF.FileFunction,Copper,L1,Top*%
%TF.FilePolarity,Positive*%
%FSLAX46Y46*%
G04 Gerber Fmt 4.6, Leading zero omitted, Abs format (unit mm)*
G04 Created by KiCad (PCBNEW 8.0.3) date 2024-06-27 21:22:13*
%MOMM*%
%LPD*%
G01*
G04 APERTURE LIST*
G04 Aperture macros list*
%AMRoundRect*
0 Rectangle with rounded corners*
0 $1 Rounding radius*
0 $2 $3 $4 $5 $6 $7 $8 $9 X,Y pos of 4 corners*
0 Add a 4 corners polygon primitive as box body*
4,1,4,$2,$3,$4,$5,$6,$7,$8,$9,$2,$3,0*
0 Add four circle primitives for the rounded corners*
1,1,$1+$1,$2,$3*
1,1,$1+$1,$4,$5*
1,1,$1+$1,$6,$7*
1,1,$1+$1,$8,$9*
0 Add four rect primitives between the rounded corners*
20,1,$1+$1,$2,$3,$4,$5,0*
20,1,$1+$1,$4,$5,$6,$7,0*
20,1,$1+$1,$6,$7,$8,$9,0*
20,1,$1+$1,$8,$9,$2,$3,0*%
G04 Aperture macros list end*
%TA.AperFunction,SMDPad,CuDef*%
%ADD10RoundRect,0.140000X-0.140000X-0.170000X0.140000X-0.170000X0.140000X0.170000X-0.140000X0.170000X0*%
%TD*%
%TA.AperFunction,ComponentPad*%
%ADD11RoundRect,0.250500X-0.499500X0.499500X-0.499500X-0.499500X0.499500X-0.499500X0.499500X0.499500X0*%
%TD*%
%TA.AperFunction,ComponentPad*%
%ADD12C,1.500000*%
%TD*%
%TA.AperFunction,ComponentPad*%
%ADD13C,2.500000*%
%TD*%
%TA.AperFunction,SMDPad,CuDef*%
%ADD14RoundRect,0.250000X-0.250000X-0.475000X0.250000X-0.475000X0.250000X0.475000X-0.250000X0.475000X0*%
%TD*%
%TA.AperFunction,SMDPad,CuDef*%
%ADD15RoundRect,0.375000X0.625000X0.375000X-0.625000X0.375000X-0.625000X-0.375000X0.625000X-0.375000X0*%
%TD*%
%TA.AperFunction,SMDPad,CuDef*%
%ADD16RoundRect,0.500000X0.500000X1.400000X-0.500000X1.400000X-0.500000X-1.400000X0.500000X-1.400000X0*%
%TD*%
%TA.AperFunction,SMDPad,CuDef*%
%ADD17RoundRect,0.218750X-0.218750X-0.256250X0.218750X-0.256250X0.218750X0.256250X-0.218750X0.256250X0*%
%TD*%
%TA.AperFunction,SMDPad,CuDef*%
%ADD18R,1.200000X1.000000*%
%TD*%
%TA.AperFunction,ComponentPad*%
%ADD19R,1.700000X1.700000*%
%TD*%
%TA.AperFunction,ComponentPad*%
%ADD20O,1.700000X1.700000*%
%TD*%
%TA.AperFunction,SMDPad,CuDef*%
%ADD21RoundRect,0.135000X-0.135000X-0.185000X0.135000X-0.185000X0.135000X0.185000X-0.135000X0.185000X0*%
%TD*%
%TA.AperFunction,SMDPad,CuDef*%
%ADD22R,1.400000X1.200000*%
%TD*%
%TA.AperFunction,SMDPad,CuDef*%
%ADD23RoundRect,0.150000X-0.587500X-0.150000X0.587500X-0.150000X0.587500X0.150000X-0.587500X0.150000X0*%
%TD*%
%TA.AperFunction,SMDPad,CuDef*%
%ADD24RoundRect,0.112500X-0.187500X-0.112500X0.187500X-0.112500X0.187500X0.112500X-0.187500X0.112500X0*%
%TD*%
%TA.AperFunction,SMDPad,CuDef*%
%ADD25RoundRect,0.050000X-0.050000X0.387500X-0.050000X-0.387500X0.050000X-0.387500X0.050000X0.387500X0*%
%TD*%
%TA.AperFunction,SMDPad,CuDef*%
%ADD26RoundRect,0.050000X-0.387500X0.050000X-0.387500X-0.050000X0.387500X-0.050000X0.387500X0.050000X0*%
%TD*%
%TA.AperFunction,HeatsinkPad*%
%ADD27R,3.200000X3.200000*%
%TD*%
%TA.AperFunction,SMDPad,CuDef*%
%ADD28R,0.400000X1.650000*%
%TD*%
%TA.AperFunction,SMDPad,CuDef*%
%ADD29R,1.825000X0.700000*%
%TD*%
%TA.AperFunction,SMDPad,CuDef*%
%ADD30R,2.000000X1.500000*%
%TD*%
%TA.AperFunction,SMDPad,CuDef*%
%ADD31R,1.350000X2.000000*%
%TD*%
%TA.AperFunction,ComponentPad*%
%ADD32O,1.350000X1.700000*%
%TD*%
%TA.AperFunction,ComponentPad*%
%ADD33O,1.100000X1.500000*%
%TD*%
%TA.AperFunction,SMDPad,CuDef*%
%ADD34R,1.430000X2.500000*%
%TD*%
%TA.AperFunction,ConnectorPad*%
%ADD35R,4.300000X0.700000*%
%TD*%
%TA.AperFunction,ConnectorPad*%
%ADD36R,3.200000X0.700000*%
%TD*%
%TA.AperFunction,SMDPad,CuDef*%
%ADD37RoundRect,0.150000X-0.150000X0.650000X-0.150000X-0.650000X0.150000X-0.650000X0.150000X0.650000X0*%
%TD*%
%TA.AperFunction,SMDPad,CuDef*%
%ADD38RoundRect,0.075000X-0.662500X-0.075000X0.662500X-0.075000X0.662500X0.075000X-0.662500X0.075000X0*%
%TD*%
%TA.AperFunction,SMDPad,CuDef*%
%ADD39RoundRect,0.075000X-0.075000X-0.662500X0.075000X-0.662500X0.075000X0.662500X-0.075000X0.662500X0*%
%TD*%
%TA.AperFunction,ViaPad*%
%ADD40C,0.600000*%
%TD*%
%TA.AperFunction,Conductor*%
%ADD41C,0.200000*%
%TD*%
G04 APERTURE END LIST*
D10*
%TO.P,C7,1*%
%TO.N,+1V1*%
X31100000Y-8700000D03*
%TO.P,C7,2*%
%TO.N,GND*%
X32060000Y-8700000D03*
%TD*%
%TO.P,C6,1*%
%TO.N,+1V1*%
X49520000Y-11100000D03*
%TO.P,C6,2*%
%TO.N,GND*%
X50480000Y-11100000D03*
%TD*%
D11*
%TO.P,J3,1,TD+*%
%TO.N,unconnected-(J3-TD+-Pad1)*%
X12560000Y-7645000D03*
D12*
%TO.P,J3,2,TD-*%
%TO.N,unconnected-(J3-TD--Pad2)*%
X15100000Y-8905000D03*
%TO.P,J3,3,RD+*%
%TO.N,unconnected-(J3-RD+-Pad3)*%
X12560000Y-10185000D03*
%TO.P,J3,4,TCT*%
%TO.N,unconnected-(J3-TCT-Pad4)*%
X15100000Y-11445000D03*
%TO.P,J3,5,RCT*%
%TO.N,unconnected-(J3-RCT-Pad5)*%
X12560000Y-12725000D03*
%TO.P,J3,6,RD-*%
%TO.N,unconnected-(J3-RD--Pad6)*%
X15100000Y-13985000D03*
%TO.P,J3,7,NC*%
%TO.N,unconnected-(J3-NC-Pad7)*%
X12560000Y-15265000D03*
%TO.P,J3,8*%
%TO.N,unconnected-(J3-Pad8)*%
X15100000Y-16525000D03*
%TO.P,J3,9*%
%TO.N,unconnected-(J3-Pad9)*%
X1300000Y-5460000D03*
%TO.P,J3,10*%
%TO.N,unconnected-(J3-Pad10)*%
X1300000Y-8000000D03*
%TO.P,J3,11*%
%TO.N,unconnected-(J3-Pad11)*%
X1300000Y-16170000D03*
%TO.P,J3,12*%
%TO.N,unconnected-(J3-Pad12)*%
X1300000Y-18710000D03*
D13*
%TO.P,J3,SH*%
%TO.N,unconnected-(J3-PadSH)*%
X9250000Y-4340000D03*
X9250000Y-19830000D03*
%TD*%
D14*
%TO.P,C4,1*%
%TO.N,VDD*%
X49700000Y-4290000D03*
%TO.P,C4,2*%
%TO.N,GND*%
X51600000Y-4290000D03*
%TD*%
D15*
%TO.P,U1,1,GND*%
%TO.N,GND*%
X72750000Y-16800000D03*
%TO.P,U1,2,VO*%
%TO.N,VDD*%
X72750000Y-14500000D03*
D16*
X66450000Y-14500000D03*
D15*
%TO.P,U1,3,VI*%
%TO.N,+5V*%
X72750000Y-12200000D03*
%TD*%
D10*
%TO.P,C13,1*%
%TO.N,VDD*%
X36840000Y-820000D03*
%TO.P,C13,2*%
%TO.N,GND*%
X37800000Y-820000D03*
%TD*%
D17*
%TO.P,FB1,1*%
%TO.N,unconnected-(FB1-Pad1)*%
X23700000Y-21055000D03*
%TO.P,FB1,2*%
%TO.N,unconnected-(FB1-Pad2)*%
X25275000Y-21055000D03*
%TD*%
D18*
%TO.P,SW1,1,1*%
%TO.N,GND*%
X72700000Y-4000000D03*
%TO.P,SW1,2,2*%
%TO.N,/~{USB_BOOT}*%
X65300000Y-4000000D03*
%TD*%
D10*
%TO.P,C2,1*%
%TO.N,Net-(C2-Pad1)*%
X31100000Y-2790000D03*
%TO.P,C2,2*%
%TO.N,GND*%
X32060000Y-2790000D03*
%TD*%
%TO.P,C15,1*%
%TO.N,VDD*%
X36840000Y-4760000D03*
%TO.P,C15,2*%
%TO.N,GND*%
X37800000Y-4760000D03*
%TD*%
D14*
%TO.P,C16,1*%
%TO.N,VDD*%
X49700000Y-7300000D03*
%TO.P,C16,2*%
%TO.N,GND*%
X51600000Y-7300000D03*
%TD*%
D19*
%TO.P,J4,1,Pin_1*%
%TO.N,/SWCLK*%
X50700000Y-16560000D03*
D20*
%TO.P,J4,2,Pin_2*%
%TO.N,GND*%
X50700000Y-19100000D03*
%TO.P,J4,3,Pin_3*%
%TO.N,/SWD*%
X50700000Y-21640000D03*
%TD*%
D10*
%TO.P,C1,1*%
%TO.N,/XIN*%
X31100000Y-820000D03*
%TO.P,C1,2*%
%TO.N,GND*%
X32060000Y-820000D03*
%TD*%
%TO.P,C10,1*%
%TO.N,VDD*%
X33970000Y-4760000D03*
%TO.P,C10,2*%
%TO.N,GND*%
X34930000Y-4760000D03*
%TD*%
D21*
%TO.P,R1,1*%
%TO.N,/QSPI_SS*%
X53880000Y-1900000D03*
%TO.P,R1,2*%
%TO.N,/~{USB_BOOT}*%
X54900000Y-1900000D03*
%TD*%
%TO.P,R7,1*%
%TO.N,/GPIO26_ADC0*%
X53880000Y-13840000D03*
%TO.P,R7,2*%
%TO.N,GND*%
X54900000Y-13840000D03*
%TD*%
D10*
%TO.P,C17,1*%
%TO.N,VDD*%
X36840000Y-6730000D03*
%TO.P,C17,2*%
%TO.N,GND*%
X37800000Y-6730000D03*
%TD*%
%TO.P,C9,1*%
%TO.N,VDD*%
X49520000Y-12200000D03*
%TO.P,C9,2*%
%TO.N,GND*%
X50480000Y-12200000D03*
%TD*%
%TO.P,C11,1*%
%TO.N,VDD*%
X33970000Y-6730000D03*
%TO.P,C11,2*%
%TO.N,GND*%
X34930000Y-6730000D03*
%TD*%
D22*
%TO.P,Y2,1,1*%
%TO.N,unconnected-(Y2-Pad1)*%
X19117500Y-15475000D03*
%TO.P,Y2,2,2*%
%TO.N,unconnected-(Y2-Pad2)*%
X21317500Y-15475000D03*
%TO.P,Y2,3,3*%
%TO.N,unconnected-(Y2-Pad3)*%
X21317500Y-13775000D03*
%TO.P,Y2,4,4*%
%TO.N,unconnected-(Y2-Pad4)*%
X19117500Y-13775000D03*
%TD*%
D10*
%TO.P,C8,1*%
%TO.N,+1V1*%
X33970000Y-820000D03*
%TO.P,C8,2*%
%TO.N,GND*%
X34930000Y-820000D03*
%TD*%
D23*
%TO.P,Q1,1,G*%
%TO.N,unconnected-(Q1-G-Pad1)*%
X19100000Y-18300000D03*
%TO.P,Q1,2,S*%
%TO.N,unconnected-(Q1-S-Pad2)*%
X19100000Y-20200000D03*
%TO.P,Q1,3,D*%
%TO.N,unconnected-(Q1-D-Pad3)*%
X20975000Y-19250000D03*
%TD*%
D10*
%TO.P,C5,1*%
%TO.N,VDD*%
X31100000Y-4760000D03*
%TO.P,C5,2*%
%TO.N,GND*%
X32060000Y-4760000D03*
%TD*%
%TO.P,C12,1*%
%TO.N,VDD*%
X33970000Y-8700000D03*
%TO.P,C12,2*%
%TO.N,GND*%
X34930000Y-8700000D03*
%TD*%
D22*
%TO.P,Y1,1,1*%
%TO.N,/XIN*%
X41300000Y-20750000D03*
%TO.P,Y1,2,2*%
%TO.N,GND*%
X43500000Y-20750000D03*
%TO.P,Y1,3,3*%
%TO.N,Net-(C2-Pad1)*%
X43500000Y-19050000D03*
%TO.P,Y1,4,4*%
%TO.N,GND*%
X41300000Y-19050000D03*
%TD*%
D24*
%TO.P,D1,1,K*%
%TO.N,unconnected-(D1-K-Pad1)*%
X23602500Y-18325000D03*
%TO.P,D1,2,A*%
%TO.N,unconnected-(D1-A-Pad2)*%
X25702500Y-18325000D03*
%TD*%
D21*
%TO.P,R3,1*%
%TO.N,/XOUT*%
X53880000Y-5880000D03*
%TO.P,R3,2*%
%TO.N,Net-(C2-Pad1)*%
X54900000Y-5880000D03*
%TD*%
%TO.P,R2,1*%
%TO.N,VDD*%
X53880000Y-3890000D03*
%TO.P,R2,2*%
%TO.N,/QSPI_SS*%
X54900000Y-3890000D03*
%TD*%
D25*
%TO.P,U3,1,IOVDD*%
%TO.N,VDD*%
X46162500Y-8362500D03*
%TO.P,U3,2,GPIO0*%
%TO.N,/GPIO0*%
X45762500Y-8362500D03*
%TO.P,U3,3,GPIO1*%
%TO.N,LED_DIN*%
X45362500Y-8362500D03*
%TO.P,U3,4,GPIO2*%
%TO.N,/GPIO2*%
X44962500Y-8362500D03*
%TO.P,U3,5,GPIO3*%
%TO.N,/GPIO3*%
X44562500Y-8362500D03*
%TO.P,U3,6,GPIO4*%
%TO.N,SDA*%
X44162500Y-8362500D03*
%TO.P,U3,7,GPIO5*%
%TO.N,SCL*%
X43762500Y-8362500D03*
%TO.P,U3,8,GPIO6*%
%TO.N,/GPIO6*%
X43362500Y-8362500D03*
%TO.P,U3,9,GPIO7*%
%TO.N,/GPIO7*%
X42962500Y-8362500D03*
%TO.P,U3,10,IOVDD*%
%TO.N,VDD*%
X42562500Y-8362500D03*
%TO.P,U3,11,GPIO8*%
%TO.N,/GPIO8*%
X42162500Y-8362500D03*
%TO.P,U3,12,GPIO9*%
%TO.N,/GPIO9*%
X41762500Y-8362500D03*
%TO.P,U3,13,GPIO10*%
%TO.N,/GPIO10*%
X41362500Y-8362500D03*
%TO.P,U3,14,GPIO11*%
%TO.N,/GPIO11*%
X40962500Y-8362500D03*
D26*
%TO.P,U3,15,GPIO12*%
%TO.N,ALERT*%
X40125000Y-9200000D03*
%TO.P,U3,16,GPIO13*%
%TO.N,/GPIO13*%
X40125000Y-9600000D03*
%TO.P,U3,17,GPIO14*%
%TO.N,/GPIO14*%
X40125000Y-10000000D03*
%TO.P,U3,18,GPIO15*%
%TO.N,/GPIO15*%
X40125000Y-10400000D03*
%TO.P,U3,19,TESTEN*%
%TO.N,GND*%
X40125000Y-10800000D03*
%TO.P,U3,20,XIN*%
%TO.N,/XIN*%
X40125000Y-11200000D03*
%TO.P,U3,21,XOUT*%
%TO.N,/XOUT*%
X40125000Y-11600000D03*
%TO.P,U3,22,IOVDD*%
%TO.N,VDD*%
X40125000Y-12000000D03*
%TO.P,U3,23,DVDD*%
%TO.N,+1V1*%
X40125000Y-12400000D03*
%TO.P,U3,24,SWCLK*%
%TO.N,/SWCLK*%
X40125000Y-12800000D03*
%TO.P,U3,25,SWD*%
%TO.N,/SWD*%
X40125000Y-13200000D03*
%TO.P,U3,26,RUN*%
%TO.N,/RUN*%
X40125000Y-13600000D03*
%TO.P,U3,27,GPIO16*%
%TO.N,/GPIO16*%
X40125000Y-14000000D03*
%TO.P,U3,28,GPIO17*%
%TO.N,/GPIO17*%
X40125000Y-14400000D03*
D25*
%TO.P,U3,29,GPIO18*%
%TO.N,/GPIO18*%
X40962500Y-15237500D03*
%TO.P,U3,30,GPIO19*%
%TO.N,/GPIO19*%
X41362500Y-15237500D03*
%TO.P,U3,31,GPIO20*%
%TO.N,/GPIO20*%
X41762500Y-15237500D03*
%TO.P,U3,32,GPIO21*%
%TO.N,/GPIO21*%
X42162500Y-15237500D03*
%TO.P,U3,33,IOVDD*%
%TO.N,VDD*%
X42562500Y-15237500D03*
%TO.P,U3,34,GPIO22*%
%TO.N,/GPIO22*%
X42962500Y-15237500D03*
%TO.P,U3,35,GPIO23*%
%TO.N,OVERLOAD*%
X43362500Y-15237500D03*
%TO.P,U3,36,GPIO24*%
%TO.N,ENABLE*%
X43762500Y-15237500D03*
%TO.P,U3,37,GPIO25*%
%TO.N,/GPIO25*%
X44162500Y-15237500D03*
%TO.P,U3,38,GPIO26_ADC0*%
%TO.N,/GPIO26_ADC0*%
X44562500Y-15237500D03*
%TO.P,U3,39,GPIO27_ADC1*%
%TO.N,/GPIO27_ADC1*%
X44962500Y-15237500D03*
%TO.P,U3,40,GPIO28_ADC2*%
%TO.N,IMON*%
X45362500Y-15237500D03*
%TO.P,U3,41,GPIO29_ADC3*%
%TO.N,/GPIO29_ADC3*%
X45762500Y-15237500D03*
%TO.P,U3,42,IOVDD*%
%TO.N,VDD*%
X46162500Y-15237500D03*
D26*
%TO.P,U3,43,ADC_AVDD*%
X47000000Y-14400000D03*
%TO.P,U3,44,VREG_IN*%
X47000000Y-14000000D03*
%TO.P,U3,45,VREG_VOUT*%
%TO.N,+1V1*%
X47000000Y-13600000D03*
%TO.P,U3,46,USB_DM*%
%TO.N,Net-(U3-USB_DM)*%
X47000000Y-13200000D03*
%TO.P,U3,47,USB_DP*%
%TO.N,Net-(U3-USB_DP)*%
X47000000Y-12800000D03*
%TO.P,U3,48,USB_VDD*%
%TO.N,VDD*%
X47000000Y-12400000D03*
%TO.P,U3,49,IOVDD*%
X47000000Y-12000000D03*
%TO.P,U3,50,DVDD*%
%TO.N,+1V1*%
X47000000Y-11600000D03*
%TO.P,U3,51,QSPI_SD3*%
%TO.N,/QSPI_SD3*%
X47000000Y-11200000D03*
%TO.P,U3,52,QSPI_SCLK*%
%TO.N,/QSPI_SCLK*%
X47000000Y-10800000D03*
%TO.P,U3,53,QSPI_SD0*%
%TO.N,/QSPI_SD0*%
X47000000Y-10400000D03*
%TO.P,U3,54,QSPI_SD2*%
%TO.N,/QSPI_SD2*%
X47000000Y-10000000D03*
%TO.P,U3,55,QSPI_SD1*%
%TO.N,/QSPI_SD1*%
X47000000Y-9600000D03*
%TO.P,U3,56,QSPI_SS*%
%TO.N,/QSPI_SS*%
X47000000Y-9200000D03*
D27*
%TO.P,U3,57,GND*%
%TO.N,GND*%
X43562500Y-11800000D03*
%TD*%
D10*
%TO.P,C14,1*%
%TO.N,VDD*%
X36840000Y-2790000D03*
%TO.P,C14,2*%
%TO.N,GND*%
X37800000Y-2790000D03*
%TD*%
D28*
%TO.P,J2,1,VBUS*%
%TO.N,+5V*%
X56260000Y-19400000D03*
%TO.P,J2,2,D-*%
%TO.N,/USB_D-*%
X56910000Y-19400000D03*
%TO.P,J2,3,D+*%
%TO.N,/USB_D+*%
X57560000Y-19400000D03*
%TO.P,J2,4,ID*%
%TO.N,unconnected-(J2-ID-Pad4)*%
X58210000Y-19400000D03*
%TO.P,J2,5,GND*%
%TO.N,GND*%
X58860000Y-19400000D03*
D29*
%TO.P,J2,6,Shield*%
X54610000Y-20600000D03*
D30*
X54710000Y-19300000D03*
D31*
X54830000Y-21350000D03*
D32*
X54830000Y-22280000D03*
D33*
X55140000Y-19280000D03*
D34*
X56600000Y-22550000D03*
X58520000Y-22550000D03*
D33*
X59980000Y-19280000D03*
D32*
X60290000Y-22280000D03*
D31*
X60310000Y-21350000D03*
D30*
X60460000Y-19280000D03*
D29*
X60560000Y-20600000D03*
%TD*%
D35*
%TO.P,J1,B1,+12V*%
%TO.N,VIN*%
X81950000Y-21390000D03*
%TO.P,J1,B2,+12V*%
X81950000Y-20390000D03*
%TO.P,J1,B3,+12V*%
X81950000Y-19390000D03*
%TO.P,J1,B4,GND*%
%TO.N,GND*%
X81950000Y-18390000D03*
%TO.P,J1,B5,SMCLK*%
%TO.N,I2C_A0*%
X81950000Y-17390000D03*
%TO.P,J1,B6,SMDAT*%
%TO.N,I2C_A1*%
X81950000Y-16390000D03*
%TO.P,J1,B7,GND*%
%TO.N,GND*%
X81950000Y-15390000D03*
%TO.P,J1,B8,+3.3V*%
%TO.N,+5V*%
X81950000Y-14390000D03*
%TO.P,J1,B9,JTAG1*%
%TO.N,I2C_RESET*%
X81950000Y-13390000D03*
%TO.P,J1,B10,3.3Vaux*%
%TO.N,VDD*%
X81950000Y-12390000D03*
%TO.P,J1,B11,~{WAKE}*%
%TO.N,unconnected-(J1-~{WAKE}-PadB11)*%
X81950000Y-11390000D03*
%TO.P,J1,B12,RSVD*%
%TO.N,SDA*%
X81950000Y-8390000D03*
%TO.P,J1,B13,GND*%
%TO.N,GND*%
X81950000Y-7390000D03*
%TO.P,J1,B14,PETp0*%
%TO.N,SCL*%
X81950000Y-6390000D03*
%TO.P,J1,B15,PETn0*%
%TO.N,I2C_A2*%
X81950000Y-5390000D03*
%TO.P,J1,B16,GND*%
%TO.N,GND*%
X81950000Y-4390000D03*
D36*
%TO.P,J1,B17,~{PRSNT2}*%
%TO.N,unconnected-(J1-~{PRSNT2}-PadB17)*%
X81400000Y-3390000D03*
D35*
%TO.P,J1,B18,GND*%
%TO.N,GND*%
X81950000Y-2390000D03*
%TD*%
D21*
%TO.P,R4,1*%
%TO.N,/USB_D+*%
X53880000Y-7870000D03*
%TO.P,R4,2*%
%TO.N,Net-(U3-USB_DP)*%
X54900000Y-7870000D03*
%TD*%
%TO.P,R6,1*%
%TO.N,VIN*%
X53880000Y-11850000D03*
%TO.P,R6,2*%
%TO.N,/GPIO26_ADC0*%
X54900000Y-11850000D03*
%TD*%
D37*
%TO.P,U2,1,~{CS}*%
%TO.N,/QSPI_SS*%
X62205000Y-2800000D03*
%TO.P,U2,2,DO(IO1)*%
%TO.N,/QSPI_SD1*%
X60935000Y-2800000D03*
%TO.P,U2,3,IO2*%
%TO.N,/QSPI_SD2*%
X59665000Y-2800000D03*
%TO.P,U2,4,GND*%
%TO.N,GND*%
X58395000Y-2800000D03*
%TO.P,U2,5,DI(IO0)*%
%TO.N,/QSPI_SD0*%
X58395000Y-10000000D03*
%TO.P,U2,6,CLK*%
%TO.N,/QSPI_SCLK*%
X59665000Y-10000000D03*
%TO.P,U2,7,IO3*%
%TO.N,/QSPI_SD3*%
X60935000Y-10000000D03*
%TO.P,U2,8,VCC*%
%TO.N,VDD*%
X62205000Y-10000000D03*
%TD*%
D38*
%TO.P,U4,1,TXN*%
%TO.N,unconnected-(U4-TXN-Pad1)*%
X19105000Y-3975000D03*
%TO.P,U4,2,TXP*%
%TO.N,unconnected-(U4-TXP-Pad2)*%
X19105000Y-4475000D03*
%TO.P,U4,3,AGND*%
%TO.N,Net-(U4-AGND-Pad14)*%
X19105000Y-4975000D03*
%TO.P,U4,4,AVDD*%
%TO.N,Net-(U4-AVDD-Pad11)*%
X19105000Y-5475000D03*
%TO.P,U4,5,RXN*%
%TO.N,unconnected-(U4-RXN-Pad5)*%
X19105000Y-5975000D03*
%TO.P,U4,6,RXP*%
%TO.N,unconnected-(U4-RXP-Pad6)*%
X19105000Y-6475000D03*
%TO.P,U4,7,DNC*%
%TO.N,unconnected-(U4-DNC-Pad7)*%
X19105000Y-6975000D03*
%TO.P,U4,8,AVDD*%
%TO.N,Net-(U4-AVDD-Pad11)*%
X19105000Y-7475000D03*
%TO.P,U4,9,AGND*%
%TO.N,Net-(U4-AGND-Pad14)*%
X19105000Y-7975000D03*
%TO.P,U4,10,EXRES1*%
%TO.N,unconnected-(U4-EXRES1-Pad10)*%
X19105000Y-8475000D03*
%TO.P,U4,11,AVDD*%
%TO.N,Net-(U4-AVDD-Pad11)*%
X19105000Y-8975000D03*
%TO.P,U4,12,NC*%
%TO.N,unconnected-(U4-NC-Pad12)*%
X19105000Y-9475000D03*
D39*
%TO.P,U4,13,NC*%
%TO.N,unconnected-(U4-NC-Pad13)*%
X20517500Y-10887500D03*
%TO.P,U4,14,AGND*%
%TO.N,Net-(U4-AGND-Pad14)*%
X21017500Y-10887500D03*
%TO.P,U4,15,AVDD*%
%TO.N,Net-(U4-AVDD-Pad11)*%
X21517500Y-10887500D03*
%TO.P,U4,16,AGND*%
%TO.N,Net-(U4-AGND-Pad14)*%
X22017500Y-10887500D03*
%TO.P,U4,17,AVDD*%
%TO.N,Net-(U4-AVDD-Pad11)*%
X22517500Y-10887500D03*
%TO.P,U4,18,VBG*%
%TO.N,unconnected-(U4-VBG-Pad18)*%
X23017500Y-10887500D03*
%TO.P,U4,19,AGND*%
%TO.N,Net-(U4-AGND-Pad14)*%
X23517500Y-10887500D03*
%TO.P,U4,20,TOCAP*%
%TO.N,unconnected-(U4-TOCAP-Pad20)*%
X24017500Y-10887500D03*
%TO.P,U4,21,AVDD*%
%TO.N,Net-(U4-AVDD-Pad11)*%
X24517500Y-10887500D03*
%TO.P,U4,22,1V2O*%
%TO.N,unconnected-(U4-1V2O-Pad22)*%
X25017500Y-10887500D03*
%TO.P,U4,23,RSVD*%
%TO.N,unconnected-(U4-RSVD-Pad23)*%
X25517500Y-10887500D03*
%TO.P,U4,24,SPDLED*%
%TO.N,unconnected-(U4-SPDLED-Pad24)*%
X26017500Y-10887500D03*
D38*
%TO.P,U4,25,LINKLED*%
%TO.N,unconnected-(U4-LINKLED-Pad25)*%
X27430000Y-9475000D03*
%TO.P,U4,26,DUPLED*%
%TO.N,unconnected-(U4-DUPLED-Pad26)*%
X27430000Y-8975000D03*
%TO.P,U4,27,ACTLED*%
%TO.N,unconnected-(U4-ACTLED-Pad27)*%
X27430000Y-8475000D03*
%TO.P,U4,28,VDD*%
%TO.N,unconnected-(U4-VDD-Pad28)*%
X27430000Y-7975000D03*
%TO.P,U4,29,GND*%
%TO.N,unconnected-(U4-GND-Pad29)*%
X27430000Y-7475000D03*
%TO.P,U4,30,XI/CLKIN*%
%TO.N,unconnected-(U4-XI{slash}CLKIN-Pad30)*%
X27430000Y-6975000D03*
%TO.P,U4,31,XO*%
%TO.N,unconnected-(U4-XO-Pad31)*%
X27430000Y-6475000D03*
%TO.P,U4,32,~{SCS}*%
%TO.N,unconnected-(U4-~{SCS}-Pad32)*%
X27430000Y-5975000D03*
%TO.P,U4,33,SCLK*%
%TO.N,unconnected-(U4-SCLK-Pad33)*%
X27430000Y-5475000D03*
%TO.P,U4,34,MISO*%
%TO.N,unconnected-(U4-MISO-Pad34)*%
X27430000Y-4975000D03*
%TO.P,U4,35,MOSI*%
%TO.N,unconnected-(U4-MOSI-Pad35)*%
X27430000Y-4475000D03*
%TO.P,U4,36,~{INT}*%
%TO.N,unconnected-(U4-~{INT}-Pad36)*%
X27430000Y-3975000D03*
D39*
%TO.P,U4,37,~{RST}*%
%TO.N,unconnected-(U4-~{RST}-Pad37)*%
X26017500Y-2562500D03*
%TO.P,U4,38,RSVD*%
%TO.N,unconnected-(U4-RSVD-Pad38)*%
X25517500Y-2562500D03*
%TO.P,U4,39,RSVD*%
%TO.N,unconnected-(U4-RSVD-Pad39)*%
X25017500Y-2562500D03*
%TO.P,U4,40,RSVD*%
%TO.N,unconnected-(U4-RSVD-Pad40)*%
X24517500Y-2562500D03*
%TO.P,U4,41,RSVD*%
%TO.N,unconnected-(U4-RSVD-Pad41)*%
X24017500Y-2562500D03*
%TO.P,U4,42,RSVD*%
%TO.N,unconnected-(U4-RSVD-Pad42)*%
X23517500Y-2562500D03*
%TO.P,U4,43,PMODE2*%
%TO.N,unconnected-(U4-PMODE2-Pad43)*%
X23017500Y-2562500D03*
%TO.P,U4,44,PMODE1*%
%TO.N,unconnected-(U4-PMODE1-Pad44)*%
X22517500Y-2562500D03*
%TO.P,U4,45,PMODE0*%
%TO.N,unconnected-(U4-PMODE0-Pad45)*%
X22017500Y-2562500D03*
%TO.P,U4,46,NC*%
%TO.N,unconnected-(U4-NC-Pad46)*%
X21517500Y-2562500D03*
%TO.P,U4,47,NC*%
%TO.N,unconnected-(U4-NC-Pad47)*%
X21017500Y-2562500D03*
%TO.P,U4,48,AGND*%
%TO.N,Net-(U4-AGND-Pad14)*%
X20517500Y-2562500D03*
%TD*%
D21*
%TO.P,R5,1*%
%TO.N,/USB_D-*%
X53880000Y-9860000D03*
%TO.P,R5,2*%
%TO.N,Net-(U3-USB_DM)*%
X54900000Y-9860000D03*
%TD*%
D14*
%TO.P,C3,1*%
%TO.N,+5V*%
X49700000Y-1280000D03*
%TO.P,C3,2*%
%TO.N,GND*%
X51600000Y-1280000D03*
%TD*%
D40*
%TO.N,+1V1*%
X48325000Y-11600000D03*
X45675000Y-12500000D03*
%TD*%
D41*
%TO.N,VDD*%
X47600000Y-12000000D02*
X47800000Y-12200000D01*
X47000000Y-12000000D02*
X47600000Y-12000000D01*
X47000000Y-12400000D02*
X47600000Y-12400000D01*
X47800000Y-12200000D02*
X49520000Y-12200000D01*
X47600000Y-12400000D02*
X47800000Y-12200000D01*
%TO.N,+1V1*%
X49150000Y-11100000D02*
X48650000Y-11600000D01*
X49520000Y-11100000D02*
X49150000Y-11100000D01*
X48650000Y-11600000D02*
X47000000Y-11600000D01*
%TD*%
%TA.AperFunction,NonConductor*%
G36*
X46338326Y-9021674D02*
G01*
X46360000Y-9074000D01*
X46360000Y-12570500D01*
X46338326Y-12622826D01*
X46286000Y-12644500D01*
X46204500Y-12644500D01*
X46152174Y-12622826D01*
X46130500Y-12570500D01*
X46130500Y-12474001D01*
X46118510Y-12413723D01*
X46116294Y-12403754D01*
X46111697Y-12371777D01*
X46111697Y-12371774D01*
X46057882Y-12253937D01*
X45973049Y-12156033D01*
X45973046Y-12156031D01*
X45973044Y-12156029D01*
X45964490Y-12150532D01*
X45932191Y-12104008D01*
X45930500Y-12088281D01*
X45930500Y-9674001D01*
X45918664Y-9614498D01*
X45918663Y-9614497D01*
X45918663Y-9614493D01*
X45896989Y-9562167D01*
X45896983Y-9562156D01*
X45876694Y-9527013D01*
X45876692Y-9527011D01*
X45812835Y-9478012D01*
X45812831Y-9478010D01*
X45760511Y-9456338D01*
X45760501Y-9456335D01*
X45720654Y-9448409D01*
X45701000Y-9444500D01*
X41449000Y-9444500D01*
X41432131Y-9447855D01*
X41389498Y-9456335D01*
X41389488Y-9456338D01*
X41337173Y-9478008D01*
X41337156Y-9478016D01*
X41302013Y-9498305D01*
X41302011Y-9498307D01*
X41253012Y-9562164D01*
X41253010Y-9562168D01*
X41231338Y-9614488D01*
X41231335Y-9614498D01*
X41219500Y-9674001D01*
X41219500Y-11794462D01*
X41197826Y-11846788D01*
X41173820Y-11862828D01*
X41137167Y-11878011D01*
X41137164Y-11878012D01*
X41137163Y-11878013D01*
X41137156Y-11878016D01*
X41102013Y-11898305D01*
X41102011Y-11898307D01*
X41053012Y-11962164D01*
X41053010Y-11962168D01*
X41031338Y-12014488D01*
X41031335Y-12014498D01*
X41019500Y-12074001D01*
X41019500Y-12725998D01*
X41031335Y-12785501D01*
X41031338Y-12785511D01*
X41053008Y-12837826D01*
X41053016Y-12837843D01*
X41073305Y-12872986D01*
X41073307Y-12872988D01*
X41073308Y-12872989D01*
X41137167Y-12921989D01*
X41189493Y-12943663D01*
X41249000Y-12955500D01*
X41249002Y-12955500D01*
X41738000Y-12955500D01*
X41790326Y-12977174D01*
X41812000Y-13029500D01*
X41812000Y-13414820D01*
X41820733Y-13458722D01*
X41853996Y-13508504D01*
X41903778Y-13541767D01*
X41947680Y-13550500D01*
X41947681Y-13550500D01*
X45145500Y-13550500D01*
X45197826Y-13572174D01*
X45219500Y-13624500D01*
X45219500Y-13725998D01*
X45231335Y-13785501D01*
X45231338Y-13785511D01*
X45253008Y-13837826D01*
X45253016Y-13837843D01*
X45273305Y-13872986D01*
X45273307Y-13872988D01*
X45336477Y-13921460D01*
X45337167Y-13921989D01*
X45389493Y-13943663D01*
X45449000Y-13955500D01*
X45449002Y-13955500D01*
X46300997Y-13955500D01*
X46301000Y-13955500D01*
X46323564Y-13951011D01*
X46379111Y-13962059D01*
X46410578Y-14009151D01*
X46412000Y-14023589D01*
X46412000Y-14069746D01*
X46423633Y-14128232D01*
X46444117Y-14158888D01*
X46455166Y-14214436D01*
X46444117Y-14241112D01*
X46423633Y-14271767D01*
X46412000Y-14330253D01*
X46412000Y-14469746D01*
X46423633Y-14528232D01*
X46453108Y-14572343D01*
X46467948Y-14594552D01*
X46499267Y-14615479D01*
X46534267Y-14638866D01*
X46534268Y-14638866D01*
X46534269Y-14638867D01*
X46592752Y-14650500D01*
X46592754Y-14650500D01*
X47407246Y-14650500D01*
X47407248Y-14650500D01*
X47465731Y-14638867D01*
X47532052Y-14594552D01*
X47576367Y-14528231D01*
X47588000Y-14469748D01*
X47588000Y-14330252D01*
X47576367Y-14271769D01*
X47555882Y-14241112D01*
X47544833Y-14185565D01*
X47555881Y-14158888D01*
X47576367Y-14128231D01*
X47588000Y-14069748D01*
X47588000Y-13930252D01*
X47579682Y-13888435D01*
X47590731Y-13832888D01*
X47637823Y-13801422D01*
X47652260Y-13800000D01*
X47986000Y-13800000D01*
X48038326Y-13821674D01*
X48060000Y-13874000D01*
X48060000Y-15951061D01*
X48038326Y-16003387D01*
X47986062Y-16025061D01*
X46217257Y-16026543D01*
X46164913Y-16004913D01*
X46111826Y-15951826D01*
X46090152Y-15899500D01*
X46111826Y-15847174D01*
X46164152Y-15825500D01*
X46232246Y-15825500D01*
X46232248Y-15825500D01*
X46290731Y-15813867D01*
X46357052Y-15769552D01*
X46401367Y-15703231D01*
X46413000Y-15644748D01*
X46413000Y-14830252D01*
X46401367Y-14771769D01*
X46357052Y-14705448D01*
X46321387Y-14681617D01*
X46290732Y-14661133D01*
X46290733Y-14661133D01*
X46261489Y-14655316D01*
X46232248Y-14649500D01*
X46092752Y-14649500D01*
X46063510Y-14655316D01*
X46034267Y-14661133D01*
X46003612Y-14681617D01*
X45948064Y-14692666D01*
X45921386Y-14681616D01*
X45892886Y-14662572D01*
X45861422Y-14615479D01*
X45860000Y-14601044D01*
X45860000Y-14600000D01*
X40834000Y-14600000D01*
X40781674Y-14578326D01*
X40760000Y-14526000D01*
X40760000Y-9074000D01*
X40781674Y-9021674D01*
X40834000Y-9000000D01*
X46286000Y-9000000D01*
X46338326Y-9021674D01*
G37*
%TD.AperFunction*%
%TA.AperFunction,Conductor*%
%TO.N,+1V1*%
G36*
X45753326Y-9621674D02*
G01*
X45775000Y-9674000D01*
X45775000Y-12400000D01*
X45901000Y-12400000D01*
X45953326Y-12421674D01*
X45975000Y-12474000D01*
X45975000Y-12800000D01*
X46301000Y-12800000D01*
X46353326Y-12821674D01*
X46375000Y-12874000D01*
X46375000Y-13726000D01*
X46353326Y-13778326D01*
X46301000Y-13800000D01*
X45449000Y-13800000D01*
X45396674Y-13778326D01*
X45375000Y-13726000D01*
X45375000Y-10200000D01*
X45373813Y-10198813D01*
X45324352Y-10178326D01*
X45307949Y-10147641D01*
X45307056Y-10148011D01*
X45304267Y-10141279D01*
X45304267Y-10141278D01*
X45271004Y-10091496D01*
X45221222Y-10058233D01*
X45177320Y-10049500D01*
X41947680Y-10049500D01*
X41925729Y-10053866D01*
X41903777Y-10058233D01*
X41853996Y-10091495D01*
X41853995Y-10091496D01*
X41820733Y-10141277D01*
X41812000Y-10185180D01*
X41812000Y-12726000D01*
X41790326Y-12778326D01*
X41738000Y-12800000D01*
X41249000Y-12800000D01*
X41196674Y-12778326D01*
X41175000Y-12726000D01*
X41175000Y-12074000D01*
X41196674Y-12021674D01*
X41249000Y-12000000D01*
X41375000Y-12000000D01*
X41375000Y-9674000D01*
X41396674Y-9621674D01*
X41449000Y-9600000D01*
X45701000Y-9600000D01*
X45753326Y-9621674D01*
G37*
%TD.AperFunction*%
%TD*%
%TA.AperFunction,Conductor*%
%TO.N,GND*%
G36*
X44812539Y-10574685D02*
G01*
X44858294Y-10627489D01*
X44869500Y-10679000D01*
X44869500Y-12492458D01*
X44869434Y-12493632D01*
X44869435Y-12506407D01*
X44869500Y-12507547D01*
X44869500Y-12921000D01*
X44849815Y-12988039D01*
X44797011Y-13033794D01*
X44745500Y-13045000D01*
X42428678Y-13045000D01*
X42361639Y-13025315D01*
X42315884Y-12972511D01*
X42308530Y-12951668D01*
X42303681Y-12932671D01*
X42299612Y-12916730D01*
X42297023Y-12868419D01*
X42297023Y-12868418D01*
X42297024Y-12868416D01*
X42317500Y-12726000D01*
X42317500Y-10679000D01*
X42337185Y-10611961D01*
X42389989Y-10566206D01*
X42441500Y-10555000D01*
X44745500Y-10555000D01*
X44812539Y-10574685D01*
G37*
%TD.AperFunction*%
%TA.AperFunction,Conductor*%
G36*
X30267821Y-420185D02*
G01*
X30313576Y-472989D01*
X30323520Y-542147D01*
X30322763Y-546786D01*
X30322356Y-549010D01*
X30319500Y-585302D01*
X30319500Y-1054697D01*
X30322356Y-1090991D01*
X30322357Y-1090997D01*
X30367504Y-1246390D01*
X30367505Y-1246393D01*
X30449881Y-1385684D01*
X30449887Y-1385692D01*
X30564307Y-1500112D01*
X30564311Y-1500115D01*
X30564313Y-1500117D01*
X30703605Y-1582494D01*
X30744587Y-1594400D01*
X30859002Y-1627642D01*
X30859005Y-1627642D01*
X30859007Y-1627643D01*
X30895310Y-1630500D01*
X30895318Y-1630500D01*
X31304682Y-1630500D01*
X31304690Y-1630500D01*
X31340993Y-1627643D01*
X31340995Y-1627642D01*
X31340997Y-1627642D01*
X31385229Y-1614791D01*
X31496395Y-1582494D01*
X31517369Y-1570089D01*
X31585088Y-1552906D01*
X31643613Y-1570090D01*
X31663803Y-1582031D01*
X31810000Y-1624504D01*
X31810000Y-1624503D01*
X32310000Y-1624503D01*
X32456195Y-1582031D01*
X32595374Y-1499721D01*
X32595383Y-1499714D01*
X32709714Y-1385383D01*
X32709721Y-1385374D01*
X32792031Y-1246195D01*
X32792033Y-1246190D01*
X32837144Y-1090918D01*
X32837145Y-1090912D01*
X32838790Y-1070000D01*
X32310000Y-1070000D01*
X32310000Y-1624503D01*
X31810000Y-1624503D01*
X31810000Y-1318352D01*
X31827267Y-1255233D01*
X31832494Y-1246395D01*
X31843397Y-1208869D01*
X31877642Y-1090997D01*
X31877643Y-1090991D01*
X31880499Y-1054697D01*
X31880500Y-1054690D01*
X31880500Y-694000D01*
X31900185Y-626961D01*
X31952989Y-581206D01*
X32004500Y-570000D01*
X32838790Y-570000D01*
X32837145Y-549090D01*
X32836724Y-546784D01*
X32836861Y-545479D01*
X32836648Y-542768D01*
X32837150Y-542728D01*
X32844040Y-477298D01*
X32887762Y-422799D01*
X32954008Y-400589D01*
X32958705Y-400500D01*
X33070782Y-400500D01*
X33137821Y-420185D01*
X33183576Y-472989D01*
X33193520Y-542147D01*
X33192763Y-546786D01*
X33192356Y-549010D01*
X33189500Y-585302D01*
X33189500Y-1054697D01*
X33192356Y-1090991D01*
X33192357Y-1090997D01*
X33237504Y-1246390D01*
X33237505Y-1246393D01*
X33319881Y-1385684D01*
X33319887Y-1385692D01*
X33434307Y-1500112D01*
X33434311Y-1500115D01*
X33434313Y-1500117D01*
X33573605Y-1582494D01*
X33614587Y-1594400D01*
X33729002Y-1627642D01*
X33729005Y-1627642D01*
X33729007Y-1627643D01*
X33765310Y-1630500D01*
X33765318Y-1630500D01*
X34174682Y-1630500D01*
X34174690Y-1630500D01*
X34210993Y-1627643D01*
X34210995Y-1627642D01*
X34210997Y-1627642D01*
X34255229Y-1614791D01*
X34366395Y-1582494D01*
X34387369Y-1570089D01*
X34455088Y-1552906D01*
X34513613Y-1570090D01*
X34533803Y-1582031D01*
X34680000Y-1624504D01*
X34680000Y-1624503D01*
X35180000Y-1624503D01*
X35326195Y-1582031D01*
X35465374Y-1499721D01*
X35465383Y-1499714D01*
X35579714Y-1385383D01*
X35579721Y-1385374D01*
X35662031Y-1246195D01*
X35662033Y-1246190D01*
X35707144Y-1090918D01*
X35707145Y-1090912D01*
X35708790Y-1070000D01*
X35180000Y-1070000D01*
X35180000Y-1624503D01*
X34680000Y-1624503D01*
X34680000Y-1318352D01*
X34697267Y-1255233D01*
X34702494Y-1246395D01*
X34713397Y-1208869D01*
X34747642Y-1090997D01*
X34747643Y-1090991D01*
X34750499Y-1054697D01*
X34750500Y-1054690D01*
X34750500Y-694000D01*
X34770185Y-626961D01*
X34822989Y-581206D01*
X34874500Y-570000D01*
X35708790Y-570000D01*
X35707145Y-549090D01*
X35706724Y-546784D01*
X35706861Y-545479D01*
X35706648Y-542768D01*
X35707150Y-542728D01*
X35714040Y-477298D01*
X35757762Y-422799D01*
X35824008Y-400589D01*
X35828705Y-400500D01*
X35940782Y-400500D01*
X36007821Y-420185D01*
X36053576Y-472989D01*
X36063520Y-542147D01*
X36062763Y-546786D01*
X36062356Y-549010D01*
X36059500Y-585302D01*
X36059500Y-1054697D01*
X36062356Y-1090991D01*
X36062357Y-1090997D01*
X36107504Y-1246390D01*
X36107505Y-1246393D01*
X36189881Y-1385684D01*
X36189887Y-1385692D01*
X36304307Y-1500112D01*
X36304311Y-1500115D01*
X36304313Y-1500117D01*
X36443605Y-1582494D01*
X36484587Y-1594400D01*
X36599002Y-1627642D01*
X36599005Y-1627642D01*
X36599007Y-1627643D01*
X36635310Y-1630500D01*
X36635318Y-1630500D01*
X37044682Y-1630500D01*
X37044690Y-1630500D01*
X37080993Y-1627643D01*
X37080995Y-1627642D01*
X37080997Y-1627642D01*
X37125229Y-1614791D01*
X37236395Y-1582494D01*
X37257369Y-1570089D01*
X37325088Y-1552906D01*
X37383613Y-1570090D01*
X37403803Y-1582031D01*
X37550000Y-1624504D01*
X37550000Y-1624503D01*
X38050000Y-1624503D01*
X38196195Y-1582031D01*
X38335374Y-1499721D01*
X38335383Y-1499714D01*
X38449714Y-1385383D01*
X38449721Y-1385374D01*
X38532031Y-1246195D01*
X38532033Y-1246190D01*
X38577144Y-1090918D01*
X38577145Y-1090912D01*
X38578790Y-1070000D01*
X38050000Y-1070000D01*
X38050000Y-1624503D01*
X37550000Y-1624503D01*
X37550000Y-1318352D01*
X37567267Y-1255233D01*
X37572494Y-1246395D01*
X37583397Y-1208869D01*
X37617642Y-1090997D01*
X37617643Y-1090991D01*
X37620499Y-1054697D01*
X37620500Y-1054690D01*
X37620500Y-694000D01*
X37640185Y-626961D01*
X37692989Y-581206D01*
X37744500Y-570000D01*
X38578790Y-570000D01*
X38577145Y-549090D01*
X38576724Y-546784D01*
X38576861Y-545479D01*
X38576648Y-542768D01*
X38577150Y-542728D01*
X38584040Y-477298D01*
X38627762Y-422799D01*
X38694008Y-400589D01*
X38698705Y-400500D01*
X48621687Y-400500D01*
X48688726Y-420185D01*
X48734481Y-472989D01*
X48744425Y-542147D01*
X48739393Y-563504D01*
X48710001Y-652203D01*
X48710000Y-652204D01*
X48699500Y-754983D01*
X48699500Y-1805001D01*
X48699501Y-1805019D01*
X48710000Y-1907796D01*
X48710001Y-1907799D01*
X48760595Y-2060478D01*
X48765186Y-2074334D01*
X48857288Y-2223656D01*
X48981344Y-2347712D01*
X49130666Y-2439814D01*
X49297203Y-2494999D01*
X49399991Y-2505500D01*
X50000008Y-2505499D01*
X50000016Y-2505498D01*
X50000019Y-2505498D01*
X50056302Y-2499748D01*
X50102797Y-2494999D01*
X50269334Y-2439814D01*
X50418656Y-2347712D01*
X50542712Y-2223656D01*
X50544752Y-2220347D01*
X50546745Y-2218555D01*
X50547193Y-2217989D01*
X50547289Y-2218065D01*
X50596694Y-2173623D01*
X50665656Y-2162395D01*
X50729740Y-2190234D01*
X50755829Y-2220339D01*
X50757681Y-2223341D01*
X50757683Y-2223344D01*
X50881654Y-2347315D01*
X51030875Y-2439356D01*
X51030880Y-2439358D01*
X51197302Y-2494505D01*
X51197309Y-2494506D01*
X51300019Y-2504999D01*
X51850000Y-2504999D01*
X51899972Y-2504999D01*
X51899986Y-2504998D01*
X52002697Y-2494505D01*
X52169119Y-2439358D01*
X52169124Y-2439356D01*
X52318345Y-2347315D01*
X52442315Y-2223345D01*
X52534356Y-2074124D01*
X52534358Y-2074119D01*
X52589505Y-1907697D01*
X52589506Y-1907690D01*
X52599999Y-1804986D01*
X52600000Y-1804973D01*
X52600000Y-1650811D01*
X53109500Y-1650811D01*
X53109500Y-2149169D01*
X53109501Y-2149191D01*
X53112335Y-2185205D01*
X53157129Y-2339388D01*
X53157131Y-2339393D01*
X53238863Y-2477595D01*
X53238869Y-2477603D01*
X53352396Y-2591130D01*
X53352400Y-2591133D01*
X53352402Y-2591135D01*
X53490607Y-2672869D01*
X53490614Y-2672871D01*
X53644791Y-2717664D01*
X53644794Y-2717664D01*
X53644796Y-2717665D01*
X53680819Y-2720500D01*
X54079180Y-2720499D01*
X54115204Y-2717665D01*
X54269393Y-2672869D01*
X54326882Y-2638869D01*
X54394602Y-2621688D01*
X54453117Y-2638869D01*
X54510607Y-2672869D01*
X54510610Y-2672869D01*
X54510612Y-2672871D01*
X54664791Y-2717664D01*
X54664794Y-2717664D01*
X54664796Y-2717665D01*
X54700819Y-2720500D01*
X55099180Y-2720499D01*
X55135204Y-2717665D01*
X55289393Y-2672869D01*
X55427598Y-2591135D01*
X55541135Y-2477598D01*
X55622869Y-2339393D01*
X55667665Y-2185204D01*
X55670500Y-2149181D01*
X55670500Y-2084350D01*
X57595000Y-2084350D01*
X57595000Y-2550000D01*
X58145000Y-2550000D01*
X58145000Y-1502703D01*
X58645000Y-1502703D01*
X58645000Y-4097295D01*
X58645001Y-4097295D01*
X58647486Y-4097100D01*
X58805198Y-4051281D01*
X58946550Y-3967686D01*
X58952717Y-3962903D01*
X58954630Y-3965369D01*
X59003222Y-3938802D01*
X59072917Y-3943749D01*
X59105762Y-3964853D01*
X59106969Y-3963298D01*
X59113132Y-3968078D01*
X59113135Y-3968081D01*
X59254602Y-4051744D01*
X59296224Y-4063836D01*
X59412426Y-4097597D01*
X59412429Y-4097597D01*
X59412431Y-4097598D01*
X59449306Y-4100500D01*
X59449314Y-4100500D01*
X59880686Y-4100500D01*
X59880694Y-4100500D01*
X59917569Y-4097598D01*
X59917571Y-4097597D01*
X59917573Y-4097597D01*
X59978544Y-4079883D01*
X60075398Y-4051744D01*
X60216865Y-3968081D01*
X60216870Y-3968075D01*
X60223031Y-3963298D01*
X60224933Y-3965750D01*
X60273579Y-3939155D01*
X60343274Y-3944104D01*
X60375695Y-3964940D01*
X60376969Y-3963298D01*
X60383132Y-3968078D01*
X60383135Y-3968081D01*
X60524602Y-4051744D01*
X60566224Y-4063836D01*
X60682426Y-4097597D01*
X60682429Y-4097597D01*
X60682431Y-4097598D01*
X60719306Y-4100500D01*
X60719314Y-4100500D01*
X61150686Y-4100500D01*
X61150694Y-4100500D01*
X61187569Y-4097598D01*
X61187571Y-4097597D01*
X61187573Y-4097597D01*
X61248544Y-4079883D01*
X61345398Y-4051744D01*
X61486865Y-3968081D01*
X61486870Y-3968075D01*
X61493031Y-3963298D01*
X61494933Y-3965750D01*
X61543579Y-3939155D01*
X61613274Y-3944104D01*
X61645695Y-3964940D01*
X61646969Y-3963298D01*
X61653132Y-3968078D01*
X61653135Y-3968081D01*
X61794602Y-4051744D01*
X61836224Y-4063836D01*
X61952426Y-4097597D01*
X61952429Y-4097597D01*
X61952431Y-4097598D01*
X61989306Y-4100500D01*
X61989314Y-4100500D01*
X62420686Y-4100500D01*
X62420694Y-4100500D01*
X62457569Y-4097598D01*
X62457571Y-4097597D01*
X62457573Y-4097597D01*
X62518544Y-4079883D01*
X62615398Y-4051744D01*
X62756865Y-3968081D01*
X62873081Y-3851865D01*
X62956744Y-3710398D01*
X63002598Y-3552569D01*
X63005500Y-3515694D01*
X63005500Y-3452135D01*
X64199500Y-3452135D01*
X64199500Y-4547870D01*
X64199501Y-4547876D01*
X64205908Y-4607483D01*
X64256202Y-4742328D01*
X64256206Y-4742335D01*
X64342452Y-4857544D01*
X64342455Y-4857547D01*
X64457664Y-4943793D01*
X64457671Y-4943797D01*
X64592517Y-4994091D01*
X64592516Y-4994091D01*
X64598014Y-4994682D01*
X64652127Y-5000500D01*
X65947872Y-5000499D01*
X65952523Y-4999999D01*
X72053552Y-4999999D01*
X72053553Y-5000000D01*
X73346447Y-5000000D01*
X73346447Y-4999999D01*
X72700000Y-4353553D01*
X72053552Y-4999999D01*
X65952523Y-4999999D01*
X66007483Y-4994091D01*
X66142331Y-4943796D01*
X66257546Y-4857546D01*
X66343796Y-4742331D01*
X66394091Y-4607483D01*
X66400500Y-4547873D01*
X66400499Y-3452155D01*
X71600000Y-3452155D01*
X71600000Y-4547844D01*
X71606401Y-4607372D01*
X71606403Y-4607379D01*
X71642442Y-4704003D01*
X72346447Y-4000000D01*
X72346446Y-3999999D01*
X73053553Y-3999999D01*
X73053553Y-4000000D01*
X73757556Y-4704004D01*
X73793598Y-4607371D01*
X73799999Y-4547844D01*
X73800000Y-4547827D01*
X73800000Y-3452172D01*
X73799999Y-3452155D01*
X73793598Y-3392623D01*
X73757556Y-3295994D01*
X73053553Y-3999999D01*
X72346446Y-3999999D01*
X71642442Y-3295995D01*
X71606403Y-3392620D01*
X71606401Y-3392627D01*
X71600000Y-3452155D01*
X66400499Y-3452155D01*
X66400499Y-3452128D01*
X66394103Y-3392627D01*
X66394091Y-3392516D01*
X66343797Y-3257671D01*
X66343793Y-3257664D01*
X66257547Y-3142455D01*
X66257544Y-3142452D01*
X66142335Y-3056206D01*
X66142328Y-3056202D01*
X66007482Y-3005908D01*
X66007483Y-3005908D01*
X65952525Y-3000000D01*
X72053552Y-3000000D01*
X72700000Y-3646447D01*
X73346447Y-3000000D01*
X72053552Y-3000000D01*
X65952525Y-3000000D01*
X65947883Y-2999501D01*
X65947881Y-2999500D01*
X65947873Y-2999500D01*
X65947864Y-2999500D01*
X64652129Y-2999500D01*
X64652123Y-2999501D01*
X64592516Y-3005908D01*
X64457671Y-3056202D01*
X64457664Y-3056206D01*
X64342455Y-3142452D01*
X64342452Y-3142455D01*
X64256206Y-3257664D01*
X64256202Y-3257671D01*
X64205908Y-3392517D01*
X64199663Y-3450607D01*
X64199501Y-3452123D01*
X64199500Y-3452135D01*
X63005500Y-3452135D01*
X63005500Y-2084306D01*
X63002598Y-2047431D01*
X62996943Y-2027967D01*
X62956745Y-1889606D01*
X62956744Y-1889603D01*
X62956744Y-1889602D01*
X62873081Y-1748135D01*
X62873079Y-1748133D01*
X62873076Y-1748129D01*
X62756870Y-1631923D01*
X62756862Y-1631917D01*
X62652317Y-1570090D01*
X62615398Y-1548256D01*
X62615397Y-1548255D01*
X62615396Y-1548255D01*
X62615393Y-1548254D01*
X62457573Y-1502402D01*
X62457567Y-1502401D01*
X62420701Y-1499500D01*
X62420694Y-1499500D01*
X61989306Y-1499500D01*
X61989298Y-1499500D01*
X61952432Y-1502401D01*
X61952426Y-1502402D01*
X61794606Y-1548254D01*
X61794603Y-1548255D01*
X61653137Y-1631917D01*
X61646969Y-1636702D01*
X61645072Y-1634256D01*
X61596358Y-1660857D01*
X61526666Y-1655873D01*
X61494296Y-1635069D01*
X61493031Y-1636702D01*
X61486862Y-1631917D01*
X61382317Y-1570090D01*
X61345398Y-1548256D01*
X61345397Y-1548255D01*
X61345396Y-1548255D01*
X61345393Y-1548254D01*
X61187573Y-1502402D01*
X61187567Y-1502401D01*
X61150701Y-1499500D01*
X61150694Y-1499500D01*
X60719306Y-1499500D01*
X60719298Y-1499500D01*
X60682432Y-1502401D01*
X60682426Y-1502402D01*
X60524606Y-1548254D01*
X60524603Y-1548255D01*
X60383137Y-1631917D01*
X60376969Y-1636702D01*
X60375072Y-1634256D01*
X60326358Y-1660857D01*
X60256666Y-1655873D01*
X60224296Y-1635069D01*
X60223031Y-1636702D01*
X60216862Y-1631917D01*
X60112317Y-1570090D01*
X60075398Y-1548256D01*
X60075397Y-1548255D01*
X60075396Y-1548255D01*
X60075393Y-1548254D01*
X59917573Y-1502402D01*
X59917567Y-1502401D01*
X59880701Y-1499500D01*
X59880694Y-1499500D01*
X59449306Y-1499500D01*
X59449298Y-1499500D01*
X59412432Y-1502401D01*
X59412426Y-1502402D01*
X59254606Y-1548254D01*
X59254603Y-1548255D01*
X59113140Y-1631915D01*
X59106974Y-1636699D01*
X59105174Y-1634379D01*
X59055913Y-1661230D01*
X58986225Y-1656193D01*
X58953992Y-1635461D01*
X58952722Y-1637100D01*
X58946552Y-1632314D01*
X58805196Y-1548717D01*
X58805193Y-1548716D01*
X58647494Y-1502900D01*
X58647497Y-1502900D01*
X58645000Y-1502703D01*
X58145000Y-1502703D01*
X58142503Y-1502900D01*
X57984806Y-1548716D01*
X57984803Y-1548717D01*
X57843447Y-1632314D01*
X57843438Y-1632321D01*
X57727321Y-1748438D01*
X57727314Y-1748447D01*
X57643717Y-1889803D01*
X57643716Y-1889806D01*
X57597900Y-2047504D01*
X57597899Y-2047510D01*
X57595000Y-2084350D01*
X55670500Y-2084350D01*
X55670499Y-1650820D01*
X55667665Y-1614796D01*
X55622869Y-1460607D01*
X55541135Y-1322402D01*
X55541133Y-1322400D01*
X55541130Y-1322396D01*
X55427603Y-1208869D01*
X55427595Y-1208863D01*
X55289393Y-1127131D01*
X55289388Y-1127129D01*
X55135208Y-1082335D01*
X55135202Y-1082334D01*
X55099181Y-1079500D01*
X54700830Y-1079500D01*
X54700808Y-1079501D01*
X54664794Y-1082335D01*
X54510611Y-1127129D01*
X54510604Y-1127132D01*
X54453119Y-1161128D01*
X54385395Y-1178309D01*
X54326881Y-1161128D01*
X54269395Y-1127132D01*
X54269388Y-1127129D01*
X54115208Y-1082335D01*
X54115202Y-1082334D01*
X54079181Y-1079500D01*
X53680830Y-1079500D01*
X53680808Y-1079501D01*
X53644794Y-1082335D01*
X53490611Y-1127129D01*
X53490606Y-1127131D01*
X53352404Y-1208863D01*
X53352396Y-1208869D01*
X53238869Y-1322396D01*
X53238863Y-1322404D01*
X53157131Y-1460606D01*
X53157129Y-1460611D01*
X53112335Y-1614791D01*
X53112334Y-1614797D01*
X53109500Y-1650811D01*
X52600000Y-1650811D01*
X52600000Y-1530000D01*
X51850000Y-1530000D01*
X51850000Y-2504999D01*
X51300019Y-2504999D01*
X51349999Y-2504998D01*
X51350000Y-2504998D01*
X51350000Y-1154000D01*
X51369685Y-1086961D01*
X51422489Y-1041206D01*
X51474000Y-1030000D01*
X52599999Y-1030000D01*
X52599999Y-755028D01*
X52599998Y-755013D01*
X52589505Y-652302D01*
X52560081Y-563504D01*
X52557679Y-493675D01*
X52593411Y-433634D01*
X52655932Y-402441D01*
X52677787Y-400500D01*
X76475500Y-400500D01*
X76542539Y-420185D01*
X76588294Y-472989D01*
X76599500Y-524500D01*
X76599500Y-1792727D01*
X76626793Y-1894587D01*
X76679520Y-1985913D01*
X76754087Y-2060480D01*
X76845413Y-2113207D01*
X76908093Y-2130002D01*
X76967753Y-2166365D01*
X76998283Y-2229212D01*
X77000000Y-2249776D01*
X77000000Y-8879589D01*
X76980315Y-8946628D01*
X76967230Y-8963571D01*
X76880620Y-9057654D01*
X76880612Y-9057665D01*
X76758199Y-9245030D01*
X76668298Y-9449988D01*
X76668297Y-9449990D01*
X76613354Y-9666952D01*
X76613352Y-9666960D01*
X76594872Y-9889994D01*
X76594872Y-9890005D01*
X76613352Y-10113039D01*
X76613354Y-10113047D01*
X76668297Y-10330009D01*
X76671586Y-10337507D01*
X76758199Y-10534969D01*
X76880612Y-10722334D01*
X76880620Y-10722345D01*
X76967229Y-10816426D01*
X76998152Y-10879080D01*
X77000000Y-10900409D01*
X77000000Y-21530223D01*
X76980315Y-21597262D01*
X76927511Y-21643017D01*
X76908095Y-21649997D01*
X76895420Y-21653393D01*
X76845411Y-21666793D01*
X76845410Y-21666794D01*
X76754085Y-21719521D01*
X76679521Y-21794085D01*
X76626794Y-21885410D01*
X76626793Y-21885413D01*
X76599500Y-21987273D01*
X76599500Y-23475500D01*
X76579815Y-23542539D01*
X76527011Y-23588294D01*
X76475500Y-23599500D01*
X61095394Y-23599500D01*
X61028355Y-23579815D01*
X60982600Y-23527011D01*
X60972656Y-23457853D01*
X61001681Y-23394297D01*
X61022509Y-23375182D01*
X61055454Y-23351245D01*
X61055459Y-23351241D01*
X61186241Y-23220459D01*
X61186245Y-23220454D01*
X61294947Y-23070837D01*
X61378915Y-22906043D01*
X61378916Y-22906040D01*
X61436066Y-22730147D01*
X61465000Y-22547473D01*
X61465000Y-22530000D01*
X60640000Y-22530000D01*
X60640000Y-22030000D01*
X61485000Y-22030000D01*
X61485000Y-21564130D01*
X61504685Y-21497091D01*
X61557489Y-21451336D01*
X61577706Y-21444407D01*
X61714586Y-21393354D01*
X61714593Y-21393350D01*
X61829687Y-21307190D01*
X61829690Y-21307187D01*
X61915850Y-21192093D01*
X61915854Y-21192086D01*
X61966096Y-21057379D01*
X61966098Y-21057372D01*
X61972499Y-20997844D01*
X61972500Y-20997827D01*
X61972500Y-20850000D01*
X60560000Y-20850000D01*
X60560000Y-21476000D01*
X60540315Y-21543039D01*
X60487511Y-21588794D01*
X60436000Y-21600000D01*
X60184000Y-21600000D01*
X60116961Y-21580315D01*
X60071206Y-21527511D01*
X60060000Y-21476000D01*
X60060000Y-19931000D01*
X60079685Y-19863961D01*
X60132489Y-19818206D01*
X60184000Y-19807000D01*
X60210000Y-19807000D01*
X60210000Y-19709618D01*
X60212618Y-19707000D01*
X60710000Y-19707000D01*
X60719976Y-19716976D01*
X60753039Y-19726685D01*
X60798794Y-19779489D01*
X60810000Y-19831000D01*
X60810000Y-20350000D01*
X61972500Y-20350000D01*
X61972500Y-20202172D01*
X61972499Y-20202155D01*
X61966098Y-20142627D01*
X61964313Y-20135071D01*
X61965189Y-20134863D01*
X61959089Y-20086294D01*
X61959999Y-20077826D01*
X61960000Y-20077820D01*
X61960000Y-19530000D01*
X60710000Y-19530000D01*
X60710000Y-19707000D01*
X60212618Y-19707000D01*
X60240064Y-19679554D01*
X60282851Y-19605445D01*
X60305000Y-19522787D01*
X60305000Y-19037213D01*
X60303067Y-19030000D01*
X60710000Y-19030000D01*
X61960000Y-19030000D01*
X61960000Y-18482172D01*
X61959999Y-18482155D01*
X61953598Y-18422627D01*
X61953596Y-18422620D01*
X61903354Y-18287913D01*
X61903350Y-18287906D01*
X61817190Y-18172812D01*
X61817187Y-18172809D01*
X61702093Y-18086649D01*
X61702086Y-18086645D01*
X61567379Y-18036403D01*
X61567372Y-18036401D01*
X61507844Y-18030000D01*
X60710000Y-18030000D01*
X60710000Y-19030000D01*
X60303067Y-19030000D01*
X60282851Y-18954555D01*
X60240064Y-18880446D01*
X60179554Y-18819936D01*
X60105445Y-18777149D01*
X60022787Y-18755000D01*
X59937213Y-18755000D01*
X59854555Y-18777149D01*
X59780446Y-18819936D01*
X59730000Y-18870382D01*
X59730000Y-18030000D01*
X59412155Y-18030000D01*
X59352627Y-18036401D01*
X59352619Y-18036403D01*
X59242162Y-18077601D01*
X59172470Y-18082585D01*
X59170322Y-18082098D01*
X59167374Y-18081401D01*
X59107844Y-18075000D01*
X59060000Y-18075000D01*
X59060000Y-18235565D01*
X59040315Y-18302604D01*
X58987511Y-18348359D01*
X58918353Y-18358303D01*
X58854797Y-18329278D01*
X58836734Y-18309876D01*
X58767547Y-18217455D01*
X58754791Y-18207906D01*
X58747538Y-18202476D01*
X58709688Y-18174141D01*
X58667818Y-18118207D01*
X58660027Y-18075027D01*
X58660000Y-18075000D01*
X58612166Y-18075000D01*
X58550595Y-18081619D01*
X58524088Y-18081619D01*
X58514818Y-18080622D01*
X58457873Y-18074500D01*
X58457865Y-18074500D01*
X57962129Y-18074500D01*
X57962120Y-18074501D01*
X57898248Y-18081367D01*
X57871742Y-18081367D01*
X57867483Y-18080909D01*
X57807873Y-18074500D01*
X57807864Y-18074500D01*
X57312129Y-18074500D01*
X57312120Y-18074501D01*
X57248248Y-18081367D01*
X57221742Y-18081367D01*
X57217483Y-18080909D01*
X57157873Y-18074500D01*
X57157864Y-18074500D01*
X56662129Y-18074500D01*
X56662120Y-18074501D01*
X56598248Y-18081367D01*
X56571742Y-18081367D01*
X56567483Y-18080909D01*
X56507873Y-18074500D01*
X56507864Y-18074500D01*
X56012129Y-18074500D01*
X56012125Y-18074501D01*
X55952518Y-18080908D01*
X55946619Y-18082303D01*
X55876849Y-18078562D01*
X55874771Y-18077808D01*
X55817382Y-18056403D01*
X55817372Y-18056401D01*
X55757844Y-18050000D01*
X55390000Y-18050000D01*
X55390000Y-18870382D01*
X55339554Y-18819936D01*
X55265445Y-18777149D01*
X55182787Y-18755000D01*
X55097213Y-18755000D01*
X55014555Y-18777149D01*
X54940446Y-18819936D01*
X54879936Y-18880446D01*
X54837149Y-18954555D01*
X54815000Y-19037213D01*
X54815000Y-19522787D01*
X54837149Y-19605445D01*
X54879936Y-19679554D01*
X54940446Y-19740064D01*
X54960000Y-19751353D01*
X54960000Y-19807000D01*
X54961662Y-19808662D01*
X55023039Y-19826685D01*
X55068794Y-19879489D01*
X55080000Y-19931000D01*
X55080000Y-21785025D01*
X55044905Y-21749930D01*
X54965095Y-21703852D01*
X54876078Y-21680000D01*
X54783922Y-21680000D01*
X54694905Y-21703852D01*
X54615095Y-21749930D01*
X54580000Y-21785025D01*
X54580000Y-21493000D01*
X54484000Y-21493000D01*
X54416961Y-21473315D01*
X54371206Y-21420511D01*
X54360000Y-21369000D01*
X54360000Y-20850000D01*
X53197500Y-20850000D01*
X53197500Y-20997844D01*
X53203901Y-21057372D01*
X53203903Y-21057379D01*
X53254145Y-21192086D01*
X53254149Y-21192093D01*
X53340309Y-21307187D01*
X53340312Y-21307190D01*
X53455406Y-21393350D01*
X53455413Y-21393354D01*
X53574333Y-21437708D01*
X53630267Y-21479579D01*
X53654684Y-21545043D01*
X53655000Y-21553890D01*
X53655000Y-22030000D01*
X54480000Y-22030000D01*
X54480000Y-22530000D01*
X53655000Y-22530000D01*
X53655000Y-22547473D01*
X53683933Y-22730147D01*
X53741083Y-22906040D01*
X53741084Y-22906043D01*
X53825052Y-23070837D01*
X53933754Y-23220454D01*
X53933758Y-23220459D01*
X54064540Y-23351241D01*
X54064545Y-23351245D01*
X54097491Y-23375182D01*
X54140157Y-23430512D01*
X54146136Y-23500125D01*
X54113530Y-23561920D01*
X54052692Y-23596277D01*
X54024606Y-23599500D01*
X524500Y-23599500D01*
X457461Y-23579815D01*
X411706Y-23527011D01*
X400500Y-23475500D01*
X400500Y-19844944D01*
X420185Y-19777905D01*
X472989Y-19732150D01*
X542147Y-19722206D01*
X595623Y-19743369D01*
X672361Y-19797102D01*
X870670Y-19889575D01*
X870676Y-19889576D01*
X870677Y-19889577D01*
X901364Y-19897799D01*
X1082023Y-19946207D01*
X1264926Y-19962208D01*
X1299998Y-19965277D01*
X1300000Y-19965277D01*
X1300002Y-19965277D01*
X1328254Y-19962805D01*
X1517977Y-19946207D01*
X1729330Y-19889575D01*
X1927639Y-19797102D01*
X2106877Y-19671598D01*
X2261598Y-19516877D01*
X2387102Y-19337639D01*
X2479575Y-19139330D01*
X2536207Y-18927977D01*
X2555242Y-18710398D01*
X2555277Y-18710002D01*
X2555277Y-18709997D01*
X2548847Y-18636507D01*
X2536207Y-18492023D01*
X2496176Y-18342627D01*
X2479577Y-18280677D01*
X2479576Y-18280676D01*
X2479575Y-18280670D01*
X2387102Y-18082362D01*
X2387100Y-18082359D01*
X2387099Y-18082357D01*
X2261599Y-17903124D01*
X2192271Y-17833796D01*
X2106877Y-17748402D01*
X2004997Y-17677065D01*
X4324500Y-17677065D01*
X4324500Y-17922934D01*
X4345456Y-18082098D01*
X4356591Y-18166677D01*
X4419680Y-18402129D01*
X4420222Y-18404152D01*
X4420225Y-18404162D01*
X4501344Y-18600000D01*
X4514306Y-18631292D01*
X4637233Y-18844208D01*
X4637235Y-18844211D01*
X4637236Y-18844212D01*
X4786897Y-19039254D01*
X4786903Y-19039261D01*
X4960738Y-19213096D01*
X4960744Y-19213101D01*
X5155792Y-19362767D01*
X5368708Y-19485694D01*
X5480315Y-19531923D01*
X5568305Y-19568370D01*
X5595847Y-19579778D01*
X5833323Y-19643409D01*
X6077073Y-19675500D01*
X6077080Y-19675500D01*
X6322920Y-19675500D01*
X6322927Y-19675500D01*
X6566677Y-19643409D01*
X6804153Y-19579778D01*
X7031292Y-19485694D01*
X7244208Y-19362767D01*
X7355487Y-19277379D01*
X7420654Y-19252186D01*
X7489099Y-19266224D01*
X7539089Y-19315038D01*
X7554753Y-19383129D01*
X7551863Y-19403348D01*
X7514197Y-19568374D01*
X7514196Y-19568379D01*
X7494592Y-19829995D01*
X7494592Y-19830004D01*
X7514196Y-20091620D01*
X7514197Y-20091625D01*
X7514197Y-20091629D01*
X7514198Y-20091630D01*
X7516591Y-20102116D01*
X7572576Y-20347402D01*
X7572578Y-20347411D01*
X7572580Y-20347416D01*
X7668432Y-20591643D01*
X7799614Y-20818857D01*
X7824450Y-20850000D01*
X7963198Y-21023985D01*
X8127394Y-21176335D01*
X8155521Y-21202433D01*
X8372296Y-21350228D01*
X8372301Y-21350230D01*
X8372302Y-21350231D01*
X8372303Y-21350232D01*
X8471230Y-21397872D01*
X8608673Y-21464061D01*
X8608674Y-21464061D01*
X8608677Y-21464063D01*
X8859385Y-21541396D01*
X9118818Y-21580500D01*
X9381182Y-21580500D01*
X9640615Y-21541396D01*
X9891323Y-21464063D01*
X10109113Y-21359181D01*
X10127696Y-21350232D01*
X10127696Y-21350231D01*
X10127704Y-21350228D01*
X10344479Y-21202433D01*
X10536805Y-21023981D01*
X10700386Y-20818857D01*
X10831568Y-20591643D01*
X10927420Y-20347416D01*
X10985802Y-20091630D01*
X10986711Y-20079500D01*
X11005408Y-19830004D01*
X11005408Y-19829995D01*
X10985803Y-19568379D01*
X10985802Y-19568374D01*
X10985802Y-19568370D01*
X10927420Y-19312584D01*
X10831568Y-19068357D01*
X10700386Y-18841143D01*
X10536805Y-18636019D01*
X10536804Y-18636018D01*
X10536801Y-18636014D01*
X10344479Y-18457567D01*
X10300895Y-18427852D01*
X10127704Y-18309772D01*
X10127700Y-18309770D01*
X10127697Y-18309768D01*
X10127696Y-18309767D01*
X9891325Y-18195938D01*
X9891327Y-18195938D01*
X9640623Y-18118606D01*
X9640619Y-18118605D01*
X9640615Y-18118604D01*
X9515823Y-18099794D01*
X9413018Y-18084298D01*
X17862000Y-18084298D01*
X17862000Y-18515701D01*
X17864901Y-18552567D01*
X17864902Y-18552573D01*
X17910754Y-18710393D01*
X17910755Y-18710396D01*
X17994417Y-18851862D01*
X17994423Y-18851870D01*
X18110629Y-18968076D01*
X18110633Y-18968079D01*
X18110635Y-18968081D01*
X18252102Y-19051744D01*
X18293724Y-19063836D01*
X18409926Y-19097597D01*
X18409929Y-19097597D01*
X18409931Y-19097598D01*
X18446806Y-19100500D01*
X19613000Y-19100500D01*
X19680039Y-19120185D01*
X19725794Y-19172989D01*
X19737000Y-19224500D01*
X19737000Y-19275500D01*
X19717315Y-19342539D01*
X19664511Y-19388294D01*
X19613000Y-19399500D01*
X18446798Y-19399500D01*
X18409932Y-19402401D01*
X18409926Y-19402402D01*
X18252106Y-19448254D01*
X18252103Y-19448255D01*
X18110637Y-19531917D01*
X18110629Y-19531923D01*
X17994423Y-19648129D01*
X17994417Y-19648137D01*
X17910755Y-19789603D01*
X17910754Y-19789606D01*
X17864902Y-19947426D01*
X17864901Y-19947432D01*
X17862000Y-19984298D01*
X17862000Y-20415701D01*
X17864901Y-20452567D01*
X17864902Y-20452573D01*
X17910754Y-20610393D01*
X17910755Y-20610396D01*
X17994417Y-20751862D01*
X17994423Y-20751870D01*
X18110629Y-20868076D01*
X18110633Y-20868079D01*
X18110635Y-20868081D01*
X18252102Y-20951744D01*
X18287985Y-20962169D01*
X18409926Y-20997597D01*
X18409929Y-20997597D01*
X18409931Y-20997598D01*
X18446806Y-21000500D01*
X18446814Y-21000500D01*
X19753186Y-21000500D01*
X19753194Y-21000500D01*
X19790069Y-20997598D01*
X19790071Y-20997597D01*
X19790073Y-20997597D01*
X19831691Y-20985505D01*
X19947898Y-20951744D01*
X20089365Y-20868081D01*
X20205581Y-20751865D01*
X20206200Y-20750818D01*
X22762000Y-20750818D01*
X22762000Y-21359181D01*
X22772063Y-21457683D01*
X22824950Y-21617284D01*
X22824955Y-21617295D01*
X22913216Y-21760387D01*
X22913219Y-21760391D01*
X23032108Y-21879280D01*
X23032112Y-21879283D01*
X23175204Y-21967544D01*
X23175207Y-21967545D01*
X23175213Y-21967549D01*
X23334815Y-22020436D01*
X23433326Y-22030500D01*
X23433331Y-22030500D01*
X23966669Y-22030500D01*
X23966674Y-22030500D01*
X24065185Y-22020436D01*
X24224787Y-21967549D01*
X24367891Y-21879281D01*
X24399819Y-21847353D01*
X24461142Y-21813868D01*
X24530834Y-21818852D01*
X24575181Y-21847353D01*
X24607108Y-21879280D01*
X24607112Y-21879283D01*
X24750204Y-21967544D01*
X24750207Y-21967545D01*
X24750213Y-21967549D01*
X24909815Y-22020436D01*
X25008326Y-22030500D01*
X25008331Y-22030500D01*
X25541669Y-22030500D01*
X25541674Y-22030500D01*
X25640185Y-22020436D01*
X25799787Y-21967549D01*
X25942891Y-21879281D01*
X26061781Y-21760391D01*
X26150049Y-21617287D01*
X26202936Y-21457685D01*
X26213000Y-21359174D01*
X26213000Y-20750826D01*
X26202936Y-20652315D01*
X26150049Y-20492713D01*
X26150045Y-20492707D01*
X26150044Y-20492704D01*
X26061783Y-20349612D01*
X26061780Y-20349608D01*
X25942891Y-20230719D01*
X25942887Y-20230716D01*
X25799795Y-20142455D01*
X25799789Y-20142452D01*
X25799787Y-20142451D01*
X25678122Y-20102135D01*
X40099500Y-20102135D01*
X40099500Y-21397870D01*
X40099501Y-21397876D01*
X40105908Y-21457483D01*
X40156202Y-21592328D01*
X40156206Y-21592335D01*
X40242452Y-21707544D01*
X40242455Y-21707547D01*
X40357664Y-21793793D01*
X40357671Y-21793797D01*
X40492517Y-21844091D01*
X40492516Y-21844091D01*
X40499444Y-21844835D01*
X40552127Y-21850500D01*
X42047872Y-21850499D01*
X42107483Y-21844091D01*
X42242331Y-21793796D01*
X42326105Y-21731082D01*
X42391569Y-21706665D01*
X42459842Y-21721516D01*
X42474727Y-21731082D01*
X42557910Y-21793352D01*
X42557913Y-21793354D01*
X42692620Y-21843596D01*
X42692627Y-21843598D01*
X42752155Y-21849999D01*
X42752172Y-21850000D01*
X43250000Y-21850000D01*
X43750000Y-21850000D01*
X44247828Y-21850000D01*
X44247844Y-21849999D01*
X44307372Y-21843598D01*
X44307379Y-21843596D01*
X44442086Y-21793354D01*
X44442093Y-21793350D01*
X44557187Y-21707190D01*
X44557190Y-21707187D01*
X44607487Y-21639999D01*
X49344341Y-21639999D01*
X49344341Y-21640000D01*
X49364936Y-21875403D01*
X49364938Y-21875413D01*
X49426094Y-22103655D01*
X49426096Y-22103659D01*
X49426097Y-22103663D01*
X49449570Y-22154000D01*
X49525965Y-22317830D01*
X49525967Y-22317834D01*
X49623771Y-22457511D01*
X49661505Y-22511401D01*
X49828599Y-22678495D01*
X49898601Y-22727511D01*
X50022165Y-22814032D01*
X50022167Y-22814033D01*
X50022170Y-22814035D01*
X50236337Y-22913903D01*
X50464592Y-22975063D01*
X50652918Y-22991539D01*
X50699999Y-22995659D01*
X50700000Y-22995659D01*
X50700001Y-22995659D01*
X50739234Y-22992226D01*
X50935408Y-22975063D01*
X51163663Y-22913903D01*
X51377830Y-22814035D01*
X51571401Y-22678495D01*
X51738495Y-22511401D01*
X51874035Y-22317830D01*
X51973903Y-22103663D01*
X52035063Y-21875408D01*
X52055659Y-21640000D01*
X52035063Y-21404592D01*
X51973903Y-21176337D01*
X51874035Y-20962171D01*
X51808154Y-20868082D01*
X51738494Y-20768597D01*
X51571402Y-20601506D01*
X51571401Y-20601505D01*
X51385405Y-20471269D01*
X51341781Y-20416692D01*
X51334588Y-20347193D01*
X51366110Y-20284839D01*
X51385405Y-20268119D01*
X51479587Y-20202171D01*
X53197500Y-20202171D01*
X53197500Y-20350000D01*
X54360000Y-20350000D01*
X54360000Y-19831000D01*
X54379685Y-19763961D01*
X54432489Y-19718206D01*
X54453327Y-19713672D01*
X54460000Y-19707000D01*
X54460000Y-19550000D01*
X53210000Y-19550000D01*
X53210000Y-20101148D01*
X53209306Y-20101148D01*
X53204172Y-20134721D01*
X53205685Y-20135079D01*
X53203901Y-20142624D01*
X53197500Y-20202171D01*
X51479587Y-20202171D01*
X51571082Y-20138105D01*
X51738105Y-19971082D01*
X51873600Y-19777578D01*
X51973429Y-19563492D01*
X51973432Y-19563486D01*
X52030636Y-19350000D01*
X51133012Y-19350000D01*
X51165925Y-19292993D01*
X51200000Y-19165826D01*
X51200000Y-19034174D01*
X51165925Y-18907007D01*
X51133012Y-18850000D01*
X52030636Y-18850000D01*
X52030635Y-18849999D01*
X51973432Y-18636513D01*
X51973429Y-18636507D01*
X51910780Y-18502155D01*
X53210000Y-18502155D01*
X53210000Y-19050000D01*
X54460000Y-19050000D01*
X54460000Y-18050000D01*
X53662155Y-18050000D01*
X53602627Y-18056401D01*
X53602620Y-18056403D01*
X53467913Y-18106645D01*
X53467906Y-18106649D01*
X53352812Y-18192809D01*
X53352809Y-18192812D01*
X53266649Y-18307906D01*
X53266645Y-18307913D01*
X53216403Y-18442620D01*
X53216401Y-18442627D01*
X53210000Y-18502155D01*
X51910780Y-18502155D01*
X51873600Y-18422422D01*
X51873599Y-18422420D01*
X51738113Y-18228926D01*
X51738108Y-18228920D01*
X51616053Y-18106865D01*
X51582568Y-18045542D01*
X51587552Y-17975850D01*
X51629424Y-17919917D01*
X51660400Y-17903002D01*
X51792331Y-17853796D01*
X51907546Y-17767546D01*
X51993796Y-17652331D01*
X52044091Y-17517483D01*
X52050500Y-17457873D01*
X52050500Y-17251096D01*
X71250000Y-17251096D01*
X71252897Y-17293824D01*
X71298831Y-17478523D01*
X71383390Y-17649022D01*
X71383392Y-17649025D01*
X71502632Y-17797366D01*
X71502633Y-17797367D01*
X71650974Y-17916607D01*
X71650977Y-17916609D01*
X71821476Y-18001168D01*
X72006175Y-18047102D01*
X72048903Y-18050000D01*
X72500000Y-18050000D01*
X73000000Y-18050000D01*
X73451097Y-18050000D01*
X73493824Y-18047102D01*
X73678523Y-18001168D01*
X73849022Y-17916609D01*
X73849025Y-17916607D01*
X73997366Y-17797367D01*
X73997367Y-17797366D01*
X74116607Y-17649025D01*
X74116609Y-17649022D01*
X74201168Y-17478523D01*
X74247102Y-17293824D01*
X74250000Y-17251096D01*
X74250000Y-17050000D01*
X73000000Y-17050000D01*
X73000000Y-18050000D01*
X72500000Y-18050000D01*
X72500000Y-17050000D01*
X71250000Y-17050000D01*
X71250000Y-17251096D01*
X52050500Y-17251096D01*
X52050499Y-15662128D01*
X52044091Y-15602517D01*
X52029502Y-15563403D01*
X51993797Y-15467671D01*
X51993793Y-15467664D01*
X51907547Y-15352455D01*
X51907544Y-15352452D01*
X51792335Y-15266206D01*
X51792328Y-15266202D01*
X51657482Y-15215908D01*
X51657483Y-15215908D01*
X51597883Y-15209501D01*
X51597881Y-15209500D01*
X51597873Y-15209500D01*
X51597864Y-15209500D01*
X49802129Y-15209500D01*
X49802123Y-15209501D01*
X49742516Y-15215908D01*
X49607671Y-15266202D01*
X49607664Y-15266206D01*
X49492455Y-15352452D01*
X49492452Y-15352455D01*
X49406206Y-15467664D01*
X49406202Y-15467671D01*
X49355908Y-15602517D01*
X49349501Y-15662116D01*
X49349501Y-15662123D01*
X49349500Y-15662135D01*
X49349500Y-17457870D01*
X49349501Y-17457876D01*
X49355908Y-17517483D01*
X49406202Y-17652328D01*
X49406206Y-17652335D01*
X49492452Y-17767544D01*
X49492455Y-17767547D01*
X49607664Y-17853793D01*
X49607671Y-17853797D01*
X49607674Y-17853798D01*
X49739598Y-17903002D01*
X49795531Y-17944873D01*
X49819949Y-18010337D01*
X49805098Y-18078610D01*
X49783947Y-18106865D01*
X49661886Y-18228926D01*
X49526400Y-18422420D01*
X49526399Y-18422422D01*
X49426570Y-18636507D01*
X49426567Y-18636513D01*
X49369364Y-18849999D01*
X49369364Y-18850000D01*
X50266988Y-18850000D01*
X50234075Y-18907007D01*
X50200000Y-19034174D01*
X50200000Y-19165826D01*
X50234075Y-19292993D01*
X50266988Y-19350000D01*
X49369364Y-19350000D01*
X49426567Y-19563486D01*
X49426570Y-19563492D01*
X49526399Y-19777578D01*
X49661894Y-19971082D01*
X49828917Y-20138105D01*
X50014595Y-20268119D01*
X50058219Y-20322696D01*
X50065412Y-20392195D01*
X50033890Y-20454549D01*
X50014595Y-20471269D01*
X49828594Y-20601508D01*
X49661505Y-20768597D01*
X49525965Y-20962169D01*
X49525964Y-20962171D01*
X49426098Y-21176335D01*
X49426094Y-21176344D01*
X49364938Y-21404586D01*
X49364936Y-21404596D01*
X49344341Y-21639999D01*
X44607487Y-21639999D01*
X44643350Y-21592093D01*
X44643354Y-21592086D01*
X44693596Y-21457379D01*
X44693598Y-21457372D01*
X44699999Y-21397844D01*
X44700000Y-21397827D01*
X44700000Y-21000000D01*
X43750000Y-21000000D01*
X43750000Y-21850000D01*
X43250000Y-21850000D01*
X43250000Y-20624000D01*
X43269685Y-20556961D01*
X43322489Y-20511206D01*
X43374000Y-20500000D01*
X44700000Y-20500000D01*
X44700000Y-20102172D01*
X44699999Y-20102155D01*
X44693598Y-20042627D01*
X44693596Y-20042620D01*
X44656831Y-19944047D01*
X44651847Y-19874356D01*
X44656827Y-19857390D01*
X44694091Y-19757483D01*
X44700500Y-19697873D01*
X44700499Y-18402128D01*
X44694091Y-18342517D01*
X44689153Y-18329278D01*
X44643797Y-18207671D01*
X44643793Y-18207664D01*
X44557547Y-18092455D01*
X44557544Y-18092452D01*
X44442335Y-18006206D01*
X44442328Y-18006202D01*
X44307482Y-17955908D01*
X44307483Y-17955908D01*
X44247883Y-17949501D01*
X44247881Y-17949500D01*
X44247873Y-17949500D01*
X44247864Y-17949500D01*
X42752129Y-17949500D01*
X42752123Y-17949501D01*
X42692516Y-17955908D01*
X42557671Y-18006202D01*
X42557669Y-18006204D01*
X42473894Y-18068918D01*
X42408430Y-18093335D01*
X42340157Y-18078484D01*
X42325272Y-18068918D01*
X42242088Y-18006646D01*
X42242086Y-18006645D01*
X42107379Y-17956403D01*
X42107372Y-17956401D01*
X42047844Y-17950000D01*
X41550000Y-17950000D01*
X41550000Y-19176000D01*
X41530315Y-19243039D01*
X41477511Y-19288794D01*
X41426000Y-19300000D01*
X40100000Y-19300000D01*
X40100000Y-19697844D01*
X40106401Y-19757372D01*
X40106403Y-19757380D01*
X40143168Y-19855952D01*
X40148152Y-19925644D01*
X40143168Y-19942617D01*
X40105909Y-20042514D01*
X40105908Y-20042516D01*
X40099501Y-20102116D01*
X40099500Y-20102135D01*
X25678122Y-20102135D01*
X25640185Y-20089564D01*
X25640183Y-20089563D01*
X25541681Y-20079500D01*
X25541674Y-20079500D01*
X25008326Y-20079500D01*
X25008318Y-20079500D01*
X24909816Y-20089563D01*
X24909815Y-20089564D01*
X24871818Y-20102155D01*
X24750215Y-20142450D01*
X24750204Y-20142455D01*
X24607112Y-20230716D01*
X24607108Y-20230719D01*
X24575181Y-20262647D01*
X24513858Y-20296132D01*
X24444166Y-20291148D01*
X24399819Y-20262647D01*
X24367891Y-20230719D01*
X24367887Y-20230716D01*
X24224795Y-20142455D01*
X24224789Y-20142452D01*
X24224787Y-20142451D01*
X24065185Y-20089564D01*
X24065183Y-20089563D01*
X23966681Y-20079500D01*
X23966674Y-20079500D01*
X23433326Y-20079500D01*
X23433318Y-20079500D01*
X23334816Y-20089563D01*
X23334815Y-20089564D01*
X23296818Y-20102155D01*
X23175215Y-20142450D01*
X23175204Y-20142455D01*
X23032112Y-20230716D01*
X23032108Y-20230719D01*
X22913219Y-20349608D01*
X22913216Y-20349612D01*
X22824955Y-20492704D01*
X22824951Y-20492713D01*
X22772064Y-20652315D01*
X22772064Y-20652316D01*
X22772063Y-20652316D01*
X22762000Y-20750818D01*
X20206200Y-20750818D01*
X20289244Y-20610398D01*
X20335098Y-20452569D01*
X20338000Y-20415694D01*
X20338000Y-20174500D01*
X20357685Y-20107461D01*
X20410489Y-20061706D01*
X20462000Y-20050500D01*
X21628186Y-20050500D01*
X21628194Y-20050500D01*
X21665069Y-20047598D01*
X21665071Y-20047597D01*
X21665073Y-20047597D01*
X21706691Y-20035505D01*
X21822898Y-20001744D01*
X21964365Y-19918081D01*
X22080581Y-19801865D01*
X22164244Y-19660398D01*
X22201572Y-19531917D01*
X22210097Y-19502573D01*
X22210098Y-19502567D01*
X22212999Y-19465701D01*
X22213000Y-19465694D01*
X22213000Y-19034306D01*
X22210098Y-18997431D01*
X22201571Y-18968082D01*
X22164245Y-18839606D01*
X22164244Y-18839603D01*
X22164244Y-18839602D01*
X22080581Y-18698135D01*
X22080579Y-18698133D01*
X22080576Y-18698129D01*
X21964370Y-18581923D01*
X21964362Y-18581917D01*
X21829491Y-18502155D01*
X21822898Y-18498256D01*
X21822897Y-18498255D01*
X21822896Y-18498255D01*
X21822893Y-18498254D01*
X21665073Y-18452402D01*
X21665067Y-18452401D01*
X21628201Y-18449500D01*
X21628194Y-18449500D01*
X20462000Y-18449500D01*
X20394961Y-18429815D01*
X20349206Y-18377011D01*
X20338000Y-18325500D01*
X20338000Y-18150589D01*
X22802000Y-18150589D01*
X22802000Y-18499393D01*
X22802001Y-18499415D01*
X22804734Y-18534152D01*
X22804734Y-18534155D01*
X22804735Y-18534156D01*
X22847945Y-18682887D01*
X22847946Y-18682888D01*
X22926782Y-18816194D01*
X22926789Y-18816203D01*
X23036296Y-18925710D01*
X23036305Y-18925717D01*
X23040130Y-18927979D01*
X23169613Y-19004555D01*
X23318344Y-19047765D01*
X23353095Y-19050500D01*
X23851904Y-19050499D01*
X23886656Y-19047765D01*
X24035387Y-19004555D01*
X24168698Y-18925715D01*
X24278215Y-18816198D01*
X24357055Y-18682887D01*
X24400265Y-18534156D01*
X24403000Y-18499405D01*
X24402999Y-18150596D01*
X24402998Y-18150589D01*
X24902000Y-18150589D01*
X24902000Y-18499393D01*
X24902001Y-18499415D01*
X24904734Y-18534152D01*
X24904734Y-18534155D01*
X24904735Y-18534156D01*
X24947945Y-18682887D01*
X24947946Y-18682888D01*
X25026782Y-18816194D01*
X25026789Y-18816203D01*
X25136296Y-18925710D01*
X25136305Y-18925717D01*
X25140130Y-18927979D01*
X25269613Y-19004555D01*
X25418344Y-19047765D01*
X25453095Y-19050500D01*
X25951904Y-19050499D01*
X25986656Y-19047765D01*
X26135387Y-19004555D01*
X26268698Y-18925715D01*
X26378215Y-18816198D01*
X26457055Y-18682887D01*
X26500265Y-18534156D01*
X26503000Y-18499405D01*
X26503000Y-18402155D01*
X40100000Y-18402155D01*
X40100000Y-18800000D01*
X41050000Y-18800000D01*
X41050000Y-17950000D01*
X40552155Y-17950000D01*
X40492627Y-17956401D01*
X40492620Y-17956403D01*
X40357913Y-18006645D01*
X40357906Y-18006649D01*
X40242812Y-18092809D01*
X40242809Y-18092812D01*
X40156649Y-18207906D01*
X40156645Y-18207913D01*
X40106403Y-18342620D01*
X40106401Y-18342627D01*
X40100000Y-18402155D01*
X26503000Y-18402155D01*
X26502999Y-18150596D01*
X26500265Y-18115844D01*
X26457055Y-17967113D01*
X26390040Y-17853797D01*
X26378217Y-17833805D01*
X26378210Y-17833796D01*
X26268703Y-17724289D01*
X26268694Y-17724282D01*
X26147037Y-17652335D01*
X26135387Y-17645445D01*
X25986656Y-17602235D01*
X25986653Y-17602234D01*
X25986651Y-17602234D01*
X25955895Y-17599814D01*
X25951905Y-17599500D01*
X25951904Y-17599500D01*
X25453106Y-17599500D01*
X25453084Y-17599501D01*
X25418347Y-17602234D01*
X25418344Y-17602235D01*
X25269613Y-17645445D01*
X25269611Y-17645445D01*
X25269611Y-17645446D01*
X25136305Y-17724282D01*
X25136296Y-17724289D01*
X25026789Y-17833796D01*
X25026782Y-17833805D01*
X24954571Y-17955909D01*
X24947945Y-17967113D01*
X24924706Y-18047102D01*
X24904734Y-18115847D01*
X24904734Y-18115849D01*
X24902000Y-18150589D01*
X24402998Y-18150589D01*
X24400265Y-18115844D01*
X24357055Y-17967113D01*
X24290040Y-17853797D01*
X24278217Y-17833805D01*
X24278210Y-17833796D01*
X24168703Y-17724289D01*
X24168694Y-17724282D01*
X24047037Y-17652335D01*
X24035387Y-17645445D01*
X23886656Y-17602235D01*
X23886653Y-17602234D01*
X23886651Y-17602234D01*
X23855895Y-17599814D01*
X23851905Y-17599500D01*
X23851904Y-17599500D01*
X23353106Y-17599500D01*
X23353084Y-17599501D01*
X23318347Y-17602234D01*
X23318344Y-17602235D01*
X23169613Y-17645445D01*
X23169611Y-17645445D01*
X23169611Y-17645446D01*
X23036305Y-17724282D01*
X23036296Y-17724289D01*
X22926789Y-17833796D01*
X22926782Y-17833805D01*
X22854571Y-17955909D01*
X22847945Y-17967113D01*
X22824706Y-18047102D01*
X22804734Y-18115847D01*
X22804734Y-18115849D01*
X22802000Y-18150589D01*
X20338000Y-18150589D01*
X20338000Y-18084313D01*
X20337999Y-18084298D01*
X20337864Y-18082585D01*
X20335098Y-18047431D01*
X20335002Y-18047102D01*
X20293453Y-17904091D01*
X20289244Y-17889602D01*
X20205581Y-17748135D01*
X20205579Y-17748133D01*
X20205576Y-17748129D01*
X20089370Y-17631923D01*
X20089362Y-17631917D01*
X19993213Y-17575055D01*
X19947898Y-17548256D01*
X19947897Y-17548255D01*
X19947896Y-17548255D01*
X19947893Y-17548254D01*
X19790073Y-17502402D01*
X19790067Y-17502401D01*
X19753201Y-17499500D01*
X19753194Y-17499500D01*
X18446806Y-17499500D01*
X18446798Y-17499500D01*
X18409932Y-17502401D01*
X18409926Y-17502402D01*
X18252106Y-17548254D01*
X18252103Y-17548255D01*
X18110637Y-17631917D01*
X18110629Y-17631923D01*
X17994423Y-17748129D01*
X17994417Y-17748137D01*
X17910755Y-17889603D01*
X17910754Y-17889606D01*
X17864902Y-18047426D01*
X17864901Y-18047432D01*
X17862000Y-18084298D01*
X9413018Y-18084298D01*
X9381187Y-18079500D01*
X9381182Y-18079500D01*
X9118818Y-18079500D01*
X9118812Y-18079500D01*
X8957247Y-18103853D01*
X8859385Y-18118604D01*
X8859382Y-18118605D01*
X8859376Y-18118606D01*
X8608673Y-18195938D01*
X8372303Y-18309767D01*
X8372295Y-18309772D01*
X8199104Y-18427852D01*
X8132625Y-18449352D01*
X8065075Y-18431498D01*
X8017901Y-18379958D01*
X8006081Y-18311095D01*
X8009473Y-18293325D01*
X8043409Y-18166677D01*
X8075500Y-17922927D01*
X8075500Y-17677073D01*
X8043409Y-17433323D01*
X7979778Y-17195847D01*
X7885694Y-16968708D01*
X7762767Y-16755792D01*
X7613101Y-16560744D01*
X7613096Y-16560738D01*
X7439261Y-16386903D01*
X7439254Y-16386897D01*
X7244212Y-16237236D01*
X7244211Y-16237235D01*
X7244208Y-16237233D01*
X7046136Y-16122876D01*
X7031294Y-16114307D01*
X7031285Y-16114303D01*
X6804162Y-16020225D01*
X6804155Y-16020223D01*
X6804153Y-16020222D01*
X6566677Y-15956591D01*
X6524013Y-15950974D01*
X6322934Y-15924500D01*
X6322927Y-15924500D01*
X6077073Y-15924500D01*
X6077065Y-15924500D01*
X5845059Y-15955045D01*
X5833323Y-15956591D01*
X5604431Y-16017922D01*
X5595847Y-16020222D01*
X5595837Y-16020225D01*
X5368714Y-16114303D01*
X5368705Y-16114307D01*
X5155787Y-16237236D01*
X4960745Y-16386897D01*
X4960738Y-16386903D01*
X4786903Y-16560738D01*
X4786897Y-16560745D01*
X4637236Y-16755787D01*
X4514307Y-16968705D01*
X4514303Y-16968714D01*
X4420225Y-17195837D01*
X4420222Y-17195847D01*
X4356591Y-17433323D01*
X4355582Y-17440984D01*
X4324500Y-17677065D01*
X2004997Y-17677065D01*
X1927639Y-17622898D01*
X1776414Y-17552381D01*
X1723977Y-17506210D01*
X1704825Y-17439016D01*
X1725041Y-17372135D01*
X1776414Y-17327618D01*
X1927639Y-17257102D01*
X2106877Y-17131598D01*
X2261598Y-16976877D01*
X2387102Y-16797639D01*
X2479575Y-16599330D01*
X2536207Y-16387977D01*
X2555277Y-16170000D01*
X2554790Y-16164438D01*
X2550405Y-16114307D01*
X2536207Y-15952023D01*
X2479575Y-15740670D01*
X2387102Y-15542362D01*
X2387100Y-15542359D01*
X2387099Y-15542357D01*
X2261599Y-15363124D01*
X2187268Y-15288793D01*
X2106877Y-15208402D01*
X1939207Y-15090998D01*
X1927638Y-15082897D01*
X1825039Y-15035055D01*
X1729330Y-14990425D01*
X1729326Y-14990424D01*
X1729322Y-14990422D01*
X1517977Y-14933793D01*
X1300002Y-14914723D01*
X1299998Y-14914723D01*
X1154682Y-14927436D01*
X1082023Y-14933793D01*
X1082020Y-14933793D01*
X870677Y-14990422D01*
X870670Y-14990424D01*
X870670Y-14990425D01*
X863235Y-14993892D01*
X672361Y-15082898D01*
X672357Y-15082901D01*
X595623Y-15136630D01*
X529416Y-15158957D01*
X461649Y-15141946D01*
X413837Y-15090998D01*
X400500Y-15035055D01*
X400500Y-10184997D01*
X11304723Y-10184997D01*
X11304723Y-10185002D01*
X11307329Y-10214785D01*
X11317409Y-10330011D01*
X11323793Y-10402975D01*
X11323793Y-10402979D01*
X11380422Y-10614322D01*
X11380424Y-10614326D01*
X11380425Y-10614330D01*
X11408067Y-10673608D01*
X11472897Y-10812638D01*
X11484359Y-10829007D01*
X11598402Y-10991877D01*
X11753123Y-11146598D01*
X11932360Y-11272101D01*
X11932361Y-11272102D01*
X12083583Y-11342618D01*
X12136022Y-11388790D01*
X12155174Y-11455984D01*
X12134958Y-11522865D01*
X12083583Y-11567382D01*
X11932361Y-11637898D01*
X11932357Y-11637900D01*
X11753121Y-11763402D01*
X11598402Y-11918121D01*
X11472900Y-12097357D01*
X11472898Y-12097361D01*
X11380426Y-12295668D01*
X11380422Y-12295677D01*
X11323793Y-12507020D01*
X11323793Y-12507024D01*
X11304723Y-12724997D01*
X11304723Y-12725002D01*
X11309641Y-12781210D01*
X11322891Y-12932671D01*
X11323793Y-12942975D01*
X11323793Y-12942979D01*
X11380422Y-13154322D01*
X11380424Y-13154326D01*
X11380425Y-13154330D01*
X11392466Y-13180151D01*
X11472897Y-13352638D01*
X11494136Y-13382970D01*
X11598402Y-13531877D01*
X11753123Y-13686598D01*
X11915078Y-13800000D01*
X11932361Y-13812102D01*
X12083583Y-13882618D01*
X12136022Y-13928790D01*
X12155174Y-13995984D01*
X12134958Y-14062865D01*
X12083583Y-14107382D01*
X11932361Y-14177898D01*
X11932357Y-14177900D01*
X11753121Y-14303402D01*
X11598402Y-14458121D01*
X11472900Y-14637357D01*
X11472898Y-14637361D01*
X11380426Y-14835668D01*
X11380422Y-14835677D01*
X11323793Y-15047020D01*
X11323793Y-15047024D01*
X11304723Y-15264997D01*
X11304723Y-15265002D01*
X11323793Y-15482975D01*
X11323793Y-15482979D01*
X11380422Y-15694322D01*
X11380424Y-15694326D01*
X11380425Y-15694330D01*
X11409444Y-15756561D01*
X11472897Y-15892638D01*
X11476204Y-15897361D01*
X11598402Y-16071877D01*
X11753123Y-16226598D01*
X11932361Y-16352102D01*
X12130670Y-16444575D01*
X12342023Y-16501207D01*
X12524926Y-16517208D01*
X12559998Y-16520277D01*
X12560000Y-16520277D01*
X12560002Y-16520277D01*
X12588254Y-16517805D01*
X12777977Y-16501207D01*
X12989330Y-16444575D01*
X13187639Y-16352102D01*
X13366877Y-16226598D01*
X13521598Y-16071877D01*
X13647102Y-15892639D01*
X13739575Y-15694330D01*
X13796207Y-15482977D01*
X13814864Y-15269723D01*
X13815277Y-15265002D01*
X13815277Y-15264997D01*
X13810422Y-15209501D01*
X13796207Y-15047023D01*
X13739575Y-14835670D01*
X13647102Y-14637362D01*
X13647100Y-14637359D01*
X13647099Y-14637357D01*
X13521599Y-14458124D01*
X13477797Y-14414322D01*
X13366877Y-14303402D01*
X13187639Y-14177898D01*
X13036414Y-14107381D01*
X12983977Y-14061210D01*
X12964825Y-13994016D01*
X12985041Y-13927135D01*
X13036414Y-13882618D01*
X13187639Y-13812102D01*
X13366877Y-13686598D01*
X13521598Y-13531877D01*
X13647102Y-13352639D01*
X13739575Y-13154330D01*
X13796207Y-12942977D01*
X13814734Y-12731203D01*
X13815277Y-12725002D01*
X13815277Y-12724997D01*
X13808814Y-12651123D01*
X13796207Y-12507023D01*
X13739575Y-12295670D01*
X13647102Y-12097362D01*
X13647100Y-12097359D01*
X13647099Y-12097357D01*
X13521599Y-11918124D01*
X13477797Y-11874322D01*
X13366877Y-11763402D01*
X13187639Y-11637898D01*
X13036414Y-11567381D01*
X12983977Y-11521210D01*
X12964825Y-11454016D01*
X12985041Y-11387135D01*
X13036414Y-11342618D01*
X13187639Y-11272102D01*
X13366877Y-11146598D01*
X13521598Y-10991877D01*
X13647102Y-10812639D01*
X13739575Y-10614330D01*
X13796207Y-10402977D01*
X13813195Y-10208793D01*
X13815277Y-10185002D01*
X13815277Y-10184997D01*
X13811052Y-10136706D01*
X13796207Y-9967023D01*
X13739575Y-9755670D01*
X13647102Y-9557362D01*
X13647100Y-9557359D01*
X13647099Y-9557357D01*
X13521599Y-9378124D01*
X13451528Y-9308053D01*
X13366877Y-9223402D01*
X13191452Y-9100568D01*
X13147829Y-9045993D01*
X13140637Y-8976494D01*
X13172159Y-8914140D01*
X13223574Y-8881289D01*
X13234538Y-8877656D01*
X13379047Y-8829771D01*
X13528468Y-8737607D01*
X13650194Y-8615880D01*
X13711513Y-8582398D01*
X13781205Y-8587382D01*
X13837139Y-8629253D01*
X13861556Y-8694717D01*
X13861400Y-8714371D01*
X13844723Y-8904997D01*
X13844723Y-8905002D01*
X13849847Y-8963571D01*
X13860873Y-9089606D01*
X13863793Y-9122975D01*
X13863793Y-9122979D01*
X13920422Y-9334322D01*
X13920424Y-9334326D01*
X13920425Y-9334330D01*
X13966392Y-9432906D01*
X14012897Y-9532638D01*
X14030209Y-9557362D01*
X14138402Y-9711877D01*
X14293123Y-9866598D01*
X14436545Y-9967023D01*
X14472361Y-9992102D01*
X14623583Y-10062618D01*
X14676022Y-10108790D01*
X14695174Y-10175984D01*
X14674958Y-10242865D01*
X14623583Y-10287382D01*
X14472361Y-10357898D01*
X14472357Y-10357900D01*
X14293121Y-10483402D01*
X14138402Y-10638121D01*
X14012900Y-10817357D01*
X14012898Y-10817361D01*
X13920426Y-11015668D01*
X13920422Y-11015677D01*
X13863793Y-11227020D01*
X13863793Y-11227024D01*
X13844723Y-11444997D01*
X13844723Y-11445002D01*
X13863793Y-11662975D01*
X13863793Y-11662979D01*
X13920422Y-11874322D01*
X13920424Y-11874326D01*
X13920425Y-11874330D01*
X13960583Y-11960450D01*
X14012897Y-12072638D01*
X14031482Y-12099180D01*
X14138402Y-12251877D01*
X14293123Y-12406598D01*
X14436545Y-12507023D01*
X14472361Y-12532102D01*
X14623583Y-12602618D01*
X14676022Y-12648790D01*
X14695174Y-12715984D01*
X14674958Y-12782865D01*
X14623583Y-12827382D01*
X14472361Y-12897898D01*
X14472357Y-12897900D01*
X14293121Y-13023402D01*
X14138402Y-13178121D01*
X14012900Y-13357357D01*
X14012898Y-13357361D01*
X13920426Y-13555668D01*
X13920422Y-13555677D01*
X13863793Y-13767020D01*
X13863793Y-13767024D01*
X13844723Y-13984997D01*
X13844723Y-13985002D01*
X13863793Y-14202975D01*
X13863793Y-14202979D01*
X13920422Y-14414322D01*
X13920424Y-14414326D01*
X13920425Y-14414330D01*
X13952204Y-14482481D01*
X14012897Y-14612638D01*
X14030209Y-14637362D01*
X14138402Y-14791877D01*
X14293123Y-14946598D01*
X14436545Y-15047023D01*
X14472361Y-15072102D01*
X14623583Y-15142618D01*
X14676022Y-15188790D01*
X14695174Y-15255984D01*
X14674958Y-15322865D01*
X14623583Y-15367382D01*
X14472361Y-15437898D01*
X14472357Y-15437900D01*
X14293121Y-15563402D01*
X14138402Y-15718121D01*
X14012900Y-15897357D01*
X14012898Y-15897361D01*
X13956680Y-16017922D01*
X13921450Y-16093473D01*
X13920426Y-16095668D01*
X13920422Y-16095677D01*
X13863793Y-16307020D01*
X13863793Y-16307023D01*
X13862891Y-16317331D01*
X13844723Y-16524997D01*
X13844723Y-16525002D01*
X13863793Y-16742975D01*
X13863793Y-16742979D01*
X13920422Y-16954322D01*
X13920424Y-16954326D01*
X13920425Y-16954330D01*
X13930939Y-16976877D01*
X14012897Y-17152638D01*
X14012898Y-17152639D01*
X14138402Y-17331877D01*
X14293123Y-17486598D01*
X14472361Y-17612102D01*
X14670670Y-17704575D01*
X14882023Y-17761207D01*
X15064926Y-17777208D01*
X15099998Y-17780277D01*
X15100000Y-17780277D01*
X15100002Y-17780277D01*
X15128254Y-17777805D01*
X15317977Y-17761207D01*
X15529330Y-17704575D01*
X15727639Y-17612102D01*
X15906877Y-17486598D01*
X16061598Y-17331877D01*
X16187102Y-17152639D01*
X16279575Y-16954330D01*
X16336207Y-16742977D01*
X16354661Y-16532042D01*
X16355277Y-16525002D01*
X16355277Y-16524997D01*
X16349014Y-16453409D01*
X16336207Y-16307023D01*
X16299491Y-16169997D01*
X16279577Y-16095677D01*
X16279576Y-16095676D01*
X16279575Y-16095670D01*
X16187102Y-15897362D01*
X16187100Y-15897359D01*
X16187099Y-15897357D01*
X16061599Y-15718124D01*
X16005591Y-15662116D01*
X15906877Y-15563402D01*
X15727639Y-15437898D01*
X15576414Y-15367381D01*
X15523977Y-15321210D01*
X15504825Y-15254016D01*
X15525041Y-15187135D01*
X15576414Y-15142618D01*
X15727639Y-15072102D01*
X15906877Y-14946598D01*
X16061598Y-14791877D01*
X16187102Y-14612639D01*
X16279575Y-14414330D01*
X16336207Y-14202977D01*
X16355277Y-13985000D01*
X16353195Y-13961207D01*
X16350215Y-13927135D01*
X16336207Y-13767023D01*
X16288996Y-13590831D01*
X16279577Y-13555677D01*
X16279576Y-13555676D01*
X16279575Y-13555670D01*
X16187102Y-13357362D01*
X16187100Y-13357359D01*
X16187099Y-13357357D01*
X16061599Y-13178124D01*
X16010610Y-13127135D01*
X17917000Y-13127135D01*
X17917000Y-14422870D01*
X17917001Y-14422876D01*
X17923409Y-14482484D01*
X17960401Y-14581668D01*
X17965385Y-14651360D01*
X17960401Y-14668332D01*
X17923409Y-14767514D01*
X17923408Y-14767516D01*
X17920789Y-14791881D01*
X17917001Y-14827123D01*
X17917000Y-14827135D01*
X17917000Y-16122870D01*
X17917001Y-16122876D01*
X17923408Y-16182483D01*
X17973702Y-16317328D01*
X17973706Y-16317335D01*
X18059952Y-16432544D01*
X18059955Y-16432547D01*
X18175164Y-16518793D01*
X18175171Y-16518797D01*
X18310017Y-16569091D01*
X18310016Y-16569091D01*
X18316944Y-16569835D01*
X18369627Y-16575500D01*
X19865372Y-16575499D01*
X19924983Y-16569091D01*
X20059831Y-16518796D01*
X20143189Y-16456393D01*
X20208653Y-16431977D01*
X20276926Y-16446828D01*
X20291809Y-16456393D01*
X20341681Y-16493727D01*
X20375169Y-16518796D01*
X20375171Y-16518797D01*
X20510017Y-16569091D01*
X20510016Y-16569091D01*
X20516944Y-16569835D01*
X20569627Y-16575500D01*
X22065372Y-16575499D01*
X22124983Y-16569091D01*
X22259831Y-16518796D01*
X22375046Y-16432546D01*
X22461296Y-16317331D01*
X22511591Y-16182483D01*
X22518000Y-16122873D01*
X22517999Y-14827128D01*
X22511591Y-14767517D01*
X22474596Y-14668330D01*
X22469613Y-14598642D01*
X22474592Y-14581680D01*
X22511591Y-14482483D01*
X22518000Y-14422873D01*
X22517999Y-13127128D01*
X22511591Y-13067517D01*
X22511446Y-13067129D01*
X22461297Y-12932671D01*
X22461293Y-12932664D01*
X22375047Y-12817455D01*
X22375044Y-12817452D01*
X22259835Y-12731206D01*
X22259828Y-12731202D01*
X22124982Y-12680908D01*
X22124983Y-12680908D01*
X22065383Y-12674501D01*
X22065381Y-12674500D01*
X22065373Y-12674500D01*
X22065364Y-12674500D01*
X20569629Y-12674500D01*
X20569623Y-12674501D01*
X20510016Y-12680908D01*
X20375171Y-12731202D01*
X20375169Y-12731203D01*
X20291811Y-12793606D01*
X20226347Y-12818023D01*
X20158074Y-12803172D01*
X20143189Y-12793606D01*
X20059830Y-12731203D01*
X20059828Y-12731202D01*
X19924982Y-12680908D01*
X19924983Y-12680908D01*
X19865383Y-12674501D01*
X19865381Y-12674500D01*
X19865373Y-12674500D01*
X19865364Y-12674500D01*
X18369629Y-12674500D01*
X18369623Y-12674501D01*
X18310016Y-12680908D01*
X18175171Y-12731202D01*
X18175164Y-12731206D01*
X18059955Y-12817452D01*
X18059952Y-12817455D01*
X17973706Y-12932664D01*
X17973702Y-12932671D01*
X17923408Y-13067517D01*
X17917001Y-13127116D01*
X17917001Y-13127123D01*
X17917000Y-13127135D01*
X16010610Y-13127135D01*
X15984894Y-13101419D01*
X15906877Y-13023402D01*
X15727639Y-12897898D01*
X15576414Y-12827381D01*
X15523977Y-12781210D01*
X15504825Y-12714016D01*
X15525041Y-12647135D01*
X15576414Y-12602618D01*
X15727639Y-12532102D01*
X15906877Y-12406598D01*
X16061598Y-12251877D01*
X16187102Y-12072639D01*
X16279575Y-11874330D01*
X16336207Y-11662977D01*
X16355277Y-11445000D01*
X16353195Y-11421207D01*
X16348241Y-11364575D01*
X16336207Y-11227023D01*
X16301548Y-11097675D01*
X16279577Y-11015677D01*
X16279576Y-11015676D01*
X16279575Y-11015670D01*
X16187102Y-10817362D01*
X16187100Y-10817359D01*
X16187099Y-10817357D01*
X16061599Y-10638124D01*
X15985017Y-10561542D01*
X15906877Y-10483402D01*
X15727639Y-10357898D01*
X15576414Y-10287381D01*
X15523977Y-10241210D01*
X15504825Y-10174016D01*
X15525041Y-10107135D01*
X15576414Y-10062618D01*
X15727639Y-9992102D01*
X15906877Y-9866598D01*
X16061598Y-9711877D01*
X16187102Y-9532639D01*
X16279575Y-9334330D01*
X16336207Y-9122977D01*
X16353872Y-8921061D01*
X16355277Y-8905002D01*
X16355277Y-8904997D01*
X16346693Y-8806881D01*
X16336207Y-8687023D01*
X16279575Y-8475670D01*
X16187102Y-8277362D01*
X16187100Y-8277359D01*
X16187099Y-8277357D01*
X16061599Y-8098124D01*
X16019167Y-8055692D01*
X15906877Y-7943402D01*
X15727639Y-7817898D01*
X15727640Y-7817898D01*
X15727638Y-7817897D01*
X15581525Y-7749764D01*
X15529330Y-7725425D01*
X15529326Y-7725424D01*
X15529322Y-7725422D01*
X15317977Y-7668793D01*
X15100002Y-7649723D01*
X15099998Y-7649723D01*
X14954682Y-7662436D01*
X14882023Y-7668793D01*
X14882020Y-7668793D01*
X14670677Y-7725422D01*
X14670668Y-7725426D01*
X14472361Y-7817898D01*
X14472357Y-7817900D01*
X14293121Y-7943402D01*
X14138402Y-8098121D01*
X14036075Y-8244261D01*
X13981498Y-8287886D01*
X13912000Y-8295080D01*
X13849645Y-8263557D01*
X13814231Y-8203327D01*
X13810500Y-8173138D01*
X13810500Y-7095459D01*
X13810499Y-7095446D01*
X13809711Y-7087729D01*
X13799992Y-6992601D01*
X13744771Y-6825953D01*
X13652607Y-6676532D01*
X13528468Y-6552393D01*
X13432047Y-6492920D01*
X13379049Y-6460230D01*
X13379044Y-6460228D01*
X13212399Y-6405008D01*
X13109553Y-6394500D01*
X13109546Y-6394500D01*
X12010454Y-6394500D01*
X12010446Y-6394500D01*
X11907600Y-6405008D01*
X11740955Y-6460228D01*
X11740950Y-6460230D01*
X11591530Y-6552394D01*
X11467394Y-6676530D01*
X11375230Y-6825950D01*
X11375228Y-6825955D01*
X11320008Y-6992600D01*
X11309500Y-7095446D01*
X11309500Y-8194553D01*
X11317577Y-8273605D01*
X11320008Y-8297399D01*
X11375229Y-8464047D01*
X11467393Y-8613468D01*
X11591532Y-8737607D01*
X11740953Y-8829771D01*
X11885462Y-8877656D01*
X11896426Y-8881289D01*
X11953871Y-8921061D01*
X11980694Y-8985577D01*
X11968379Y-9054353D01*
X11928545Y-9100570D01*
X11753121Y-9223402D01*
X11598402Y-9378121D01*
X11472900Y-9557357D01*
X11472898Y-9557361D01*
X11380426Y-9755668D01*
X11380422Y-9755677D01*
X11323793Y-9967020D01*
X11323793Y-9967024D01*
X11304723Y-10184997D01*
X400500Y-10184997D01*
X400500Y-9134944D01*
X420185Y-9067905D01*
X472989Y-9022150D01*
X542147Y-9012206D01*
X595623Y-9033369D01*
X672361Y-9087102D01*
X870670Y-9179575D01*
X1082023Y-9236207D01*
X1264926Y-9252208D01*
X1299998Y-9255277D01*
X1300000Y-9255277D01*
X1300002Y-9255277D01*
X1328254Y-9252805D01*
X1517977Y-9236207D01*
X1729330Y-9179575D01*
X1927639Y-9087102D01*
X2106877Y-8961598D01*
X2261598Y-8806877D01*
X2387102Y-8627639D01*
X2479575Y-8429330D01*
X2536207Y-8217977D01*
X2555277Y-8000000D01*
X2536207Y-7782023D01*
X2493010Y-7620811D01*
X2479577Y-7570677D01*
X2479576Y-7570676D01*
X2479575Y-7570670D01*
X2387102Y-7372362D01*
X2387100Y-7372359D01*
X2387099Y-7372357D01*
X2261599Y-7193124D01*
X2199500Y-7131025D01*
X2106877Y-7038402D01*
X1927639Y-6912898D01*
X1776414Y-6842381D01*
X1723977Y-6796210D01*
X1704825Y-6729016D01*
X1725041Y-6662135D01*
X1776414Y-6617618D01*
X1927639Y-6547102D01*
X2106877Y-6421598D01*
X2261598Y-6266877D01*
X2275471Y-6247065D01*
X4324500Y-6247065D01*
X4324500Y-6492934D01*
X4351227Y-6695939D01*
X4356591Y-6736677D01*
X4419631Y-6971946D01*
X4420222Y-6974152D01*
X4420225Y-6974162D01*
X4514303Y-7201285D01*
X4514306Y-7201292D01*
X4637233Y-7414208D01*
X4637235Y-7414211D01*
X4637236Y-7414212D01*
X4786897Y-7609254D01*
X4786903Y-7609261D01*
X4960738Y-7783096D01*
X4960745Y-7783102D01*
X5015329Y-7824986D01*
X5155792Y-7932767D01*
X5368708Y-8055694D01*
X5595847Y-8149778D01*
X5833323Y-8213409D01*
X6077073Y-8245500D01*
X6077080Y-8245500D01*
X6322920Y-8245500D01*
X6322927Y-8245500D01*
X6566677Y-8213409D01*
X6804153Y-8149778D01*
X7031292Y-8055694D01*
X7244208Y-7932767D01*
X7439256Y-7783101D01*
X7613101Y-7609256D01*
X7762767Y-7414208D01*
X7885694Y-7201292D01*
X7979778Y-6974153D01*
X8043409Y-6736677D01*
X8075500Y-6492927D01*
X8075500Y-6247073D01*
X8043409Y-6003323D01*
X8009478Y-5876690D01*
X8011141Y-5806845D01*
X8050303Y-5748982D01*
X8114532Y-5721478D01*
X8183434Y-5733064D01*
X8199093Y-5742140D01*
X8372296Y-5860228D01*
X8372301Y-5860230D01*
X8372302Y-5860231D01*
X8372303Y-5860232D01*
X8495376Y-5919500D01*
X8608673Y-5974061D01*
X8608674Y-5974061D01*
X8608677Y-5974063D01*
X8859385Y-6051396D01*
X9118818Y-6090500D01*
X9381182Y-6090500D01*
X9640615Y-6051396D01*
X9891323Y-5974063D01*
X10127704Y-5860228D01*
X10344479Y-5712433D01*
X10531704Y-5538714D01*
X10536801Y-5533985D01*
X10536801Y-5533983D01*
X10536805Y-5533981D01*
X10700386Y-5328857D01*
X10831568Y-5101643D01*
X10927420Y-4857416D01*
X10985802Y-4601630D01*
X10986844Y-4587727D01*
X11005408Y-4340004D01*
X11005408Y-4339995D01*
X10985803Y-4078379D01*
X10985802Y-4078374D01*
X10985802Y-4078370D01*
X10936479Y-3862272D01*
X17867000Y-3862272D01*
X17867000Y-4087727D01*
X17873775Y-4139181D01*
X17881074Y-4194625D01*
X17882874Y-4208292D01*
X17879899Y-4208683D01*
X17879899Y-4241316D01*
X17882874Y-4241708D01*
X17867000Y-4362272D01*
X17867000Y-4587727D01*
X17876894Y-4662870D01*
X17879715Y-4684303D01*
X17882874Y-4708292D01*
X17879899Y-4708683D01*
X17879899Y-4741316D01*
X17882874Y-4741708D01*
X17867000Y-4862272D01*
X17867000Y-5087727D01*
X17872663Y-5130738D01*
X17879964Y-5186195D01*
X17882874Y-5208292D01*
X17879899Y-5208683D01*
X17879899Y-5241316D01*
X17882874Y-5241708D01*
X17881813Y-5249762D01*
X17881813Y-5249764D01*
X17878438Y-5275393D01*
X17867000Y-5362272D01*
X17867000Y-5587727D01*
X17882874Y-5708292D01*
X17879899Y-5708683D01*
X17879899Y-5741316D01*
X17882874Y-5741708D01*
X17867000Y-5862272D01*
X17867000Y-6087727D01*
X17882874Y-6208292D01*
X17879899Y-6208683D01*
X17879899Y-6241316D01*
X17882874Y-6241708D01*
X17867000Y-6362272D01*
X17867000Y-6587727D01*
X17875577Y-6652868D01*
X17881474Y-6697664D01*
X17882874Y-6708292D01*
X17879899Y-6708683D01*
X17879899Y-6741316D01*
X17882874Y-6741708D01*
X17867000Y-6862272D01*
X17867000Y-7087727D01*
X17876041Y-7156393D01*
X17878999Y-7178865D01*
X17882874Y-7208292D01*
X17879899Y-7208683D01*
X17879899Y-7241316D01*
X17882874Y-7241708D01*
X17867000Y-7362272D01*
X17867000Y-7587727D01*
X17882874Y-7708292D01*
X17879899Y-7708683D01*
X17879899Y-7741316D01*
X17882874Y-7741708D01*
X17867000Y-7862272D01*
X17867000Y-8087727D01*
X17875885Y-8155208D01*
X17880942Y-8193623D01*
X17882874Y-8208292D01*
X17879899Y-8208683D01*
X17879899Y-8241316D01*
X17882874Y-8241708D01*
X17867000Y-8362272D01*
X17867000Y-8587727D01*
X17875069Y-8649010D01*
X17881086Y-8694717D01*
X17882874Y-8708292D01*
X17879899Y-8708683D01*
X17879899Y-8741316D01*
X17882874Y-8741708D01*
X17867000Y-8862272D01*
X17867000Y-9087727D01*
X17882874Y-9208292D01*
X17879899Y-9208683D01*
X17879899Y-9241316D01*
X17882874Y-9241708D01*
X17867000Y-9362272D01*
X17867000Y-9587727D01*
X17881813Y-9700235D01*
X17881813Y-9700236D01*
X17932980Y-9823765D01*
X17939802Y-9840233D01*
X18032049Y-9960451D01*
X18152267Y-10052698D01*
X18292264Y-10110687D01*
X18404780Y-10125500D01*
X18404787Y-10125500D01*
X19743000Y-10125500D01*
X19810039Y-10145185D01*
X19855794Y-10197989D01*
X19867000Y-10249500D01*
X19867000Y-11587727D01*
X19881813Y-11700235D01*
X19881813Y-11700236D01*
X19912285Y-11773803D01*
X19939802Y-11840233D01*
X20032049Y-11960451D01*
X20152267Y-12052698D01*
X20292264Y-12110687D01*
X20399086Y-12124750D01*
X20404764Y-12125498D01*
X20404780Y-12125500D01*
X20404787Y-12125500D01*
X20630213Y-12125500D01*
X20630220Y-12125500D01*
X20742736Y-12110687D01*
X20742736Y-12110686D01*
X20750795Y-12109626D01*
X20751198Y-12112689D01*
X20783802Y-12112689D01*
X20784205Y-12109626D01*
X20792263Y-12110686D01*
X20792264Y-12110687D01*
X20904780Y-12125500D01*
X20904787Y-12125500D01*
X21130213Y-12125500D01*
X21130220Y-12125500D01*
X21242736Y-12110687D01*
X21242736Y-12110686D01*
X21250795Y-12109626D01*
X21251198Y-12112689D01*
X21283802Y-12112689D01*
X21284205Y-12109626D01*
X21292263Y-12110686D01*
X21292264Y-12110687D01*
X21404780Y-12125500D01*
X21404787Y-12125500D01*
X21630213Y-12125500D01*
X21630220Y-12125500D01*
X21742736Y-12110687D01*
X21742736Y-12110686D01*
X21750795Y-12109626D01*
X21751198Y-12112689D01*
X21783802Y-12112689D01*
X21784205Y-12109626D01*
X21792263Y-12110686D01*
X21792264Y-12110687D01*
X21904780Y-12125500D01*
X21904787Y-12125500D01*
X22130213Y-12125500D01*
X22130220Y-12125500D01*
X22242736Y-12110687D01*
X22242736Y-12110686D01*
X22250795Y-12109626D01*
X22251198Y-12112689D01*
X22283802Y-12112689D01*
X22284205Y-12109626D01*
X22292263Y-12110686D01*
X22292264Y-12110687D01*
X22404780Y-12125500D01*
X22404787Y-12125500D01*
X22630213Y-12125500D01*
X22630220Y-12125500D01*
X22742736Y-12110687D01*
X22742736Y-12110686D01*
X22750795Y-12109626D01*
X22751198Y-12112689D01*
X22783802Y-12112689D01*
X22784205Y-12109626D01*
X22792263Y-12110686D01*
X22792264Y-12110687D01*
X22904780Y-12125500D01*
X22904787Y-12125500D01*
X23130213Y-12125500D01*
X23130220Y-12125500D01*
X23242736Y-12110687D01*
X23242736Y-12110686D01*
X23250795Y-12109626D01*
X23251198Y-12112689D01*
X23283802Y-12112689D01*
X23284205Y-12109626D01*
X23292263Y-12110686D01*
X23292264Y-12110687D01*
X23404780Y-12125500D01*
X23404787Y-12125500D01*
X23630213Y-12125500D01*
X23630220Y-12125500D01*
X23742736Y-12110687D01*
X23742736Y-12110686D01*
X23750795Y-12109626D01*
X23751198Y-12112689D01*
X23783802Y-12112689D01*
X23784205Y-12109626D01*
X23792263Y-12110686D01*
X23792264Y-12110687D01*
X23904780Y-12125500D01*
X23904787Y-12125500D01*
X24130213Y-12125500D01*
X24130220Y-12125500D01*
X24242736Y-12110687D01*
X24242736Y-12110686D01*
X24250795Y-12109626D01*
X24251198Y-12112689D01*
X24283802Y-12112689D01*
X24284205Y-12109626D01*
X24292263Y-12110686D01*
X24292264Y-12110687D01*
X24404780Y-12125500D01*
X24404787Y-12125500D01*
X24630213Y-12125500D01*
X24630220Y-12125500D01*
X24742736Y-12110687D01*
X24742736Y-12110686D01*
X24750795Y-12109626D01*
X24751198Y-12112689D01*
X24783802Y-12112689D01*
X24784205Y-12109626D01*
X24792263Y-12110686D01*
X24792264Y-12110687D01*
X24904780Y-12125500D01*
X24904787Y-12125500D01*
X25130213Y-12125500D01*
X25130220Y-12125500D01*
X25242736Y-12110687D01*
X25242736Y-12110686D01*
X25250795Y-12109626D01*
X25251198Y-12112689D01*
X25283802Y-12112689D01*
X25284205Y-12109626D01*
X25292263Y-12110686D01*
X25292264Y-12110687D01*
X25404780Y-12125500D01*
X25404787Y-12125500D01*
X25630213Y-12125500D01*
X25630220Y-12125500D01*
X25742736Y-12110687D01*
X25742736Y-12110686D01*
X25750795Y-12109626D01*
X25751198Y-12112689D01*
X25783802Y-12112689D01*
X25784205Y-12109626D01*
X25792263Y-12110686D01*
X25792264Y-12110687D01*
X25904780Y-12125500D01*
X25904787Y-12125500D01*
X26130213Y-12125500D01*
X26130220Y-12125500D01*
X26242736Y-12110687D01*
X26382733Y-12052698D01*
X26502951Y-11960451D01*
X26595198Y-11840233D01*
X26653187Y-11700236D01*
X26668000Y-11587720D01*
X26668000Y-10249500D01*
X26687685Y-10182461D01*
X26740489Y-10136706D01*
X26792000Y-10125500D01*
X28130213Y-10125500D01*
X28130220Y-10125500D01*
X28242736Y-10110687D01*
X28382733Y-10052698D01*
X28502951Y-9960451D01*
X28595198Y-9840233D01*
X28653187Y-9700236D01*
X28668000Y-9587720D01*
X28668000Y-9362280D01*
X28653187Y-9249764D01*
X28653186Y-9249763D01*
X28652126Y-9241705D01*
X28655189Y-9241301D01*
X28655189Y-9208698D01*
X28652126Y-9208295D01*
X28655907Y-9179573D01*
X28668000Y-9087720D01*
X28668000Y-8862280D01*
X28653187Y-8749764D01*
X28653186Y-8749763D01*
X28652126Y-8741705D01*
X28655189Y-8741301D01*
X28655189Y-8708698D01*
X28652126Y-8708295D01*
X28653284Y-8699500D01*
X28668000Y-8587720D01*
X28668000Y-8465302D01*
X30319500Y-8465302D01*
X30319500Y-8934697D01*
X30322356Y-8970991D01*
X30322357Y-8970997D01*
X30367504Y-9126390D01*
X30367505Y-9126393D01*
X30367506Y-9126395D01*
X30392623Y-9168865D01*
X30449881Y-9265684D01*
X30449887Y-9265692D01*
X30564307Y-9380112D01*
X30564311Y-9380115D01*
X30564313Y-9380117D01*
X30703605Y-9462494D01*
X30744587Y-9474400D01*
X30859002Y-9507642D01*
X30859005Y-9507642D01*
X30859007Y-9507643D01*
X30895310Y-9510500D01*
X30895318Y-9510500D01*
X31304682Y-9510500D01*
X31304690Y-9510500D01*
X31340993Y-9507643D01*
X31340995Y-9507642D01*
X31340997Y-9507642D01*
X31440638Y-9478693D01*
X31496395Y-9462494D01*
X31517369Y-9450089D01*
X31585088Y-9432906D01*
X31643613Y-9450090D01*
X31663803Y-9462031D01*
X31810000Y-9504504D01*
X31810000Y-9504503D01*
X32310000Y-9504503D01*
X32456195Y-9462031D01*
X32595374Y-9379721D01*
X32595383Y-9379714D01*
X32709714Y-9265383D01*
X32709721Y-9265374D01*
X32792031Y-9126195D01*
X32792033Y-9126190D01*
X32837144Y-8970918D01*
X32837145Y-8970912D01*
X32838790Y-8950000D01*
X32310000Y-8950000D01*
X32310000Y-9504503D01*
X31810000Y-9504503D01*
X31810000Y-9198352D01*
X31827267Y-9135233D01*
X31832494Y-9126395D01*
X31833487Y-9122979D01*
X31877642Y-8970997D01*
X31877643Y-8970991D01*
X31879390Y-8948793D01*
X31880500Y-8934690D01*
X31880500Y-8465310D01*
X31880499Y-8465302D01*
X33189500Y-8465302D01*
X33189500Y-8934697D01*
X33192356Y-8970991D01*
X33192357Y-8970997D01*
X33237504Y-9126390D01*
X33237505Y-9126393D01*
X33237506Y-9126395D01*
X33262623Y-9168865D01*
X33319881Y-9265684D01*
X33319887Y-9265692D01*
X33434307Y-9380112D01*
X33434311Y-9380115D01*
X33434313Y-9380117D01*
X33573605Y-9462494D01*
X33614587Y-9474400D01*
X33729002Y-9507642D01*
X33729005Y-9507642D01*
X33729007Y-9507643D01*
X33765310Y-9510500D01*
X33765318Y-9510500D01*
X34174682Y-9510500D01*
X34174690Y-9510500D01*
X34210993Y-9507643D01*
X34210995Y-9507642D01*
X34210997Y-9507642D01*
X34310638Y-9478693D01*
X34366395Y-9462494D01*
X34387369Y-9450089D01*
X34455088Y-9432906D01*
X34513613Y-9450090D01*
X34533803Y-9462031D01*
X34680000Y-9504504D01*
X34680000Y-9504503D01*
X35180000Y-9504503D01*
X35326195Y-9462031D01*
X35465374Y-9379721D01*
X35465383Y-9379714D01*
X35579714Y-9265383D01*
X35579721Y-9265374D01*
X35662031Y-9126195D01*
X35662033Y-9126190D01*
X35667638Y-9106898D01*
X39187000Y-9106898D01*
X39187000Y-9293102D01*
X39191950Y-9334322D01*
X39198061Y-9385217D01*
X39198061Y-9414783D01*
X39195885Y-9432906D01*
X39187000Y-9506898D01*
X39187000Y-9693102D01*
X39192722Y-9740754D01*
X39198061Y-9785217D01*
X39198061Y-9814783D01*
X39196983Y-9823765D01*
X39187000Y-9906898D01*
X39187000Y-10093102D01*
X39190891Y-10125500D01*
X39198061Y-10185217D01*
X39198061Y-10214783D01*
X39192218Y-10263440D01*
X39187000Y-10306898D01*
X39187000Y-10493102D01*
X39192028Y-10534969D01*
X39198314Y-10587321D01*
X39198314Y-10616887D01*
X39187500Y-10706945D01*
X39187500Y-10893054D01*
X39198314Y-10983113D01*
X39198314Y-11012679D01*
X39196294Y-11029500D01*
X39187000Y-11106898D01*
X39187000Y-11293102D01*
X39191993Y-11334682D01*
X39198061Y-11385217D01*
X39198061Y-11414783D01*
X39197290Y-11421207D01*
X39187000Y-11506898D01*
X39187000Y-11693102D01*
X39192722Y-11740754D01*
X39198061Y-11785217D01*
X39198061Y-11814783D01*
X39195006Y-11840229D01*
X39187000Y-11906898D01*
X39187000Y-12093102D01*
X39190891Y-12125500D01*
X39198061Y-12185217D01*
X39198061Y-12214783D01*
X39192595Y-12260304D01*
X39187000Y-12306898D01*
X39187000Y-12493102D01*
X39188672Y-12507023D01*
X39198061Y-12585217D01*
X39198061Y-12614783D01*
X39192218Y-12663440D01*
X39187000Y-12706898D01*
X39187000Y-12893102D01*
X39191752Y-12932671D01*
X39198061Y-12985217D01*
X39198061Y-13014783D01*
X39193917Y-13049295D01*
X39187000Y-13106898D01*
X39187000Y-13293102D01*
X39190168Y-13319482D01*
X39198061Y-13385217D01*
X39198061Y-13414783D01*
X39196466Y-13428068D01*
X39187000Y-13506898D01*
X39187000Y-13693102D01*
X39192722Y-13740754D01*
X39198061Y-13785217D01*
X39198061Y-13814783D01*
X39197278Y-13821307D01*
X39187000Y-13906898D01*
X39187000Y-14093102D01*
X39188715Y-14107382D01*
X39198061Y-14185217D01*
X39198061Y-14214783D01*
X39192218Y-14263440D01*
X39187000Y-14306898D01*
X39187000Y-14493102D01*
X39191519Y-14530731D01*
X39197622Y-14581561D01*
X39197622Y-14581563D01*
X39197623Y-14581564D01*
X39209967Y-14612867D01*
X39253139Y-14722343D01*
X39344577Y-14842922D01*
X39465156Y-14934360D01*
X39465157Y-14934360D01*
X39465158Y-14934361D01*
X39605936Y-14989877D01*
X39694398Y-15000500D01*
X40238000Y-15000500D01*
X40305039Y-15020185D01*
X40350794Y-15072989D01*
X40362000Y-15124500D01*
X40362000Y-15668102D01*
X40365149Y-15694322D01*
X40372622Y-15756561D01*
X40428139Y-15897343D01*
X40519577Y-16017922D01*
X40640156Y-16109360D01*
X40640157Y-16109360D01*
X40640158Y-16109361D01*
X40780936Y-16164877D01*
X40869398Y-16175500D01*
X40869403Y-16175500D01*
X41055603Y-16175500D01*
X41071678Y-16173569D01*
X41144064Y-16164877D01*
X41144065Y-16164876D01*
X41147715Y-16164438D01*
X41177285Y-16164438D01*
X41180934Y-16164876D01*
X41180936Y-16164877D01*
X41253321Y-16173569D01*
X41269397Y-16175500D01*
X41269398Y-16175500D01*
X41455603Y-16175500D01*
X41471678Y-16173569D01*
X41544064Y-16164877D01*
X41544065Y-16164876D01*
X41547715Y-16164438D01*
X41577285Y-16164438D01*
X41580934Y-16164876D01*
X41580936Y-16164877D01*
X41653321Y-16173569D01*
X41669397Y-16175500D01*
X41669398Y-16175500D01*
X41855603Y-16175500D01*
X41871678Y-16173569D01*
X41944064Y-16164877D01*
X41944065Y-16164876D01*
X41947715Y-16164438D01*
X41977285Y-16164438D01*
X41980934Y-16164876D01*
X41980936Y-16164877D01*
X42053321Y-16173569D01*
X42069397Y-16175500D01*
X42069398Y-16175500D01*
X42255603Y-16175500D01*
X42271678Y-16173569D01*
X42344064Y-16164877D01*
X42344065Y-16164876D01*
X42347715Y-16164438D01*
X42377285Y-16164438D01*
X42380934Y-16164876D01*
X42380936Y-16164877D01*
X42453321Y-16173569D01*
X42469397Y-16175500D01*
X42469398Y-16175500D01*
X42655603Y-16175500D01*
X42671678Y-16173569D01*
X42744064Y-16164877D01*
X42744065Y-16164876D01*
X42747715Y-16164438D01*
X42777285Y-16164438D01*
X42780934Y-16164876D01*
X42780936Y-16164877D01*
X42853321Y-16173569D01*
X42869397Y-16175500D01*
X42869398Y-16175500D01*
X43055603Y-16175500D01*
X43071678Y-16173569D01*
X43144064Y-16164877D01*
X43144065Y-16164876D01*
X43147715Y-16164438D01*
X43177285Y-16164438D01*
X43180934Y-16164876D01*
X43180936Y-16164877D01*
X43253321Y-16173569D01*
X43269397Y-16175500D01*
X43269398Y-16175500D01*
X43455603Y-16175500D01*
X43471678Y-16173569D01*
X43544064Y-16164877D01*
X43544065Y-16164876D01*
X43547715Y-16164438D01*
X43577285Y-16164438D01*
X43580934Y-16164876D01*
X43580936Y-16164877D01*
X43653321Y-16173569D01*
X43669397Y-16175500D01*
X43669398Y-16175500D01*
X43855603Y-16175500D01*
X43871678Y-16173569D01*
X43944064Y-16164877D01*
X43944065Y-16164876D01*
X43947715Y-16164438D01*
X43977285Y-16164438D01*
X43980934Y-16164876D01*
X43980936Y-16164877D01*
X44053321Y-16173569D01*
X44069397Y-16175500D01*
X44069398Y-16175500D01*
X44255603Y-16175500D01*
X44271678Y-16173569D01*
X44344064Y-16164877D01*
X44344065Y-16164876D01*
X44347715Y-16164438D01*
X44377285Y-16164438D01*
X44380934Y-16164876D01*
X44380936Y-16164877D01*
X44453321Y-16173569D01*
X44469397Y-16175500D01*
X44469398Y-16175500D01*
X44655603Y-16175500D01*
X44671678Y-16173569D01*
X44744064Y-16164877D01*
X44744065Y-16164876D01*
X44747715Y-16164438D01*
X44777285Y-16164438D01*
X44780934Y-16164876D01*
X44780936Y-16164877D01*
X44853321Y-16173569D01*
X44869397Y-16175500D01*
X44869398Y-16175500D01*
X45055603Y-16175500D01*
X45071678Y-16173569D01*
X45144064Y-16164877D01*
X45144065Y-16164876D01*
X45147715Y-16164438D01*
X45177285Y-16164438D01*
X45180934Y-16164876D01*
X45180936Y-16164877D01*
X45253321Y-16173569D01*
X45269397Y-16175500D01*
X45269398Y-16175500D01*
X45455602Y-16175500D01*
X45544064Y-16164877D01*
X45544066Y-16164876D01*
X45547714Y-16164438D01*
X45577285Y-16164438D01*
X45580934Y-16164876D01*
X45580936Y-16164877D01*
X45600067Y-16167174D01*
X45664281Y-16194711D01*
X45684544Y-16215974D01*
X45754384Y-16309268D01*
X45754388Y-16309272D01*
X45754393Y-16309278D01*
X45794019Y-16348903D01*
X45807471Y-16362355D01*
X45848059Y-16398783D01*
X45971860Y-16472097D01*
X46024204Y-16493727D01*
X46075248Y-16511686D01*
X46217681Y-16532043D01*
X47986486Y-16530561D01*
X48040307Y-16527642D01*
X48179703Y-16492001D01*
X48231967Y-16470327D01*
X48326625Y-16418615D01*
X48431930Y-16320572D01*
X48505348Y-16196832D01*
X48527022Y-16144506D01*
X48545024Y-16093477D01*
X48565500Y-15951061D01*
X48565500Y-13874000D01*
X48562604Y-13819966D01*
X48527022Y-13680555D01*
X48505348Y-13628229D01*
X48505346Y-13628225D01*
X48484917Y-13590811D01*
X53109500Y-13590811D01*
X53109500Y-14089169D01*
X53109501Y-14089191D01*
X53112335Y-14125205D01*
X53157129Y-14279388D01*
X53157131Y-14279393D01*
X53238863Y-14417595D01*
X53238869Y-14417603D01*
X53352396Y-14531130D01*
X53352400Y-14531133D01*
X53352402Y-14531135D01*
X53490607Y-14612869D01*
X53531268Y-14624682D01*
X53644791Y-14657664D01*
X53644794Y-14657664D01*
X53644796Y-14657665D01*
X53680819Y-14660500D01*
X54079180Y-14660499D01*
X54115204Y-14657665D01*
X54269393Y-14612869D01*
X54327369Y-14578581D01*
X54395093Y-14561398D01*
X54453612Y-14578581D01*
X54510805Y-14612404D01*
X54650000Y-14652844D01*
X54650000Y-14652843D01*
X55150000Y-14652843D01*
X55289194Y-14612404D01*
X55427285Y-14530738D01*
X55427294Y-14530731D01*
X55540731Y-14417294D01*
X55540738Y-14417285D01*
X55622406Y-14279191D01*
X55622407Y-14279188D01*
X55667166Y-14125128D01*
X55667167Y-14125122D01*
X55669931Y-14090000D01*
X55150000Y-14090000D01*
X55150000Y-14652843D01*
X54650000Y-14652843D01*
X54650000Y-14100408D01*
X54650382Y-14090679D01*
X54650500Y-14089181D01*
X54650499Y-13590820D01*
X54650434Y-13590000D01*
X54650382Y-13589332D01*
X54650000Y-13579607D01*
X54650000Y-13027154D01*
X55150000Y-13027154D01*
X55150000Y-13590000D01*
X55669931Y-13590000D01*
X55667167Y-13554877D01*
X55667166Y-13554871D01*
X55622407Y-13400811D01*
X55622406Y-13400808D01*
X55540738Y-13262714D01*
X55540731Y-13262705D01*
X55427294Y-13149268D01*
X55427285Y-13149261D01*
X55289191Y-13067593D01*
X55289188Y-13067591D01*
X55200987Y-13041966D01*
X64949500Y-13041966D01*
X64949500Y-15958028D01*
X64949501Y-15958034D01*
X64960113Y-16077415D01*
X65016089Y-16273045D01*
X65016090Y-16273048D01*
X65016091Y-16273049D01*
X65110302Y-16453407D01*
X65124102Y-16470331D01*
X65238890Y-16611109D01*
X65332803Y-16687684D01*
X65396593Y-16739698D01*
X65576951Y-16833909D01*
X65772582Y-16889886D01*
X65891963Y-16900500D01*
X67008036Y-16900499D01*
X67127418Y-16889886D01*
X67323049Y-16833909D01*
X67503407Y-16739698D01*
X67661109Y-16611109D01*
X67789698Y-16453407D01*
X67883909Y-16273049D01*
X67939886Y-16077418D01*
X67950500Y-15958037D01*
X67950499Y-13041964D01*
X67939886Y-12922582D01*
X67883909Y-12726951D01*
X67789698Y-12546593D01*
X67698459Y-12434697D01*
X67661109Y-12388890D01*
X67503409Y-12260304D01*
X67503410Y-12260304D01*
X67503407Y-12260302D01*
X67323049Y-12166091D01*
X67323048Y-12166090D01*
X67323045Y-12166089D01*
X67205829Y-12132550D01*
X67127418Y-12110114D01*
X67127415Y-12110113D01*
X67127413Y-12110113D01*
X67061102Y-12104217D01*
X67008037Y-12099500D01*
X67008032Y-12099500D01*
X65891971Y-12099500D01*
X65891965Y-12099500D01*
X65891964Y-12099501D01*
X65881525Y-12100429D01*
X65772584Y-12110113D01*
X65576954Y-12166089D01*
X65547329Y-12181564D01*
X65396593Y-12260302D01*
X65396591Y-12260303D01*
X65396590Y-12260304D01*
X65238890Y-12388890D01*
X65110304Y-12546590D01*
X65110302Y-12546593D01*
X65068620Y-12626389D01*
X65016089Y-12726954D01*
X64975613Y-12868416D01*
X64961788Y-12916734D01*
X64960114Y-12922583D01*
X64960113Y-12922586D01*
X64949500Y-13041966D01*
X55200987Y-13041966D01*
X55150001Y-13027153D01*
X55150000Y-13027154D01*
X54650000Y-13027154D01*
X54649998Y-13027153D01*
X54510811Y-13067591D01*
X54510810Y-13067592D01*
X54453611Y-13101419D01*
X54385886Y-13118600D01*
X54327371Y-13101419D01*
X54270174Y-13067593D01*
X54269393Y-13067131D01*
X54269392Y-13067130D01*
X54269391Y-13067130D01*
X54269388Y-13067129D01*
X54115208Y-13022335D01*
X54115202Y-13022334D01*
X54079181Y-13019500D01*
X53680830Y-13019500D01*
X53680808Y-13019501D01*
X53644794Y-13022335D01*
X53490611Y-13067129D01*
X53490606Y-13067131D01*
X53352404Y-13148863D01*
X53352396Y-13148869D01*
X53238869Y-13262396D01*
X53238863Y-13262404D01*
X53157131Y-13400606D01*
X53157129Y-13400611D01*
X53112335Y-13554791D01*
X53112334Y-13554797D01*
X53109500Y-13590811D01*
X48484917Y-13590811D01*
X48453554Y-13533374D01*
X48355509Y-13428068D01*
X48231776Y-13354654D01*
X48179453Y-13332981D01*
X48179447Y-13332979D01*
X48179445Y-13332978D01*
X48128416Y-13314976D01*
X48128414Y-13314975D01*
X48128413Y-13314975D01*
X48044352Y-13302889D01*
X47980797Y-13273863D01*
X47943023Y-13215085D01*
X47938000Y-13180151D01*
X47938000Y-13106897D01*
X47926939Y-13014789D01*
X47926938Y-12985222D01*
X47929667Y-12962494D01*
X47930412Y-12956287D01*
X47957948Y-12892073D01*
X47965847Y-12883389D01*
X48012417Y-12836819D01*
X48073740Y-12803334D01*
X48100098Y-12800500D01*
X48853334Y-12800500D01*
X48920373Y-12820185D01*
X48941016Y-12836820D01*
X48984307Y-12880112D01*
X48984311Y-12880115D01*
X48984313Y-12880117D01*
X49123605Y-12962494D01*
X49158083Y-12972511D01*
X49279002Y-13007642D01*
X49279005Y-13007642D01*
X49279007Y-13007643D01*
X49315310Y-13010500D01*
X49315318Y-13010500D01*
X49724682Y-13010500D01*
X49724690Y-13010500D01*
X49760993Y-13007643D01*
X49760995Y-13007642D01*
X49760997Y-13007642D01*
X49801975Y-12995736D01*
X49916395Y-12962494D01*
X49937369Y-12950089D01*
X50005088Y-12932906D01*
X50063613Y-12950090D01*
X50083803Y-12962031D01*
X50230000Y-13004504D01*
X50230000Y-13004503D01*
X50730000Y-13004503D01*
X50876195Y-12962031D01*
X51015374Y-12879721D01*
X51015383Y-12879714D01*
X51129714Y-12765383D01*
X51129721Y-12765374D01*
X51212031Y-12626195D01*
X51212033Y-12626190D01*
X51257144Y-12470918D01*
X51257145Y-12470912D01*
X51258790Y-12450000D01*
X50730000Y-12450000D01*
X50730000Y-13004503D01*
X50230000Y-13004503D01*
X50230000Y-12698352D01*
X50247267Y-12635233D01*
X50252494Y-12626395D01*
X50253519Y-12622869D01*
X50297642Y-12470997D01*
X50297643Y-12470991D01*
X50300499Y-12434697D01*
X50300500Y-12434690D01*
X50300500Y-11965310D01*
X50299295Y-11950000D01*
X50730000Y-11950000D01*
X51258790Y-11950000D01*
X51257145Y-11929089D01*
X51212031Y-11773803D01*
X51212030Y-11773801D01*
X51176144Y-11713122D01*
X51158960Y-11645398D01*
X51172053Y-11600811D01*
X53109500Y-11600811D01*
X53109500Y-12099169D01*
X53109501Y-12099191D01*
X53112335Y-12135205D01*
X53157129Y-12289388D01*
X53157131Y-12289393D01*
X53238863Y-12427595D01*
X53238869Y-12427603D01*
X53352396Y-12541130D01*
X53352400Y-12541133D01*
X53352402Y-12541135D01*
X53490607Y-12622869D01*
X53502723Y-12626389D01*
X53644791Y-12667664D01*
X53644794Y-12667664D01*
X53644796Y-12667665D01*
X53680819Y-12670500D01*
X54079180Y-12670499D01*
X54115204Y-12667665D01*
X54269393Y-12622869D01*
X54326882Y-12588869D01*
X54394602Y-12571688D01*
X54453117Y-12588869D01*
X54510607Y-12622869D01*
X54510610Y-12622869D01*
X54510612Y-12622871D01*
X54664791Y-12667664D01*
X54664794Y-12667664D01*
X54664796Y-12667665D01*
X54700819Y-12670500D01*
X55099180Y-12670499D01*
X55135204Y-12667665D01*
X55289393Y-12622869D01*
X55427598Y-12541135D01*
X55541135Y-12427598D01*
X55622869Y-12289393D01*
X55667665Y-12135204D01*
X55670500Y-12099181D01*
X55670499Y-11748879D01*
X71249500Y-11748879D01*
X71249500Y-12651122D01*
X71249501Y-12651125D01*
X71252399Y-12693886D01*
X71252399Y-12693887D01*
X71298360Y-12878696D01*
X71382967Y-13049292D01*
X71382969Y-13049295D01*
X71502277Y-13197721D01*
X71502278Y-13197722D01*
X71571486Y-13253353D01*
X71611405Y-13310696D01*
X71613985Y-13380518D01*
X71578406Y-13440651D01*
X71571486Y-13446647D01*
X71502278Y-13502277D01*
X71502277Y-13502278D01*
X71382969Y-13650704D01*
X71382967Y-13650707D01*
X71298360Y-13821302D01*
X71252400Y-14006107D01*
X71249500Y-14048879D01*
X71249500Y-14951122D01*
X71249501Y-14951125D01*
X71252399Y-14993886D01*
X71252399Y-14993887D01*
X71271851Y-15072102D01*
X71289387Y-15142618D01*
X71298360Y-15178696D01*
X71382967Y-15349292D01*
X71382969Y-15349295D01*
X71502277Y-15497721D01*
X71502278Y-15497722D01*
X71571884Y-15553673D01*
X71611803Y-15611016D01*
X71614383Y-15680838D01*
X71578804Y-15740971D01*
X71571885Y-15746967D01*
X71502631Y-15802635D01*
X71383392Y-15950974D01*
X71383390Y-15950977D01*
X71298831Y-16121476D01*
X71252897Y-16306175D01*
X71250000Y-16348903D01*
X71250000Y-16550000D01*
X74250000Y-16550000D01*
X74250000Y-16348903D01*
X74247102Y-16306175D01*
X74201168Y-16121476D01*
X74116609Y-15950977D01*
X74116607Y-15950974D01*
X73997367Y-15802633D01*
X73997366Y-15802632D01*
X73928115Y-15746967D01*
X73888196Y-15689624D01*
X73885616Y-15619802D01*
X73921194Y-15559669D01*
X73928089Y-15553694D01*
X73997722Y-15497722D01*
X74117030Y-15349296D01*
X74201641Y-15178693D01*
X74247600Y-14993889D01*
X74250500Y-14951123D01*
X74250499Y-14048878D01*
X74247600Y-14006111D01*
X74201641Y-13821307D01*
X74174717Y-13767020D01*
X74117032Y-13650707D01*
X74117030Y-13650704D01*
X73997722Y-13502278D01*
X73997721Y-13502277D01*
X73928514Y-13446647D01*
X73888595Y-13389304D01*
X73886015Y-13319482D01*
X73921594Y-13259349D01*
X73928514Y-13253353D01*
X73976121Y-13215085D01*
X73997722Y-13197722D01*
X74117030Y-13049296D01*
X74201641Y-12878693D01*
X74247600Y-12693889D01*
X74250500Y-12651123D01*
X74250499Y-11748878D01*
X74247600Y-11706111D01*
X74201641Y-11521307D01*
X74168268Y-11454016D01*
X74117032Y-11350707D01*
X74117030Y-11350704D01*
X73997722Y-11202278D01*
X73997721Y-11202277D01*
X73849295Y-11082969D01*
X73849292Y-11082967D01*
X73678697Y-10998360D01*
X73493892Y-10952400D01*
X73472506Y-10950950D01*
X73451123Y-10949500D01*
X73451120Y-10949500D01*
X72048877Y-10949500D01*
X72048874Y-10949501D01*
X72006113Y-10952399D01*
X72006112Y-10952399D01*
X71821303Y-10998360D01*
X71650707Y-11082967D01*
X71650704Y-11082969D01*
X71502278Y-11202277D01*
X71502277Y-11202278D01*
X71382969Y-11350704D01*
X71382967Y-11350707D01*
X71298360Y-11521302D01*
X71252400Y-11706107D01*
X71249500Y-11748879D01*
X55670499Y-11748879D01*
X55670499Y-11600820D01*
X55667665Y-11564796D01*
X55622869Y-11410607D01*
X55541135Y-11272402D01*
X55541133Y-11272400D01*
X55541130Y-11272396D01*
X55427603Y-11158869D01*
X55427595Y-11158863D01*
X55289393Y-11077131D01*
X55289388Y-11077129D01*
X55135208Y-11032335D01*
X55135202Y-11032334D01*
X55099181Y-11029500D01*
X54700830Y-11029500D01*
X54700808Y-11029501D01*
X54664794Y-11032335D01*
X54510611Y-11077129D01*
X54510604Y-11077132D01*
X54453119Y-11111128D01*
X54385395Y-11128309D01*
X54326881Y-11111128D01*
X54269395Y-11077132D01*
X54269388Y-11077129D01*
X54115208Y-11032335D01*
X54115202Y-11032334D01*
X54079181Y-11029500D01*
X53680830Y-11029500D01*
X53680808Y-11029501D01*
X53644794Y-11032335D01*
X53490611Y-11077129D01*
X53490606Y-11077131D01*
X53352404Y-11158863D01*
X53352396Y-11158869D01*
X53238869Y-11272396D01*
X53238863Y-11272404D01*
X53157131Y-11410606D01*
X53157129Y-11410611D01*
X53112335Y-11564791D01*
X53112334Y-11564797D01*
X53109500Y-11600811D01*
X51172053Y-11600811D01*
X51176144Y-11586878D01*
X51212030Y-11526198D01*
X51257145Y-11370910D01*
X51258790Y-11350000D01*
X50730000Y-11350000D01*
X50730000Y-11950000D01*
X50299295Y-11950000D01*
X50297643Y-11929007D01*
X50294481Y-11918124D01*
X50252495Y-11773608D01*
X50252492Y-11773600D01*
X50247266Y-11764763D01*
X50230000Y-11701645D01*
X50230000Y-11598352D01*
X50247267Y-11535233D01*
X50252494Y-11526395D01*
X50253974Y-11521303D01*
X50297642Y-11370997D01*
X50297643Y-11370991D01*
X50300500Y-11334690D01*
X50300500Y-10865310D01*
X50297643Y-10829007D01*
X50294259Y-10817361D01*
X50252495Y-10673608D01*
X50252492Y-10673600D01*
X50247266Y-10664763D01*
X50230000Y-10601645D01*
X50230000Y-10295494D01*
X50730000Y-10295494D01*
X50730000Y-10850000D01*
X51258790Y-10850000D01*
X51257145Y-10829089D01*
X51212031Y-10673804D01*
X51129721Y-10534625D01*
X51129714Y-10534616D01*
X51015383Y-10420285D01*
X51015374Y-10420278D01*
X50876193Y-10337967D01*
X50876190Y-10337965D01*
X50730001Y-10295493D01*
X50730000Y-10295494D01*
X50230000Y-10295494D01*
X50229998Y-10295493D01*
X50083809Y-10337965D01*
X50083806Y-10337967D01*
X50063608Y-10349912D01*
X49995884Y-10367092D01*
X49937370Y-10349910D01*
X49916397Y-10337507D01*
X49916390Y-10337504D01*
X49760997Y-10292357D01*
X49760991Y-10292356D01*
X49724697Y-10289500D01*
X49724690Y-10289500D01*
X49315310Y-10289500D01*
X49315302Y-10289500D01*
X49279008Y-10292356D01*
X49279002Y-10292357D01*
X49123609Y-10337504D01*
X49123606Y-10337505D01*
X48984315Y-10419881D01*
X48984307Y-10419887D01*
X48869887Y-10534307D01*
X48869880Y-10534316D01*
X48855895Y-10557964D01*
X48811166Y-10602227D01*
X48781287Y-10619478D01*
X48781285Y-10619479D01*
X48619376Y-10781387D01*
X48558052Y-10814871D01*
X48511262Y-10814635D01*
X48511175Y-10815411D01*
X48325004Y-10794435D01*
X48324996Y-10794435D01*
X48145750Y-10814630D01*
X48145738Y-10814633D01*
X48102953Y-10829604D01*
X48033174Y-10833165D01*
X47972547Y-10798435D01*
X47940321Y-10736441D01*
X47938000Y-10712562D01*
X47938000Y-10706897D01*
X47934650Y-10679000D01*
X47927377Y-10618436D01*
X47927376Y-10618434D01*
X47926938Y-10614785D01*
X47926938Y-10585215D01*
X47927376Y-10581565D01*
X47927377Y-10581564D01*
X47938000Y-10493102D01*
X47938000Y-10306898D01*
X47927377Y-10218436D01*
X47927376Y-10218434D01*
X47926938Y-10214785D01*
X47926938Y-10185215D01*
X47927376Y-10181565D01*
X47927377Y-10181564D01*
X47938000Y-10093102D01*
X47938000Y-9906898D01*
X47927377Y-9818436D01*
X47927376Y-9818434D01*
X47926938Y-9814785D01*
X47926938Y-9785215D01*
X47927376Y-9781565D01*
X47927377Y-9781564D01*
X47938000Y-9693102D01*
X47938000Y-9610811D01*
X53109500Y-9610811D01*
X53109500Y-10109169D01*
X53109501Y-10109191D01*
X53112335Y-10145205D01*
X53157129Y-10299388D01*
X53157131Y-10299393D01*
X53238863Y-10437595D01*
X53238869Y-10437603D01*
X53352396Y-10551130D01*
X53352400Y-10551133D01*
X53352402Y-10551135D01*
X53490607Y-10632869D01*
X53508695Y-10638124D01*
X53644791Y-10677664D01*
X53644794Y-10677664D01*
X53644796Y-10677665D01*
X53680819Y-10680500D01*
X54079180Y-10680499D01*
X54115204Y-10677665D01*
X54269393Y-10632869D01*
X54326882Y-10598869D01*
X54394602Y-10581688D01*
X54453117Y-10598869D01*
X54510607Y-10632869D01*
X54510610Y-10632869D01*
X54510612Y-10632871D01*
X54664791Y-10677664D01*
X54664794Y-10677664D01*
X54664796Y-10677665D01*
X54700819Y-10680500D01*
X55099180Y-10680499D01*
X55135204Y-10677665D01*
X55289393Y-10632869D01*
X55427598Y-10551135D01*
X55541135Y-10437598D01*
X55622869Y-10299393D01*
X55667665Y-10145204D01*
X55670500Y-10109181D01*
X55670499Y-9610820D01*
X55667665Y-9574796D01*
X55622869Y-9420607D01*
X55542256Y-9284298D01*
X57594500Y-9284298D01*
X57594500Y-10715701D01*
X57597401Y-10752567D01*
X57597402Y-10752573D01*
X57643254Y-10910393D01*
X57643255Y-10910396D01*
X57643256Y-10910398D01*
X57680681Y-10973681D01*
X57726917Y-11051862D01*
X57726923Y-11051870D01*
X57843129Y-11168076D01*
X57843133Y-11168079D01*
X57843135Y-11168081D01*
X57984602Y-11251744D01*
X58026224Y-11263836D01*
X58142426Y-11297597D01*
X58142429Y-11297597D01*
X58142431Y-11297598D01*
X58179306Y-11300500D01*
X58179314Y-11300500D01*
X58610686Y-11300500D01*
X58610694Y-11300500D01*
X58647569Y-11297598D01*
X58647571Y-11297597D01*
X58647573Y-11297597D01*
X58734293Y-11272402D01*
X58805398Y-11251744D01*
X58946865Y-11168081D01*
X58946870Y-11168075D01*
X58953031Y-11163298D01*
X58954933Y-11165750D01*
X59003579Y-11139155D01*
X59073274Y-11144104D01*
X59105695Y-11164940D01*
X59106969Y-11163298D01*
X59113132Y-11168078D01*
X59113135Y-11168081D01*
X59254602Y-11251744D01*
X59296224Y-11263836D01*
X59412426Y-11297597D01*
X59412429Y-11297597D01*
X59412431Y-11297598D01*
X59449306Y-11300500D01*
X59449314Y-11300500D01*
X59880686Y-11300500D01*
X59880694Y-11300500D01*
X59917569Y-11297598D01*
X59917571Y-11297597D01*
X59917573Y-11297597D01*
X60004293Y-11272402D01*
X60075398Y-11251744D01*
X60216865Y-11168081D01*
X60216870Y-11168075D01*
X60223031Y-11163298D01*
X60224933Y-11165750D01*
X60273579Y-11139155D01*
X60343274Y-11144104D01*
X60375695Y-11164940D01*
X60376969Y-11163298D01*
X60383132Y-11168078D01*
X60383135Y-11168081D01*
X60524602Y-11251744D01*
X60566224Y-11263836D01*
X60682426Y-11297597D01*
X60682429Y-11297597D01*
X60682431Y-11297598D01*
X60719306Y-11300500D01*
X60719314Y-11300500D01*
X61150686Y-11300500D01*
X61150694Y-11300500D01*
X61187569Y-11297598D01*
X61187571Y-11297597D01*
X61187573Y-11297597D01*
X61274293Y-11272402D01*
X61345398Y-11251744D01*
X61486865Y-11168081D01*
X61486870Y-11168075D01*
X61493031Y-11163298D01*
X61494933Y-11165750D01*
X61543579Y-11139155D01*
X61613274Y-11144104D01*
X61645695Y-11164940D01*
X61646969Y-11163298D01*
X61653132Y-11168078D01*
X61653135Y-11168081D01*
X61794602Y-11251744D01*
X61836224Y-11263836D01*
X61952426Y-11297597D01*
X61952429Y-11297597D01*
X61952431Y-11297598D01*
X61989306Y-11300500D01*
X61989314Y-11300500D01*
X62420686Y-11300500D01*
X62420694Y-11300500D01*
X62457569Y-11297598D01*
X62457571Y-11297597D01*
X62457573Y-11297597D01*
X62544293Y-11272402D01*
X62615398Y-11251744D01*
X62756865Y-11168081D01*
X62873081Y-11051865D01*
X62956744Y-10910398D01*
X63002598Y-10752569D01*
X63005500Y-10715694D01*
X63005500Y-9284306D01*
X63002598Y-9247431D01*
X63002121Y-9245790D01*
X62961769Y-9106898D01*
X62956744Y-9089602D01*
X62873081Y-8948135D01*
X62873079Y-8948133D01*
X62873076Y-8948129D01*
X62756870Y-8831923D01*
X62756862Y-8831917D01*
X62630315Y-8757078D01*
X62615398Y-8748256D01*
X62615397Y-8748255D01*
X62615396Y-8748255D01*
X62615393Y-8748254D01*
X62457573Y-8702402D01*
X62457567Y-8702401D01*
X62420701Y-8699500D01*
X62420694Y-8699500D01*
X61989306Y-8699500D01*
X61989298Y-8699500D01*
X61952432Y-8702401D01*
X61952426Y-8702402D01*
X61794606Y-8748254D01*
X61794603Y-8748255D01*
X61653137Y-8831917D01*
X61646969Y-8836702D01*
X61645072Y-8834256D01*
X61596358Y-8860857D01*
X61526666Y-8855873D01*
X61494296Y-8835069D01*
X61493031Y-8836702D01*
X61486862Y-8831917D01*
X61360315Y-8757078D01*
X61345398Y-8748256D01*
X61345397Y-8748255D01*
X61345396Y-8748255D01*
X61345393Y-8748254D01*
X61187573Y-8702402D01*
X61187567Y-8702401D01*
X61150701Y-8699500D01*
X61150694Y-8699500D01*
X60719306Y-8699500D01*
X60719298Y-8699500D01*
X60682432Y-8702401D01*
X60682426Y-8702402D01*
X60524606Y-8748254D01*
X60524603Y-8748255D01*
X60383137Y-8831917D01*
X60376969Y-8836702D01*
X60375072Y-8834256D01*
X60326358Y-8860857D01*
X60256666Y-8855873D01*
X60224296Y-8835069D01*
X60223031Y-8836702D01*
X60216862Y-8831917D01*
X60090315Y-8757078D01*
X60075398Y-8748256D01*
X60075397Y-8748255D01*
X60075396Y-8748255D01*
X60075393Y-8748254D01*
X59917573Y-8702402D01*
X59917567Y-8702401D01*
X59880701Y-8699500D01*
X59880694Y-8699500D01*
X59449306Y-8699500D01*
X59449298Y-8699500D01*
X59412432Y-8702401D01*
X59412426Y-8702402D01*
X59254606Y-8748254D01*
X59254603Y-8748255D01*
X59113137Y-8831917D01*
X59106969Y-8836702D01*
X59105072Y-8834256D01*
X59056358Y-8860857D01*
X58986666Y-8855873D01*
X58954296Y-8835069D01*
X58953031Y-8836702D01*
X58946862Y-8831917D01*
X58820315Y-8757078D01*
X58805398Y-8748256D01*
X58805397Y-8748255D01*
X58805396Y-8748255D01*
X58805393Y-8748254D01*
X58647573Y-8702402D01*
X58647567Y-8702401D01*
X58610701Y-8699500D01*
X58610694Y-8699500D01*
X58179306Y-8699500D01*
X58179298Y-8699500D01*
X58142432Y-8702401D01*
X58142426Y-8702402D01*
X57984606Y-8748254D01*
X57984603Y-8748255D01*
X57843137Y-8831917D01*
X57843129Y-8831923D01*
X57726923Y-8948129D01*
X57726917Y-8948137D01*
X57643255Y-9089603D01*
X57643254Y-9089606D01*
X57597402Y-9247426D01*
X57597401Y-9247432D01*
X57594500Y-9284298D01*
X55542256Y-9284298D01*
X55541135Y-9282402D01*
X55541133Y-9282400D01*
X55541130Y-9282396D01*
X55427603Y-9168869D01*
X55427595Y-9168863D01*
X55289393Y-9087131D01*
X55289388Y-9087129D01*
X55135208Y-9042335D01*
X55135202Y-9042334D01*
X55099181Y-9039500D01*
X54700830Y-9039500D01*
X54700808Y-9039501D01*
X54664794Y-9042335D01*
X54510611Y-9087129D01*
X54510604Y-9087132D01*
X54453119Y-9121128D01*
X54385395Y-9138309D01*
X54326881Y-9121128D01*
X54269395Y-9087132D01*
X54269388Y-9087129D01*
X54115208Y-9042335D01*
X54115202Y-9042334D01*
X54079181Y-9039500D01*
X53680830Y-9039500D01*
X53680808Y-9039501D01*
X53644794Y-9042335D01*
X53490611Y-9087129D01*
X53490606Y-9087131D01*
X53352404Y-9168863D01*
X53352396Y-9168869D01*
X53238869Y-9282396D01*
X53238863Y-9282404D01*
X53157131Y-9420606D01*
X53157129Y-9420611D01*
X53112335Y-9574791D01*
X53112334Y-9574797D01*
X53109500Y-9610811D01*
X47938000Y-9610811D01*
X47938000Y-9506898D01*
X47927377Y-9418436D01*
X47927376Y-9418434D01*
X47926938Y-9414785D01*
X47926938Y-9385215D01*
X47927376Y-9381565D01*
X47927377Y-9381564D01*
X47938000Y-9293102D01*
X47938000Y-9106898D01*
X47927377Y-9018436D01*
X47871861Y-8877658D01*
X47871860Y-8877657D01*
X47871860Y-8877656D01*
X47780422Y-8757077D01*
X47659843Y-8665639D01*
X47533670Y-8615883D01*
X47519064Y-8610123D01*
X47519063Y-8610122D01*
X47519061Y-8610122D01*
X47473426Y-8604642D01*
X47430602Y-8599500D01*
X47430597Y-8599500D01*
X46887000Y-8599500D01*
X46819961Y-8579815D01*
X46774206Y-8527011D01*
X46763000Y-8475500D01*
X46763000Y-7931903D01*
X46763000Y-7931898D01*
X46752377Y-7843436D01*
X46696861Y-7702658D01*
X46696860Y-7702657D01*
X46696860Y-7702656D01*
X46605422Y-7582077D01*
X46484843Y-7490639D01*
X46362499Y-7442393D01*
X46344064Y-7435123D01*
X46344063Y-7435122D01*
X46344061Y-7435122D01*
X46298426Y-7429642D01*
X46255602Y-7424500D01*
X46069398Y-7424500D01*
X46025940Y-7429718D01*
X45977283Y-7435561D01*
X45947717Y-7435561D01*
X45899059Y-7429718D01*
X45855602Y-7424500D01*
X45669398Y-7424500D01*
X45625940Y-7429718D01*
X45577283Y-7435561D01*
X45547717Y-7435561D01*
X45499059Y-7429718D01*
X45455602Y-7424500D01*
X45269398Y-7424500D01*
X45225940Y-7429718D01*
X45177283Y-7435561D01*
X45147717Y-7435561D01*
X45099059Y-7429718D01*
X45055602Y-7424500D01*
X44869398Y-7424500D01*
X44825940Y-7429718D01*
X44777283Y-7435561D01*
X44747717Y-7435561D01*
X44699059Y-7429718D01*
X44655602Y-7424500D01*
X44469398Y-7424500D01*
X44425940Y-7429718D01*
X44377283Y-7435561D01*
X44347717Y-7435561D01*
X44299059Y-7429718D01*
X44255602Y-7424500D01*
X44069398Y-7424500D01*
X44025940Y-7429718D01*
X43977283Y-7435561D01*
X43947717Y-7435561D01*
X43899059Y-7429718D01*
X43855602Y-7424500D01*
X43669398Y-7424500D01*
X43625940Y-7429718D01*
X43577283Y-7435561D01*
X43547717Y-7435561D01*
X43499059Y-7429718D01*
X43455602Y-7424500D01*
X43269398Y-7424500D01*
X43225940Y-7429718D01*
X43177283Y-7435561D01*
X43147717Y-7435561D01*
X43099059Y-7429718D01*
X43055602Y-7424500D01*
X42869398Y-7424500D01*
X42825940Y-7429718D01*
X42777283Y-7435561D01*
X42747717Y-7435561D01*
X42699059Y-7429718D01*
X42655602Y-7424500D01*
X42469398Y-7424500D01*
X42425940Y-7429718D01*
X42377283Y-7435561D01*
X42347717Y-7435561D01*
X42299059Y-7429718D01*
X42255602Y-7424500D01*
X42069398Y-7424500D01*
X42025940Y-7429718D01*
X41977283Y-7435561D01*
X41947717Y-7435561D01*
X41899059Y-7429718D01*
X41855602Y-7424500D01*
X41669398Y-7424500D01*
X41625940Y-7429718D01*
X41577283Y-7435561D01*
X41547717Y-7435561D01*
X41499059Y-7429718D01*
X41455602Y-7424500D01*
X41269398Y-7424500D01*
X41225940Y-7429718D01*
X41177283Y-7435561D01*
X41147717Y-7435561D01*
X41099059Y-7429718D01*
X41055602Y-7424500D01*
X40869398Y-7424500D01*
X40830353Y-7429188D01*
X40780938Y-7435122D01*
X40640156Y-7490639D01*
X40519577Y-7582077D01*
X40428139Y-7702656D01*
X40372622Y-7843438D01*
X40370361Y-7862270D01*
X40362000Y-7931898D01*
X40362000Y-7931903D01*
X40362000Y-8475500D01*
X40342315Y-8542539D01*
X40289511Y-8588294D01*
X40238000Y-8599500D01*
X39694398Y-8599500D01*
X39655353Y-8604188D01*
X39605938Y-8610122D01*
X39465156Y-8665639D01*
X39344577Y-8757077D01*
X39253139Y-8877656D01*
X39197622Y-9018438D01*
X39193353Y-9053994D01*
X39187000Y-9106898D01*
X35667638Y-9106898D01*
X35707144Y-8970918D01*
X35707145Y-8970912D01*
X35708790Y-8950000D01*
X35180000Y-8950000D01*
X35180000Y-9504503D01*
X34680000Y-9504503D01*
X34680000Y-9198352D01*
X34697267Y-9135233D01*
X34702494Y-9126395D01*
X34703487Y-9122979D01*
X34747642Y-8970997D01*
X34747643Y-8970991D01*
X34749390Y-8948793D01*
X34750500Y-8934690D01*
X34750500Y-8465310D01*
X34747643Y-8429007D01*
X34729834Y-8367710D01*
X34702495Y-8273608D01*
X34702492Y-8273600D01*
X34697266Y-8264763D01*
X34680000Y-8201645D01*
X34680000Y-7895494D01*
X35180000Y-7895494D01*
X35180000Y-8450000D01*
X35708790Y-8450000D01*
X35707145Y-8429089D01*
X35662031Y-8273804D01*
X35579721Y-8134625D01*
X35579714Y-8134616D01*
X35465383Y-8020285D01*
X35465374Y-8020278D01*
X35326193Y-7937967D01*
X35326190Y-7937965D01*
X35180001Y-7895493D01*
X35180000Y-7895494D01*
X34680000Y-7895494D01*
X34679998Y-7895493D01*
X34533809Y-7937965D01*
X34533806Y-7937967D01*
X34513608Y-7949912D01*
X34445884Y-7967092D01*
X34387370Y-7949910D01*
X34366397Y-7937507D01*
X34366390Y-7937504D01*
X34210997Y-7892357D01*
X34210991Y-7892356D01*
X34174697Y-7889500D01*
X34174690Y-7889500D01*
X33765310Y-7889500D01*
X33765302Y-7889500D01*
X33729008Y-7892356D01*
X33729002Y-7892357D01*
X33573609Y-7937504D01*
X33573606Y-7937505D01*
X33434315Y-8019881D01*
X33434307Y-8019887D01*
X33319887Y-8134307D01*
X33319881Y-8134315D01*
X33237505Y-8273606D01*
X33237504Y-8273609D01*
X33192357Y-8429002D01*
X33192356Y-8429008D01*
X33189500Y-8465302D01*
X31880499Y-8465302D01*
X31877643Y-8429007D01*
X31859834Y-8367710D01*
X31832495Y-8273608D01*
X31832492Y-8273600D01*
X31827266Y-8264763D01*
X31810000Y-8201645D01*
X31810000Y-7895494D01*
X32310000Y-7895494D01*
X32310000Y-8450000D01*
X32838790Y-8450000D01*
X32837145Y-8429089D01*
X32792031Y-8273804D01*
X32709721Y-8134625D01*
X32709714Y-8134616D01*
X32595383Y-8020285D01*
X32595374Y-8020278D01*
X32456193Y-7937967D01*
X32456190Y-7937965D01*
X32310001Y-7895493D01*
X32310000Y-7895494D01*
X31810000Y-7895494D01*
X31809998Y-7895493D01*
X31663809Y-7937965D01*
X31663806Y-7937967D01*
X31643608Y-7949912D01*
X31575884Y-7967092D01*
X31517370Y-7949910D01*
X31496397Y-7937507D01*
X31496390Y-7937504D01*
X31340997Y-7892357D01*
X31340991Y-7892356D01*
X31304697Y-7889500D01*
X31304690Y-7889500D01*
X30895310Y-7889500D01*
X30895302Y-7889500D01*
X30859008Y-7892356D01*
X30859002Y-7892357D01*
X30703609Y-7937504D01*
X30703606Y-7937505D01*
X30564315Y-8019881D01*
X30564307Y-8019887D01*
X30449887Y-8134307D01*
X30449881Y-8134315D01*
X30367505Y-8273606D01*
X30367504Y-8273609D01*
X30322357Y-8429002D01*
X30322356Y-8429008D01*
X30319500Y-8465302D01*
X28668000Y-8465302D01*
X28668000Y-8362280D01*
X28653187Y-8249764D01*
X28653186Y-8249763D01*
X28652126Y-8241705D01*
X28655189Y-8241301D01*
X28655189Y-8208698D01*
X28652126Y-8208295D01*
X28655536Y-8182395D01*
X28668000Y-8087720D01*
X28668000Y-7862280D01*
X28653187Y-7749764D01*
X28653186Y-7749763D01*
X28652126Y-7741705D01*
X28655189Y-7741301D01*
X28655189Y-7708698D01*
X28652126Y-7708295D01*
X28653187Y-7700236D01*
X28668000Y-7587720D01*
X28668000Y-7362280D01*
X28653187Y-7249764D01*
X28653186Y-7249763D01*
X28652126Y-7241705D01*
X28655189Y-7241301D01*
X28655189Y-7208698D01*
X28652126Y-7208295D01*
X28656000Y-7178869D01*
X28668000Y-7087720D01*
X28668000Y-6862280D01*
X28653187Y-6749764D01*
X28653186Y-6749763D01*
X28652126Y-6741705D01*
X28655189Y-6741301D01*
X28655189Y-6708698D01*
X28652126Y-6708295D01*
X28653717Y-6696207D01*
X28668000Y-6587720D01*
X28668000Y-6495302D01*
X33189500Y-6495302D01*
X33189500Y-6964697D01*
X33192356Y-7000991D01*
X33192357Y-7000997D01*
X33237504Y-7156390D01*
X33237505Y-7156393D01*
X33237506Y-7156395D01*
X33264054Y-7201285D01*
X33319881Y-7295684D01*
X33319887Y-7295692D01*
X33434307Y-7410112D01*
X33434311Y-7410115D01*
X33434313Y-7410117D01*
X33573605Y-7492494D01*
X33614587Y-7504400D01*
X33729002Y-7537642D01*
X33729005Y-7537642D01*
X33729007Y-7537643D01*
X33765310Y-7540500D01*
X33765318Y-7540500D01*
X34174682Y-7540500D01*
X34174690Y-7540500D01*
X34210993Y-7537643D01*
X34210995Y-7537642D01*
X34210997Y-7537642D01*
X34251975Y-7525736D01*
X34366395Y-7492494D01*
X34387369Y-7480089D01*
X34455088Y-7462906D01*
X34513613Y-7480090D01*
X34533803Y-7492031D01*
X34680000Y-7534504D01*
X34680000Y-7534503D01*
X35180000Y-7534503D01*
X35326195Y-7492031D01*
X35465374Y-7409721D01*
X35465383Y-7409714D01*
X35579714Y-7295383D01*
X35579721Y-7295374D01*
X35662031Y-7156195D01*
X35662033Y-7156190D01*
X35707144Y-7000918D01*
X35707145Y-7000912D01*
X35708790Y-6980000D01*
X35180000Y-6980000D01*
X35180000Y-7534503D01*
X34680000Y-7534503D01*
X34680000Y-7228352D01*
X34697267Y-7165233D01*
X34702494Y-7156395D01*
X34747643Y-7000993D01*
X34750500Y-6964690D01*
X34750500Y-6495310D01*
X34750499Y-6495302D01*
X36059500Y-6495302D01*
X36059500Y-6964697D01*
X36062356Y-7000991D01*
X36062357Y-7000997D01*
X36107504Y-7156390D01*
X36107505Y-7156393D01*
X36107506Y-7156395D01*
X36134054Y-7201285D01*
X36189881Y-7295684D01*
X36189887Y-7295692D01*
X36304307Y-7410112D01*
X36304311Y-7410115D01*
X36304313Y-7410117D01*
X36443605Y-7492494D01*
X36484587Y-7504400D01*
X36599002Y-7537642D01*
X36599005Y-7537642D01*
X36599007Y-7537643D01*
X36635310Y-7540500D01*
X36635318Y-7540500D01*
X37044682Y-7540500D01*
X37044690Y-7540500D01*
X37080993Y-7537643D01*
X37080995Y-7537642D01*
X37080997Y-7537642D01*
X37121975Y-7525736D01*
X37236395Y-7492494D01*
X37257369Y-7480089D01*
X37325088Y-7462906D01*
X37383613Y-7480090D01*
X37403803Y-7492031D01*
X37550000Y-7534504D01*
X37550000Y-7534503D01*
X38050000Y-7534503D01*
X38196195Y-7492031D01*
X38335374Y-7409721D01*
X38335383Y-7409714D01*
X38449714Y-7295383D01*
X38449721Y-7295374D01*
X38532031Y-7156195D01*
X38532033Y-7156190D01*
X38577144Y-7000918D01*
X38577145Y-7000912D01*
X38578790Y-6980000D01*
X38050000Y-6980000D01*
X38050000Y-7534503D01*
X37550000Y-7534503D01*
X37550000Y-7228352D01*
X37567267Y-7165233D01*
X37572494Y-7156395D01*
X37617643Y-7000993D01*
X37620500Y-6964690D01*
X37620500Y-6774983D01*
X48699500Y-6774983D01*
X48699500Y-7825001D01*
X48699501Y-7825019D01*
X48710000Y-7927796D01*
X48710001Y-7927799D01*
X48765185Y-8094331D01*
X48765187Y-8094336D01*
X48799381Y-8149774D01*
X48857288Y-8243656D01*
X48981344Y-8367712D01*
X49130666Y-8459814D01*
X49297203Y-8514999D01*
X49399991Y-8525500D01*
X50000008Y-8525499D01*
X50000016Y-8525498D01*
X50000019Y-8525498D01*
X50056302Y-8519748D01*
X50102797Y-8514999D01*
X50269334Y-8459814D01*
X50418656Y-8367712D01*
X50542712Y-8243656D01*
X50544752Y-8240347D01*
X50546745Y-8238555D01*
X50547193Y-8237989D01*
X50547289Y-8238065D01*
X50596694Y-8193623D01*
X50665656Y-8182395D01*
X50729740Y-8210234D01*
X50755829Y-8240339D01*
X50757681Y-8243341D01*
X50757683Y-8243344D01*
X50881654Y-8367315D01*
X51030875Y-8459356D01*
X51030880Y-8459358D01*
X51197302Y-8514505D01*
X51197309Y-8514506D01*
X51300019Y-8524999D01*
X51850000Y-8524999D01*
X51899972Y-8524999D01*
X51899986Y-8524998D01*
X52002697Y-8514505D01*
X52169119Y-8459358D01*
X52169124Y-8459356D01*
X52318345Y-8367315D01*
X52442315Y-8243345D01*
X52534356Y-8094124D01*
X52534358Y-8094119D01*
X52589505Y-7927697D01*
X52589506Y-7927690D01*
X52599999Y-7824986D01*
X52600000Y-7824973D01*
X52600000Y-7620811D01*
X53109500Y-7620811D01*
X53109500Y-8119169D01*
X53109501Y-8119191D01*
X53112335Y-8155205D01*
X53157129Y-8309388D01*
X53157131Y-8309393D01*
X53238863Y-8447595D01*
X53238869Y-8447603D01*
X53352396Y-8561130D01*
X53352400Y-8561133D01*
X53352402Y-8561135D01*
X53490607Y-8642869D01*
X53531268Y-8654682D01*
X53644791Y-8687664D01*
X53644794Y-8687664D01*
X53644796Y-8687665D01*
X53680819Y-8690500D01*
X54079180Y-8690499D01*
X54115204Y-8687665D01*
X54269393Y-8642869D01*
X54326882Y-8608869D01*
X54394602Y-8591688D01*
X54453117Y-8608869D01*
X54510607Y-8642869D01*
X54510610Y-8642869D01*
X54510612Y-8642871D01*
X54664791Y-8687664D01*
X54664794Y-8687664D01*
X54664796Y-8687665D01*
X54700819Y-8690500D01*
X55099180Y-8690499D01*
X55135204Y-8687665D01*
X55289393Y-8642869D01*
X55427598Y-8561135D01*
X55541135Y-8447598D01*
X55622869Y-8309393D01*
X55667665Y-8155204D01*
X55670500Y-8119181D01*
X55670499Y-7620820D01*
X55667665Y-7584796D01*
X55622869Y-7430607D01*
X55541135Y-7292402D01*
X55541133Y-7292400D01*
X55541130Y-7292396D01*
X55427603Y-7178869D01*
X55427595Y-7178863D01*
X55289393Y-7097131D01*
X55289388Y-7097129D01*
X55135208Y-7052335D01*
X55135202Y-7052334D01*
X55099181Y-7049500D01*
X54700830Y-7049500D01*
X54700808Y-7049501D01*
X54664794Y-7052335D01*
X54510611Y-7097129D01*
X54510604Y-7097132D01*
X54453119Y-7131128D01*
X54385395Y-7148309D01*
X54326881Y-7131128D01*
X54269395Y-7097132D01*
X54269388Y-7097129D01*
X54115208Y-7052335D01*
X54115202Y-7052334D01*
X54079181Y-7049500D01*
X53680830Y-7049500D01*
X53680808Y-7049501D01*
X53644794Y-7052335D01*
X53490611Y-7097129D01*
X53490606Y-7097131D01*
X53352404Y-7178863D01*
X53352396Y-7178869D01*
X53238869Y-7292396D01*
X53238863Y-7292404D01*
X53157131Y-7430606D01*
X53157129Y-7430611D01*
X53112335Y-7584791D01*
X53112334Y-7584797D01*
X53109500Y-7620811D01*
X52600000Y-7620811D01*
X52600000Y-7550000D01*
X51850000Y-7550000D01*
X51850000Y-8524999D01*
X51300019Y-8524999D01*
X51349999Y-8524998D01*
X51350000Y-8524998D01*
X51350000Y-7050000D01*
X51850000Y-7050000D01*
X52599999Y-7050000D01*
X52599999Y-6775028D01*
X52599998Y-6775013D01*
X52589505Y-6672302D01*
X52534358Y-6505880D01*
X52534356Y-6505875D01*
X52442315Y-6356654D01*
X52318345Y-6232684D01*
X52169124Y-6140643D01*
X52169119Y-6140641D01*
X52002697Y-6085494D01*
X52002690Y-6085493D01*
X51899986Y-6075000D01*
X51850000Y-6075000D01*
X51850000Y-7050000D01*
X51350000Y-7050000D01*
X51350000Y-6075000D01*
X51349999Y-6074999D01*
X51300029Y-6075000D01*
X51300011Y-6075001D01*
X51197302Y-6085494D01*
X51030880Y-6140641D01*
X51030875Y-6140643D01*
X50881654Y-6232684D01*
X50757683Y-6356655D01*
X50757679Y-6356660D01*
X50755826Y-6359665D01*
X50754018Y-6361290D01*
X50753202Y-6362323D01*
X50753025Y-6362183D01*
X50703874Y-6406385D01*
X50634911Y-6417601D01*
X50570831Y-6389752D01*
X50544753Y-6359653D01*
X50544737Y-6359628D01*
X50542712Y-6356344D01*
X50418656Y-6232288D01*
X50309901Y-6165208D01*
X50269336Y-6140187D01*
X50269331Y-6140185D01*
X50236087Y-6129169D01*
X50102797Y-6085001D01*
X50102795Y-6085000D01*
X50000010Y-6074500D01*
X49399998Y-6074500D01*
X49399980Y-6074501D01*
X49297203Y-6085000D01*
X49297200Y-6085001D01*
X49130668Y-6140185D01*
X49130663Y-6140187D01*
X48981342Y-6232289D01*
X48857289Y-6356342D01*
X48765187Y-6505663D01*
X48765185Y-6505668D01*
X48751457Y-6547097D01*
X48710001Y-6672203D01*
X48710001Y-6672204D01*
X48710000Y-6672204D01*
X48699500Y-6774983D01*
X37620500Y-6774983D01*
X37620500Y-6495310D01*
X37617643Y-6459007D01*
X37617235Y-6457603D01*
X37572495Y-6303608D01*
X37572492Y-6303600D01*
X37567266Y-6294763D01*
X37550000Y-6231645D01*
X37550000Y-5925494D01*
X38050000Y-5925494D01*
X38050000Y-6480000D01*
X38578790Y-6480000D01*
X38577145Y-6459089D01*
X38532031Y-6303804D01*
X38449721Y-6164625D01*
X38449714Y-6164616D01*
X38335383Y-6050285D01*
X38335374Y-6050278D01*
X38196193Y-5967967D01*
X38196190Y-5967965D01*
X38050001Y-5925493D01*
X38050000Y-5925494D01*
X37550000Y-5925494D01*
X37549998Y-5925493D01*
X37403809Y-5967965D01*
X37403806Y-5967967D01*
X37383608Y-5979912D01*
X37315884Y-5997092D01*
X37257370Y-5979910D01*
X37236397Y-5967507D01*
X37236390Y-5967504D01*
X37080997Y-5922357D01*
X37080991Y-5922356D01*
X37044697Y-5919500D01*
X37044690Y-5919500D01*
X36635310Y-5919500D01*
X36635302Y-5919500D01*
X36599008Y-5922356D01*
X36599002Y-5922357D01*
X36443609Y-5967504D01*
X36443606Y-5967505D01*
X36304315Y-6049881D01*
X36304307Y-6049887D01*
X36189887Y-6164307D01*
X36189881Y-6164315D01*
X36107505Y-6303606D01*
X36107504Y-6303609D01*
X36062357Y-6459002D01*
X36062356Y-6459008D01*
X36059500Y-6495302D01*
X34750499Y-6495302D01*
X34747643Y-6459007D01*
X34747235Y-6457603D01*
X34702495Y-6303608D01*
X34702492Y-6303600D01*
X34697266Y-6294763D01*
X34680000Y-6231645D01*
X34680000Y-5925494D01*
X35180000Y-5925494D01*
X35180000Y-6480000D01*
X35708790Y-6480000D01*
X35707145Y-6459089D01*
X35662031Y-6303804D01*
X35579721Y-6164625D01*
X35579714Y-6164616D01*
X35465383Y-6050285D01*
X35465374Y-6050278D01*
X35326193Y-5967967D01*
X35326190Y-5967965D01*
X35180001Y-5925493D01*
X35180000Y-5925494D01*
X34680000Y-5925494D01*
X34679998Y-5925493D01*
X34533809Y-5967965D01*
X34533806Y-5967967D01*
X34513608Y-5979912D01*
X34445884Y-5997092D01*
X34387370Y-5979910D01*
X34366397Y-5967507D01*
X34366390Y-5967504D01*
X34210997Y-5922357D01*
X34210991Y-5922356D01*
X34174697Y-5919500D01*
X34174690Y-5919500D01*
X33765310Y-5919500D01*
X33765302Y-5919500D01*
X33729008Y-5922356D01*
X33729002Y-5922357D01*
X33573609Y-5967504D01*
X33573606Y-5967505D01*
X33434315Y-6049881D01*
X33434307Y-6049887D01*
X33319887Y-6164307D01*
X33319881Y-6164315D01*
X33237505Y-6303606D01*
X33237504Y-6303609D01*
X33192357Y-6459002D01*
X33192356Y-6459008D01*
X33189500Y-6495302D01*
X28668000Y-6495302D01*
X28668000Y-6362280D01*
X28653187Y-6249764D01*
X28653186Y-6249763D01*
X28652126Y-6241705D01*
X28655189Y-6241301D01*
X28655189Y-6208698D01*
X28652126Y-6208295D01*
X28653187Y-6200236D01*
X28668000Y-6087720D01*
X28668000Y-5862280D01*
X28653187Y-5749764D01*
X28653186Y-5749763D01*
X28652126Y-5741705D01*
X28655189Y-5741301D01*
X28655189Y-5708698D01*
X28652126Y-5708295D01*
X28656117Y-5677977D01*
X28662327Y-5630811D01*
X53109500Y-5630811D01*
X53109500Y-6129169D01*
X53109501Y-6129191D01*
X53112335Y-6165205D01*
X53157129Y-6319388D01*
X53157131Y-6319393D01*
X53238863Y-6457595D01*
X53238869Y-6457603D01*
X53352396Y-6571130D01*
X53352400Y-6571133D01*
X53352402Y-6571135D01*
X53490607Y-6652869D01*
X53490614Y-6652871D01*
X53644791Y-6697664D01*
X53644794Y-6697664D01*
X53644796Y-6697665D01*
X53680819Y-6700500D01*
X54079180Y-6700499D01*
X54115204Y-6697665D01*
X54269393Y-6652869D01*
X54326882Y-6618869D01*
X54394602Y-6601688D01*
X54453117Y-6618869D01*
X54510607Y-6652869D01*
X54510610Y-6652869D01*
X54510612Y-6652871D01*
X54664791Y-6697664D01*
X54664794Y-6697664D01*
X54664796Y-6697665D01*
X54700819Y-6700500D01*
X55099180Y-6700499D01*
X55135204Y-6697665D01*
X55289393Y-6652869D01*
X55427598Y-6571135D01*
X55541135Y-6457598D01*
X55622869Y-6319393D01*
X55667665Y-6165204D01*
X55670500Y-6129181D01*
X55670499Y-5630820D01*
X55667665Y-5594796D01*
X55622869Y-5440607D01*
X55541135Y-5302402D01*
X55541133Y-5302400D01*
X55541130Y-5302396D01*
X55427603Y-5188869D01*
X55427595Y-5188863D01*
X55289393Y-5107131D01*
X55289388Y-5107129D01*
X55135208Y-5062335D01*
X55135202Y-5062334D01*
X55099181Y-5059500D01*
X54700830Y-5059500D01*
X54700808Y-5059501D01*
X54664794Y-5062335D01*
X54510611Y-5107129D01*
X54510604Y-5107132D01*
X54453119Y-5141128D01*
X54385395Y-5158309D01*
X54326881Y-5141128D01*
X54269395Y-5107132D01*
X54269388Y-5107129D01*
X54115208Y-5062335D01*
X54115202Y-5062334D01*
X54079181Y-5059500D01*
X53680830Y-5059500D01*
X53680808Y-5059501D01*
X53644794Y-5062335D01*
X53490611Y-5107129D01*
X53490606Y-5107131D01*
X53352404Y-5188863D01*
X53352396Y-5188869D01*
X53238869Y-5302396D01*
X53238863Y-5302404D01*
X53157131Y-5440606D01*
X53157129Y-5440611D01*
X53112335Y-5594791D01*
X53112334Y-5594797D01*
X53109500Y-5630811D01*
X28662327Y-5630811D01*
X28668000Y-5587720D01*
X28668000Y-5362280D01*
X28653187Y-5249764D01*
X28653186Y-5249763D01*
X28652126Y-5241705D01*
X28655189Y-5241301D01*
X28655189Y-5208698D01*
X28652126Y-5208295D01*
X28655010Y-5186389D01*
X28668000Y-5087720D01*
X28668000Y-4862280D01*
X28653187Y-4749764D01*
X28653186Y-4749763D01*
X28652126Y-4741705D01*
X28655189Y-4741301D01*
X28655189Y-4708698D01*
X28652126Y-4708295D01*
X28655284Y-4684306D01*
X28668000Y-4587720D01*
X28668000Y-4525302D01*
X30319500Y-4525302D01*
X30319500Y-4994697D01*
X30322356Y-5030991D01*
X30322357Y-5030997D01*
X30367504Y-5186390D01*
X30367505Y-5186393D01*
X30367506Y-5186395D01*
X30395270Y-5233341D01*
X30449881Y-5325684D01*
X30449887Y-5325692D01*
X30564307Y-5440112D01*
X30564311Y-5440115D01*
X30564313Y-5440117D01*
X30703605Y-5522494D01*
X30743143Y-5533981D01*
X30859002Y-5567642D01*
X30859005Y-5567642D01*
X30859007Y-5567643D01*
X30895310Y-5570500D01*
X30895318Y-5570500D01*
X31304682Y-5570500D01*
X31304690Y-5570500D01*
X31340993Y-5567643D01*
X31340995Y-5567642D01*
X31340997Y-5567642D01*
X31381975Y-5555736D01*
X31496395Y-5522494D01*
X31517369Y-5510089D01*
X31585088Y-5492906D01*
X31643613Y-5510090D01*
X31663803Y-5522031D01*
X31810000Y-5564504D01*
X31810000Y-5564503D01*
X32310000Y-5564503D01*
X32456195Y-5522031D01*
X32595374Y-5439721D01*
X32595383Y-5439714D01*
X32709714Y-5325383D01*
X32709721Y-5325374D01*
X32792031Y-5186195D01*
X32792033Y-5186190D01*
X32837144Y-5030918D01*
X32837145Y-5030912D01*
X32838790Y-5010000D01*
X32310000Y-5010000D01*
X32310000Y-5564503D01*
X31810000Y-5564503D01*
X31810000Y-5258352D01*
X31827267Y-5195233D01*
X31832494Y-5186395D01*
X31833300Y-5183623D01*
X31877642Y-5030997D01*
X31877643Y-5030991D01*
X31877668Y-5030670D01*
X31880500Y-4994690D01*
X31880500Y-4525310D01*
X31880499Y-4525302D01*
X33189500Y-4525302D01*
X33189500Y-4994697D01*
X33192356Y-5030991D01*
X33192357Y-5030997D01*
X33237504Y-5186390D01*
X33237505Y-5186393D01*
X33237506Y-5186395D01*
X33265270Y-5233341D01*
X33319881Y-5325684D01*
X33319887Y-5325692D01*
X33434307Y-5440112D01*
X33434311Y-5440115D01*
X33434313Y-5440117D01*
X33573605Y-5522494D01*
X33613143Y-5533981D01*
X33729002Y-5567642D01*
X33729005Y-5567642D01*
X33729007Y-5567643D01*
X33765310Y-5570500D01*
X33765318Y-5570500D01*
X34174682Y-5570500D01*
X34174690Y-5570500D01*
X34210993Y-5567643D01*
X34210995Y-5567642D01*
X34210997Y-5567642D01*
X34251975Y-5555736D01*
X34366395Y-5522494D01*
X34387369Y-5510089D01*
X34455088Y-5492906D01*
X34513613Y-5510090D01*
X34533803Y-5522031D01*
X34680000Y-5564504D01*
X34680000Y-5564503D01*
X35180000Y-5564503D01*
X35326195Y-5522031D01*
X35465374Y-5439721D01*
X35465383Y-5439714D01*
X35579714Y-5325383D01*
X35579721Y-5325374D01*
X35662031Y-5186195D01*
X35662033Y-5186190D01*
X35707144Y-5030918D01*
X35707145Y-5030912D01*
X35708790Y-5010000D01*
X35180000Y-5010000D01*
X35180000Y-5564503D01*
X34680000Y-5564503D01*
X34680000Y-5258352D01*
X34697267Y-5195233D01*
X34702494Y-5186395D01*
X34703300Y-5183623D01*
X34747642Y-5030997D01*
X34747643Y-5030991D01*
X34747668Y-5030670D01*
X34750500Y-4994690D01*
X34750500Y-4525310D01*
X34750499Y-4525302D01*
X36059500Y-4525302D01*
X36059500Y-4994697D01*
X36062356Y-5030991D01*
X36062357Y-5030997D01*
X36107504Y-5186390D01*
X36107505Y-5186393D01*
X36107506Y-5186395D01*
X36135270Y-5233341D01*
X36189881Y-5325684D01*
X36189887Y-5325692D01*
X36304307Y-5440112D01*
X36304311Y-5440115D01*
X36304313Y-5440117D01*
X36443605Y-5522494D01*
X36483143Y-5533981D01*
X36599002Y-5567642D01*
X36599005Y-5567642D01*
X36599007Y-5567643D01*
X36635310Y-5570500D01*
X36635318Y-5570500D01*
X37044682Y-5570500D01*
X37044690Y-5570500D01*
X37080993Y-5567643D01*
X37080995Y-5567642D01*
X37080997Y-5567642D01*
X37121975Y-5555736D01*
X37236395Y-5522494D01*
X37257369Y-5510089D01*
X37325088Y-5492906D01*
X37383613Y-5510090D01*
X37403803Y-5522031D01*
X37550000Y-5564504D01*
X37550000Y-5564503D01*
X38050000Y-5564503D01*
X38196195Y-5522031D01*
X38335374Y-5439721D01*
X38335383Y-5439714D01*
X38449714Y-5325383D01*
X38449721Y-5325374D01*
X38532031Y-5186195D01*
X38532033Y-5186190D01*
X38577144Y-5030918D01*
X38577145Y-5030912D01*
X38578790Y-5010000D01*
X38050000Y-5010000D01*
X38050000Y-5564503D01*
X37550000Y-5564503D01*
X37550000Y-5258352D01*
X37567267Y-5195233D01*
X37572494Y-5186395D01*
X37573300Y-5183623D01*
X37617642Y-5030997D01*
X37617643Y-5030991D01*
X37617668Y-5030670D01*
X37620500Y-4994690D01*
X37620500Y-4525310D01*
X37617643Y-4489007D01*
X37611424Y-4467603D01*
X37572495Y-4333608D01*
X37572492Y-4333600D01*
X37567266Y-4324763D01*
X37550000Y-4261645D01*
X37550000Y-3955494D01*
X38050000Y-3955494D01*
X38050000Y-4510000D01*
X38578790Y-4510000D01*
X38577145Y-4489089D01*
X38532031Y-4333804D01*
X38449721Y-4194625D01*
X38449714Y-4194616D01*
X38335383Y-4080285D01*
X38335374Y-4080278D01*
X38196193Y-3997967D01*
X38196190Y-3997965D01*
X38050001Y-3955493D01*
X38050000Y-3955494D01*
X37550000Y-3955494D01*
X37549998Y-3955493D01*
X37403809Y-3997965D01*
X37403806Y-3997967D01*
X37383608Y-4009912D01*
X37315884Y-4027092D01*
X37257370Y-4009910D01*
X37236397Y-3997507D01*
X37236390Y-3997504D01*
X37080997Y-3952357D01*
X37080991Y-3952356D01*
X37044697Y-3949500D01*
X37044690Y-3949500D01*
X36635310Y-3949500D01*
X36635302Y-3949500D01*
X36599008Y-3952356D01*
X36599002Y-3952357D01*
X36443609Y-3997504D01*
X36443606Y-3997505D01*
X36304315Y-4079881D01*
X36304307Y-4079887D01*
X36189887Y-4194307D01*
X36189881Y-4194315D01*
X36107505Y-4333606D01*
X36107504Y-4333609D01*
X36062357Y-4489002D01*
X36062356Y-4489008D01*
X36059500Y-4525302D01*
X34750499Y-4525302D01*
X34747643Y-4489007D01*
X34741424Y-4467603D01*
X34702495Y-4333608D01*
X34702492Y-4333600D01*
X34697266Y-4324763D01*
X34680000Y-4261645D01*
X34680000Y-3955494D01*
X35180000Y-3955494D01*
X35180000Y-4510000D01*
X35708790Y-4510000D01*
X35707145Y-4489089D01*
X35662031Y-4333804D01*
X35579721Y-4194625D01*
X35579714Y-4194616D01*
X35465383Y-4080285D01*
X35465374Y-4080278D01*
X35326193Y-3997967D01*
X35326190Y-3997965D01*
X35180001Y-3955493D01*
X35180000Y-3955494D01*
X34680000Y-3955494D01*
X34679998Y-3955493D01*
X34533809Y-3997965D01*
X34533806Y-3997967D01*
X34513608Y-4009912D01*
X34445884Y-4027092D01*
X34387370Y-4009910D01*
X34366397Y-3997507D01*
X34366390Y-3997504D01*
X34210997Y-3952357D01*
X34210991Y-3952356D01*
X34174697Y-3949500D01*
X34174690Y-3949500D01*
X33765310Y-3949500D01*
X33765302Y-3949500D01*
X33729008Y-3952356D01*
X33729002Y-3952357D01*
X33573609Y-3997504D01*
X33573606Y-3997505D01*
X33434315Y-4079881D01*
X33434307Y-4079887D01*
X33319887Y-4194307D01*
X33319881Y-4194315D01*
X33237505Y-4333606D01*
X33237504Y-4333609D01*
X33192357Y-4489002D01*
X33192356Y-4489008D01*
X33189500Y-4525302D01*
X31880499Y-4525302D01*
X31877643Y-4489007D01*
X31871424Y-4467603D01*
X31832495Y-4333608D01*
X31832492Y-4333600D01*
X31827266Y-4324763D01*
X31810000Y-4261645D01*
X31810000Y-3955494D01*
X32310000Y-3955494D01*
X32310000Y-4510000D01*
X32838790Y-4510000D01*
X32837145Y-4489089D01*
X32792031Y-4333804D01*
X32709721Y-4194625D01*
X32709714Y-4194616D01*
X32595383Y-4080285D01*
X32595374Y-4080278D01*
X32456193Y-3997967D01*
X32456190Y-3997965D01*
X32310001Y-3955493D01*
X32310000Y-3955494D01*
X31810000Y-3955494D01*
X31809998Y-3955493D01*
X31663809Y-3997965D01*
X31663806Y-3997967D01*
X31643608Y-4009912D01*
X31575884Y-4027092D01*
X31517370Y-4009910D01*
X31496397Y-3997507D01*
X31496390Y-3997504D01*
X31340997Y-3952357D01*
X31340991Y-3952356D01*
X31304697Y-3949500D01*
X31304690Y-3949500D01*
X30895310Y-3949500D01*
X30895302Y-3949500D01*
X30859008Y-3952356D01*
X30859002Y-3952357D01*
X30703609Y-3997504D01*
X30703606Y-3997505D01*
X30564315Y-4079881D01*
X30564307Y-4079887D01*
X30449887Y-4194307D01*
X30449881Y-4194315D01*
X30367505Y-4333606D01*
X30367504Y-4333609D01*
X30322357Y-4489002D01*
X30322356Y-4489008D01*
X30319500Y-4525302D01*
X28668000Y-4525302D01*
X28668000Y-4362280D01*
X28653187Y-4249764D01*
X28653186Y-4249763D01*
X28652126Y-4241705D01*
X28655189Y-4241301D01*
X28655189Y-4208698D01*
X28652126Y-4208295D01*
X28653927Y-4194616D01*
X28668000Y-4087720D01*
X28668000Y-3862280D01*
X28655191Y-3764983D01*
X48699500Y-3764983D01*
X48699500Y-4815001D01*
X48699501Y-4815019D01*
X48710000Y-4917796D01*
X48710001Y-4917799D01*
X48747512Y-5030997D01*
X48765186Y-5084334D01*
X48857288Y-5233656D01*
X48981344Y-5357712D01*
X49130666Y-5449814D01*
X49297203Y-5504999D01*
X49399991Y-5515500D01*
X50000008Y-5515499D01*
X50000016Y-5515498D01*
X50000019Y-5515498D01*
X50056302Y-5509748D01*
X50102797Y-5504999D01*
X50269334Y-5449814D01*
X50418656Y-5357712D01*
X50542712Y-5233656D01*
X50544752Y-5230347D01*
X50546745Y-5228555D01*
X50547193Y-5227989D01*
X50547289Y-5228065D01*
X50596694Y-5183623D01*
X50665656Y-5172395D01*
X50729740Y-5200234D01*
X50755829Y-5230339D01*
X50757681Y-5233341D01*
X50757683Y-5233344D01*
X50881654Y-5357315D01*
X51030875Y-5449356D01*
X51030880Y-5449358D01*
X51197302Y-5504505D01*
X51197309Y-5504506D01*
X51300019Y-5514999D01*
X51850000Y-5514999D01*
X51899972Y-5514999D01*
X51899986Y-5514998D01*
X52002697Y-5504505D01*
X52169119Y-5449358D01*
X52169124Y-5449356D01*
X52318345Y-5357315D01*
X52442315Y-5233345D01*
X52534356Y-5084124D01*
X52534358Y-5084119D01*
X52589505Y-4917697D01*
X52589506Y-4917690D01*
X52599999Y-4814986D01*
X52600000Y-4814973D01*
X52600000Y-4540000D01*
X51850000Y-4540000D01*
X51850000Y-5514999D01*
X51300019Y-5514999D01*
X51349999Y-5514998D01*
X51350000Y-5514998D01*
X51350000Y-4040000D01*
X51850000Y-4040000D01*
X52599999Y-4040000D01*
X52599999Y-3765028D01*
X52599998Y-3765013D01*
X52589505Y-3662302D01*
X52582384Y-3640811D01*
X53109500Y-3640811D01*
X53109500Y-4139169D01*
X53109501Y-4139191D01*
X53112335Y-4175205D01*
X53157129Y-4329388D01*
X53157131Y-4329393D01*
X53238863Y-4467595D01*
X53238869Y-4467603D01*
X53352396Y-4581130D01*
X53352400Y-4581133D01*
X53352402Y-4581135D01*
X53490607Y-4662869D01*
X53490614Y-4662871D01*
X53644791Y-4707664D01*
X53644794Y-4707664D01*
X53644796Y-4707665D01*
X53680819Y-4710500D01*
X54079180Y-4710499D01*
X54115204Y-4707665D01*
X54269393Y-4662869D01*
X54326882Y-4628869D01*
X54394602Y-4611688D01*
X54453117Y-4628869D01*
X54510607Y-4662869D01*
X54510610Y-4662869D01*
X54510612Y-4662871D01*
X54664791Y-4707664D01*
X54664794Y-4707664D01*
X54664796Y-4707665D01*
X54700819Y-4710500D01*
X55099180Y-4710499D01*
X55135204Y-4707665D01*
X55289393Y-4662869D01*
X55427598Y-4581135D01*
X55541135Y-4467598D01*
X55622869Y-4329393D01*
X55667665Y-4175204D01*
X55670500Y-4139181D01*
X55670499Y-3640820D01*
X55667665Y-3604796D01*
X55641765Y-3515649D01*
X57595000Y-3515649D01*
X57597899Y-3552489D01*
X57597900Y-3552495D01*
X57643716Y-3710193D01*
X57643717Y-3710196D01*
X57727314Y-3851552D01*
X57727321Y-3851561D01*
X57843438Y-3967678D01*
X57843447Y-3967685D01*
X57984801Y-4051281D01*
X58142514Y-4097100D01*
X58142511Y-4097100D01*
X58144998Y-4097295D01*
X58145000Y-4097295D01*
X58145000Y-3050000D01*
X57595000Y-3050000D01*
X57595000Y-3515649D01*
X55641765Y-3515649D01*
X55622869Y-3450607D01*
X55541135Y-3312402D01*
X55541133Y-3312400D01*
X55541130Y-3312396D01*
X55427603Y-3198869D01*
X55427595Y-3198863D01*
X55289393Y-3117131D01*
X55289388Y-3117129D01*
X55135208Y-3072335D01*
X55135202Y-3072334D01*
X55099181Y-3069500D01*
X54700830Y-3069500D01*
X54700808Y-3069501D01*
X54664794Y-3072335D01*
X54510611Y-3117129D01*
X54510604Y-3117132D01*
X54453119Y-3151128D01*
X54385395Y-3168309D01*
X54326881Y-3151128D01*
X54269395Y-3117132D01*
X54269388Y-3117129D01*
X54115208Y-3072335D01*
X54115202Y-3072334D01*
X54079181Y-3069500D01*
X53680830Y-3069500D01*
X53680808Y-3069501D01*
X53644794Y-3072335D01*
X53490611Y-3117129D01*
X53490606Y-3117131D01*
X53352404Y-3198863D01*
X53352396Y-3198869D01*
X53238869Y-3312396D01*
X53238863Y-3312404D01*
X53157131Y-3450606D01*
X53157129Y-3450611D01*
X53112335Y-3604791D01*
X53112334Y-3604797D01*
X53109500Y-3640811D01*
X52582384Y-3640811D01*
X52534358Y-3495880D01*
X52534356Y-3495875D01*
X52442315Y-3346654D01*
X52318345Y-3222684D01*
X52169124Y-3130643D01*
X52169119Y-3130641D01*
X52002697Y-3075494D01*
X52002690Y-3075493D01*
X51899986Y-3065000D01*
X51850000Y-3065000D01*
X51850000Y-4040000D01*
X51350000Y-4040000D01*
X51350000Y-3065000D01*
X51349999Y-3064999D01*
X51300029Y-3065000D01*
X51300011Y-3065001D01*
X51197302Y-3075494D01*
X51030880Y-3130641D01*
X51030875Y-3130643D01*
X50881654Y-3222684D01*
X50757683Y-3346655D01*
X50757679Y-3346660D01*
X50755826Y-3349665D01*
X50754018Y-3351290D01*
X50753202Y-3352323D01*
X50753025Y-3352183D01*
X50703874Y-3396385D01*
X50634911Y-3407601D01*
X50570831Y-3379752D01*
X50544753Y-3349653D01*
X50544737Y-3349628D01*
X50542712Y-3346344D01*
X50418656Y-3222288D01*
X50295004Y-3146019D01*
X50269336Y-3130187D01*
X50269331Y-3130185D01*
X50267862Y-3129698D01*
X50102797Y-3075001D01*
X50102795Y-3075000D01*
X50000010Y-3064500D01*
X49399998Y-3064500D01*
X49399980Y-3064501D01*
X49297203Y-3075000D01*
X49297200Y-3075001D01*
X49130668Y-3130185D01*
X49130663Y-3130187D01*
X48981342Y-3222289D01*
X48857289Y-3346342D01*
X48765187Y-3495663D01*
X48765185Y-3495668D01*
X48750465Y-3540090D01*
X48710001Y-3662203D01*
X48710001Y-3662204D01*
X48710000Y-3662204D01*
X48699500Y-3764983D01*
X28655191Y-3764983D01*
X28653187Y-3749764D01*
X28595198Y-3609767D01*
X28502951Y-3489549D01*
X28382733Y-3397302D01*
X28382729Y-3397300D01*
X28282266Y-3355687D01*
X28242736Y-3339313D01*
X28228671Y-3337461D01*
X28130227Y-3324500D01*
X28130220Y-3324500D01*
X26792000Y-3324500D01*
X26724961Y-3304815D01*
X26679206Y-3252011D01*
X26668000Y-3200500D01*
X26668000Y-2555302D01*
X30319500Y-2555302D01*
X30319500Y-3024697D01*
X30322356Y-3060991D01*
X30322357Y-3060997D01*
X30367504Y-3216390D01*
X30367505Y-3216393D01*
X30449881Y-3355684D01*
X30449887Y-3355692D01*
X30564307Y-3470112D01*
X30564311Y-3470115D01*
X30564313Y-3470117D01*
X30703605Y-3552494D01*
X30703877Y-3552573D01*
X30859002Y-3597642D01*
X30859005Y-3597642D01*
X30859007Y-3597643D01*
X30895310Y-3600500D01*
X30895318Y-3600500D01*
X31304682Y-3600500D01*
X31304690Y-3600500D01*
X31340993Y-3597643D01*
X31340995Y-3597642D01*
X31340997Y-3597642D01*
X31407378Y-3578356D01*
X31496395Y-3552494D01*
X31517369Y-3540089D01*
X31585088Y-3522906D01*
X31643613Y-3540090D01*
X31663803Y-3552031D01*
X31810000Y-3594504D01*
X31810000Y-3594503D01*
X32310000Y-3594503D01*
X32456195Y-3552031D01*
X32595374Y-3469721D01*
X32595383Y-3469714D01*
X32709714Y-3355383D01*
X32709721Y-3355374D01*
X32792031Y-3216195D01*
X32792033Y-3216190D01*
X32837144Y-3060918D01*
X32837145Y-3060912D01*
X32838790Y-3040000D01*
X32310000Y-3040000D01*
X32310000Y-3594503D01*
X31810000Y-3594503D01*
X31810000Y-3288352D01*
X31827267Y-3225233D01*
X31832494Y-3216395D01*
X31846465Y-3168309D01*
X31877642Y-3060997D01*
X31877643Y-3060991D01*
X31880499Y-3024697D01*
X31880500Y-3024690D01*
X31880500Y-2555310D01*
X31880499Y-2555302D01*
X36059500Y-2555302D01*
X36059500Y-3024697D01*
X36062356Y-3060991D01*
X36062357Y-3060997D01*
X36107504Y-3216390D01*
X36107505Y-3216393D01*
X36189881Y-3355684D01*
X36189887Y-3355692D01*
X36304307Y-3470112D01*
X36304311Y-3470115D01*
X36304313Y-3470117D01*
X36443605Y-3552494D01*
X36443877Y-3552573D01*
X36599002Y-3597642D01*
X36599005Y-3597642D01*
X36599007Y-3597643D01*
X36635310Y-3600500D01*
X36635318Y-3600500D01*
X37044682Y-3600500D01*
X37044690Y-3600500D01*
X37080993Y-3597643D01*
X37080995Y-3597642D01*
X37080997Y-3597642D01*
X37147378Y-3578356D01*
X37236395Y-3552494D01*
X37257369Y-3540089D01*
X37325088Y-3522906D01*
X37383613Y-3540090D01*
X37403803Y-3552031D01*
X37550000Y-3594504D01*
X37550000Y-3594503D01*
X38050000Y-3594503D01*
X38196195Y-3552031D01*
X38335374Y-3469721D01*
X38335383Y-3469714D01*
X38449714Y-3355383D01*
X38449721Y-3355374D01*
X38532031Y-3216195D01*
X38532033Y-3216190D01*
X38577144Y-3060918D01*
X38577145Y-3060912D01*
X38578790Y-3040000D01*
X38050000Y-3040000D01*
X38050000Y-3594503D01*
X37550000Y-3594503D01*
X37550000Y-3288352D01*
X37567267Y-3225233D01*
X37572494Y-3216395D01*
X37586465Y-3168309D01*
X37617642Y-3060997D01*
X37617643Y-3060991D01*
X37620499Y-3024697D01*
X37620500Y-3024690D01*
X37620500Y-2555310D01*
X37617643Y-2519007D01*
X37613718Y-2505498D01*
X37572495Y-2363608D01*
X37572492Y-2363600D01*
X37567266Y-2354763D01*
X37550000Y-2291645D01*
X37550000Y-1985494D01*
X38050000Y-1985494D01*
X38050000Y-2540000D01*
X38578790Y-2540000D01*
X38577145Y-2519089D01*
X38532031Y-2363804D01*
X38449721Y-2224625D01*
X38449714Y-2224616D01*
X38335383Y-2110285D01*
X38335374Y-2110278D01*
X38196193Y-2027967D01*
X38196190Y-2027965D01*
X38050001Y-1985493D01*
X38050000Y-1985494D01*
X37550000Y-1985494D01*
X37549998Y-1985493D01*
X37403809Y-2027965D01*
X37403806Y-2027967D01*
X37383608Y-2039912D01*
X37315884Y-2057092D01*
X37257370Y-2039910D01*
X37236397Y-2027507D01*
X37236390Y-2027504D01*
X37080997Y-1982357D01*
X37080991Y-1982356D01*
X37044697Y-1979500D01*
X37044690Y-1979500D01*
X36635310Y-1979500D01*
X36635302Y-1979500D01*
X36599008Y-1982356D01*
X36599002Y-1982357D01*
X36443609Y-2027504D01*
X36443606Y-2027505D01*
X36304315Y-2109881D01*
X36304307Y-2109887D01*
X36189887Y-2224307D01*
X36189881Y-2224315D01*
X36107505Y-2363606D01*
X36107504Y-2363609D01*
X36062357Y-2519002D01*
X36062356Y-2519008D01*
X36059500Y-2555302D01*
X31880499Y-2555302D01*
X31877643Y-2519007D01*
X31873718Y-2505498D01*
X31832495Y-2363608D01*
X31832492Y-2363600D01*
X31827266Y-2354763D01*
X31810000Y-2291645D01*
X31810000Y-1985494D01*
X32310000Y-1985494D01*
X32310000Y-2540000D01*
X32838790Y-2540000D01*
X32837145Y-2519089D01*
X32792031Y-2363804D01*
X32709721Y-2224625D01*
X32709714Y-2224616D01*
X32595383Y-2110285D01*
X32595374Y-2110278D01*
X32456193Y-2027967D01*
X32456190Y-2027965D01*
X32310001Y-1985493D01*
X32310000Y-1985494D01*
X31810000Y-1985494D01*
X31809998Y-1985493D01*
X31663809Y-2027965D01*
X31663806Y-2027967D01*
X31643608Y-2039912D01*
X31575884Y-2057092D01*
X31517370Y-2039910D01*
X31496397Y-2027507D01*
X31496390Y-2027504D01*
X31340997Y-1982357D01*
X31340991Y-1982356D01*
X31304697Y-1979500D01*
X31304690Y-1979500D01*
X30895310Y-1979500D01*
X30895302Y-1979500D01*
X30859008Y-1982356D01*
X30859002Y-1982357D01*
X30703609Y-2027504D01*
X30703606Y-2027505D01*
X30564315Y-2109881D01*
X30564307Y-2109887D01*
X30449887Y-2224307D01*
X30449881Y-2224315D01*
X30367505Y-2363606D01*
X30367504Y-2363609D01*
X30322357Y-2519002D01*
X30322356Y-2519008D01*
X30319500Y-2555302D01*
X26668000Y-2555302D01*
X26668000Y-1862286D01*
X26667999Y-1862272D01*
X26658843Y-1792727D01*
X26653187Y-1749764D01*
X26595198Y-1609767D01*
X26502951Y-1489549D01*
X26382733Y-1397302D01*
X26382729Y-1397300D01*
X26267498Y-1349570D01*
X26242736Y-1339313D01*
X26228198Y-1337399D01*
X26130227Y-1324500D01*
X26130220Y-1324500D01*
X25904780Y-1324500D01*
X25904772Y-1324500D01*
X25817893Y-1335938D01*
X25792264Y-1339313D01*
X25792262Y-1339313D01*
X25784208Y-1340374D01*
X25783816Y-1337399D01*
X25751184Y-1337399D01*
X25750792Y-1340374D01*
X25742737Y-1339313D01*
X25742736Y-1339313D01*
X25713771Y-1335499D01*
X25630227Y-1324500D01*
X25630220Y-1324500D01*
X25404780Y-1324500D01*
X25404772Y-1324500D01*
X25317893Y-1335938D01*
X25292264Y-1339313D01*
X25292262Y-1339313D01*
X25284208Y-1340374D01*
X25283816Y-1337399D01*
X25251184Y-1337399D01*
X25250792Y-1340374D01*
X25242737Y-1339313D01*
X25242736Y-1339313D01*
X25213771Y-1335499D01*
X25130227Y-1324500D01*
X25130220Y-1324500D01*
X24904780Y-1324500D01*
X24904772Y-1324500D01*
X24817893Y-1335938D01*
X24792264Y-1339313D01*
X24792262Y-1339313D01*
X24784208Y-1340374D01*
X24783816Y-1337399D01*
X24751184Y-1337399D01*
X24750792Y-1340374D01*
X24742737Y-1339313D01*
X24742736Y-1339313D01*
X24713771Y-1335499D01*
X24630227Y-1324500D01*
X24630220Y-1324500D01*
X24404780Y-1324500D01*
X24404772Y-1324500D01*
X24317893Y-1335938D01*
X24292264Y-1339313D01*
X24292262Y-1339313D01*
X24284208Y-1340374D01*
X24283816Y-1337399D01*
X24251184Y-1337399D01*
X24250792Y-1340374D01*
X24242737Y-1339313D01*
X24242736Y-1339313D01*
X24213771Y-1335499D01*
X24130227Y-1324500D01*
X24130220Y-1324500D01*
X23904780Y-1324500D01*
X23904772Y-1324500D01*
X23817893Y-1335938D01*
X23792264Y-1339313D01*
X23792262Y-1339313D01*
X23784208Y-1340374D01*
X23783816Y-1337399D01*
X23751184Y-1337399D01*
X23750792Y-1340374D01*
X23742737Y-1339313D01*
X23742736Y-1339313D01*
X23713771Y-1335499D01*
X23630227Y-1324500D01*
X23630220Y-1324500D01*
X23404780Y-1324500D01*
X23404772Y-1324500D01*
X23317893Y-1335938D01*
X23292264Y-1339313D01*
X23292262Y-1339313D01*
X23284208Y-1340374D01*
X23283816Y-1337399D01*
X23251184Y-1337399D01*
X23250792Y-1340374D01*
X23242737Y-1339313D01*
X23242736Y-1339313D01*
X23213771Y-1335499D01*
X23130227Y-1324500D01*
X23130220Y-1324500D01*
X22904780Y-1324500D01*
X22904772Y-1324500D01*
X22817893Y-1335938D01*
X22792264Y-1339313D01*
X22792262Y-1339313D01*
X22784208Y-1340374D01*
X22783816Y-1337399D01*
X22751184Y-1337399D01*
X22750792Y-1340374D01*
X22742737Y-1339313D01*
X22742736Y-1339313D01*
X22713771Y-1335499D01*
X22630227Y-1324500D01*
X22630220Y-1324500D01*
X22404780Y-1324500D01*
X22404772Y-1324500D01*
X22317893Y-1335938D01*
X22292264Y-1339313D01*
X22292262Y-1339313D01*
X22284208Y-1340374D01*
X22283816Y-1337399D01*
X22251184Y-1337399D01*
X22250792Y-1340374D01*
X22242737Y-1339313D01*
X22242736Y-1339313D01*
X22213771Y-1335499D01*
X22130227Y-1324500D01*
X22130220Y-1324500D01*
X21904780Y-1324500D01*
X21904772Y-1324500D01*
X21817893Y-1335938D01*
X21792264Y-1339313D01*
X21792262Y-1339313D01*
X21784208Y-1340374D01*
X21783816Y-1337399D01*
X21751184Y-1337399D01*
X21750792Y-1340374D01*
X21742737Y-1339313D01*
X21742736Y-1339313D01*
X21713771Y-1335499D01*
X21630227Y-1324500D01*
X21630220Y-1324500D01*
X21404780Y-1324500D01*
X21404772Y-1324500D01*
X21317893Y-1335938D01*
X21292264Y-1339313D01*
X21292262Y-1339313D01*
X21284208Y-1340374D01*
X21283816Y-1337399D01*
X21251184Y-1337399D01*
X21250792Y-1340374D01*
X21242737Y-1339313D01*
X21242736Y-1339313D01*
X21213771Y-1335499D01*
X21130227Y-1324500D01*
X21130220Y-1324500D01*
X20904780Y-1324500D01*
X20904772Y-1324500D01*
X20817893Y-1335938D01*
X20792264Y-1339313D01*
X20792262Y-1339313D01*
X20784208Y-1340374D01*
X20783816Y-1337399D01*
X20751184Y-1337399D01*
X20750792Y-1340374D01*
X20742737Y-1339313D01*
X20742736Y-1339313D01*
X20713771Y-1335499D01*
X20630227Y-1324500D01*
X20630220Y-1324500D01*
X20404780Y-1324500D01*
X20404772Y-1324500D01*
X20292264Y-1339313D01*
X20292263Y-1339313D01*
X20152270Y-1397300D01*
X20152267Y-1397301D01*
X20152267Y-1397302D01*
X20032049Y-1489549D01*
X19960730Y-1582494D01*
X19939800Y-1609770D01*
X19881813Y-1749763D01*
X19881813Y-1749764D01*
X19867000Y-1862272D01*
X19867000Y-3200500D01*
X19847315Y-3267539D01*
X19794511Y-3313294D01*
X19743000Y-3324500D01*
X18404772Y-3324500D01*
X18292264Y-3339313D01*
X18292263Y-3339313D01*
X18152270Y-3397300D01*
X18152267Y-3397301D01*
X18152267Y-3397302D01*
X18032049Y-3489549D01*
X17943617Y-3604796D01*
X17939800Y-3609770D01*
X17881813Y-3749763D01*
X17881813Y-3749764D01*
X17867000Y-3862272D01*
X10936479Y-3862272D01*
X10927420Y-3822584D01*
X10831568Y-3578357D01*
X10700386Y-3351143D01*
X10536805Y-3146019D01*
X10536804Y-3146018D01*
X10536801Y-3146014D01*
X10344479Y-2967567D01*
X10127704Y-2819772D01*
X10127700Y-2819770D01*
X10127697Y-2819768D01*
X10127696Y-2819767D01*
X9891325Y-2705938D01*
X9891327Y-2705938D01*
X9640623Y-2628606D01*
X9640619Y-2628605D01*
X9640615Y-2628604D01*
X9515823Y-2609794D01*
X9381187Y-2589500D01*
X9381182Y-2589500D01*
X9118818Y-2589500D01*
X9118812Y-2589500D01*
X8957247Y-2613853D01*
X8859385Y-2628604D01*
X8859382Y-2628605D01*
X8859376Y-2628606D01*
X8608673Y-2705938D01*
X8372303Y-2819767D01*
X8372302Y-2819768D01*
X8155520Y-2967567D01*
X7963198Y-3146014D01*
X7799614Y-3351143D01*
X7668432Y-3578356D01*
X7572582Y-3822578D01*
X7572576Y-3822597D01*
X7514197Y-4078374D01*
X7514196Y-4078379D01*
X7494592Y-4339995D01*
X7494592Y-4340004D01*
X7514196Y-4601620D01*
X7514197Y-4601625D01*
X7551863Y-4766651D01*
X7547590Y-4836389D01*
X7506291Y-4892747D01*
X7441079Y-4917830D01*
X7372658Y-4903676D01*
X7355486Y-4892619D01*
X7244212Y-4807236D01*
X7244211Y-4807235D01*
X7244208Y-4807233D01*
X7031292Y-4684306D01*
X7031285Y-4684303D01*
X6804162Y-4590225D01*
X6804155Y-4590223D01*
X6804153Y-4590222D01*
X6566677Y-4526591D01*
X6525939Y-4521227D01*
X6322934Y-4494500D01*
X6322927Y-4494500D01*
X6077073Y-4494500D01*
X6077065Y-4494500D01*
X5845059Y-4525045D01*
X5833323Y-4526591D01*
X5629757Y-4581136D01*
X5595847Y-4590222D01*
X5595837Y-4590225D01*
X5368714Y-4684303D01*
X5368705Y-4684307D01*
X5155787Y-4807236D01*
X4960745Y-4956897D01*
X4960738Y-4956903D01*
X4786903Y-5130738D01*
X4786897Y-5130745D01*
X4637236Y-5325787D01*
X4637233Y-5325791D01*
X4637233Y-5325792D01*
X4620766Y-5354313D01*
X4514307Y-5538705D01*
X4514303Y-5538714D01*
X4420225Y-5765837D01*
X4420222Y-5765847D01*
X4362865Y-5979910D01*
X4356592Y-6003320D01*
X4356590Y-6003331D01*
X4324500Y-6247065D01*
X2275471Y-6247065D01*
X2387102Y-6087639D01*
X2479575Y-5889330D01*
X2536207Y-5677977D01*
X2555277Y-5460000D01*
X2553580Y-5440607D01*
X2546728Y-5362286D01*
X2536207Y-5242023D01*
X2479661Y-5030991D01*
X2479577Y-5030677D01*
X2479576Y-5030676D01*
X2479575Y-5030670D01*
X2387102Y-4832362D01*
X2387100Y-4832359D01*
X2387099Y-4832357D01*
X2261599Y-4653124D01*
X2189605Y-4581130D01*
X2106877Y-4498402D01*
X1939207Y-4380998D01*
X1927638Y-4372897D01*
X1824413Y-4324763D01*
X1729330Y-4280425D01*
X1729326Y-4280424D01*
X1729322Y-4280422D01*
X1517977Y-4223793D01*
X1300002Y-4204723D01*
X1299998Y-4204723D01*
X1154682Y-4217436D01*
X1082023Y-4223793D01*
X1082020Y-4223793D01*
X870677Y-4280422D01*
X870668Y-4280426D01*
X672361Y-4372898D01*
X672357Y-4372901D01*
X595623Y-4426630D01*
X529416Y-4448957D01*
X461649Y-4431946D01*
X413837Y-4380998D01*
X400500Y-4325055D01*
X400500Y-524500D01*
X420185Y-457461D01*
X472989Y-411706D01*
X524500Y-400500D01*
X23947273Y-400500D01*
X30200782Y-400500D01*
X30267821Y-420185D01*
G37*
%TD.AperFunction*%
%TA.AperFunction,Conductor*%
G36*
X58713039Y-22319685D02*
G01*
X58758794Y-22372489D01*
X58770000Y-22424000D01*
X58770000Y-22676000D01*
X58750315Y-22743039D01*
X58697511Y-22788794D01*
X58646000Y-22800000D01*
X56474000Y-22800000D01*
X56406961Y-22780315D01*
X56361206Y-22727511D01*
X56350000Y-22676000D01*
X56350000Y-22424000D01*
X56369685Y-22356961D01*
X56422489Y-22311206D01*
X56474000Y-22300000D01*
X58646000Y-22300000D01*
X58713039Y-22319685D01*
G37*
%TD.AperFunction*%
%TA.AperFunction,Conductor*%
G36*
X59655000Y-19037213D02*
G01*
X59655000Y-19522787D01*
X59656933Y-19530000D01*
X59603000Y-19530000D01*
X59569319Y-19563681D01*
X59507996Y-19597166D01*
X59481638Y-19600000D01*
X59034500Y-19600000D01*
X58967461Y-19580315D01*
X58921706Y-19527511D01*
X58910500Y-19476000D01*
X58910500Y-19154000D01*
X58930185Y-19086961D01*
X58982989Y-19041206D01*
X59034500Y-19030000D01*
X59656933Y-19030000D01*
X59655000Y-19037213D01*
G37*
%TD.AperFunction*%
%TD*%
M02*
