M48
; DRILL file {KiCad 8.0.3} date 2024-06-27T20:48:53-0400
; FORMAT={-:-/ absolute / inch / decimal}
; #@! TF.CreationDate,2024-06-27T20:48:53-04:00
; #@! TF.GenerationSoftware,Kicad,Pcbnew,8.0.3
; #@! TF.FileFunction,Plated,1,4,PTH
FMAT,2
INCH
; #@! TA.AperFunction,Plated,PTH,ViaDrill
T1C0.0118
; #@! TA.AperFunction,Plated,PTH,ViaDrill
T2C0.0138
; #@! TA.AperFunction,Plated,PTH,ComponentDrill
T3C0.0236
; #@! TA.AperFunction,Plated,PTH,ComponentDrill
T4C0.0394
; #@! TA.AperFunction,Plated,PTH,ComponentDrill
T5C0.1181
%
G90
G05
T1
X0.2756Y-0.6122
X0.2795Y-0.2244
X0.2795Y-0.2618
X0.2795Y-0.3012
X0.2953Y-0.5394
X0.3031Y-0.3976
X0.311Y-0.2244
X0.311Y-0.2618
X0.311Y-0.3012
X0.315Y-0.7874
X0.315Y-0.8661
X0.315Y-0.9449
X0.3272Y-0.422
X0.3642Y-0.8268
X0.3642Y-0.9055
X0.3743Y-0.4948
X0.3786Y-0.5269
X0.3791Y-0.5736
X0.4823Y-0.6614
X0.5661Y-0.502
X0.6161Y-0.6811
X0.685Y-0.6575
X0.7087Y-0.0787
X0.826Y-0.9508
X0.8268Y-0.0787
X0.8528Y-0.9331
X0.872Y-0.5689
X0.8874Y-0.9331
X0.8967Y-0.5896
X0.9154Y-0.9508
X0.9281Y-0.561
X0.9449Y-0.0787
X0.9484Y-0.9508
X1.063Y-0.0787
X1.1004Y-0.8386
X1.1171Y-0.4547
X1.1262Y-0.7756
X1.1799Y-0.4291
X1.1811Y-0.0787
X1.2906Y-0.749
X1.2992Y-0.0787
X1.3685Y-0.749
X1.377Y-0.4831
X1.4173Y-0.0787
X1.4241Y-0.841
X1.5354Y-0.0787
X1.5654Y-0.4862
X1.6535Y-0.0787
X1.6563Y-0.4866
X1.7717Y-0.0787
X1.7913Y-0.5512
X1.7913Y-0.6299
X1.7913Y-0.748
X1.7913Y-0.8661
X1.8386Y-0.8189
X1.8386Y-0.8583
X1.8386Y-0.8976
X1.8386Y-0.937
X1.8504Y-0.5512
X1.8504Y-0.6299
X1.8504Y-0.748
X1.8732Y-0.5161
X1.874Y-0.4374
X1.874Y-0.476
X1.878Y-0.8189
X1.878Y-0.8583
X1.878Y-0.8976
X1.878Y-0.937
X1.8898Y-0.0787
X1.911Y-0.4756
X1.9114Y-0.4374
X1.9114Y-0.5161
X1.9913Y-0.5157
X1.9917Y-0.4378
X1.9917Y-0.4756
X2.0Y-0.6484
X2.0Y-0.9063
X2.0079Y-0.0787
X2.0976Y-0.476
X2.0976Y-0.5157
X2.098Y-0.4374
X2.122Y-0.8976
X2.122Y-0.937
X2.126Y-0.0787
X2.1291Y-0.6531
X2.1343Y-0.4752
X2.1614Y-0.8976
X2.1614Y-0.937
X2.2008Y-0.8976
X2.2008Y-0.937
X2.2299Y-0.5315
X2.2331Y-0.6063
X2.2331Y-0.6827
X2.2402Y-0.8976
X2.2402Y-0.937
X2.2441Y-0.0787
X2.2606Y-0.4776
X2.2756Y-0.6063
X2.2764Y-0.6827
X2.3185Y-0.6063
X2.3189Y-0.6827
X2.3205Y-0.4677
X2.3205Y-0.5325
X2.3299Y-0.4217
X2.3606Y-0.4217
X2.3902Y-0.4217
X2.4035Y-0.5295
X2.4051Y-0.4717
X2.4213Y-0.4217
X2.4587Y-0.4848
X2.4587Y-0.5134
X2.4902Y-0.4469
X2.4902Y-0.4848
X2.4902Y-0.5134
X2.4902Y-0.5488
X2.4921Y-0.6799
X2.4921Y-0.7177
X2.5Y-0.4035
X2.5094Y-0.3108
X2.5217Y-0.4848
X2.5217Y-0.5134
X2.5248Y-0.3693
X2.5256Y-0.4469
X2.5256Y-0.5488
X2.5315Y-0.6799
X2.5413Y-0.3108
X2.5486Y-0.1108
X2.5531Y-0.4848
X2.5531Y-0.5134
X2.5591Y-0.3697
X2.5618Y-0.4469
X2.5618Y-0.5488
X2.5709Y-0.6799
X2.5815Y-0.4994
X2.6014Y-0.628
X2.6102Y-0.6799
X2.6102Y-0.7177
X2.613Y-0.4994
X2.6347Y-0.6263
X2.6457Y-0.3925
X2.6496Y-0.7189
X2.6512Y-0.3134
X2.6512Y-0.3594
X2.6673Y-0.6256
X2.6732Y-0.3362
X2.6772Y-0.0787
X2.7953Y-0.0787
X2.9134Y-0.0787
X2.9134Y-0.1575
X2.9646Y-0.9252
X3.0268Y-0.8835
X3.0315Y-0.0787
X3.0315Y-0.1575
X3.0457Y-0.8583
X3.0512Y-0.2264
X3.0512Y-0.3051
X3.0709Y-0.4547
X3.0709Y-0.5358
X3.0992Y-0.8838
X3.1232Y-0.4539
X3.1272Y-0.5358
X3.1276Y-0.9097
X3.1327Y-0.8589
X3.1398Y-0.2264
X3.1398Y-0.3051
X3.1496Y-0.0787
X3.1496Y-0.1575
X3.1764Y-0.6988
X3.1791Y-0.4539
X3.189Y-0.9252
X3.2283Y-0.2264
X3.2441Y-0.6004
X3.2441Y-0.6791
X3.2441Y-0.7185
X3.2917Y-0.4543
T2
X0.678Y-0.7909
X0.7697Y-0.7835
X0.8012Y-0.7087
X0.8012Y-0.7589
X0.8012Y-0.811
X0.8524Y-0.7087
X0.8524Y-0.7589
X0.8524Y-0.811
X0.9045Y-0.7087
X0.9045Y-0.7589
X0.9045Y-0.811
X0.935Y-0.7874
X1.0456Y-0.7524
T4
X0.4201Y-0.9067
X0.5201Y-0.9067
X0.6201Y-0.9067
X0.8291Y-0.4882
X0.9291Y-0.4882
X1.1114Y-0.361
X1.2114Y-0.361
X1.3114Y-0.361
X1.4114Y-0.361
X3.3071Y-0.1827
X3.3071Y-0.2827
X3.3071Y-0.3827
T5
X0.5118Y-0.1575
T3
G00X3.2104Y-0.4992
M15
G01X3.2537Y-0.4992
M16
G05
G00X3.2104Y-0.8394
M15
G01X3.2537Y-0.8394
M16
G05
G00X3.3848Y-0.4992
M15
G01X3.4085Y-0.4992
M16
G05
G00X3.3848Y-0.8394
M15
G01X3.4085Y-0.8394
M16
G05
M30
