%TF.GenerationSoftware,KiCad,Pcbnew,8.0.3*%
%TF.CreationDate,2024-06-27T20:48:53-04:00*%
%TF.ProjectId,charger-module,63686172-6765-4722-9d6d-6f64756c652e,v0.0.0*%
%TF.SameCoordinates,Original*%
%TF.FileFunction,Paste,Top*%
%TF.FilePolarity,Positive*%
%FSLAX46Y46*%
G04 Gerber Fmt 4.6, Leading zero omitted, Abs format (unit mm)*
G04 Created by KiCad (PCBNEW 8.0.3) date 2024-06-27 20:48:53*
%MOMM*%
%LPD*%
G01*
G04 APERTURE LIST*
G04 Aperture macros list*
%AMRoundRect*
0 Rectangle with rounded corners*
0 $1 Rounding radius*
0 $2 $3 $4 $5 $6 $7 $8 $9 X,Y pos of 4 corners*
0 Add a 4 corners polygon primitive as box body*
4,1,4,$2,$3,$4,$5,$6,$7,$8,$9,$2,$3,0*
0 Add four circle primitives for the rounded corners*
1,1,$1+$1,$2,$3*
1,1,$1+$1,$4,$5*
1,1,$1+$1,$6,$7*
1,1,$1+$1,$8,$9*
0 Add four rect primitives between the rounded corners*
20,1,$1+$1,$2,$3,$4,$5,0*
20,1,$1+$1,$4,$5,$6,$7,0*
20,1,$1+$1,$6,$7,$8,$9,0*
20,1,$1+$1,$8,$9,$2,$3,0*%
%AMFreePoly0*
4,1,5,0.450000,-0.150000,-0.450000,-0.150000,-0.450000,0.150000,0.450000,0.150000,0.450000,-0.150000,0.450000,-0.150000,$1*%
%AMFreePoly1*
4,1,5,0.150000,-0.475000,-0.150000,-0.475000,-0.150000,0.475000,0.150000,0.475000,0.150000,-0.475000,0.150000,-0.475000,$1*%
G04 Aperture macros list end*
%ADD10RoundRect,0.140000X-0.140000X-0.170000X0.140000X-0.170000X0.140000X0.170000X-0.140000X0.170000X0*%
%ADD11R,1.150000X0.300000*%
%ADD12RoundRect,0.200000X0.275000X-0.200000X0.275000X0.200000X-0.275000X0.200000X-0.275000X-0.200000X0*%
%ADD13RoundRect,0.250000X-0.650000X0.325000X-0.650000X-0.325000X0.650000X-0.325000X0.650000X0.325000X0*%
%ADD14RoundRect,0.135000X-0.185000X0.135000X-0.185000X-0.135000X0.185000X-0.135000X0.185000X0.135000X0*%
%ADD15RoundRect,0.140000X0.140000X0.170000X-0.140000X0.170000X-0.140000X-0.170000X0.140000X-0.170000X0*%
%ADD16R,3.500000X2.350000*%
%ADD17RoundRect,0.135000X0.185000X-0.135000X0.185000X0.135000X-0.185000X0.135000X-0.185000X-0.135000X0*%
%ADD18RoundRect,0.250000X-0.475000X0.250000X-0.475000X-0.250000X0.475000X-0.250000X0.475000X0.250000X0*%
%ADD19RoundRect,0.140000X-0.170000X0.140000X-0.170000X-0.140000X0.170000X-0.140000X0.170000X0.140000X0*%
%ADD20RoundRect,0.250000X1.500000X0.550000X-1.500000X0.550000X-1.500000X-0.550000X1.500000X-0.550000X0*%
%ADD21RoundRect,0.140000X0.170000X-0.140000X0.170000X0.140000X-0.170000X0.140000X-0.170000X-0.140000X0*%
%ADD22RoundRect,0.375000X-0.375000X0.625000X-0.375000X-0.625000X0.375000X-0.625000X0.375000X0.625000X0*%
%ADD23RoundRect,0.500000X-1.400000X0.500000X-1.400000X-0.500000X1.400000X-0.500000X1.400000X0.500000X0*%
%ADD24RoundRect,0.250000X-0.250000X-0.475000X0.250000X-0.475000X0.250000X0.475000X-0.250000X0.475000X0*%
%ADD25RoundRect,0.250000X0.475000X-0.250000X0.475000X0.250000X-0.475000X0.250000X-0.475000X-0.250000X0*%
%ADD26RoundRect,0.250000X0.250000X0.475000X-0.250000X0.475000X-0.250000X-0.475000X0.250000X-0.475000X0*%
%ADD27RoundRect,0.250000X0.650000X-0.325000X0.650000X0.325000X-0.650000X0.325000X-0.650000X-0.325000X0*%
%ADD28R,2.100000X0.300000*%
%ADD29R,2.100000X0.400000*%
%ADD30FreePoly0,0.000000*%
%ADD31FreePoly1,0.000000*%
%ADD32R,0.250000X0.950000*%
%ADD33R,1.300000X0.300000*%
%ADD34RoundRect,0.250000X0.375000X0.625000X-0.375000X0.625000X-0.375000X-0.625000X0.375000X-0.625000X0*%
%ADD35RoundRect,0.250000X-1.000000X1.500000X-1.000000X-1.500000X1.000000X-1.500000X1.000000X1.500000X0*%
%ADD36RoundRect,0.249999X-0.395001X0.395001X-0.395001X-0.395001X0.395001X-0.395001X0.395001X0.395001X0*%
%ADD37RoundRect,0.050000X-0.050000X0.387500X-0.050000X-0.387500X0.050000X-0.387500X0.050000X0.387500X0*%
%ADD38RoundRect,0.050000X-0.387500X0.050000X-0.387500X-0.050000X0.387500X-0.050000X0.387500X0.050000X0*%
%ADD39R,1.200000X1.400000*%
%ADD40RoundRect,0.407500X0.415000X0.407500X-0.415000X0.407500X-0.415000X-0.407500X0.415000X-0.407500X0*%
%ADD41RoundRect,0.102500X0.257500X0.102500X-0.257500X0.102500X-0.257500X-0.102500X0.257500X-0.102500X0*%
%ADD42R,0.510000X0.585000*%
%ADD43R,0.410000X0.470000*%
%ADD44RoundRect,0.135000X-0.135000X-0.185000X0.135000X-0.185000X0.135000X0.185000X-0.135000X0.185000X0*%
%ADD45R,0.800000X0.750000*%
%ADD46R,0.800000X0.600000*%
%ADD47R,0.800000X0.400000*%
%ADD48R,0.800000X0.800000*%
%ADD49RoundRect,0.225000X0.225000X0.250000X-0.225000X0.250000X-0.225000X-0.250000X0.225000X-0.250000X0*%
%ADD50RoundRect,0.135000X0.135000X0.185000X-0.135000X0.185000X-0.135000X-0.185000X0.135000X-0.185000X0*%
%ADD51R,5.100000X3.500000*%
%ADD52RoundRect,0.150000X-0.650000X-0.150000X0.650000X-0.150000X0.650000X0.150000X-0.650000X0.150000X0*%
%ADD53RoundRect,0.225000X-0.225000X-0.250000X0.225000X-0.250000X0.225000X0.250000X-0.225000X0.250000X0*%
%ADD54R,1.050000X0.400000*%
%ADD55R,2.350000X3.500000*%
G04 APERTURE END LIST*
D10*
%TO.C,C1*%
X66380000Y-8540000D03*
X67340000Y-8540000D03*
%TD*%
D11*
%TO.C,J3*%
X81530000Y-20350000D03*
X81530000Y-19550000D03*
X81530000Y-18250000D03*
X81530000Y-17250000D03*
X81530000Y-16750000D03*
X81530000Y-15750000D03*
X81530000Y-14450000D03*
X81530000Y-13650000D03*
X81530000Y-13950000D03*
X81530000Y-14750000D03*
X81530000Y-15250000D03*
X81530000Y-16250000D03*
X81530000Y-17750000D03*
X81530000Y-18750000D03*
X81530000Y-19250000D03*
X81530000Y-20050000D03*
%TD*%
D12*
%TO.C,R7*%
X81470000Y-10755000D03*
X81470000Y-9105000D03*
%TD*%
D13*
%TO.C,C5*%
X56640000Y-8925000D03*
X56640000Y-11875000D03*
%TD*%
D14*
%TO.C,R8*%
X23580000Y-9030000D03*
X23580000Y-10050000D03*
%TD*%
D15*
%TO.C,C34*%
X16510000Y-19610000D03*
X15550000Y-19610000D03*
%TD*%
D16*
%TO.C,L2*%
X73110000Y-9665000D03*
X73110000Y-15715000D03*
%TD*%
D17*
%TO.C,R16*%
X54080000Y-16590000D03*
X54080000Y-15570000D03*
%TD*%
D18*
%TO.C,C6*%
X61070000Y-10050000D03*
X61070000Y-11950000D03*
%TD*%
D19*
%TO.C,C22*%
X14450000Y-19870000D03*
X14450000Y-20830000D03*
%TD*%
%TO.C,C18*%
X66300000Y-17270000D03*
X66300000Y-18230000D03*
%TD*%
D14*
%TO.C,R1*%
X67300000Y-17240000D03*
X67300000Y-18260000D03*
%TD*%
D20*
%TO.C,C15*%
X60950000Y-20850000D03*
X55550000Y-20850000D03*
%TD*%
D21*
%TO.C,C36*%
X29975000Y-23005000D03*
X29975000Y-22045000D03*
%TD*%
D22*
%TO.C,U2*%
X44370000Y-12360000D03*
X42070000Y-12360000D03*
D23*
X42070000Y-18660000D03*
D22*
X39770000Y-12360000D03*
%TD*%
D12*
%TO.C,R3*%
X68830000Y-10535000D03*
X68830000Y-8885000D03*
%TD*%
D10*
%TO.C,C30*%
X26990000Y-22300000D03*
X27950000Y-22300000D03*
%TD*%
%TO.C,C26*%
X27645000Y-18675000D03*
X28605000Y-18675000D03*
%TD*%
%TO.C,C29*%
X27645000Y-19700000D03*
X28605000Y-19700000D03*
%TD*%
D15*
%TO.C,C27*%
X16505000Y-20630000D03*
X15545000Y-20630000D03*
%TD*%
D24*
%TO.C,C23*%
X39520000Y-10110000D03*
X41420000Y-10110000D03*
%TD*%
D17*
%TO.C,R15*%
X55020000Y-16590000D03*
X55020000Y-15570000D03*
%TD*%
D14*
%TO.C,R13*%
X14380000Y-11730000D03*
X14380000Y-12750000D03*
%TD*%
D10*
%TO.C,C31*%
X24245000Y-14675000D03*
X25205000Y-14675000D03*
%TD*%
D25*
%TO.C,C13*%
X61070000Y-15350000D03*
X61070000Y-13450000D03*
%TD*%
D26*
%TO.C,C20*%
X79990000Y-10420000D03*
X78090000Y-10420000D03*
%TD*%
D13*
%TO.C,C14*%
X78650000Y-12615000D03*
X78650000Y-15565000D03*
%TD*%
D19*
%TO.C,C16*%
X65300000Y-17270000D03*
X65300000Y-18230000D03*
%TD*%
D27*
%TO.C,C10*%
X56640000Y-16475000D03*
X56640000Y-13525000D03*
%TD*%
D28*
%TO.C,U1*%
X64300000Y-11385000D03*
D29*
X64300000Y-12685000D03*
X64300000Y-13935000D03*
D30*
X63700000Y-14685000D03*
D31*
X64000000Y-15010000D03*
D32*
X64550000Y-15010000D03*
X65050000Y-15010000D03*
X65550000Y-15010000D03*
X66050000Y-15010000D03*
X66550000Y-15010000D03*
D31*
X67100000Y-15010000D03*
D30*
X67400000Y-14685000D03*
D33*
X67200000Y-13985000D03*
D28*
X66800000Y-13385000D03*
D33*
X67200000Y-12685000D03*
D28*
X66800000Y-11985000D03*
D33*
X67200000Y-11385000D03*
D31*
X67100000Y-10360000D03*
D30*
X67400000Y-10685000D03*
D32*
X66550000Y-10360000D03*
X66050000Y-10360000D03*
X65550000Y-10360000D03*
X65050000Y-10360000D03*
X64550000Y-10360000D03*
D30*
X63700000Y-10685000D03*
D31*
X64000000Y-10360000D03*
%TD*%
D34*
%TO.C,F1*%
X14770000Y-9700000D03*
X11970000Y-9700000D03*
%TD*%
D19*
%TO.C,C17*%
X64300000Y-17270000D03*
X64300000Y-18230000D03*
%TD*%
D27*
%TO.C,C12*%
X58940000Y-16475000D03*
X58940000Y-13525000D03*
%TD*%
D25*
%TO.C,C37*%
X18200000Y-14125000D03*
X18200000Y-12225000D03*
%TD*%
D19*
%TO.C,C19*%
X63300000Y-17270000D03*
X63300000Y-18230000D03*
%TD*%
D15*
%TO.C,C2*%
X65220000Y-8540000D03*
X64260000Y-8540000D03*
%TD*%
D35*
%TO.C,C3*%
X51070000Y-6730000D03*
X51070000Y-13230000D03*
%TD*%
D36*
%TO.C,U4*%
X22450000Y-18500000D03*
X20850000Y-18500000D03*
X22450000Y-20100000D03*
X20850000Y-20100000D03*
D37*
X24250000Y-15862500D03*
X23850000Y-15862500D03*
X23450000Y-15862500D03*
X23050000Y-15862500D03*
X22650000Y-15862500D03*
X22250000Y-15862500D03*
X21850000Y-15862500D03*
X21450000Y-15862500D03*
X21050000Y-15862500D03*
X20650000Y-15862500D03*
X20250000Y-15862500D03*
X19850000Y-15862500D03*
X19450000Y-15862500D03*
X19050000Y-15862500D03*
D38*
X18212500Y-16700000D03*
X18212500Y-17100000D03*
X18212500Y-17500000D03*
X18212500Y-17900000D03*
X18212500Y-18300000D03*
X18212500Y-18700000D03*
X18212500Y-19100000D03*
X18212500Y-19500000D03*
X18212500Y-19900000D03*
X18212500Y-20300000D03*
X18212500Y-20700000D03*
X18212500Y-21100000D03*
X18212500Y-21500000D03*
X18212500Y-21900000D03*
D37*
X19050000Y-22737500D03*
X19450000Y-22737500D03*
X19850000Y-22737500D03*
X20250000Y-22737500D03*
X20650000Y-22737500D03*
X21050000Y-22737500D03*
X21450000Y-22737500D03*
X21850000Y-22737500D03*
X22250000Y-22737500D03*
X22650000Y-22737500D03*
X23050000Y-22737500D03*
X23450000Y-22737500D03*
X23850000Y-22737500D03*
X24250000Y-22737500D03*
D38*
X25087500Y-21900000D03*
X25087500Y-21500000D03*
X25087500Y-21100000D03*
X25087500Y-20700000D03*
X25087500Y-20300000D03*
X25087500Y-19900000D03*
X25087500Y-19500000D03*
X25087500Y-19100000D03*
X25087500Y-18700000D03*
X25087500Y-18300000D03*
X25087500Y-17900000D03*
X25087500Y-17500000D03*
X25087500Y-17100000D03*
X25087500Y-16700000D03*
%TD*%
D39*
%TO.C,Y1*%
X11300000Y-17950000D03*
X11300000Y-20150000D03*
X13000000Y-20150000D03*
X13000000Y-17950000D03*
%TD*%
D26*
%TO.C,C24*%
X39300000Y-20900000D03*
X37400000Y-20900000D03*
%TD*%
D14*
%TO.C,R9*%
X24780000Y-9030000D03*
X24780000Y-10050000D03*
%TD*%
D40*
%TO.C,Q1*%
X61912500Y-5655000D03*
X61912500Y-3725000D03*
X59967500Y-5655000D03*
X59967500Y-3725000D03*
D41*
X64735000Y-6595000D03*
X64735000Y-5325000D03*
X64735000Y-4055000D03*
X64735000Y-2785000D03*
D42*
X62020000Y-6962500D03*
X62020000Y-2417500D03*
D43*
X59150000Y-6905000D03*
X59150000Y-2475000D03*
%TD*%
D44*
%TO.C,R4*%
X33740000Y-19025000D03*
X34760000Y-19025000D03*
%TD*%
D12*
%TO.C,R6*%
X68830000Y-16485000D03*
X68830000Y-14835000D03*
%TD*%
D45*
%TO.C,D2*%
X87250000Y-8500000D03*
D46*
X87250000Y-7375000D03*
D47*
X87250000Y-6495000D03*
D48*
X87250000Y-5515000D03*
%TD*%
D49*
%TO.C,C11*%
X70355000Y-17870000D03*
X68805000Y-17870000D03*
%TD*%
D13*
%TO.C,C4*%
X58940000Y-8925000D03*
X58940000Y-11875000D03*
%TD*%
D15*
%TO.C,C32*%
X18920000Y-23900000D03*
X17960000Y-23900000D03*
%TD*%
D50*
%TO.C,R12*%
X30585000Y-21025000D03*
X29565000Y-21025000D03*
%TD*%
D10*
%TO.C,C28*%
X26990000Y-21300000D03*
X27950000Y-21300000D03*
%TD*%
D51*
%TO.C,R2*%
X50800000Y-17690000D03*
X50800000Y-21800000D03*
%TD*%
D21*
%TO.C,C35*%
X28950000Y-23005000D03*
X28950000Y-22045000D03*
%TD*%
D52*
%TO.C,U3*%
X27775000Y-12270000D03*
X27775000Y-13540000D03*
X27775000Y-14810000D03*
X27775000Y-16080000D03*
X34975000Y-16080000D03*
X34975000Y-14810000D03*
X34975000Y-13540000D03*
X34975000Y-12270000D03*
%TD*%
D50*
%TO.C,R11*%
X30585000Y-20000000D03*
X29565000Y-20000000D03*
%TD*%
D14*
%TO.C,R14*%
X14380000Y-13700000D03*
X14380000Y-14720000D03*
%TD*%
D21*
%TO.C,C25*%
X25980000Y-10020000D03*
X25980000Y-9060000D03*
%TD*%
D53*
%TO.C,C7*%
X68805000Y-7500000D03*
X70355000Y-7500000D03*
%TD*%
D10*
%TO.C,C8*%
X31820000Y-19025000D03*
X32780000Y-19025000D03*
%TD*%
D54*
%TO.C,D1*%
X79140000Y-23090000D03*
X79140000Y-22440000D03*
X79140000Y-21790000D03*
X77240000Y-21790000D03*
X77240000Y-22440000D03*
X77240000Y-23090000D03*
%TD*%
D55*
%TO.C,L1*%
X39125000Y-5480000D03*
X45175000Y-5480000D03*
%TD*%
D50*
%TO.C,R10*%
X16540000Y-18600000D03*
X15520000Y-18600000D03*
%TD*%
D10*
%TO.C,C33*%
X20090000Y-14675000D03*
X21050000Y-14675000D03*
%TD*%
D21*
%TO.C,C21*%
X14450000Y-18355000D03*
X14450000Y-17395000D03*
%TD*%
M02*
