%TF.GenerationSoftware,KiCad,Pcbnew,8.0.3*%
%TF.CreationDate,2024-06-27T20:48:53-04:00*%
%TF.ProjectId,charger-module,63686172-6765-4722-9d6d-6f64756c652e,v0.0.0*%
%TF.SameCoordinates,Original*%
%TF.FileFunction,Legend,Top*%
%TF.FilePolarity,Positive*%
%FSLAX46Y46*%
G04 Gerber Fmt 4.6, Leading zero omitted, Abs format (unit mm)*
G04 Created by KiCad (PCBNEW 8.0.3) date 2024-06-27 20:48:53*
%MOMM*%
%LPD*%
G01*
G04 APERTURE LIST*
G04 Aperture macros list*
%AMRoundRect*
0 Rectangle with rounded corners*
0 $1 Rounding radius*
0 $2 $3 $4 $5 $6 $7 $8 $9 X,Y pos of 4 corners*
0 Add a 4 corners polygon primitive as box body*
4,1,4,$2,$3,$4,$5,$6,$7,$8,$9,$2,$3,0*
0 Add four circle primitives for the rounded corners*
1,1,$1+$1,$2,$3*
1,1,$1+$1,$4,$5*
1,1,$1+$1,$6,$7*
1,1,$1+$1,$8,$9*
0 Add four rect primitives between the rounded corners*
20,1,$1+$1,$2,$3,$4,$5,0*
20,1,$1+$1,$4,$5,$6,$7,0*
20,1,$1+$1,$6,$7,$8,$9,0*
20,1,$1+$1,$8,$9,$2,$3,0*%
%AMFreePoly0*
4,1,5,0.450000,-0.150000,-0.450000,-0.150000,-0.450000,0.150000,0.450000,0.150000,0.450000,-0.150000,0.450000,-0.150000,$1*%
%AMFreePoly1*
4,1,5,0.150000,-0.475000,-0.150000,-0.475000,-0.150000,0.475000,0.150000,0.475000,0.150000,-0.475000,0.150000,-0.475000,$1*%
G04 Aperture macros list end*
%ADD10C,0.150000*%
%ADD11C,0.120000*%
%ADD12C,0.200000*%
%ADD13RoundRect,0.140000X-0.140000X-0.170000X0.140000X-0.170000X0.140000X0.170000X-0.140000X0.170000X0*%
%ADD14C,0.650000*%
%ADD15R,1.150000X0.300000*%
%ADD16O,2.100000X1.000000*%
%ADD17O,1.600000X1.000000*%
%ADD18RoundRect,0.200000X0.275000X-0.200000X0.275000X0.200000X-0.275000X0.200000X-0.275000X-0.200000X0*%
%ADD19RoundRect,0.250000X-0.650000X0.325000X-0.650000X-0.325000X0.650000X-0.325000X0.650000X0.325000X0*%
%ADD20RoundRect,0.135000X-0.185000X0.135000X-0.185000X-0.135000X0.185000X-0.135000X0.185000X0.135000X0*%
%ADD21RoundRect,0.140000X0.140000X0.170000X-0.140000X0.170000X-0.140000X-0.170000X0.140000X-0.170000X0*%
%ADD22R,3.500000X2.350000*%
%ADD23RoundRect,0.135000X0.185000X-0.135000X0.185000X0.135000X-0.185000X0.135000X-0.185000X-0.135000X0*%
%ADD24RoundRect,0.250000X-0.475000X0.250000X-0.475000X-0.250000X0.475000X-0.250000X0.475000X0.250000X0*%
%ADD25RoundRect,0.140000X-0.170000X0.140000X-0.170000X-0.140000X0.170000X-0.140000X0.170000X0.140000X0*%
%ADD26RoundRect,0.250000X1.500000X0.550000X-1.500000X0.550000X-1.500000X-0.550000X1.500000X-0.550000X0*%
%ADD27RoundRect,0.140000X0.170000X-0.140000X0.170000X0.140000X-0.170000X0.140000X-0.170000X-0.140000X0*%
%ADD28RoundRect,0.375000X-0.375000X0.625000X-0.375000X-0.625000X0.375000X-0.625000X0.375000X0.625000X0*%
%ADD29RoundRect,0.500000X-1.400000X0.500000X-1.400000X-0.500000X1.400000X-0.500000X1.400000X0.500000X0*%
%ADD30R,1.700000X1.700000*%
%ADD31O,1.700000X1.700000*%
%ADD32RoundRect,0.250000X-0.250000X-0.475000X0.250000X-0.475000X0.250000X0.475000X-0.250000X0.475000X0*%
%ADD33RoundRect,0.250000X0.475000X-0.250000X0.475000X0.250000X-0.475000X0.250000X-0.475000X-0.250000X0*%
%ADD34RoundRect,0.250000X0.250000X0.475000X-0.250000X0.475000X-0.250000X-0.475000X0.250000X-0.475000X0*%
%ADD35R,4.300000X0.700000*%
%ADD36R,3.200000X0.700000*%
%ADD37RoundRect,0.250000X0.650000X-0.325000X0.650000X0.325000X-0.650000X0.325000X-0.650000X-0.325000X0*%
%ADD38R,2.100000X0.300000*%
%ADD39R,2.100000X0.400000*%
%ADD40FreePoly0,0.000000*%
%ADD41FreePoly1,0.000000*%
%ADD42R,0.250000X0.950000*%
%ADD43R,1.300000X0.300000*%
%ADD44RoundRect,0.250000X0.375000X0.625000X-0.375000X0.625000X-0.375000X-0.625000X0.375000X-0.625000X0*%
%ADD45RoundRect,0.250000X-1.000000X1.500000X-1.000000X-1.500000X1.000000X-1.500000X1.000000X1.500000X0*%
%ADD46RoundRect,0.050000X-0.050000X0.387500X-0.050000X-0.387500X0.050000X-0.387500X0.050000X0.387500X0*%
%ADD47RoundRect,0.050000X-0.387500X0.050000X-0.387500X-0.050000X0.387500X-0.050000X0.387500X0.050000X0*%
%ADD48R,3.200000X3.200000*%
%ADD49R,1.200000X1.400000*%
%ADD50RoundRect,0.102500X0.257500X0.102500X-0.257500X0.102500X-0.257500X-0.102500X0.257500X-0.102500X0*%
%ADD51R,0.510000X0.585000*%
%ADD52R,3.990000X3.960000*%
%ADD53R,0.410000X0.470000*%
%ADD54RoundRect,0.135000X-0.135000X-0.185000X0.135000X-0.185000X0.135000X0.185000X-0.135000X0.185000X0*%
%ADD55R,0.800000X0.750000*%
%ADD56R,0.800000X0.600000*%
%ADD57R,0.800000X0.400000*%
%ADD58R,0.800000X0.800000*%
%ADD59RoundRect,0.225000X0.225000X0.250000X-0.225000X0.250000X-0.225000X-0.250000X0.225000X-0.250000X0*%
%ADD60C,6.000000*%
%ADD61RoundRect,0.135000X0.135000X0.185000X-0.135000X0.185000X-0.135000X-0.185000X0.135000X-0.185000X0*%
%ADD62R,5.100000X3.500000*%
%ADD63RoundRect,0.150000X-0.650000X-0.150000X0.650000X-0.150000X0.650000X0.150000X-0.650000X0.150000X0*%
%ADD64RoundRect,0.225000X-0.225000X-0.250000X0.225000X-0.250000X0.225000X0.250000X-0.225000X0.250000X0*%
%ADD65R,1.050000X0.400000*%
%ADD66R,2.350000X3.500000*%
G04 APERTURE END LIST*
D10*
X19820112Y-9946009D02*
X19962969Y-9993628D01*
X19962969Y-9993628D02*
X20010588Y-10041247D01*
X20010588Y-10041247D02*
X20058207Y-10136485D01*
X20058207Y-10136485D02*
X20058207Y-10279342D01*
X20058207Y-10279342D02*
X20010588Y-10374580D01*
X20010588Y-10374580D02*
X19962969Y-10422200D01*
X19962969Y-10422200D02*
X19867731Y-10469819D01*
X19867731Y-10469819D02*
X19486779Y-10469819D01*
X19486779Y-10469819D02*
X19486779Y-9469819D01*
X19486779Y-9469819D02*
X19820112Y-9469819D01*
X19820112Y-9469819D02*
X19915350Y-9517438D01*
X19915350Y-9517438D02*
X19962969Y-9565057D01*
X19962969Y-9565057D02*
X20010588Y-9660295D01*
X20010588Y-9660295D02*
X20010588Y-9755533D01*
X20010588Y-9755533D02*
X19962969Y-9850771D01*
X19962969Y-9850771D02*
X19915350Y-9898390D01*
X19915350Y-9898390D02*
X19820112Y-9946009D01*
X19820112Y-9946009D02*
X19486779Y-9946009D01*
X20677255Y-9469819D02*
X20867731Y-9469819D01*
X20867731Y-9469819D02*
X20962969Y-9517438D01*
X20962969Y-9517438D02*
X21058207Y-9612676D01*
X21058207Y-9612676D02*
X21105826Y-9803152D01*
X21105826Y-9803152D02*
X21105826Y-10136485D01*
X21105826Y-10136485D02*
X21058207Y-10326961D01*
X21058207Y-10326961D02*
X20962969Y-10422200D01*
X20962969Y-10422200D02*
X20867731Y-10469819D01*
X20867731Y-10469819D02*
X20677255Y-10469819D01*
X20677255Y-10469819D02*
X20582017Y-10422200D01*
X20582017Y-10422200D02*
X20486779Y-10326961D01*
X20486779Y-10326961D02*
X20439160Y-10136485D01*
X20439160Y-10136485D02*
X20439160Y-9803152D01*
X20439160Y-9803152D02*
X20486779Y-9612676D01*
X20486779Y-9612676D02*
X20582017Y-9517438D01*
X20582017Y-9517438D02*
X20677255Y-9469819D01*
X21724874Y-9469819D02*
X21915350Y-9469819D01*
X21915350Y-9469819D02*
X22010588Y-9517438D01*
X22010588Y-9517438D02*
X22105826Y-9612676D01*
X22105826Y-9612676D02*
X22153445Y-9803152D01*
X22153445Y-9803152D02*
X22153445Y-10136485D01*
X22153445Y-10136485D02*
X22105826Y-10326961D01*
X22105826Y-10326961D02*
X22010588Y-10422200D01*
X22010588Y-10422200D02*
X21915350Y-10469819D01*
X21915350Y-10469819D02*
X21724874Y-10469819D01*
X21724874Y-10469819D02*
X21629636Y-10422200D01*
X21629636Y-10422200D02*
X21534398Y-10326961D01*
X21534398Y-10326961D02*
X21486779Y-10136485D01*
X21486779Y-10136485D02*
X21486779Y-9803152D01*
X21486779Y-9803152D02*
X21534398Y-9612676D01*
X21534398Y-9612676D02*
X21629636Y-9517438D01*
X21629636Y-9517438D02*
X21724874Y-9469819D01*
X22439160Y-9469819D02*
X23010588Y-9469819D01*
X22724874Y-10469819D02*
X22724874Y-9469819D01*
X35343041Y-6125984D02*
X35242026Y-6159656D01*
X35242026Y-6159656D02*
X35141010Y-6260671D01*
X35141010Y-6260671D02*
X35073667Y-6395358D01*
X35073667Y-6395358D02*
X35073667Y-6530046D01*
X35073667Y-6530046D02*
X35107339Y-6631061D01*
X35107339Y-6631061D02*
X35208354Y-6799420D01*
X35208354Y-6799420D02*
X35309369Y-6900435D01*
X35309369Y-6900435D02*
X35477728Y-7001450D01*
X35477728Y-7001450D02*
X35578743Y-7035122D01*
X35578743Y-7035122D02*
X35713430Y-7035122D01*
X35713430Y-7035122D02*
X35848117Y-6967778D01*
X35848117Y-6967778D02*
X35915461Y-6900435D01*
X35915461Y-6900435D02*
X35982804Y-6765748D01*
X35982804Y-6765748D02*
X35982804Y-6698404D01*
X35982804Y-6698404D02*
X35747102Y-6462702D01*
X35747102Y-6462702D02*
X35612415Y-6597389D01*
X36353193Y-6462702D02*
X35646087Y-5755595D01*
X35646087Y-5755595D02*
X36757254Y-6058641D01*
X36757254Y-6058641D02*
X36050148Y-5351534D01*
X37093972Y-5721924D02*
X36386865Y-5014817D01*
X36386865Y-5014817D02*
X36555224Y-4846458D01*
X36555224Y-4846458D02*
X36689911Y-4779114D01*
X36689911Y-4779114D02*
X36824598Y-4779114D01*
X36824598Y-4779114D02*
X36925613Y-4812786D01*
X36925613Y-4812786D02*
X37093972Y-4913801D01*
X37093972Y-4913801D02*
X37194987Y-5014817D01*
X37194987Y-5014817D02*
X37296002Y-5183175D01*
X37296002Y-5183175D02*
X37329674Y-5284191D01*
X37329674Y-5284191D02*
X37329674Y-5418878D01*
X37329674Y-5418878D02*
X37262331Y-5553565D01*
X37262331Y-5553565D02*
X37093972Y-5721924D01*
X30646087Y-7169809D02*
X29938980Y-6462702D01*
X29938980Y-6462702D02*
X30107339Y-6294343D01*
X30107339Y-6294343D02*
X30242026Y-6227000D01*
X30242026Y-6227000D02*
X30376713Y-6227000D01*
X30376713Y-6227000D02*
X30477728Y-6260671D01*
X30477728Y-6260671D02*
X30646087Y-6361687D01*
X30646087Y-6361687D02*
X30747102Y-6462702D01*
X30747102Y-6462702D02*
X30848117Y-6631061D01*
X30848117Y-6631061D02*
X30881789Y-6732076D01*
X30881789Y-6732076D02*
X30881789Y-6866763D01*
X30881789Y-6866763D02*
X30814445Y-7001450D01*
X30814445Y-7001450D02*
X30646087Y-7169809D01*
X31083819Y-6193328D02*
X31622567Y-5654580D01*
X31622567Y-6193328D02*
X31083819Y-5654580D01*
X27775697Y-6125984D02*
X27438980Y-6462702D01*
X27438980Y-6462702D02*
X27742026Y-6833091D01*
X27742026Y-6833091D02*
X27742026Y-6765748D01*
X27742026Y-6765748D02*
X27775697Y-6664733D01*
X27775697Y-6664733D02*
X27944056Y-6496374D01*
X27944056Y-6496374D02*
X28045071Y-6462702D01*
X28045071Y-6462702D02*
X28112415Y-6462702D01*
X28112415Y-6462702D02*
X28213430Y-6496374D01*
X28213430Y-6496374D02*
X28381789Y-6664733D01*
X28381789Y-6664733D02*
X28415461Y-6765748D01*
X28415461Y-6765748D02*
X28415461Y-6833091D01*
X28415461Y-6833091D02*
X28381789Y-6934107D01*
X28381789Y-6934107D02*
X28213430Y-7102465D01*
X28213430Y-7102465D02*
X28112415Y-7136137D01*
X28112415Y-7136137D02*
X28045071Y-7136137D01*
X28011400Y-5890282D02*
X28954209Y-6361687D01*
X28954209Y-6361687D02*
X28482804Y-5418878D01*
X33146087Y-7169809D02*
X32438980Y-6462702D01*
X32438980Y-6462702D02*
X32607339Y-6294343D01*
X32607339Y-6294343D02*
X32742026Y-6227000D01*
X32742026Y-6227000D02*
X32876713Y-6227000D01*
X32876713Y-6227000D02*
X32977728Y-6260671D01*
X32977728Y-6260671D02*
X33146087Y-6361687D01*
X33146087Y-6361687D02*
X33247102Y-6462702D01*
X33247102Y-6462702D02*
X33348117Y-6631061D01*
X33348117Y-6631061D02*
X33381789Y-6732076D01*
X33381789Y-6732076D02*
X33381789Y-6866763D01*
X33381789Y-6866763D02*
X33314445Y-7001450D01*
X33314445Y-7001450D02*
X33146087Y-7169809D01*
X33583819Y-6193328D02*
X34122567Y-5654580D01*
D11*
%TO.C,C1*%
X66752164Y-8180000D02*
X66967836Y-8180000D01*
X66752164Y-8900000D02*
X66967836Y-8900000D01*
%TO.C,J3*%
X83350000Y-21580000D02*
X85270000Y-21580000D01*
X85270000Y-12420000D02*
X83350000Y-12420000D01*
X87280000Y-12420000D02*
X88875000Y-12420000D01*
X88875000Y-21580000D02*
X87280000Y-21580000D01*
%TO.C,R7*%
X80947500Y-10167258D02*
X80947500Y-9692742D01*
X81992500Y-10167258D02*
X81992500Y-9692742D01*
%TO.C,C5*%
X55730000Y-9688748D02*
X55730000Y-11111252D01*
X57550000Y-9688748D02*
X57550000Y-11111252D01*
%TO.C,R8*%
X23200000Y-9386359D02*
X23200000Y-9693641D01*
X23960000Y-9386359D02*
X23960000Y-9693641D01*
%TO.C,C34*%
X16137836Y-19250000D02*
X15922164Y-19250000D01*
X16137836Y-19970000D02*
X15922164Y-19970000D01*
%TO.C,L2*%
X69550000Y-8930000D02*
X69550000Y-16450000D01*
X69550000Y-8930000D02*
X71100000Y-8930000D01*
X69550000Y-16450000D02*
X71100000Y-16450000D01*
X76670000Y-8930000D02*
X75120000Y-8930000D01*
X76670000Y-8930000D02*
X76670000Y-16450000D01*
X76670000Y-16450000D02*
X75120000Y-16450000D01*
%TO.C,R16*%
X53700000Y-16233641D02*
X53700000Y-15926359D01*
X54460000Y-16233641D02*
X54460000Y-15926359D01*
%TO.C,C6*%
X60335000Y-10738748D02*
X60335000Y-11261252D01*
X61805000Y-10738748D02*
X61805000Y-11261252D01*
%TO.C,C22*%
X14090000Y-20242164D02*
X14090000Y-20457836D01*
X14810000Y-20242164D02*
X14810000Y-20457836D01*
%TO.C,C18*%
X65940000Y-17642164D02*
X65940000Y-17857836D01*
X66660000Y-17642164D02*
X66660000Y-17857836D01*
%TO.C,R1*%
X66920000Y-17596359D02*
X66920000Y-17903641D01*
X67680000Y-17596359D02*
X67680000Y-17903641D01*
%TO.C,C15*%
X54840000Y-17440000D02*
X54840000Y-19790000D01*
X54840000Y-24260000D02*
X54840000Y-21910000D01*
X60595563Y-17440000D02*
X54840000Y-17440000D01*
X60595563Y-24260000D02*
X54840000Y-24260000D01*
X61660000Y-18504437D02*
X60595563Y-17440000D01*
X61660000Y-18504437D02*
X61660000Y-19790000D01*
X61660000Y-23195563D02*
X60595563Y-24260000D01*
X61660000Y-23195563D02*
X61660000Y-21910000D01*
X62293750Y-23091250D02*
X62293750Y-22303750D01*
X62687500Y-22697500D02*
X61900000Y-22697500D01*
%TO.C,C36*%
X29615000Y-22632836D02*
X29615000Y-22417164D01*
X30335000Y-22632836D02*
X30335000Y-22417164D01*
%TO.C,U2*%
X38660000Y-13660000D02*
X38660000Y-17420000D01*
X38660000Y-17420000D02*
X39920000Y-17420000D01*
X45480000Y-13660000D02*
X45480000Y-17420000D01*
X45480000Y-17420000D02*
X44220000Y-17420000D01*
X45710000Y-12620000D02*
X45380000Y-12380000D01*
X45710000Y-12140000D01*
X45710000Y-12620000D01*
G36*
X45710000Y-12620000D02*
G01*
X45380000Y-12380000D01*
X45710000Y-12140000D01*
X45710000Y-12620000D01*
G37*
%TO.C,R3*%
X68307500Y-9947258D02*
X68307500Y-9472742D01*
X69352500Y-9947258D02*
X69352500Y-9472742D01*
%TO.C,C30*%
X27362164Y-21940000D02*
X27577836Y-21940000D01*
X27362164Y-22660000D02*
X27577836Y-22660000D01*
%TO.C,C26*%
X28017164Y-18315000D02*
X28232836Y-18315000D01*
X28017164Y-19035000D02*
X28232836Y-19035000D01*
%TO.C,C29*%
X28017164Y-19340000D02*
X28232836Y-19340000D01*
X28017164Y-20060000D02*
X28232836Y-20060000D01*
%TO.C,J6*%
X9340000Y-21700000D02*
X10670000Y-21700000D01*
X9340000Y-23030000D02*
X9340000Y-21700000D01*
X11940000Y-21700000D02*
X17080000Y-21700000D01*
X11940000Y-24360000D02*
X11940000Y-21700000D01*
X11940000Y-24360000D02*
X17080000Y-24360000D01*
X17080000Y-24360000D02*
X17080000Y-21700000D01*
%TO.C,C27*%
X16132836Y-20270000D02*
X15917164Y-20270000D01*
X16132836Y-20990000D02*
X15917164Y-20990000D01*
%TO.C,C23*%
X40208748Y-9375000D02*
X40731252Y-9375000D01*
X40208748Y-10845000D02*
X40731252Y-10845000D01*
%TO.C,R15*%
X54640000Y-16233641D02*
X54640000Y-15926359D01*
X55400000Y-16233641D02*
X55400000Y-15926359D01*
%TO.C,R13*%
X14000000Y-12086359D02*
X14000000Y-12393641D01*
X14760000Y-12086359D02*
X14760000Y-12393641D01*
%TO.C,C31*%
X24617164Y-14315000D02*
X24832836Y-14315000D01*
X24617164Y-15035000D02*
X24832836Y-15035000D01*
%TO.C,C13*%
X60335000Y-14661252D02*
X60335000Y-14138748D01*
X61805000Y-14661252D02*
X61805000Y-14138748D01*
%TO.C,C20*%
X79301252Y-9685000D02*
X78778748Y-9685000D01*
X79301252Y-11155000D02*
X78778748Y-11155000D01*
%TO.C,J2*%
X82670000Y-5910000D02*
X82670000Y-11050000D01*
X82670000Y-5910000D02*
X85330000Y-5910000D01*
X82670000Y-11050000D02*
X85330000Y-11050000D01*
X84000000Y-3310000D02*
X85330000Y-3310000D01*
X85330000Y-3310000D02*
X85330000Y-4640000D01*
X85330000Y-5910000D02*
X85330000Y-11050000D01*
%TO.C,C14*%
X77740000Y-13378748D02*
X77740000Y-14801252D01*
X79560000Y-13378748D02*
X79560000Y-14801252D01*
%TO.C,C16*%
X64940000Y-17642164D02*
X64940000Y-17857836D01*
X65660000Y-17642164D02*
X65660000Y-17857836D01*
%TO.C,C10*%
X55730000Y-15711252D02*
X55730000Y-14288748D01*
X57550000Y-15711252D02*
X57550000Y-14288748D01*
D10*
%TO.C,U1*%
X63150000Y-9810000D02*
X63150000Y-10410000D01*
X63150000Y-9810000D02*
X63750000Y-9810000D01*
X63150000Y-15560000D02*
X63150000Y-14960000D01*
X63150000Y-15560000D02*
X63750000Y-15560000D01*
X67950000Y-9810000D02*
X67350000Y-9810000D01*
X67950000Y-9810000D02*
X67950000Y-10410000D01*
X67950000Y-15560000D02*
X67350000Y-15560000D01*
X67950000Y-15560000D02*
X67950000Y-14960000D01*
D11*
%TO.C,F1*%
X13972064Y-8790000D02*
X12767936Y-8790000D01*
X13972064Y-10610000D02*
X12767936Y-10610000D01*
%TO.C,C17*%
X63940000Y-17642164D02*
X63940000Y-17857836D01*
X64660000Y-17642164D02*
X64660000Y-17857836D01*
%TO.C,C12*%
X58030000Y-15711252D02*
X58030000Y-14288748D01*
X59850000Y-15711252D02*
X59850000Y-14288748D01*
%TO.C,C37*%
X17465000Y-13436252D02*
X17465000Y-12913748D01*
X18935000Y-13436252D02*
X18935000Y-12913748D01*
%TO.C,C19*%
X62940000Y-17642164D02*
X62940000Y-17857836D01*
X63660000Y-17642164D02*
X63660000Y-17857836D01*
%TO.C,C2*%
X64847836Y-8180000D02*
X64632164Y-8180000D01*
X64847836Y-8900000D02*
X64632164Y-8900000D01*
%TO.C,C3*%
X46810000Y-6784437D02*
X46810000Y-14240000D01*
X46810000Y-14240000D02*
X49560000Y-14240000D01*
X47874437Y-5720000D02*
X46810000Y-6784437D01*
X47874437Y-5720000D02*
X49560000Y-5720000D01*
X53580000Y-4480000D02*
X53580000Y-5480000D01*
X54080000Y-4980000D02*
X53080000Y-4980000D01*
X54265563Y-5720000D02*
X52580000Y-5720000D01*
X54265563Y-5720000D02*
X55330000Y-6784437D01*
X55330000Y-6784437D02*
X55330000Y-14240000D01*
X55330000Y-14240000D02*
X52580000Y-14240000D01*
%TO.C,U4*%
X18040000Y-15690000D02*
X18690000Y-15690000D01*
X18040000Y-16340000D02*
X18040000Y-15690000D01*
X18040000Y-22260000D02*
X18040000Y-22910000D01*
X18040000Y-22910000D02*
X18690000Y-22910000D01*
X24610000Y-15690000D02*
X25020000Y-15690000D01*
X25260000Y-16340000D02*
X25260000Y-15990000D01*
X25260000Y-22260000D02*
X25260000Y-22910000D01*
X25260000Y-22910000D02*
X24610000Y-22910000D01*
X25590000Y-15930000D02*
X25260000Y-15690000D01*
X25590000Y-15450000D01*
X25590000Y-15930000D01*
G36*
X25590000Y-15930000D02*
G01*
X25260000Y-15690000D01*
X25590000Y-15450000D01*
X25590000Y-15930000D01*
G37*
%TO.C,Y1*%
X10500000Y-17050000D02*
X10500000Y-21050000D01*
X13800000Y-17050000D02*
X10500000Y-17050000D01*
%TO.C,C24*%
X38611252Y-20165000D02*
X38088748Y-20165000D01*
X38611252Y-21635000D02*
X38088748Y-21635000D01*
%TO.C,R9*%
X24400000Y-9386359D02*
X24400000Y-9693641D01*
X25160000Y-9386359D02*
X25160000Y-9693641D01*
%TO.C,Q1*%
X58685000Y-7515000D02*
X58685000Y-1865000D01*
X64220000Y-1865000D02*
X58685000Y-1865000D01*
X64220000Y-7515000D02*
X58685000Y-7515000D01*
X65010000Y-7520000D02*
X64530000Y-7520000D01*
X64770000Y-7190000D01*
X65010000Y-7520000D01*
G36*
X65010000Y-7520000D02*
G01*
X64530000Y-7520000D01*
X64770000Y-7190000D01*
X65010000Y-7520000D01*
G37*
%TO.C,R4*%
X34096359Y-18645000D02*
X34403641Y-18645000D01*
X34096359Y-19405000D02*
X34403641Y-19405000D01*
%TO.C,R6*%
X68307500Y-15897258D02*
X68307500Y-15422742D01*
X69352500Y-15897258D02*
X69352500Y-15422742D01*
D10*
%TO.C,D2*%
X86650000Y-4900000D02*
X87650000Y-4900000D01*
X86650000Y-9100000D02*
X86650000Y-4900000D01*
X88350000Y-5600000D02*
X87650000Y-4900000D01*
X88350000Y-5600000D02*
X88350000Y-9100000D01*
X88350000Y-9100000D02*
X86650000Y-9100000D01*
D11*
%TO.C,C11*%
X69720580Y-17360000D02*
X69439420Y-17360000D01*
X69720580Y-18380000D02*
X69439420Y-18380000D01*
%TO.C,C4*%
X58030000Y-9688748D02*
X58030000Y-11111252D01*
X59850000Y-9688748D02*
X59850000Y-11111252D01*
%TO.C,C32*%
X18547836Y-23540000D02*
X18332164Y-23540000D01*
X18547836Y-24260000D02*
X18332164Y-24260000D01*
%TO.C,J4*%
X19730000Y-11070000D02*
X19730000Y-13730000D01*
X22330000Y-11070000D02*
X19730000Y-11070000D01*
X22330000Y-11070000D02*
X22330000Y-13730000D01*
X22330000Y-13730000D02*
X19730000Y-13730000D01*
X23600000Y-11070000D02*
X24930000Y-11070000D01*
X24930000Y-11070000D02*
X24930000Y-12400000D01*
%TO.C,R12*%
X30228641Y-20645000D02*
X29921359Y-20645000D01*
X30228641Y-21405000D02*
X29921359Y-21405000D01*
%TO.C,C28*%
X27362164Y-20940000D02*
X27577836Y-20940000D01*
X27362164Y-21660000D02*
X27577836Y-21660000D01*
D12*
%TO.C,R2*%
X54069930Y-17625000D02*
G75*
G02*
X53838070Y-17625000I-115930J0D01*
G01*
X53838070Y-17625000D02*
G75*
G02*
X54069930Y-17625000I115930J0D01*
G01*
D11*
%TO.C,C35*%
X28590000Y-22632836D02*
X28590000Y-22417164D01*
X29310000Y-22632836D02*
X29310000Y-22417164D01*
%TO.C,J5*%
X26900000Y-7840000D02*
X26900000Y-10500000D01*
X34580000Y-7840000D02*
X26900000Y-7840000D01*
X34580000Y-7840000D02*
X34580000Y-10500000D01*
X34580000Y-10500000D02*
X26900000Y-10500000D01*
X35850000Y-7840000D02*
X37180000Y-7840000D01*
X37180000Y-7840000D02*
X37180000Y-9170000D01*
%TO.C,U3*%
X28650000Y-11450000D02*
X28650000Y-11710000D01*
X28650000Y-16900000D02*
X28650000Y-16640000D01*
X31375000Y-11450000D02*
X28650000Y-11450000D01*
X31375000Y-11450000D02*
X34100000Y-11450000D01*
X31375000Y-16900000D02*
X28650000Y-16900000D01*
X31375000Y-16900000D02*
X34100000Y-16900000D01*
X34100000Y-11450000D02*
X34100000Y-11710000D01*
X34100000Y-16900000D02*
X34100000Y-16640000D01*
X27867500Y-11710000D02*
X27627500Y-11380000D01*
X28107500Y-11380000D01*
X27867500Y-11710000D01*
G36*
X27867500Y-11710000D02*
G01*
X27627500Y-11380000D01*
X28107500Y-11380000D01*
X27867500Y-11710000D01*
G37*
%TO.C,R11*%
X30228641Y-19620000D02*
X29921359Y-19620000D01*
X30228641Y-20380000D02*
X29921359Y-20380000D01*
%TO.C,R14*%
X14000000Y-14056359D02*
X14000000Y-14363641D01*
X14760000Y-14056359D02*
X14760000Y-14363641D01*
%TO.C,C25*%
X25620000Y-9647836D02*
X25620000Y-9432164D01*
X26340000Y-9647836D02*
X26340000Y-9432164D01*
%TO.C,C7*%
X69439420Y-6990000D02*
X69720580Y-6990000D01*
X69439420Y-8010000D02*
X69720580Y-8010000D01*
%TO.C,C8*%
X32192164Y-18665000D02*
X32407836Y-18665000D01*
X32192164Y-19385000D02*
X32407836Y-19385000D01*
D12*
%TO.C,D1*%
X78115000Y-21440000D02*
X78265000Y-21440000D01*
X78115000Y-23440000D02*
X78115000Y-21440000D01*
X78265000Y-21440000D02*
X78265000Y-23440000D01*
X78265000Y-23440000D02*
X78115000Y-23440000D01*
X79665000Y-23640000D02*
X78615000Y-23640000D01*
D11*
%TO.C,L1*%
X38390000Y-1920000D02*
X38390000Y-3470000D01*
X38390000Y-1920000D02*
X45910000Y-1920000D01*
X38390000Y-9040000D02*
X38390000Y-7490000D01*
X38390000Y-9040000D02*
X45910000Y-9040000D01*
X45910000Y-1920000D02*
X45910000Y-3470000D01*
X45910000Y-9040000D02*
X45910000Y-7490000D01*
%TO.C,R10*%
X16183641Y-18220000D02*
X15876359Y-18220000D01*
X16183641Y-18980000D02*
X15876359Y-18980000D01*
%TO.C,C33*%
X20462164Y-14315000D02*
X20677836Y-14315000D01*
X20462164Y-15035000D02*
X20677836Y-15035000D01*
%TO.C,C21*%
X14090000Y-17982836D02*
X14090000Y-17767164D01*
X14810000Y-17982836D02*
X14810000Y-17767164D01*
%TD*%
%LPC*%
D13*
%TO.C,C1*%
X66380000Y-8540000D03*
X67340000Y-8540000D03*
%TD*%
D14*
%TO.C,J3*%
X82595000Y-19890000D03*
X82595000Y-14110000D03*
D15*
X81530000Y-20350000D03*
X81530000Y-19550000D03*
X81530000Y-18250000D03*
X81530000Y-17250000D03*
X81530000Y-16750000D03*
X81530000Y-15750000D03*
X81530000Y-14450000D03*
X81530000Y-13650000D03*
X81530000Y-13950000D03*
X81530000Y-14750000D03*
X81530000Y-15250000D03*
X81530000Y-16250000D03*
X81530000Y-17750000D03*
X81530000Y-18750000D03*
X81530000Y-19250000D03*
X81530000Y-20050000D03*
D16*
X82095000Y-21320000D03*
D17*
X86275000Y-21320000D03*
D16*
X82095000Y-12680000D03*
D17*
X86275000Y-12680000D03*
%TD*%
D18*
%TO.C,R7*%
X81470000Y-10755000D03*
X81470000Y-9105000D03*
%TD*%
D19*
%TO.C,C5*%
X56640000Y-8925000D03*
X56640000Y-11875000D03*
%TD*%
D20*
%TO.C,R8*%
X23580000Y-9030000D03*
X23580000Y-10050000D03*
%TD*%
D21*
%TO.C,C34*%
X16510000Y-19610000D03*
X15550000Y-19610000D03*
%TD*%
D22*
%TO.C,L2*%
X73110000Y-9665000D03*
X73110000Y-15715000D03*
%TD*%
D23*
%TO.C,R16*%
X54080000Y-16590000D03*
X54080000Y-15570000D03*
%TD*%
D24*
%TO.C,C6*%
X61070000Y-10050000D03*
X61070000Y-11950000D03*
%TD*%
D25*
%TO.C,C22*%
X14450000Y-19870000D03*
X14450000Y-20830000D03*
%TD*%
%TO.C,C18*%
X66300000Y-17270000D03*
X66300000Y-18230000D03*
%TD*%
D20*
%TO.C,R1*%
X67300000Y-17240000D03*
X67300000Y-18260000D03*
%TD*%
D26*
%TO.C,C15*%
X60950000Y-20850000D03*
X55550000Y-20850000D03*
%TD*%
D27*
%TO.C,C36*%
X29975000Y-23005000D03*
X29975000Y-22045000D03*
%TD*%
D28*
%TO.C,U2*%
X44370000Y-12360000D03*
X42070000Y-12360000D03*
D29*
X42070000Y-18660000D03*
D28*
X39770000Y-12360000D03*
%TD*%
D18*
%TO.C,R3*%
X68830000Y-10535000D03*
X68830000Y-8885000D03*
%TD*%
D13*
%TO.C,C30*%
X26990000Y-22300000D03*
X27950000Y-22300000D03*
%TD*%
%TO.C,C26*%
X27645000Y-18675000D03*
X28605000Y-18675000D03*
%TD*%
%TO.C,C29*%
X27645000Y-19700000D03*
X28605000Y-19700000D03*
%TD*%
D30*
%TO.C,J6*%
X10670000Y-23030000D03*
D31*
X13210000Y-23030000D03*
X15750000Y-23030000D03*
%TD*%
D21*
%TO.C,C27*%
X16505000Y-20630000D03*
X15545000Y-20630000D03*
%TD*%
D32*
%TO.C,C23*%
X39520000Y-10110000D03*
X41420000Y-10110000D03*
%TD*%
D23*
%TO.C,R15*%
X55020000Y-16590000D03*
X55020000Y-15570000D03*
%TD*%
D20*
%TO.C,R13*%
X14380000Y-11730000D03*
X14380000Y-12750000D03*
%TD*%
D13*
%TO.C,C31*%
X24245000Y-14675000D03*
X25205000Y-14675000D03*
%TD*%
D33*
%TO.C,C13*%
X61070000Y-15350000D03*
X61070000Y-13450000D03*
%TD*%
D34*
%TO.C,C20*%
X79990000Y-10420000D03*
X78090000Y-10420000D03*
%TD*%
D30*
%TO.C,J2*%
X84000000Y-4640000D03*
D31*
X84000000Y-7180000D03*
X84000000Y-9720000D03*
%TD*%
D35*
%TO.C,J1*%
X4050000Y-5650000D03*
X4050000Y-6650000D03*
X4050000Y-7650000D03*
X4050000Y-8650000D03*
X4050000Y-9650000D03*
X4050000Y-10650000D03*
X4050000Y-11650000D03*
X4050000Y-12650000D03*
X4050000Y-13650000D03*
X4050000Y-14650000D03*
X4050000Y-15650000D03*
X4050000Y-18650000D03*
X4050000Y-19650000D03*
X4050000Y-20650000D03*
X4050000Y-21650000D03*
X4050000Y-22650000D03*
D36*
X4600000Y-23650000D03*
D35*
X4050000Y-24650000D03*
%TD*%
D19*
%TO.C,C14*%
X78650000Y-12615000D03*
X78650000Y-15565000D03*
%TD*%
D25*
%TO.C,C16*%
X65300000Y-17270000D03*
X65300000Y-18230000D03*
%TD*%
D37*
%TO.C,C10*%
X56640000Y-16475000D03*
X56640000Y-13525000D03*
%TD*%
D38*
%TO.C,U1*%
X64300000Y-11385000D03*
D39*
X64300000Y-12685000D03*
X64300000Y-13935000D03*
D40*
X63700000Y-14685000D03*
D41*
X64000000Y-15010000D03*
D42*
X64550000Y-15010000D03*
X65050000Y-15010000D03*
X65550000Y-15010000D03*
X66050000Y-15010000D03*
X66550000Y-15010000D03*
D41*
X67100000Y-15010000D03*
D40*
X67400000Y-14685000D03*
D43*
X67200000Y-13985000D03*
D38*
X66800000Y-13385000D03*
D43*
X67200000Y-12685000D03*
D38*
X66800000Y-11985000D03*
D43*
X67200000Y-11385000D03*
D41*
X67100000Y-10360000D03*
D40*
X67400000Y-10685000D03*
D42*
X66550000Y-10360000D03*
X66050000Y-10360000D03*
X65550000Y-10360000D03*
X65050000Y-10360000D03*
X64550000Y-10360000D03*
D40*
X63700000Y-10685000D03*
D41*
X64000000Y-10360000D03*
%TD*%
D44*
%TO.C,F1*%
X14770000Y-9700000D03*
X11970000Y-9700000D03*
%TD*%
D25*
%TO.C,C17*%
X64300000Y-17270000D03*
X64300000Y-18230000D03*
%TD*%
D37*
%TO.C,C12*%
X58940000Y-16475000D03*
X58940000Y-13525000D03*
%TD*%
D33*
%TO.C,C37*%
X18200000Y-14125000D03*
X18200000Y-12225000D03*
%TD*%
D25*
%TO.C,C19*%
X63300000Y-17270000D03*
X63300000Y-18230000D03*
%TD*%
D21*
%TO.C,C2*%
X65220000Y-8540000D03*
X64260000Y-8540000D03*
%TD*%
D45*
%TO.C,C3*%
X51070000Y-6730000D03*
X51070000Y-13230000D03*
%TD*%
D46*
%TO.C,U4*%
X24250000Y-15862500D03*
X23850000Y-15862500D03*
X23450000Y-15862500D03*
X23050000Y-15862500D03*
X22650000Y-15862500D03*
X22250000Y-15862500D03*
X21850000Y-15862500D03*
X21450000Y-15862500D03*
X21050000Y-15862500D03*
X20650000Y-15862500D03*
X20250000Y-15862500D03*
X19850000Y-15862500D03*
X19450000Y-15862500D03*
X19050000Y-15862500D03*
D47*
X18212500Y-16700000D03*
X18212500Y-17100000D03*
X18212500Y-17500000D03*
X18212500Y-17900000D03*
X18212500Y-18300000D03*
X18212500Y-18700000D03*
X18212500Y-19100000D03*
X18212500Y-19500000D03*
X18212500Y-19900000D03*
X18212500Y-20300000D03*
X18212500Y-20700000D03*
X18212500Y-21100000D03*
X18212500Y-21500000D03*
X18212500Y-21900000D03*
D46*
X19050000Y-22737500D03*
X19450000Y-22737500D03*
X19850000Y-22737500D03*
X20250000Y-22737500D03*
X20650000Y-22737500D03*
X21050000Y-22737500D03*
X21450000Y-22737500D03*
X21850000Y-22737500D03*
X22250000Y-22737500D03*
X22650000Y-22737500D03*
X23050000Y-22737500D03*
X23450000Y-22737500D03*
X23850000Y-22737500D03*
X24250000Y-22737500D03*
D47*
X25087500Y-21900000D03*
X25087500Y-21500000D03*
X25087500Y-21100000D03*
X25087500Y-20700000D03*
X25087500Y-20300000D03*
X25087500Y-19900000D03*
X25087500Y-19500000D03*
X25087500Y-19100000D03*
X25087500Y-18700000D03*
X25087500Y-18300000D03*
X25087500Y-17900000D03*
X25087500Y-17500000D03*
X25087500Y-17100000D03*
X25087500Y-16700000D03*
D48*
X21650000Y-19300000D03*
%TD*%
D49*
%TO.C,Y1*%
X11300000Y-17950000D03*
X11300000Y-20150000D03*
X13000000Y-20150000D03*
X13000000Y-17950000D03*
%TD*%
D34*
%TO.C,C24*%
X39300000Y-20900000D03*
X37400000Y-20900000D03*
%TD*%
D20*
%TO.C,R9*%
X24780000Y-9030000D03*
X24780000Y-10050000D03*
%TD*%
D50*
%TO.C,Q1*%
X64735000Y-6595000D03*
X64735000Y-5325000D03*
X64735000Y-4055000D03*
X64735000Y-2785000D03*
D51*
X62020000Y-6962500D03*
X62020000Y-2417500D03*
D52*
X60940000Y-4690000D03*
D53*
X59150000Y-6905000D03*
X59150000Y-2475000D03*
%TD*%
D54*
%TO.C,R4*%
X33740000Y-19025000D03*
X34760000Y-19025000D03*
%TD*%
D18*
%TO.C,R6*%
X68830000Y-16485000D03*
X68830000Y-14835000D03*
%TD*%
D55*
%TO.C,D2*%
X87250000Y-8500000D03*
D56*
X87250000Y-7375000D03*
D57*
X87250000Y-6495000D03*
D58*
X87250000Y-5515000D03*
%TD*%
D59*
%TO.C,C11*%
X70355000Y-17870000D03*
X68805000Y-17870000D03*
%TD*%
D19*
%TO.C,C4*%
X58940000Y-8925000D03*
X58940000Y-11875000D03*
%TD*%
D21*
%TO.C,C32*%
X18920000Y-23900000D03*
X17960000Y-23900000D03*
%TD*%
D30*
%TO.C,J4*%
X23600000Y-12400000D03*
D31*
X21060000Y-12400000D03*
%TD*%
D60*
%TO.C,H1*%
X13000000Y-4000000D03*
%TD*%
D61*
%TO.C,R12*%
X30585000Y-21025000D03*
X29565000Y-21025000D03*
%TD*%
D13*
%TO.C,C28*%
X26990000Y-21300000D03*
X27950000Y-21300000D03*
%TD*%
D62*
%TO.C,R2*%
X50800000Y-17690000D03*
X50800000Y-21800000D03*
%TD*%
D27*
%TO.C,C35*%
X28950000Y-23005000D03*
X28950000Y-22045000D03*
%TD*%
D30*
%TO.C,J5*%
X35850000Y-9170000D03*
D31*
X33310000Y-9170000D03*
X30770000Y-9170000D03*
X28230000Y-9170000D03*
%TD*%
D63*
%TO.C,U3*%
X27775000Y-12270000D03*
X27775000Y-13540000D03*
X27775000Y-14810000D03*
X27775000Y-16080000D03*
X34975000Y-16080000D03*
X34975000Y-14810000D03*
X34975000Y-13540000D03*
X34975000Y-12270000D03*
%TD*%
D61*
%TO.C,R11*%
X30585000Y-20000000D03*
X29565000Y-20000000D03*
%TD*%
D20*
%TO.C,R14*%
X14380000Y-13700000D03*
X14380000Y-14720000D03*
%TD*%
D27*
%TO.C,C25*%
X25980000Y-10020000D03*
X25980000Y-9060000D03*
%TD*%
D64*
%TO.C,C7*%
X68805000Y-7500000D03*
X70355000Y-7500000D03*
%TD*%
D13*
%TO.C,C8*%
X31820000Y-19025000D03*
X32780000Y-19025000D03*
%TD*%
D65*
%TO.C,D1*%
X79140000Y-23090000D03*
X79140000Y-22440000D03*
X79140000Y-21790000D03*
X77240000Y-21790000D03*
X77240000Y-22440000D03*
X77240000Y-23090000D03*
%TD*%
D66*
%TO.C,L1*%
X39125000Y-5480000D03*
X45175000Y-5480000D03*
%TD*%
D61*
%TO.C,R10*%
X16540000Y-18600000D03*
X15520000Y-18600000D03*
%TD*%
D13*
%TO.C,C33*%
X20090000Y-14675000D03*
X21050000Y-14675000D03*
%TD*%
D27*
%TO.C,C21*%
X14450000Y-18355000D03*
X14450000Y-17395000D03*
%TD*%
%LPD*%
M02*
