%TF.GenerationSoftware,KiCad,Pcbnew,8.0.3*%
%TF.CreationDate,2024-06-27T20:48:53-04:00*%
%TF.ProjectId,charger-module,63686172-6765-4722-9d6d-6f64756c652e,v0.0.0*%
%TF.SameCoordinates,Original*%
%TF.FileFunction,Copper,L3,Inr*%
%TF.FilePolarity,Positive*%
%FSLAX46Y46*%
G04 Gerber Fmt 4.6, Leading zero omitted, Abs format (unit mm)*
G04 Created by KiCad (PCBNEW 8.0.3) date 2024-06-27 20:48:53*
%MOMM*%
%LPD*%
G01*
G04 APERTURE LIST*
%TA.AperFunction,ComponentPad*%
%ADD10O,2.100000X1.000000*%
%TD*%
%TA.AperFunction,ComponentPad*%
%ADD11O,1.600000X1.000000*%
%TD*%
%TA.AperFunction,ComponentPad*%
%ADD12R,1.700000X1.700000*%
%TD*%
%TA.AperFunction,ComponentPad*%
%ADD13O,1.700000X1.700000*%
%TD*%
%TA.AperFunction,ComponentPad*%
%ADD14C,6.000000*%
%TD*%
%TA.AperFunction,ViaPad*%
%ADD15C,0.500000*%
%TD*%
%TA.AperFunction,ViaPad*%
%ADD16C,0.600000*%
%TD*%
%TA.AperFunction,ViaPad*%
%ADD17C,0.450000*%
%TD*%
%TA.AperFunction,Conductor*%
%ADD18C,0.400000*%
%TD*%
%TA.AperFunction,Conductor*%
%ADD19C,0.250000*%
%TD*%
%TA.AperFunction,Conductor*%
%ADD20C,0.200000*%
%TD*%
%TA.AperFunction,Conductor*%
%ADD21C,0.300000*%
%TD*%
%TA.AperFunction,Conductor*%
%ADD22C,0.150000*%
%TD*%
G04 APERTURE END LIST*
D10*
%TO.N,Net-(J3-SHIELD)*%
%TO.C,J3*%
X82095000Y-21320000D03*
D11*
X86275000Y-21320000D03*
D10*
X82095000Y-12680000D03*
D11*
X86275000Y-12680000D03*
%TD*%
D12*
%TO.N,/RP2040/SWCLK*%
%TO.C,J6*%
X10670000Y-23030000D03*
D13*
%TO.N,GND*%
X13210000Y-23030000D03*
%TO.N,/RP2040/SWD*%
X15750000Y-23030000D03*
%TD*%
D12*
%TO.N,GND*%
%TO.C,J2*%
X84000000Y-4640000D03*
D13*
%TO.N,+5V*%
X84000000Y-7180000D03*
%TO.N,LED_DIN*%
X84000000Y-9720000D03*
%TD*%
D12*
%TO.N,/RP2040/~{USB_BOOT}*%
%TO.C,J4*%
X23600000Y-12400000D03*
D13*
%TO.N,GND*%
X21060000Y-12400000D03*
%TD*%
D14*
%TO.N,GND*%
%TO.C,H1*%
X13000000Y-4000000D03*
%TD*%
D12*
%TO.N,GND*%
%TO.C,J5*%
X35850000Y-9170000D03*
D13*
%TO.N,/RP2040/USB_D-*%
X33310000Y-9170000D03*
%TO.N,/RP2040/USB_D+*%
X30770000Y-9170000D03*
%TO.N,+5V*%
X28230000Y-9170000D03*
%TD*%
D15*
%TO.N,GND*%
X81000000Y-23500000D03*
D16*
X20350000Y-20600000D03*
D17*
X67340000Y-7960000D03*
D15*
X71000000Y-2000000D03*
X47600000Y-11110000D03*
X27950000Y-21300000D03*
X74000000Y-4000000D03*
X80000000Y-2000000D03*
X74000000Y-2000000D03*
X27000000Y-2000000D03*
X45000000Y-2000000D03*
D17*
X67900000Y-8540000D03*
D15*
X61090000Y-11980000D03*
X45500000Y-16000000D03*
D17*
X63740000Y-7895000D03*
D15*
X42000000Y-2000000D03*
X47000000Y-19000000D03*
X45500000Y-22000000D03*
X48000000Y-2000000D03*
D17*
X79750000Y-7750000D03*
D15*
X45500000Y-19000000D03*
X48550000Y-11110000D03*
D17*
X67340000Y-9130000D03*
X62450000Y-12315000D03*
X79750000Y-5750000D03*
D15*
X51000000Y-2000000D03*
D16*
X21650000Y-18000000D03*
X9630000Y-14570000D03*
D17*
X64850000Y-12315000D03*
D15*
X61050000Y-13450000D03*
X77000000Y-2000000D03*
X53280000Y-12090000D03*
X9250000Y-23000000D03*
X36000000Y-2000000D03*
D17*
X77500000Y-7750000D03*
X82000000Y-5750000D03*
D15*
X21000000Y-2000000D03*
X47600000Y-12090000D03*
D17*
X65570000Y-12685000D03*
D15*
X54210000Y-12070000D03*
X56640000Y-13500000D03*
X75300000Y-23500000D03*
D17*
X79570000Y-21814998D03*
D15*
X80000000Y-4000000D03*
X57000000Y-2000000D03*
D17*
X64130000Y-9380000D03*
D15*
X47580000Y-13110000D03*
X57420000Y-12130000D03*
D17*
X64050000Y-13040000D03*
D15*
X33000000Y-2000000D03*
D16*
X22975000Y-18000000D03*
D15*
X50590000Y-11120000D03*
X18000000Y-2000000D03*
X8000000Y-20000000D03*
D17*
X64050000Y-12315000D03*
D15*
X39000000Y-2000000D03*
X30000000Y-2000000D03*
D17*
X77500000Y-5750000D03*
D15*
X53280000Y-13100000D03*
X53290000Y-11110000D03*
X68000000Y-2000000D03*
X48550000Y-13110000D03*
X8000000Y-24000000D03*
D17*
X62450000Y-13040000D03*
X63300000Y-18230000D03*
D15*
X47000000Y-16000000D03*
X50590000Y-12080000D03*
X8310000Y-10720000D03*
D17*
X63250000Y-12315000D03*
D15*
X48540000Y-12080000D03*
X47000000Y-14000000D03*
X7700000Y-10100000D03*
D16*
X22975000Y-19275000D03*
X21650000Y-20600000D03*
X22975000Y-20600000D03*
D17*
X63250000Y-13040000D03*
D15*
X67300000Y-18260000D03*
X28605000Y-19700000D03*
X58940000Y-13525000D03*
D16*
X20350000Y-18000000D03*
D15*
X77000000Y-4000000D03*
X8000000Y-22000000D03*
X54000000Y-2000000D03*
D16*
X20350000Y-19275000D03*
D17*
X66300000Y-18230000D03*
D16*
X21650000Y-19275000D03*
D15*
X24000000Y-2000000D03*
X50580000Y-13100000D03*
X50800000Y-16470000D03*
D17*
X64850000Y-13040000D03*
X64548978Y-7895000D03*
D15*
X45500000Y-14000000D03*
X58940000Y-11880000D03*
X9250000Y-21000000D03*
D17*
%TO.N,IMON*%
X23250000Y-24150000D03*
D15*
X32780000Y-19025000D03*
%TO.N,VBUS*%
X58900000Y-17340000D03*
X58890000Y-15400000D03*
X56720000Y-15400000D03*
D17*
X63250000Y-13940000D03*
D15*
X57820000Y-17340000D03*
X57800000Y-15400000D03*
D17*
X65070000Y-13940000D03*
X64150000Y-13940000D03*
D15*
X56720000Y-17340000D03*
%TO.N,GNDUSB*%
X63500000Y-10250000D03*
X46700000Y-20800000D03*
X47700000Y-23800000D03*
X53900000Y-23800000D03*
X55900000Y-22800000D03*
X56900000Y-23800000D03*
X54900000Y-23800000D03*
X47700000Y-22800000D03*
X46700000Y-22800000D03*
X79330000Y-11530000D03*
X53900000Y-22800000D03*
X47700000Y-20800000D03*
X47700000Y-21800000D03*
X56900000Y-22800000D03*
X50800000Y-23020000D03*
X79430000Y-13610000D03*
X46700000Y-21800000D03*
X55900000Y-23800000D03*
X78000000Y-13610000D03*
X80750000Y-11530000D03*
X83610000Y-11540000D03*
X78000000Y-11550000D03*
X54900000Y-22800000D03*
X46700000Y-23800000D03*
%TO.N,D-*%
X65300000Y-17270000D03*
X80680000Y-17750000D03*
D17*
X76880000Y-22440000D03*
D15*
%TO.N,D+*%
X82400000Y-17250000D03*
D17*
X78718769Y-22448694D03*
D15*
X64300000Y-17270000D03*
D17*
%TO.N,CC1*%
X66300000Y-17270000D03*
D15*
X82400000Y-18250000D03*
D17*
X77360000Y-21800000D03*
D15*
%TO.N,CC2*%
X82400000Y-15250000D03*
D17*
X79441715Y-23105333D03*
X63300000Y-17270000D03*
%TO.N,LED_DIN*%
X23575000Y-14250000D03*
D15*
%TO.N,+5V*%
X39760000Y-12350000D03*
X29970000Y-10900000D03*
X7500000Y-13700000D03*
%TO.N,SCL*%
X9508211Y-12566789D03*
D17*
X67750000Y-15890000D03*
X22150000Y-14450000D03*
%TO.N,ENABLE*%
X20980000Y-24150000D03*
X66370000Y-12685000D03*
%TO.N,SDA*%
X22775000Y-14975000D03*
X66920958Y-15909008D03*
D15*
X9617157Y-13382843D03*
D17*
%TO.N,OVERLOAD*%
X21660000Y-23700000D03*
D15*
X12250000Y-16800000D03*
D17*
X66075000Y-15950000D03*
D15*
%TO.N,ALERT*%
X17400000Y-16700000D03*
X7000000Y-15550000D03*
%TO.N,Net-(Q1-G)*%
X67200000Y-9970000D03*
D17*
X64735000Y-2815000D03*
D15*
%TO.N,Net-(U1-GPIO1)*%
X34760000Y-19025000D03*
D17*
X65000000Y-9390000D03*
D15*
%TO.N,/EMI_VIN*%
X61500000Y-10710000D03*
X60710000Y-10710000D03*
D17*
X63250000Y-11350000D03*
D15*
X59180000Y-10710000D03*
X59960000Y-10710000D03*
D17*
X64150000Y-11350000D03*
X65070000Y-11350000D03*
D15*
%TO.N,+3V3*%
X42070000Y-12360000D03*
X28375000Y-11550000D03*
X34975000Y-12270000D03*
D16*
%TO.N,+1V1*%
X17220000Y-20090000D03*
X23750000Y-20000000D03*
X26557926Y-19109905D03*
X19550000Y-19900000D03*
D15*
%TO.N,/VIN_PREFUSE*%
X7100000Y-7650000D03*
X7100000Y-6650000D03*
X7900000Y-6650000D03*
X7100000Y-5700000D03*
X7900000Y-5700000D03*
X7900000Y-7650000D03*
D16*
%TO.N,VIN_DIVIDER*%
X15650000Y-17300000D03*
X14380000Y-12750000D03*
D17*
X22540000Y-23700000D03*
D16*
%TO.N,VOUT_DIVIDER*%
X54080000Y-16590000D03*
D17*
X24090000Y-24150000D03*
D15*
X36171992Y-21361992D03*
%TD*%
D18*
%TO.N,GND*%
X58030000Y-9380000D02*
X50940000Y-16470000D01*
X64130000Y-9380000D02*
X58030000Y-9380000D01*
X50940000Y-16470000D02*
X50800000Y-16470000D01*
D19*
%TO.N,IMON*%
X29970000Y-21830000D02*
X32775000Y-19025000D01*
X23250000Y-23830000D02*
X25250000Y-21830000D01*
X23250000Y-24150000D02*
X23250000Y-23830000D01*
D20*
X32780000Y-19025000D02*
X32775000Y-19025000D01*
D19*
X25250000Y-21830000D02*
X29970000Y-21830000D01*
D18*
%TO.N,GNDUSB*%
X63500000Y-10250000D02*
X63310000Y-10060000D01*
X58230000Y-10060000D02*
X50800000Y-17490000D01*
X63310000Y-10060000D02*
X58230000Y-10060000D01*
X50800000Y-17490000D02*
X50800000Y-23020000D01*
D21*
%TO.N,D-*%
X77935000Y-21088604D02*
X80680000Y-18343604D01*
X74539188Y-20360000D02*
X76619188Y-22440000D01*
X76619188Y-22440000D02*
X76880000Y-22440000D01*
X66223502Y-20360000D02*
X74539188Y-20360000D01*
X77693173Y-22440000D02*
X77935000Y-22198173D01*
X65030000Y-19166498D02*
X66223502Y-20360000D01*
X80680000Y-18343604D02*
X80680000Y-17750000D01*
X76880000Y-22440000D02*
X77693173Y-22440000D01*
X77935000Y-22198173D02*
X77935000Y-21088604D01*
X65300000Y-17270000D02*
X65030000Y-17540000D01*
X65030000Y-17540000D02*
X65030000Y-19166498D01*
%TO.N,D+*%
X64300000Y-17270000D02*
X64580000Y-17550000D01*
X82400000Y-17260000D02*
X82400000Y-17250000D01*
X74332082Y-20860000D02*
X76492082Y-23020000D01*
X76492082Y-23020000D02*
X78147463Y-23020000D01*
X78435000Y-22164925D02*
X78435000Y-21225000D01*
X78435000Y-21225000D02*
X82400000Y-17260000D01*
X78147463Y-23020000D02*
X78718769Y-22448694D01*
X64580000Y-17550000D02*
X64580000Y-19423605D01*
X64580000Y-19423605D02*
X66016395Y-20860000D01*
X78718769Y-22448694D02*
X78435000Y-22164925D01*
X66016395Y-20860000D02*
X74332082Y-20860000D01*
D20*
%TO.N,CC1*%
X77360000Y-21097918D02*
X80180000Y-18277918D01*
X66409898Y-19910000D02*
X74725584Y-19910000D01*
X82900000Y-17750001D02*
X82400000Y-18250001D01*
X80972893Y-16750000D02*
X82607107Y-16750000D01*
X65430000Y-18320000D02*
X65430000Y-18930102D01*
X65430000Y-18930102D02*
X66409898Y-19910000D01*
X82607107Y-16750000D02*
X82900000Y-17042893D01*
X80180000Y-18277918D02*
X80180000Y-17542893D01*
X77360000Y-21800000D02*
X77360000Y-21097918D01*
X80180000Y-17542893D02*
X80972893Y-16750000D01*
X82900000Y-17042893D02*
X82900000Y-17750001D01*
X66300000Y-17270000D02*
X66300000Y-17450000D01*
X66300000Y-17450000D02*
X65430000Y-18320000D01*
X76615584Y-21800000D02*
X77360000Y-21800000D01*
X74725584Y-19910000D02*
X76615584Y-21800000D01*
%TO.N,CC2*%
X78885000Y-21340686D02*
X81425685Y-18800001D01*
X81425685Y-18800001D02*
X82557106Y-18800001D01*
X82557106Y-18800001D02*
X83300000Y-18057107D01*
X65829999Y-21310000D02*
X74145686Y-21310000D01*
X74145686Y-21310000D02*
X76305686Y-23470000D01*
X79441715Y-23105333D02*
X79440000Y-23103618D01*
X79440000Y-22462818D02*
X78885000Y-21907818D01*
X79077048Y-23470000D02*
X79441715Y-23105333D01*
X83300000Y-18057107D02*
X83300000Y-16149999D01*
X79440000Y-23103618D02*
X79440000Y-22462818D01*
X78885000Y-21907818D02*
X78885000Y-21340686D01*
X64180000Y-19660001D02*
X65829999Y-21310000D01*
X83300000Y-16149999D02*
X82400000Y-15249999D01*
X63300000Y-17270000D02*
X64180000Y-18150000D01*
X64180000Y-18150000D02*
X64180000Y-19660001D01*
X76305686Y-23470000D02*
X79077048Y-23470000D01*
%TO.N,LED_DIN*%
X41514414Y-14100000D02*
X49474414Y-6140000D01*
X80775000Y-6500000D02*
X83995000Y-9720000D01*
X49474414Y-6140000D02*
X76970000Y-6140000D01*
X77330000Y-6500000D02*
X80775000Y-6500000D01*
X23725000Y-14100000D02*
X41514414Y-14100000D01*
X23575000Y-14250000D02*
X23725000Y-14100000D01*
X83995000Y-9720000D02*
X84000000Y-9720000D01*
X76970000Y-6140000D02*
X77330000Y-6500000D01*
%TO.N,+5V*%
X77342893Y-5200000D02*
X76802893Y-5740000D01*
X38300000Y-10900000D02*
X10300000Y-10900000D01*
X49308728Y-5740000D02*
X43798728Y-11250000D01*
X40870000Y-11250000D02*
X39760000Y-12360000D01*
X10300000Y-10900000D02*
X7500000Y-13700000D01*
X76802893Y-5740000D02*
X49308728Y-5740000D01*
X84000000Y-7000000D02*
X82200000Y-5200000D01*
X84000000Y-7180000D02*
X84000000Y-7000000D01*
X82200000Y-5200000D02*
X77342893Y-5200000D01*
X39760000Y-12360000D02*
X38300000Y-10900000D01*
X43798728Y-11250000D02*
X40870000Y-11250000D01*
%TO.N,SCL*%
X11391422Y-14450000D02*
X9508211Y-12566789D01*
X23257107Y-14750000D02*
X23782107Y-14750000D01*
X22150000Y-14450000D02*
X22957107Y-14450000D01*
X22150000Y-14450000D02*
X11391422Y-14450000D01*
X67970000Y-6490000D02*
X69170000Y-7690000D01*
X23782107Y-14750000D02*
X24082107Y-14450000D01*
X69170000Y-14470000D02*
X67750000Y-15890000D01*
X69170000Y-7690000D02*
X69170000Y-14470000D01*
X49619389Y-6490000D02*
X67970000Y-6490000D01*
X24082107Y-14450000D02*
X41659389Y-14450000D01*
X41659389Y-14450000D02*
X49619389Y-6490000D01*
X22957107Y-14450000D02*
X23257107Y-14750000D01*
%TO.N,SDA*%
X67754314Y-6840000D02*
X68770000Y-7855686D01*
X24227081Y-14800000D02*
X41804363Y-14800000D01*
X49764363Y-6840000D02*
X67754314Y-6840000D01*
X68770000Y-14304314D02*
X67709314Y-15365000D01*
X11209314Y-14975000D02*
X9617157Y-13382843D01*
X67464966Y-15365000D02*
X66920958Y-15909008D01*
X22775000Y-14975000D02*
X22900000Y-15100000D01*
X22900000Y-15100000D02*
X23927081Y-15100000D01*
X67709314Y-15365000D02*
X67464966Y-15365000D01*
X68770000Y-7855686D02*
X68770000Y-14304314D01*
X41804363Y-14800000D02*
X49764363Y-6840000D01*
X22775000Y-14975000D02*
X11209314Y-14975000D01*
X23927081Y-15100000D02*
X24227081Y-14800000D01*
D22*
%TO.N,OVERLOAD*%
X12250000Y-16800000D02*
X17600000Y-22150000D01*
X20110000Y-22150000D02*
X21660000Y-23700000D01*
X17600000Y-22150000D02*
X20110000Y-22150000D01*
D20*
%TO.N,ALERT*%
X17400000Y-16700000D02*
X16398986Y-15698986D01*
X7148986Y-15698986D02*
X7000000Y-15550000D01*
X16398986Y-15698986D02*
X7148986Y-15698986D01*
D19*
%TO.N,Net-(U1-GPIO1)*%
X64440000Y-8830000D02*
X48304693Y-8830000D01*
X41959693Y-15175000D02*
X38610000Y-15175000D01*
X38610000Y-15175000D02*
X34760000Y-19025000D01*
X48304693Y-8830000D02*
X41959693Y-15175000D01*
X65000000Y-9390000D02*
X64440000Y-8830000D01*
D20*
%TO.N,+3V3*%
X41580000Y-12850000D02*
X35555000Y-12850000D01*
X35555000Y-12850000D02*
X34975000Y-12270000D01*
D22*
X34255000Y-11550000D02*
X34975000Y-12270000D01*
X28375000Y-11550000D02*
X34255000Y-11550000D01*
D20*
X42070000Y-12360000D02*
X41580000Y-12850000D01*
%TO.N,VIN_DIVIDER*%
X20360000Y-21520000D02*
X19870000Y-21520000D01*
X19870000Y-21520000D02*
X15650000Y-17300000D01*
X22540000Y-23700000D02*
X20360000Y-21520000D01*
D19*
%TO.N,VOUT_DIVIDER*%
X34883984Y-22650000D02*
X25590000Y-22650000D01*
X25590000Y-22650000D02*
X24090000Y-24150000D01*
X36171992Y-21361992D02*
X34883984Y-22650000D01*
%TD*%
%TA.AperFunction,Conductor*%
%TO.N,GND*%
G36*
X88542539Y-420185D02*
G01*
X88588294Y-472989D01*
X88599500Y-524500D01*
X88599500Y-24775500D01*
X88579815Y-24842539D01*
X88527011Y-24888294D01*
X88475500Y-24899500D01*
X9124000Y-24899500D01*
X9056961Y-24879815D01*
X9011206Y-24827011D01*
X9000000Y-24775500D01*
X9000000Y-23894822D01*
X9669499Y-23894822D01*
X9678231Y-23938717D01*
X9678232Y-23938721D01*
X9678233Y-23938722D01*
X9711496Y-23988504D01*
X9761278Y-24021767D01*
X9761281Y-24021767D01*
X9761282Y-24021768D01*
X9805177Y-24030500D01*
X9805180Y-24030500D01*
X11534822Y-24030500D01*
X11578717Y-24021768D01*
X11578717Y-24021767D01*
X11578722Y-24021767D01*
X11628504Y-23988504D01*
X11661767Y-23938722D01*
X11661843Y-23938342D01*
X11670500Y-23894822D01*
X11670500Y-23030000D01*
X14744659Y-23030000D01*
X14763975Y-23226129D01*
X14763976Y-23226132D01*
X14799632Y-23343675D01*
X14821188Y-23414733D01*
X14914086Y-23588532D01*
X14914090Y-23588539D01*
X15039116Y-23740883D01*
X15191460Y-23865909D01*
X15191467Y-23865913D01*
X15365266Y-23958811D01*
X15365269Y-23958811D01*
X15365273Y-23958814D01*
X15553868Y-24016024D01*
X15750000Y-24035341D01*
X15946132Y-24016024D01*
X16134727Y-23958814D01*
X16172317Y-23938722D01*
X16241746Y-23901611D01*
X16308538Y-23865910D01*
X16460883Y-23740883D01*
X16585910Y-23588538D01*
X16678814Y-23414727D01*
X16736024Y-23226132D01*
X16755341Y-23030000D01*
X16736024Y-22833868D01*
X16678814Y-22645273D01*
X16678811Y-22645269D01*
X16678811Y-22645266D01*
X16585913Y-22471467D01*
X16585909Y-22471460D01*
X16460883Y-22319116D01*
X16308539Y-22194090D01*
X16308532Y-22194086D01*
X16134733Y-22101188D01*
X16134727Y-22101186D01*
X16008997Y-22063046D01*
X15946129Y-22043975D01*
X15750000Y-22024659D01*
X15553870Y-22043975D01*
X15365266Y-22101188D01*
X15191467Y-22194086D01*
X15191460Y-22194090D01*
X15039116Y-22319116D01*
X14914090Y-22471460D01*
X14914086Y-22471467D01*
X14821188Y-22645266D01*
X14763975Y-22833870D01*
X14744659Y-23030000D01*
X11670500Y-23030000D01*
X11670500Y-22165177D01*
X11661768Y-22121282D01*
X11661767Y-22121281D01*
X11661767Y-22121278D01*
X11628504Y-22071496D01*
X11628503Y-22071495D01*
X11578724Y-22038234D01*
X11578717Y-22038231D01*
X11534822Y-22029500D01*
X11534820Y-22029500D01*
X9805180Y-22029500D01*
X9805178Y-22029500D01*
X9761282Y-22038231D01*
X9761275Y-22038234D01*
X9711496Y-22071495D01*
X9711495Y-22071496D01*
X9678234Y-22121275D01*
X9678231Y-22121282D01*
X9669500Y-22165177D01*
X9669500Y-22165180D01*
X9669500Y-23894820D01*
X9669500Y-23894822D01*
X9669499Y-23894822D01*
X9000000Y-23894822D01*
X9000000Y-18160409D01*
X9019685Y-18093370D01*
X9032771Y-18076426D01*
X9119379Y-17982345D01*
X9119380Y-17982343D01*
X9119386Y-17982337D01*
X9241800Y-17794970D01*
X9331703Y-17590009D01*
X9386646Y-17373047D01*
X9386836Y-17370759D01*
X9405128Y-17150005D01*
X9405128Y-17149994D01*
X9386647Y-16926960D01*
X9386646Y-16926957D01*
X9386646Y-16926953D01*
X9354496Y-16799996D01*
X11844508Y-16799996D01*
X11844508Y-16800003D01*
X11864352Y-16925300D01*
X11864352Y-16925301D01*
X11879155Y-16954352D01*
X11921950Y-17038342D01*
X11921952Y-17038344D01*
X11921954Y-17038347D01*
X12011652Y-17128045D01*
X12011654Y-17128046D01*
X12011658Y-17128050D01*
X12124696Y-17185646D01*
X12124697Y-17185646D01*
X12124699Y-17185647D01*
X12249997Y-17205492D01*
X12249998Y-17205492D01*
X12249998Y-17205491D01*
X12250000Y-17205492D01*
X12262340Y-17203537D01*
X12331631Y-17212488D01*
X12369423Y-17238328D01*
X17401759Y-22270664D01*
X17401762Y-22270668D01*
X17408830Y-22277736D01*
X17472264Y-22341170D01*
X17506592Y-22355388D01*
X17506594Y-22355390D01*
X17506595Y-22355390D01*
X17555146Y-22375501D01*
X17555147Y-22375501D01*
X17659289Y-22375501D01*
X17659297Y-22375500D01*
X19965233Y-22375500D01*
X20032272Y-22395185D01*
X20052914Y-22411819D01*
X21192078Y-23550983D01*
X21225563Y-23612306D01*
X21220579Y-23681998D01*
X21178707Y-23737931D01*
X21113243Y-23762348D01*
X21085000Y-23761137D01*
X20980004Y-23744508D01*
X20979997Y-23744508D01*
X20854699Y-23764352D01*
X20854698Y-23764352D01*
X20784745Y-23799996D01*
X20741658Y-23821950D01*
X20741657Y-23821951D01*
X20741652Y-23821954D01*
X20651954Y-23911652D01*
X20651951Y-23911657D01*
X20651950Y-23911658D01*
X20639819Y-23935467D01*
X20594352Y-24024698D01*
X20594352Y-24024699D01*
X20574508Y-24149996D01*
X20574508Y-24150003D01*
X20594352Y-24275300D01*
X20594352Y-24275301D01*
X20594354Y-24275304D01*
X20651950Y-24388342D01*
X20651952Y-24388344D01*
X20651954Y-24388347D01*
X20741652Y-24478045D01*
X20741654Y-24478046D01*
X20741658Y-24478050D01*
X20854696Y-24535646D01*
X20854697Y-24535646D01*
X20854699Y-24535647D01*
X20979997Y-24555492D01*
X20980000Y-24555492D01*
X20980003Y-24555492D01*
X21105300Y-24535647D01*
X21105301Y-24535647D01*
X21105302Y-24535646D01*
X21105304Y-24535646D01*
X21218342Y-24478050D01*
X21308050Y-24388342D01*
X21365646Y-24275304D01*
X21379776Y-24186085D01*
X21409704Y-24122954D01*
X21469015Y-24086022D01*
X21524629Y-24086814D01*
X21525056Y-24084120D01*
X21659997Y-24105492D01*
X21660000Y-24105492D01*
X21660003Y-24105492D01*
X21785300Y-24085647D01*
X21785301Y-24085647D01*
X21785302Y-24085646D01*
X21785304Y-24085646D01*
X21898342Y-24028050D01*
X21988050Y-23938342D01*
X21989515Y-23935464D01*
X21992218Y-23932602D01*
X21993783Y-23930450D01*
X21994061Y-23930652D01*
X22037488Y-23884670D01*
X22105309Y-23867874D01*
X22171444Y-23890410D01*
X22206168Y-23930484D01*
X22206217Y-23930450D01*
X22206622Y-23931008D01*
X22210483Y-23935464D01*
X22211950Y-23938342D01*
X22211951Y-23938343D01*
X22211954Y-23938347D01*
X22301652Y-24028045D01*
X22301654Y-24028046D01*
X22301658Y-24028050D01*
X22414696Y-24085646D01*
X22414697Y-24085646D01*
X22414699Y-24085647D01*
X22539997Y-24105492D01*
X22540000Y-24105492D01*
X22540003Y-24105492D01*
X22665300Y-24085647D01*
X22665300Y-24085646D01*
X22665304Y-24085646D01*
X22669622Y-24083445D01*
X22738289Y-24070548D01*
X22803031Y-24096822D01*
X22843290Y-24153927D01*
X22848392Y-24174531D01*
X22864352Y-24275300D01*
X22864352Y-24275301D01*
X22864354Y-24275304D01*
X22921950Y-24388342D01*
X22921952Y-24388344D01*
X22921954Y-24388347D01*
X23011652Y-24478045D01*
X23011654Y-24478046D01*
X23011658Y-24478050D01*
X23124696Y-24535646D01*
X23124697Y-24535646D01*
X23124699Y-24535647D01*
X23249997Y-24555492D01*
X23250000Y-24555492D01*
X23250003Y-24555492D01*
X23375300Y-24535647D01*
X23375301Y-24535647D01*
X23375302Y-24535646D01*
X23375304Y-24535646D01*
X23488342Y-24478050D01*
X23488347Y-24478045D01*
X23582319Y-24384074D01*
X23643642Y-24350589D01*
X23713334Y-24355573D01*
X23757681Y-24384074D01*
X23851652Y-24478045D01*
X23851654Y-24478046D01*
X23851658Y-24478050D01*
X23964696Y-24535646D01*
X23964697Y-24535646D01*
X23964699Y-24535647D01*
X24089997Y-24555492D01*
X24090000Y-24555492D01*
X24090003Y-24555492D01*
X24215300Y-24535647D01*
X24215301Y-24535647D01*
X24215302Y-24535646D01*
X24215304Y-24535646D01*
X24328342Y-24478050D01*
X24418050Y-24388342D01*
X24475646Y-24275304D01*
X24492177Y-24170925D01*
X24522105Y-24107793D01*
X24526950Y-24102663D01*
X25667797Y-22961819D01*
X25729120Y-22928334D01*
X25755478Y-22925500D01*
X34938783Y-22925500D01*
X34938784Y-22925500D01*
X35040042Y-22883557D01*
X35117541Y-22806058D01*
X35117540Y-22806058D01*
X35176109Y-22747489D01*
X36124639Y-21798959D01*
X36185960Y-21765476D01*
X36192880Y-21764175D01*
X36297296Y-21747638D01*
X36410334Y-21690042D01*
X36500042Y-21600334D01*
X36557638Y-21487296D01*
X36557638Y-21487294D01*
X36557639Y-21487293D01*
X36557639Y-21487292D01*
X36577484Y-21361995D01*
X36577484Y-21361988D01*
X36557639Y-21236691D01*
X36557639Y-21236690D01*
X36555851Y-21233181D01*
X36500042Y-21123650D01*
X36500038Y-21123646D01*
X36500037Y-21123644D01*
X36410339Y-21033946D01*
X36410336Y-21033944D01*
X36410334Y-21033942D01*
X36297296Y-20976346D01*
X36297295Y-20976345D01*
X36297292Y-20976344D01*
X36171995Y-20956500D01*
X36171989Y-20956500D01*
X36046691Y-20976344D01*
X36046690Y-20976344D01*
X35976976Y-21011866D01*
X35933650Y-21033942D01*
X35933649Y-21033943D01*
X35933644Y-21033946D01*
X35843946Y-21123644D01*
X35843943Y-21123649D01*
X35843942Y-21123650D01*
X35840577Y-21130255D01*
X35786344Y-21236690D01*
X35786344Y-21236691D01*
X35769814Y-21341061D01*
X35739885Y-21404196D01*
X35735022Y-21409344D01*
X34806188Y-22338181D01*
X34744865Y-22371666D01*
X34718507Y-22374500D01*
X25535199Y-22374500D01*
X25515442Y-22382684D01*
X25472581Y-22400438D01*
X25472579Y-22400439D01*
X25433941Y-22416442D01*
X24137353Y-23713030D01*
X24076030Y-23746515D01*
X24069069Y-23747823D01*
X24033369Y-23753477D01*
X23964075Y-23744521D01*
X23910624Y-23699524D01*
X23889985Y-23632773D01*
X23908710Y-23565459D01*
X23926285Y-23543328D01*
X25327797Y-22141819D01*
X25389120Y-22108334D01*
X25415478Y-22105500D01*
X30024799Y-22105500D01*
X30024800Y-22105500D01*
X30126058Y-22063557D01*
X30203557Y-21986058D01*
X31389618Y-20799996D01*
X46294508Y-20799996D01*
X46294508Y-20800003D01*
X46314352Y-20925300D01*
X46314352Y-20925301D01*
X46314354Y-20925304D01*
X46371950Y-21038342D01*
X46371952Y-21038344D01*
X46371954Y-21038347D01*
X46461652Y-21128045D01*
X46461655Y-21128047D01*
X46461658Y-21128050D01*
X46514845Y-21155150D01*
X46582290Y-21189516D01*
X46633085Y-21237490D01*
X46649880Y-21305311D01*
X46627342Y-21371446D01*
X46582290Y-21410484D01*
X46461659Y-21471949D01*
X46461652Y-21471954D01*
X46371954Y-21561652D01*
X46371951Y-21561657D01*
X46371950Y-21561658D01*
X46352751Y-21599337D01*
X46314352Y-21674698D01*
X46314352Y-21674699D01*
X46294508Y-21799996D01*
X46294508Y-21800003D01*
X46314352Y-21925300D01*
X46314352Y-21925301D01*
X46324644Y-21945500D01*
X46371950Y-22038342D01*
X46371952Y-22038344D01*
X46371954Y-22038347D01*
X46461652Y-22128045D01*
X46461655Y-22128047D01*
X46461658Y-22128050D01*
X46514845Y-22155150D01*
X46582290Y-22189516D01*
X46633085Y-22237490D01*
X46649880Y-22305311D01*
X46627342Y-22371446D01*
X46582290Y-22410484D01*
X46461659Y-22471949D01*
X46461652Y-22471954D01*
X46371954Y-22561652D01*
X46371951Y-22561657D01*
X46371950Y-22561658D01*
X46352751Y-22599337D01*
X46314352Y-22674698D01*
X46314352Y-22674699D01*
X46294508Y-22799996D01*
X46294508Y-22800003D01*
X46314352Y-22925300D01*
X46314352Y-22925301D01*
X46327399Y-22950906D01*
X46371950Y-23038342D01*
X46371952Y-23038344D01*
X46371954Y-23038347D01*
X46461652Y-23128045D01*
X46461655Y-23128047D01*
X46461658Y-23128050D01*
X46498871Y-23147011D01*
X46582290Y-23189516D01*
X46633085Y-23237490D01*
X46649880Y-23305311D01*
X46627342Y-23371446D01*
X46582290Y-23410484D01*
X46461659Y-23471949D01*
X46461652Y-23471954D01*
X46371954Y-23561652D01*
X46371951Y-23561657D01*
X46371950Y-23561658D01*
X46354226Y-23596443D01*
X46314352Y-23674698D01*
X46314352Y-23674699D01*
X46294508Y-23799996D01*
X46294508Y-23800003D01*
X46314352Y-23925300D01*
X46314352Y-23925301D01*
X46321188Y-23938717D01*
X46371950Y-24038342D01*
X46371952Y-24038344D01*
X46371954Y-24038347D01*
X46461652Y-24128045D01*
X46461654Y-24128046D01*
X46461658Y-24128050D01*
X46574696Y-24185646D01*
X46574697Y-24185646D01*
X46574699Y-24185647D01*
X46699997Y-24205492D01*
X46700000Y-24205492D01*
X46700003Y-24205492D01*
X46825300Y-24185647D01*
X46825301Y-24185647D01*
X46825302Y-24185646D01*
X46825304Y-24185646D01*
X46938342Y-24128050D01*
X47028050Y-24038342D01*
X47085646Y-23925304D01*
X47085646Y-23925302D01*
X47089515Y-23917710D01*
X47137490Y-23866914D01*
X47205311Y-23850119D01*
X47271446Y-23872657D01*
X47310485Y-23917710D01*
X47314353Y-23925302D01*
X47314354Y-23925304D01*
X47371950Y-24038342D01*
X47371952Y-24038344D01*
X47371954Y-24038347D01*
X47461652Y-24128045D01*
X47461654Y-24128046D01*
X47461658Y-24128050D01*
X47574696Y-24185646D01*
X47574697Y-24185646D01*
X47574699Y-24185647D01*
X47699997Y-24205492D01*
X47700000Y-24205492D01*
X47700003Y-24205492D01*
X47825300Y-24185647D01*
X47825301Y-24185647D01*
X47825302Y-24185646D01*
X47825304Y-24185646D01*
X47938342Y-24128050D01*
X48028050Y-24038342D01*
X48085646Y-23925304D01*
X48085646Y-23925302D01*
X48085647Y-23925301D01*
X48085647Y-23925300D01*
X48105492Y-23800003D01*
X48105492Y-23799996D01*
X48085647Y-23674699D01*
X48085647Y-23674698D01*
X48085262Y-23673942D01*
X48028050Y-23561658D01*
X48028046Y-23561654D01*
X48028045Y-23561652D01*
X47938347Y-23471954D01*
X47938344Y-23471952D01*
X47938342Y-23471950D01*
X47825304Y-23414354D01*
X47825302Y-23414353D01*
X47817710Y-23410485D01*
X47766914Y-23362510D01*
X47750119Y-23294689D01*
X47772657Y-23228554D01*
X47817710Y-23189515D01*
X47825302Y-23185646D01*
X47825304Y-23185646D01*
X47938342Y-23128050D01*
X48028050Y-23038342D01*
X48085646Y-22925304D01*
X48085646Y-22925302D01*
X48085647Y-22925301D01*
X48085647Y-22925300D01*
X48105492Y-22800003D01*
X48105492Y-22799996D01*
X48085647Y-22674699D01*
X48085647Y-22674698D01*
X48070654Y-22645273D01*
X48028050Y-22561658D01*
X48028046Y-22561654D01*
X48028045Y-22561652D01*
X47938347Y-22471954D01*
X47938344Y-22471952D01*
X47938342Y-22471950D01*
X47825304Y-22414354D01*
X47825302Y-22414353D01*
X47817710Y-22410485D01*
X47766914Y-22362510D01*
X47750119Y-22294689D01*
X47772657Y-22228554D01*
X47817710Y-22189515D01*
X47825302Y-22185646D01*
X47825304Y-22185646D01*
X47938342Y-22128050D01*
X48028050Y-22038342D01*
X48085646Y-21925304D01*
X48085646Y-21925302D01*
X48085647Y-21925301D01*
X48085647Y-21925300D01*
X48105492Y-21800003D01*
X48105492Y-21799996D01*
X48085647Y-21674699D01*
X48085647Y-21674698D01*
X48085646Y-21674696D01*
X48028050Y-21561658D01*
X48028046Y-21561654D01*
X48028045Y-21561652D01*
X47938347Y-21471954D01*
X47938344Y-21471952D01*
X47938342Y-21471950D01*
X47825304Y-21414354D01*
X47825302Y-21414353D01*
X47817710Y-21410485D01*
X47766914Y-21362510D01*
X47750119Y-21294689D01*
X47772657Y-21228554D01*
X47817710Y-21189515D01*
X47825302Y-21185646D01*
X47825304Y-21185646D01*
X47938342Y-21128050D01*
X48028050Y-21038342D01*
X48085646Y-20925304D01*
X48085646Y-20925302D01*
X48085647Y-20925301D01*
X48085647Y-20925300D01*
X48105492Y-20800003D01*
X48105492Y-20799996D01*
X48085647Y-20674699D01*
X48085647Y-20674698D01*
X48082981Y-20669465D01*
X48028050Y-20561658D01*
X48028046Y-20561654D01*
X48028045Y-20561652D01*
X47938347Y-20471954D01*
X47938344Y-20471952D01*
X47938342Y-20471950D01*
X47825304Y-20414354D01*
X47825303Y-20414353D01*
X47825300Y-20414352D01*
X47700003Y-20394508D01*
X47699997Y-20394508D01*
X47574699Y-20414352D01*
X47574698Y-20414352D01*
X47536205Y-20433966D01*
X47461658Y-20471950D01*
X47461657Y-20471951D01*
X47461652Y-20471954D01*
X47371954Y-20561652D01*
X47371949Y-20561659D01*
X47310484Y-20682290D01*
X47262510Y-20733085D01*
X47194689Y-20749880D01*
X47128554Y-20727342D01*
X47089516Y-20682290D01*
X47041909Y-20588858D01*
X47028050Y-20561658D01*
X47028047Y-20561655D01*
X47028045Y-20561652D01*
X46938347Y-20471954D01*
X46938344Y-20471952D01*
X46938342Y-20471950D01*
X46825304Y-20414354D01*
X46825303Y-20414353D01*
X46825300Y-20414352D01*
X46700003Y-20394508D01*
X46699997Y-20394508D01*
X46574699Y-20414352D01*
X46574698Y-20414352D01*
X46536205Y-20433966D01*
X46461658Y-20471950D01*
X46461657Y-20471951D01*
X46461652Y-20471954D01*
X46371954Y-20561652D01*
X46371951Y-20561657D01*
X46371950Y-20561658D01*
X46358091Y-20588858D01*
X46314352Y-20674698D01*
X46314352Y-20674699D01*
X46294508Y-20799996D01*
X31389618Y-20799996D01*
X32726705Y-19462908D01*
X32788026Y-19429425D01*
X32794942Y-19428125D01*
X32905304Y-19410646D01*
X33018342Y-19353050D01*
X33108050Y-19263342D01*
X33165646Y-19150304D01*
X33165646Y-19150302D01*
X33165647Y-19150301D01*
X33165647Y-19150300D01*
X33185492Y-19025003D01*
X33185492Y-19024996D01*
X33165647Y-18899699D01*
X33165647Y-18899698D01*
X33165646Y-18899696D01*
X33108050Y-18786658D01*
X33108046Y-18786654D01*
X33108045Y-18786652D01*
X33018347Y-18696954D01*
X33018344Y-18696952D01*
X33018342Y-18696950D01*
X32905304Y-18639354D01*
X32905303Y-18639353D01*
X32905300Y-18639352D01*
X32780003Y-18619508D01*
X32779997Y-18619508D01*
X32654699Y-18639352D01*
X32654698Y-18639352D01*
X32579337Y-18677751D01*
X32541658Y-18696950D01*
X32541657Y-18696951D01*
X32541652Y-18696954D01*
X32451954Y-18786652D01*
X32451951Y-18786657D01*
X32394352Y-18899698D01*
X32378763Y-18998129D01*
X32348834Y-19061264D01*
X32343971Y-19066412D01*
X29892204Y-21518181D01*
X29830881Y-21551666D01*
X29804523Y-21554500D01*
X25195199Y-21554500D01*
X25142004Y-21576535D01*
X25142002Y-21576535D01*
X25093943Y-21596440D01*
X25093941Y-21596442D01*
X23110475Y-23579909D01*
X23049152Y-23613394D01*
X22979460Y-23608410D01*
X22923527Y-23566538D01*
X22912315Y-23548532D01*
X22868050Y-23461658D01*
X22868048Y-23461656D01*
X22868045Y-23461652D01*
X22778347Y-23371954D01*
X22778344Y-23371952D01*
X22778342Y-23371950D01*
X22701517Y-23332805D01*
X22665301Y-23314352D01*
X22530362Y-23292981D01*
X22530564Y-23291699D01*
X22473091Y-23274823D01*
X22452449Y-23258189D01*
X21488949Y-22294689D01*
X20501897Y-21307636D01*
X20470640Y-21294689D01*
X20409829Y-21269500D01*
X20409828Y-21269500D01*
X20025123Y-21269500D01*
X19958084Y-21249815D01*
X19937442Y-21233181D01*
X19216219Y-20511958D01*
X19182734Y-20450635D01*
X19187718Y-20380943D01*
X19229590Y-20325010D01*
X19295054Y-20300593D01*
X19355419Y-20311486D01*
X19360927Y-20314001D01*
X19360931Y-20314004D01*
X19360935Y-20314005D01*
X19360937Y-20314006D01*
X19485225Y-20350499D01*
X19485227Y-20350500D01*
X19485228Y-20350500D01*
X19614773Y-20350500D01*
X19614773Y-20350499D01*
X19739069Y-20314004D01*
X19848049Y-20243967D01*
X19932882Y-20146063D01*
X19986697Y-20028226D01*
X19990755Y-20000000D01*
X23294867Y-20000000D01*
X23313302Y-20128225D01*
X23354405Y-20218226D01*
X23367118Y-20246063D01*
X23425988Y-20314004D01*
X23445100Y-20336061D01*
X23451951Y-20343967D01*
X23560931Y-20414004D01*
X23651402Y-20440568D01*
X23685225Y-20450499D01*
X23685227Y-20450500D01*
X23685228Y-20450500D01*
X23814773Y-20450500D01*
X23814773Y-20450499D01*
X23939069Y-20414004D01*
X24048049Y-20343967D01*
X24132882Y-20246063D01*
X24186697Y-20128226D01*
X24205133Y-20000000D01*
X24186697Y-19871774D01*
X24132882Y-19753937D01*
X24048049Y-19656033D01*
X23939069Y-19585996D01*
X23939065Y-19585994D01*
X23939064Y-19585994D01*
X23814774Y-19549500D01*
X23814772Y-19549500D01*
X23685228Y-19549500D01*
X23685226Y-19549500D01*
X23560935Y-19585994D01*
X23560932Y-19585995D01*
X23560931Y-19585996D01*
X23523311Y-19610173D01*
X23451950Y-19656033D01*
X23367118Y-19753937D01*
X23367117Y-19753938D01*
X23313302Y-19871774D01*
X23294867Y-20000000D01*
X19990755Y-20000000D01*
X20005133Y-19900000D01*
X19986697Y-19771774D01*
X19932882Y-19653937D01*
X19848049Y-19556033D01*
X19739069Y-19485996D01*
X19739065Y-19485994D01*
X19739064Y-19485994D01*
X19614774Y-19449500D01*
X19614772Y-19449500D01*
X19485228Y-19449500D01*
X19485226Y-19449500D01*
X19360935Y-19485994D01*
X19360932Y-19485995D01*
X19360931Y-19485996D01*
X19309677Y-19518934D01*
X19251950Y-19556033D01*
X19167118Y-19653937D01*
X19167117Y-19653938D01*
X19113302Y-19771774D01*
X19094867Y-19900000D01*
X19113302Y-20028226D01*
X19113303Y-20028227D01*
X19147890Y-20103962D01*
X19157834Y-20173120D01*
X19128809Y-20236676D01*
X19070031Y-20274450D01*
X19000161Y-20274450D01*
X18947415Y-20243154D01*
X17814166Y-19109905D01*
X26102793Y-19109905D01*
X26121228Y-19238130D01*
X26156106Y-19314500D01*
X26175044Y-19355968D01*
X26259877Y-19453872D01*
X26368857Y-19523909D01*
X26478264Y-19556033D01*
X26493151Y-19560404D01*
X26493153Y-19560405D01*
X26493154Y-19560405D01*
X26622699Y-19560405D01*
X26622699Y-19560404D01*
X26746995Y-19523909D01*
X26855975Y-19453872D01*
X26940808Y-19355968D01*
X26994623Y-19238131D01*
X27013059Y-19109905D01*
X26994623Y-18981679D01*
X26940808Y-18863842D01*
X26855975Y-18765938D01*
X26746995Y-18695901D01*
X26746991Y-18695899D01*
X26746990Y-18695899D01*
X26622700Y-18659405D01*
X26622698Y-18659405D01*
X26493154Y-18659405D01*
X26493152Y-18659405D01*
X26368861Y-18695899D01*
X26368858Y-18695900D01*
X26368857Y-18695901D01*
X26317603Y-18728839D01*
X26259876Y-18765938D01*
X26175044Y-18863842D01*
X26175043Y-18863843D01*
X26121228Y-18981679D01*
X26102793Y-19109905D01*
X17814166Y-19109905D01*
X16136343Y-17432082D01*
X16102858Y-17370759D01*
X16101286Y-17326753D01*
X16103761Y-17309540D01*
X16105133Y-17300000D01*
X16086697Y-17171774D01*
X16032882Y-17053937D01*
X15948049Y-16956033D01*
X15839069Y-16885996D01*
X15839065Y-16885994D01*
X15839064Y-16885994D01*
X15714774Y-16849500D01*
X15714772Y-16849500D01*
X15585228Y-16849500D01*
X15585226Y-16849500D01*
X15460935Y-16885994D01*
X15460932Y-16885995D01*
X15460931Y-16885996D01*
X15409677Y-16918934D01*
X15351950Y-16956033D01*
X15267118Y-17053937D01*
X15267117Y-17053938D01*
X15213302Y-17171774D01*
X15194867Y-17300000D01*
X15213302Y-17428225D01*
X15261586Y-17533950D01*
X15267118Y-17546063D01*
X15351951Y-17643967D01*
X15460931Y-17714004D01*
X15583532Y-17750002D01*
X15585225Y-17750499D01*
X15585227Y-17750500D01*
X15694877Y-17750500D01*
X15761916Y-17770185D01*
X15782558Y-17786819D01*
X17437389Y-19441650D01*
X17470874Y-19502973D01*
X17465890Y-19572665D01*
X17424018Y-19628598D01*
X17358554Y-19653015D01*
X17314776Y-19648309D01*
X17284773Y-19639500D01*
X17284772Y-19639500D01*
X17155228Y-19639500D01*
X17155226Y-19639500D01*
X17030935Y-19675994D01*
X17030932Y-19675995D01*
X17030931Y-19675996D01*
X16979677Y-19708934D01*
X16921950Y-19746033D01*
X16837118Y-19843937D01*
X16837117Y-19843938D01*
X16783302Y-19961774D01*
X16764867Y-20090000D01*
X16783302Y-20218225D01*
X16808980Y-20274450D01*
X16837118Y-20336063D01*
X16910624Y-20420895D01*
X16919487Y-20431124D01*
X16921951Y-20433967D01*
X17030931Y-20504004D01*
X17155225Y-20540499D01*
X17155227Y-20540500D01*
X17155228Y-20540500D01*
X17284773Y-20540500D01*
X17284773Y-20540499D01*
X17409069Y-20504004D01*
X17518049Y-20433967D01*
X17602882Y-20336063D01*
X17656697Y-20218226D01*
X17675133Y-20090000D01*
X17659204Y-19979211D01*
X17669148Y-19910054D01*
X17714903Y-19857250D01*
X17781942Y-19837565D01*
X17848981Y-19857250D01*
X17869623Y-19873884D01*
X19708558Y-21712819D01*
X19742043Y-21774142D01*
X19737059Y-21843834D01*
X19695187Y-21899767D01*
X19629723Y-21924184D01*
X19620877Y-21924500D01*
X17744767Y-21924500D01*
X17677728Y-21904815D01*
X17657086Y-21888181D01*
X12688328Y-16919423D01*
X12654843Y-16858100D01*
X12653537Y-16812342D01*
X12655492Y-16800000D01*
X12655492Y-16799997D01*
X12655492Y-16799996D01*
X12635647Y-16674699D01*
X12635647Y-16674698D01*
X12626004Y-16655773D01*
X12578050Y-16561658D01*
X12578046Y-16561654D01*
X12578045Y-16561652D01*
X12488347Y-16471954D01*
X12488344Y-16471952D01*
X12488342Y-16471950D01*
X12375304Y-16414354D01*
X12375303Y-16414353D01*
X12375300Y-16414352D01*
X12250003Y-16394508D01*
X12249997Y-16394508D01*
X12124699Y-16414352D01*
X12124698Y-16414352D01*
X12082847Y-16435677D01*
X12011658Y-16471950D01*
X12011657Y-16471951D01*
X12011652Y-16471954D01*
X11921954Y-16561652D01*
X11921951Y-16561657D01*
X11921950Y-16561658D01*
X11907509Y-16590000D01*
X11864352Y-16674698D01*
X11864352Y-16674699D01*
X11844508Y-16799996D01*
X9354496Y-16799996D01*
X9331703Y-16709991D01*
X9241800Y-16505030D01*
X9119386Y-16317663D01*
X9119383Y-16317660D01*
X9119379Y-16317654D01*
X9032770Y-16223571D01*
X9001848Y-16160917D01*
X9000000Y-16139589D01*
X9000000Y-16073486D01*
X9019685Y-16006447D01*
X9072489Y-15960692D01*
X9124000Y-15949486D01*
X16243863Y-15949486D01*
X16310902Y-15969171D01*
X16331544Y-15985805D01*
X16958189Y-16612450D01*
X16991674Y-16673773D01*
X16994465Y-16699733D01*
X17014352Y-16825300D01*
X17014352Y-16825301D01*
X17031064Y-16858100D01*
X17071950Y-16938342D01*
X17071952Y-16938344D01*
X17071954Y-16938347D01*
X17161652Y-17028045D01*
X17161654Y-17028046D01*
X17161658Y-17028050D01*
X17274696Y-17085646D01*
X17274697Y-17085646D01*
X17274699Y-17085647D01*
X17399997Y-17105492D01*
X17400000Y-17105492D01*
X17400003Y-17105492D01*
X17525300Y-17085647D01*
X17525301Y-17085647D01*
X17525302Y-17085646D01*
X17525304Y-17085646D01*
X17638342Y-17028050D01*
X17728050Y-16938342D01*
X17785646Y-16825304D01*
X17785646Y-16825302D01*
X17785647Y-16825301D01*
X17785647Y-16825300D01*
X17805492Y-16700003D01*
X17805492Y-16699996D01*
X17785647Y-16574699D01*
X17785647Y-16574698D01*
X17779000Y-16561652D01*
X17728050Y-16461658D01*
X17728046Y-16461654D01*
X17728045Y-16461652D01*
X17638347Y-16371954D01*
X17638344Y-16371952D01*
X17638342Y-16371950D01*
X17525304Y-16314354D01*
X17525303Y-16314353D01*
X17525300Y-16314352D01*
X17390362Y-16292981D01*
X17390565Y-16291699D01*
X17333092Y-16274823D01*
X17312450Y-16258189D01*
X16540883Y-15486622D01*
X16486414Y-15464060D01*
X16432012Y-15420220D01*
X16409947Y-15353926D01*
X16427226Y-15286226D01*
X16478364Y-15238616D01*
X16533868Y-15225500D01*
X22407746Y-15225500D01*
X22474785Y-15245185D01*
X22495428Y-15261820D01*
X22536653Y-15303046D01*
X22536655Y-15303047D01*
X22536658Y-15303050D01*
X22649696Y-15360646D01*
X22649697Y-15360646D01*
X22649699Y-15360647D01*
X22774997Y-15380492D01*
X22775000Y-15380492D01*
X22775002Y-15380492D01*
X22837652Y-15370569D01*
X22900304Y-15360646D01*
X22900307Y-15360644D01*
X22909588Y-15357630D01*
X22910362Y-15360014D01*
X22934213Y-15354288D01*
X22934192Y-15354203D01*
X22934196Y-15354202D01*
X22934966Y-15354107D01*
X22949985Y-15350501D01*
X22964262Y-15350501D01*
X22964270Y-15350500D01*
X23976907Y-15350500D01*
X23976909Y-15350500D01*
X24068978Y-15312364D01*
X24294523Y-15086819D01*
X24355846Y-15053334D01*
X24382204Y-15050500D01*
X38045522Y-15050500D01*
X38112561Y-15070185D01*
X38158316Y-15122989D01*
X38168260Y-15192147D01*
X38139235Y-15255703D01*
X38133203Y-15262181D01*
X34807353Y-18588030D01*
X34746030Y-18621515D01*
X34739070Y-18622822D01*
X34634698Y-18639352D01*
X34559337Y-18677751D01*
X34521658Y-18696950D01*
X34521657Y-18696951D01*
X34521652Y-18696954D01*
X34431954Y-18786652D01*
X34431951Y-18786657D01*
X34374352Y-18899698D01*
X34374352Y-18899699D01*
X34354508Y-19024996D01*
X34354508Y-19025003D01*
X34374352Y-19150300D01*
X34374352Y-19150301D01*
X34374354Y-19150304D01*
X34431950Y-19263342D01*
X34431952Y-19263344D01*
X34431954Y-19263347D01*
X34521652Y-19353045D01*
X34521654Y-19353046D01*
X34521658Y-19353050D01*
X34634696Y-19410646D01*
X34634697Y-19410646D01*
X34634699Y-19410647D01*
X34759997Y-19430492D01*
X34760000Y-19430492D01*
X34760003Y-19430492D01*
X34885300Y-19410647D01*
X34885301Y-19410647D01*
X34885302Y-19410646D01*
X34885304Y-19410646D01*
X34998342Y-19353050D01*
X35088050Y-19263342D01*
X35145646Y-19150304D01*
X35162177Y-19045925D01*
X35192105Y-18982793D01*
X35196951Y-18977662D01*
X38687797Y-15486819D01*
X38749120Y-15453334D01*
X38775478Y-15450500D01*
X42014492Y-15450500D01*
X42014493Y-15450500D01*
X42115751Y-15408557D01*
X42193250Y-15331058D01*
X42193249Y-15331058D01*
X42251818Y-15272489D01*
X42251817Y-15272489D01*
X48382490Y-9141819D01*
X48443813Y-9108334D01*
X48470171Y-9105500D01*
X57415138Y-9105500D01*
X57482177Y-9125185D01*
X57527932Y-9177989D01*
X57537876Y-9247147D01*
X57508851Y-9310703D01*
X57502819Y-9317181D01*
X50756319Y-16063681D01*
X50694996Y-16097166D01*
X50668638Y-16100000D01*
X50400000Y-16100000D01*
X50400000Y-16368638D01*
X50380315Y-16435677D01*
X50363681Y-16456319D01*
X50360000Y-16459999D01*
X50360000Y-16460000D01*
X50360000Y-23470000D01*
X51260000Y-23470000D01*
X51260000Y-22799996D01*
X53494508Y-22799996D01*
X53494508Y-22800003D01*
X53514352Y-22925300D01*
X53514352Y-22925301D01*
X53527399Y-22950906D01*
X53571950Y-23038342D01*
X53571952Y-23038344D01*
X53571954Y-23038347D01*
X53661652Y-23128045D01*
X53661655Y-23128047D01*
X53661658Y-23128050D01*
X53698871Y-23147011D01*
X53782290Y-23189516D01*
X53833085Y-23237490D01*
X53849880Y-23305311D01*
X53827342Y-23371446D01*
X53782290Y-23410484D01*
X53661659Y-23471949D01*
X53661652Y-23471954D01*
X53571954Y-23561652D01*
X53571951Y-23561657D01*
X53571950Y-23561658D01*
X53554226Y-23596443D01*
X53514352Y-23674698D01*
X53514352Y-23674699D01*
X53494508Y-23799996D01*
X53494508Y-23800003D01*
X53514352Y-23925300D01*
X53514352Y-23925301D01*
X53521188Y-23938717D01*
X53571950Y-24038342D01*
X53571952Y-24038344D01*
X53571954Y-24038347D01*
X53661652Y-24128045D01*
X53661654Y-24128046D01*
X53661658Y-24128050D01*
X53774696Y-24185646D01*
X53774697Y-24185646D01*
X53774699Y-24185647D01*
X53899997Y-24205492D01*
X53900000Y-24205492D01*
X53900003Y-24205492D01*
X54025300Y-24185647D01*
X54025301Y-24185647D01*
X54025302Y-24185646D01*
X54025304Y-24185646D01*
X54138342Y-24128050D01*
X54228050Y-24038342D01*
X54285646Y-23925304D01*
X54285646Y-23925302D01*
X54289515Y-23917710D01*
X54337490Y-23866914D01*
X54405311Y-23850119D01*
X54471446Y-23872657D01*
X54510485Y-23917710D01*
X54514353Y-23925302D01*
X54514354Y-23925304D01*
X54571950Y-24038342D01*
X54571952Y-24038344D01*
X54571954Y-24038347D01*
X54661652Y-24128045D01*
X54661654Y-24128046D01*
X54661658Y-24128050D01*
X54774696Y-24185646D01*
X54774697Y-24185646D01*
X54774699Y-24185647D01*
X54899997Y-24205492D01*
X54900000Y-24205492D01*
X54900003Y-24205492D01*
X55025300Y-24185647D01*
X55025301Y-24185647D01*
X55025302Y-24185646D01*
X55025304Y-24185646D01*
X55138342Y-24128050D01*
X55228050Y-24038342D01*
X55285646Y-23925304D01*
X55285646Y-23925302D01*
X55289515Y-23917710D01*
X55337490Y-23866914D01*
X55405311Y-23850119D01*
X55471446Y-23872657D01*
X55510485Y-23917710D01*
X55514353Y-23925302D01*
X55514354Y-23925304D01*
X55571950Y-24038342D01*
X55571952Y-24038344D01*
X55571954Y-24038347D01*
X55661652Y-24128045D01*
X55661654Y-24128046D01*
X55661658Y-24128050D01*
X55774696Y-24185646D01*
X55774697Y-24185646D01*
X55774699Y-24185647D01*
X55899997Y-24205492D01*
X55900000Y-24205492D01*
X55900003Y-24205492D01*
X56025300Y-24185647D01*
X56025301Y-24185647D01*
X56025302Y-24185646D01*
X56025304Y-24185646D01*
X56138342Y-24128050D01*
X56228050Y-24038342D01*
X56285646Y-23925304D01*
X56285646Y-23925302D01*
X56289515Y-23917710D01*
X56337490Y-23866914D01*
X56405311Y-23850119D01*
X56471446Y-23872657D01*
X56510485Y-23917710D01*
X56514353Y-23925302D01*
X56514354Y-23925304D01*
X56571950Y-24038342D01*
X56571952Y-24038344D01*
X56571954Y-24038347D01*
X56661652Y-24128045D01*
X56661654Y-24128046D01*
X56661658Y-24128050D01*
X56774696Y-24185646D01*
X56774697Y-24185646D01*
X56774699Y-24185647D01*
X56899997Y-24205492D01*
X56900000Y-24205492D01*
X56900003Y-24205492D01*
X57025300Y-24185647D01*
X57025301Y-24185647D01*
X57025302Y-24185646D01*
X57025304Y-24185646D01*
X57138342Y-24128050D01*
X57228050Y-24038342D01*
X57285646Y-23925304D01*
X57285646Y-23925302D01*
X57285647Y-23925301D01*
X57285647Y-23925300D01*
X57305492Y-23800003D01*
X57305492Y-23799996D01*
X57285647Y-23674699D01*
X57285647Y-23674698D01*
X57285262Y-23673942D01*
X57228050Y-23561658D01*
X57228046Y-23561654D01*
X57228045Y-23561652D01*
X57138347Y-23471954D01*
X57138344Y-23471952D01*
X57138342Y-23471950D01*
X57025304Y-23414354D01*
X57025302Y-23414353D01*
X57017710Y-23410485D01*
X56966914Y-23362510D01*
X56950119Y-23294689D01*
X56972657Y-23228554D01*
X57017710Y-23189515D01*
X57025302Y-23185646D01*
X57025304Y-23185646D01*
X57138342Y-23128050D01*
X57228050Y-23038342D01*
X57285646Y-22925304D01*
X57285646Y-22925302D01*
X57285647Y-22925301D01*
X57285647Y-22925300D01*
X57305492Y-22800003D01*
X57305492Y-22799996D01*
X57285647Y-22674699D01*
X57285647Y-22674698D01*
X57270654Y-22645273D01*
X57228050Y-22561658D01*
X57228046Y-22561654D01*
X57228045Y-22561652D01*
X57138347Y-22471954D01*
X57138344Y-22471952D01*
X57138342Y-22471950D01*
X57025304Y-22414354D01*
X57025303Y-22414353D01*
X57025300Y-22414352D01*
X56900003Y-22394508D01*
X56899997Y-22394508D01*
X56774699Y-22414352D01*
X56774698Y-22414352D01*
X56707300Y-22448694D01*
X56661658Y-22471950D01*
X56661657Y-22471951D01*
X56661652Y-22471954D01*
X56571954Y-22561652D01*
X56571949Y-22561659D01*
X56510484Y-22682290D01*
X56462510Y-22733085D01*
X56394689Y-22749880D01*
X56328554Y-22727342D01*
X56289516Y-22682290D01*
X56255150Y-22614845D01*
X56228050Y-22561658D01*
X56228047Y-22561655D01*
X56228045Y-22561652D01*
X56138347Y-22471954D01*
X56138344Y-22471952D01*
X56138342Y-22471950D01*
X56025304Y-22414354D01*
X56025303Y-22414353D01*
X56025300Y-22414352D01*
X55900003Y-22394508D01*
X55899997Y-22394508D01*
X55774699Y-22414352D01*
X55774698Y-22414352D01*
X55707300Y-22448694D01*
X55661658Y-22471950D01*
X55661657Y-22471951D01*
X55661652Y-22471954D01*
X55571954Y-22561652D01*
X55571949Y-22561659D01*
X55510484Y-22682290D01*
X55462510Y-22733085D01*
X55394689Y-22749880D01*
X55328554Y-22727342D01*
X55289516Y-22682290D01*
X55255150Y-22614845D01*
X55228050Y-22561658D01*
X55228047Y-22561655D01*
X55228045Y-22561652D01*
X55138347Y-22471954D01*
X55138344Y-22471952D01*
X55138342Y-22471950D01*
X55025304Y-22414354D01*
X55025303Y-22414353D01*
X55025300Y-22414352D01*
X54900003Y-22394508D01*
X54899997Y-22394508D01*
X54774699Y-22414352D01*
X54774698Y-22414352D01*
X54707300Y-22448694D01*
X54661658Y-22471950D01*
X54661657Y-22471951D01*
X54661652Y-22471954D01*
X54571954Y-22561652D01*
X54571949Y-22561659D01*
X54510484Y-22682290D01*
X54462510Y-22733085D01*
X54394689Y-22749880D01*
X54328554Y-22727342D01*
X54289516Y-22682290D01*
X54255150Y-22614845D01*
X54228050Y-22561658D01*
X54228047Y-22561655D01*
X54228045Y-22561652D01*
X54138347Y-22471954D01*
X54138344Y-22471952D01*
X54138342Y-22471950D01*
X54025304Y-22414354D01*
X54025303Y-22414353D01*
X54025300Y-22414352D01*
X53900003Y-22394508D01*
X53899997Y-22394508D01*
X53774699Y-22414352D01*
X53774698Y-22414352D01*
X53707300Y-22448694D01*
X53661658Y-22471950D01*
X53661657Y-22471951D01*
X53661652Y-22471954D01*
X53571954Y-22561652D01*
X53571951Y-22561657D01*
X53571950Y-22561658D01*
X53552751Y-22599337D01*
X53514352Y-22674698D01*
X53514352Y-22674699D01*
X53494508Y-22799996D01*
X51260000Y-22799996D01*
X51260000Y-17621724D01*
X51279685Y-17554685D01*
X51296408Y-17533953D01*
X51490774Y-17339996D01*
X56314508Y-17339996D01*
X56314508Y-17340003D01*
X56334352Y-17465300D01*
X56334352Y-17465301D01*
X56334354Y-17465304D01*
X56391950Y-17578342D01*
X56391952Y-17578344D01*
X56391954Y-17578347D01*
X56481652Y-17668045D01*
X56481654Y-17668046D01*
X56481658Y-17668050D01*
X56594696Y-17725646D01*
X56594697Y-17725646D01*
X56594699Y-17725647D01*
X56719997Y-17745492D01*
X56720000Y-17745492D01*
X56720003Y-17745492D01*
X56845300Y-17725647D01*
X56845301Y-17725647D01*
X56845302Y-17725646D01*
X56845304Y-17725646D01*
X56958342Y-17668050D01*
X57048050Y-17578342D01*
X57105646Y-17465304D01*
X57105646Y-17465302D01*
X57105647Y-17465301D01*
X57105647Y-17465300D01*
X57125492Y-17340003D01*
X57125492Y-17339996D01*
X57414508Y-17339996D01*
X57414508Y-17340003D01*
X57434352Y-17465300D01*
X57434352Y-17465301D01*
X57434354Y-17465304D01*
X57491950Y-17578342D01*
X57491952Y-17578344D01*
X57491954Y-17578347D01*
X57581652Y-17668045D01*
X57581654Y-17668046D01*
X57581658Y-17668050D01*
X57694696Y-17725646D01*
X57694697Y-17725646D01*
X57694699Y-17725647D01*
X57819997Y-17745492D01*
X57820000Y-17745492D01*
X57820003Y-17745492D01*
X57945300Y-17725647D01*
X57945301Y-17725647D01*
X57945302Y-17725646D01*
X57945304Y-17725646D01*
X58058342Y-17668050D01*
X58148050Y-17578342D01*
X58205646Y-17465304D01*
X58205646Y-17465302D01*
X58205647Y-17465301D01*
X58205647Y-17465300D01*
X58225492Y-17340003D01*
X58225492Y-17339996D01*
X58494508Y-17339996D01*
X58494508Y-17340003D01*
X58514352Y-17465300D01*
X58514352Y-17465301D01*
X58514354Y-17465304D01*
X58571950Y-17578342D01*
X58571952Y-17578344D01*
X58571954Y-17578347D01*
X58661652Y-17668045D01*
X58661654Y-17668046D01*
X58661658Y-17668050D01*
X58774696Y-17725646D01*
X58774697Y-17725646D01*
X58774699Y-17725647D01*
X58899997Y-17745492D01*
X58900000Y-17745492D01*
X58900003Y-17745492D01*
X59025300Y-17725647D01*
X59025301Y-17725647D01*
X59025302Y-17725646D01*
X59025304Y-17725646D01*
X59138342Y-17668050D01*
X59228050Y-17578342D01*
X59285646Y-17465304D01*
X59285646Y-17465302D01*
X59285647Y-17465301D01*
X59285647Y-17465300D01*
X59305492Y-17340003D01*
X59305492Y-17339996D01*
X59294405Y-17269996D01*
X62894508Y-17269996D01*
X62894508Y-17270003D01*
X62914352Y-17395300D01*
X62914352Y-17395301D01*
X62917254Y-17400996D01*
X62971950Y-17508342D01*
X62971952Y-17508344D01*
X62971954Y-17508347D01*
X63061652Y-17598045D01*
X63061654Y-17598046D01*
X63061658Y-17598050D01*
X63174696Y-17655646D01*
X63174697Y-17655646D01*
X63174699Y-17655647D01*
X63309638Y-17677019D01*
X63309434Y-17678300D01*
X63366908Y-17695177D01*
X63387550Y-17711811D01*
X63893181Y-18217441D01*
X63926666Y-18278764D01*
X63929500Y-18305122D01*
X63929500Y-19610173D01*
X63929500Y-19709829D01*
X63967636Y-19801898D01*
X65688102Y-21522364D01*
X65780171Y-21560500D01*
X65879827Y-21560500D01*
X73990563Y-21560500D01*
X74057602Y-21580185D01*
X74078244Y-21596819D01*
X76093322Y-23611897D01*
X76163789Y-23682364D01*
X76255858Y-23720500D01*
X76255860Y-23720500D01*
X79126874Y-23720500D01*
X79126876Y-23720500D01*
X79218945Y-23682364D01*
X79354165Y-23547142D01*
X79415486Y-23513659D01*
X79441450Y-23510867D01*
X79567015Y-23490980D01*
X79567016Y-23490980D01*
X79567017Y-23490979D01*
X79567019Y-23490979D01*
X79680057Y-23433383D01*
X79769765Y-23343675D01*
X79827361Y-23230637D01*
X79827361Y-23230635D01*
X79827362Y-23230634D01*
X79827362Y-23230633D01*
X79847207Y-23105336D01*
X79847207Y-23105329D01*
X79827362Y-22980032D01*
X79827362Y-22980031D01*
X79812522Y-22950906D01*
X79769765Y-22866991D01*
X79769761Y-22866987D01*
X79769760Y-22866985D01*
X79726819Y-22824044D01*
X79693334Y-22762721D01*
X79690500Y-22736363D01*
X79690500Y-22527088D01*
X79690501Y-22527079D01*
X79690501Y-22412992D01*
X79690501Y-22412991D01*
X79657245Y-22332706D01*
X79652364Y-22320921D01*
X79581897Y-22250454D01*
X79581895Y-22250453D01*
X79574829Y-22243386D01*
X79574825Y-22243383D01*
X79171819Y-21840376D01*
X79138334Y-21779053D01*
X79135500Y-21752695D01*
X79135500Y-21495809D01*
X79155185Y-21428770D01*
X79171819Y-21408128D01*
X79195876Y-21384071D01*
X80894499Y-21384071D01*
X80919497Y-21509738D01*
X80919499Y-21509744D01*
X80968533Y-21628124D01*
X80968538Y-21628133D01*
X81039723Y-21734668D01*
X81039726Y-21734672D01*
X81130327Y-21825273D01*
X81130331Y-21825276D01*
X81236866Y-21896461D01*
X81236875Y-21896466D01*
X81257032Y-21904815D01*
X81355256Y-21945501D01*
X81355260Y-21945501D01*
X81355261Y-21945502D01*
X81480928Y-21970500D01*
X81480931Y-21970500D01*
X82709071Y-21970500D01*
X82793615Y-21953682D01*
X82834744Y-21945501D01*
X82953127Y-21896465D01*
X83059669Y-21825276D01*
X83150276Y-21734669D01*
X83221465Y-21628127D01*
X83270501Y-21509744D01*
X83289476Y-21414354D01*
X83295500Y-21384071D01*
X85324499Y-21384071D01*
X85349497Y-21509738D01*
X85349499Y-21509744D01*
X85398533Y-21628124D01*
X85398538Y-21628133D01*
X85469723Y-21734668D01*
X85469726Y-21734672D01*
X85560327Y-21825273D01*
X85560331Y-21825276D01*
X85666866Y-21896461D01*
X85666875Y-21896466D01*
X85687032Y-21904815D01*
X85785256Y-21945501D01*
X85785260Y-21945501D01*
X85785261Y-21945502D01*
X85910928Y-21970500D01*
X85910931Y-21970500D01*
X86639071Y-21970500D01*
X86723615Y-21953682D01*
X86764744Y-21945501D01*
X86883127Y-21896465D01*
X86989669Y-21825276D01*
X87080276Y-21734669D01*
X87151465Y-21628127D01*
X87200501Y-21509744D01*
X87219476Y-21414354D01*
X87225500Y-21384071D01*
X87225500Y-21255928D01*
X87200502Y-21130261D01*
X87200501Y-21130260D01*
X87200501Y-21130256D01*
X87151465Y-21011873D01*
X87151464Y-21011872D01*
X87151461Y-21011866D01*
X87080276Y-20905331D01*
X87080273Y-20905327D01*
X86989672Y-20814726D01*
X86989668Y-20814723D01*
X86883133Y-20743538D01*
X86883124Y-20743533D01*
X86764744Y-20694499D01*
X86764738Y-20694497D01*
X86639071Y-20669500D01*
X86639069Y-20669500D01*
X85910931Y-20669500D01*
X85910929Y-20669500D01*
X85785261Y-20694497D01*
X85785255Y-20694499D01*
X85666875Y-20743533D01*
X85666866Y-20743538D01*
X85560331Y-20814723D01*
X85560327Y-20814726D01*
X85469726Y-20905327D01*
X85469723Y-20905331D01*
X85398538Y-21011866D01*
X85398533Y-21011875D01*
X85349499Y-21130255D01*
X85349497Y-21130261D01*
X85324500Y-21255928D01*
X85324500Y-21255931D01*
X85324500Y-21384069D01*
X85324500Y-21384071D01*
X85324499Y-21384071D01*
X83295500Y-21384071D01*
X83295500Y-21255928D01*
X83270502Y-21130261D01*
X83270501Y-21130260D01*
X83270501Y-21130256D01*
X83221465Y-21011873D01*
X83221464Y-21011872D01*
X83221461Y-21011866D01*
X83150276Y-20905331D01*
X83150273Y-20905327D01*
X83059672Y-20814726D01*
X83059668Y-20814723D01*
X82953133Y-20743538D01*
X82953124Y-20743533D01*
X82834744Y-20694499D01*
X82834739Y-20694497D01*
X82771711Y-20681960D01*
X82709801Y-20649574D01*
X82675227Y-20588858D01*
X82678968Y-20519089D01*
X82719835Y-20462417D01*
X82763808Y-20440569D01*
X82817135Y-20426281D01*
X82948365Y-20350515D01*
X83055515Y-20243365D01*
X83131281Y-20112135D01*
X83170500Y-19965766D01*
X83170500Y-19814234D01*
X83131281Y-19667865D01*
X83126451Y-19659500D01*
X83108610Y-19628598D01*
X83055515Y-19536635D01*
X82948365Y-19429485D01*
X82882750Y-19391602D01*
X82817136Y-19353719D01*
X82743950Y-19334109D01*
X82670766Y-19314500D01*
X82519234Y-19314500D01*
X82372863Y-19353719D01*
X82241635Y-19429485D01*
X82241632Y-19429487D01*
X82134487Y-19536632D01*
X82134485Y-19536635D01*
X82058719Y-19667863D01*
X82019500Y-19814234D01*
X82019500Y-19965765D01*
X82058719Y-20112136D01*
X82068009Y-20128226D01*
X82134485Y-20243365D01*
X82241635Y-20350515D01*
X82352207Y-20414354D01*
X82372865Y-20426281D01*
X82380369Y-20429389D01*
X82379650Y-20431124D01*
X82430453Y-20462091D01*
X82460981Y-20524938D01*
X82452686Y-20594314D01*
X82408200Y-20648191D01*
X82341648Y-20669465D01*
X82338698Y-20669500D01*
X81480929Y-20669500D01*
X81355261Y-20694497D01*
X81355255Y-20694499D01*
X81236875Y-20743533D01*
X81236866Y-20743538D01*
X81130331Y-20814723D01*
X81130327Y-20814726D01*
X81039726Y-20905327D01*
X81039723Y-20905331D01*
X80968538Y-21011866D01*
X80968533Y-21011875D01*
X80919499Y-21130255D01*
X80919497Y-21130261D01*
X80894500Y-21255928D01*
X80894500Y-21255931D01*
X80894500Y-21384069D01*
X80894500Y-21384071D01*
X80894499Y-21384071D01*
X79195876Y-21384071D01*
X81493127Y-19086820D01*
X81554450Y-19053335D01*
X81580808Y-19050501D01*
X82606932Y-19050501D01*
X82606934Y-19050501D01*
X82699003Y-19012365D01*
X83424455Y-18286910D01*
X83424458Y-18286909D01*
X83441896Y-18269471D01*
X83441897Y-18269471D01*
X83512364Y-18199004D01*
X83538608Y-18135646D01*
X83550501Y-18106935D01*
X83550501Y-18007279D01*
X83550501Y-17997290D01*
X83550500Y-17997276D01*
X83550500Y-16100172D01*
X83550499Y-16100169D01*
X83549255Y-16097166D01*
X83512364Y-16008102D01*
X83441897Y-15937635D01*
X82841811Y-15337549D01*
X82808326Y-15276226D01*
X82805535Y-15250268D01*
X82785647Y-15124699D01*
X82785647Y-15124698D01*
X82779007Y-15111666D01*
X82728050Y-15011658D01*
X82728046Y-15011654D01*
X82728045Y-15011652D01*
X82638347Y-14921954D01*
X82638343Y-14921951D01*
X82638342Y-14921950D01*
X82632041Y-14918739D01*
X82581247Y-14870765D01*
X82564452Y-14802944D01*
X82586990Y-14736810D01*
X82641705Y-14693359D01*
X82662954Y-14687746D01*
X82662916Y-14687603D01*
X82670765Y-14685500D01*
X82670766Y-14685500D01*
X82817135Y-14646281D01*
X82948365Y-14570515D01*
X83055515Y-14463365D01*
X83131281Y-14332135D01*
X83170500Y-14185766D01*
X83170500Y-14034234D01*
X83131281Y-13887865D01*
X83055515Y-13756635D01*
X82948365Y-13649485D01*
X82817135Y-13573719D01*
X82763809Y-13559430D01*
X82704150Y-13523066D01*
X82673621Y-13460219D01*
X82681916Y-13390843D01*
X82726401Y-13336965D01*
X82771713Y-13318039D01*
X82772698Y-13317842D01*
X82834744Y-13305501D01*
X82953127Y-13256465D01*
X83059669Y-13185276D01*
X83150276Y-13094669D01*
X83221465Y-12988127D01*
X83270501Y-12869744D01*
X83282325Y-12810301D01*
X83295500Y-12744071D01*
X85324499Y-12744071D01*
X85349497Y-12869738D01*
X85349499Y-12869744D01*
X85398533Y-12988124D01*
X85398538Y-12988133D01*
X85469723Y-13094668D01*
X85469726Y-13094672D01*
X85560327Y-13185273D01*
X85560331Y-13185276D01*
X85666866Y-13256461D01*
X85666875Y-13256466D01*
X85693692Y-13267574D01*
X85785256Y-13305501D01*
X85785260Y-13305501D01*
X85785261Y-13305502D01*
X85910928Y-13330500D01*
X85910931Y-13330500D01*
X86639071Y-13330500D01*
X86748551Y-13308722D01*
X86764744Y-13305501D01*
X86883127Y-13256465D01*
X86989669Y-13185276D01*
X87080276Y-13094669D01*
X87151465Y-12988127D01*
X87200501Y-12869744D01*
X87212325Y-12810301D01*
X87225500Y-12744071D01*
X87225500Y-12615928D01*
X87200502Y-12490261D01*
X87200501Y-12490260D01*
X87200501Y-12490256D01*
X87151465Y-12371873D01*
X87151464Y-12371872D01*
X87151461Y-12371866D01*
X87080276Y-12265331D01*
X87080273Y-12265327D01*
X86989672Y-12174726D01*
X86989668Y-12174723D01*
X86883133Y-12103538D01*
X86883124Y-12103533D01*
X86764744Y-12054499D01*
X86764738Y-12054497D01*
X86639071Y-12029500D01*
X86639069Y-12029500D01*
X85910931Y-12029500D01*
X85910929Y-12029500D01*
X85785261Y-12054497D01*
X85785255Y-12054499D01*
X85666875Y-12103533D01*
X85666866Y-12103538D01*
X85560331Y-12174723D01*
X85560327Y-12174726D01*
X85469726Y-12265327D01*
X85469723Y-12265331D01*
X85398538Y-12371866D01*
X85398533Y-12371875D01*
X85349499Y-12490255D01*
X85349497Y-12490261D01*
X85324500Y-12615928D01*
X85324500Y-12615931D01*
X85324500Y-12744069D01*
X85324500Y-12744071D01*
X85324499Y-12744071D01*
X83295500Y-12744071D01*
X83295500Y-12615928D01*
X83270502Y-12490261D01*
X83270501Y-12490260D01*
X83270501Y-12490256D01*
X83221465Y-12371873D01*
X83221464Y-12371872D01*
X83221461Y-12371866D01*
X83150276Y-12265331D01*
X83150273Y-12265327D01*
X83059672Y-12174726D01*
X83059668Y-12174723D01*
X82953133Y-12103538D01*
X82953124Y-12103533D01*
X82834744Y-12054499D01*
X82834738Y-12054497D01*
X82709071Y-12029500D01*
X82709069Y-12029500D01*
X81480931Y-12029500D01*
X81480929Y-12029500D01*
X81355261Y-12054497D01*
X81355255Y-12054499D01*
X81236875Y-12103533D01*
X81236866Y-12103538D01*
X81130331Y-12174723D01*
X81130327Y-12174726D01*
X81039726Y-12265327D01*
X81039723Y-12265331D01*
X80968538Y-12371866D01*
X80968533Y-12371875D01*
X80919499Y-12490255D01*
X80919497Y-12490261D01*
X80894500Y-12615928D01*
X80894500Y-12615931D01*
X80894500Y-12744069D01*
X80894500Y-12744071D01*
X80894499Y-12744071D01*
X80919497Y-12869738D01*
X80919499Y-12869744D01*
X80968533Y-12988124D01*
X80968538Y-12988133D01*
X81039723Y-13094668D01*
X81039726Y-13094672D01*
X81130327Y-13185273D01*
X81130331Y-13185276D01*
X81236866Y-13256461D01*
X81236875Y-13256466D01*
X81263692Y-13267574D01*
X81355256Y-13305501D01*
X81355260Y-13305501D01*
X81355261Y-13305502D01*
X81480928Y-13330500D01*
X82338698Y-13330500D01*
X82405737Y-13350185D01*
X82451492Y-13402989D01*
X82461436Y-13472147D01*
X82432411Y-13535703D01*
X82379890Y-13569455D01*
X82380369Y-13570611D01*
X82373966Y-13573262D01*
X82373633Y-13573477D01*
X82373061Y-13573637D01*
X82372865Y-13573718D01*
X82241635Y-13649485D01*
X82241632Y-13649487D01*
X82134487Y-13756632D01*
X82134485Y-13756635D01*
X82058719Y-13887863D01*
X82019500Y-14034234D01*
X82019500Y-14185765D01*
X82058719Y-14332136D01*
X82096602Y-14397750D01*
X82134485Y-14463365D01*
X82241635Y-14570515D01*
X82321323Y-14616523D01*
X82344880Y-14630124D01*
X82393096Y-14680691D01*
X82406318Y-14749298D01*
X82380350Y-14814163D01*
X82323436Y-14854691D01*
X82302280Y-14859984D01*
X82274698Y-14864353D01*
X82274696Y-14864353D01*
X82274696Y-14864354D01*
X82161658Y-14921950D01*
X82161657Y-14921951D01*
X82161652Y-14921954D01*
X82071954Y-15011652D01*
X82071951Y-15011657D01*
X82071950Y-15011658D01*
X82052751Y-15049337D01*
X82014352Y-15124698D01*
X82014352Y-15124699D01*
X81994508Y-15249996D01*
X81994508Y-15250003D01*
X82014352Y-15375300D01*
X82014352Y-15375301D01*
X82026935Y-15399996D01*
X82071950Y-15488342D01*
X82071952Y-15488344D01*
X82071954Y-15488347D01*
X82161652Y-15578045D01*
X82161654Y-15578046D01*
X82161658Y-15578050D01*
X82274696Y-15635646D01*
X82274697Y-15635646D01*
X82274699Y-15635647D01*
X82409638Y-15657019D01*
X82409435Y-15658300D01*
X82466909Y-15675177D01*
X82487551Y-15691811D01*
X83013181Y-16217441D01*
X83046666Y-16278764D01*
X83049500Y-16305122D01*
X83049500Y-16538770D01*
X83029815Y-16605809D01*
X82977011Y-16651564D01*
X82907853Y-16661508D01*
X82844297Y-16632483D01*
X82837819Y-16626451D01*
X82749004Y-16537636D01*
X82656936Y-16499500D01*
X82656935Y-16499500D01*
X81022721Y-16499500D01*
X80923065Y-16499500D01*
X80923063Y-16499500D01*
X80830995Y-16537636D01*
X79967636Y-17400995D01*
X79929500Y-17493063D01*
X79929500Y-18122795D01*
X79909815Y-18189834D01*
X79893181Y-18210476D01*
X77147637Y-20956019D01*
X77147636Y-20956020D01*
X77109500Y-21048088D01*
X77109500Y-21425500D01*
X77089815Y-21492539D01*
X77037011Y-21538294D01*
X76985500Y-21549500D01*
X76770706Y-21549500D01*
X76703667Y-21529815D01*
X76683025Y-21513181D01*
X74867481Y-19697636D01*
X74775413Y-19659500D01*
X74775412Y-19659500D01*
X66565021Y-19659500D01*
X66497982Y-19639815D01*
X66477340Y-19623181D01*
X65716819Y-18862660D01*
X65683334Y-18801337D01*
X65680500Y-18774979D01*
X65680500Y-18475121D01*
X65700185Y-18408082D01*
X65716815Y-18387444D01*
X66424455Y-17679803D01*
X66424459Y-17679801D01*
X66441895Y-17662364D01*
X66441897Y-17662364D01*
X66458947Y-17645313D01*
X66490328Y-17622513D01*
X66538342Y-17598050D01*
X66628050Y-17508342D01*
X66685646Y-17395304D01*
X66685646Y-17395302D01*
X66685647Y-17395301D01*
X66685647Y-17395300D01*
X66705492Y-17270003D01*
X66705492Y-17269996D01*
X66685647Y-17144699D01*
X66685647Y-17144698D01*
X66665670Y-17105492D01*
X66628050Y-17031658D01*
X66628046Y-17031654D01*
X66628045Y-17031652D01*
X66538347Y-16941954D01*
X66538344Y-16941952D01*
X66538342Y-16941950D01*
X66425304Y-16884354D01*
X66425303Y-16884353D01*
X66425300Y-16884352D01*
X66300003Y-16864508D01*
X66299997Y-16864508D01*
X66174699Y-16884352D01*
X66174698Y-16884352D01*
X66099337Y-16922751D01*
X66061658Y-16941950D01*
X66061657Y-16941951D01*
X66061652Y-16941954D01*
X65971954Y-17031652D01*
X65971949Y-17031659D01*
X65910484Y-17152290D01*
X65862510Y-17203085D01*
X65794689Y-17219880D01*
X65728554Y-17197342D01*
X65689516Y-17152290D01*
X65639402Y-17053938D01*
X65628050Y-17031658D01*
X65628047Y-17031655D01*
X65628045Y-17031652D01*
X65538347Y-16941954D01*
X65538344Y-16941952D01*
X65538342Y-16941950D01*
X65425304Y-16884354D01*
X65425303Y-16884353D01*
X65425300Y-16884352D01*
X65300003Y-16864508D01*
X65299997Y-16864508D01*
X65174699Y-16884352D01*
X65174698Y-16884352D01*
X65099337Y-16922751D01*
X65061658Y-16941950D01*
X65061657Y-16941951D01*
X65061652Y-16941954D01*
X64971954Y-17031652D01*
X64971949Y-17031659D01*
X64910484Y-17152290D01*
X64862510Y-17203085D01*
X64794689Y-17219880D01*
X64728554Y-17197342D01*
X64689516Y-17152290D01*
X64639402Y-17053938D01*
X64628050Y-17031658D01*
X64628047Y-17031655D01*
X64628045Y-17031652D01*
X64538347Y-16941954D01*
X64538344Y-16941952D01*
X64538342Y-16941950D01*
X64425304Y-16884354D01*
X64425303Y-16884353D01*
X64425300Y-16884352D01*
X64300003Y-16864508D01*
X64299997Y-16864508D01*
X64174699Y-16884352D01*
X64174698Y-16884352D01*
X64099337Y-16922751D01*
X64061658Y-16941950D01*
X64061657Y-16941951D01*
X64061652Y-16941954D01*
X63971954Y-17031652D01*
X63971949Y-17031659D01*
X63910484Y-17152290D01*
X63862510Y-17203085D01*
X63794689Y-17219880D01*
X63728554Y-17197342D01*
X63689516Y-17152290D01*
X63639402Y-17053938D01*
X63628050Y-17031658D01*
X63628047Y-17031655D01*
X63628045Y-17031652D01*
X63538347Y-16941954D01*
X63538344Y-16941952D01*
X63538342Y-16941950D01*
X63425304Y-16884354D01*
X63425303Y-16884353D01*
X63425300Y-16884352D01*
X63300003Y-16864508D01*
X63299997Y-16864508D01*
X63174699Y-16884352D01*
X63174698Y-16884352D01*
X63099337Y-16922751D01*
X63061658Y-16941950D01*
X63061657Y-16941951D01*
X63061652Y-16941954D01*
X62971954Y-17031652D01*
X62971951Y-17031657D01*
X62971950Y-17031658D01*
X62967445Y-17040500D01*
X62914352Y-17144698D01*
X62914352Y-17144699D01*
X62894508Y-17269996D01*
X59294405Y-17269996D01*
X59285647Y-17214699D01*
X59285647Y-17214698D01*
X59277620Y-17198944D01*
X59228050Y-17101658D01*
X59228046Y-17101654D01*
X59228045Y-17101652D01*
X59138347Y-17011954D01*
X59138344Y-17011952D01*
X59138342Y-17011950D01*
X59025304Y-16954354D01*
X59025303Y-16954353D01*
X59025300Y-16954352D01*
X58900003Y-16934508D01*
X58899997Y-16934508D01*
X58774699Y-16954352D01*
X58774698Y-16954352D01*
X58699337Y-16992751D01*
X58661658Y-17011950D01*
X58661657Y-17011951D01*
X58661652Y-17011954D01*
X58571954Y-17101652D01*
X58571951Y-17101657D01*
X58571950Y-17101658D01*
X58558505Y-17128045D01*
X58514352Y-17214698D01*
X58514352Y-17214699D01*
X58494508Y-17339996D01*
X58225492Y-17339996D01*
X58205647Y-17214699D01*
X58205647Y-17214698D01*
X58197620Y-17198944D01*
X58148050Y-17101658D01*
X58148046Y-17101654D01*
X58148045Y-17101652D01*
X58058347Y-17011954D01*
X58058344Y-17011952D01*
X58058342Y-17011950D01*
X57945304Y-16954354D01*
X57945303Y-16954353D01*
X57945300Y-16954352D01*
X57820003Y-16934508D01*
X57819997Y-16934508D01*
X57694699Y-16954352D01*
X57694698Y-16954352D01*
X57619337Y-16992751D01*
X57581658Y-17011950D01*
X57581657Y-17011951D01*
X57581652Y-17011954D01*
X57491954Y-17101652D01*
X57491951Y-17101657D01*
X57491950Y-17101658D01*
X57478505Y-17128045D01*
X57434352Y-17214698D01*
X57434352Y-17214699D01*
X57414508Y-17339996D01*
X57125492Y-17339996D01*
X57105647Y-17214699D01*
X57105647Y-17214698D01*
X57097620Y-17198944D01*
X57048050Y-17101658D01*
X57048046Y-17101654D01*
X57048045Y-17101652D01*
X56958347Y-17011954D01*
X56958344Y-17011952D01*
X56958342Y-17011950D01*
X56845304Y-16954354D01*
X56845303Y-16954353D01*
X56845300Y-16954352D01*
X56720003Y-16934508D01*
X56719997Y-16934508D01*
X56594699Y-16954352D01*
X56594698Y-16954352D01*
X56519337Y-16992751D01*
X56481658Y-17011950D01*
X56481657Y-17011951D01*
X56481652Y-17011954D01*
X56391954Y-17101652D01*
X56391951Y-17101657D01*
X56391950Y-17101658D01*
X56378505Y-17128045D01*
X56334352Y-17214698D01*
X56334352Y-17214699D01*
X56314508Y-17339996D01*
X51490774Y-17339996D01*
X52242352Y-16590000D01*
X53624867Y-16590000D01*
X53643302Y-16718225D01*
X53692203Y-16825300D01*
X53697118Y-16836063D01*
X53738960Y-16884352D01*
X53775872Y-16926952D01*
X53781951Y-16933967D01*
X53890931Y-17004004D01*
X54015225Y-17040499D01*
X54015227Y-17040500D01*
X54015228Y-17040500D01*
X54144773Y-17040500D01*
X54144773Y-17040499D01*
X54269069Y-17004004D01*
X54378049Y-16933967D01*
X54462882Y-16836063D01*
X54516697Y-16718226D01*
X54535133Y-16590000D01*
X54516697Y-16461774D01*
X54462882Y-16343937D01*
X54378049Y-16246033D01*
X54269069Y-16175996D01*
X54269065Y-16175994D01*
X54269064Y-16175994D01*
X54144774Y-16139500D01*
X54144772Y-16139500D01*
X54015228Y-16139500D01*
X54015226Y-16139500D01*
X53890935Y-16175994D01*
X53890932Y-16175995D01*
X53890931Y-16175996D01*
X53853580Y-16200000D01*
X53781950Y-16246033D01*
X53697118Y-16343937D01*
X53697117Y-16343938D01*
X53643302Y-16461774D01*
X53624867Y-16590000D01*
X52242352Y-16590000D01*
X53434866Y-15399996D01*
X56314508Y-15399996D01*
X56314508Y-15400003D01*
X56334352Y-15525300D01*
X56334352Y-15525301D01*
X56334354Y-15525304D01*
X56391950Y-15638342D01*
X56391952Y-15638344D01*
X56391954Y-15638347D01*
X56481652Y-15728045D01*
X56481654Y-15728046D01*
X56481658Y-15728050D01*
X56594696Y-15785646D01*
X56594697Y-15785646D01*
X56594699Y-15785647D01*
X56719997Y-15805492D01*
X56720000Y-15805492D01*
X56720003Y-15805492D01*
X56845300Y-15785647D01*
X56845301Y-15785647D01*
X56845302Y-15785646D01*
X56845304Y-15785646D01*
X56958342Y-15728050D01*
X57048050Y-15638342D01*
X57105646Y-15525304D01*
X57105646Y-15525302D01*
X57105647Y-15525301D01*
X57105647Y-15525300D01*
X57125492Y-15400003D01*
X57125492Y-15399996D01*
X57394508Y-15399996D01*
X57394508Y-15400003D01*
X57414352Y-15525300D01*
X57414352Y-15525301D01*
X57414354Y-15525304D01*
X57471950Y-15638342D01*
X57471952Y-15638344D01*
X57471954Y-15638347D01*
X57561652Y-15728045D01*
X57561654Y-15728046D01*
X57561658Y-15728050D01*
X57674696Y-15785646D01*
X57674697Y-15785646D01*
X57674699Y-15785647D01*
X57799997Y-15805492D01*
X57800000Y-15805492D01*
X57800003Y-15805492D01*
X57925300Y-15785647D01*
X57925301Y-15785647D01*
X57925302Y-15785646D01*
X57925304Y-15785646D01*
X58038342Y-15728050D01*
X58128050Y-15638342D01*
X58185646Y-15525304D01*
X58185646Y-15525302D01*
X58185647Y-15525301D01*
X58185647Y-15525300D01*
X58205492Y-15400003D01*
X58205492Y-15399996D01*
X58484508Y-15399996D01*
X58484508Y-15400003D01*
X58504352Y-15525300D01*
X58504352Y-15525301D01*
X58504354Y-15525304D01*
X58561950Y-15638342D01*
X58561952Y-15638344D01*
X58561954Y-15638347D01*
X58651652Y-15728045D01*
X58651654Y-15728046D01*
X58651658Y-15728050D01*
X58764696Y-15785646D01*
X58764697Y-15785646D01*
X58764699Y-15785647D01*
X58889997Y-15805492D01*
X58890000Y-15805492D01*
X58890003Y-15805492D01*
X59015300Y-15785647D01*
X59015301Y-15785647D01*
X59015302Y-15785646D01*
X59015304Y-15785646D01*
X59128342Y-15728050D01*
X59218050Y-15638342D01*
X59275646Y-15525304D01*
X59275646Y-15525302D01*
X59275647Y-15525301D01*
X59275647Y-15525300D01*
X59295492Y-15400003D01*
X59295492Y-15399996D01*
X59275647Y-15274699D01*
X59275647Y-15274698D01*
X59269085Y-15261820D01*
X59218050Y-15161658D01*
X59218046Y-15161654D01*
X59218045Y-15161652D01*
X59128347Y-15071954D01*
X59128344Y-15071952D01*
X59128342Y-15071950D01*
X59015304Y-15014354D01*
X59015303Y-15014353D01*
X59015300Y-15014352D01*
X58890003Y-14994508D01*
X58889997Y-14994508D01*
X58764699Y-15014352D01*
X58764698Y-15014352D01*
X58693756Y-15050500D01*
X58651658Y-15071950D01*
X58651657Y-15071951D01*
X58651652Y-15071954D01*
X58561954Y-15161652D01*
X58561951Y-15161657D01*
X58504352Y-15274698D01*
X58504352Y-15274699D01*
X58484508Y-15399996D01*
X58205492Y-15399996D01*
X58185647Y-15274699D01*
X58185647Y-15274698D01*
X58179085Y-15261820D01*
X58128050Y-15161658D01*
X58128046Y-15161654D01*
X58128045Y-15161652D01*
X58038347Y-15071954D01*
X58038344Y-15071952D01*
X58038342Y-15071950D01*
X57925304Y-15014354D01*
X57925303Y-15014353D01*
X57925300Y-15014352D01*
X57800003Y-14994508D01*
X57799997Y-14994508D01*
X57674699Y-15014352D01*
X57674698Y-15014352D01*
X57603756Y-15050500D01*
X57561658Y-15071950D01*
X57561657Y-15071951D01*
X57561652Y-15071954D01*
X57471954Y-15161652D01*
X57471951Y-15161657D01*
X57414352Y-15274698D01*
X57414352Y-15274699D01*
X57394508Y-15399996D01*
X57125492Y-15399996D01*
X57105647Y-15274699D01*
X57105647Y-15274698D01*
X57099085Y-15261820D01*
X57048050Y-15161658D01*
X57048046Y-15161654D01*
X57048045Y-15161652D01*
X56958347Y-15071954D01*
X56958344Y-15071952D01*
X56958342Y-15071950D01*
X56845304Y-15014354D01*
X56845303Y-15014353D01*
X56845300Y-15014352D01*
X56720003Y-14994508D01*
X56719997Y-14994508D01*
X56594699Y-15014352D01*
X56594698Y-15014352D01*
X56523756Y-15050500D01*
X56481658Y-15071950D01*
X56481657Y-15071951D01*
X56481652Y-15071954D01*
X56391954Y-15161652D01*
X56391951Y-15161657D01*
X56334352Y-15274698D01*
X56334352Y-15274699D01*
X56314508Y-15399996D01*
X53434866Y-15399996D01*
X54897946Y-13939996D01*
X62844508Y-13939996D01*
X62844508Y-13940003D01*
X62864352Y-14065300D01*
X62864352Y-14065301D01*
X62877528Y-14091159D01*
X62921950Y-14178342D01*
X62921952Y-14178344D01*
X62921954Y-14178347D01*
X63011652Y-14268045D01*
X63011654Y-14268046D01*
X63011658Y-14268050D01*
X63124696Y-14325646D01*
X63124697Y-14325646D01*
X63124699Y-14325647D01*
X63249997Y-14345492D01*
X63250000Y-14345492D01*
X63250003Y-14345492D01*
X63375300Y-14325647D01*
X63375301Y-14325647D01*
X63375302Y-14325646D01*
X63375304Y-14325646D01*
X63488342Y-14268050D01*
X63578050Y-14178342D01*
X63589515Y-14155839D01*
X63637489Y-14105043D01*
X63705310Y-14088248D01*
X63771445Y-14110785D01*
X63810485Y-14155840D01*
X63821949Y-14178340D01*
X63821954Y-14178347D01*
X63911652Y-14268045D01*
X63911654Y-14268046D01*
X63911658Y-14268050D01*
X64024696Y-14325646D01*
X64024697Y-14325646D01*
X64024699Y-14325647D01*
X64149997Y-14345492D01*
X64150000Y-14345492D01*
X64150003Y-14345492D01*
X64275300Y-14325647D01*
X64275301Y-14325647D01*
X64275302Y-14325646D01*
X64275304Y-14325646D01*
X64388342Y-14268050D01*
X64478050Y-14178342D01*
X64499516Y-14136210D01*
X64547489Y-14085417D01*
X64615310Y-14068622D01*
X64681445Y-14091159D01*
X64720482Y-14136210D01*
X64741949Y-14178340D01*
X64741951Y-14178343D01*
X64741954Y-14178347D01*
X64831652Y-14268045D01*
X64831654Y-14268046D01*
X64831658Y-14268050D01*
X64944696Y-14325646D01*
X64944697Y-14325646D01*
X64944699Y-14325647D01*
X65069997Y-14345492D01*
X65070000Y-14345492D01*
X65070003Y-14345492D01*
X65195300Y-14325647D01*
X65195301Y-14325647D01*
X65195302Y-14325646D01*
X65195304Y-14325646D01*
X65308342Y-14268050D01*
X65398050Y-14178342D01*
X65455646Y-14065304D01*
X65455646Y-14065302D01*
X65455647Y-14065301D01*
X65455647Y-14065300D01*
X65475492Y-13940003D01*
X65475492Y-13939996D01*
X65455647Y-13814699D01*
X65455647Y-13814698D01*
X65432471Y-13769213D01*
X65398050Y-13701658D01*
X65398046Y-13701654D01*
X65398045Y-13701652D01*
X65308347Y-13611954D01*
X65308344Y-13611952D01*
X65308342Y-13611950D01*
X65195304Y-13554354D01*
X65195303Y-13554353D01*
X65195300Y-13554352D01*
X65070003Y-13534508D01*
X65069997Y-13534508D01*
X64944699Y-13554352D01*
X64944698Y-13554352D01*
X64869337Y-13592751D01*
X64831658Y-13611950D01*
X64831657Y-13611951D01*
X64831652Y-13611954D01*
X64741954Y-13701652D01*
X64741947Y-13701661D01*
X64720484Y-13743786D01*
X64672510Y-13794582D01*
X64604689Y-13811377D01*
X64538554Y-13788839D01*
X64499516Y-13743786D01*
X64478052Y-13701661D01*
X64478050Y-13701659D01*
X64478050Y-13701658D01*
X64478048Y-13701656D01*
X64478045Y-13701652D01*
X64388347Y-13611954D01*
X64388344Y-13611952D01*
X64388342Y-13611950D01*
X64275304Y-13554354D01*
X64275303Y-13554353D01*
X64275300Y-13554352D01*
X64150003Y-13534508D01*
X64149997Y-13534508D01*
X64024699Y-13554352D01*
X64024698Y-13554352D01*
X63949337Y-13592751D01*
X63911658Y-13611950D01*
X63911657Y-13611951D01*
X63911652Y-13611954D01*
X63821954Y-13701652D01*
X63821949Y-13701659D01*
X63810484Y-13724161D01*
X63762510Y-13774956D01*
X63694688Y-13791751D01*
X63628554Y-13769213D01*
X63589516Y-13724161D01*
X63582753Y-13710888D01*
X63578050Y-13701658D01*
X63578047Y-13701655D01*
X63578045Y-13701652D01*
X63488347Y-13611954D01*
X63488344Y-13611952D01*
X63488342Y-13611950D01*
X63375304Y-13554354D01*
X63375303Y-13554353D01*
X63375300Y-13554352D01*
X63250003Y-13534508D01*
X63249997Y-13534508D01*
X63124699Y-13554352D01*
X63124698Y-13554352D01*
X63049337Y-13592751D01*
X63011658Y-13611950D01*
X63011657Y-13611951D01*
X63011652Y-13611954D01*
X62921954Y-13701652D01*
X62921951Y-13701657D01*
X62921950Y-13701658D01*
X62904808Y-13735301D01*
X62864352Y-13814698D01*
X62864352Y-13814699D01*
X62844508Y-13939996D01*
X54897946Y-13939996D01*
X55815962Y-13023913D01*
X56155594Y-12684996D01*
X65964508Y-12684996D01*
X65964508Y-12685003D01*
X65984352Y-12810300D01*
X65984352Y-12810301D01*
X65997779Y-12836652D01*
X66041950Y-12923342D01*
X66041952Y-12923344D01*
X66041954Y-12923347D01*
X66131652Y-13013045D01*
X66131654Y-13013046D01*
X66131658Y-13013050D01*
X66244696Y-13070646D01*
X66244697Y-13070646D01*
X66244699Y-13070647D01*
X66369997Y-13090492D01*
X66370000Y-13090492D01*
X66370003Y-13090492D01*
X66495300Y-13070647D01*
X66495301Y-13070647D01*
X66495302Y-13070646D01*
X66495304Y-13070646D01*
X66608342Y-13013050D01*
X66698050Y-12923342D01*
X66755646Y-12810304D01*
X66755646Y-12810302D01*
X66755647Y-12810301D01*
X66755647Y-12810300D01*
X66775492Y-12685003D01*
X66775492Y-12684996D01*
X66755647Y-12559699D01*
X66755647Y-12559698D01*
X66738992Y-12527011D01*
X66698050Y-12446658D01*
X66698046Y-12446654D01*
X66698045Y-12446652D01*
X66608347Y-12356954D01*
X66608344Y-12356952D01*
X66608342Y-12356950D01*
X66495304Y-12299354D01*
X66495303Y-12299353D01*
X66495300Y-12299352D01*
X66370003Y-12279508D01*
X66369997Y-12279508D01*
X66244699Y-12299352D01*
X66244698Y-12299352D01*
X66187600Y-12328446D01*
X66131658Y-12356950D01*
X66131657Y-12356951D01*
X66131652Y-12356954D01*
X66041954Y-12446652D01*
X66041951Y-12446657D01*
X65984352Y-12559698D01*
X65984352Y-12559699D01*
X65964508Y-12684996D01*
X56155594Y-12684996D01*
X58398585Y-10446726D01*
X58459944Y-10413306D01*
X58486174Y-10410500D01*
X58680762Y-10410500D01*
X58747801Y-10430185D01*
X58793556Y-10482989D01*
X58803500Y-10552147D01*
X58796237Y-10575049D01*
X58797369Y-10575417D01*
X58794352Y-10584699D01*
X58774508Y-10709996D01*
X58774508Y-10710003D01*
X58794352Y-10835300D01*
X58794352Y-10835301D01*
X58812805Y-10871517D01*
X58851950Y-10948342D01*
X58851952Y-10948344D01*
X58851954Y-10948347D01*
X58941652Y-11038045D01*
X58941654Y-11038046D01*
X58941658Y-11038050D01*
X59054696Y-11095646D01*
X59054697Y-11095646D01*
X59054699Y-11095647D01*
X59179997Y-11115492D01*
X59180000Y-11115492D01*
X59180003Y-11115492D01*
X59305300Y-11095647D01*
X59305301Y-11095647D01*
X59305302Y-11095646D01*
X59305304Y-11095646D01*
X59418342Y-11038050D01*
X59434442Y-11021950D01*
X59482319Y-10974074D01*
X59543642Y-10940589D01*
X59613334Y-10945573D01*
X59657681Y-10974074D01*
X59721652Y-11038045D01*
X59721654Y-11038046D01*
X59721658Y-11038050D01*
X59834696Y-11095646D01*
X59834697Y-11095646D01*
X59834699Y-11095647D01*
X59959997Y-11115492D01*
X59960000Y-11115492D01*
X59960003Y-11115492D01*
X60085300Y-11095647D01*
X60085301Y-11095647D01*
X60085302Y-11095646D01*
X60085304Y-11095646D01*
X60198342Y-11038050D01*
X60214442Y-11021950D01*
X60247319Y-10989074D01*
X60308642Y-10955589D01*
X60378334Y-10960573D01*
X60422681Y-10989074D01*
X60471652Y-11038045D01*
X60471654Y-11038046D01*
X60471658Y-11038050D01*
X60584696Y-11095646D01*
X60584697Y-11095646D01*
X60584699Y-11095647D01*
X60709997Y-11115492D01*
X60710000Y-11115492D01*
X60710003Y-11115492D01*
X60835300Y-11095647D01*
X60835301Y-11095647D01*
X60835302Y-11095646D01*
X60835304Y-11095646D01*
X60948342Y-11038050D01*
X60964442Y-11021950D01*
X61017319Y-10969074D01*
X61078642Y-10935589D01*
X61148334Y-10940573D01*
X61192681Y-10969074D01*
X61261652Y-11038045D01*
X61261654Y-11038046D01*
X61261658Y-11038050D01*
X61374696Y-11095646D01*
X61374697Y-11095646D01*
X61374699Y-11095647D01*
X61499997Y-11115492D01*
X61500000Y-11115492D01*
X61500003Y-11115492D01*
X61625300Y-11095647D01*
X61625301Y-11095647D01*
X61625302Y-11095646D01*
X61625304Y-11095646D01*
X61738342Y-11038050D01*
X61828050Y-10948342D01*
X61885646Y-10835304D01*
X61885646Y-10835302D01*
X61885647Y-10835301D01*
X61885647Y-10835300D01*
X61905492Y-10710003D01*
X61905492Y-10709996D01*
X61885647Y-10584699D01*
X61882631Y-10575417D01*
X61885680Y-10574425D01*
X61875856Y-10522136D01*
X61902127Y-10457393D01*
X61959230Y-10417132D01*
X61999238Y-10410500D01*
X63019138Y-10410500D01*
X63086177Y-10430185D01*
X63106819Y-10446819D01*
X63401368Y-10741368D01*
X63434853Y-10802691D01*
X63429869Y-10872383D01*
X63387997Y-10928316D01*
X63322533Y-10952733D01*
X63294290Y-10951522D01*
X63250004Y-10944508D01*
X63249997Y-10944508D01*
X63124699Y-10964352D01*
X63124698Y-10964352D01*
X63076180Y-10989074D01*
X63011658Y-11021950D01*
X63011657Y-11021951D01*
X63011652Y-11021954D01*
X62921954Y-11111652D01*
X62921951Y-11111657D01*
X62921950Y-11111658D01*
X62905212Y-11144508D01*
X62864352Y-11224698D01*
X62864352Y-11224699D01*
X62844508Y-11349996D01*
X62844508Y-11350003D01*
X62864352Y-11475300D01*
X62864352Y-11475301D01*
X62877192Y-11500500D01*
X62921950Y-11588342D01*
X62921952Y-11588344D01*
X62921954Y-11588347D01*
X63011652Y-11678045D01*
X63011654Y-11678046D01*
X63011658Y-11678050D01*
X63124696Y-11735646D01*
X63124697Y-11735646D01*
X63124699Y-11735647D01*
X63249997Y-11755492D01*
X63250000Y-11755492D01*
X63250003Y-11755492D01*
X63375300Y-11735647D01*
X63375301Y-11735647D01*
X63375302Y-11735646D01*
X63375304Y-11735646D01*
X63488342Y-11678050D01*
X63578050Y-11588342D01*
X63589515Y-11565839D01*
X63637489Y-11515043D01*
X63705310Y-11498248D01*
X63771445Y-11520785D01*
X63810485Y-11565840D01*
X63821949Y-11588340D01*
X63821954Y-11588347D01*
X63911652Y-11678045D01*
X63911654Y-11678046D01*
X63911658Y-11678050D01*
X64024696Y-11735646D01*
X64024697Y-11735646D01*
X64024699Y-11735647D01*
X64149997Y-11755492D01*
X64150000Y-11755492D01*
X64150003Y-11755492D01*
X64275300Y-11735647D01*
X64275301Y-11735647D01*
X64275302Y-11735646D01*
X64275304Y-11735646D01*
X64388342Y-11678050D01*
X64478050Y-11588342D01*
X64499516Y-11546210D01*
X64547489Y-11495417D01*
X64615310Y-11478622D01*
X64681445Y-11501159D01*
X64720482Y-11546210D01*
X64741949Y-11588340D01*
X64741951Y-11588343D01*
X64741954Y-11588347D01*
X64831652Y-11678045D01*
X64831654Y-11678046D01*
X64831658Y-11678050D01*
X64944696Y-11735646D01*
X64944697Y-11735646D01*
X64944699Y-11735647D01*
X65069997Y-11755492D01*
X65070000Y-11755492D01*
X65070003Y-11755492D01*
X65195300Y-11735647D01*
X65195301Y-11735647D01*
X65195302Y-11735646D01*
X65195304Y-11735646D01*
X65308342Y-11678050D01*
X65398050Y-11588342D01*
X65455646Y-11475304D01*
X65455646Y-11475302D01*
X65455647Y-11475301D01*
X65455647Y-11475300D01*
X65475492Y-11350003D01*
X65475492Y-11349996D01*
X65455647Y-11224699D01*
X65455647Y-11224698D01*
X65454247Y-11221950D01*
X65398050Y-11111658D01*
X65398046Y-11111654D01*
X65398045Y-11111652D01*
X65308347Y-11021954D01*
X65308344Y-11021952D01*
X65308342Y-11021950D01*
X65195304Y-10964354D01*
X65195303Y-10964353D01*
X65195300Y-10964352D01*
X65070003Y-10944508D01*
X65069997Y-10944508D01*
X64963397Y-10961391D01*
X64894104Y-10952436D01*
X64840652Y-10907440D01*
X64820013Y-10840688D01*
X64820000Y-10838918D01*
X64820000Y-9969996D01*
X66794508Y-9969996D01*
X66794508Y-9970003D01*
X66814352Y-10095300D01*
X66814352Y-10095301D01*
X66816142Y-10098814D01*
X66871950Y-10208342D01*
X66871952Y-10208344D01*
X66871954Y-10208347D01*
X66961652Y-10298045D01*
X66961654Y-10298046D01*
X66961658Y-10298050D01*
X67074696Y-10355646D01*
X67074697Y-10355646D01*
X67074699Y-10355647D01*
X67199997Y-10375492D01*
X67200000Y-10375492D01*
X67200003Y-10375492D01*
X67325300Y-10355647D01*
X67325301Y-10355647D01*
X67325302Y-10355646D01*
X67325304Y-10355646D01*
X67438342Y-10298050D01*
X67528050Y-10208342D01*
X67585646Y-10095304D01*
X67585646Y-10095302D01*
X67585647Y-10095301D01*
X67585647Y-10095300D01*
X67605492Y-9970003D01*
X67605492Y-9969996D01*
X67585647Y-9844699D01*
X67585647Y-9844698D01*
X67557486Y-9789430D01*
X67528050Y-9731658D01*
X67528046Y-9731654D01*
X67528045Y-9731652D01*
X67438347Y-9641954D01*
X67438344Y-9641952D01*
X67438342Y-9641950D01*
X67325304Y-9584354D01*
X67325303Y-9584353D01*
X67325300Y-9584352D01*
X67200003Y-9564508D01*
X67199997Y-9564508D01*
X67074699Y-9584352D01*
X67074698Y-9584352D01*
X66999337Y-9622751D01*
X66961658Y-9641950D01*
X66961657Y-9641951D01*
X66961652Y-9641954D01*
X66871954Y-9731652D01*
X66871951Y-9731657D01*
X66871950Y-9731658D01*
X66852751Y-9769337D01*
X66814352Y-9844698D01*
X66814352Y-9844699D01*
X66794508Y-9969996D01*
X64820000Y-9969996D01*
X64820000Y-9912168D01*
X64839685Y-9845129D01*
X64892489Y-9799374D01*
X64961647Y-9789430D01*
X64963398Y-9789695D01*
X64999998Y-9795492D01*
X65000000Y-9795492D01*
X65000003Y-9795492D01*
X65125300Y-9775647D01*
X65125301Y-9775647D01*
X65125302Y-9775646D01*
X65125304Y-9775646D01*
X65238342Y-9718050D01*
X65328050Y-9628342D01*
X65385646Y-9515304D01*
X65385646Y-9515302D01*
X65385647Y-9515301D01*
X65385647Y-9515300D01*
X65405492Y-9390003D01*
X65405492Y-9389996D01*
X65385647Y-9264699D01*
X65385647Y-9264698D01*
X65376704Y-9247147D01*
X65328050Y-9151658D01*
X65328046Y-9151654D01*
X65328045Y-9151652D01*
X65238347Y-9061954D01*
X65238344Y-9061952D01*
X65238342Y-9061950D01*
X65161517Y-9022805D01*
X65125301Y-9004352D01*
X65020929Y-8987822D01*
X64957794Y-8957893D01*
X64952646Y-8953030D01*
X64596059Y-8596444D01*
X64596055Y-8596441D01*
X64573378Y-8587048D01*
X64494800Y-8554500D01*
X48703486Y-8554500D01*
X48636447Y-8534815D01*
X48590692Y-8482011D01*
X48580748Y-8412853D01*
X48609773Y-8349297D01*
X48615805Y-8342819D01*
X49831805Y-7126819D01*
X49893128Y-7093334D01*
X49919486Y-7090500D01*
X67599191Y-7090500D01*
X67666230Y-7110185D01*
X67686872Y-7126819D01*
X68483181Y-7923127D01*
X68516666Y-7984450D01*
X68519500Y-8010808D01*
X68519500Y-14149191D01*
X68499815Y-14216230D01*
X68483181Y-14236872D01*
X67641872Y-15078181D01*
X67580549Y-15111666D01*
X67554191Y-15114500D01*
X67415136Y-15114500D01*
X67323068Y-15152636D01*
X67008507Y-15467197D01*
X66947184Y-15500682D01*
X66921226Y-15503472D01*
X66795657Y-15523360D01*
X66795656Y-15523360D01*
X66729461Y-15557089D01*
X66682616Y-15580958D01*
X66682615Y-15580959D01*
X66682610Y-15580962D01*
X66592912Y-15670660D01*
X66592904Y-15670671D01*
X66592465Y-15671534D01*
X66591654Y-15672391D01*
X66587175Y-15678558D01*
X66586377Y-15677978D01*
X66544487Y-15722326D01*
X66476664Y-15739116D01*
X66410531Y-15716573D01*
X66394304Y-15702911D01*
X66313347Y-15621954D01*
X66313344Y-15621952D01*
X66313342Y-15621950D01*
X66200304Y-15564354D01*
X66200303Y-15564353D01*
X66200300Y-15564352D01*
X66075003Y-15544508D01*
X66074997Y-15544508D01*
X65949699Y-15564352D01*
X65949698Y-15564352D01*
X65874337Y-15602751D01*
X65836658Y-15621950D01*
X65836657Y-15621951D01*
X65836652Y-15621954D01*
X65746954Y-15711652D01*
X65746951Y-15711657D01*
X65746950Y-15711658D01*
X65728018Y-15748814D01*
X65689352Y-15824698D01*
X65689352Y-15824699D01*
X65669508Y-15949996D01*
X65669508Y-15950003D01*
X65689352Y-16075300D01*
X65689352Y-16075301D01*
X65689354Y-16075304D01*
X65746950Y-16188342D01*
X65746952Y-16188344D01*
X65746954Y-16188347D01*
X65836652Y-16278045D01*
X65836654Y-16278046D01*
X65836658Y-16278050D01*
X65949696Y-16335646D01*
X65949697Y-16335646D01*
X65949699Y-16335647D01*
X66074997Y-16355492D01*
X66075000Y-16355492D01*
X66075003Y-16355492D01*
X66200300Y-16335647D01*
X66200301Y-16335647D01*
X66200302Y-16335646D01*
X66200304Y-16335646D01*
X66313342Y-16278050D01*
X66403050Y-16188342D01*
X66403486Y-16187485D01*
X66404289Y-16186634D01*
X66408783Y-16180450D01*
X66409582Y-16181030D01*
X66451457Y-16136689D01*
X66519277Y-16119891D01*
X66585413Y-16142425D01*
X66601653Y-16156096D01*
X66682610Y-16237053D01*
X66682612Y-16237054D01*
X66682616Y-16237058D01*
X66795654Y-16294654D01*
X66795655Y-16294654D01*
X66795657Y-16294655D01*
X66920955Y-16314500D01*
X66920958Y-16314500D01*
X66920961Y-16314500D01*
X67046258Y-16294655D01*
X67046259Y-16294655D01*
X67046260Y-16294654D01*
X67046262Y-16294654D01*
X67159300Y-16237058D01*
X67196358Y-16200000D01*
X67255909Y-16140450D01*
X67258363Y-16142904D01*
X67299744Y-16110978D01*
X67369356Y-16104980D01*
X67431159Y-16137570D01*
X67432443Y-16138836D01*
X67511652Y-16218045D01*
X67511654Y-16218046D01*
X67511658Y-16218050D01*
X67624696Y-16275646D01*
X67624697Y-16275646D01*
X67624699Y-16275647D01*
X67749997Y-16295492D01*
X67750000Y-16295492D01*
X67750003Y-16295492D01*
X67875300Y-16275647D01*
X67875301Y-16275647D01*
X67875302Y-16275646D01*
X67875304Y-16275646D01*
X67988342Y-16218050D01*
X68078050Y-16128342D01*
X68135646Y-16015304D01*
X68135646Y-16015302D01*
X68135647Y-16015301D01*
X68135647Y-16015300D01*
X68157019Y-15880362D01*
X68158300Y-15880564D01*
X68175177Y-15823091D01*
X68191811Y-15802449D01*
X68755644Y-15238616D01*
X69382364Y-14611897D01*
X69420500Y-14519828D01*
X69420500Y-14420172D01*
X69420500Y-13609996D01*
X77594508Y-13609996D01*
X77594508Y-13610003D01*
X77614352Y-13735300D01*
X77614352Y-13735301D01*
X77621754Y-13749828D01*
X77671950Y-13848342D01*
X77671952Y-13848344D01*
X77671954Y-13848347D01*
X77761652Y-13938045D01*
X77761654Y-13938046D01*
X77761658Y-13938050D01*
X77874696Y-13995646D01*
X77874697Y-13995646D01*
X77874699Y-13995647D01*
X77999997Y-14015492D01*
X78000000Y-14015492D01*
X78000003Y-14015492D01*
X78125300Y-13995647D01*
X78125301Y-13995647D01*
X78125302Y-13995646D01*
X78125304Y-13995646D01*
X78238342Y-13938050D01*
X78328050Y-13848342D01*
X78385646Y-13735304D01*
X78385646Y-13735302D01*
X78385647Y-13735301D01*
X78385647Y-13735300D01*
X78405492Y-13610003D01*
X78405492Y-13609996D01*
X79024508Y-13609996D01*
X79024508Y-13610003D01*
X79044352Y-13735300D01*
X79044352Y-13735301D01*
X79051754Y-13749828D01*
X79101950Y-13848342D01*
X79101952Y-13848344D01*
X79101954Y-13848347D01*
X79191652Y-13938045D01*
X79191654Y-13938046D01*
X79191658Y-13938050D01*
X79304696Y-13995646D01*
X79304697Y-13995646D01*
X79304699Y-13995647D01*
X79429997Y-14015492D01*
X79430000Y-14015492D01*
X79430003Y-14015492D01*
X79555300Y-13995647D01*
X79555301Y-13995647D01*
X79555302Y-13995646D01*
X79555304Y-13995646D01*
X79668342Y-13938050D01*
X79758050Y-13848342D01*
X79815646Y-13735304D01*
X79815646Y-13735302D01*
X79815647Y-13735301D01*
X79815647Y-13735300D01*
X79835492Y-13610003D01*
X79835492Y-13609996D01*
X79815647Y-13484699D01*
X79815647Y-13484698D01*
X79803174Y-13460219D01*
X79758050Y-13371658D01*
X79758046Y-13371654D01*
X79758045Y-13371652D01*
X79668347Y-13281954D01*
X79668344Y-13281952D01*
X79668342Y-13281950D01*
X79555304Y-13224354D01*
X79555303Y-13224353D01*
X79555300Y-13224352D01*
X79430003Y-13204508D01*
X79429997Y-13204508D01*
X79304699Y-13224352D01*
X79304698Y-13224352D01*
X79241675Y-13256465D01*
X79191658Y-13281950D01*
X79191657Y-13281951D01*
X79191652Y-13281954D01*
X79101954Y-13371652D01*
X79101951Y-13371657D01*
X79101950Y-13371658D01*
X79087254Y-13400500D01*
X79044352Y-13484698D01*
X79044352Y-13484699D01*
X79024508Y-13609996D01*
X78405492Y-13609996D01*
X78385647Y-13484699D01*
X78385647Y-13484698D01*
X78373174Y-13460219D01*
X78328050Y-13371658D01*
X78328046Y-13371654D01*
X78328045Y-13371652D01*
X78238347Y-13281954D01*
X78238344Y-13281952D01*
X78238342Y-13281950D01*
X78125304Y-13224354D01*
X78125303Y-13224353D01*
X78125300Y-13224352D01*
X78000003Y-13204508D01*
X77999997Y-13204508D01*
X77874699Y-13224352D01*
X77874698Y-13224352D01*
X77811675Y-13256465D01*
X77761658Y-13281950D01*
X77761657Y-13281951D01*
X77761652Y-13281954D01*
X77671954Y-13371652D01*
X77671951Y-13371657D01*
X77671950Y-13371658D01*
X77657254Y-13400500D01*
X77614352Y-13484698D01*
X77614352Y-13484699D01*
X77594508Y-13609996D01*
X69420500Y-13609996D01*
X69420500Y-11549996D01*
X77594508Y-11549996D01*
X77594508Y-11550003D01*
X77614352Y-11675300D01*
X77614352Y-11675301D01*
X77615752Y-11678048D01*
X77671950Y-11788342D01*
X77671952Y-11788344D01*
X77671954Y-11788347D01*
X77761652Y-11878045D01*
X77761654Y-11878046D01*
X77761658Y-11878050D01*
X77874696Y-11935646D01*
X77874697Y-11935646D01*
X77874699Y-11935647D01*
X77999997Y-11955492D01*
X78000000Y-11955492D01*
X78000003Y-11955492D01*
X78125300Y-11935647D01*
X78125301Y-11935647D01*
X78125302Y-11935646D01*
X78125304Y-11935646D01*
X78238342Y-11878050D01*
X78328050Y-11788342D01*
X78385646Y-11675304D01*
X78385646Y-11675302D01*
X78385647Y-11675301D01*
X78385647Y-11675300D01*
X78405492Y-11550003D01*
X78405492Y-11549996D01*
X78402324Y-11529996D01*
X78924508Y-11529996D01*
X78924508Y-11530003D01*
X78944352Y-11655300D01*
X78944352Y-11655301D01*
X78955941Y-11678045D01*
X79001950Y-11768342D01*
X79001952Y-11768344D01*
X79001954Y-11768347D01*
X79091652Y-11858045D01*
X79091654Y-11858046D01*
X79091658Y-11858050D01*
X79204696Y-11915646D01*
X79204697Y-11915646D01*
X79204699Y-11915647D01*
X79329997Y-11935492D01*
X79330000Y-11935492D01*
X79330003Y-11935492D01*
X79455300Y-11915647D01*
X79455301Y-11915647D01*
X79455302Y-11915646D01*
X79455304Y-11915646D01*
X79568342Y-11858050D01*
X79658050Y-11768342D01*
X79715646Y-11655304D01*
X79715646Y-11655302D01*
X79715647Y-11655301D01*
X79715647Y-11655300D01*
X79735492Y-11530003D01*
X79735492Y-11529996D01*
X80344508Y-11529996D01*
X80344508Y-11530003D01*
X80364352Y-11655300D01*
X80364352Y-11655301D01*
X80375941Y-11678045D01*
X80421950Y-11768342D01*
X80421952Y-11768344D01*
X80421954Y-11768347D01*
X80511652Y-11858045D01*
X80511654Y-11858046D01*
X80511658Y-11858050D01*
X80624696Y-11915646D01*
X80624697Y-11915646D01*
X80624699Y-11915647D01*
X80749997Y-11935492D01*
X80750000Y-11935492D01*
X80750003Y-11935492D01*
X80875300Y-11915647D01*
X80875301Y-11915647D01*
X80875302Y-11915646D01*
X80875304Y-11915646D01*
X80988342Y-11858050D01*
X81078050Y-11768342D01*
X81135646Y-11655304D01*
X81135646Y-11655302D01*
X81135647Y-11655301D01*
X81135647Y-11655300D01*
X81153909Y-11539996D01*
X83204508Y-11539996D01*
X83204508Y-11540003D01*
X83224352Y-11665300D01*
X83224352Y-11665301D01*
X83229449Y-11675304D01*
X83281950Y-11778342D01*
X83281952Y-11778344D01*
X83281954Y-11778347D01*
X83371652Y-11868045D01*
X83371654Y-11868046D01*
X83371658Y-11868050D01*
X83484696Y-11925646D01*
X83484697Y-11925646D01*
X83484699Y-11925647D01*
X83609997Y-11945492D01*
X83610000Y-11945492D01*
X83610003Y-11945492D01*
X83735300Y-11925647D01*
X83735301Y-11925647D01*
X83735302Y-11925646D01*
X83735304Y-11925646D01*
X83848342Y-11868050D01*
X83938050Y-11778342D01*
X83995646Y-11665304D01*
X83995646Y-11665302D01*
X83995647Y-11665301D01*
X83995647Y-11665300D01*
X84015492Y-11540003D01*
X84015492Y-11539996D01*
X83995647Y-11414699D01*
X83995647Y-11414698D01*
X83987903Y-11399500D01*
X83938050Y-11301658D01*
X83938046Y-11301654D01*
X83938045Y-11301652D01*
X83848347Y-11211954D01*
X83848344Y-11211952D01*
X83848342Y-11211950D01*
X83735304Y-11154354D01*
X83735303Y-11154353D01*
X83735300Y-11154352D01*
X83610003Y-11134508D01*
X83609997Y-11134508D01*
X83484699Y-11154352D01*
X83484698Y-11154352D01*
X83420980Y-11186819D01*
X83371658Y-11211950D01*
X83371657Y-11211951D01*
X83371652Y-11211954D01*
X83281954Y-11301652D01*
X83281951Y-11301657D01*
X83281950Y-11301658D01*
X83267104Y-11330795D01*
X83224352Y-11414698D01*
X83224352Y-11414699D01*
X83204508Y-11539996D01*
X81153909Y-11539996D01*
X81155492Y-11530003D01*
X81155492Y-11529996D01*
X81135647Y-11404699D01*
X81135647Y-11404698D01*
X81113983Y-11362181D01*
X81078050Y-11291658D01*
X81078046Y-11291654D01*
X81078045Y-11291652D01*
X80988347Y-11201954D01*
X80988344Y-11201952D01*
X80988342Y-11201950D01*
X80875304Y-11144354D01*
X80875303Y-11144353D01*
X80875300Y-11144352D01*
X80750003Y-11124508D01*
X80749997Y-11124508D01*
X80624699Y-11144352D01*
X80624698Y-11144352D01*
X80549337Y-11182751D01*
X80511658Y-11201950D01*
X80511657Y-11201951D01*
X80511652Y-11201954D01*
X80421954Y-11291652D01*
X80421951Y-11291657D01*
X80421950Y-11291658D01*
X80405217Y-11324499D01*
X80364352Y-11404698D01*
X80364352Y-11404699D01*
X80344508Y-11529996D01*
X79735492Y-11529996D01*
X79715647Y-11404699D01*
X79715647Y-11404698D01*
X79693983Y-11362181D01*
X79658050Y-11291658D01*
X79658046Y-11291654D01*
X79658045Y-11291652D01*
X79568347Y-11201954D01*
X79568344Y-11201952D01*
X79568342Y-11201950D01*
X79455304Y-11144354D01*
X79455303Y-11144353D01*
X79455300Y-11144352D01*
X79330003Y-11124508D01*
X79329997Y-11124508D01*
X79204699Y-11144352D01*
X79204698Y-11144352D01*
X79129337Y-11182751D01*
X79091658Y-11201950D01*
X79091657Y-11201951D01*
X79091652Y-11201954D01*
X79001954Y-11291652D01*
X79001951Y-11291657D01*
X79001950Y-11291658D01*
X78985217Y-11324499D01*
X78944352Y-11404698D01*
X78944352Y-11404699D01*
X78924508Y-11529996D01*
X78402324Y-11529996D01*
X78385647Y-11424699D01*
X78385647Y-11424698D01*
X78377258Y-11408234D01*
X78328050Y-11311658D01*
X78328046Y-11311654D01*
X78328045Y-11311652D01*
X78238347Y-11221954D01*
X78238344Y-11221952D01*
X78238342Y-11221950D01*
X78125304Y-11164354D01*
X78125303Y-11164353D01*
X78125300Y-11164352D01*
X78000003Y-11144508D01*
X77999997Y-11144508D01*
X77874699Y-11164352D01*
X77874698Y-11164352D01*
X77800910Y-11201950D01*
X77761658Y-11221950D01*
X77761657Y-11221951D01*
X77761652Y-11221954D01*
X77671954Y-11311652D01*
X77671951Y-11311657D01*
X77614352Y-11424698D01*
X77614352Y-11424699D01*
X77594508Y-11549996D01*
X69420500Y-11549996D01*
X69420500Y-7640172D01*
X69382364Y-7548103D01*
X69311897Y-7477636D01*
X68436442Y-6602181D01*
X68402957Y-6540858D01*
X68407941Y-6471166D01*
X68449813Y-6415233D01*
X68515277Y-6390816D01*
X68524123Y-6390500D01*
X76814877Y-6390500D01*
X76881916Y-6410185D01*
X76902558Y-6426819D01*
X77110565Y-6634825D01*
X77110568Y-6634829D01*
X77117636Y-6641897D01*
X77188103Y-6712364D01*
X77280172Y-6750500D01*
X77379828Y-6750500D01*
X80619877Y-6750500D01*
X80686916Y-6770185D01*
X80707558Y-6786819D01*
X83070537Y-9149797D01*
X83104022Y-9211120D01*
X83099038Y-9280812D01*
X83092214Y-9295931D01*
X83071188Y-9335266D01*
X83013975Y-9523870D01*
X82994659Y-9720000D01*
X83013975Y-9916129D01*
X83013976Y-9916132D01*
X83069391Y-10098811D01*
X83071188Y-10104733D01*
X83164086Y-10278532D01*
X83164090Y-10278539D01*
X83289116Y-10430883D01*
X83441460Y-10555909D01*
X83441467Y-10555913D01*
X83615266Y-10648811D01*
X83615269Y-10648811D01*
X83615273Y-10648814D01*
X83803868Y-10706024D01*
X84000000Y-10725341D01*
X84196132Y-10706024D01*
X84384727Y-10648814D01*
X84451394Y-10613180D01*
X84471632Y-10602362D01*
X84558538Y-10555910D01*
X84710883Y-10430883D01*
X84835910Y-10278538D01*
X84928814Y-10104727D01*
X84986024Y-9916132D01*
X85005341Y-9720000D01*
X84986024Y-9523868D01*
X84928814Y-9335273D01*
X84928811Y-9335269D01*
X84928811Y-9335266D01*
X84835913Y-9161467D01*
X84835909Y-9161460D01*
X84710883Y-9009116D01*
X84558539Y-8884090D01*
X84558532Y-8884086D01*
X84384733Y-8791188D01*
X84384727Y-8791186D01*
X84196132Y-8733976D01*
X84196129Y-8733975D01*
X84000000Y-8714659D01*
X83803870Y-8733975D01*
X83719246Y-8759645D01*
X83615273Y-8791186D01*
X83615270Y-8791187D01*
X83615268Y-8791188D01*
X83569412Y-8815698D01*
X83501009Y-8829939D01*
X83435766Y-8804938D01*
X83423280Y-8794020D01*
X82193993Y-7564733D01*
X80916897Y-6287636D01*
X80824829Y-6249500D01*
X80824828Y-6249500D01*
X77485122Y-6249500D01*
X77418083Y-6229815D01*
X77397441Y-6213181D01*
X77128388Y-5944127D01*
X77094903Y-5882804D01*
X77099887Y-5813112D01*
X77128386Y-5768767D01*
X77410335Y-5486819D01*
X77471658Y-5453334D01*
X77498016Y-5450500D01*
X82044877Y-5450500D01*
X82111916Y-5470185D01*
X82132558Y-5486819D01*
X83134977Y-6489238D01*
X83168462Y-6550561D01*
X83163478Y-6620253D01*
X83156654Y-6635372D01*
X83071188Y-6795266D01*
X83013975Y-6983870D01*
X82994659Y-7180000D01*
X83013975Y-7376129D01*
X83071188Y-7564733D01*
X83164086Y-7738532D01*
X83164090Y-7738539D01*
X83289116Y-7890883D01*
X83441460Y-8015909D01*
X83441467Y-8015913D01*
X83615266Y-8108811D01*
X83615269Y-8108811D01*
X83615273Y-8108814D01*
X83803868Y-8166024D01*
X84000000Y-8185341D01*
X84196132Y-8166024D01*
X84384727Y-8108814D01*
X84558538Y-8015910D01*
X84710883Y-7890883D01*
X84835910Y-7738538D01*
X84928814Y-7564727D01*
X84986024Y-7376132D01*
X85005341Y-7180000D01*
X84986024Y-6983868D01*
X84928814Y-6795273D01*
X84928811Y-6795269D01*
X84928811Y-6795266D01*
X84835913Y-6621467D01*
X84835909Y-6621460D01*
X84710883Y-6469116D01*
X84558539Y-6344090D01*
X84558532Y-6344086D01*
X84384733Y-6251188D01*
X84384727Y-6251186D01*
X84196132Y-6193976D01*
X84196129Y-6193975D01*
X84000000Y-6174659D01*
X83803869Y-6193975D01*
X83678855Y-6231898D01*
X83608988Y-6232521D01*
X83555179Y-6200918D01*
X82341897Y-4987636D01*
X82249829Y-4949500D01*
X82249828Y-4949500D01*
X77392720Y-4949500D01*
X77293065Y-4949500D01*
X77293063Y-4949500D01*
X77200995Y-4987636D01*
X77200994Y-4987637D01*
X76735451Y-5453181D01*
X76674128Y-5486666D01*
X76647770Y-5489500D01*
X49372998Y-5489500D01*
X49372990Y-5489499D01*
X49358556Y-5489499D01*
X49258900Y-5489499D01*
X49258898Y-5489499D01*
X49258896Y-5489500D01*
X49193800Y-5516463D01*
X49193797Y-5516465D01*
X49166831Y-5527636D01*
X49166827Y-5527639D01*
X43731286Y-10963181D01*
X43669963Y-10996666D01*
X43643605Y-10999500D01*
X40820170Y-10999500D01*
X40728102Y-11037636D01*
X40728101Y-11037637D01*
X39857533Y-11908204D01*
X39796210Y-11941689D01*
X39769757Y-11942451D01*
X39769757Y-11944508D01*
X39750241Y-11944508D01*
X39750241Y-11940534D01*
X39700013Y-11933937D01*
X39662464Y-11908204D01*
X39065918Y-11311658D01*
X38441897Y-10687636D01*
X38349829Y-10649500D01*
X38349828Y-10649500D01*
X30337254Y-10649500D01*
X30270215Y-10629815D01*
X30249572Y-10613180D01*
X30208346Y-10571953D01*
X30208344Y-10571952D01*
X30208342Y-10571950D01*
X30095304Y-10514354D01*
X30095303Y-10514353D01*
X30095300Y-10514352D01*
X29970003Y-10494508D01*
X29969997Y-10494508D01*
X29844699Y-10514352D01*
X29844698Y-10514352D01*
X29770523Y-10552147D01*
X29731658Y-10571950D01*
X29731657Y-10571951D01*
X29731653Y-10571953D01*
X29690428Y-10613180D01*
X29629105Y-10646666D01*
X29602746Y-10649500D01*
X10250170Y-10649500D01*
X10158102Y-10687636D01*
X10158101Y-10687637D01*
X9211681Y-11634058D01*
X9150358Y-11667543D01*
X9080666Y-11662559D01*
X9024733Y-11620687D01*
X9000316Y-11555223D01*
X9000000Y-11546377D01*
X9000000Y-9170000D01*
X27224659Y-9170000D01*
X27243975Y-9366129D01*
X27301188Y-9554733D01*
X27394086Y-9728532D01*
X27394090Y-9728539D01*
X27519116Y-9880883D01*
X27671460Y-10005909D01*
X27671467Y-10005913D01*
X27845266Y-10098811D01*
X27845269Y-10098811D01*
X27845273Y-10098814D01*
X28033868Y-10156024D01*
X28230000Y-10175341D01*
X28426132Y-10156024D01*
X28614727Y-10098814D01*
X28621300Y-10095301D01*
X28788532Y-10005913D01*
X28788538Y-10005910D01*
X28940883Y-9880883D01*
X29065910Y-9728538D01*
X29158814Y-9554727D01*
X29216024Y-9366132D01*
X29235341Y-9170000D01*
X29764659Y-9170000D01*
X29783975Y-9366129D01*
X29841188Y-9554733D01*
X29934086Y-9728532D01*
X29934090Y-9728539D01*
X30059116Y-9880883D01*
X30211460Y-10005909D01*
X30211467Y-10005913D01*
X30385266Y-10098811D01*
X30385269Y-10098811D01*
X30385273Y-10098814D01*
X30573868Y-10156024D01*
X30770000Y-10175341D01*
X30966132Y-10156024D01*
X31154727Y-10098814D01*
X31161300Y-10095301D01*
X31328532Y-10005913D01*
X31328538Y-10005910D01*
X31480883Y-9880883D01*
X31605910Y-9728538D01*
X31698814Y-9554727D01*
X31756024Y-9366132D01*
X31775341Y-9170000D01*
X32304659Y-9170000D01*
X32323975Y-9366129D01*
X32381188Y-9554733D01*
X32474086Y-9728532D01*
X32474090Y-9728539D01*
X32599116Y-9880883D01*
X32751460Y-10005909D01*
X32751467Y-10005913D01*
X32925266Y-10098811D01*
X32925269Y-10098811D01*
X32925273Y-10098814D01*
X33113868Y-10156024D01*
X33310000Y-10175341D01*
X33506132Y-10156024D01*
X33694727Y-10098814D01*
X33701300Y-10095301D01*
X33868532Y-10005913D01*
X33868538Y-10005910D01*
X34020883Y-9880883D01*
X34145910Y-9728538D01*
X34238814Y-9554727D01*
X34296024Y-9366132D01*
X34315341Y-9170000D01*
X34296024Y-8973868D01*
X34238814Y-8785273D01*
X34238811Y-8785269D01*
X34238811Y-8785266D01*
X34145913Y-8611467D01*
X34145909Y-8611460D01*
X34020883Y-8459116D01*
X33868539Y-8334090D01*
X33868532Y-8334086D01*
X33694733Y-8241188D01*
X33694727Y-8241186D01*
X33510632Y-8185341D01*
X33506129Y-8183975D01*
X33310000Y-8164659D01*
X33113870Y-8183975D01*
X32925266Y-8241188D01*
X32751467Y-8334086D01*
X32751460Y-8334090D01*
X32599116Y-8459116D01*
X32474090Y-8611460D01*
X32474086Y-8611467D01*
X32381188Y-8785266D01*
X32323975Y-8973870D01*
X32304659Y-9170000D01*
X31775341Y-9170000D01*
X31756024Y-8973868D01*
X31698814Y-8785273D01*
X31698811Y-8785269D01*
X31698811Y-8785266D01*
X31605913Y-8611467D01*
X31605909Y-8611460D01*
X31480883Y-8459116D01*
X31328539Y-8334090D01*
X31328532Y-8334086D01*
X31154733Y-8241188D01*
X31154727Y-8241186D01*
X30970632Y-8185341D01*
X30966129Y-8183975D01*
X30770000Y-8164659D01*
X30573870Y-8183975D01*
X30385266Y-8241188D01*
X30211467Y-8334086D01*
X30211460Y-8334090D01*
X30059116Y-8459116D01*
X29934090Y-8611460D01*
X29934086Y-8611467D01*
X29841188Y-8785266D01*
X29783975Y-8973870D01*
X29764659Y-9170000D01*
X29235341Y-9170000D01*
X29216024Y-8973868D01*
X29158814Y-8785273D01*
X29158811Y-8785269D01*
X29158811Y-8785266D01*
X29065913Y-8611467D01*
X29065909Y-8611460D01*
X28940883Y-8459116D01*
X28788539Y-8334090D01*
X28788532Y-8334086D01*
X28614733Y-8241188D01*
X28614727Y-8241186D01*
X28430632Y-8185341D01*
X28426129Y-8183975D01*
X28230000Y-8164659D01*
X28033870Y-8183975D01*
X27845266Y-8241188D01*
X27671467Y-8334086D01*
X27671460Y-8334090D01*
X27519116Y-8459116D01*
X27394090Y-8611460D01*
X27394086Y-8611467D01*
X27301188Y-8785266D01*
X27243975Y-8973870D01*
X27224659Y-9170000D01*
X9000000Y-9170000D01*
X9000000Y-5509776D01*
X9019685Y-5442737D01*
X9072489Y-5396982D01*
X9091901Y-5390003D01*
X9154587Y-5373207D01*
X9245913Y-5320480D01*
X9320480Y-5245913D01*
X9373207Y-5154587D01*
X9400500Y-5052727D01*
X9400500Y-2814996D01*
X64329508Y-2814996D01*
X64329508Y-2815003D01*
X64349352Y-2940300D01*
X64349352Y-2940301D01*
X64349354Y-2940304D01*
X64406950Y-3053342D01*
X64406952Y-3053344D01*
X64406954Y-3053347D01*
X64496652Y-3143045D01*
X64496654Y-3143046D01*
X64496658Y-3143050D01*
X64609696Y-3200646D01*
X64609697Y-3200646D01*
X64609699Y-3200647D01*
X64734997Y-3220492D01*
X64735000Y-3220492D01*
X64735003Y-3220492D01*
X64860300Y-3200647D01*
X64860301Y-3200647D01*
X64860302Y-3200646D01*
X64860304Y-3200646D01*
X64973342Y-3143050D01*
X65063050Y-3053342D01*
X65120646Y-2940304D01*
X65120646Y-2940302D01*
X65120647Y-2940301D01*
X65120647Y-2940300D01*
X65140492Y-2815003D01*
X65140492Y-2814996D01*
X65120647Y-2689699D01*
X65120647Y-2689698D01*
X65120646Y-2689696D01*
X65063050Y-2576658D01*
X65063046Y-2576654D01*
X65063045Y-2576652D01*
X64973347Y-2486954D01*
X64973344Y-2486952D01*
X64973342Y-2486950D01*
X64860304Y-2429354D01*
X64860303Y-2429353D01*
X64860300Y-2429352D01*
X64735003Y-2409508D01*
X64734997Y-2409508D01*
X64609699Y-2429352D01*
X64609698Y-2429352D01*
X64534337Y-2467751D01*
X64496658Y-2486950D01*
X64496657Y-2486951D01*
X64496652Y-2486954D01*
X64406954Y-2576652D01*
X64406951Y-2576657D01*
X64349352Y-2689698D01*
X64349352Y-2689699D01*
X64329508Y-2814996D01*
X9400500Y-2814996D01*
X9400500Y-524500D01*
X9420185Y-457461D01*
X9472989Y-411706D01*
X9524500Y-400500D01*
X88475500Y-400500D01*
X88542539Y-420185D01*
G37*
%TD.AperFunction*%
%TA.AperFunction,Conductor*%
G36*
X9205203Y-13476565D02*
G01*
X9234483Y-13513981D01*
X9289107Y-13621185D01*
X9289109Y-13621187D01*
X9289111Y-13621190D01*
X9378809Y-13710888D01*
X9378811Y-13710889D01*
X9378815Y-13710893D01*
X9491853Y-13768489D01*
X9491854Y-13768489D01*
X9491856Y-13768490D01*
X9626795Y-13789862D01*
X9626591Y-13791143D01*
X9684065Y-13808020D01*
X9704707Y-13824654D01*
X10996950Y-15116897D01*
X11067417Y-15187364D01*
X11121885Y-15209925D01*
X11176288Y-15253766D01*
X11198353Y-15320060D01*
X11181074Y-15387760D01*
X11129936Y-15435370D01*
X11074432Y-15448486D01*
X9124000Y-15448486D01*
X9056961Y-15428801D01*
X9011206Y-15375997D01*
X9000000Y-15324486D01*
X9000000Y-13570278D01*
X9019685Y-13503239D01*
X9072489Y-13457484D01*
X9141647Y-13447540D01*
X9205203Y-13476565D01*
G37*
%TD.AperFunction*%
%TA.AperFunction,Conductor*%
G36*
X27993754Y-11170185D02*
G01*
X28039509Y-11222989D01*
X28049453Y-11292147D01*
X28037199Y-11330795D01*
X27989354Y-11424693D01*
X27989352Y-11424699D01*
X27969508Y-11549996D01*
X27969508Y-11550003D01*
X27989352Y-11675300D01*
X27989352Y-11675301D01*
X27990752Y-11678048D01*
X28046950Y-11788342D01*
X28046952Y-11788344D01*
X28046954Y-11788347D01*
X28136652Y-11878045D01*
X28136654Y-11878046D01*
X28136658Y-11878050D01*
X28249696Y-11935646D01*
X28249697Y-11935646D01*
X28249699Y-11935647D01*
X28374997Y-11955492D01*
X28375000Y-11955492D01*
X28375003Y-11955492D01*
X28500300Y-11935647D01*
X28500301Y-11935647D01*
X28500302Y-11935646D01*
X28500304Y-11935646D01*
X28613342Y-11878050D01*
X28679574Y-11811817D01*
X28740895Y-11778334D01*
X28767254Y-11775500D01*
X34110233Y-11775500D01*
X34177272Y-11795185D01*
X34197914Y-11811819D01*
X34536670Y-12150575D01*
X34570155Y-12211898D01*
X34571463Y-12257647D01*
X34569508Y-12269994D01*
X34569508Y-12270003D01*
X34589352Y-12395300D01*
X34589352Y-12395301D01*
X34602715Y-12421526D01*
X34646950Y-12508342D01*
X34646952Y-12508344D01*
X34646954Y-12508347D01*
X34736652Y-12598045D01*
X34736654Y-12598046D01*
X34736658Y-12598050D01*
X34849696Y-12655646D01*
X34849697Y-12655646D01*
X34849699Y-12655647D01*
X34984638Y-12677019D01*
X34984434Y-12678300D01*
X35041908Y-12695177D01*
X35062550Y-12711811D01*
X35335565Y-12984825D01*
X35335568Y-12984829D01*
X35342636Y-12991897D01*
X35413103Y-13062364D01*
X35505172Y-13100500D01*
X35505174Y-13100500D01*
X41629826Y-13100500D01*
X41629828Y-13100500D01*
X41721897Y-13062364D01*
X41982449Y-12801810D01*
X42043772Y-12768326D01*
X42069732Y-12765534D01*
X42069998Y-12765491D01*
X42070000Y-12765492D01*
X42141100Y-12754231D01*
X42197643Y-12745276D01*
X42266937Y-12754231D01*
X42320389Y-12799227D01*
X42341028Y-12865979D01*
X42322303Y-12933292D01*
X42304722Y-12955430D01*
X41446972Y-13813181D01*
X41385649Y-13846666D01*
X41359291Y-13849500D01*
X23675170Y-13849500D01*
X23666450Y-13851234D01*
X23622871Y-13852089D01*
X23587417Y-13846474D01*
X23575000Y-13844508D01*
X23574999Y-13844508D01*
X23574997Y-13844508D01*
X23449699Y-13864352D01*
X23449698Y-13864352D01*
X23403553Y-13887865D01*
X23336658Y-13921950D01*
X23336657Y-13921951D01*
X23336652Y-13921954D01*
X23246954Y-14011652D01*
X23246951Y-14011657D01*
X23246950Y-14011658D01*
X23209368Y-14085417D01*
X23189352Y-14124700D01*
X23187743Y-14129652D01*
X23148303Y-14187325D01*
X23083943Y-14214520D01*
X23022364Y-14205890D01*
X23006938Y-14199501D01*
X23006936Y-14199500D01*
X23006935Y-14199500D01*
X23006933Y-14199500D01*
X22517254Y-14199500D01*
X22450215Y-14179815D01*
X22429572Y-14163180D01*
X22388346Y-14121953D01*
X22388344Y-14121952D01*
X22388342Y-14121950D01*
X22275304Y-14064354D01*
X22275303Y-14064353D01*
X22275300Y-14064352D01*
X22150003Y-14044508D01*
X22149997Y-14044508D01*
X22024699Y-14064352D01*
X22024698Y-14064352D01*
X21972088Y-14091159D01*
X21911658Y-14121950D01*
X21911657Y-14121951D01*
X21911653Y-14121953D01*
X21870428Y-14163180D01*
X21809105Y-14196666D01*
X21782746Y-14199500D01*
X11546544Y-14199500D01*
X11479505Y-14179815D01*
X11458863Y-14163181D01*
X10560505Y-13264822D01*
X22599499Y-13264822D01*
X22608231Y-13308717D01*
X22608232Y-13308721D01*
X22608233Y-13308722D01*
X22641496Y-13358504D01*
X22691278Y-13391767D01*
X22691281Y-13391767D01*
X22691282Y-13391768D01*
X22735177Y-13400500D01*
X22735180Y-13400500D01*
X24464822Y-13400500D01*
X24508717Y-13391768D01*
X24508717Y-13391767D01*
X24508722Y-13391767D01*
X24558504Y-13358504D01*
X24591767Y-13308722D01*
X24593005Y-13302498D01*
X24600500Y-13264822D01*
X24600500Y-11535177D01*
X24591768Y-11491282D01*
X24591767Y-11491281D01*
X24591767Y-11491278D01*
X24558504Y-11441496D01*
X24555824Y-11439705D01*
X24508724Y-11408234D01*
X24508717Y-11408231D01*
X24464822Y-11399500D01*
X24464820Y-11399500D01*
X22735180Y-11399500D01*
X22735178Y-11399500D01*
X22691282Y-11408231D01*
X22691275Y-11408234D01*
X22641496Y-11441495D01*
X22641495Y-11441496D01*
X22608234Y-11491275D01*
X22608231Y-11491282D01*
X22599500Y-11535177D01*
X22599500Y-11535180D01*
X22599500Y-13264820D01*
X22599500Y-13264822D01*
X22599499Y-13264822D01*
X10560505Y-13264822D01*
X10045683Y-12750000D01*
X13924867Y-12750000D01*
X13943302Y-12878225D01*
X13995215Y-12991897D01*
X13997118Y-12996063D01*
X14081951Y-13093967D01*
X14190931Y-13164004D01*
X14315225Y-13200499D01*
X14315227Y-13200500D01*
X14315228Y-13200500D01*
X14444773Y-13200500D01*
X14444773Y-13200499D01*
X14569069Y-13164004D01*
X14678049Y-13093967D01*
X14762882Y-12996063D01*
X14816697Y-12878226D01*
X14835133Y-12750000D01*
X14816697Y-12621774D01*
X14762882Y-12503937D01*
X14678049Y-12406033D01*
X14569069Y-12335996D01*
X14569065Y-12335994D01*
X14569064Y-12335994D01*
X14444774Y-12299500D01*
X14444772Y-12299500D01*
X14315228Y-12299500D01*
X14315226Y-12299500D01*
X14190935Y-12335994D01*
X14190932Y-12335995D01*
X14190931Y-12335996D01*
X14153586Y-12359996D01*
X14081950Y-12406033D01*
X13997118Y-12503937D01*
X13997117Y-12503938D01*
X13943302Y-12621774D01*
X13924867Y-12750000D01*
X10045683Y-12750000D01*
X9950022Y-12654339D01*
X9916537Y-12593016D01*
X9913745Y-12567055D01*
X9913131Y-12563181D01*
X9904446Y-12508342D01*
X9893858Y-12441488D01*
X9893858Y-12441487D01*
X9875793Y-12406033D01*
X9836261Y-12328447D01*
X9836257Y-12328443D01*
X9836256Y-12328441D01*
X9746558Y-12238743D01*
X9746555Y-12238741D01*
X9746553Y-12238739D01*
X9633515Y-12181143D01*
X9633513Y-12181142D01*
X9633510Y-12181141D01*
X9629412Y-12179809D01*
X9625075Y-12176842D01*
X9624820Y-12176713D01*
X9624836Y-12176680D01*
X9571740Y-12140367D01*
X9544547Y-12076006D01*
X9556467Y-12007161D01*
X9580055Y-11974204D01*
X10367442Y-11186819D01*
X10428765Y-11153334D01*
X10455123Y-11150500D01*
X27926715Y-11150500D01*
X27993754Y-11170185D01*
G37*
%TD.AperFunction*%
%TD*%
M02*
