%TF.GenerationSoftware,KiCad,Pcbnew,8.0.3*%
%TF.CreationDate,2024-06-27T20:48:53-04:00*%
%TF.ProjectId,charger-module,63686172-6765-4722-9d6d-6f64756c652e,v0.0.0*%
%TF.SameCoordinates,Original*%
%TF.FileFunction,Copper,L4,Bot*%
%TF.FilePolarity,Positive*%
%FSLAX46Y46*%
G04 Gerber Fmt 4.6, Leading zero omitted, Abs format (unit mm)*
G04 Created by KiCad (PCBNEW 8.0.3) date 2024-06-27 20:48:53*
%MOMM*%
%LPD*%
G01*
G04 APERTURE LIST*
%TA.AperFunction,ComponentPad*%
%ADD10O,2.100000X1.000000*%
%TD*%
%TA.AperFunction,ComponentPad*%
%ADD11O,1.600000X1.000000*%
%TD*%
%TA.AperFunction,ComponentPad*%
%ADD12R,1.700000X1.700000*%
%TD*%
%TA.AperFunction,ComponentPad*%
%ADD13O,1.700000X1.700000*%
%TD*%
%TA.AperFunction,ConnectorPad*%
%ADD14R,3.200000X0.700000*%
%TD*%
%TA.AperFunction,ConnectorPad*%
%ADD15R,4.300000X0.700000*%
%TD*%
%TA.AperFunction,ComponentPad*%
%ADD16C,6.000000*%
%TD*%
%TA.AperFunction,ViaPad*%
%ADD17C,0.500000*%
%TD*%
%TA.AperFunction,ViaPad*%
%ADD18C,0.600000*%
%TD*%
%TA.AperFunction,ViaPad*%
%ADD19C,0.450000*%
%TD*%
%TA.AperFunction,Conductor*%
%ADD20C,0.400000*%
%TD*%
%TA.AperFunction,Conductor*%
%ADD21C,0.200000*%
%TD*%
%TA.AperFunction,Conductor*%
%ADD22C,0.150000*%
%TD*%
%TA.AperFunction,Conductor*%
%ADD23C,0.600000*%
%TD*%
%TA.AperFunction,Conductor*%
%ADD24C,0.250000*%
%TD*%
G04 APERTURE END LIST*
D10*
%TO.P,J3,S1,SHIELD*%
%TO.N,Net-(J3-SHIELD)*%
X82095000Y-21320000D03*
D11*
X86275000Y-21320000D03*
D10*
X82095000Y-12680000D03*
D11*
X86275000Y-12680000D03*
%TD*%
D12*
%TO.P,J6,1,Pin_1*%
%TO.N,/RP2040/SWCLK*%
X10670000Y-23030000D03*
D13*
%TO.P,J6,2,Pin_2*%
%TO.N,GND*%
X13210000Y-23030000D03*
%TO.P,J6,3,Pin_3*%
%TO.N,/RP2040/SWD*%
X15750000Y-23030000D03*
%TD*%
D12*
%TO.P,J2,1,Pin_1*%
%TO.N,GND*%
X84000000Y-4640000D03*
D13*
%TO.P,J2,2,Pin_2*%
%TO.N,+5V*%
X84000000Y-7180000D03*
%TO.P,J2,3,Pin_3*%
%TO.N,LED_DIN*%
X84000000Y-9720000D03*
%TD*%
D14*
%TO.P,J1,A1,~{PRSNT1}*%
%TO.N,/VIN_PREFUSE*%
X4600000Y-5650000D03*
D15*
%TO.P,J1,A2,+12V*%
X4050000Y-6650000D03*
%TO.P,J1,A3,+12V*%
X4050000Y-7650000D03*
%TO.P,J1,A4,GND*%
%TO.N,GND*%
X4050000Y-8650000D03*
%TO.P,J1,A5,JTAG2*%
%TO.N,unconnected-(J1-JTAG2-PadA5)*%
X4050000Y-9650000D03*
%TO.P,J1,A6,JTAG3*%
%TO.N,unconnected-(J1-JTAG3-PadA6)*%
X4050000Y-10650000D03*
%TO.P,J1,A7,JTAG4*%
%TO.N,unconnected-(J1-JTAG4-PadA7)*%
X4050000Y-11650000D03*
%TO.P,J1,A8,JTAG5*%
%TO.N,unconnected-(J1-JTAG5-PadA8)*%
X4050000Y-12650000D03*
%TO.P,J1,A9,+3.3V*%
%TO.N,+5V*%
X4050000Y-13650000D03*
%TO.P,J1,A10,+3.3V*%
X4050000Y-14650000D03*
%TO.P,J1,A11,~{PERST}*%
%TO.N,unconnected-(J1-~{PERST}-PadA11)*%
X4050000Y-15650000D03*
%TO.P,J1,A12,GND*%
%TO.N,GND*%
X4050000Y-18650000D03*
%TO.P,J1,A13,REFCLK+*%
%TO.N,unconnected-(J1-REFCLK+-PadA13)*%
X4050000Y-19650000D03*
%TO.P,J1,A14,REFCLK-*%
%TO.N,unconnected-(J1-REFCLK--PadA14)*%
X4050000Y-20650000D03*
%TO.P,J1,A15,GND*%
%TO.N,GND*%
X4050000Y-21650000D03*
%TO.P,J1,A16,PERp0*%
%TO.N,unconnected-(J1-PERp0-PadA16)*%
X4050000Y-22650000D03*
%TO.P,J1,A17,PERn0*%
%TO.N,unconnected-(J1-PERn0-PadA17)*%
X4050000Y-23650000D03*
%TO.P,J1,A18,GND*%
%TO.N,GND*%
X4050000Y-24650000D03*
%TD*%
D12*
%TO.P,J4,1,Pin_1*%
%TO.N,/RP2040/~{USB_BOOT}*%
X23600000Y-12400000D03*
D13*
%TO.P,J4,2,Pin_2*%
%TO.N,GND*%
X21060000Y-12400000D03*
%TD*%
D16*
%TO.P,H1,1,1*%
%TO.N,GND*%
X13000000Y-4000000D03*
%TD*%
D12*
%TO.P,J5,1,Pin_1*%
%TO.N,GND*%
X35850000Y-9170000D03*
D13*
%TO.P,J5,2,Pin_2*%
%TO.N,/RP2040/USB_D-*%
X33310000Y-9170000D03*
%TO.P,J5,3,Pin_3*%
%TO.N,/RP2040/USB_D+*%
X30770000Y-9170000D03*
%TO.P,J5,4,Pin_4*%
%TO.N,+5V*%
X28230000Y-9170000D03*
%TD*%
D17*
%TO.N,GND*%
X81000000Y-23500000D03*
D18*
X20350000Y-20600000D03*
D19*
X67340000Y-7960000D03*
D17*
X71000000Y-2000000D03*
X47600000Y-11110000D03*
X27950000Y-21300000D03*
X74000000Y-4000000D03*
X80000000Y-2000000D03*
X74000000Y-2000000D03*
X27000000Y-2000000D03*
X45000000Y-2000000D03*
D19*
X67900000Y-8540000D03*
D17*
X61090000Y-11980000D03*
X45500000Y-16000000D03*
D19*
X63740000Y-7895000D03*
D17*
X42000000Y-2000000D03*
X47000000Y-19000000D03*
X45500000Y-22000000D03*
X48000000Y-2000000D03*
D19*
X79750000Y-7750000D03*
D17*
X45500000Y-19000000D03*
X48550000Y-11110000D03*
D19*
X67340000Y-9130000D03*
X62450000Y-12315000D03*
X79750000Y-5750000D03*
D17*
X51000000Y-2000000D03*
D18*
X21650000Y-18000000D03*
X9630000Y-14570000D03*
D19*
X64850000Y-12315000D03*
D17*
X61050000Y-13450000D03*
X77000000Y-2000000D03*
X53280000Y-12090000D03*
X9250000Y-23000000D03*
X36000000Y-2000000D03*
D19*
X77500000Y-7750000D03*
X82000000Y-5750000D03*
D17*
X21000000Y-2000000D03*
X47600000Y-12090000D03*
D19*
X65570000Y-12685000D03*
D17*
X54210000Y-12070000D03*
X56640000Y-13500000D03*
X75300000Y-23500000D03*
D19*
X79570000Y-21814998D03*
D17*
X80000000Y-4000000D03*
X57000000Y-2000000D03*
D19*
X64130000Y-9380000D03*
D17*
X47580000Y-13110000D03*
X57420000Y-12130000D03*
D19*
X64050000Y-13040000D03*
D17*
X33000000Y-2000000D03*
D18*
X22975000Y-18000000D03*
D17*
X50590000Y-11120000D03*
X18000000Y-2000000D03*
X8000000Y-20000000D03*
D19*
X64050000Y-12315000D03*
D17*
X39000000Y-2000000D03*
X30000000Y-2000000D03*
D19*
X77500000Y-5750000D03*
D17*
X53280000Y-13100000D03*
X53290000Y-11110000D03*
X68000000Y-2000000D03*
X48550000Y-13110000D03*
X8000000Y-24000000D03*
D19*
X62450000Y-13040000D03*
X63300000Y-18230000D03*
D17*
X47000000Y-16000000D03*
X50590000Y-12080000D03*
X8310000Y-10720000D03*
D19*
X63250000Y-12315000D03*
D17*
X48540000Y-12080000D03*
X47000000Y-14000000D03*
X7700000Y-10100000D03*
D18*
X22975000Y-19275000D03*
X21650000Y-20600000D03*
X22975000Y-20600000D03*
D19*
X63250000Y-13040000D03*
D17*
X67300000Y-18260000D03*
X28605000Y-19700000D03*
X58940000Y-13525000D03*
D18*
X20350000Y-18000000D03*
D17*
X77000000Y-4000000D03*
X8000000Y-22000000D03*
X54000000Y-2000000D03*
D18*
X20350000Y-19275000D03*
D19*
X66300000Y-18230000D03*
D18*
X21650000Y-19275000D03*
D17*
X24000000Y-2000000D03*
X50580000Y-13100000D03*
X50800000Y-16470000D03*
D19*
X64850000Y-13040000D03*
X64548978Y-7895000D03*
D17*
X45500000Y-14000000D03*
X58940000Y-11880000D03*
X9250000Y-21000000D03*
D19*
%TO.N,IMON*%
X23250000Y-24150000D03*
D17*
X32780000Y-19025000D03*
%TO.N,VBUS*%
X58900000Y-17340000D03*
X58890000Y-15400000D03*
X56720000Y-15400000D03*
D19*
X63250000Y-13940000D03*
D17*
X57820000Y-17340000D03*
X57800000Y-15400000D03*
D19*
X65070000Y-13940000D03*
X64150000Y-13940000D03*
D17*
X56720000Y-17340000D03*
%TO.N,GNDUSB*%
X63500000Y-10250000D03*
X46700000Y-20800000D03*
X47700000Y-23800000D03*
X53900000Y-23800000D03*
X55900000Y-22800000D03*
X56900000Y-23800000D03*
X54900000Y-23800000D03*
X47700000Y-22800000D03*
X46700000Y-22800000D03*
X79330000Y-11530000D03*
X53900000Y-22800000D03*
X47700000Y-20800000D03*
X47700000Y-21800000D03*
X56900000Y-22800000D03*
X50800000Y-23020000D03*
X79430000Y-13610000D03*
X46700000Y-21800000D03*
X55900000Y-23800000D03*
X78000000Y-13610000D03*
X80750000Y-11530000D03*
X83610000Y-11540000D03*
X78000000Y-11550000D03*
X54900000Y-22800000D03*
X46700000Y-23800000D03*
%TO.N,D-*%
X65300000Y-17270000D03*
X80680000Y-17750000D03*
D19*
X76880000Y-22440000D03*
D17*
%TO.N,D+*%
X82400000Y-17250000D03*
D19*
X78718769Y-22448694D03*
D17*
X64300000Y-17270000D03*
D19*
%TO.N,CC1*%
X66300000Y-17270000D03*
D17*
X82400000Y-18250000D03*
D19*
X77360000Y-21800000D03*
D17*
%TO.N,CC2*%
X82400000Y-15250000D03*
D19*
X79441715Y-23105333D03*
X63300000Y-17270000D03*
%TO.N,LED_DIN*%
X23575000Y-14250000D03*
D17*
%TO.N,+5V*%
X39760000Y-12350000D03*
X29970000Y-10900000D03*
X7500000Y-13700000D03*
%TO.N,SCL*%
X9508211Y-12566789D03*
D19*
X67750000Y-15890000D03*
X22150000Y-14450000D03*
%TO.N,ENABLE*%
X20980000Y-24150000D03*
X66370000Y-12685000D03*
%TO.N,SDA*%
X22775000Y-14975000D03*
X66920958Y-15909008D03*
D17*
X9617157Y-13382843D03*
D19*
%TO.N,OVERLOAD*%
X21660000Y-23700000D03*
D17*
X12250000Y-16800000D03*
D19*
X66075000Y-15950000D03*
D17*
%TO.N,ALERT*%
X17400000Y-16700000D03*
X7000000Y-15550000D03*
%TO.N,Net-(Q1-G)*%
X67200000Y-9970000D03*
D19*
X64735000Y-2815000D03*
D17*
%TO.N,Net-(U1-GPIO1)*%
X34760000Y-19025000D03*
D19*
X65000000Y-9390000D03*
D17*
%TO.N,/EMI_VIN*%
X61500000Y-10710000D03*
X60710000Y-10710000D03*
D19*
X63250000Y-11350000D03*
D17*
X59180000Y-10710000D03*
X59960000Y-10710000D03*
D19*
X64150000Y-11350000D03*
X65070000Y-11350000D03*
D17*
%TO.N,+3V3*%
X42070000Y-12360000D03*
X28375000Y-11550000D03*
X34975000Y-12270000D03*
D18*
%TO.N,+1V1*%
X17220000Y-20090000D03*
X23750000Y-20000000D03*
X26557926Y-19109905D03*
X19550000Y-19900000D03*
D17*
%TO.N,/VIN_PREFUSE*%
X7100000Y-7650000D03*
X7100000Y-6650000D03*
X7900000Y-6650000D03*
X7100000Y-5700000D03*
X7900000Y-5700000D03*
X7900000Y-7650000D03*
D18*
%TO.N,VIN_DIVIDER*%
X15650000Y-17300000D03*
X14380000Y-12750000D03*
D19*
X22540000Y-23700000D03*
D18*
%TO.N,VOUT_DIVIDER*%
X54080000Y-16590000D03*
D19*
X24090000Y-24150000D03*
D17*
X36171992Y-21361992D03*
%TD*%
D20*
%TO.N,GND*%
X50800000Y-16470000D02*
X50800000Y-16460000D01*
D21*
%TO.N,+5V*%
X7450000Y-13650000D02*
X7500000Y-13700000D01*
X6550000Y-14650000D02*
X4050000Y-14650000D01*
X7500000Y-13700000D02*
X6550000Y-14650000D01*
X4050000Y-13650000D02*
X7450000Y-13650000D01*
D22*
%TO.N,ENABLE*%
X40155736Y-18050000D02*
X60890000Y-18050000D01*
X64960000Y-16370000D02*
X66370000Y-14960000D01*
X20980000Y-24150000D02*
X20970000Y-24140000D01*
X66370000Y-14960000D02*
X66370000Y-12685000D01*
X22420000Y-22240000D02*
X35965736Y-22240000D01*
X35965736Y-22240000D02*
X40155736Y-18050000D01*
X62570000Y-16370000D02*
X64960000Y-16370000D01*
X60890000Y-18050000D02*
X62570000Y-16370000D01*
X20980000Y-23680000D02*
X22420000Y-22240000D01*
X20980000Y-24150000D02*
X20980000Y-23680000D01*
%TO.N,OVERLOAD*%
X21660000Y-23700000D02*
X22820000Y-22540000D01*
X36090000Y-22540000D02*
X40280000Y-18350000D01*
X40280000Y-18350000D02*
X61014264Y-18350000D01*
X61014264Y-18350000D02*
X62694264Y-16670000D01*
X22820000Y-22540000D02*
X36090000Y-22540000D01*
X65355000Y-16670000D02*
X66075000Y-15950000D01*
X62694264Y-16670000D02*
X65355000Y-16670000D01*
D20*
%TO.N,Net-(Q1-G)*%
X66640000Y-4690000D02*
X64735000Y-2785000D01*
X67200000Y-9970000D02*
X66640000Y-9410000D01*
X66640000Y-9410000D02*
X66640000Y-4690000D01*
%TO.N,+1V1*%
X17220000Y-20090000D02*
X17410000Y-19900000D01*
X23750000Y-20000000D02*
X24640095Y-19109905D01*
X17410000Y-19900000D02*
X19550000Y-19900000D01*
X24640095Y-19109905D02*
X26557926Y-19109905D01*
D23*
%TO.N,/VIN_PREFUSE*%
X7900000Y-6650000D02*
X4050000Y-6650000D01*
X4050000Y-7650000D02*
X7900000Y-7650000D01*
D21*
%TO.N,VIN_DIVIDER*%
X15650000Y-17300000D02*
X15650000Y-14020000D01*
X15650000Y-14020000D02*
X14380000Y-12750000D01*
D24*
%TO.N,VOUT_DIVIDER*%
X39805736Y-17905025D02*
X40010761Y-17700000D01*
X40010761Y-17700000D02*
X52970000Y-17700000D01*
X36171992Y-21361992D02*
X36348770Y-21361992D01*
X39805736Y-17905026D02*
X39805736Y-17905025D01*
X36348770Y-21361992D02*
X39805736Y-17905026D01*
X52970000Y-17700000D02*
X54080000Y-16590000D01*
%TD*%
%TA.AperFunction,Conductor*%
%TO.N,GND*%
G36*
X88542539Y-420185D02*
G01*
X88588294Y-472989D01*
X88599500Y-524500D01*
X88599500Y-10710500D01*
X88579815Y-10777539D01*
X88527011Y-10823294D01*
X88475500Y-10834500D01*
X84532369Y-10834500D01*
X84465330Y-10814815D01*
X84419575Y-10762011D01*
X84409631Y-10692853D01*
X84438656Y-10629297D01*
X84473916Y-10601142D01*
X84558532Y-10555913D01*
X84558538Y-10555910D01*
X84710883Y-10430883D01*
X84835910Y-10278538D01*
X84928814Y-10104727D01*
X84986024Y-9916132D01*
X85005341Y-9720000D01*
X84986024Y-9523868D01*
X84928814Y-9335273D01*
X84928811Y-9335269D01*
X84928811Y-9335266D01*
X84835913Y-9161467D01*
X84835909Y-9161460D01*
X84710883Y-9009116D01*
X84558539Y-8884090D01*
X84558532Y-8884086D01*
X84384733Y-8791188D01*
X84384727Y-8791186D01*
X84196132Y-8733976D01*
X84196129Y-8733975D01*
X84000000Y-8714659D01*
X83803870Y-8733975D01*
X83615266Y-8791188D01*
X83441467Y-8884086D01*
X83441460Y-8884090D01*
X83289116Y-9009116D01*
X83164090Y-9161460D01*
X83164086Y-9161467D01*
X83071188Y-9335266D01*
X83013975Y-9523870D01*
X82994659Y-9720000D01*
X83013975Y-9916129D01*
X83013976Y-9916132D01*
X83069391Y-10098811D01*
X83071188Y-10104733D01*
X83164086Y-10278532D01*
X83164090Y-10278539D01*
X83289116Y-10430883D01*
X83441460Y-10555909D01*
X83441467Y-10555913D01*
X83526084Y-10601142D01*
X83575928Y-10650104D01*
X83591389Y-10718241D01*
X83567558Y-10783921D01*
X83512000Y-10826290D01*
X83467631Y-10834500D01*
X77481362Y-10834500D01*
X77464754Y-10835390D01*
X77464745Y-10835390D01*
X77464739Y-10835391D01*
X77464733Y-10835391D01*
X77464702Y-10835394D01*
X77438380Y-10838224D01*
X77438378Y-10838225D01*
X77380483Y-10856354D01*
X77380473Y-10856358D01*
X77319163Y-10889836D01*
X77319155Y-10889841D01*
X77283733Y-10916357D01*
X77283715Y-10916373D01*
X76466379Y-11733710D01*
X76466340Y-11733751D01*
X76455257Y-11746089D01*
X76455234Y-11746116D01*
X76438607Y-11766749D01*
X76438604Y-11766754D01*
X76410481Y-11820517D01*
X76390800Y-11887545D01*
X76390797Y-11887559D01*
X76384500Y-11931358D01*
X76384500Y-16254228D01*
X76364815Y-16321267D01*
X76348181Y-16341909D01*
X74940091Y-17749999D01*
X74440090Y-18249999D01*
X74101908Y-18588181D01*
X74040585Y-18621666D01*
X74014227Y-18624500D01*
X61358030Y-18624500D01*
X61290991Y-18604815D01*
X61245236Y-18552011D01*
X61235292Y-18482853D01*
X61264317Y-18419297D01*
X61270349Y-18412819D01*
X61983668Y-17699500D01*
X62751240Y-16931928D01*
X62812561Y-16898445D01*
X62882253Y-16903429D01*
X62938186Y-16945301D01*
X62962603Y-17010765D01*
X62949404Y-17075905D01*
X62914353Y-17144695D01*
X62914352Y-17144699D01*
X62894508Y-17269996D01*
X62894508Y-17270003D01*
X62914352Y-17395300D01*
X62914352Y-17395301D01*
X62914354Y-17395304D01*
X62971950Y-17508342D01*
X62971952Y-17508344D01*
X62971954Y-17508347D01*
X63061652Y-17598045D01*
X63061654Y-17598046D01*
X63061658Y-17598050D01*
X63174696Y-17655646D01*
X63174697Y-17655646D01*
X63174699Y-17655647D01*
X63299997Y-17675492D01*
X63300000Y-17675492D01*
X63300003Y-17675492D01*
X63425300Y-17655647D01*
X63425301Y-17655647D01*
X63425302Y-17655646D01*
X63425304Y-17655646D01*
X63538342Y-17598050D01*
X63628050Y-17508342D01*
X63685646Y-17395304D01*
X63685646Y-17395302D01*
X63689515Y-17387710D01*
X63737490Y-17336914D01*
X63805311Y-17320119D01*
X63871446Y-17342657D01*
X63910485Y-17387710D01*
X63914353Y-17395302D01*
X63914354Y-17395304D01*
X63971950Y-17508342D01*
X63971952Y-17508344D01*
X63971954Y-17508347D01*
X64061652Y-17598045D01*
X64061654Y-17598046D01*
X64061658Y-17598050D01*
X64174696Y-17655646D01*
X64174697Y-17655646D01*
X64174699Y-17655647D01*
X64299997Y-17675492D01*
X64300000Y-17675492D01*
X64300003Y-17675492D01*
X64425300Y-17655647D01*
X64425301Y-17655647D01*
X64425302Y-17655646D01*
X64425304Y-17655646D01*
X64538342Y-17598050D01*
X64628050Y-17508342D01*
X64685646Y-17395304D01*
X64685646Y-17395302D01*
X64689515Y-17387710D01*
X64737490Y-17336914D01*
X64805311Y-17320119D01*
X64871446Y-17342657D01*
X64910485Y-17387710D01*
X64914353Y-17395302D01*
X64914354Y-17395304D01*
X64971950Y-17508342D01*
X64971952Y-17508344D01*
X64971954Y-17508347D01*
X65061652Y-17598045D01*
X65061654Y-17598046D01*
X65061658Y-17598050D01*
X65174696Y-17655646D01*
X65174697Y-17655646D01*
X65174699Y-17655647D01*
X65299997Y-17675492D01*
X65300000Y-17675492D01*
X65300003Y-17675492D01*
X65425300Y-17655647D01*
X65425301Y-17655647D01*
X65425302Y-17655646D01*
X65425304Y-17655646D01*
X65538342Y-17598050D01*
X65628050Y-17508342D01*
X65685646Y-17395304D01*
X65685646Y-17395302D01*
X65689515Y-17387710D01*
X65737490Y-17336914D01*
X65805311Y-17320119D01*
X65871446Y-17342657D01*
X65910485Y-17387710D01*
X65914353Y-17395302D01*
X65914354Y-17395304D01*
X65971950Y-17508342D01*
X65971952Y-17508344D01*
X65971954Y-17508347D01*
X66061652Y-17598045D01*
X66061654Y-17598046D01*
X66061658Y-17598050D01*
X66174696Y-17655646D01*
X66174697Y-17655646D01*
X66174699Y-17655647D01*
X66299997Y-17675492D01*
X66300000Y-17675492D01*
X66300003Y-17675492D01*
X66425300Y-17655647D01*
X66425301Y-17655647D01*
X66425302Y-17655646D01*
X66425304Y-17655646D01*
X66538342Y-17598050D01*
X66628050Y-17508342D01*
X66685646Y-17395304D01*
X66685646Y-17395302D01*
X66685647Y-17395301D01*
X66685647Y-17395300D01*
X66705492Y-17270003D01*
X66705492Y-17269996D01*
X66685647Y-17144699D01*
X66685647Y-17144698D01*
X66665670Y-17105492D01*
X66628050Y-17031658D01*
X66628046Y-17031654D01*
X66628045Y-17031652D01*
X66538347Y-16941954D01*
X66538344Y-16941952D01*
X66538342Y-16941950D01*
X66425304Y-16884354D01*
X66425303Y-16884353D01*
X66425300Y-16884352D01*
X66300003Y-16864508D01*
X66299997Y-16864508D01*
X66174699Y-16884352D01*
X66174698Y-16884352D01*
X66099337Y-16922751D01*
X66061658Y-16941950D01*
X66061657Y-16941951D01*
X66061652Y-16941954D01*
X65971954Y-17031652D01*
X65971949Y-17031659D01*
X65910484Y-17152290D01*
X65862510Y-17203085D01*
X65794689Y-17219880D01*
X65728554Y-17197342D01*
X65689516Y-17152290D01*
X65639402Y-17053938D01*
X65628050Y-17031658D01*
X65628047Y-17031655D01*
X65628045Y-17031652D01*
X65557830Y-16961437D01*
X65524345Y-16900114D01*
X65529329Y-16830422D01*
X65557837Y-16786067D01*
X65563609Y-16780295D01*
X65955577Y-16388326D01*
X66016898Y-16354843D01*
X66062651Y-16353536D01*
X66075000Y-16355492D01*
X66147950Y-16343938D01*
X66200300Y-16335647D01*
X66200301Y-16335647D01*
X66200302Y-16335646D01*
X66200304Y-16335646D01*
X66313342Y-16278050D01*
X66403050Y-16188342D01*
X66403486Y-16187485D01*
X66404289Y-16186634D01*
X66408783Y-16180450D01*
X66409582Y-16181030D01*
X66451457Y-16136689D01*
X66519277Y-16119891D01*
X66585413Y-16142425D01*
X66601653Y-16156096D01*
X66682610Y-16237053D01*
X66682612Y-16237054D01*
X66682616Y-16237058D01*
X66795654Y-16294654D01*
X66795655Y-16294654D01*
X66795657Y-16294655D01*
X66920955Y-16314500D01*
X66920958Y-16314500D01*
X66920961Y-16314500D01*
X67046258Y-16294655D01*
X67046259Y-16294655D01*
X67046260Y-16294654D01*
X67046262Y-16294654D01*
X67159300Y-16237058D01*
X67196358Y-16200000D01*
X67255909Y-16140450D01*
X67258363Y-16142904D01*
X67299744Y-16110978D01*
X67369356Y-16104980D01*
X67431159Y-16137570D01*
X67432443Y-16138836D01*
X67511652Y-16218045D01*
X67511654Y-16218046D01*
X67511658Y-16218050D01*
X67624696Y-16275646D01*
X67624697Y-16275646D01*
X67624699Y-16275647D01*
X67749997Y-16295492D01*
X67750000Y-16295492D01*
X67750003Y-16295492D01*
X67875300Y-16275647D01*
X67875301Y-16275647D01*
X67875302Y-16275646D01*
X67875304Y-16275646D01*
X67988342Y-16218050D01*
X68078050Y-16128342D01*
X68135646Y-16015304D01*
X68135646Y-16015302D01*
X68135647Y-16015301D01*
X68135647Y-16015300D01*
X68155492Y-15890003D01*
X68155492Y-15889996D01*
X68135647Y-15764699D01*
X68135647Y-15764698D01*
X68114057Y-15722326D01*
X68078050Y-15651658D01*
X68078046Y-15651654D01*
X68078045Y-15651652D01*
X67988347Y-15561954D01*
X67988344Y-15561952D01*
X67988342Y-15561950D01*
X67875304Y-15504354D01*
X67875303Y-15504353D01*
X67875300Y-15504352D01*
X67750003Y-15484508D01*
X67749997Y-15484508D01*
X67624699Y-15504352D01*
X67624698Y-15504352D01*
X67549337Y-15542751D01*
X67511658Y-15561950D01*
X67511657Y-15561951D01*
X67511652Y-15561954D01*
X67415049Y-15658558D01*
X67412602Y-15656111D01*
X67371132Y-15688061D01*
X67301516Y-15694009D01*
X67239736Y-15661376D01*
X67238514Y-15660171D01*
X67159305Y-15580962D01*
X67159302Y-15580960D01*
X67159300Y-15580958D01*
X67046262Y-15523362D01*
X67046261Y-15523361D01*
X67046258Y-15523360D01*
X66920961Y-15503516D01*
X66920955Y-15503516D01*
X66795657Y-15523360D01*
X66795656Y-15523360D01*
X66733975Y-15554789D01*
X66682616Y-15580958D01*
X66682615Y-15580959D01*
X66682610Y-15580962D01*
X66592912Y-15670660D01*
X66592904Y-15670671D01*
X66592465Y-15671534D01*
X66591654Y-15672391D01*
X66587175Y-15678558D01*
X66586377Y-15677978D01*
X66544487Y-15722326D01*
X66476664Y-15739116D01*
X66410531Y-15716573D01*
X66394304Y-15702911D01*
X66313347Y-15621954D01*
X66313342Y-15621950D01*
X66275688Y-15602764D01*
X66224893Y-15554789D01*
X66208099Y-15486967D01*
X66230638Y-15420833D01*
X66244298Y-15404605D01*
X66480294Y-15168610D01*
X66480297Y-15168608D01*
X66497735Y-15151170D01*
X66497736Y-15151170D01*
X66561170Y-15087736D01*
X66584345Y-15031787D01*
X66595501Y-15004855D01*
X66595501Y-14915145D01*
X66595501Y-14905156D01*
X66595500Y-14905142D01*
X66595500Y-13077254D01*
X66615185Y-13010215D01*
X66631814Y-12989577D01*
X66698050Y-12923342D01*
X66755646Y-12810304D01*
X66755646Y-12810302D01*
X66755647Y-12810301D01*
X66755647Y-12810300D01*
X66775492Y-12685003D01*
X66775492Y-12684996D01*
X66755647Y-12559699D01*
X66755647Y-12559698D01*
X66729482Y-12508347D01*
X66698050Y-12446658D01*
X66698046Y-12446654D01*
X66698045Y-12446652D01*
X66608347Y-12356954D01*
X66608344Y-12356952D01*
X66608342Y-12356950D01*
X66495304Y-12299354D01*
X66495303Y-12299353D01*
X66495300Y-12299352D01*
X66370003Y-12279508D01*
X66369997Y-12279508D01*
X66244699Y-12299352D01*
X66244698Y-12299352D01*
X66187600Y-12328446D01*
X66131658Y-12356950D01*
X66131657Y-12356951D01*
X66131652Y-12356954D01*
X66041954Y-12446652D01*
X66041951Y-12446657D01*
X65984352Y-12559698D01*
X65984352Y-12559699D01*
X65964508Y-12684996D01*
X65964508Y-12685003D01*
X65984352Y-12810300D01*
X65984352Y-12810301D01*
X65984354Y-12810304D01*
X66041950Y-12923342D01*
X66108182Y-12989574D01*
X66141666Y-13050895D01*
X66144500Y-13077254D01*
X66144500Y-14815233D01*
X66124815Y-14882272D01*
X66108181Y-14902914D01*
X64902914Y-16108181D01*
X64841591Y-16141666D01*
X64815233Y-16144500D01*
X62985901Y-16144500D01*
X62918862Y-16124815D01*
X62873107Y-16072011D01*
X62863163Y-16002853D01*
X62892188Y-15939297D01*
X62899446Y-15931610D01*
X63382804Y-15461495D01*
X63444586Y-15428864D01*
X63468852Y-15426386D01*
X65044757Y-15421233D01*
X65061123Y-15420316D01*
X65087075Y-15417483D01*
X65144723Y-15399380D01*
X65206046Y-15365895D01*
X65241478Y-15339371D01*
X65619009Y-14961841D01*
X65630134Y-14949456D01*
X65646768Y-14928814D01*
X65674889Y-14875055D01*
X65694574Y-14808016D01*
X65700873Y-14764205D01*
X65700873Y-13664567D01*
X65697319Y-13631512D01*
X65686113Y-13580001D01*
X65668918Y-13545651D01*
X65651686Y-13511224D01*
X65605936Y-13458427D01*
X65600950Y-13452943D01*
X65532227Y-13411053D01*
X65532221Y-13411050D01*
X65465185Y-13391366D01*
X65465175Y-13391364D01*
X65421376Y-13385067D01*
X65421373Y-13385067D01*
X63007263Y-13385067D01*
X62995062Y-13385546D01*
X62975661Y-13387073D01*
X62975658Y-13387073D01*
X62975654Y-13387074D01*
X62921251Y-13401583D01*
X62921246Y-13401585D01*
X62858114Y-13431515D01*
X62858111Y-13431517D01*
X62821227Y-13455973D01*
X62005863Y-14183164D01*
X61942728Y-14213095D01*
X61923472Y-14214622D01*
X57115851Y-14220221D01*
X57103161Y-14220755D01*
X57082979Y-14222433D01*
X57028187Y-14237398D01*
X56965290Y-14267801D01*
X56928584Y-14292541D01*
X55416758Y-15661599D01*
X55416746Y-15661611D01*
X55402523Y-15676309D01*
X55402510Y-15676323D01*
X55381425Y-15701204D01*
X55350858Y-15757920D01*
X55331171Y-15824966D01*
X55331170Y-15824971D01*
X55324873Y-15868770D01*
X55324873Y-17244205D01*
X55325763Y-17260812D01*
X55325767Y-17260864D01*
X55328597Y-17287186D01*
X55328598Y-17287188D01*
X55346727Y-17345083D01*
X55346731Y-17345093D01*
X55380209Y-17406403D01*
X55380214Y-17406411D01*
X55406730Y-17441833D01*
X55406746Y-17441851D01*
X55577715Y-17612819D01*
X55611200Y-17674142D01*
X55606216Y-17743833D01*
X55564345Y-17799767D01*
X55498880Y-17824184D01*
X55490034Y-17824500D01*
X53534477Y-17824500D01*
X53467438Y-17804815D01*
X53421683Y-17752011D01*
X53411739Y-17682853D01*
X53440764Y-17619297D01*
X53446796Y-17612819D01*
X53631390Y-17428226D01*
X53982797Y-17076819D01*
X54044120Y-17043334D01*
X54070478Y-17040500D01*
X54144773Y-17040500D01*
X54144773Y-17040499D01*
X54269069Y-17004004D01*
X54378049Y-16933967D01*
X54462882Y-16836063D01*
X54516697Y-16718226D01*
X54535133Y-16590000D01*
X54516697Y-16461774D01*
X54462882Y-16343937D01*
X54378049Y-16246033D01*
X54269069Y-16175996D01*
X54269065Y-16175994D01*
X54269064Y-16175994D01*
X54144774Y-16139500D01*
X54144772Y-16139500D01*
X54015228Y-16139500D01*
X54015226Y-16139500D01*
X53890935Y-16175994D01*
X53890932Y-16175995D01*
X53890931Y-16175996D01*
X53853580Y-16200000D01*
X53781950Y-16246033D01*
X53697118Y-16343937D01*
X53697117Y-16343938D01*
X53643302Y-16461774D01*
X53624867Y-16590000D01*
X53624867Y-16598867D01*
X53622399Y-16598867D01*
X53614319Y-16655013D01*
X53589212Y-16691170D01*
X52892204Y-17388181D01*
X52830881Y-17421666D01*
X52804523Y-17424500D01*
X39955960Y-17424500D01*
X39924360Y-17437589D01*
X39892760Y-17450679D01*
X39854701Y-17466443D01*
X39812803Y-17508342D01*
X39649678Y-17671468D01*
X39649677Y-17671469D01*
X36382980Y-20938165D01*
X36321657Y-20971650D01*
X36275901Y-20972957D01*
X36171994Y-20956500D01*
X36171989Y-20956500D01*
X36046691Y-20976344D01*
X36046690Y-20976344D01*
X35971329Y-21014743D01*
X35933650Y-21033942D01*
X35933649Y-21033943D01*
X35933644Y-21033946D01*
X35843946Y-21123644D01*
X35843943Y-21123649D01*
X35786344Y-21236690D01*
X35786344Y-21236691D01*
X35766500Y-21361988D01*
X35766500Y-21361995D01*
X35786344Y-21487292D01*
X35786344Y-21487293D01*
X35786346Y-21487296D01*
X35843942Y-21600334D01*
X35843944Y-21600336D01*
X35843946Y-21600339D01*
X35933644Y-21690037D01*
X35933650Y-21690042D01*
X35955900Y-21701379D01*
X36006695Y-21749352D01*
X36023491Y-21817173D01*
X36000954Y-21883308D01*
X35987289Y-21899541D01*
X35908648Y-21978182D01*
X35847328Y-22011666D01*
X35820969Y-22014500D01*
X22479297Y-22014500D01*
X22479289Y-22014499D01*
X22464855Y-22014499D01*
X22375146Y-22014499D01*
X22375145Y-22014499D01*
X22375141Y-22014500D01*
X22338932Y-22029499D01*
X22338931Y-22029500D01*
X22292263Y-22048830D01*
X20788829Y-23552264D01*
X20778774Y-23576537D01*
X20778774Y-23576539D01*
X20773804Y-23588538D01*
X20754499Y-23635143D01*
X20754499Y-23739288D01*
X20754500Y-23739297D01*
X20754500Y-23757745D01*
X20734815Y-23824784D01*
X20718181Y-23845426D01*
X20651954Y-23911652D01*
X20651951Y-23911657D01*
X20651950Y-23911658D01*
X20639819Y-23935467D01*
X20594352Y-24024698D01*
X20594352Y-24024699D01*
X20574508Y-24149996D01*
X20574508Y-24150003D01*
X20594352Y-24275300D01*
X20594352Y-24275301D01*
X20594354Y-24275304D01*
X20651950Y-24388342D01*
X20651952Y-24388344D01*
X20651954Y-24388347D01*
X20741652Y-24478045D01*
X20741654Y-24478046D01*
X20741658Y-24478050D01*
X20854696Y-24535646D01*
X20854697Y-24535646D01*
X20854699Y-24535647D01*
X20979997Y-24555492D01*
X20980000Y-24555492D01*
X20980003Y-24555492D01*
X21105300Y-24535647D01*
X21105301Y-24535647D01*
X21105302Y-24535646D01*
X21105304Y-24535646D01*
X21218342Y-24478050D01*
X21308050Y-24388342D01*
X21365646Y-24275304D01*
X21379776Y-24186085D01*
X21409704Y-24122954D01*
X21469015Y-24086022D01*
X21524629Y-24086814D01*
X21525056Y-24084120D01*
X21659997Y-24105492D01*
X21660000Y-24105492D01*
X21660003Y-24105492D01*
X21785300Y-24085647D01*
X21785301Y-24085647D01*
X21785302Y-24085646D01*
X21785304Y-24085646D01*
X21898342Y-24028050D01*
X21988050Y-23938342D01*
X21989515Y-23935464D01*
X21992218Y-23932602D01*
X21993783Y-23930450D01*
X21994061Y-23930652D01*
X22037488Y-23884670D01*
X22105309Y-23867874D01*
X22171444Y-23890410D01*
X22206168Y-23930484D01*
X22206217Y-23930450D01*
X22206622Y-23931008D01*
X22210483Y-23935464D01*
X22211950Y-23938342D01*
X22211951Y-23938343D01*
X22211954Y-23938347D01*
X22301652Y-24028045D01*
X22301654Y-24028046D01*
X22301658Y-24028050D01*
X22414696Y-24085646D01*
X22414697Y-24085646D01*
X22414699Y-24085647D01*
X22539997Y-24105492D01*
X22540000Y-24105492D01*
X22540003Y-24105492D01*
X22665300Y-24085647D01*
X22665300Y-24085646D01*
X22665304Y-24085646D01*
X22669622Y-24083445D01*
X22738289Y-24070548D01*
X22803031Y-24096822D01*
X22843290Y-24153927D01*
X22848392Y-24174531D01*
X22864352Y-24275300D01*
X22864352Y-24275301D01*
X22864354Y-24275304D01*
X22921950Y-24388342D01*
X22921952Y-24388344D01*
X22921954Y-24388347D01*
X23011652Y-24478045D01*
X23011654Y-24478046D01*
X23011658Y-24478050D01*
X23124696Y-24535646D01*
X23124697Y-24535646D01*
X23124699Y-24535647D01*
X23249997Y-24555492D01*
X23250000Y-24555492D01*
X23250003Y-24555492D01*
X23375300Y-24535647D01*
X23375301Y-24535647D01*
X23375302Y-24535646D01*
X23375304Y-24535646D01*
X23488342Y-24478050D01*
X23488347Y-24478045D01*
X23582319Y-24384074D01*
X23643642Y-24350589D01*
X23713334Y-24355573D01*
X23757681Y-24384074D01*
X23851652Y-24478045D01*
X23851654Y-24478046D01*
X23851658Y-24478050D01*
X23964696Y-24535646D01*
X23964697Y-24535646D01*
X23964699Y-24535647D01*
X24089997Y-24555492D01*
X24090000Y-24555492D01*
X24090003Y-24555492D01*
X24215300Y-24535647D01*
X24215301Y-24535647D01*
X24215302Y-24535646D01*
X24215304Y-24535646D01*
X24328342Y-24478050D01*
X24418050Y-24388342D01*
X24475646Y-24275304D01*
X24475646Y-24275302D01*
X24475647Y-24275301D01*
X24475647Y-24275300D01*
X24495492Y-24150003D01*
X24495492Y-24149996D01*
X24475647Y-24024699D01*
X24475647Y-24024698D01*
X24457205Y-23988504D01*
X24418050Y-23911658D01*
X24418046Y-23911654D01*
X24418045Y-23911652D01*
X24328347Y-23821954D01*
X24328344Y-23821952D01*
X24328342Y-23821950D01*
X24215304Y-23764354D01*
X24215303Y-23764353D01*
X24215300Y-23764352D01*
X24090003Y-23744508D01*
X24089997Y-23744508D01*
X23964699Y-23764352D01*
X23964698Y-23764352D01*
X23889337Y-23802751D01*
X23851658Y-23821950D01*
X23851657Y-23821951D01*
X23851652Y-23821954D01*
X23757681Y-23915926D01*
X23696358Y-23949411D01*
X23626666Y-23944427D01*
X23582319Y-23915926D01*
X23488347Y-23821954D01*
X23488344Y-23821952D01*
X23488342Y-23821950D01*
X23375304Y-23764354D01*
X23375303Y-23764353D01*
X23375300Y-23764352D01*
X23250003Y-23744508D01*
X23249997Y-23744508D01*
X23124699Y-23764352D01*
X23124692Y-23764355D01*
X23120368Y-23766558D01*
X23051698Y-23779450D01*
X22986959Y-23753170D01*
X22946706Y-23696061D01*
X22941607Y-23675467D01*
X22925647Y-23574699D01*
X22925647Y-23574698D01*
X22914216Y-23552264D01*
X22868050Y-23461658D01*
X22868046Y-23461654D01*
X22868045Y-23461652D01*
X22778347Y-23371954D01*
X22778344Y-23371952D01*
X22778342Y-23371950D01*
X22701517Y-23332805D01*
X22665301Y-23314352D01*
X22646039Y-23311302D01*
X22582904Y-23281373D01*
X22545973Y-23222061D01*
X22546971Y-23152199D01*
X22577756Y-23101148D01*
X22648905Y-23030000D01*
X22877086Y-22801819D01*
X22938409Y-22768334D01*
X22964767Y-22765500D01*
X36030703Y-22765500D01*
X36030711Y-22765501D01*
X36045145Y-22765501D01*
X36134853Y-22765501D01*
X36134855Y-22765501D01*
X36193460Y-22741225D01*
X36217736Y-22731170D01*
X36281170Y-22667736D01*
X36281170Y-22667735D01*
X36298608Y-22650297D01*
X36298609Y-22650294D01*
X40337086Y-18611819D01*
X40398409Y-18578334D01*
X40424767Y-18575500D01*
X54185227Y-18575500D01*
X54252266Y-18595185D01*
X54298021Y-18647989D01*
X54307965Y-18717147D01*
X54278940Y-18780703D01*
X54272908Y-18787181D01*
X53521909Y-19538181D01*
X53460586Y-19571666D01*
X53434228Y-19574500D01*
X46143991Y-19574500D01*
X46110944Y-19578054D01*
X46059433Y-19589260D01*
X45990657Y-19623686D01*
X45937860Y-19669436D01*
X45932376Y-19674422D01*
X45890486Y-19743145D01*
X45890483Y-19743151D01*
X45870799Y-19810187D01*
X45870797Y-19810195D01*
X45867274Y-19834705D01*
X45864500Y-19853996D01*
X45864500Y-24775500D01*
X45844815Y-24842539D01*
X45792011Y-24888294D01*
X45740500Y-24899500D01*
X9000000Y-24899500D01*
X9000000Y-23894822D01*
X9669499Y-23894822D01*
X9678231Y-23938717D01*
X9678232Y-23938721D01*
X9678233Y-23938722D01*
X9711496Y-23988504D01*
X9761278Y-24021767D01*
X9761281Y-24021767D01*
X9761282Y-24021768D01*
X9805177Y-24030500D01*
X9805180Y-24030500D01*
X11534822Y-24030500D01*
X11578717Y-24021768D01*
X11578717Y-24021767D01*
X11578722Y-24021767D01*
X11628504Y-23988504D01*
X11661767Y-23938722D01*
X11661843Y-23938342D01*
X11670500Y-23894822D01*
X11670500Y-23030000D01*
X14744659Y-23030000D01*
X14763975Y-23226129D01*
X14763976Y-23226132D01*
X14821047Y-23414270D01*
X14821188Y-23414733D01*
X14914086Y-23588532D01*
X14914090Y-23588539D01*
X15039116Y-23740883D01*
X15191460Y-23865909D01*
X15191467Y-23865913D01*
X15365266Y-23958811D01*
X15365269Y-23958811D01*
X15365273Y-23958814D01*
X15553868Y-24016024D01*
X15750000Y-24035341D01*
X15946132Y-24016024D01*
X16134727Y-23958814D01*
X16172317Y-23938722D01*
X16222961Y-23911652D01*
X16308538Y-23865910D01*
X16460883Y-23740883D01*
X16585910Y-23588538D01*
X16653732Y-23461652D01*
X16678811Y-23414733D01*
X16678811Y-23414732D01*
X16678814Y-23414727D01*
X16736024Y-23226132D01*
X16755341Y-23030000D01*
X16736024Y-22833868D01*
X16678814Y-22645273D01*
X16678811Y-22645269D01*
X16678811Y-22645266D01*
X16585913Y-22471467D01*
X16585909Y-22471460D01*
X16460883Y-22319116D01*
X16308539Y-22194090D01*
X16308532Y-22194086D01*
X16134733Y-22101188D01*
X16134727Y-22101186D01*
X16008997Y-22063046D01*
X15946129Y-22043975D01*
X15750000Y-22024659D01*
X15553870Y-22043975D01*
X15365266Y-22101188D01*
X15191467Y-22194086D01*
X15191460Y-22194090D01*
X15039116Y-22319116D01*
X14914090Y-22471460D01*
X14914086Y-22471467D01*
X14821188Y-22645266D01*
X14763975Y-22833870D01*
X14744659Y-23030000D01*
X11670500Y-23030000D01*
X11670500Y-22165177D01*
X11661768Y-22121282D01*
X11661767Y-22121281D01*
X11661767Y-22121278D01*
X11628504Y-22071496D01*
X11628503Y-22071495D01*
X11578724Y-22038234D01*
X11578717Y-22038231D01*
X11534822Y-22029500D01*
X11534820Y-22029500D01*
X9805180Y-22029500D01*
X9805178Y-22029500D01*
X9761282Y-22038231D01*
X9761275Y-22038234D01*
X9711496Y-22071495D01*
X9711495Y-22071496D01*
X9678234Y-22121275D01*
X9678231Y-22121282D01*
X9669500Y-22165177D01*
X9669500Y-22165180D01*
X9669500Y-23894820D01*
X9669500Y-23894822D01*
X9669499Y-23894822D01*
X9000000Y-23894822D01*
X9000000Y-20090000D01*
X16764867Y-20090000D01*
X16783302Y-20218225D01*
X16798042Y-20250500D01*
X16837118Y-20336063D01*
X16921951Y-20433967D01*
X17030931Y-20504004D01*
X17155225Y-20540499D01*
X17155227Y-20540500D01*
X17155228Y-20540500D01*
X17284773Y-20540500D01*
X17284773Y-20540499D01*
X17409069Y-20504004D01*
X17518049Y-20433967D01*
X17602882Y-20336063D01*
X17608852Y-20322989D01*
X17654607Y-20270185D01*
X17721646Y-20250500D01*
X19225707Y-20250500D01*
X19292746Y-20270185D01*
X19360928Y-20314003D01*
X19360933Y-20314005D01*
X19485225Y-20350499D01*
X19485227Y-20350500D01*
X19485228Y-20350500D01*
X19614773Y-20350500D01*
X19614773Y-20350499D01*
X19739069Y-20314004D01*
X19848049Y-20243967D01*
X19932882Y-20146063D01*
X19986697Y-20028226D01*
X19990755Y-20000000D01*
X23294867Y-20000000D01*
X23313302Y-20128225D01*
X23354405Y-20218226D01*
X23367118Y-20246063D01*
X23425988Y-20314004D01*
X23445100Y-20336061D01*
X23451951Y-20343967D01*
X23560931Y-20414004D01*
X23685225Y-20450499D01*
X23685227Y-20450500D01*
X23685228Y-20450500D01*
X23814773Y-20450500D01*
X23814773Y-20450499D01*
X23939069Y-20414004D01*
X24048049Y-20343967D01*
X24132882Y-20246063D01*
X24186697Y-20128226D01*
X24192450Y-20088207D01*
X24221474Y-20024653D01*
X24227493Y-20018187D01*
X24748957Y-19496724D01*
X24810280Y-19463239D01*
X24836638Y-19460405D01*
X26233633Y-19460405D01*
X26300672Y-19480090D01*
X26368854Y-19523908D01*
X26368859Y-19523910D01*
X26493151Y-19560404D01*
X26493153Y-19560405D01*
X26493154Y-19560405D01*
X26622699Y-19560405D01*
X26622699Y-19560404D01*
X26746995Y-19523909D01*
X26855975Y-19453872D01*
X26940808Y-19355968D01*
X26994623Y-19238131D01*
X27013059Y-19109905D01*
X27000851Y-19024996D01*
X32374508Y-19024996D01*
X32374508Y-19025003D01*
X32394352Y-19150300D01*
X32394352Y-19150301D01*
X32394354Y-19150304D01*
X32451950Y-19263342D01*
X32451952Y-19263344D01*
X32451954Y-19263347D01*
X32541652Y-19353045D01*
X32541654Y-19353046D01*
X32541658Y-19353050D01*
X32654696Y-19410646D01*
X32654697Y-19410646D01*
X32654699Y-19410647D01*
X32779997Y-19430492D01*
X32780000Y-19430492D01*
X32780003Y-19430492D01*
X32905300Y-19410647D01*
X32905301Y-19410647D01*
X32905302Y-19410646D01*
X32905304Y-19410646D01*
X33018342Y-19353050D01*
X33108050Y-19263342D01*
X33165646Y-19150304D01*
X33165646Y-19150302D01*
X33165647Y-19150301D01*
X33165647Y-19150300D01*
X33185492Y-19025003D01*
X33185492Y-19024996D01*
X34354508Y-19024996D01*
X34354508Y-19025003D01*
X34374352Y-19150300D01*
X34374352Y-19150301D01*
X34374354Y-19150304D01*
X34431950Y-19263342D01*
X34431952Y-19263344D01*
X34431954Y-19263347D01*
X34521652Y-19353045D01*
X34521654Y-19353046D01*
X34521658Y-19353050D01*
X34634696Y-19410646D01*
X34634697Y-19410646D01*
X34634699Y-19410647D01*
X34759997Y-19430492D01*
X34760000Y-19430492D01*
X34760003Y-19430492D01*
X34885300Y-19410647D01*
X34885301Y-19410647D01*
X34885302Y-19410646D01*
X34885304Y-19410646D01*
X34998342Y-19353050D01*
X35088050Y-19263342D01*
X35145646Y-19150304D01*
X35145646Y-19150302D01*
X35145647Y-19150301D01*
X35145647Y-19150300D01*
X35165492Y-19025003D01*
X35165492Y-19024996D01*
X35145647Y-18899699D01*
X35145647Y-18899698D01*
X35145646Y-18899696D01*
X35088050Y-18786658D01*
X35088046Y-18786654D01*
X35088045Y-18786652D01*
X34998347Y-18696954D01*
X34998344Y-18696952D01*
X34998342Y-18696950D01*
X34885304Y-18639354D01*
X34885303Y-18639353D01*
X34885300Y-18639352D01*
X34760003Y-18619508D01*
X34759997Y-18619508D01*
X34634699Y-18639352D01*
X34634698Y-18639352D01*
X34559337Y-18677751D01*
X34521658Y-18696950D01*
X34521657Y-18696951D01*
X34521652Y-18696954D01*
X34431954Y-18786652D01*
X34431951Y-18786657D01*
X34374352Y-18899698D01*
X34374352Y-18899699D01*
X34354508Y-19024996D01*
X33185492Y-19024996D01*
X33165647Y-18899699D01*
X33165647Y-18899698D01*
X33165646Y-18899696D01*
X33108050Y-18786658D01*
X33108046Y-18786654D01*
X33108045Y-18786652D01*
X33018347Y-18696954D01*
X33018344Y-18696952D01*
X33018342Y-18696950D01*
X32905304Y-18639354D01*
X32905303Y-18639353D01*
X32905300Y-18639352D01*
X32780003Y-18619508D01*
X32779997Y-18619508D01*
X32654699Y-18639352D01*
X32654698Y-18639352D01*
X32579337Y-18677751D01*
X32541658Y-18696950D01*
X32541657Y-18696951D01*
X32541652Y-18696954D01*
X32451954Y-18786652D01*
X32451951Y-18786657D01*
X32394352Y-18899698D01*
X32394352Y-18899699D01*
X32374508Y-19024996D01*
X27000851Y-19024996D01*
X26994623Y-18981679D01*
X26940808Y-18863842D01*
X26855975Y-18765938D01*
X26746995Y-18695901D01*
X26746991Y-18695899D01*
X26746990Y-18695899D01*
X26622700Y-18659405D01*
X26622698Y-18659405D01*
X26493154Y-18659405D01*
X26493152Y-18659405D01*
X26368859Y-18695899D01*
X26368854Y-18695901D01*
X26300672Y-18739720D01*
X26233633Y-18759405D01*
X24593951Y-18759405D01*
X24504807Y-18783291D01*
X24504806Y-18783291D01*
X24504804Y-18783292D01*
X24504801Y-18783293D01*
X24424889Y-18829431D01*
X24424880Y-18829438D01*
X23735341Y-19518976D01*
X23682595Y-19550272D01*
X23560934Y-19585994D01*
X23451950Y-19656033D01*
X23367118Y-19753937D01*
X23367117Y-19753938D01*
X23313302Y-19871774D01*
X23294867Y-20000000D01*
X19990755Y-20000000D01*
X20005133Y-19900000D01*
X19986697Y-19771774D01*
X19932882Y-19653937D01*
X19848049Y-19556033D01*
X19739069Y-19485996D01*
X19739065Y-19485994D01*
X19739064Y-19485994D01*
X19614774Y-19449500D01*
X19614772Y-19449500D01*
X19485228Y-19449500D01*
X19485226Y-19449500D01*
X19360933Y-19485994D01*
X19360928Y-19485996D01*
X19292746Y-19529815D01*
X19225707Y-19549500D01*
X17363856Y-19549500D01*
X17274712Y-19573386D01*
X17274709Y-19573387D01*
X17187750Y-19623593D01*
X17187449Y-19623072D01*
X17154955Y-19639579D01*
X17030934Y-19675994D01*
X16921950Y-19746033D01*
X16837118Y-19843937D01*
X16837117Y-19843938D01*
X16783302Y-19961774D01*
X16764867Y-20090000D01*
X9000000Y-20090000D01*
X9000000Y-18112024D01*
X9119386Y-17982337D01*
X9241800Y-17794970D01*
X9331703Y-17590009D01*
X9386646Y-17373047D01*
X9386647Y-17373039D01*
X9405128Y-17150005D01*
X9405128Y-17149994D01*
X9386647Y-16926960D01*
X9386646Y-16926957D01*
X9386646Y-16926953D01*
X9354496Y-16799996D01*
X11844508Y-16799996D01*
X11844508Y-16800003D01*
X11864352Y-16925300D01*
X11864352Y-16925301D01*
X11879559Y-16955145D01*
X11921950Y-17038342D01*
X11921952Y-17038344D01*
X11921954Y-17038347D01*
X12011652Y-17128045D01*
X12011654Y-17128046D01*
X12011658Y-17128050D01*
X12124696Y-17185646D01*
X12124697Y-17185646D01*
X12124699Y-17185647D01*
X12249997Y-17205492D01*
X12250000Y-17205492D01*
X12250003Y-17205492D01*
X12375300Y-17185647D01*
X12375301Y-17185647D01*
X12375302Y-17185646D01*
X12375304Y-17185646D01*
X12488342Y-17128050D01*
X12578050Y-17038342D01*
X12635646Y-16925304D01*
X12635646Y-16925302D01*
X12635647Y-16925301D01*
X12635647Y-16925300D01*
X12655492Y-16800003D01*
X12655492Y-16799996D01*
X12635647Y-16674699D01*
X12635647Y-16674698D01*
X12621677Y-16647281D01*
X12578050Y-16561658D01*
X12578046Y-16561654D01*
X12578045Y-16561652D01*
X12488347Y-16471954D01*
X12488344Y-16471952D01*
X12488342Y-16471950D01*
X12375304Y-16414354D01*
X12375303Y-16414353D01*
X12375300Y-16414352D01*
X12250003Y-16394508D01*
X12249997Y-16394508D01*
X12124699Y-16414352D01*
X12124698Y-16414352D01*
X12065531Y-16444500D01*
X12011658Y-16471950D01*
X12011657Y-16471951D01*
X12011652Y-16471954D01*
X11921954Y-16561652D01*
X11921951Y-16561657D01*
X11921950Y-16561658D01*
X11907509Y-16590000D01*
X11864352Y-16674698D01*
X11864352Y-16674699D01*
X11844508Y-16799996D01*
X9354496Y-16799996D01*
X9331703Y-16709991D01*
X9241800Y-16505030D01*
X9119386Y-16317663D01*
X9000000Y-16187975D01*
X9000000Y-12566785D01*
X9102719Y-12566785D01*
X9102719Y-12566792D01*
X9122563Y-12692089D01*
X9122563Y-12692090D01*
X9122565Y-12692093D01*
X9180161Y-12805131D01*
X9180163Y-12805133D01*
X9180165Y-12805136D01*
X9269863Y-12894834D01*
X9269867Y-12894837D01*
X9269869Y-12894839D01*
X9295936Y-12908120D01*
X9346730Y-12956092D01*
X9363526Y-13023913D01*
X9340990Y-13090048D01*
X9327322Y-13106284D01*
X9289111Y-13144495D01*
X9289108Y-13144500D01*
X9231509Y-13257541D01*
X9231509Y-13257542D01*
X9211665Y-13382839D01*
X9211665Y-13382846D01*
X9231509Y-13508143D01*
X9231509Y-13508144D01*
X9233079Y-13511225D01*
X9289107Y-13621185D01*
X9289109Y-13621187D01*
X9289111Y-13621190D01*
X9378809Y-13710888D01*
X9378811Y-13710889D01*
X9378815Y-13710893D01*
X9491853Y-13768489D01*
X9491854Y-13768489D01*
X9491856Y-13768490D01*
X9617154Y-13788335D01*
X9617157Y-13788335D01*
X9617160Y-13788335D01*
X9742457Y-13768490D01*
X9742458Y-13768490D01*
X9742459Y-13768489D01*
X9742461Y-13768489D01*
X9855499Y-13710893D01*
X9945207Y-13621185D01*
X10002803Y-13508147D01*
X10002803Y-13508145D01*
X10002804Y-13508144D01*
X10002804Y-13508143D01*
X10022649Y-13382846D01*
X10022649Y-13382839D01*
X10002804Y-13257542D01*
X10002804Y-13257541D01*
X10002803Y-13257539D01*
X9945207Y-13144501D01*
X9945203Y-13144497D01*
X9945202Y-13144495D01*
X9855504Y-13054797D01*
X9855500Y-13054794D01*
X9855499Y-13054793D01*
X9829430Y-13041510D01*
X9778636Y-12993538D01*
X9761841Y-12925717D01*
X9784378Y-12859582D01*
X9798047Y-12843345D01*
X9836257Y-12805135D01*
X9836261Y-12805131D01*
X9864352Y-12750000D01*
X13924867Y-12750000D01*
X13943302Y-12878225D01*
X13986257Y-12972281D01*
X13997118Y-12996063D01*
X14081951Y-13093967D01*
X14190931Y-13164004D01*
X14290901Y-13193357D01*
X14315225Y-13200499D01*
X14315227Y-13200500D01*
X14424877Y-13200500D01*
X14491916Y-13220185D01*
X14512558Y-13236819D01*
X15363181Y-14087442D01*
X15396666Y-14148765D01*
X15399500Y-14175123D01*
X15399500Y-16858202D01*
X15379815Y-16925241D01*
X15356704Y-16951914D01*
X15351952Y-16956031D01*
X15267118Y-17053937D01*
X15267117Y-17053938D01*
X15213302Y-17171774D01*
X15194867Y-17300000D01*
X15213302Y-17428225D01*
X15230756Y-17466443D01*
X15267118Y-17546063D01*
X15351951Y-17643967D01*
X15460931Y-17714004D01*
X15522041Y-17731947D01*
X15585225Y-17750499D01*
X15585227Y-17750500D01*
X15585228Y-17750500D01*
X15714773Y-17750500D01*
X15714773Y-17750499D01*
X15839069Y-17714004D01*
X15948049Y-17643967D01*
X16032882Y-17546063D01*
X16086697Y-17428226D01*
X16105133Y-17300000D01*
X16086697Y-17171774D01*
X16032882Y-17053937D01*
X15948049Y-16956033D01*
X15948048Y-16956032D01*
X15948047Y-16956031D01*
X15943296Y-16951914D01*
X15905523Y-16893136D01*
X15900500Y-16858202D01*
X15900500Y-16699996D01*
X16994508Y-16699996D01*
X16994508Y-16700003D01*
X17014352Y-16825300D01*
X17014352Y-16825301D01*
X17031116Y-16858202D01*
X17071950Y-16938342D01*
X17071952Y-16938344D01*
X17071954Y-16938347D01*
X17161652Y-17028045D01*
X17161654Y-17028046D01*
X17161658Y-17028050D01*
X17274696Y-17085646D01*
X17274697Y-17085646D01*
X17274699Y-17085647D01*
X17399997Y-17105492D01*
X17400000Y-17105492D01*
X17400003Y-17105492D01*
X17525300Y-17085647D01*
X17525301Y-17085647D01*
X17525302Y-17085646D01*
X17525304Y-17085646D01*
X17638342Y-17028050D01*
X17728050Y-16938342D01*
X17747586Y-16900000D01*
X50400000Y-16900000D01*
X51200000Y-16900000D01*
X51200000Y-16100000D01*
X50400000Y-16100000D01*
X50400000Y-16900000D01*
X17747586Y-16900000D01*
X17785646Y-16825304D01*
X17785646Y-16825302D01*
X17785647Y-16825301D01*
X17785647Y-16825300D01*
X17805492Y-16700003D01*
X17805492Y-16699996D01*
X17785647Y-16574699D01*
X17785647Y-16574698D01*
X17750536Y-16505790D01*
X17728050Y-16461658D01*
X17728046Y-16461654D01*
X17728045Y-16461652D01*
X17638347Y-16371954D01*
X17638344Y-16371952D01*
X17638342Y-16371950D01*
X17525304Y-16314354D01*
X17525303Y-16314353D01*
X17525300Y-16314352D01*
X17400003Y-16294508D01*
X17399997Y-16294508D01*
X17274699Y-16314352D01*
X17274698Y-16314352D01*
X17216636Y-16343937D01*
X17161658Y-16371950D01*
X17161657Y-16371951D01*
X17161652Y-16371954D01*
X17071954Y-16461652D01*
X17071951Y-16461657D01*
X17071950Y-16461658D01*
X17066704Y-16471954D01*
X17014352Y-16574698D01*
X17014352Y-16574699D01*
X16994508Y-16699996D01*
X15900500Y-16699996D01*
X15900500Y-14449996D01*
X21744508Y-14449996D01*
X21744508Y-14450003D01*
X21764352Y-14575300D01*
X21764352Y-14575301D01*
X21771512Y-14589352D01*
X21821950Y-14688342D01*
X21821952Y-14688344D01*
X21821954Y-14688347D01*
X21911652Y-14778045D01*
X21911654Y-14778046D01*
X21911658Y-14778050D01*
X22024696Y-14835646D01*
X22024697Y-14835646D01*
X22024699Y-14835647D01*
X22149997Y-14855492D01*
X22150000Y-14855492D01*
X22150003Y-14855492D01*
X22226111Y-14843438D01*
X22295404Y-14852393D01*
X22348856Y-14897389D01*
X22369495Y-14964141D01*
X22369508Y-14965911D01*
X22369508Y-14975003D01*
X22389352Y-15100300D01*
X22389352Y-15100301D01*
X22389354Y-15100304D01*
X22446950Y-15213342D01*
X22446952Y-15213344D01*
X22446954Y-15213347D01*
X22536652Y-15303045D01*
X22536654Y-15303046D01*
X22536658Y-15303050D01*
X22649696Y-15360646D01*
X22649697Y-15360646D01*
X22649699Y-15360647D01*
X22774997Y-15380492D01*
X22775000Y-15380492D01*
X22775003Y-15380492D01*
X22900300Y-15360647D01*
X22900301Y-15360647D01*
X22900302Y-15360646D01*
X22900304Y-15360646D01*
X23013342Y-15303050D01*
X23103050Y-15213342D01*
X23160646Y-15100304D01*
X23160646Y-15100302D01*
X23160647Y-15100301D01*
X23160647Y-15100300D01*
X23180492Y-14975003D01*
X23180492Y-14974996D01*
X23160647Y-14849699D01*
X23160647Y-14849698D01*
X23157457Y-14843438D01*
X23103050Y-14736658D01*
X23103046Y-14736654D01*
X23103045Y-14736652D01*
X23013347Y-14646954D01*
X23013344Y-14646952D01*
X23013342Y-14646950D01*
X22900304Y-14589354D01*
X22900303Y-14589353D01*
X22900300Y-14589352D01*
X22775003Y-14569508D01*
X22775001Y-14569508D01*
X22775000Y-14569508D01*
X22762837Y-14571434D01*
X22698888Y-14581562D01*
X22629595Y-14572606D01*
X22576143Y-14527609D01*
X22555505Y-14460857D01*
X22555492Y-14459088D01*
X22555492Y-14449996D01*
X22535647Y-14324699D01*
X22535647Y-14324698D01*
X22519262Y-14292541D01*
X22497584Y-14249996D01*
X23169508Y-14249996D01*
X23169508Y-14250003D01*
X23189352Y-14375300D01*
X23189352Y-14375301D01*
X23189354Y-14375304D01*
X23246950Y-14488342D01*
X23246952Y-14488344D01*
X23246954Y-14488347D01*
X23336652Y-14578045D01*
X23336654Y-14578046D01*
X23336658Y-14578050D01*
X23449696Y-14635646D01*
X23449697Y-14635646D01*
X23449699Y-14635647D01*
X23574997Y-14655492D01*
X23575000Y-14655492D01*
X23575003Y-14655492D01*
X23700300Y-14635647D01*
X23700301Y-14635647D01*
X23700302Y-14635646D01*
X23700304Y-14635646D01*
X23813342Y-14578050D01*
X23903050Y-14488342D01*
X23960646Y-14375304D01*
X23960646Y-14375302D01*
X23960647Y-14375301D01*
X23960647Y-14375300D01*
X23980492Y-14250003D01*
X23980492Y-14249996D01*
X23960647Y-14124699D01*
X23960647Y-14124698D01*
X23941664Y-14087442D01*
X23903050Y-14011658D01*
X23903046Y-14011654D01*
X23903045Y-14011652D01*
X23813347Y-13921954D01*
X23813344Y-13921952D01*
X23813342Y-13921950D01*
X23700304Y-13864354D01*
X23700303Y-13864353D01*
X23700300Y-13864352D01*
X23575003Y-13844508D01*
X23574997Y-13844508D01*
X23449699Y-13864352D01*
X23449698Y-13864352D01*
X23374337Y-13902751D01*
X23336658Y-13921950D01*
X23336657Y-13921951D01*
X23336652Y-13921954D01*
X23246954Y-14011652D01*
X23246951Y-14011657D01*
X23189352Y-14124698D01*
X23189352Y-14124699D01*
X23169508Y-14249996D01*
X22497584Y-14249996D01*
X22478050Y-14211658D01*
X22478046Y-14211654D01*
X22478045Y-14211652D01*
X22388347Y-14121954D01*
X22388344Y-14121952D01*
X22388342Y-14121950D01*
X22275304Y-14064354D01*
X22275303Y-14064353D01*
X22275300Y-14064352D01*
X22150003Y-14044508D01*
X22149997Y-14044508D01*
X22024699Y-14064352D01*
X22024698Y-14064352D01*
X21979383Y-14087442D01*
X21911658Y-14121950D01*
X21911657Y-14121951D01*
X21911652Y-14121954D01*
X21821954Y-14211652D01*
X21821951Y-14211657D01*
X21821950Y-14211658D01*
X21808835Y-14237397D01*
X21764352Y-14324698D01*
X21764352Y-14324699D01*
X21744508Y-14449996D01*
X15900500Y-14449996D01*
X15900500Y-13970173D01*
X15900499Y-13970170D01*
X15862364Y-13878103D01*
X15791897Y-13807636D01*
X15249083Y-13264822D01*
X22599499Y-13264822D01*
X22608231Y-13308717D01*
X22608232Y-13308721D01*
X22608233Y-13308722D01*
X22641496Y-13358504D01*
X22691278Y-13391767D01*
X22691281Y-13391767D01*
X22691282Y-13391768D01*
X22735177Y-13400500D01*
X22735180Y-13400500D01*
X24464822Y-13400500D01*
X24508717Y-13391768D01*
X24508717Y-13391767D01*
X24508722Y-13391767D01*
X24558504Y-13358504D01*
X24591767Y-13308722D01*
X24600500Y-13264820D01*
X24600500Y-12269996D01*
X34569508Y-12269996D01*
X34569508Y-12270003D01*
X34589352Y-12395300D01*
X34589352Y-12395301D01*
X34607805Y-12431517D01*
X34646950Y-12508342D01*
X34646952Y-12508344D01*
X34646954Y-12508347D01*
X34736652Y-12598045D01*
X34736654Y-12598046D01*
X34736658Y-12598050D01*
X34849696Y-12655646D01*
X34849697Y-12655646D01*
X34849699Y-12655647D01*
X34974997Y-12675492D01*
X34975000Y-12675492D01*
X34975003Y-12675492D01*
X35100300Y-12655647D01*
X35100301Y-12655647D01*
X35100302Y-12655646D01*
X35100304Y-12655646D01*
X35213342Y-12598050D01*
X35303050Y-12508342D01*
X35360646Y-12395304D01*
X35360646Y-12395302D01*
X35360647Y-12395301D01*
X35360647Y-12395300D01*
X35367822Y-12349996D01*
X39354508Y-12349996D01*
X39354508Y-12350003D01*
X39374352Y-12475300D01*
X39374352Y-12475301D01*
X39379449Y-12485304D01*
X39431950Y-12588342D01*
X39431952Y-12588344D01*
X39431954Y-12588347D01*
X39521652Y-12678045D01*
X39521654Y-12678046D01*
X39521658Y-12678050D01*
X39634696Y-12735646D01*
X39634697Y-12735646D01*
X39634699Y-12735647D01*
X39759997Y-12755492D01*
X39760000Y-12755492D01*
X39760003Y-12755492D01*
X39885300Y-12735647D01*
X39885301Y-12735647D01*
X39885302Y-12735646D01*
X39885304Y-12735646D01*
X39998342Y-12678050D01*
X40088050Y-12588342D01*
X40145646Y-12475304D01*
X40145646Y-12475302D01*
X40145647Y-12475301D01*
X40145647Y-12475300D01*
X40163909Y-12359996D01*
X41664508Y-12359996D01*
X41664508Y-12360003D01*
X41684352Y-12485300D01*
X41684352Y-12485301D01*
X41696095Y-12508347D01*
X41741950Y-12598342D01*
X41741952Y-12598344D01*
X41741954Y-12598347D01*
X41831652Y-12688045D01*
X41831654Y-12688046D01*
X41831658Y-12688050D01*
X41944696Y-12745646D01*
X41944697Y-12745646D01*
X41944699Y-12745647D01*
X42069997Y-12765492D01*
X42070000Y-12765492D01*
X42070003Y-12765492D01*
X42195300Y-12745647D01*
X42195301Y-12745647D01*
X42195302Y-12745646D01*
X42195304Y-12745646D01*
X42308342Y-12688050D01*
X42398050Y-12598342D01*
X42455646Y-12485304D01*
X42455646Y-12485302D01*
X42455647Y-12485301D01*
X42455647Y-12485300D01*
X42475492Y-12360003D01*
X42475492Y-12359996D01*
X42455647Y-12234699D01*
X42455647Y-12234698D01*
X42428358Y-12181141D01*
X42398050Y-12121658D01*
X42398046Y-12121654D01*
X42398045Y-12121652D01*
X42308347Y-12031954D01*
X42308344Y-12031952D01*
X42308342Y-12031950D01*
X42195304Y-11974354D01*
X42195303Y-11974353D01*
X42195300Y-11974352D01*
X42070003Y-11954508D01*
X42069997Y-11954508D01*
X41944699Y-11974352D01*
X41944698Y-11974352D01*
X41869337Y-12012751D01*
X41831658Y-12031950D01*
X41831657Y-12031951D01*
X41831652Y-12031954D01*
X41741954Y-12121652D01*
X41741951Y-12121657D01*
X41741950Y-12121658D01*
X41730210Y-12144699D01*
X41684352Y-12234698D01*
X41684352Y-12234699D01*
X41664508Y-12359996D01*
X40163909Y-12359996D01*
X40165492Y-12350003D01*
X40165492Y-12349996D01*
X40145647Y-12224699D01*
X40145647Y-12224698D01*
X40145646Y-12224696D01*
X40088050Y-12111658D01*
X40088046Y-12111654D01*
X40088045Y-12111652D01*
X39998347Y-12021954D01*
X39998344Y-12021952D01*
X39998342Y-12021950D01*
X39885304Y-11964354D01*
X39885303Y-11964353D01*
X39885300Y-11964352D01*
X39760003Y-11944508D01*
X39759997Y-11944508D01*
X39634699Y-11964352D01*
X39634698Y-11964352D01*
X39559337Y-12002751D01*
X39521658Y-12021950D01*
X39521657Y-12021951D01*
X39521652Y-12021954D01*
X39431954Y-12111652D01*
X39431951Y-12111657D01*
X39431950Y-12111658D01*
X39426855Y-12121658D01*
X39374352Y-12224698D01*
X39374352Y-12224699D01*
X39354508Y-12349996D01*
X35367822Y-12349996D01*
X35380492Y-12270003D01*
X35380492Y-12269996D01*
X35360647Y-12144699D01*
X35360647Y-12144698D01*
X35343812Y-12111658D01*
X35303050Y-12031658D01*
X35303046Y-12031654D01*
X35303045Y-12031652D01*
X35213347Y-11941954D01*
X35213344Y-11941952D01*
X35213342Y-11941950D01*
X35100304Y-11884354D01*
X35100303Y-11884353D01*
X35100300Y-11884352D01*
X34975003Y-11864508D01*
X34974997Y-11864508D01*
X34849699Y-11884352D01*
X34849698Y-11884352D01*
X34774337Y-11922751D01*
X34736658Y-11941950D01*
X34736657Y-11941951D01*
X34736652Y-11941954D01*
X34646954Y-12031652D01*
X34646951Y-12031657D01*
X34646950Y-12031658D01*
X34627751Y-12069337D01*
X34589352Y-12144698D01*
X34589352Y-12144699D01*
X34569508Y-12269996D01*
X24600500Y-12269996D01*
X24600500Y-11549996D01*
X27969508Y-11549996D01*
X27969508Y-11550003D01*
X27989352Y-11675300D01*
X27989352Y-11675301D01*
X27989354Y-11675304D01*
X28046950Y-11788342D01*
X28046952Y-11788344D01*
X28046954Y-11788347D01*
X28136652Y-11878045D01*
X28136654Y-11878046D01*
X28136658Y-11878050D01*
X28249696Y-11935646D01*
X28249697Y-11935646D01*
X28249699Y-11935647D01*
X28374997Y-11955492D01*
X28375000Y-11955492D01*
X28375003Y-11955492D01*
X28500300Y-11935647D01*
X28500301Y-11935647D01*
X28500302Y-11935646D01*
X28500304Y-11935646D01*
X28613342Y-11878050D01*
X28703050Y-11788342D01*
X28760646Y-11675304D01*
X28760646Y-11675302D01*
X28760647Y-11675301D01*
X28760647Y-11675300D01*
X28780492Y-11550003D01*
X28780492Y-11549996D01*
X28760647Y-11424699D01*
X28760647Y-11424698D01*
X28752258Y-11408234D01*
X28703050Y-11311658D01*
X28703046Y-11311654D01*
X28703045Y-11311652D01*
X28613347Y-11221954D01*
X28613344Y-11221952D01*
X28613342Y-11221950D01*
X28500304Y-11164354D01*
X28500303Y-11164353D01*
X28500300Y-11164352D01*
X28375003Y-11144508D01*
X28374997Y-11144508D01*
X28249699Y-11164352D01*
X28249698Y-11164352D01*
X28174337Y-11202751D01*
X28136658Y-11221950D01*
X28136657Y-11221951D01*
X28136652Y-11221954D01*
X28046954Y-11311652D01*
X28046951Y-11311657D01*
X27989352Y-11424698D01*
X27989352Y-11424699D01*
X27969508Y-11549996D01*
X24600500Y-11549996D01*
X24600500Y-11535180D01*
X24600500Y-11535177D01*
X24591768Y-11491282D01*
X24591767Y-11491281D01*
X24591767Y-11491278D01*
X24558504Y-11441496D01*
X24558503Y-11441495D01*
X24508724Y-11408234D01*
X24508717Y-11408231D01*
X24464822Y-11399500D01*
X24464820Y-11399500D01*
X22735180Y-11399500D01*
X22735178Y-11399500D01*
X22691282Y-11408231D01*
X22691275Y-11408234D01*
X22641496Y-11441495D01*
X22641495Y-11441496D01*
X22608234Y-11491275D01*
X22608231Y-11491282D01*
X22599500Y-11535177D01*
X22599500Y-11535180D01*
X22599500Y-13264820D01*
X22599500Y-13264822D01*
X22599499Y-13264822D01*
X15249083Y-13264822D01*
X14866343Y-12882082D01*
X14832858Y-12820759D01*
X14831286Y-12776753D01*
X14832905Y-12765492D01*
X14835133Y-12750000D01*
X14816697Y-12621774D01*
X14762882Y-12503937D01*
X14678049Y-12406033D01*
X14569069Y-12335996D01*
X14569065Y-12335994D01*
X14569064Y-12335994D01*
X14444774Y-12299500D01*
X14444772Y-12299500D01*
X14315228Y-12299500D01*
X14315226Y-12299500D01*
X14190935Y-12335994D01*
X14190932Y-12335995D01*
X14190931Y-12335996D01*
X14139677Y-12368934D01*
X14081950Y-12406033D01*
X13997118Y-12503937D01*
X13997117Y-12503938D01*
X13943302Y-12621774D01*
X13924867Y-12750000D01*
X9864352Y-12750000D01*
X9893857Y-12692093D01*
X9893857Y-12692091D01*
X9893858Y-12692090D01*
X9893858Y-12692089D01*
X9913703Y-12566792D01*
X9913703Y-12566785D01*
X9893858Y-12441488D01*
X9893858Y-12441487D01*
X9870326Y-12395304D01*
X9836261Y-12328447D01*
X9836257Y-12328443D01*
X9836256Y-12328441D01*
X9746558Y-12238743D01*
X9746555Y-12238741D01*
X9746553Y-12238739D01*
X9633515Y-12181143D01*
X9633514Y-12181142D01*
X9633511Y-12181141D01*
X9508214Y-12161297D01*
X9508208Y-12161297D01*
X9382910Y-12181141D01*
X9382909Y-12181141D01*
X9307548Y-12219540D01*
X9269869Y-12238739D01*
X9269868Y-12238740D01*
X9269863Y-12238743D01*
X9180165Y-12328441D01*
X9180162Y-12328446D01*
X9180161Y-12328447D01*
X9165636Y-12356954D01*
X9122563Y-12441487D01*
X9122563Y-12441488D01*
X9102719Y-12566785D01*
X9000000Y-12566785D01*
X9000000Y-10899996D01*
X29564508Y-10899996D01*
X29564508Y-10900003D01*
X29584352Y-11025300D01*
X29584352Y-11025301D01*
X29584354Y-11025304D01*
X29641950Y-11138342D01*
X29641952Y-11138344D01*
X29641954Y-11138347D01*
X29731652Y-11228045D01*
X29731654Y-11228046D01*
X29731658Y-11228050D01*
X29844696Y-11285646D01*
X29844697Y-11285646D01*
X29844699Y-11285647D01*
X29969997Y-11305492D01*
X29970000Y-11305492D01*
X29970003Y-11305492D01*
X30095300Y-11285647D01*
X30095301Y-11285647D01*
X30095302Y-11285646D01*
X30095304Y-11285646D01*
X30208342Y-11228050D01*
X30298050Y-11138342D01*
X30355646Y-11025304D01*
X30355646Y-11025302D01*
X30355647Y-11025301D01*
X30355647Y-11025300D01*
X30375492Y-10900003D01*
X30375492Y-10899996D01*
X30355647Y-10774699D01*
X30355647Y-10774698D01*
X30355646Y-10774696D01*
X30298050Y-10661658D01*
X30298046Y-10661654D01*
X30298045Y-10661652D01*
X30208347Y-10571954D01*
X30208344Y-10571952D01*
X30208342Y-10571950D01*
X30095304Y-10514354D01*
X30095303Y-10514353D01*
X30095300Y-10514352D01*
X29970003Y-10494508D01*
X29969997Y-10494508D01*
X29844699Y-10514352D01*
X29844698Y-10514352D01*
X29769337Y-10552751D01*
X29731658Y-10571950D01*
X29731657Y-10571951D01*
X29731652Y-10571954D01*
X29641954Y-10661652D01*
X29641951Y-10661657D01*
X29584352Y-10774698D01*
X29584352Y-10774699D01*
X29564508Y-10899996D01*
X9000000Y-10899996D01*
X9000000Y-10381358D01*
X58634500Y-10381358D01*
X58634500Y-10976008D01*
X58638054Y-11009055D01*
X58649260Y-11060566D01*
X58683686Y-11129342D01*
X58729436Y-11182139D01*
X58734422Y-11187623D01*
X58790739Y-11221951D01*
X58803150Y-11229516D01*
X58870189Y-11249201D01*
X58914000Y-11255500D01*
X61684228Y-11255500D01*
X61751267Y-11275185D01*
X61771909Y-11291819D01*
X62293726Y-11813636D01*
X62293740Y-11813649D01*
X62293751Y-11813659D01*
X62306089Y-11824742D01*
X62306105Y-11824755D01*
X62306111Y-11824761D01*
X62326753Y-11841395D01*
X62380512Y-11869516D01*
X62380514Y-11869516D01*
X62380517Y-11869518D01*
X62409558Y-11878045D01*
X62447551Y-11889201D01*
X62491362Y-11895500D01*
X62491365Y-11895500D01*
X65425991Y-11895500D01*
X65426000Y-11895500D01*
X65459055Y-11891946D01*
X65510566Y-11880740D01*
X65579342Y-11846313D01*
X65632146Y-11800558D01*
X65637621Y-11795580D01*
X65679516Y-11726850D01*
X65699201Y-11659811D01*
X65705500Y-11616000D01*
X65705500Y-11094000D01*
X65701946Y-11060945D01*
X65690740Y-11009434D01*
X65673545Y-10975084D01*
X65656313Y-10940657D01*
X65610563Y-10887860D01*
X65605577Y-10882376D01*
X65536854Y-10840486D01*
X65536848Y-10840483D01*
X65469812Y-10820799D01*
X65469802Y-10820797D01*
X65426003Y-10814500D01*
X65426000Y-10814500D01*
X63790779Y-10814500D01*
X63723740Y-10794815D01*
X63677985Y-10742011D01*
X63668041Y-10672853D01*
X63697066Y-10609297D01*
X63734485Y-10580015D01*
X63738342Y-10578050D01*
X63828050Y-10488342D01*
X63885646Y-10375304D01*
X63885646Y-10375302D01*
X63885647Y-10375301D01*
X63885647Y-10375300D01*
X63905492Y-10250003D01*
X63905492Y-10249996D01*
X63885647Y-10124699D01*
X63885647Y-10124698D01*
X63868163Y-10090384D01*
X63828050Y-10011658D01*
X63828046Y-10011654D01*
X63828045Y-10011652D01*
X63738347Y-9921954D01*
X63738344Y-9921952D01*
X63738342Y-9921950D01*
X63625304Y-9864354D01*
X63625303Y-9864353D01*
X63625300Y-9864352D01*
X63500003Y-9844508D01*
X63499997Y-9844508D01*
X63374699Y-9864352D01*
X63374698Y-9864352D01*
X63299337Y-9902751D01*
X63261658Y-9921950D01*
X63261657Y-9921951D01*
X63261652Y-9921954D01*
X63171954Y-10011652D01*
X63171949Y-10011659D01*
X63154792Y-10045332D01*
X63106818Y-10096127D01*
X63038996Y-10112922D01*
X62972862Y-10090384D01*
X62956627Y-10076717D01*
X62786289Y-9906379D01*
X62786283Y-9906373D01*
X62786274Y-9906364D01*
X62786260Y-9906351D01*
X62786248Y-9906340D01*
X62773910Y-9895257D01*
X62773883Y-9895234D01*
X62753250Y-9878607D01*
X62753245Y-9878604D01*
X62699482Y-9850481D01*
X62632454Y-9830800D01*
X62632440Y-9830797D01*
X62588641Y-9824500D01*
X62588638Y-9824500D01*
X59191362Y-9824500D01*
X59174754Y-9825390D01*
X59174745Y-9825390D01*
X59174739Y-9825391D01*
X59174733Y-9825391D01*
X59174702Y-9825394D01*
X59148380Y-9828224D01*
X59148378Y-9828225D01*
X59090483Y-9846354D01*
X59090473Y-9846358D01*
X59029163Y-9879836D01*
X59029155Y-9879841D01*
X58993733Y-9906357D01*
X58993715Y-9906373D01*
X58716379Y-10183710D01*
X58716340Y-10183751D01*
X58705257Y-10196089D01*
X58705234Y-10196116D01*
X58688607Y-10216749D01*
X58688604Y-10216754D01*
X58660481Y-10270517D01*
X58640800Y-10337545D01*
X58640797Y-10337559D01*
X58634500Y-10381358D01*
X9000000Y-10381358D01*
X9000000Y-9170000D01*
X27224659Y-9170000D01*
X27243975Y-9366129D01*
X27243976Y-9366132D01*
X27298322Y-9545287D01*
X27301188Y-9554733D01*
X27394086Y-9728532D01*
X27394090Y-9728539D01*
X27519116Y-9880883D01*
X27671460Y-10005909D01*
X27671467Y-10005913D01*
X27845266Y-10098811D01*
X27845269Y-10098811D01*
X27845273Y-10098814D01*
X28033868Y-10156024D01*
X28230000Y-10175341D01*
X28426132Y-10156024D01*
X28614727Y-10098814D01*
X28621300Y-10095301D01*
X28788532Y-10005913D01*
X28788538Y-10005910D01*
X28940883Y-9880883D01*
X29065910Y-9728538D01*
X29144514Y-9581480D01*
X29158811Y-9554733D01*
X29158811Y-9554732D01*
X29158814Y-9554727D01*
X29216024Y-9366132D01*
X29235341Y-9170000D01*
X29764659Y-9170000D01*
X29783975Y-9366129D01*
X29783976Y-9366132D01*
X29838322Y-9545287D01*
X29841188Y-9554733D01*
X29934086Y-9728532D01*
X29934090Y-9728539D01*
X30059116Y-9880883D01*
X30211460Y-10005909D01*
X30211467Y-10005913D01*
X30385266Y-10098811D01*
X30385269Y-10098811D01*
X30385273Y-10098814D01*
X30573868Y-10156024D01*
X30770000Y-10175341D01*
X30966132Y-10156024D01*
X31154727Y-10098814D01*
X31161300Y-10095301D01*
X31328532Y-10005913D01*
X31328538Y-10005910D01*
X31480883Y-9880883D01*
X31605910Y-9728538D01*
X31684514Y-9581480D01*
X31698811Y-9554733D01*
X31698811Y-9554732D01*
X31698814Y-9554727D01*
X31756024Y-9366132D01*
X31775341Y-9170000D01*
X32304659Y-9170000D01*
X32323975Y-9366129D01*
X32323976Y-9366132D01*
X32378322Y-9545287D01*
X32381188Y-9554733D01*
X32474086Y-9728532D01*
X32474090Y-9728539D01*
X32599116Y-9880883D01*
X32751460Y-10005909D01*
X32751467Y-10005913D01*
X32925266Y-10098811D01*
X32925269Y-10098811D01*
X32925273Y-10098814D01*
X33113868Y-10156024D01*
X33310000Y-10175341D01*
X33506132Y-10156024D01*
X33694727Y-10098814D01*
X33701300Y-10095301D01*
X33868532Y-10005913D01*
X33868538Y-10005910D01*
X34020883Y-9880883D01*
X34145910Y-9728538D01*
X34224514Y-9581480D01*
X34238811Y-9554733D01*
X34238811Y-9554732D01*
X34238814Y-9554727D01*
X34296024Y-9366132D01*
X34315341Y-9170000D01*
X34306477Y-9080000D01*
X63840000Y-9080000D01*
X63840000Y-9650000D01*
X64420000Y-9650000D01*
X64420149Y-9649850D01*
X64439685Y-9583320D01*
X64492489Y-9537565D01*
X64561647Y-9527621D01*
X64625203Y-9556646D01*
X64654483Y-9594061D01*
X64671950Y-9628342D01*
X64671952Y-9628344D01*
X64671954Y-9628347D01*
X64761652Y-9718045D01*
X64761654Y-9718046D01*
X64761658Y-9718050D01*
X64874696Y-9775646D01*
X64874697Y-9775646D01*
X64874699Y-9775647D01*
X64999997Y-9795492D01*
X65000000Y-9795492D01*
X65000003Y-9795492D01*
X65125300Y-9775647D01*
X65125301Y-9775647D01*
X65125302Y-9775646D01*
X65125304Y-9775646D01*
X65238342Y-9718050D01*
X65328050Y-9628342D01*
X65385646Y-9515304D01*
X65385646Y-9515302D01*
X65385647Y-9515301D01*
X65385647Y-9515300D01*
X65405492Y-9390003D01*
X65405492Y-9389996D01*
X65385647Y-9264699D01*
X65385647Y-9264698D01*
X65385646Y-9264696D01*
X65328050Y-9151658D01*
X65328046Y-9151654D01*
X65328045Y-9151652D01*
X65238347Y-9061954D01*
X65238344Y-9061952D01*
X65238342Y-9061950D01*
X65125304Y-9004354D01*
X65125303Y-9004353D01*
X65125300Y-9004352D01*
X65000003Y-8984508D01*
X64999997Y-8984508D01*
X64874699Y-9004352D01*
X64874698Y-9004352D01*
X64799337Y-9042751D01*
X64761658Y-9061950D01*
X64761657Y-9061951D01*
X64761652Y-9061954D01*
X64671954Y-9151652D01*
X64671949Y-9151659D01*
X64654484Y-9185936D01*
X64606509Y-9236732D01*
X64538688Y-9253526D01*
X64472553Y-9230988D01*
X64429102Y-9176272D01*
X64420000Y-9129640D01*
X64420000Y-9080000D01*
X63840000Y-9080000D01*
X34306477Y-9080000D01*
X34296024Y-8973868D01*
X34238814Y-8785273D01*
X34238811Y-8785269D01*
X34238811Y-8785266D01*
X34145913Y-8611467D01*
X34145909Y-8611460D01*
X34020883Y-8459116D01*
X33868539Y-8334090D01*
X33868532Y-8334086D01*
X33694733Y-8241188D01*
X33694727Y-8241186D01*
X33510632Y-8185341D01*
X33506129Y-8183975D01*
X33310000Y-8164659D01*
X33113870Y-8183975D01*
X32925266Y-8241188D01*
X32751467Y-8334086D01*
X32751460Y-8334090D01*
X32599116Y-8459116D01*
X32474090Y-8611460D01*
X32474086Y-8611467D01*
X32381188Y-8785266D01*
X32323975Y-8973870D01*
X32304659Y-9170000D01*
X31775341Y-9170000D01*
X31756024Y-8973868D01*
X31698814Y-8785273D01*
X31698811Y-8785269D01*
X31698811Y-8785266D01*
X31605913Y-8611467D01*
X31605909Y-8611460D01*
X31480883Y-8459116D01*
X31328539Y-8334090D01*
X31328532Y-8334086D01*
X31154733Y-8241188D01*
X31154727Y-8241186D01*
X30970632Y-8185341D01*
X30966129Y-8183975D01*
X30770000Y-8164659D01*
X30573870Y-8183975D01*
X30385266Y-8241188D01*
X30211467Y-8334086D01*
X30211460Y-8334090D01*
X30059116Y-8459116D01*
X29934090Y-8611460D01*
X29934086Y-8611467D01*
X29841188Y-8785266D01*
X29783975Y-8973870D01*
X29764659Y-9170000D01*
X29235341Y-9170000D01*
X29216024Y-8973868D01*
X29158814Y-8785273D01*
X29158811Y-8785269D01*
X29158811Y-8785266D01*
X29065913Y-8611467D01*
X29065909Y-8611460D01*
X28940883Y-8459116D01*
X28788539Y-8334090D01*
X28788532Y-8334086D01*
X28614733Y-8241188D01*
X28614727Y-8241186D01*
X28430632Y-8185341D01*
X28426129Y-8183975D01*
X28230000Y-8164659D01*
X28033870Y-8183975D01*
X27845266Y-8241188D01*
X27671467Y-8334086D01*
X27671460Y-8334090D01*
X27519116Y-8459116D01*
X27394090Y-8611460D01*
X27394086Y-8611467D01*
X27301188Y-8785266D01*
X27243975Y-8973870D01*
X27224659Y-9170000D01*
X9000000Y-9170000D01*
X9000000Y-5400500D01*
X9052725Y-5400500D01*
X9052727Y-5400500D01*
X9154587Y-5373207D01*
X9245913Y-5320480D01*
X9320480Y-5245913D01*
X9373207Y-5154587D01*
X9400500Y-5052727D01*
X9400500Y-2814996D01*
X64329508Y-2814996D01*
X64329508Y-2815003D01*
X64349352Y-2940300D01*
X64349352Y-2940301D01*
X64349354Y-2940304D01*
X64406950Y-3053342D01*
X64406952Y-3053344D01*
X64406954Y-3053347D01*
X64496652Y-3143045D01*
X64496654Y-3143046D01*
X64496658Y-3143050D01*
X64609696Y-3200646D01*
X64623687Y-3202861D01*
X64686821Y-3232789D01*
X64691972Y-3237654D01*
X66253181Y-4798863D01*
X66286666Y-4860186D01*
X66289500Y-4886544D01*
X66289500Y-9456143D01*
X66313386Y-9545287D01*
X66313387Y-9545290D01*
X66359527Y-9625208D01*
X66359531Y-9625213D01*
X66785954Y-10051636D01*
X66807990Y-10087593D01*
X66809923Y-10086609D01*
X66871949Y-10208340D01*
X66871954Y-10208347D01*
X66961652Y-10298045D01*
X66961654Y-10298046D01*
X66961658Y-10298050D01*
X67074696Y-10355646D01*
X67074697Y-10355646D01*
X67074699Y-10355647D01*
X67199997Y-10375492D01*
X67200000Y-10375492D01*
X67200003Y-10375492D01*
X67325300Y-10355647D01*
X67325301Y-10355647D01*
X67325302Y-10355646D01*
X67325304Y-10355646D01*
X67438342Y-10298050D01*
X67528050Y-10208342D01*
X67585646Y-10095304D01*
X67585646Y-10095302D01*
X67585647Y-10095301D01*
X67585647Y-10095300D01*
X67605492Y-9970003D01*
X67605492Y-9969996D01*
X67585647Y-9844699D01*
X67585647Y-9844698D01*
X67585550Y-9844508D01*
X67528050Y-9731658D01*
X67528046Y-9731654D01*
X67528045Y-9731652D01*
X67438347Y-9641954D01*
X67438343Y-9641951D01*
X67438342Y-9641950D01*
X67405484Y-9625208D01*
X67316609Y-9579923D01*
X67317593Y-9577990D01*
X67281636Y-9555954D01*
X67026819Y-9301137D01*
X66993334Y-9239814D01*
X66990500Y-9213456D01*
X66990500Y-7180000D01*
X82994659Y-7180000D01*
X83013975Y-7376129D01*
X83071188Y-7564733D01*
X83164086Y-7738532D01*
X83164090Y-7738539D01*
X83289116Y-7890883D01*
X83441460Y-8015909D01*
X83441467Y-8015913D01*
X83615266Y-8108811D01*
X83615269Y-8108811D01*
X83615273Y-8108814D01*
X83803868Y-8166024D01*
X84000000Y-8185341D01*
X84196132Y-8166024D01*
X84384727Y-8108814D01*
X84558538Y-8015910D01*
X84710883Y-7890883D01*
X84835910Y-7738538D01*
X84928814Y-7564727D01*
X84986024Y-7376132D01*
X85005341Y-7180000D01*
X84986024Y-6983868D01*
X84928814Y-6795273D01*
X84928811Y-6795269D01*
X84928811Y-6795266D01*
X84835913Y-6621467D01*
X84835909Y-6621460D01*
X84710883Y-6469116D01*
X84558539Y-6344090D01*
X84558532Y-6344086D01*
X84384733Y-6251188D01*
X84384727Y-6251186D01*
X84196132Y-6193976D01*
X84196129Y-6193975D01*
X84000000Y-6174659D01*
X83803870Y-6193975D01*
X83615266Y-6251188D01*
X83441467Y-6344086D01*
X83441460Y-6344090D01*
X83289116Y-6469116D01*
X83164090Y-6621460D01*
X83164086Y-6621467D01*
X83071188Y-6795266D01*
X83013975Y-6983870D01*
X82994659Y-7180000D01*
X66990500Y-7180000D01*
X66990500Y-4643858D01*
X66990500Y-4643856D01*
X66966614Y-4554712D01*
X66920470Y-4474788D01*
X65119229Y-2673547D01*
X65096425Y-2642161D01*
X65063050Y-2576658D01*
X65063046Y-2576654D01*
X65063045Y-2576652D01*
X64973347Y-2486954D01*
X64973344Y-2486952D01*
X64973342Y-2486950D01*
X64860304Y-2429354D01*
X64860303Y-2429353D01*
X64860300Y-2429352D01*
X64735003Y-2409508D01*
X64734997Y-2409508D01*
X64609699Y-2429352D01*
X64609698Y-2429352D01*
X64534337Y-2467751D01*
X64496658Y-2486950D01*
X64496657Y-2486951D01*
X64496652Y-2486954D01*
X64406954Y-2576652D01*
X64406951Y-2576657D01*
X64349352Y-2689698D01*
X64349352Y-2689699D01*
X64329508Y-2814996D01*
X9400500Y-2814996D01*
X9400500Y-524500D01*
X9420185Y-457461D01*
X9472989Y-411706D01*
X9524500Y-400500D01*
X88475500Y-400500D01*
X88542539Y-420185D01*
G37*
%TD.AperFunction*%
%TD*%
%TA.AperFunction,Conductor*%
%TO.N,GND*%
G36*
X9000000Y-24899500D02*
G01*
X6124000Y-24899500D01*
X6056961Y-24879815D01*
X6011206Y-24827011D01*
X6000000Y-24775500D01*
X6000000Y-24274500D01*
X6019685Y-24207461D01*
X6072489Y-24161706D01*
X6124000Y-24150500D01*
X6214822Y-24150500D01*
X6258717Y-24141768D01*
X6258717Y-24141767D01*
X6258722Y-24141767D01*
X6308504Y-24108504D01*
X6341767Y-24058722D01*
X6350500Y-24014820D01*
X6350500Y-23285180D01*
X6350500Y-23285177D01*
X6341768Y-23241282D01*
X6341767Y-23241278D01*
X6326807Y-23218889D01*
X6305930Y-23152214D01*
X6324414Y-23084833D01*
X6326792Y-23081132D01*
X6341767Y-23058722D01*
X6350500Y-23014820D01*
X6350500Y-22285180D01*
X6350500Y-22285177D01*
X6341768Y-22241282D01*
X6341767Y-22241281D01*
X6341767Y-22241278D01*
X6308504Y-22191496D01*
X6308503Y-22191495D01*
X6258724Y-22158234D01*
X6258717Y-22158231D01*
X6214822Y-22149500D01*
X6214820Y-22149500D01*
X6124000Y-22149500D01*
X6056961Y-22129815D01*
X6011206Y-22077011D01*
X6000000Y-22025500D01*
X6000000Y-21274500D01*
X6019685Y-21207461D01*
X6072489Y-21161706D01*
X6124000Y-21150500D01*
X6214822Y-21150500D01*
X6258717Y-21141768D01*
X6258717Y-21141767D01*
X6258722Y-21141767D01*
X6308504Y-21108504D01*
X6341767Y-21058722D01*
X6350500Y-21014820D01*
X6350500Y-20285180D01*
X6350500Y-20285177D01*
X6341768Y-20241282D01*
X6341767Y-20241278D01*
X6326807Y-20218889D01*
X6305930Y-20152214D01*
X6324414Y-20084833D01*
X6326792Y-20081132D01*
X6341767Y-20058722D01*
X6350500Y-20014820D01*
X6350500Y-19285180D01*
X6350500Y-19285177D01*
X6341768Y-19241282D01*
X6341767Y-19241281D01*
X6341767Y-19241278D01*
X6308504Y-19191496D01*
X6308503Y-19191495D01*
X6258724Y-19158234D01*
X6258717Y-19158231D01*
X6214822Y-19149500D01*
X6214820Y-19149500D01*
X6124000Y-19149500D01*
X6056961Y-19129815D01*
X6011206Y-19077011D01*
X6000000Y-19025500D01*
X6000000Y-18624500D01*
X6019685Y-18557461D01*
X6072489Y-18511706D01*
X6124000Y-18500500D01*
X8161905Y-18500500D01*
X8161906Y-18500500D01*
X8382664Y-18463661D01*
X8594349Y-18390990D01*
X8791185Y-18284468D01*
X8967803Y-18147000D01*
X9000000Y-18112024D01*
X9000000Y-24899500D01*
G37*
%TD.AperFunction*%
%TA.AperFunction,Conductor*%
G36*
X9000000Y-16187975D02*
G01*
X8967803Y-16153000D01*
X8967802Y-16152999D01*
X8967800Y-16152997D01*
X8967796Y-16152994D01*
X8791188Y-16015534D01*
X8791179Y-16015528D01*
X8594355Y-15909013D01*
X8594345Y-15909008D01*
X8382666Y-15836339D01*
X8235492Y-15811779D01*
X8161906Y-15799500D01*
X8161905Y-15799500D01*
X7511161Y-15799500D01*
X7444122Y-15779815D01*
X7398367Y-15727011D01*
X7388423Y-15657853D01*
X7388688Y-15656103D01*
X7405492Y-15550003D01*
X7405492Y-15549996D01*
X7385647Y-15424699D01*
X7385647Y-15424698D01*
X7385646Y-15424696D01*
X7328050Y-15311658D01*
X7328046Y-15311654D01*
X7328045Y-15311652D01*
X7238347Y-15221954D01*
X7238344Y-15221952D01*
X7238342Y-15221950D01*
X7125304Y-15164354D01*
X7125303Y-15164353D01*
X7125300Y-15164352D01*
X7000003Y-15144508D01*
X6999997Y-15144508D01*
X6874699Y-15164352D01*
X6874698Y-15164352D01*
X6821427Y-15191496D01*
X6761658Y-15221950D01*
X6761657Y-15221951D01*
X6761652Y-15221954D01*
X6671954Y-15311652D01*
X6671951Y-15311657D01*
X6614352Y-15424698D01*
X6596973Y-15534433D01*
X6567044Y-15597567D01*
X6507733Y-15634499D01*
X6437870Y-15633501D01*
X6379637Y-15594892D01*
X6351523Y-15530928D01*
X6350500Y-15515035D01*
X6350500Y-15285177D01*
X6341768Y-15241282D01*
X6341767Y-15241278D01*
X6328853Y-15221951D01*
X6326807Y-15218889D01*
X6305930Y-15152214D01*
X6324414Y-15084833D01*
X6326792Y-15081132D01*
X6341767Y-15058722D01*
X6350500Y-15014820D01*
X6350500Y-15014813D01*
X6350744Y-15012343D01*
X6351235Y-15011126D01*
X6351689Y-15008845D01*
X6352121Y-15008931D01*
X6376906Y-14947557D01*
X6433942Y-14907199D01*
X6474147Y-14900500D01*
X6599826Y-14900500D01*
X6599828Y-14900500D01*
X6691897Y-14862364D01*
X7412449Y-14141810D01*
X7473772Y-14108326D01*
X7499735Y-14105534D01*
X7625300Y-14085647D01*
X7625301Y-14085647D01*
X7625302Y-14085646D01*
X7625304Y-14085646D01*
X7738342Y-14028050D01*
X7828050Y-13938342D01*
X7885646Y-13825304D01*
X7885646Y-13825302D01*
X7885647Y-13825301D01*
X7885647Y-13825300D01*
X7905492Y-13700003D01*
X7905492Y-13699996D01*
X7885647Y-13574699D01*
X7885647Y-13574698D01*
X7851737Y-13508147D01*
X7828050Y-13461658D01*
X7828046Y-13461654D01*
X7828045Y-13461652D01*
X7738347Y-13371954D01*
X7738344Y-13371952D01*
X7738342Y-13371950D01*
X7625304Y-13314354D01*
X7625303Y-13314353D01*
X7625300Y-13314352D01*
X7500003Y-13294508D01*
X7499997Y-13294508D01*
X7374699Y-13314352D01*
X7374698Y-13314352D01*
X7297330Y-13353773D01*
X7261658Y-13371950D01*
X7261657Y-13371950D01*
X7261653Y-13371953D01*
X7256329Y-13375821D01*
X7190522Y-13399298D01*
X7183448Y-13399500D01*
X6474147Y-13399500D01*
X6407108Y-13379815D01*
X6361353Y-13327011D01*
X6350744Y-13287657D01*
X6350500Y-13285185D01*
X6350500Y-13285180D01*
X6341767Y-13241278D01*
X6326807Y-13218889D01*
X6305930Y-13152214D01*
X6324414Y-13084833D01*
X6326792Y-13081132D01*
X6341767Y-13058722D01*
X6350500Y-13014820D01*
X6350500Y-12285180D01*
X6350500Y-12285177D01*
X6341768Y-12241282D01*
X6341767Y-12241278D01*
X6326807Y-12218889D01*
X6305930Y-12152214D01*
X6324414Y-12084833D01*
X6326792Y-12081132D01*
X6341767Y-12058722D01*
X6350500Y-12014820D01*
X6350500Y-11285180D01*
X6350500Y-11285177D01*
X6341768Y-11241282D01*
X6341767Y-11241278D01*
X6326807Y-11218889D01*
X6305930Y-11152214D01*
X6324414Y-11084833D01*
X6326792Y-11081132D01*
X6341767Y-11058722D01*
X6350500Y-11014820D01*
X6350500Y-10285180D01*
X6350500Y-10285177D01*
X6341768Y-10241282D01*
X6341767Y-10241278D01*
X6326807Y-10218889D01*
X6305930Y-10152214D01*
X6324414Y-10084833D01*
X6326792Y-10081132D01*
X6341767Y-10058722D01*
X6350500Y-10014820D01*
X6350500Y-9285180D01*
X6350500Y-9285177D01*
X6341768Y-9241282D01*
X6341767Y-9241281D01*
X6341767Y-9241278D01*
X6308504Y-9191496D01*
X6308503Y-9191495D01*
X6258724Y-9158234D01*
X6258717Y-9158231D01*
X6214822Y-9149500D01*
X6214820Y-9149500D01*
X6124000Y-9149500D01*
X6056961Y-9129815D01*
X6011206Y-9077011D01*
X6000000Y-9025500D01*
X6000000Y-8274500D01*
X6019685Y-8207461D01*
X6072489Y-8161706D01*
X6124000Y-8150500D01*
X6214822Y-8150500D01*
X6258717Y-8141768D01*
X6258717Y-8141767D01*
X6258722Y-8141767D01*
X6289207Y-8121397D01*
X6355884Y-8100520D01*
X6358097Y-8100500D01*
X6512066Y-8100500D01*
X6579105Y-8120185D01*
X6605778Y-8143297D01*
X6639418Y-8182119D01*
X6639430Y-8182133D01*
X6639442Y-8182146D01*
X6644420Y-8187621D01*
X6644422Y-8187623D01*
X6713145Y-8229513D01*
X6713150Y-8229516D01*
X6780189Y-8249201D01*
X6824000Y-8255500D01*
X6824003Y-8255500D01*
X8365991Y-8255500D01*
X8366000Y-8255500D01*
X8399055Y-8251946D01*
X8450566Y-8240740D01*
X8519342Y-8206313D01*
X8572146Y-8160558D01*
X8577621Y-8155580D01*
X8619516Y-8086850D01*
X8639201Y-8019811D01*
X8645500Y-7976000D01*
X8645500Y-5524500D01*
X8665185Y-5457461D01*
X8717989Y-5411706D01*
X8769500Y-5400500D01*
X9000000Y-5400500D01*
X9000000Y-16187975D01*
G37*
%TD.AperFunction*%
%TD*%
%TA.AperFunction,Conductor*%
%TO.N,/VIN_PREFUSE*%
G36*
X8433039Y-5420185D02*
G01*
X8478794Y-5472989D01*
X8490000Y-5524500D01*
X8490000Y-7976000D01*
X8470315Y-8043039D01*
X8417511Y-8088794D01*
X8366000Y-8100000D01*
X6824000Y-8100000D01*
X6756961Y-8080315D01*
X6711206Y-8027511D01*
X6700000Y-7976000D01*
X6700000Y-7900000D01*
X6000000Y-7900000D01*
X6000000Y-7400000D01*
X6700000Y-7400000D01*
X6700000Y-7252172D01*
X6699999Y-7252155D01*
X6693597Y-7192622D01*
X6691813Y-7185067D01*
X6693250Y-7184727D01*
X6688874Y-7123658D01*
X6693364Y-7108366D01*
X6693597Y-7107377D01*
X6699999Y-7047844D01*
X6700000Y-7047827D01*
X6700000Y-6900000D01*
X6000000Y-6900000D01*
X6000000Y-6400000D01*
X6700000Y-6400000D01*
X6700000Y-6252172D01*
X6699999Y-6252155D01*
X6693597Y-6192622D01*
X6691813Y-6185067D01*
X6693250Y-6184727D01*
X6688874Y-6123658D01*
X6693364Y-6108366D01*
X6693597Y-6107377D01*
X6699999Y-6047844D01*
X6700000Y-6047827D01*
X6700000Y-5900000D01*
X6000000Y-5900000D01*
X6000000Y-5400500D01*
X8366000Y-5400500D01*
X8433039Y-5420185D01*
G37*
%TD.AperFunction*%
%TD*%
%TA.AperFunction,Conductor*%
%TO.N,/EMI_VIN*%
G36*
X62655677Y-9999685D02*
G01*
X62676319Y-10016319D01*
X63630000Y-10970000D01*
X65426000Y-10970000D01*
X65493039Y-10989685D01*
X65538794Y-11042489D01*
X65550000Y-11094000D01*
X65550000Y-11616000D01*
X65530315Y-11683039D01*
X65477511Y-11728794D01*
X65426000Y-11740000D01*
X62491362Y-11740000D01*
X62424323Y-11720315D01*
X62403681Y-11703681D01*
X61800000Y-11100000D01*
X58914000Y-11100000D01*
X58846961Y-11080315D01*
X58801206Y-11027511D01*
X58790000Y-10976000D01*
X58790000Y-10381362D01*
X58809685Y-10314323D01*
X58826319Y-10293681D01*
X59103681Y-10016319D01*
X59165004Y-9982834D01*
X59191362Y-9980000D01*
X62588638Y-9980000D01*
X62655677Y-9999685D01*
G37*
%TD.AperFunction*%
%TD*%
%TA.AperFunction,Conductor*%
%TO.N,GNDUSB*%
G36*
X88542539Y-11009685D02*
G01*
X88588294Y-11062489D01*
X88599500Y-11114000D01*
X88599500Y-24775500D01*
X88579815Y-24842539D01*
X88527011Y-24888294D01*
X88475500Y-24899500D01*
X46144000Y-24899500D01*
X46076961Y-24879815D01*
X46031206Y-24827011D01*
X46020000Y-24775500D01*
X46020000Y-23499996D01*
X74894508Y-23499996D01*
X74894508Y-23500003D01*
X74914352Y-23625300D01*
X74914352Y-23625301D01*
X74914354Y-23625304D01*
X74971950Y-23738342D01*
X74971952Y-23738344D01*
X74971954Y-23738347D01*
X75061652Y-23828045D01*
X75061654Y-23828046D01*
X75061658Y-23828050D01*
X75174696Y-23885646D01*
X75174697Y-23885646D01*
X75174699Y-23885647D01*
X75299997Y-23905492D01*
X75300000Y-23905492D01*
X75300003Y-23905492D01*
X75425300Y-23885647D01*
X75425301Y-23885647D01*
X75425302Y-23885646D01*
X75425304Y-23885646D01*
X75538342Y-23828050D01*
X75628050Y-23738342D01*
X75685646Y-23625304D01*
X75685646Y-23625302D01*
X75685647Y-23625301D01*
X75685647Y-23625300D01*
X75705492Y-23500003D01*
X75705492Y-23499996D01*
X75685647Y-23374699D01*
X75685647Y-23374698D01*
X75669840Y-23343675D01*
X75628050Y-23261658D01*
X75628046Y-23261654D01*
X75628045Y-23261652D01*
X75538347Y-23171954D01*
X75538344Y-23171952D01*
X75538342Y-23171950D01*
X75425304Y-23114354D01*
X75425303Y-23114353D01*
X75425300Y-23114352D01*
X75300003Y-23094508D01*
X75299997Y-23094508D01*
X75174699Y-23114352D01*
X75174698Y-23114352D01*
X75099337Y-23152751D01*
X75061658Y-23171950D01*
X75061657Y-23171951D01*
X75061652Y-23171954D01*
X74971954Y-23261652D01*
X74971951Y-23261657D01*
X74914352Y-23374698D01*
X74914352Y-23374699D01*
X74894508Y-23499996D01*
X46020000Y-23499996D01*
X46020000Y-23400000D01*
X50400000Y-23400000D01*
X51200000Y-23400000D01*
X51200000Y-22600000D01*
X50400000Y-22600000D01*
X50400000Y-23400000D01*
X46020000Y-23400000D01*
X46020000Y-22439996D01*
X76474508Y-22439996D01*
X76474508Y-22440003D01*
X76494352Y-22565300D01*
X76494352Y-22565301D01*
X76500120Y-22576621D01*
X76551950Y-22678342D01*
X76551952Y-22678344D01*
X76551954Y-22678347D01*
X76641652Y-22768045D01*
X76641654Y-22768046D01*
X76641658Y-22768050D01*
X76754696Y-22825646D01*
X76754697Y-22825646D01*
X76754699Y-22825647D01*
X76879997Y-22845492D01*
X76880000Y-22845492D01*
X76880003Y-22845492D01*
X77005300Y-22825647D01*
X77005301Y-22825647D01*
X77005302Y-22825646D01*
X77005304Y-22825646D01*
X77118342Y-22768050D01*
X77208050Y-22678342D01*
X77265646Y-22565304D01*
X77265646Y-22565302D01*
X77265647Y-22565301D01*
X77265647Y-22565300D01*
X77284116Y-22448690D01*
X78313277Y-22448690D01*
X78313277Y-22448697D01*
X78333121Y-22573994D01*
X78333121Y-22573995D01*
X78333123Y-22573998D01*
X78390719Y-22687036D01*
X78390721Y-22687038D01*
X78390723Y-22687041D01*
X78480421Y-22776739D01*
X78480423Y-22776740D01*
X78480427Y-22776744D01*
X78593465Y-22834340D01*
X78593466Y-22834340D01*
X78593468Y-22834341D01*
X78718766Y-22854186D01*
X78718769Y-22854186D01*
X78718772Y-22854186D01*
X78844069Y-22834341D01*
X78844071Y-22834340D01*
X78844073Y-22834340D01*
X78890630Y-22810617D01*
X78959298Y-22797721D01*
X79024039Y-22823997D01*
X79064296Y-22881103D01*
X79067289Y-22950908D01*
X79057411Y-22977394D01*
X79056069Y-22980027D01*
X79056067Y-22980032D01*
X79036223Y-23105329D01*
X79036223Y-23105336D01*
X79056067Y-23230633D01*
X79056067Y-23230634D01*
X79071875Y-23261658D01*
X79113665Y-23343675D01*
X79113667Y-23343677D01*
X79113669Y-23343680D01*
X79203367Y-23433378D01*
X79203369Y-23433379D01*
X79203373Y-23433383D01*
X79316411Y-23490979D01*
X79316412Y-23490979D01*
X79316414Y-23490980D01*
X79441712Y-23510825D01*
X79441715Y-23510825D01*
X79441718Y-23510825D01*
X79510090Y-23499996D01*
X80594508Y-23499996D01*
X80594508Y-23500003D01*
X80614352Y-23625300D01*
X80614352Y-23625301D01*
X80614354Y-23625304D01*
X80671950Y-23738342D01*
X80671952Y-23738344D01*
X80671954Y-23738347D01*
X80761652Y-23828045D01*
X80761654Y-23828046D01*
X80761658Y-23828050D01*
X80874696Y-23885646D01*
X80874697Y-23885646D01*
X80874699Y-23885647D01*
X80999997Y-23905492D01*
X81000000Y-23905492D01*
X81000003Y-23905492D01*
X81125300Y-23885647D01*
X81125301Y-23885647D01*
X81125302Y-23885646D01*
X81125304Y-23885646D01*
X81238342Y-23828050D01*
X81328050Y-23738342D01*
X81385646Y-23625304D01*
X81385646Y-23625302D01*
X81385647Y-23625301D01*
X81385647Y-23625300D01*
X81405492Y-23500003D01*
X81405492Y-23499996D01*
X81385647Y-23374699D01*
X81385647Y-23374698D01*
X81369840Y-23343675D01*
X81328050Y-23261658D01*
X81328046Y-23261654D01*
X81328045Y-23261652D01*
X81238347Y-23171954D01*
X81238344Y-23171952D01*
X81238342Y-23171950D01*
X81125304Y-23114354D01*
X81125303Y-23114353D01*
X81125300Y-23114352D01*
X81000003Y-23094508D01*
X80999997Y-23094508D01*
X80874699Y-23114352D01*
X80874698Y-23114352D01*
X80799337Y-23152751D01*
X80761658Y-23171950D01*
X80761657Y-23171951D01*
X80761652Y-23171954D01*
X80671954Y-23261652D01*
X80671951Y-23261657D01*
X80614352Y-23374698D01*
X80614352Y-23374699D01*
X80594508Y-23499996D01*
X79510090Y-23499996D01*
X79567015Y-23490980D01*
X79567016Y-23490980D01*
X79567017Y-23490979D01*
X79567019Y-23490979D01*
X79680057Y-23433383D01*
X79769765Y-23343675D01*
X79827361Y-23230637D01*
X79827361Y-23230635D01*
X79827362Y-23230634D01*
X79827362Y-23230633D01*
X79847207Y-23105336D01*
X79847207Y-23105329D01*
X79827362Y-22980032D01*
X79827362Y-22980031D01*
X79812523Y-22950908D01*
X79769765Y-22866991D01*
X79769761Y-22866987D01*
X79769760Y-22866985D01*
X79680062Y-22777287D01*
X79680059Y-22777285D01*
X79680057Y-22777283D01*
X79567019Y-22719687D01*
X79567018Y-22719686D01*
X79567015Y-22719685D01*
X79441718Y-22699841D01*
X79441712Y-22699841D01*
X79316414Y-22719685D01*
X79316410Y-22719687D01*
X79269852Y-22743409D01*
X79201182Y-22756305D01*
X79136442Y-22730028D01*
X79096186Y-22672921D01*
X79093194Y-22603115D01*
X79103076Y-22576624D01*
X79104415Y-22573998D01*
X79105792Y-22565304D01*
X79124261Y-22448697D01*
X79124261Y-22448690D01*
X79104416Y-22323393D01*
X79104415Y-22323391D01*
X79104415Y-22323390D01*
X79046819Y-22210352D01*
X79046815Y-22210348D01*
X79046814Y-22210346D01*
X78957116Y-22120648D01*
X78957113Y-22120646D01*
X78957111Y-22120644D01*
X78844073Y-22063048D01*
X78844072Y-22063047D01*
X78844069Y-22063046D01*
X78718772Y-22043202D01*
X78718766Y-22043202D01*
X78593468Y-22063046D01*
X78593467Y-22063046D01*
X78523555Y-22098669D01*
X78480427Y-22120644D01*
X78480426Y-22120645D01*
X78480421Y-22120648D01*
X78390723Y-22210346D01*
X78390720Y-22210351D01*
X78390719Y-22210352D01*
X78361349Y-22267991D01*
X78333121Y-22323393D01*
X78313277Y-22448690D01*
X77284116Y-22448690D01*
X77285492Y-22440003D01*
X77285492Y-22439997D01*
X77270480Y-22345216D01*
X77279435Y-22275922D01*
X77324431Y-22222471D01*
X77373551Y-22203345D01*
X77485304Y-22185646D01*
X77598342Y-22128050D01*
X77688050Y-22038342D01*
X77745646Y-21925304D01*
X77745646Y-21925302D01*
X77745647Y-21925301D01*
X77745647Y-21925300D01*
X77763118Y-21814994D01*
X79164508Y-21814994D01*
X79164508Y-21815001D01*
X79184352Y-21940298D01*
X79184352Y-21940299D01*
X79196468Y-21964077D01*
X79241950Y-22053340D01*
X79241952Y-22053342D01*
X79241954Y-22053345D01*
X79331652Y-22143043D01*
X79331654Y-22143044D01*
X79331658Y-22143048D01*
X79444696Y-22200644D01*
X79444697Y-22200644D01*
X79444699Y-22200645D01*
X79569997Y-22220490D01*
X79570000Y-22220490D01*
X79570003Y-22220490D01*
X79695300Y-22200645D01*
X79695301Y-22200645D01*
X79695302Y-22200644D01*
X79695304Y-22200644D01*
X79808342Y-22143048D01*
X79898050Y-22053340D01*
X79955646Y-21940302D01*
X79955646Y-21940300D01*
X79955647Y-21940299D01*
X79955647Y-21940298D01*
X79975492Y-21815001D01*
X79975492Y-21814994D01*
X79955647Y-21689697D01*
X79955647Y-21689696D01*
X79955646Y-21689694D01*
X79898050Y-21576656D01*
X79898046Y-21576652D01*
X79898045Y-21576650D01*
X79808347Y-21486952D01*
X79808344Y-21486950D01*
X79808342Y-21486948D01*
X79695304Y-21429352D01*
X79695303Y-21429351D01*
X79695300Y-21429350D01*
X79570003Y-21409506D01*
X79569997Y-21409506D01*
X79444699Y-21429350D01*
X79444698Y-21429350D01*
X79369337Y-21467749D01*
X79331658Y-21486948D01*
X79331657Y-21486949D01*
X79331652Y-21486952D01*
X79241954Y-21576650D01*
X79241951Y-21576655D01*
X79184352Y-21689696D01*
X79184352Y-21689697D01*
X79164508Y-21814994D01*
X77763118Y-21814994D01*
X77765492Y-21800003D01*
X77765492Y-21799996D01*
X77745647Y-21674699D01*
X77745647Y-21674698D01*
X77744247Y-21671950D01*
X77688050Y-21561658D01*
X77688046Y-21561654D01*
X77688045Y-21561652D01*
X77598347Y-21471954D01*
X77598344Y-21471952D01*
X77598342Y-21471950D01*
X77485304Y-21414354D01*
X77485303Y-21414353D01*
X77485300Y-21414352D01*
X77360003Y-21394508D01*
X77359997Y-21394508D01*
X77234699Y-21414352D01*
X77234698Y-21414352D01*
X77159337Y-21452751D01*
X77121658Y-21471950D01*
X77121657Y-21471951D01*
X77121652Y-21471954D01*
X77031954Y-21561652D01*
X77031951Y-21561657D01*
X76974352Y-21674698D01*
X76974352Y-21674699D01*
X76954508Y-21799996D01*
X76954508Y-21799997D01*
X76954508Y-21800000D01*
X76965799Y-21871293D01*
X76969520Y-21894784D01*
X76960564Y-21964077D01*
X76915567Y-22017529D01*
X76866444Y-22036654D01*
X76754698Y-22054352D01*
X76679337Y-22092751D01*
X76641658Y-22111950D01*
X76641657Y-22111951D01*
X76641652Y-22111954D01*
X76551954Y-22201652D01*
X76551951Y-22201657D01*
X76551950Y-22201658D01*
X76542355Y-22220490D01*
X76494352Y-22314698D01*
X76494352Y-22314699D01*
X76474508Y-22439996D01*
X46020000Y-22439996D01*
X46020000Y-21384071D01*
X80894499Y-21384071D01*
X80919497Y-21509738D01*
X80919499Y-21509744D01*
X80968533Y-21628124D01*
X80968538Y-21628133D01*
X81039723Y-21734668D01*
X81039726Y-21734672D01*
X81130327Y-21825273D01*
X81130331Y-21825276D01*
X81236866Y-21896461D01*
X81236872Y-21896464D01*
X81236873Y-21896465D01*
X81355256Y-21945501D01*
X81355260Y-21945501D01*
X81355261Y-21945502D01*
X81480928Y-21970500D01*
X81480931Y-21970500D01*
X82709071Y-21970500D01*
X82793615Y-21953682D01*
X82834744Y-21945501D01*
X82953127Y-21896465D01*
X83059669Y-21825276D01*
X83150276Y-21734669D01*
X83221465Y-21628127D01*
X83270501Y-21509744D01*
X83278682Y-21468615D01*
X83295500Y-21384071D01*
X85324499Y-21384071D01*
X85349497Y-21509738D01*
X85349499Y-21509744D01*
X85398533Y-21628124D01*
X85398538Y-21628133D01*
X85469723Y-21734668D01*
X85469726Y-21734672D01*
X85560327Y-21825273D01*
X85560331Y-21825276D01*
X85666866Y-21896461D01*
X85666872Y-21896464D01*
X85666873Y-21896465D01*
X85785256Y-21945501D01*
X85785260Y-21945501D01*
X85785261Y-21945502D01*
X85910928Y-21970500D01*
X85910931Y-21970500D01*
X86639071Y-21970500D01*
X86723615Y-21953682D01*
X86764744Y-21945501D01*
X86883127Y-21896465D01*
X86989669Y-21825276D01*
X87080276Y-21734669D01*
X87151465Y-21628127D01*
X87200501Y-21509744D01*
X87208682Y-21468615D01*
X87225500Y-21384071D01*
X87225500Y-21255928D01*
X87200502Y-21130261D01*
X87200501Y-21130260D01*
X87200501Y-21130256D01*
X87151465Y-21011873D01*
X87151464Y-21011872D01*
X87151461Y-21011866D01*
X87080276Y-20905331D01*
X87080273Y-20905327D01*
X86989672Y-20814726D01*
X86989668Y-20814723D01*
X86883133Y-20743538D01*
X86883124Y-20743533D01*
X86764744Y-20694499D01*
X86764738Y-20694497D01*
X86639071Y-20669500D01*
X86639069Y-20669500D01*
X85910931Y-20669500D01*
X85910929Y-20669500D01*
X85785261Y-20694497D01*
X85785255Y-20694499D01*
X85666875Y-20743533D01*
X85666866Y-20743538D01*
X85560331Y-20814723D01*
X85560327Y-20814726D01*
X85469726Y-20905327D01*
X85469723Y-20905331D01*
X85398538Y-21011866D01*
X85398533Y-21011875D01*
X85349499Y-21130255D01*
X85349497Y-21130261D01*
X85324500Y-21255928D01*
X85324500Y-21255931D01*
X85324500Y-21384069D01*
X85324500Y-21384071D01*
X85324499Y-21384071D01*
X83295500Y-21384071D01*
X83295500Y-21255928D01*
X83270502Y-21130261D01*
X83270501Y-21130260D01*
X83270501Y-21130256D01*
X83221465Y-21011873D01*
X83221464Y-21011872D01*
X83221461Y-21011866D01*
X83150276Y-20905331D01*
X83150273Y-20905327D01*
X83059672Y-20814726D01*
X83059668Y-20814723D01*
X82953133Y-20743538D01*
X82953124Y-20743533D01*
X82834744Y-20694499D01*
X82834739Y-20694497D01*
X82771711Y-20681960D01*
X82709801Y-20649574D01*
X82675227Y-20588858D01*
X82678968Y-20519089D01*
X82719835Y-20462417D01*
X82763808Y-20440569D01*
X82817135Y-20426281D01*
X82948365Y-20350515D01*
X83055515Y-20243365D01*
X83131281Y-20112135D01*
X83170500Y-19965766D01*
X83170500Y-19814234D01*
X83131281Y-19667865D01*
X83055515Y-19536635D01*
X82948365Y-19429485D01*
X82872434Y-19385646D01*
X82817136Y-19353719D01*
X82721336Y-19328050D01*
X82670766Y-19314500D01*
X82519234Y-19314500D01*
X82372863Y-19353719D01*
X82241635Y-19429485D01*
X82241632Y-19429487D01*
X82134487Y-19536632D01*
X82134485Y-19536635D01*
X82058719Y-19667863D01*
X82019500Y-19814234D01*
X82019500Y-19965765D01*
X82058719Y-20112136D01*
X82096602Y-20177750D01*
X82134485Y-20243365D01*
X82241635Y-20350515D01*
X82372863Y-20426280D01*
X82372865Y-20426281D01*
X82380369Y-20429389D01*
X82379650Y-20431124D01*
X82430453Y-20462091D01*
X82460981Y-20524938D01*
X82452686Y-20594314D01*
X82408200Y-20648191D01*
X82341648Y-20669465D01*
X82338698Y-20669500D01*
X81480929Y-20669500D01*
X81355261Y-20694497D01*
X81355255Y-20694499D01*
X81236875Y-20743533D01*
X81236866Y-20743538D01*
X81130331Y-20814723D01*
X81130327Y-20814726D01*
X81039726Y-20905327D01*
X81039723Y-20905331D01*
X80968538Y-21011866D01*
X80968533Y-21011875D01*
X80919499Y-21130255D01*
X80919497Y-21130261D01*
X80894500Y-21255928D01*
X80894500Y-21255931D01*
X80894500Y-21384069D01*
X80894500Y-21384071D01*
X80894499Y-21384071D01*
X46020000Y-21384071D01*
X46020000Y-19854000D01*
X46039685Y-19786961D01*
X46092489Y-19741206D01*
X46144000Y-19730000D01*
X53550000Y-19730000D01*
X54463681Y-18816319D01*
X54525004Y-18782834D01*
X54551362Y-18780000D01*
X74028638Y-18780000D01*
X74075845Y-18793861D01*
X74077213Y-18790561D01*
X74100000Y-18800000D01*
X74110000Y-18800000D01*
X75160004Y-17749996D01*
X80274508Y-17749996D01*
X80274508Y-17750003D01*
X80294352Y-17875300D01*
X80294352Y-17875301D01*
X80294354Y-17875304D01*
X80351950Y-17988342D01*
X80351952Y-17988344D01*
X80351954Y-17988347D01*
X80441652Y-18078045D01*
X80441654Y-18078046D01*
X80441658Y-18078050D01*
X80554696Y-18135646D01*
X80554697Y-18135646D01*
X80554699Y-18135647D01*
X80679997Y-18155492D01*
X80680000Y-18155492D01*
X80680003Y-18155492D01*
X80805300Y-18135647D01*
X80805301Y-18135647D01*
X80805302Y-18135646D01*
X80805304Y-18135646D01*
X80918342Y-18078050D01*
X81008050Y-17988342D01*
X81065646Y-17875304D01*
X81065646Y-17875302D01*
X81065647Y-17875301D01*
X81065647Y-17875300D01*
X81085492Y-17750003D01*
X81085492Y-17749996D01*
X81065647Y-17624699D01*
X81065647Y-17624698D01*
X81042027Y-17578342D01*
X81008050Y-17511658D01*
X81008046Y-17511654D01*
X81008045Y-17511652D01*
X80918347Y-17421954D01*
X80918344Y-17421952D01*
X80918342Y-17421950D01*
X80805304Y-17364354D01*
X80805303Y-17364353D01*
X80805300Y-17364352D01*
X80680003Y-17344508D01*
X80679997Y-17344508D01*
X80554699Y-17364352D01*
X80554698Y-17364352D01*
X80493953Y-17395304D01*
X80441658Y-17421950D01*
X80441657Y-17421951D01*
X80441652Y-17421954D01*
X80351954Y-17511652D01*
X80351951Y-17511657D01*
X80294352Y-17624698D01*
X80294352Y-17624699D01*
X80274508Y-17749996D01*
X75160004Y-17749996D01*
X75660004Y-17249996D01*
X81994508Y-17249996D01*
X81994508Y-17250003D01*
X82014352Y-17375300D01*
X82014352Y-17375301D01*
X82032805Y-17411517D01*
X82071950Y-17488342D01*
X82071952Y-17488344D01*
X82071954Y-17488347D01*
X82161652Y-17578045D01*
X82161655Y-17578047D01*
X82161658Y-17578050D01*
X82200910Y-17598050D01*
X82282290Y-17639516D01*
X82333085Y-17687490D01*
X82349880Y-17755311D01*
X82327342Y-17821446D01*
X82282290Y-17860484D01*
X82161659Y-17921949D01*
X82161652Y-17921954D01*
X82071954Y-18011652D01*
X82071951Y-18011657D01*
X82014352Y-18124698D01*
X82014352Y-18124699D01*
X81994508Y-18249996D01*
X81994508Y-18250003D01*
X82014352Y-18375300D01*
X82014352Y-18375301D01*
X82014354Y-18375304D01*
X82071950Y-18488342D01*
X82071952Y-18488344D01*
X82071954Y-18488347D01*
X82161652Y-18578045D01*
X82161654Y-18578046D01*
X82161658Y-18578050D01*
X82274696Y-18635646D01*
X82274697Y-18635646D01*
X82274699Y-18635647D01*
X82399997Y-18655492D01*
X82400000Y-18655492D01*
X82400003Y-18655492D01*
X82525300Y-18635647D01*
X82525301Y-18635647D01*
X82525302Y-18635646D01*
X82525304Y-18635646D01*
X82638342Y-18578050D01*
X82728050Y-18488342D01*
X82785646Y-18375304D01*
X82785646Y-18375302D01*
X82785647Y-18375301D01*
X82785647Y-18375300D01*
X82805492Y-18250003D01*
X82805492Y-18249996D01*
X82785647Y-18124699D01*
X82785647Y-18124698D01*
X82770441Y-18094855D01*
X82728050Y-18011658D01*
X82728046Y-18011654D01*
X82728045Y-18011652D01*
X82638347Y-17921954D01*
X82638344Y-17921952D01*
X82638342Y-17921950D01*
X82525304Y-17864354D01*
X82525302Y-17864353D01*
X82517710Y-17860485D01*
X82466914Y-17812510D01*
X82450119Y-17744689D01*
X82472657Y-17678554D01*
X82517710Y-17639515D01*
X82525302Y-17635646D01*
X82525304Y-17635646D01*
X82638342Y-17578050D01*
X82728050Y-17488342D01*
X82785646Y-17375304D01*
X82785646Y-17375302D01*
X82785647Y-17375301D01*
X82785647Y-17375300D01*
X82805492Y-17250003D01*
X82805492Y-17249996D01*
X82785647Y-17124699D01*
X82785647Y-17124698D01*
X82773907Y-17101658D01*
X82728050Y-17011658D01*
X82728046Y-17011654D01*
X82728045Y-17011652D01*
X82638347Y-16921954D01*
X82638344Y-16921952D01*
X82638342Y-16921950D01*
X82525304Y-16864354D01*
X82525303Y-16864353D01*
X82525300Y-16864352D01*
X82400003Y-16844508D01*
X82399997Y-16844508D01*
X82274699Y-16864352D01*
X82274698Y-16864352D01*
X82204737Y-16900000D01*
X82161658Y-16921950D01*
X82161657Y-16921951D01*
X82161652Y-16921954D01*
X82071954Y-17011652D01*
X82071951Y-17011657D01*
X82071950Y-17011658D01*
X82057254Y-17040500D01*
X82014352Y-17124698D01*
X82014352Y-17124699D01*
X81994508Y-17249996D01*
X75660004Y-17249996D01*
X76540000Y-16370000D01*
X76540000Y-12744071D01*
X80894499Y-12744071D01*
X80919497Y-12869738D01*
X80919499Y-12869744D01*
X80968533Y-12988124D01*
X80968538Y-12988133D01*
X81039723Y-13094668D01*
X81039726Y-13094672D01*
X81130327Y-13185273D01*
X81130331Y-13185276D01*
X81236866Y-13256461D01*
X81236872Y-13256464D01*
X81236873Y-13256465D01*
X81355256Y-13305501D01*
X81355260Y-13305501D01*
X81355261Y-13305502D01*
X81480928Y-13330500D01*
X82338698Y-13330500D01*
X82405737Y-13350185D01*
X82451492Y-13402989D01*
X82461436Y-13472147D01*
X82432411Y-13535703D01*
X82379890Y-13569455D01*
X82380369Y-13570611D01*
X82373966Y-13573262D01*
X82373633Y-13573477D01*
X82373061Y-13573637D01*
X82372865Y-13573718D01*
X82241635Y-13649485D01*
X82241632Y-13649487D01*
X82134487Y-13756632D01*
X82134485Y-13756635D01*
X82058719Y-13887863D01*
X82019500Y-14034234D01*
X82019500Y-14185765D01*
X82058719Y-14332136D01*
X82089614Y-14385646D01*
X82134485Y-14463365D01*
X82241635Y-14570515D01*
X82321323Y-14616523D01*
X82344880Y-14630124D01*
X82393096Y-14680691D01*
X82406318Y-14749298D01*
X82380350Y-14814163D01*
X82323436Y-14854691D01*
X82302280Y-14859984D01*
X82274698Y-14864353D01*
X82274696Y-14864353D01*
X82274696Y-14864354D01*
X82161658Y-14921950D01*
X82161657Y-14921951D01*
X82161652Y-14921954D01*
X82071954Y-15011652D01*
X82071951Y-15011657D01*
X82071950Y-15011658D01*
X82052751Y-15049337D01*
X82014352Y-15124698D01*
X82014352Y-15124699D01*
X81994508Y-15249996D01*
X81994508Y-15250003D01*
X82014352Y-15375300D01*
X82014352Y-15375301D01*
X82014354Y-15375304D01*
X82071950Y-15488342D01*
X82071952Y-15488344D01*
X82071954Y-15488347D01*
X82161652Y-15578045D01*
X82161654Y-15578046D01*
X82161658Y-15578050D01*
X82274696Y-15635646D01*
X82274697Y-15635646D01*
X82274699Y-15635647D01*
X82399997Y-15655492D01*
X82400000Y-15655492D01*
X82400003Y-15655492D01*
X82525300Y-15635647D01*
X82525301Y-15635647D01*
X82525302Y-15635646D01*
X82525304Y-15635646D01*
X82638342Y-15578050D01*
X82728050Y-15488342D01*
X82785646Y-15375304D01*
X82785646Y-15375302D01*
X82785647Y-15375301D01*
X82785647Y-15375300D01*
X82805492Y-15250003D01*
X82805492Y-15249996D01*
X82785647Y-15124699D01*
X82785647Y-15124698D01*
X82785646Y-15124696D01*
X82728050Y-15011658D01*
X82728046Y-15011654D01*
X82728045Y-15011652D01*
X82638347Y-14921954D01*
X82638343Y-14921951D01*
X82638342Y-14921950D01*
X82632041Y-14918739D01*
X82581247Y-14870765D01*
X82564452Y-14802944D01*
X82586990Y-14736810D01*
X82641705Y-14693359D01*
X82662954Y-14687746D01*
X82662916Y-14687603D01*
X82670765Y-14685500D01*
X82670766Y-14685500D01*
X82817135Y-14646281D01*
X82948365Y-14570515D01*
X83055515Y-14463365D01*
X83131281Y-14332135D01*
X83170500Y-14185766D01*
X83170500Y-14034234D01*
X83131281Y-13887865D01*
X83055515Y-13756635D01*
X82948365Y-13649485D01*
X82817135Y-13573719D01*
X82763809Y-13559430D01*
X82704150Y-13523066D01*
X82673621Y-13460219D01*
X82681916Y-13390843D01*
X82726401Y-13336965D01*
X82771713Y-13318039D01*
X82772698Y-13317842D01*
X82834744Y-13305501D01*
X82953127Y-13256465D01*
X83059669Y-13185276D01*
X83150276Y-13094669D01*
X83221465Y-12988127D01*
X83270501Y-12869744D01*
X83295500Y-12744071D01*
X85324499Y-12744071D01*
X85349497Y-12869738D01*
X85349499Y-12869744D01*
X85398533Y-12988124D01*
X85398538Y-12988133D01*
X85469723Y-13094668D01*
X85469726Y-13094672D01*
X85560327Y-13185273D01*
X85560331Y-13185276D01*
X85666866Y-13256461D01*
X85666872Y-13256464D01*
X85666873Y-13256465D01*
X85785256Y-13305501D01*
X85785260Y-13305501D01*
X85785261Y-13305502D01*
X85910928Y-13330500D01*
X85910931Y-13330500D01*
X86639071Y-13330500D01*
X86723615Y-13313682D01*
X86764744Y-13305501D01*
X86883127Y-13256465D01*
X86989669Y-13185276D01*
X87080276Y-13094669D01*
X87151465Y-12988127D01*
X87200501Y-12869744D01*
X87225500Y-12744069D01*
X87225500Y-12615931D01*
X87225500Y-12615928D01*
X87200502Y-12490261D01*
X87200501Y-12490260D01*
X87200501Y-12490256D01*
X87151465Y-12371873D01*
X87151464Y-12371872D01*
X87151461Y-12371866D01*
X87080276Y-12265331D01*
X87080273Y-12265327D01*
X86989672Y-12174726D01*
X86989668Y-12174723D01*
X86883133Y-12103538D01*
X86883124Y-12103533D01*
X86764744Y-12054499D01*
X86764738Y-12054497D01*
X86639071Y-12029500D01*
X86639069Y-12029500D01*
X85910931Y-12029500D01*
X85910929Y-12029500D01*
X85785261Y-12054497D01*
X85785255Y-12054499D01*
X85666875Y-12103533D01*
X85666866Y-12103538D01*
X85560331Y-12174723D01*
X85560327Y-12174726D01*
X85469726Y-12265327D01*
X85469723Y-12265331D01*
X85398538Y-12371866D01*
X85398533Y-12371875D01*
X85349499Y-12490255D01*
X85349497Y-12490261D01*
X85324500Y-12615928D01*
X85324500Y-12615931D01*
X85324500Y-12744069D01*
X85324500Y-12744071D01*
X85324499Y-12744071D01*
X83295500Y-12744071D01*
X83295500Y-12744069D01*
X83295500Y-12615931D01*
X83295500Y-12615928D01*
X83270502Y-12490261D01*
X83270501Y-12490260D01*
X83270501Y-12490256D01*
X83221465Y-12371873D01*
X83221464Y-12371872D01*
X83221461Y-12371866D01*
X83150276Y-12265331D01*
X83150273Y-12265327D01*
X83059672Y-12174726D01*
X83059668Y-12174723D01*
X82953133Y-12103538D01*
X82953124Y-12103533D01*
X82834744Y-12054499D01*
X82834738Y-12054497D01*
X82709071Y-12029500D01*
X82709069Y-12029500D01*
X81480931Y-12029500D01*
X81480929Y-12029500D01*
X81355261Y-12054497D01*
X81355255Y-12054499D01*
X81236875Y-12103533D01*
X81236866Y-12103538D01*
X81130331Y-12174723D01*
X81130327Y-12174726D01*
X81039726Y-12265327D01*
X81039723Y-12265331D01*
X80968538Y-12371866D01*
X80968533Y-12371875D01*
X80919499Y-12490255D01*
X80919497Y-12490261D01*
X80894500Y-12615928D01*
X80894500Y-12615931D01*
X80894500Y-12744069D01*
X80894500Y-12744071D01*
X80894499Y-12744071D01*
X76540000Y-12744071D01*
X76540000Y-11931362D01*
X76559685Y-11864323D01*
X76576319Y-11843681D01*
X77393681Y-11026319D01*
X77455004Y-10992834D01*
X77481362Y-10990000D01*
X88475500Y-10990000D01*
X88542539Y-11009685D01*
G37*
%TD.AperFunction*%
%TD*%
%TA.AperFunction,Conductor*%
%TO.N,VBUS*%
G36*
X65488412Y-13560252D02*
G01*
X65534167Y-13613056D01*
X65545373Y-13664567D01*
X65545373Y-14764205D01*
X65525688Y-14831244D01*
X65509054Y-14851886D01*
X65131523Y-15229416D01*
X65070200Y-15262901D01*
X65044248Y-15265734D01*
X63380796Y-15271174D01*
X63355373Y-15271258D01*
X63355372Y-15271258D01*
X60960553Y-17600458D01*
X60898771Y-17633088D01*
X60874098Y-17635567D01*
X55871735Y-17635567D01*
X55804696Y-17615882D01*
X55784054Y-17599248D01*
X55516692Y-17331886D01*
X55483207Y-17270563D01*
X55480373Y-17244205D01*
X55480373Y-15868774D01*
X55500058Y-15801735D01*
X55521136Y-15776863D01*
X57032961Y-14407806D01*
X57095866Y-14377399D01*
X57116044Y-14375721D01*
X62030000Y-14370000D01*
X62924728Y-13572025D01*
X62987862Y-13542094D01*
X63007263Y-13540567D01*
X65421373Y-13540567D01*
X65488412Y-13560252D01*
G37*
%TD.AperFunction*%
%TD*%
M02*
