%TF.GenerationSoftware,KiCad,Pcbnew,8.0.3*%
%TF.CreationDate,2024-06-27T20:48:53-04:00*%
%TF.ProjectId,charger-module,63686172-6765-4722-9d6d-6f64756c652e,v0.0.0*%
%TF.SameCoordinates,Original*%
%TF.FileFunction,Legend,Bot*%
%TF.FilePolarity,Positive*%
%FSLAX46Y46*%
G04 Gerber Fmt 4.6, Leading zero omitted, Abs format (unit mm)*
G04 Created by KiCad (PCBNEW 8.0.3) date 2024-06-27 20:48:53*
%MOMM*%
%LPD*%
G01*
G04 APERTURE LIST*
%ADD10C,0.150000*%
%ADD11C,0.200000*%
%ADD12C,0.650000*%
%ADD13O,2.100000X1.000000*%
%ADD14O,1.600000X1.000000*%
%ADD15R,1.700000X1.700000*%
%ADD16O,1.700000X1.700000*%
%ADD17R,3.200000X0.700000*%
%ADD18R,4.300000X0.700000*%
%ADD19C,6.000000*%
G04 APERTURE END LIST*
D10*
X13622561Y-21139411D02*
X13670180Y-21234649D01*
X13670180Y-21234649D02*
X13670180Y-21377506D01*
X13670180Y-21377506D02*
X13622561Y-21520363D01*
X13622561Y-21520363D02*
X13527323Y-21615601D01*
X13527323Y-21615601D02*
X13432085Y-21663220D01*
X13432085Y-21663220D02*
X13241609Y-21710839D01*
X13241609Y-21710839D02*
X13098752Y-21710839D01*
X13098752Y-21710839D02*
X12908276Y-21663220D01*
X12908276Y-21663220D02*
X12813038Y-21615601D01*
X12813038Y-21615601D02*
X12717800Y-21520363D01*
X12717800Y-21520363D02*
X12670180Y-21377506D01*
X12670180Y-21377506D02*
X12670180Y-21282268D01*
X12670180Y-21282268D02*
X12717800Y-21139411D01*
X12717800Y-21139411D02*
X12765419Y-21091792D01*
X12765419Y-21091792D02*
X13098752Y-21091792D01*
X13098752Y-21091792D02*
X13098752Y-21282268D01*
X12670180Y-20663220D02*
X13670180Y-20663220D01*
X13670180Y-20663220D02*
X12670180Y-20091792D01*
X12670180Y-20091792D02*
X13670180Y-20091792D01*
X12670180Y-19615601D02*
X13670180Y-19615601D01*
X13670180Y-19615601D02*
X13670180Y-19377506D01*
X13670180Y-19377506D02*
X13622561Y-19234649D01*
X13622561Y-19234649D02*
X13527323Y-19139411D01*
X13527323Y-19139411D02*
X13432085Y-19091792D01*
X13432085Y-19091792D02*
X13241609Y-19044173D01*
X13241609Y-19044173D02*
X13098752Y-19044173D01*
X13098752Y-19044173D02*
X12908276Y-19091792D01*
X12908276Y-19091792D02*
X12813038Y-19139411D01*
X12813038Y-19139411D02*
X12717800Y-19234649D01*
X12717800Y-19234649D02*
X12670180Y-19377506D01*
X12670180Y-19377506D02*
X12670180Y-19615601D01*
X10177800Y-21710839D02*
X10130180Y-21567982D01*
X10130180Y-21567982D02*
X10130180Y-21329887D01*
X10130180Y-21329887D02*
X10177800Y-21234649D01*
X10177800Y-21234649D02*
X10225419Y-21187030D01*
X10225419Y-21187030D02*
X10320657Y-21139411D01*
X10320657Y-21139411D02*
X10415895Y-21139411D01*
X10415895Y-21139411D02*
X10511133Y-21187030D01*
X10511133Y-21187030D02*
X10558752Y-21234649D01*
X10558752Y-21234649D02*
X10606371Y-21329887D01*
X10606371Y-21329887D02*
X10653990Y-21520363D01*
X10653990Y-21520363D02*
X10701609Y-21615601D01*
X10701609Y-21615601D02*
X10749228Y-21663220D01*
X10749228Y-21663220D02*
X10844466Y-21710839D01*
X10844466Y-21710839D02*
X10939704Y-21710839D01*
X10939704Y-21710839D02*
X11034942Y-21663220D01*
X11034942Y-21663220D02*
X11082561Y-21615601D01*
X11082561Y-21615601D02*
X11130180Y-21520363D01*
X11130180Y-21520363D02*
X11130180Y-21282268D01*
X11130180Y-21282268D02*
X11082561Y-21139411D01*
X11130180Y-20806077D02*
X10130180Y-20567982D01*
X10130180Y-20567982D02*
X10844466Y-20377506D01*
X10844466Y-20377506D02*
X10130180Y-20187030D01*
X10130180Y-20187030D02*
X11130180Y-19948935D01*
X10225419Y-18996554D02*
X10177800Y-19044173D01*
X10177800Y-19044173D02*
X10130180Y-19187030D01*
X10130180Y-19187030D02*
X10130180Y-19282268D01*
X10130180Y-19282268D02*
X10177800Y-19425125D01*
X10177800Y-19425125D02*
X10273038Y-19520363D01*
X10273038Y-19520363D02*
X10368276Y-19567982D01*
X10368276Y-19567982D02*
X10558752Y-19615601D01*
X10558752Y-19615601D02*
X10701609Y-19615601D01*
X10701609Y-19615601D02*
X10892085Y-19567982D01*
X10892085Y-19567982D02*
X10987323Y-19520363D01*
X10987323Y-19520363D02*
X11082561Y-19425125D01*
X11082561Y-19425125D02*
X11130180Y-19282268D01*
X11130180Y-19282268D02*
X11130180Y-19187030D01*
X11130180Y-19187030D02*
X11082561Y-19044173D01*
X11082561Y-19044173D02*
X11034942Y-18996554D01*
X10130180Y-18091792D02*
X10130180Y-18567982D01*
X10130180Y-18567982D02*
X11130180Y-18567982D01*
X10130180Y-17758458D02*
X11130180Y-17758458D01*
X10130180Y-17187030D02*
X10701609Y-17615601D01*
X11130180Y-17187030D02*
X10558752Y-17758458D01*
G36*
X80224546Y-8942976D02*
G01*
X80245595Y-9019970D01*
X80267525Y-9096162D01*
X80290337Y-9171553D01*
X80314030Y-9246142D01*
X80338605Y-9319930D01*
X80364062Y-9392917D01*
X80390400Y-9465102D01*
X80417620Y-9536486D01*
X80445166Y-9606542D01*
X80472483Y-9674743D01*
X80506307Y-9757386D01*
X80539774Y-9837131D01*
X80572882Y-9913978D01*
X80605633Y-9987927D01*
X80631577Y-10045000D01*
X80808897Y-10045000D01*
X80841371Y-9973369D01*
X80874220Y-9898840D01*
X80907445Y-9821414D01*
X80941046Y-9741089D01*
X80975022Y-9657866D01*
X81002474Y-9589202D01*
X81023220Y-9536486D01*
X81050440Y-9465102D01*
X81076778Y-9392917D01*
X81102234Y-9319930D01*
X81126810Y-9246142D01*
X81150503Y-9171553D01*
X81173315Y-9096162D01*
X81195245Y-9019970D01*
X81216294Y-8942976D01*
X81005268Y-8942976D01*
X80986763Y-9015146D01*
X80966007Y-9090606D01*
X80945184Y-9162062D01*
X80923038Y-9234469D01*
X80900104Y-9306518D01*
X80876384Y-9378209D01*
X80871545Y-9392505D01*
X80846973Y-9463037D01*
X80822258Y-9532210D01*
X80794906Y-9606729D01*
X80792411Y-9613422D01*
X80765224Y-9684034D01*
X80736750Y-9754943D01*
X80716207Y-9803932D01*
X80686370Y-9732016D01*
X80657648Y-9658978D01*
X80640369Y-9613422D01*
X80612836Y-9539052D01*
X80588107Y-9470015D01*
X80563663Y-9399619D01*
X80561235Y-9392505D01*
X80537163Y-9320885D01*
X80513951Y-9248907D01*
X80491597Y-9176572D01*
X80487229Y-9162062D01*
X80466406Y-9090606D01*
X80445650Y-9015146D01*
X80427145Y-8942976D01*
X80224546Y-8942976D01*
G37*
G36*
X79629685Y-8568580D02*
G01*
X79709987Y-8580000D01*
X79783283Y-8605125D01*
X79849572Y-8643954D01*
X79908854Y-8696487D01*
X79961130Y-8762725D01*
X79969109Y-8775068D01*
X80005205Y-8841636D01*
X80034969Y-8916290D01*
X80058400Y-8999030D01*
X80072585Y-9071043D01*
X80082717Y-9148231D01*
X80088796Y-9230595D01*
X80090823Y-9318133D01*
X80088796Y-9405671D01*
X80082717Y-9488034D01*
X80072585Y-9565223D01*
X80054220Y-9654431D01*
X80029523Y-9735553D01*
X79998493Y-9808590D01*
X79961130Y-9873541D01*
X79944483Y-9897143D01*
X79889872Y-9958812D01*
X79828254Y-10006777D01*
X79759630Y-10041038D01*
X79683998Y-10061595D01*
X79601360Y-10068447D01*
X79572993Y-10067685D01*
X79492596Y-10056265D01*
X79419257Y-10031141D01*
X79352977Y-9992312D01*
X79293755Y-9939779D01*
X79241591Y-9873541D01*
X79233589Y-9861198D01*
X79197391Y-9794630D01*
X79167543Y-9719976D01*
X79144046Y-9637236D01*
X79129821Y-9565223D01*
X79119660Y-9488034D01*
X79113563Y-9405671D01*
X79111531Y-9318133D01*
X79318527Y-9318133D01*
X79319887Y-9391563D01*
X79324523Y-9469526D01*
X79332449Y-9544546D01*
X79338202Y-9583572D01*
X79353727Y-9655906D01*
X79378611Y-9730659D01*
X79380671Y-9735596D01*
X79416804Y-9802100D01*
X79466172Y-9857421D01*
X79527446Y-9892592D01*
X79601360Y-9904316D01*
X79671025Y-9894012D01*
X79736549Y-9857421D01*
X79739962Y-9854436D01*
X79788631Y-9798107D01*
X79824110Y-9730659D01*
X79837481Y-9694580D01*
X79857569Y-9620692D01*
X79870638Y-9544546D01*
X79878356Y-9469526D01*
X79882870Y-9391563D01*
X79884193Y-9318133D01*
X79882870Y-9244738D01*
X79878356Y-9166897D01*
X79870638Y-9092086D01*
X79864760Y-9052935D01*
X79849064Y-8980429D01*
X79824110Y-8905607D01*
X79822050Y-8900670D01*
X79785916Y-8834257D01*
X79736549Y-8779211D01*
X79675274Y-8743765D01*
X79601360Y-8731950D01*
X79531696Y-8742334D01*
X79466172Y-8779211D01*
X79462759Y-8782174D01*
X79414090Y-8838239D01*
X79378611Y-8905607D01*
X79365257Y-8941703D01*
X79345295Y-9015716D01*
X79332449Y-9092086D01*
X79324523Y-9166897D01*
X79319887Y-9244738D01*
X79318527Y-9318133D01*
X79111531Y-9318133D01*
X79113563Y-9230595D01*
X79119660Y-9148231D01*
X79129821Y-9071043D01*
X79148237Y-8981835D01*
X79173005Y-8900712D01*
X79204122Y-8827675D01*
X79241591Y-8762725D01*
X79258194Y-8739123D01*
X79312711Y-8677453D01*
X79374286Y-8629488D01*
X79442919Y-8595227D01*
X79518611Y-8574671D01*
X79601360Y-8567819D01*
X79629685Y-8568580D01*
G37*
G36*
X78611444Y-9927763D02*
G01*
X78629453Y-9998918D01*
X78649546Y-10026681D01*
X78714420Y-10064368D01*
X78752494Y-10068447D01*
X78826733Y-10050460D01*
X78856175Y-10026681D01*
X78890926Y-9958546D01*
X78893911Y-9927763D01*
X78874417Y-9853892D01*
X78856175Y-9829211D01*
X78790798Y-9791193D01*
X78752494Y-9787079D01*
X78678736Y-9805224D01*
X78649546Y-9829211D01*
X78614458Y-9897009D01*
X78611444Y-9927763D01*
G37*
G36*
X77929755Y-8568580D02*
G01*
X78010057Y-8580000D01*
X78083353Y-8605125D01*
X78149642Y-8643954D01*
X78208924Y-8696487D01*
X78261200Y-8762725D01*
X78269179Y-8775068D01*
X78305275Y-8841636D01*
X78335039Y-8916290D01*
X78358469Y-8999030D01*
X78372655Y-9071043D01*
X78382787Y-9148231D01*
X78388866Y-9230595D01*
X78390893Y-9318133D01*
X78388866Y-9405671D01*
X78382787Y-9488034D01*
X78372655Y-9565223D01*
X78354290Y-9654431D01*
X78329593Y-9735553D01*
X78298562Y-9808590D01*
X78261200Y-9873541D01*
X78244553Y-9897143D01*
X78189942Y-9958812D01*
X78128324Y-10006777D01*
X78059699Y-10041038D01*
X77984068Y-10061595D01*
X77901430Y-10068447D01*
X77873063Y-10067685D01*
X77792666Y-10056265D01*
X77719327Y-10031141D01*
X77653047Y-9992312D01*
X77593824Y-9939779D01*
X77541660Y-9873541D01*
X77533659Y-9861198D01*
X77497461Y-9794630D01*
X77467613Y-9719976D01*
X77444116Y-9637236D01*
X77429891Y-9565223D01*
X77419730Y-9488034D01*
X77413633Y-9405671D01*
X77411601Y-9318133D01*
X77618597Y-9318133D01*
X77619956Y-9391563D01*
X77624592Y-9469526D01*
X77632519Y-9544546D01*
X77638272Y-9583572D01*
X77653796Y-9655906D01*
X77678681Y-9730659D01*
X77680740Y-9735596D01*
X77716874Y-9802100D01*
X77766242Y-9857421D01*
X77827516Y-9892592D01*
X77901430Y-9904316D01*
X77971095Y-9894012D01*
X78036618Y-9857421D01*
X78040031Y-9854436D01*
X78088701Y-9798107D01*
X78124180Y-9730659D01*
X78137551Y-9694580D01*
X78157639Y-9620692D01*
X78170708Y-9544546D01*
X78178425Y-9469526D01*
X78182940Y-9391563D01*
X78184263Y-9318133D01*
X78182940Y-9244738D01*
X78178425Y-9166897D01*
X78170708Y-9092086D01*
X78164830Y-9052935D01*
X78149134Y-8980429D01*
X78124180Y-8905607D01*
X78122120Y-8900670D01*
X78085986Y-8834257D01*
X78036618Y-8779211D01*
X77975344Y-8743765D01*
X77901430Y-8731950D01*
X77831765Y-8742334D01*
X77766242Y-8779211D01*
X77762829Y-8782174D01*
X77714160Y-8838239D01*
X77678681Y-8905607D01*
X77665327Y-8941703D01*
X77645364Y-9015716D01*
X77632519Y-9092086D01*
X77624592Y-9166897D01*
X77619956Y-9244738D01*
X77618597Y-9318133D01*
X77411601Y-9318133D01*
X77413633Y-9230595D01*
X77419730Y-9148231D01*
X77429891Y-9071043D01*
X77448307Y-8981835D01*
X77473074Y-8900712D01*
X77504192Y-8827675D01*
X77541660Y-8762725D01*
X77558264Y-8739123D01*
X77612781Y-8677453D01*
X77674356Y-8629488D01*
X77742989Y-8595227D01*
X77818680Y-8574671D01*
X77901430Y-8567819D01*
X77929755Y-8568580D01*
G37*
G36*
X76911514Y-9927763D02*
G01*
X76929523Y-9998918D01*
X76949616Y-10026681D01*
X77014489Y-10064368D01*
X77052564Y-10068447D01*
X77126803Y-10050460D01*
X77156245Y-10026681D01*
X77190996Y-9958546D01*
X77193981Y-9927763D01*
X77174486Y-9853892D01*
X77156245Y-9829211D01*
X77090868Y-9791193D01*
X77052564Y-9787079D01*
X76978806Y-9805224D01*
X76949616Y-9829211D01*
X76914528Y-9897009D01*
X76911514Y-9927763D01*
G37*
G36*
X76229824Y-8568580D02*
G01*
X76310127Y-8580000D01*
X76383423Y-8605125D01*
X76449712Y-8643954D01*
X76508994Y-8696487D01*
X76561270Y-8762725D01*
X76569249Y-8775068D01*
X76605345Y-8841636D01*
X76635108Y-8916290D01*
X76658539Y-8999030D01*
X76672724Y-9071043D01*
X76682857Y-9148231D01*
X76688936Y-9230595D01*
X76690963Y-9318133D01*
X76688936Y-9405671D01*
X76682857Y-9488034D01*
X76672724Y-9565223D01*
X76654360Y-9654431D01*
X76629662Y-9735553D01*
X76598632Y-9808590D01*
X76561270Y-9873541D01*
X76544623Y-9897143D01*
X76490012Y-9958812D01*
X76428394Y-10006777D01*
X76359769Y-10041038D01*
X76284138Y-10061595D01*
X76201500Y-10068447D01*
X76173132Y-10067685D01*
X76092735Y-10056265D01*
X76019397Y-10031141D01*
X75953116Y-9992312D01*
X75893894Y-9939779D01*
X75841730Y-9873541D01*
X75833728Y-9861198D01*
X75797530Y-9794630D01*
X75767683Y-9719976D01*
X75744186Y-9637236D01*
X75729960Y-9565223D01*
X75719800Y-9488034D01*
X75713703Y-9405671D01*
X75711671Y-9318133D01*
X75918667Y-9318133D01*
X75920026Y-9391563D01*
X75924662Y-9469526D01*
X75932588Y-9544546D01*
X75938342Y-9583572D01*
X75953866Y-9655906D01*
X75978750Y-9730659D01*
X75980810Y-9735596D01*
X76016944Y-9802100D01*
X76066311Y-9857421D01*
X76127586Y-9892592D01*
X76201500Y-9904316D01*
X76271165Y-9894012D01*
X76336688Y-9857421D01*
X76340101Y-9854436D01*
X76388770Y-9798107D01*
X76424249Y-9730659D01*
X76437621Y-9694580D01*
X76457709Y-9620692D01*
X76470778Y-9544546D01*
X76478495Y-9469526D01*
X76483009Y-9391563D01*
X76484333Y-9318133D01*
X76483009Y-9244738D01*
X76478495Y-9166897D01*
X76470778Y-9092086D01*
X76464900Y-9052935D01*
X76449204Y-8980429D01*
X76424249Y-8905607D01*
X76422190Y-8900670D01*
X76386056Y-8834257D01*
X76336688Y-8779211D01*
X76275414Y-8743765D01*
X76201500Y-8731950D01*
X76131835Y-8742334D01*
X76066311Y-8779211D01*
X76062899Y-8782174D01*
X76014229Y-8838239D01*
X75978750Y-8905607D01*
X75965397Y-8941703D01*
X75945434Y-9015716D01*
X75932588Y-9092086D01*
X75924662Y-9166897D01*
X75920026Y-9244738D01*
X75918667Y-9318133D01*
X75711671Y-9318133D01*
X75713703Y-9230595D01*
X75719800Y-9148231D01*
X75729960Y-9071043D01*
X75748377Y-8981835D01*
X75773144Y-8900712D01*
X75804262Y-8827675D01*
X75841730Y-8762725D01*
X75858334Y-8739123D01*
X75912851Y-8677453D01*
X75974426Y-8629488D01*
X76043059Y-8595227D01*
X76118750Y-8574671D01*
X76201500Y-8567819D01*
X76229824Y-8568580D01*
G37*
G36*
X80728663Y-7804316D02*
G01*
X80653530Y-7800755D01*
X80573701Y-7786290D01*
X80498567Y-7754245D01*
X80439400Y-7696607D01*
X80410912Y-7617161D01*
X80408094Y-7576437D01*
X80418169Y-7500574D01*
X80436671Y-7457002D01*
X80482532Y-7397925D01*
X80513607Y-7371639D01*
X80579496Y-7331740D01*
X80624249Y-7313021D01*
X80696635Y-7287879D01*
X80756140Y-7268325D01*
X80829508Y-7243321D01*
X80899173Y-7213649D01*
X80908182Y-7209340D01*
X80975226Y-7171055D01*
X81032745Y-7126542D01*
X81082595Y-7070585D01*
X81116277Y-7012969D01*
X81139083Y-6940245D01*
X81146566Y-6865493D01*
X81146685Y-6853967D01*
X81140426Y-6773564D01*
X81121650Y-6701296D01*
X81084865Y-6628664D01*
X81031731Y-6566657D01*
X81015893Y-6552815D01*
X80953920Y-6510560D01*
X80882446Y-6478684D01*
X80801470Y-6457186D01*
X80724499Y-6447019D01*
X80655024Y-6444371D01*
X80574266Y-6447162D01*
X80498231Y-6455534D01*
X80420048Y-6471190D01*
X80413224Y-6472948D01*
X80339808Y-6495101D01*
X80271077Y-6524822D01*
X80253855Y-6535230D01*
X80319434Y-6688736D01*
X80387317Y-6656495D01*
X80451325Y-6634881D01*
X80527185Y-6617802D01*
X80605581Y-6609765D01*
X80655024Y-6608503D01*
X80728970Y-6614183D01*
X80764933Y-6621692D01*
X80833764Y-6648894D01*
X80853593Y-6661259D01*
X80906318Y-6715587D01*
X80913677Y-6727937D01*
X80934607Y-6799627D01*
X80935659Y-6822826D01*
X80924750Y-6897774D01*
X80912578Y-6925774D01*
X80864537Y-6984646D01*
X80846999Y-6999047D01*
X80782660Y-7037175D01*
X80749180Y-7051071D01*
X80678483Y-7074999D01*
X80625348Y-7091371D01*
X80550852Y-7117468D01*
X80481555Y-7146347D01*
X80451325Y-7160614D01*
X80386150Y-7197469D01*
X80325345Y-7243338D01*
X80314305Y-7253304D01*
X80265570Y-7308301D01*
X80228589Y-7372315D01*
X80224546Y-7381531D01*
X80202757Y-7452387D01*
X80193450Y-7529107D01*
X80192672Y-7561416D01*
X80199387Y-7642838D01*
X80219530Y-7715600D01*
X80258994Y-7788151D01*
X80315998Y-7849391D01*
X80332990Y-7862934D01*
X80399883Y-7904047D01*
X80477787Y-7935062D01*
X80553323Y-7953609D01*
X80636949Y-7964737D01*
X80712816Y-7968344D01*
X80728663Y-7968447D01*
X80806743Y-7965871D01*
X80883462Y-7957444D01*
X80888032Y-7956723D01*
X80961049Y-7943415D01*
X81018091Y-7929612D01*
X81088899Y-7906755D01*
X81116277Y-7895907D01*
X81180390Y-7865132D01*
X81119207Y-7709061D01*
X81048689Y-7742059D01*
X80977718Y-7768487D01*
X80971563Y-7770610D01*
X80898066Y-7789800D01*
X80822160Y-7800333D01*
X80746442Y-7804184D01*
X80728663Y-7804316D01*
G37*
G36*
X79964427Y-6897930D02*
G01*
X79891730Y-6881648D01*
X79813359Y-6866755D01*
X79786374Y-6862027D01*
X79713595Y-6851980D01*
X79634018Y-6845655D01*
X79556587Y-6843143D01*
X79529553Y-6842976D01*
X79455158Y-6846994D01*
X79380345Y-6861841D01*
X79352233Y-6871552D01*
X79286287Y-6906723D01*
X79232065Y-6955083D01*
X79185903Y-6925408D01*
X79119185Y-6892910D01*
X79107868Y-6888405D01*
X79035684Y-6864870D01*
X79004553Y-6856898D01*
X78929820Y-6844934D01*
X78881821Y-6842976D01*
X78807332Y-6846518D01*
X78729846Y-6860119D01*
X78675191Y-6879246D01*
X78611649Y-6916802D01*
X78558352Y-6969959D01*
X78549528Y-6982194D01*
X78513459Y-7049836D01*
X78491560Y-7122845D01*
X78488346Y-7139731D01*
X78478146Y-7216632D01*
X78473346Y-7292556D01*
X78472592Y-7339033D01*
X78472592Y-7945000D01*
X78668963Y-7945000D01*
X78668963Y-7391057D01*
X78670786Y-7314110D01*
X78677335Y-7238708D01*
X78678489Y-7230223D01*
X78695741Y-7158180D01*
X78714392Y-7118115D01*
X78764676Y-7064260D01*
X78786200Y-7052170D01*
X78860802Y-7032665D01*
X78903070Y-7030554D01*
X78977995Y-7034908D01*
X79050171Y-7050750D01*
X79066835Y-7056933D01*
X79133313Y-7089187D01*
X79154030Y-7104193D01*
X79135539Y-7177854D01*
X79128750Y-7219965D01*
X79121715Y-7296861D01*
X79120324Y-7351856D01*
X79120324Y-7945000D01*
X79316695Y-7945000D01*
X79316695Y-7391057D01*
X79318729Y-7314110D01*
X79326033Y-7238708D01*
X79327320Y-7230223D01*
X79345490Y-7158180D01*
X79364323Y-7118115D01*
X79414606Y-7064260D01*
X79436130Y-7052170D01*
X79509867Y-7032665D01*
X79551168Y-7030554D01*
X79614549Y-7032752D01*
X79679030Y-7037882D01*
X79734717Y-7045209D01*
X79768422Y-7051437D01*
X79768422Y-7945000D01*
X79964427Y-7945000D01*
X79964427Y-6897930D01*
G37*
G36*
X77841472Y-6843530D02*
G01*
X77920764Y-6848530D01*
X77995219Y-6858729D01*
X78049990Y-6869690D01*
X78121615Y-6891336D01*
X78098534Y-7072686D01*
X78063316Y-7060961D01*
X77990090Y-7044476D01*
X77971486Y-7041213D01*
X77894989Y-7032852D01*
X77820097Y-7030554D01*
X77771127Y-7032546D01*
X77696632Y-7047407D01*
X77685046Y-7051706D01*
X77621894Y-7091737D01*
X77583792Y-7155484D01*
X77573168Y-7227658D01*
X77573168Y-7269057D01*
X77602843Y-7262829D01*
X77652302Y-7253304D01*
X77712386Y-7244877D01*
X77773569Y-7241580D01*
X77796616Y-7241883D01*
X77875295Y-7247724D01*
X77950889Y-7260997D01*
X77956135Y-7262232D01*
X78029932Y-7285819D01*
X78098534Y-7321448D01*
X78155046Y-7368617D01*
X78198551Y-7428792D01*
X78205164Y-7441520D01*
X78228472Y-7511920D01*
X78235554Y-7587794D01*
X78235277Y-7605750D01*
X78226662Y-7682987D01*
X78204047Y-7753757D01*
X78168691Y-7812190D01*
X78115387Y-7864399D01*
X78053013Y-7900578D01*
X77980198Y-7925582D01*
X77960461Y-7930133D01*
X77887772Y-7941283D01*
X77809473Y-7945000D01*
X77751951Y-7944018D01*
X77677581Y-7939870D01*
X77629187Y-7935646D01*
X77554483Y-7928147D01*
X77526639Y-7924964D01*
X77451901Y-7914591D01*
X77381193Y-7902868D01*
X77381193Y-7454438D01*
X77573168Y-7454438D01*
X77573168Y-7742766D01*
X77589735Y-7746208D01*
X77662927Y-7754490D01*
X77713066Y-7756494D01*
X77786392Y-7757421D01*
X77821398Y-7756527D01*
X77895853Y-7747081D01*
X77969940Y-7720785D01*
X78022539Y-7665339D01*
X78037351Y-7589626D01*
X78036922Y-7577204D01*
X78009874Y-7507561D01*
X78002793Y-7499981D01*
X77941364Y-7458468D01*
X77923009Y-7451210D01*
X77850872Y-7435020D01*
X77832380Y-7433028D01*
X77756716Y-7429159D01*
X77716552Y-7429874D01*
X77642044Y-7436486D01*
X77573168Y-7454438D01*
X77381193Y-7454438D01*
X77381193Y-7245610D01*
X77381380Y-7229053D01*
X77387190Y-7155362D01*
X77402442Y-7082944D01*
X77428379Y-7018072D01*
X77473150Y-6955450D01*
X77476273Y-6952108D01*
X77534696Y-6905156D01*
X77603942Y-6872285D01*
X77652442Y-6858117D01*
X77726304Y-6846439D01*
X77803244Y-6842976D01*
X77841472Y-6843530D01*
G37*
G36*
X76656158Y-6842976D02*
G01*
X76598272Y-6846273D01*
X76533792Y-6854699D01*
X76475907Y-6865324D01*
X76436706Y-6874849D01*
X76470411Y-7062062D01*
X76544012Y-7042985D01*
X76547348Y-7042278D01*
X76622150Y-7032489D01*
X76685833Y-7030554D01*
X76760877Y-7036096D01*
X76794644Y-7042278D01*
X76865352Y-7058032D01*
X76865352Y-7945000D01*
X77061357Y-7945000D01*
X77061357Y-6912951D01*
X76988692Y-6889896D01*
X76913735Y-6870957D01*
X76888433Y-6865324D01*
X76814208Y-6852600D01*
X76734096Y-6845158D01*
X76656158Y-6842976D01*
G37*
G36*
X76067411Y-6842976D02*
G01*
X75651587Y-6842976D01*
X75651587Y-7030554D01*
X76067411Y-7030554D01*
X76067411Y-7500600D01*
X76063895Y-7574511D01*
X76054954Y-7627362D01*
X76024448Y-7696315D01*
X76016852Y-7705764D01*
X75953471Y-7745697D01*
X75880306Y-7757135D01*
X75864811Y-7757421D01*
X75789420Y-7753074D01*
X75722662Y-7737637D01*
X75653379Y-7711351D01*
X75647557Y-7709061D01*
X75609455Y-7886015D01*
X75678904Y-7912324D01*
X75713136Y-7923018D01*
X75786842Y-7938796D01*
X75864059Y-7944806D01*
X75881664Y-7945000D01*
X75960232Y-7941084D01*
X76032905Y-7928005D01*
X76066678Y-7917156D01*
X76132165Y-7882351D01*
X76183548Y-7833625D01*
X76223204Y-7766830D01*
X76245830Y-7695872D01*
X76258102Y-7619476D01*
X76263151Y-7546181D01*
X76263782Y-7506828D01*
X76263782Y-6547686D01*
X76067411Y-6514713D01*
X76067411Y-6842976D01*
G37*
G36*
X74252808Y-7733974D02*
G01*
X74282820Y-7664813D01*
X74308862Y-7606479D01*
X74340368Y-7536204D01*
X74371507Y-7466805D01*
X74383967Y-7439050D01*
X74414690Y-7370735D01*
X74446958Y-7300977D01*
X74469330Y-7253670D01*
X74502457Y-7183723D01*
X74534245Y-7116764D01*
X74554692Y-7073785D01*
X74588653Y-7003100D01*
X74622860Y-6934836D01*
X74629431Y-6922110D01*
X74664297Y-6856654D01*
X74685484Y-6819528D01*
X74692501Y-6898392D01*
X74699123Y-6979276D01*
X74705352Y-7062182D01*
X74711187Y-7147110D01*
X74716629Y-7234059D01*
X74721677Y-7323029D01*
X74723586Y-7359183D01*
X74728068Y-7449992D01*
X74732352Y-7541070D01*
X74736440Y-7632416D01*
X74739568Y-7705686D01*
X74742570Y-7779128D01*
X74745447Y-7852741D01*
X74748198Y-7926526D01*
X74748866Y-7945000D01*
X74949267Y-7945000D01*
X74945475Y-7862295D01*
X74941473Y-7779275D01*
X74937260Y-7695940D01*
X74932838Y-7612289D01*
X74930216Y-7564347D01*
X74925427Y-7480656D01*
X74920358Y-7397561D01*
X74915009Y-7315062D01*
X74909379Y-7233159D01*
X74906036Y-7186625D01*
X74899857Y-7105817D01*
X74893504Y-7025920D01*
X74886974Y-6946935D01*
X74880270Y-6868862D01*
X74876360Y-6824658D01*
X74869310Y-6748472D01*
X74861945Y-6674110D01*
X74853141Y-6591358D01*
X74843924Y-6510987D01*
X74841556Y-6491266D01*
X74662404Y-6491266D01*
X74622159Y-6557124D01*
X74583919Y-6623756D01*
X74548158Y-6689232D01*
X74540038Y-6704490D01*
X74503179Y-6774631D01*
X74466377Y-6846569D01*
X74429634Y-6920304D01*
X74409246Y-6962044D01*
X74376731Y-7029272D01*
X74344766Y-7096500D01*
X74313350Y-7163728D01*
X74282484Y-7230956D01*
X74248909Y-7304703D01*
X74217015Y-7374683D01*
X74183548Y-7448021D01*
X74170743Y-7476053D01*
X74138106Y-7404576D01*
X74106959Y-7336271D01*
X74074131Y-7264197D01*
X74059002Y-7230956D01*
X74028158Y-7163728D01*
X73996811Y-7096500D01*
X73964960Y-7029272D01*
X73932606Y-6962044D01*
X73899839Y-6895526D01*
X73863031Y-6822390D01*
X73826282Y-6751051D01*
X73801814Y-6704490D01*
X73765592Y-6637855D01*
X73726909Y-6569935D01*
X73686259Y-6502661D01*
X73679082Y-6491266D01*
X73499563Y-6491266D01*
X73490728Y-6579291D01*
X73482172Y-6667693D01*
X73473898Y-6756474D01*
X73465904Y-6845632D01*
X73458190Y-6935168D01*
X73450757Y-7025082D01*
X73443604Y-7115373D01*
X73436732Y-7206043D01*
X73430140Y-7297090D01*
X73423829Y-7388515D01*
X73417798Y-7480318D01*
X73412048Y-7572499D01*
X73406578Y-7665057D01*
X73401389Y-7757993D01*
X73396480Y-7851308D01*
X73391852Y-7945000D01*
X73592254Y-7945000D01*
X73594978Y-7871171D01*
X73597841Y-7797515D01*
X73600840Y-7724030D01*
X73603977Y-7650717D01*
X73608092Y-7559318D01*
X73612421Y-7468186D01*
X73616964Y-7377323D01*
X73617899Y-7359183D01*
X73622684Y-7269404D01*
X73627881Y-7181647D01*
X73633489Y-7095911D01*
X73639509Y-7012196D01*
X73645940Y-6930503D01*
X73652782Y-6850831D01*
X73655635Y-6819528D01*
X73693183Y-6886890D01*
X73711688Y-6922110D01*
X73745525Y-6988829D01*
X73779285Y-7058072D01*
X73786793Y-7073785D01*
X73820146Y-7144301D01*
X73852544Y-7212505D01*
X73872156Y-7253670D01*
X73905283Y-7324390D01*
X73937071Y-7393667D01*
X73957519Y-7439050D01*
X73989118Y-7509985D01*
X74019025Y-7576928D01*
X74032257Y-7606479D01*
X74063673Y-7677004D01*
X74088311Y-7733974D01*
X74252808Y-7733974D01*
G37*
G36*
X72694157Y-6845495D02*
G01*
X72772433Y-6858718D01*
X72845969Y-6883276D01*
X72891788Y-6905395D01*
X72954419Y-6946645D01*
X73009734Y-6997581D01*
X73045866Y-7041763D01*
X73086558Y-7107975D01*
X73116346Y-7176001D01*
X73137831Y-7250088D01*
X73150397Y-7329283D01*
X73154082Y-7405711D01*
X73150397Y-7483192D01*
X73137831Y-7562800D01*
X73116346Y-7636521D01*
X73095395Y-7686209D01*
X73056841Y-7754044D01*
X73009734Y-7813841D01*
X72973670Y-7848898D01*
X72913478Y-7893497D01*
X72845969Y-7928513D01*
X72791262Y-7947817D01*
X72714171Y-7963728D01*
X72639340Y-7968447D01*
X72584363Y-7965951D01*
X72505932Y-7952848D01*
X72432344Y-7928513D01*
X72386549Y-7906234D01*
X72324038Y-7864829D01*
X72268946Y-7813841D01*
X72232666Y-7769746D01*
X72191957Y-7703921D01*
X72162334Y-7636521D01*
X72159990Y-7630062D01*
X72139115Y-7555806D01*
X72127953Y-7483192D01*
X72124232Y-7405711D01*
X72329030Y-7405711D01*
X72331966Y-7468033D01*
X72345018Y-7543275D01*
X72372182Y-7617194D01*
X72412561Y-7679752D01*
X72428685Y-7697822D01*
X72490108Y-7745221D01*
X72563338Y-7772870D01*
X72639340Y-7780868D01*
X72665740Y-7779980D01*
X72738602Y-7766649D01*
X72808411Y-7733075D01*
X72866486Y-7679752D01*
X72898891Y-7632077D01*
X72928859Y-7560683D01*
X72944453Y-7487685D01*
X72949651Y-7405711D01*
X72946727Y-7343389D01*
X72933732Y-7268147D01*
X72906688Y-7194229D01*
X72866486Y-7131671D01*
X72850296Y-7113600D01*
X72788701Y-7066202D01*
X72715371Y-7038553D01*
X72639340Y-7030554D01*
X72612944Y-7031443D01*
X72540130Y-7044774D01*
X72470442Y-7078348D01*
X72412561Y-7131671D01*
X72380013Y-7179345D01*
X72349912Y-7250739D01*
X72334250Y-7323737D01*
X72329030Y-7405711D01*
X72124232Y-7405711D01*
X72127953Y-7329283D01*
X72140641Y-7250088D01*
X72162334Y-7176001D01*
X72183148Y-7125832D01*
X72221668Y-7057534D01*
X72268946Y-6997581D01*
X72304849Y-6962548D01*
X72364887Y-6918069D01*
X72432344Y-6883276D01*
X72487081Y-6863795D01*
X72564301Y-6847738D01*
X72639340Y-6842976D01*
X72694157Y-6845495D01*
G37*
G36*
X71145673Y-6360840D02*
G01*
X71145673Y-6916615D01*
X71184171Y-6895998D01*
X71254483Y-6868255D01*
X71272967Y-6862330D01*
X71348503Y-6847148D01*
X71421912Y-6842976D01*
X71486389Y-6846251D01*
X71559527Y-6859147D01*
X71632205Y-6884375D01*
X71665560Y-6901059D01*
X71731024Y-6945161D01*
X71787177Y-7000146D01*
X71816806Y-7039164D01*
X71854210Y-7104560D01*
X71883164Y-7178199D01*
X71901728Y-7251696D01*
X71912586Y-7330127D01*
X71915771Y-7405711D01*
X71915733Y-7413837D01*
X71911182Y-7492305D01*
X71899046Y-7565693D01*
X71876936Y-7640551D01*
X71855298Y-7690766D01*
X71815198Y-7758617D01*
X71765928Y-7817505D01*
X71728192Y-7851554D01*
X71664719Y-7894985D01*
X71593004Y-7929246D01*
X71520290Y-7951564D01*
X71441690Y-7964619D01*
X71365125Y-7968447D01*
X71348076Y-7968372D01*
X71274438Y-7966196D01*
X71198532Y-7960242D01*
X71122226Y-7949396D01*
X71096443Y-7944719D01*
X71020871Y-7929440D01*
X70949302Y-7911660D01*
X70949302Y-7114818D01*
X71145673Y-7114818D01*
X71145673Y-7757421D01*
X71155537Y-7760036D01*
X71229204Y-7773541D01*
X71289379Y-7779036D01*
X71362927Y-7780868D01*
X71410848Y-7778480D01*
X71489351Y-7762145D01*
X71557886Y-7730335D01*
X71616451Y-7683049D01*
X71657965Y-7629033D01*
X71690490Y-7556058D01*
X71706799Y-7480341D01*
X71711339Y-7405711D01*
X71707636Y-7333777D01*
X71694487Y-7257700D01*
X71677287Y-7204584D01*
X71639532Y-7138265D01*
X71604946Y-7100815D01*
X71541346Y-7059131D01*
X71470683Y-7036833D01*
X71396999Y-7030554D01*
X71319971Y-7037424D01*
X71249354Y-7058032D01*
X71210106Y-7075226D01*
X71145673Y-7114818D01*
X70949302Y-7114818D01*
X70949302Y-6327135D01*
X71145673Y-6360840D01*
G37*
G36*
X69744330Y-7890411D02*
G01*
X69817107Y-7906694D01*
X69889123Y-7920415D01*
X69922749Y-7926315D01*
X70002928Y-7936953D01*
X70082956Y-7942792D01*
X70160793Y-7944927D01*
X70178838Y-7945000D01*
X70254128Y-7941458D01*
X70327857Y-7929379D01*
X70392062Y-7908729D01*
X70456749Y-7874302D01*
X70513971Y-7826136D01*
X70531280Y-7806147D01*
X70571832Y-7743316D01*
X70601164Y-7671509D01*
X70607484Y-7649344D01*
X70622428Y-7572614D01*
X70629460Y-7496098D01*
X70630565Y-7448942D01*
X70630565Y-6842976D01*
X70434193Y-6842976D01*
X70434193Y-7396919D01*
X70431161Y-7476289D01*
X70420267Y-7554119D01*
X70398542Y-7625255D01*
X70370812Y-7673890D01*
X70311118Y-7724792D01*
X70235036Y-7750814D01*
X70157588Y-7757421D01*
X70092376Y-7755223D01*
X70028995Y-7750094D01*
X69975139Y-7743866D01*
X69940334Y-7736172D01*
X69940334Y-6842976D01*
X69744330Y-6842976D01*
X69744330Y-7890411D01*
G37*
G36*
X69084141Y-7945000D02*
G01*
X69158450Y-7939976D01*
X69231054Y-7926248D01*
X69303325Y-7897111D01*
X69341695Y-7868796D01*
X69387909Y-7803434D01*
X69410127Y-7731807D01*
X69417459Y-7654005D01*
X69417533Y-7644581D01*
X69417533Y-6360108D01*
X69221161Y-6327135D01*
X69221161Y-7589626D01*
X69213755Y-7662699D01*
X69212735Y-7666563D01*
X69185258Y-7715289D01*
X69134699Y-7742400D01*
X69062421Y-7756632D01*
X69056664Y-7757421D01*
X69084141Y-7945000D01*
G37*
G36*
X68436680Y-6844212D02*
G01*
X68512497Y-6855375D01*
X68586985Y-6878147D01*
X68620198Y-6892572D01*
X68687211Y-6932311D01*
X68747452Y-6983660D01*
X68784434Y-7025919D01*
X68826981Y-7091281D01*
X68859193Y-7160247D01*
X68866723Y-7180484D01*
X68886472Y-7252497D01*
X68897993Y-7331523D01*
X68901325Y-7408642D01*
X68898141Y-7482960D01*
X68887283Y-7560246D01*
X68868719Y-7632857D01*
X68850080Y-7682225D01*
X68814051Y-7749750D01*
X68768335Y-7809445D01*
X68727489Y-7848758D01*
X68663922Y-7893331D01*
X68596510Y-7926315D01*
X68576588Y-7933844D01*
X68505204Y-7953594D01*
X68426164Y-7965114D01*
X68348482Y-7968447D01*
X68299808Y-7967430D01*
X68221832Y-7960956D01*
X68145150Y-7947198D01*
X68089804Y-7933057D01*
X68019487Y-7907264D01*
X68046598Y-7728112D01*
X68081513Y-7741986D01*
X68153210Y-7762916D01*
X68171396Y-7767124D01*
X68248671Y-7777906D01*
X68327233Y-7780868D01*
X68382327Y-7778829D01*
X68460580Y-7767082D01*
X68534054Y-7741387D01*
X68597609Y-7697337D01*
X68622831Y-7669338D01*
X68662487Y-7601961D01*
X68685880Y-7528352D01*
X68696894Y-7452606D01*
X67945481Y-7452606D01*
X67943283Y-7416702D01*
X67943283Y-7385195D01*
X67943745Y-7351444D01*
X67948945Y-7271874D01*
X67950044Y-7265027D01*
X68148080Y-7265027D01*
X68692498Y-7265027D01*
X68689673Y-7248605D01*
X68666120Y-7178932D01*
X68656550Y-7160812D01*
X68610066Y-7103827D01*
X68588624Y-7086471D01*
X68522505Y-7051071D01*
X68477933Y-7037787D01*
X68403436Y-7030554D01*
X68353335Y-7033710D01*
X68278949Y-7053803D01*
X68214759Y-7096500D01*
X68194970Y-7118002D01*
X68158025Y-7187726D01*
X68148080Y-7265027D01*
X67950044Y-7265027D01*
X67962813Y-7185458D01*
X67985001Y-7108933D01*
X68015509Y-7042301D01*
X68061618Y-6977065D01*
X68109502Y-6931496D01*
X68174580Y-6890247D01*
X68249581Y-6861832D01*
X68321764Y-6847690D01*
X68401238Y-6842976D01*
X68436680Y-6844212D01*
G37*
D11*
G36*
X80206465Y-2514511D02*
G01*
X80389509Y-2521423D01*
X80574197Y-2532617D01*
X80746603Y-2547293D01*
X80929693Y-2570187D01*
X81105914Y-2600151D01*
X81105914Y-5905001D01*
X80338258Y-5905001D01*
X80338258Y-4756082D01*
X80097191Y-4756082D01*
X80049505Y-4755823D01*
X79865692Y-4749612D01*
X79651517Y-4730203D01*
X79454663Y-4697854D01*
X79275132Y-4652565D01*
X79082561Y-4581138D01*
X78914933Y-4491079D01*
X78840992Y-4438315D01*
X78714928Y-4315297D01*
X78617956Y-4168957D01*
X78550076Y-3999296D01*
X78511287Y-3806314D01*
X78501186Y-3627680D01*
X78501280Y-3623406D01*
X79294487Y-3623406D01*
X79301579Y-3720208D01*
X79365609Y-3888086D01*
X79496231Y-3998685D01*
X79549753Y-4022327D01*
X79728756Y-4071089D01*
X79909925Y-4093253D01*
X80097191Y-4099557D01*
X80338258Y-4099557D01*
X80338258Y-3183158D01*
X80198063Y-3174610D01*
X80033077Y-3169481D01*
X79901880Y-3172867D01*
X79727896Y-3189997D01*
X79661698Y-3202285D01*
X79494521Y-3263514D01*
X79471080Y-3277299D01*
X79346632Y-3403710D01*
X79323819Y-3449818D01*
X79294487Y-3623406D01*
X78501280Y-3623406D01*
X78502782Y-3554821D01*
X78526724Y-3351831D01*
X78579398Y-3172222D01*
X78660802Y-3015995D01*
X78770938Y-2883149D01*
X78909804Y-2773685D01*
X78989538Y-2727090D01*
X79167714Y-2647649D01*
X79335249Y-2595452D01*
X79520106Y-2555986D01*
X79722286Y-2529251D01*
X79896501Y-2517030D01*
X80081803Y-2512956D01*
X80206465Y-2514511D01*
G37*
G36*
X77056148Y-2514976D02*
G01*
X77227162Y-2521037D01*
X77399284Y-2530053D01*
X77417268Y-2531153D01*
X77594716Y-2545646D01*
X77767823Y-2566482D01*
X77953227Y-2596731D01*
X77953227Y-5870807D01*
X77769338Y-5903975D01*
X77583227Y-5928255D01*
X77412107Y-5942614D01*
X77294619Y-5949276D01*
X77108629Y-5956889D01*
X76929117Y-5959711D01*
X76844947Y-5958772D01*
X76654630Y-5949276D01*
X76472821Y-5929553D01*
X76299520Y-5899604D01*
X76111880Y-5852855D01*
X75957875Y-5800992D01*
X75794893Y-5729198D01*
X75645802Y-5644047D01*
X75494678Y-5532286D01*
X75403557Y-5448237D01*
X75282202Y-5307512D01*
X75179239Y-5149206D01*
X75103157Y-4993730D01*
X75086387Y-4952584D01*
X75030128Y-4779317D01*
X74991179Y-4592158D01*
X74971298Y-4416999D01*
X74964763Y-4233769D01*
X75757117Y-4233769D01*
X75761472Y-4355625D01*
X75790048Y-4552610D01*
X75845294Y-4728897D01*
X75927211Y-4884486D01*
X76035799Y-5019376D01*
X76053454Y-5036837D01*
X76193358Y-5143543D01*
X76361814Y-5223087D01*
X76528931Y-5269650D01*
X76717025Y-5296257D01*
X76889794Y-5303186D01*
X77060764Y-5300622D01*
X77185572Y-5292928D01*
X77185572Y-3184868D01*
X77028279Y-3172045D01*
X76865003Y-3169481D01*
X76692526Y-3176076D01*
X76505554Y-3201401D01*
X76340401Y-3245719D01*
X76175299Y-3321430D01*
X76022976Y-3439613D01*
X75932625Y-3549578D01*
X75850843Y-3700585D01*
X75794504Y-3876054D01*
X75766464Y-4045926D01*
X75757117Y-4233769D01*
X74964763Y-4233769D01*
X74964672Y-4231204D01*
X74965212Y-4174761D01*
X74975626Y-3985255D01*
X74999293Y-3808267D01*
X75042570Y-3621322D01*
X75103157Y-3450726D01*
X75149068Y-3351805D01*
X75246328Y-3188157D01*
X75362386Y-3043037D01*
X75497243Y-2916445D01*
X75613936Y-2830215D01*
X75778275Y-2735217D01*
X75937865Y-2665760D01*
X76110170Y-2610409D01*
X76177723Y-2592993D01*
X76364841Y-2554925D01*
X76536898Y-2531609D01*
X76716726Y-2517619D01*
X76904326Y-2512956D01*
X77056148Y-2514976D01*
G37*
G36*
X73007920Y-5959711D02*
G01*
X73181668Y-5953460D01*
X73362319Y-5931483D01*
X73544642Y-5888507D01*
X73628541Y-5859693D01*
X73797085Y-5781739D01*
X73944214Y-5685401D01*
X74059385Y-5581867D01*
X74174470Y-5438894D01*
X74264549Y-5276686D01*
X74310711Y-5157862D01*
X74356947Y-4982541D01*
X74382326Y-4812639D01*
X74391843Y-4632720D01*
X74391922Y-4614177D01*
X74391922Y-2512956D01*
X73623412Y-2512956D01*
X73623412Y-4551773D01*
X73613269Y-4730778D01*
X73577250Y-4901407D01*
X73505122Y-5060222D01*
X73449023Y-5135636D01*
X73307171Y-5241904D01*
X73251552Y-5264718D01*
X73081961Y-5299429D01*
X72997662Y-5303186D01*
X72817419Y-5283085D01*
X72649360Y-5215304D01*
X72542882Y-5133071D01*
X72443109Y-4987246D01*
X72388345Y-4805590D01*
X72369178Y-4626606D01*
X72367637Y-4551773D01*
X72367637Y-2512956D01*
X71599982Y-2512956D01*
X71599982Y-4614177D01*
X71608163Y-4795348D01*
X71632707Y-4967003D01*
X71678603Y-5144831D01*
X71683757Y-5160426D01*
X71751858Y-5323066D01*
X71850112Y-5481366D01*
X71940212Y-5586996D01*
X72069453Y-5699745D01*
X72220917Y-5793503D01*
X72377896Y-5862258D01*
X72553657Y-5913649D01*
X72728260Y-5943627D01*
X72918414Y-5958188D01*
X73007920Y-5959711D01*
G37*
G36*
X69947557Y-5303186D02*
G01*
X69774572Y-5293844D01*
X69679134Y-5276686D01*
X69517948Y-5210468D01*
X69509874Y-5204878D01*
X69420969Y-5097167D01*
X69396179Y-4958682D01*
X69446218Y-4792577D01*
X69554326Y-4687694D01*
X69704152Y-4604386D01*
X69877676Y-4531106D01*
X70048353Y-4469958D01*
X70095446Y-4454320D01*
X70262997Y-4392130D01*
X70430547Y-4321818D01*
X70589549Y-4236975D01*
X70731454Y-4132897D01*
X70851775Y-4007234D01*
X70947732Y-3857635D01*
X71007863Y-3690150D01*
X71030198Y-3520383D01*
X71031507Y-3463549D01*
X71016975Y-3282799D01*
X70973380Y-3117004D01*
X70943457Y-3045527D01*
X70851594Y-2893264D01*
X70731588Y-2762599D01*
X70692131Y-2729233D01*
X70548324Y-2632981D01*
X70382225Y-2556764D01*
X70298046Y-2528343D01*
X70116003Y-2485627D01*
X69934557Y-2463790D01*
X69775732Y-2458245D01*
X69589319Y-2464128D01*
X69417647Y-2481777D01*
X69244189Y-2515186D01*
X69179902Y-2532617D01*
X69003910Y-2589919D01*
X68841468Y-2656880D01*
X68766154Y-2695039D01*
X68987561Y-3301982D01*
X69148411Y-3228696D01*
X69305565Y-3172045D01*
X69484833Y-3130935D01*
X69665724Y-3115665D01*
X69726151Y-3114770D01*
X69897597Y-3123558D01*
X70072131Y-3163867D01*
X70122801Y-3189142D01*
X70231564Y-3328576D01*
X70243335Y-3416532D01*
X70198883Y-3570405D01*
X70073220Y-3682391D01*
X69918528Y-3760807D01*
X69886008Y-3773860D01*
X69722590Y-3834169D01*
X69652634Y-3858490D01*
X69478038Y-3924598D01*
X69319807Y-3990100D01*
X69190160Y-4049121D01*
X69030300Y-4137455D01*
X68887709Y-4245534D01*
X68862752Y-4268818D01*
X68748630Y-4405380D01*
X68667847Y-4563741D01*
X68621828Y-4738200D01*
X68604735Y-4914924D01*
X68603733Y-4974069D01*
X68619768Y-5168997D01*
X68667873Y-5343882D01*
X68748049Y-5498722D01*
X68860295Y-5633519D01*
X68938834Y-5701546D01*
X69101388Y-5802140D01*
X69266702Y-5868698D01*
X69455997Y-5917104D01*
X69632064Y-5943576D01*
X69824785Y-5957442D01*
X69948412Y-5959711D01*
X70125135Y-5955196D01*
X70299044Y-5940236D01*
X70357030Y-5932356D01*
X70528641Y-5902009D01*
X70679309Y-5865677D01*
X70846380Y-5811857D01*
X70920376Y-5781902D01*
X71077230Y-5705545D01*
X71090491Y-5698127D01*
X70873360Y-5086054D01*
X70714315Y-5160837D01*
X70551255Y-5219571D01*
X70496371Y-5236508D01*
X70314208Y-5277140D01*
X70140733Y-5296675D01*
X69967761Y-5303121D01*
X69947557Y-5303186D01*
G37*
G36*
X67158548Y-2515582D02*
G01*
X67338525Y-2523461D01*
X67510380Y-2535182D01*
X67664583Y-2548961D01*
X67843504Y-2570578D01*
X68026709Y-2600151D01*
X68026709Y-5862258D01*
X67989289Y-5869985D01*
X67804795Y-5903211D01*
X67624643Y-5927420D01*
X67448831Y-5942614D01*
X67413985Y-5944684D01*
X67239459Y-5953032D01*
X67064432Y-5958041D01*
X66888904Y-5959711D01*
X66840977Y-5959440D01*
X66656717Y-5952949D01*
X66443146Y-5932663D01*
X66248192Y-5898853D01*
X66071854Y-5851519D01*
X65884823Y-5776867D01*
X65724598Y-5682740D01*
X65700511Y-5665162D01*
X65572043Y-5548516D01*
X65456957Y-5388194D01*
X65388135Y-5230003D01*
X65346841Y-5052638D01*
X65333077Y-4856100D01*
X65333239Y-4853535D01*
X66111845Y-4853535D01*
X66119299Y-4944637D01*
X66186585Y-5102846D01*
X66323848Y-5207443D01*
X66350762Y-5219037D01*
X66517415Y-5269433D01*
X66696265Y-5295613D01*
X66879501Y-5303186D01*
X66923338Y-5303036D01*
X67096632Y-5298912D01*
X67102762Y-5298587D01*
X67278715Y-5284379D01*
X67278715Y-4427820D01*
X66796580Y-4427820D01*
X66641158Y-4433964D01*
X66458683Y-4462477D01*
X66289654Y-4526128D01*
X66257878Y-4545564D01*
X66145879Y-4677686D01*
X66111845Y-4853535D01*
X65333239Y-4853535D01*
X65342476Y-4707584D01*
X65379493Y-4538002D01*
X65451901Y-4367980D01*
X65467455Y-4341196D01*
X65581893Y-4206657D01*
X65728353Y-4103106D01*
X65894713Y-4025185D01*
X65870468Y-4011135D01*
X65722301Y-3903850D01*
X65599149Y-3762105D01*
X65525258Y-3599951D01*
X65507202Y-3466114D01*
X66244347Y-3466114D01*
X66269601Y-3582160D01*
X66397365Y-3699488D01*
X66539978Y-3743245D01*
X66720763Y-3765615D01*
X66904291Y-3771295D01*
X67278715Y-3771295D01*
X67278715Y-3181449D01*
X67250348Y-3179190D01*
X67076971Y-3172045D01*
X67041817Y-3171306D01*
X66864968Y-3169481D01*
X66738528Y-3172671D01*
X66568432Y-3190578D01*
X66402494Y-3236159D01*
X66306123Y-3299351D01*
X66244347Y-3466114D01*
X65507202Y-3466114D01*
X65500628Y-3417387D01*
X65504534Y-3324713D01*
X65535790Y-3156494D01*
X65611758Y-2989107D01*
X65648348Y-2936259D01*
X65773450Y-2805828D01*
X65919504Y-2707862D01*
X66036186Y-2652759D01*
X66210696Y-2594856D01*
X66389672Y-2557408D01*
X66441268Y-2549464D01*
X66619985Y-2528627D01*
X66809054Y-2516472D01*
X66988066Y-2512956D01*
X67158548Y-2515582D01*
G37*
D10*
X15257800Y-21710839D02*
X15210180Y-21567982D01*
X15210180Y-21567982D02*
X15210180Y-21329887D01*
X15210180Y-21329887D02*
X15257800Y-21234649D01*
X15257800Y-21234649D02*
X15305419Y-21187030D01*
X15305419Y-21187030D02*
X15400657Y-21139411D01*
X15400657Y-21139411D02*
X15495895Y-21139411D01*
X15495895Y-21139411D02*
X15591133Y-21187030D01*
X15591133Y-21187030D02*
X15638752Y-21234649D01*
X15638752Y-21234649D02*
X15686371Y-21329887D01*
X15686371Y-21329887D02*
X15733990Y-21520363D01*
X15733990Y-21520363D02*
X15781609Y-21615601D01*
X15781609Y-21615601D02*
X15829228Y-21663220D01*
X15829228Y-21663220D02*
X15924466Y-21710839D01*
X15924466Y-21710839D02*
X16019704Y-21710839D01*
X16019704Y-21710839D02*
X16114942Y-21663220D01*
X16114942Y-21663220D02*
X16162561Y-21615601D01*
X16162561Y-21615601D02*
X16210180Y-21520363D01*
X16210180Y-21520363D02*
X16210180Y-21282268D01*
X16210180Y-21282268D02*
X16162561Y-21139411D01*
X16210180Y-20806077D02*
X15210180Y-20567982D01*
X15210180Y-20567982D02*
X15924466Y-20377506D01*
X15924466Y-20377506D02*
X15210180Y-20187030D01*
X15210180Y-20187030D02*
X16210180Y-19948935D01*
X15210180Y-19567982D02*
X16210180Y-19567982D01*
X16210180Y-19567982D02*
X16210180Y-19329887D01*
X16210180Y-19329887D02*
X16162561Y-19187030D01*
X16162561Y-19187030D02*
X16067323Y-19091792D01*
X16067323Y-19091792D02*
X15972085Y-19044173D01*
X15972085Y-19044173D02*
X15781609Y-18996554D01*
X15781609Y-18996554D02*
X15638752Y-18996554D01*
X15638752Y-18996554D02*
X15448276Y-19044173D01*
X15448276Y-19044173D02*
X15353038Y-19091792D01*
X15353038Y-19091792D02*
X15257800Y-19187030D01*
X15257800Y-19187030D02*
X15210180Y-19329887D01*
X15210180Y-19329887D02*
X15210180Y-19567982D01*
%LPC*%
D12*
%TO.C,J3*%
X82595000Y-19890000D03*
X82595000Y-14110000D03*
D13*
X82095000Y-21320000D03*
D14*
X86275000Y-21320000D03*
D13*
X82095000Y-12680000D03*
D14*
X86275000Y-12680000D03*
%TD*%
D15*
%TO.C,J6*%
X10670000Y-23030000D03*
D16*
X13210000Y-23030000D03*
X15750000Y-23030000D03*
%TD*%
D15*
%TO.C,J2*%
X84000000Y-4640000D03*
D16*
X84000000Y-7180000D03*
X84000000Y-9720000D03*
%TD*%
D17*
%TO.C,J1*%
X4600000Y-5650000D03*
D18*
X4050000Y-6650000D03*
X4050000Y-7650000D03*
X4050000Y-8650000D03*
X4050000Y-9650000D03*
X4050000Y-10650000D03*
X4050000Y-11650000D03*
X4050000Y-12650000D03*
X4050000Y-13650000D03*
X4050000Y-14650000D03*
X4050000Y-15650000D03*
X4050000Y-18650000D03*
X4050000Y-19650000D03*
X4050000Y-20650000D03*
X4050000Y-21650000D03*
X4050000Y-22650000D03*
X4050000Y-23650000D03*
X4050000Y-24650000D03*
%TD*%
D15*
%TO.C,J4*%
X23600000Y-12400000D03*
D16*
X21060000Y-12400000D03*
%TD*%
D19*
%TO.C,H1*%
X13000000Y-4000000D03*
%TD*%
D15*
%TO.C,J5*%
X35850000Y-9170000D03*
D16*
X33310000Y-9170000D03*
X30770000Y-9170000D03*
X28230000Y-9170000D03*
%TD*%
%LPD*%
M02*
