%TF.GenerationSoftware,KiCad,Pcbnew,8.0.3*%
%TF.CreationDate,2024-06-27T20:48:53-04:00*%
%TF.ProjectId,charger-module,63686172-6765-4722-9d6d-6f64756c652e,v0.0.0*%
%TF.SameCoordinates,Original*%
%TF.FileFunction,Copper,L1,Top*%
%TF.FilePolarity,Positive*%
%FSLAX46Y46*%
G04 Gerber Fmt 4.6, Leading zero omitted, Abs format (unit mm)*
G04 Created by KiCad (PCBNEW 8.0.3) date 2024-06-27 20:48:53*
%MOMM*%
%LPD*%
G01*
G04 APERTURE LIST*
G04 Aperture macros list*
%AMRoundRect*
0 Rectangle with rounded corners*
0 $1 Rounding radius*
0 $2 $3 $4 $5 $6 $7 $8 $9 X,Y pos of 4 corners*
0 Add a 4 corners polygon primitive as box body*
4,1,4,$2,$3,$4,$5,$6,$7,$8,$9,$2,$3,0*
0 Add four circle primitives for the rounded corners*
1,1,$1+$1,$2,$3*
1,1,$1+$1,$4,$5*
1,1,$1+$1,$6,$7*
1,1,$1+$1,$8,$9*
0 Add four rect primitives between the rounded corners*
20,1,$1+$1,$2,$3,$4,$5,0*
20,1,$1+$1,$4,$5,$6,$7,0*
20,1,$1+$1,$6,$7,$8,$9,0*
20,1,$1+$1,$8,$9,$2,$3,0*%
%AMFreePoly0*
4,1,5,0.450000,-0.150000,-0.450000,-0.150000,-0.450000,0.150000,0.450000,0.150000,0.450000,-0.150000,0.450000,-0.150000,$1*%
%AMFreePoly1*
4,1,5,0.150000,-0.475000,-0.150000,-0.475000,-0.150000,0.475000,0.150000,0.475000,0.150000,-0.475000,0.150000,-0.475000,$1*%
G04 Aperture macros list end*
%TA.AperFunction,SMDPad,CuDef*%
%ADD10RoundRect,0.140000X-0.140000X-0.170000X0.140000X-0.170000X0.140000X0.170000X-0.140000X0.170000X0*%
%TD*%
%TA.AperFunction,SMDPad,CuDef*%
%ADD11R,1.150000X0.300000*%
%TD*%
%TA.AperFunction,ComponentPad*%
%ADD12O,2.100000X1.000000*%
%TD*%
%TA.AperFunction,ComponentPad*%
%ADD13O,1.600000X1.000000*%
%TD*%
%TA.AperFunction,SMDPad,CuDef*%
%ADD14RoundRect,0.200000X0.275000X-0.200000X0.275000X0.200000X-0.275000X0.200000X-0.275000X-0.200000X0*%
%TD*%
%TA.AperFunction,SMDPad,CuDef*%
%ADD15RoundRect,0.250000X-0.650000X0.325000X-0.650000X-0.325000X0.650000X-0.325000X0.650000X0.325000X0*%
%TD*%
%TA.AperFunction,SMDPad,CuDef*%
%ADD16RoundRect,0.135000X-0.185000X0.135000X-0.185000X-0.135000X0.185000X-0.135000X0.185000X0.135000X0*%
%TD*%
%TA.AperFunction,SMDPad,CuDef*%
%ADD17RoundRect,0.140000X0.140000X0.170000X-0.140000X0.170000X-0.140000X-0.170000X0.140000X-0.170000X0*%
%TD*%
%TA.AperFunction,SMDPad,CuDef*%
%ADD18R,3.500000X2.350000*%
%TD*%
%TA.AperFunction,SMDPad,CuDef*%
%ADD19RoundRect,0.135000X0.185000X-0.135000X0.185000X0.135000X-0.185000X0.135000X-0.185000X-0.135000X0*%
%TD*%
%TA.AperFunction,SMDPad,CuDef*%
%ADD20RoundRect,0.250000X-0.475000X0.250000X-0.475000X-0.250000X0.475000X-0.250000X0.475000X0.250000X0*%
%TD*%
%TA.AperFunction,SMDPad,CuDef*%
%ADD21RoundRect,0.140000X-0.170000X0.140000X-0.170000X-0.140000X0.170000X-0.140000X0.170000X0.140000X0*%
%TD*%
%TA.AperFunction,SMDPad,CuDef*%
%ADD22RoundRect,0.250000X1.500000X0.550000X-1.500000X0.550000X-1.500000X-0.550000X1.500000X-0.550000X0*%
%TD*%
%TA.AperFunction,SMDPad,CuDef*%
%ADD23RoundRect,0.140000X0.170000X-0.140000X0.170000X0.140000X-0.170000X0.140000X-0.170000X-0.140000X0*%
%TD*%
%TA.AperFunction,SMDPad,CuDef*%
%ADD24RoundRect,0.375000X-0.375000X0.625000X-0.375000X-0.625000X0.375000X-0.625000X0.375000X0.625000X0*%
%TD*%
%TA.AperFunction,SMDPad,CuDef*%
%ADD25RoundRect,0.500000X-1.400000X0.500000X-1.400000X-0.500000X1.400000X-0.500000X1.400000X0.500000X0*%
%TD*%
%TA.AperFunction,ComponentPad*%
%ADD26R,1.700000X1.700000*%
%TD*%
%TA.AperFunction,ComponentPad*%
%ADD27O,1.700000X1.700000*%
%TD*%
%TA.AperFunction,SMDPad,CuDef*%
%ADD28RoundRect,0.250000X-0.250000X-0.475000X0.250000X-0.475000X0.250000X0.475000X-0.250000X0.475000X0*%
%TD*%
%TA.AperFunction,SMDPad,CuDef*%
%ADD29RoundRect,0.250000X0.475000X-0.250000X0.475000X0.250000X-0.475000X0.250000X-0.475000X-0.250000X0*%
%TD*%
%TA.AperFunction,SMDPad,CuDef*%
%ADD30RoundRect,0.250000X0.250000X0.475000X-0.250000X0.475000X-0.250000X-0.475000X0.250000X-0.475000X0*%
%TD*%
%TA.AperFunction,ConnectorPad*%
%ADD31R,4.300000X0.700000*%
%TD*%
%TA.AperFunction,ConnectorPad*%
%ADD32R,3.200000X0.700000*%
%TD*%
%TA.AperFunction,SMDPad,CuDef*%
%ADD33RoundRect,0.250000X0.650000X-0.325000X0.650000X0.325000X-0.650000X0.325000X-0.650000X-0.325000X0*%
%TD*%
%TA.AperFunction,SMDPad,CuDef*%
%ADD34R,2.100000X0.300000*%
%TD*%
%TA.AperFunction,SMDPad,CuDef*%
%ADD35R,2.100000X0.400000*%
%TD*%
%TA.AperFunction,SMDPad,CuDef*%
%ADD36FreePoly0,0.000000*%
%TD*%
%TA.AperFunction,SMDPad,CuDef*%
%ADD37FreePoly1,0.000000*%
%TD*%
%TA.AperFunction,SMDPad,CuDef*%
%ADD38R,0.250000X0.950000*%
%TD*%
%TA.AperFunction,SMDPad,CuDef*%
%ADD39R,1.300000X0.300000*%
%TD*%
%TA.AperFunction,SMDPad,CuDef*%
%ADD40RoundRect,0.250000X0.375000X0.625000X-0.375000X0.625000X-0.375000X-0.625000X0.375000X-0.625000X0*%
%TD*%
%TA.AperFunction,SMDPad,CuDef*%
%ADD41RoundRect,0.250000X-1.000000X1.500000X-1.000000X-1.500000X1.000000X-1.500000X1.000000X1.500000X0*%
%TD*%
%TA.AperFunction,SMDPad,CuDef*%
%ADD42RoundRect,0.050000X-0.050000X0.387500X-0.050000X-0.387500X0.050000X-0.387500X0.050000X0.387500X0*%
%TD*%
%TA.AperFunction,SMDPad,CuDef*%
%ADD43RoundRect,0.050000X-0.387500X0.050000X-0.387500X-0.050000X0.387500X-0.050000X0.387500X0.050000X0*%
%TD*%
%TA.AperFunction,HeatsinkPad*%
%ADD44R,3.200000X3.200000*%
%TD*%
%TA.AperFunction,SMDPad,CuDef*%
%ADD45R,1.200000X1.400000*%
%TD*%
%TA.AperFunction,SMDPad,CuDef*%
%ADD46RoundRect,0.102500X0.257500X0.102500X-0.257500X0.102500X-0.257500X-0.102500X0.257500X-0.102500X0*%
%TD*%
%TA.AperFunction,SMDPad,CuDef*%
%ADD47R,0.510000X0.585000*%
%TD*%
%TA.AperFunction,SMDPad,CuDef*%
%ADD48R,3.990000X3.960000*%
%TD*%
%TA.AperFunction,SMDPad,CuDef*%
%ADD49R,0.410000X0.470000*%
%TD*%
%TA.AperFunction,SMDPad,CuDef*%
%ADD50RoundRect,0.135000X-0.135000X-0.185000X0.135000X-0.185000X0.135000X0.185000X-0.135000X0.185000X0*%
%TD*%
%TA.AperFunction,SMDPad,CuDef*%
%ADD51R,0.800000X0.750000*%
%TD*%
%TA.AperFunction,SMDPad,CuDef*%
%ADD52R,0.800000X0.600000*%
%TD*%
%TA.AperFunction,SMDPad,CuDef*%
%ADD53R,0.800000X0.400000*%
%TD*%
%TA.AperFunction,SMDPad,CuDef*%
%ADD54R,0.800000X0.800000*%
%TD*%
%TA.AperFunction,SMDPad,CuDef*%
%ADD55RoundRect,0.225000X0.225000X0.250000X-0.225000X0.250000X-0.225000X-0.250000X0.225000X-0.250000X0*%
%TD*%
%TA.AperFunction,ComponentPad*%
%ADD56C,6.000000*%
%TD*%
%TA.AperFunction,SMDPad,CuDef*%
%ADD57RoundRect,0.135000X0.135000X0.185000X-0.135000X0.185000X-0.135000X-0.185000X0.135000X-0.185000X0*%
%TD*%
%TA.AperFunction,SMDPad,CuDef*%
%ADD58R,5.100000X3.500000*%
%TD*%
%TA.AperFunction,SMDPad,CuDef*%
%ADD59RoundRect,0.150000X-0.650000X-0.150000X0.650000X-0.150000X0.650000X0.150000X-0.650000X0.150000X0*%
%TD*%
%TA.AperFunction,SMDPad,CuDef*%
%ADD60RoundRect,0.225000X-0.225000X-0.250000X0.225000X-0.250000X0.225000X0.250000X-0.225000X0.250000X0*%
%TD*%
%TA.AperFunction,SMDPad,CuDef*%
%ADD61R,1.050000X0.400000*%
%TD*%
%TA.AperFunction,SMDPad,CuDef*%
%ADD62R,2.350000X3.500000*%
%TD*%
%TA.AperFunction,ViaPad*%
%ADD63C,0.500000*%
%TD*%
%TA.AperFunction,ViaPad*%
%ADD64C,0.600000*%
%TD*%
%TA.AperFunction,ViaPad*%
%ADD65C,0.450000*%
%TD*%
%TA.AperFunction,Conductor*%
%ADD66C,0.250000*%
%TD*%
%TA.AperFunction,Conductor*%
%ADD67C,0.200000*%
%TD*%
%TA.AperFunction,Conductor*%
%ADD68C,0.600000*%
%TD*%
%TA.AperFunction,Conductor*%
%ADD69C,0.300000*%
%TD*%
%TA.AperFunction,Conductor*%
%ADD70C,0.400000*%
%TD*%
%TA.AperFunction,Conductor*%
%ADD71C,0.150000*%
%TD*%
G04 APERTURE END LIST*
D10*
%TO.P,C1,1*%
%TO.N,VCC*%
X66380000Y-8540000D03*
%TO.P,C1,2*%
%TO.N,GND*%
X67340000Y-8540000D03*
%TD*%
D11*
%TO.P,J3,A1,GND*%
%TO.N,GNDUSB*%
X81530000Y-20350000D03*
%TO.P,J3,A4,VBUS*%
%TO.N,VBUS*%
X81530000Y-19550000D03*
%TO.P,J3,A5,CC1*%
%TO.N,CC1*%
X81530000Y-18250000D03*
%TO.P,J3,A6,D+*%
%TO.N,D+*%
X81530000Y-17250000D03*
%TO.P,J3,A7,D-*%
%TO.N,D-*%
X81530000Y-16750000D03*
%TO.P,J3,A8,SBU1*%
%TO.N,unconnected-(J3-SBU1-PadA8)*%
X81530000Y-15750000D03*
%TO.P,J3,A9,VBUS*%
%TO.N,VBUS*%
X81530000Y-14450000D03*
%TO.P,J3,A12,GND*%
%TO.N,GNDUSB*%
X81530000Y-13650000D03*
%TO.P,J3,B1,GND*%
X81530000Y-13950000D03*
%TO.P,J3,B4,VBUS*%
%TO.N,VBUS*%
X81530000Y-14750000D03*
%TO.P,J3,B5,CC2*%
%TO.N,CC2*%
X81530000Y-15250000D03*
%TO.P,J3,B6,D+*%
%TO.N,D+*%
X81530000Y-16250000D03*
%TO.P,J3,B7,D-*%
%TO.N,D-*%
X81530000Y-17750000D03*
%TO.P,J3,B8,SBU2*%
%TO.N,unconnected-(J3-SBU2-PadB8)*%
X81530000Y-18750000D03*
%TO.P,J3,B9,VBUS*%
%TO.N,VBUS*%
X81530000Y-19250000D03*
%TO.P,J3,B12,GND*%
%TO.N,GNDUSB*%
X81530000Y-20050000D03*
D12*
%TO.P,J3,S1,SHIELD*%
%TO.N,Net-(J3-SHIELD)*%
X82095000Y-21320000D03*
D13*
X86275000Y-21320000D03*
D12*
X82095000Y-12680000D03*
D13*
X86275000Y-12680000D03*
%TD*%
D14*
%TO.P,R7,1*%
%TO.N,Net-(J3-SHIELD)*%
X81470000Y-10755000D03*
%TO.P,R7,2*%
%TO.N,GNDUSB*%
X81470000Y-9105000D03*
%TD*%
D15*
%TO.P,C5,1*%
%TO.N,/EMI_VIN*%
X56640000Y-8925000D03*
%TO.P,C5,2*%
%TO.N,GND*%
X56640000Y-11875000D03*
%TD*%
D16*
%TO.P,R8,1*%
%TO.N,/RP2040/QSPI_SS*%
X23580000Y-9030000D03*
%TO.P,R8,2*%
%TO.N,/RP2040/~{USB_BOOT}*%
X23580000Y-10050000D03*
%TD*%
D17*
%TO.P,C34,1*%
%TO.N,+3V3*%
X16510000Y-19610000D03*
%TO.P,C34,2*%
%TO.N,GND*%
X15550000Y-19610000D03*
%TD*%
D18*
%TO.P,L2,1,1*%
%TO.N,/INDUCTOR*%
X73110000Y-9665000D03*
%TO.P,L2,2,2*%
%TO.N,/OUTDUCTOR*%
X73110000Y-15715000D03*
%TD*%
D19*
%TO.P,R16,1*%
%TO.N,VOUT_DIVIDER*%
X54080000Y-16590000D03*
%TO.P,R16,2*%
%TO.N,GND*%
X54080000Y-15570000D03*
%TD*%
D20*
%TO.P,C6,1*%
%TO.N,/EMI_VIN*%
X61070000Y-10050000D03*
%TO.P,C6,2*%
%TO.N,GND*%
X61070000Y-11950000D03*
%TD*%
D21*
%TO.P,C22,1*%
%TO.N,Net-(C22-Pad1)*%
X14450000Y-19870000D03*
%TO.P,C22,2*%
%TO.N,GND*%
X14450000Y-20830000D03*
%TD*%
%TO.P,C18,1*%
%TO.N,CC1*%
X66300000Y-17270000D03*
%TO.P,C18,2*%
%TO.N,GND*%
X66300000Y-18230000D03*
%TD*%
D16*
%TO.P,R1,1*%
%TO.N,OVERLOAD*%
X67300000Y-17240000D03*
%TO.P,R1,2*%
%TO.N,GND*%
X67300000Y-18260000D03*
%TD*%
D22*
%TO.P,C15,1*%
%TO.N,VBUS*%
X60950000Y-20850000D03*
%TO.P,C15,2*%
%TO.N,GNDUSB*%
X55550000Y-20850000D03*
%TD*%
D23*
%TO.P,C36,1*%
%TO.N,+3V3*%
X29975000Y-23005000D03*
%TO.P,C36,2*%
%TO.N,GND*%
X29975000Y-22045000D03*
%TD*%
D24*
%TO.P,U2,1,GND*%
%TO.N,GND*%
X44370000Y-12360000D03*
%TO.P,U2,2,VO*%
%TO.N,+3V3*%
X42070000Y-12360000D03*
D25*
X42070000Y-18660000D03*
D24*
%TO.P,U2,3,VI*%
%TO.N,+5V*%
X39770000Y-12360000D03*
%TD*%
D14*
%TO.P,R3,1*%
%TO.N,Net-(U1-BST1)*%
X68830000Y-10535000D03*
%TO.P,R3,2*%
%TO.N,Net-(C7-Pad1)*%
X68830000Y-8885000D03*
%TD*%
D10*
%TO.P,C30,1*%
%TO.N,+3V3*%
X26990000Y-22300000D03*
%TO.P,C30,2*%
%TO.N,GND*%
X27950000Y-22300000D03*
%TD*%
%TO.P,C26,1*%
%TO.N,+1V1*%
X27645000Y-18675000D03*
%TO.P,C26,2*%
%TO.N,GND*%
X28605000Y-18675000D03*
%TD*%
%TO.P,C29,1*%
%TO.N,+3V3*%
X27645000Y-19700000D03*
%TO.P,C29,2*%
%TO.N,GND*%
X28605000Y-19700000D03*
%TD*%
D26*
%TO.P,J6,1,Pin_1*%
%TO.N,/RP2040/SWCLK*%
X10670000Y-23030000D03*
D27*
%TO.P,J6,2,Pin_2*%
%TO.N,GND*%
X13210000Y-23030000D03*
%TO.P,J6,3,Pin_3*%
%TO.N,/RP2040/SWD*%
X15750000Y-23030000D03*
%TD*%
D17*
%TO.P,C27,1*%
%TO.N,+1V1*%
X16505000Y-20630000D03*
%TO.P,C27,2*%
%TO.N,GND*%
X15545000Y-20630000D03*
%TD*%
D28*
%TO.P,C23,1*%
%TO.N,+5V*%
X39520000Y-10110000D03*
%TO.P,C23,2*%
%TO.N,GND*%
X41420000Y-10110000D03*
%TD*%
D19*
%TO.P,R15,1*%
%TO.N,VBUS*%
X55020000Y-16590000D03*
%TO.P,R15,2*%
%TO.N,VOUT_DIVIDER*%
X55020000Y-15570000D03*
%TD*%
D16*
%TO.P,R13,1*%
%TO.N,VIN*%
X14380000Y-11730000D03*
%TO.P,R13,2*%
%TO.N,VIN_DIVIDER*%
X14380000Y-12750000D03*
%TD*%
D10*
%TO.P,C31,1*%
%TO.N,+3V3*%
X24245000Y-14675000D03*
%TO.P,C31,2*%
%TO.N,GND*%
X25205000Y-14675000D03*
%TD*%
D29*
%TO.P,C13,1*%
%TO.N,VBUS*%
X61070000Y-15350000D03*
%TO.P,C13,2*%
%TO.N,GND*%
X61070000Y-13450000D03*
%TD*%
D30*
%TO.P,C20,1*%
%TO.N,Net-(J3-SHIELD)*%
X79990000Y-10420000D03*
%TO.P,C20,2*%
%TO.N,GNDUSB*%
X78090000Y-10420000D03*
%TD*%
D26*
%TO.P,J2,1,Pin_1*%
%TO.N,GND*%
X84000000Y-4640000D03*
D27*
%TO.P,J2,2,Pin_2*%
%TO.N,+5V*%
X84000000Y-7180000D03*
%TO.P,J2,3,Pin_3*%
%TO.N,LED_DIN*%
X84000000Y-9720000D03*
%TD*%
D31*
%TO.P,J1,B1,+12V*%
%TO.N,/VIN_PREFUSE*%
X4050000Y-5650000D03*
%TO.P,J1,B2,+12V*%
X4050000Y-6650000D03*
%TO.P,J1,B3,+12V*%
X4050000Y-7650000D03*
%TO.P,J1,B4,GND*%
%TO.N,GND*%
X4050000Y-8650000D03*
%TO.P,J1,B5,SMCLK*%
%TO.N,SCL*%
X4050000Y-9650000D03*
%TO.P,J1,B6,SMDAT*%
%TO.N,SDA*%
X4050000Y-10650000D03*
%TO.P,J1,B7,GND*%
%TO.N,GND*%
X4050000Y-11650000D03*
%TO.P,J1,B8,+3.3V*%
%TO.N,+5V*%
X4050000Y-12650000D03*
%TO.P,J1,B9,JTAG1*%
%TO.N,OVERLOAD*%
X4050000Y-13650000D03*
%TO.P,J1,B10,3.3Vaux*%
%TO.N,VDD*%
X4050000Y-14650000D03*
%TO.P,J1,B11,~{WAKE}*%
%TO.N,ALERT*%
X4050000Y-15650000D03*
%TO.P,J1,B12,RSVD*%
%TO.N,unconnected-(J1-RSVD-PadB12)*%
X4050000Y-18650000D03*
%TO.P,J1,B13,GND*%
%TO.N,GND*%
X4050000Y-19650000D03*
%TO.P,J1,B14,PETp0*%
%TO.N,unconnected-(J1-PETp0-PadB14)*%
X4050000Y-20650000D03*
%TO.P,J1,B15,PETn0*%
%TO.N,unconnected-(J1-PETn0-PadB15)*%
X4050000Y-21650000D03*
%TO.P,J1,B16,GND*%
%TO.N,GND*%
X4050000Y-22650000D03*
D32*
%TO.P,J1,B17,~{PRSNT2}*%
%TO.N,unconnected-(J1-~{PRSNT2}-PadB17)*%
X4600000Y-23650000D03*
D31*
%TO.P,J1,B18,GND*%
%TO.N,GND*%
X4050000Y-24650000D03*
%TD*%
D15*
%TO.P,C14,1*%
%TO.N,GNDUSB*%
X78650000Y-12615000D03*
%TO.P,C14,2*%
%TO.N,VBUS*%
X78650000Y-15565000D03*
%TD*%
D21*
%TO.P,C16,1*%
%TO.N,D-*%
X65300000Y-17270000D03*
%TO.P,C16,2*%
%TO.N,GND*%
X65300000Y-18230000D03*
%TD*%
D33*
%TO.P,C10,1*%
%TO.N,VBUS*%
X56640000Y-16475000D03*
%TO.P,C10,2*%
%TO.N,GND*%
X56640000Y-13525000D03*
%TD*%
D34*
%TO.P,U1,1,VIN*%
%TO.N,/EMI_VIN*%
X64300000Y-11385000D03*
D35*
%TO.P,U1,2,PGND*%
%TO.N,GND*%
X64300000Y-12685000D03*
%TO.P,U1,3,OUT*%
%TO.N,VBUS*%
X64300000Y-13935000D03*
D36*
%TO.P,U1,4,CC2*%
%TO.N,CC2*%
X63700000Y-14685000D03*
D37*
X64000000Y-15010000D03*
D38*
%TO.P,U1,5,DP*%
%TO.N,D+*%
X64550000Y-15010000D03*
%TO.P,U1,6,DM*%
%TO.N,D-*%
X65050000Y-15010000D03*
%TO.P,U1,7,CC1*%
%TO.N,CC1*%
X65550000Y-15010000D03*
%TO.P,U1,8,GPIO2*%
%TO.N,OVERLOAD*%
X66050000Y-15010000D03*
%TO.P,U1,9,SDA*%
%TO.N,SDA*%
X66550000Y-15010000D03*
D37*
%TO.P,U1,10,SCL*%
%TO.N,SCL*%
X67100000Y-15010000D03*
D36*
X67400000Y-14685000D03*
D39*
%TO.P,U1,11,BST2*%
%TO.N,Net-(U1-BST2)*%
X67200000Y-13985000D03*
D34*
%TO.P,U1,12,SW2*%
%TO.N,/OUTDUCTOR*%
X66800000Y-13385000D03*
D39*
%TO.P,U1,13,EN*%
%TO.N,ENABLE*%
X67200000Y-12685000D03*
D34*
%TO.P,U1,14,SW1*%
%TO.N,/INDUCTOR*%
X66800000Y-11985000D03*
D39*
%TO.P,U1,15,BST1*%
%TO.N,Net-(U1-BST1)*%
X67200000Y-11385000D03*
D37*
%TO.P,U1,16,HS_G*%
%TO.N,Net-(Q1-G)*%
X67100000Y-10360000D03*
D36*
X67400000Y-10685000D03*
D38*
%TO.P,U1,17,AGND*%
%TO.N,GND*%
X66550000Y-10360000D03*
%TO.P,U1,18,VCC*%
%TO.N,VCC*%
X66050000Y-10360000D03*
%TO.P,U1,19,ICOMP*%
%TO.N,Net-(U1-ICOMP)*%
X65550000Y-10360000D03*
%TO.P,U1,20,GPIO1*%
%TO.N,Net-(U1-GPIO1)*%
X65050000Y-10360000D03*
%TO.P,U1,21,ISENS-*%
%TO.N,GND*%
X64550000Y-10360000D03*
D36*
%TO.P,U1,22,ISENS+*%
%TO.N,GNDUSB*%
X63700000Y-10685000D03*
D37*
X64000000Y-10360000D03*
%TD*%
D40*
%TO.P,F1,1*%
%TO.N,VIN*%
X14770000Y-9700000D03*
%TO.P,F1,2*%
%TO.N,/VIN_PREFUSE*%
X11970000Y-9700000D03*
%TD*%
D21*
%TO.P,C17,1*%
%TO.N,D+*%
X64300000Y-17270000D03*
%TO.P,C17,2*%
%TO.N,GND*%
X64300000Y-18230000D03*
%TD*%
D33*
%TO.P,C12,1*%
%TO.N,VBUS*%
X58940000Y-16475000D03*
%TO.P,C12,2*%
%TO.N,GND*%
X58940000Y-13525000D03*
%TD*%
D29*
%TO.P,C37,1*%
%TO.N,+3V3*%
X18200000Y-14125000D03*
%TO.P,C37,2*%
%TO.N,GND*%
X18200000Y-12225000D03*
%TD*%
D21*
%TO.P,C19,1*%
%TO.N,CC2*%
X63300000Y-17270000D03*
%TO.P,C19,2*%
%TO.N,GND*%
X63300000Y-18230000D03*
%TD*%
D17*
%TO.P,C2,1*%
%TO.N,Net-(U1-ICOMP)*%
X65220000Y-8540000D03*
%TO.P,C2,2*%
%TO.N,GND*%
X64260000Y-8540000D03*
%TD*%
D41*
%TO.P,C3,1*%
%TO.N,/EMI_VIN*%
X51070000Y-6730000D03*
%TO.P,C3,2*%
%TO.N,GND*%
X51070000Y-13230000D03*
%TD*%
D42*
%TO.P,U4,1,IOVDD*%
%TO.N,+3V3*%
X24250000Y-15862500D03*
%TO.P,U4,2,GPIO0*%
%TO.N,/RP2040/GPIO0*%
X23850000Y-15862500D03*
%TO.P,U4,3,GPIO1*%
%TO.N,LED_DIN*%
X23450000Y-15862500D03*
%TO.P,U4,4,GPIO2*%
%TO.N,/RP2040/GPIO2*%
X23050000Y-15862500D03*
%TO.P,U4,5,GPIO3*%
%TO.N,/RP2040/GPIO3*%
X22650000Y-15862500D03*
%TO.P,U4,6,GPIO4*%
%TO.N,SDA*%
X22250000Y-15862500D03*
%TO.P,U4,7,GPIO5*%
%TO.N,SCL*%
X21850000Y-15862500D03*
%TO.P,U4,8,GPIO6*%
%TO.N,/RP2040/GPIO6*%
X21450000Y-15862500D03*
%TO.P,U4,9,GPIO7*%
%TO.N,/RP2040/GPIO7*%
X21050000Y-15862500D03*
%TO.P,U4,10,IOVDD*%
%TO.N,+3V3*%
X20650000Y-15862500D03*
%TO.P,U4,11,GPIO8*%
%TO.N,/RP2040/GPIO8*%
X20250000Y-15862500D03*
%TO.P,U4,12,GPIO9*%
%TO.N,/RP2040/GPIO9*%
X19850000Y-15862500D03*
%TO.P,U4,13,GPIO10*%
%TO.N,/RP2040/GPIO10*%
X19450000Y-15862500D03*
%TO.P,U4,14,GPIO11*%
%TO.N,/RP2040/GPIO11*%
X19050000Y-15862500D03*
D43*
%TO.P,U4,15,GPIO12*%
%TO.N,ALERT*%
X18212500Y-16700000D03*
%TO.P,U4,16,GPIO13*%
%TO.N,/RP2040/GPIO13*%
X18212500Y-17100000D03*
%TO.P,U4,17,GPIO14*%
%TO.N,/RP2040/GPIO14*%
X18212500Y-17500000D03*
%TO.P,U4,18,GPIO15*%
%TO.N,/RP2040/GPIO15*%
X18212500Y-17900000D03*
%TO.P,U4,19,TESTEN*%
%TO.N,GND*%
X18212500Y-18300000D03*
%TO.P,U4,20,XIN*%
%TO.N,/RP2040/XIN*%
X18212500Y-18700000D03*
%TO.P,U4,21,XOUT*%
%TO.N,/RP2040/XOUT*%
X18212500Y-19100000D03*
%TO.P,U4,22,IOVDD*%
%TO.N,+3V3*%
X18212500Y-19500000D03*
%TO.P,U4,23,DVDD*%
%TO.N,+1V1*%
X18212500Y-19900000D03*
%TO.P,U4,24,SWCLK*%
%TO.N,/RP2040/SWCLK*%
X18212500Y-20300000D03*
%TO.P,U4,25,SWD*%
%TO.N,/RP2040/SWD*%
X18212500Y-20700000D03*
%TO.P,U4,26,RUN*%
%TO.N,/RP2040/RUN*%
X18212500Y-21100000D03*
%TO.P,U4,27,GPIO16*%
%TO.N,/RP2040/GPIO16*%
X18212500Y-21500000D03*
%TO.P,U4,28,GPIO17*%
%TO.N,/RP2040/GPIO17*%
X18212500Y-21900000D03*
D42*
%TO.P,U4,29,GPIO18*%
%TO.N,/RP2040/GPIO18*%
X19050000Y-22737500D03*
%TO.P,U4,30,GPIO19*%
%TO.N,/RP2040/GPIO19*%
X19450000Y-22737500D03*
%TO.P,U4,31,GPIO20*%
%TO.N,/RP2040/GPIO20*%
X19850000Y-22737500D03*
%TO.P,U4,32,GPIO21*%
%TO.N,/RP2040/GPIO21*%
X20250000Y-22737500D03*
%TO.P,U4,33,IOVDD*%
%TO.N,+3V3*%
X20650000Y-22737500D03*
%TO.P,U4,34,GPIO22*%
%TO.N,ENABLE*%
X21050000Y-22737500D03*
%TO.P,U4,35,GPIO23*%
%TO.N,/RP2040/GPIO23*%
X21450000Y-22737500D03*
%TO.P,U4,36,GPIO24*%
%TO.N,OVERLOAD*%
X21850000Y-22737500D03*
%TO.P,U4,37,GPIO25*%
%TO.N,/RP2040/GPIO25*%
X22250000Y-22737500D03*
%TO.P,U4,38,GPIO26_ADC0*%
%TO.N,VIN_DIVIDER*%
X22650000Y-22737500D03*
%TO.P,U4,39,GPIO27_ADC1*%
%TO.N,IMON*%
X23050000Y-22737500D03*
%TO.P,U4,40,GPIO28_ADC2*%
%TO.N,VOUT_DIVIDER*%
X23450000Y-22737500D03*
%TO.P,U4,41,GPIO29_ADC3*%
%TO.N,/RP2040/GPIO29_ADC3*%
X23850000Y-22737500D03*
%TO.P,U4,42,IOVDD*%
%TO.N,+3V3*%
X24250000Y-22737500D03*
D43*
%TO.P,U4,43,ADC_AVDD*%
X25087500Y-21900000D03*
%TO.P,U4,44,VREG_IN*%
X25087500Y-21500000D03*
%TO.P,U4,45,VREG_VOUT*%
%TO.N,+1V1*%
X25087500Y-21100000D03*
%TO.P,U4,46,USB_DM*%
%TO.N,Net-(U4-USB_DM)*%
X25087500Y-20700000D03*
%TO.P,U4,47,USB_DP*%
%TO.N,Net-(U4-USB_DP)*%
X25087500Y-20300000D03*
%TO.P,U4,48,USB_VDD*%
%TO.N,+3V3*%
X25087500Y-19900000D03*
%TO.P,U4,49,IOVDD*%
X25087500Y-19500000D03*
%TO.P,U4,50,DVDD*%
%TO.N,+1V1*%
X25087500Y-19100000D03*
%TO.P,U4,51,QSPI_SD3*%
%TO.N,/RP2040/QSPI_SD3*%
X25087500Y-18700000D03*
%TO.P,U4,52,QSPI_SCLK*%
%TO.N,/RP2040/QSPI_SCLK*%
X25087500Y-18300000D03*
%TO.P,U4,53,QSPI_SD0*%
%TO.N,/RP2040/QSPI_SD0*%
X25087500Y-17900000D03*
%TO.P,U4,54,QSPI_SD2*%
%TO.N,/RP2040/QSPI_SD2*%
X25087500Y-17500000D03*
%TO.P,U4,55,QSPI_SD1*%
%TO.N,/RP2040/QSPI_SD1*%
X25087500Y-17100000D03*
%TO.P,U4,56,QSPI_SS*%
%TO.N,/RP2040/QSPI_SS*%
X25087500Y-16700000D03*
D44*
%TO.P,U4,57,GND*%
%TO.N,GND*%
X21650000Y-19300000D03*
%TD*%
D45*
%TO.P,Y1,1,1*%
%TO.N,/RP2040/XIN*%
X11300000Y-17950000D03*
%TO.P,Y1,2,2*%
%TO.N,GND*%
X11300000Y-20150000D03*
%TO.P,Y1,3,3*%
%TO.N,Net-(C22-Pad1)*%
X13000000Y-20150000D03*
%TO.P,Y1,4,4*%
%TO.N,GND*%
X13000000Y-17950000D03*
%TD*%
D30*
%TO.P,C24,1*%
%TO.N,+3V3*%
X39300000Y-20900000D03*
%TO.P,C24,2*%
%TO.N,GND*%
X37400000Y-20900000D03*
%TD*%
D16*
%TO.P,R9,1*%
%TO.N,+3V3*%
X24780000Y-9030000D03*
%TO.P,R9,2*%
%TO.N,/RP2040/QSPI_SS*%
X24780000Y-10050000D03*
%TD*%
D46*
%TO.P,Q1,1,S*%
%TO.N,/INDUCTOR*%
X64735000Y-6595000D03*
X64735000Y-5325000D03*
X64735000Y-4055000D03*
%TO.P,Q1,2,G*%
%TO.N,Net-(Q1-G)*%
X64735000Y-2785000D03*
D47*
%TO.P,Q1,3,D*%
%TO.N,/EMI_VIN*%
X62020000Y-6962500D03*
X62020000Y-2417500D03*
D48*
X60940000Y-4690000D03*
D49*
X59150000Y-6905000D03*
X59150000Y-2475000D03*
%TD*%
D50*
%TO.P,R4,1*%
%TO.N,IMON*%
X33740000Y-19025000D03*
%TO.P,R4,2*%
%TO.N,Net-(U1-GPIO1)*%
X34760000Y-19025000D03*
%TD*%
D14*
%TO.P,R6,1*%
%TO.N,Net-(C11-Pad2)*%
X68830000Y-16485000D03*
%TO.P,R6,2*%
%TO.N,Net-(U1-BST2)*%
X68830000Y-14835000D03*
%TD*%
D51*
%TO.P,D2,1,DIN*%
%TO.N,LED_DIN*%
X87250000Y-8500000D03*
D52*
%TO.P,D2,2,VDD*%
%TO.N,+5V*%
X87250000Y-7375000D03*
D53*
%TO.P,D2,3,DOUT*%
%TO.N,unconnected-(D2-DOUT-Pad3)*%
X87250000Y-6495000D03*
D54*
%TO.P,D2,4,GND*%
%TO.N,GND*%
X87250000Y-5515000D03*
%TD*%
D55*
%TO.P,C11,1*%
%TO.N,/OUTDUCTOR*%
X70355000Y-17870000D03*
%TO.P,C11,2*%
%TO.N,Net-(C11-Pad2)*%
X68805000Y-17870000D03*
%TD*%
D15*
%TO.P,C4,1*%
%TO.N,/EMI_VIN*%
X58940000Y-8925000D03*
%TO.P,C4,2*%
%TO.N,GND*%
X58940000Y-11875000D03*
%TD*%
D17*
%TO.P,C32,1*%
%TO.N,+3V3*%
X18920000Y-23900000D03*
%TO.P,C32,2*%
%TO.N,GND*%
X17960000Y-23900000D03*
%TD*%
D26*
%TO.P,J4,1,Pin_1*%
%TO.N,/RP2040/~{USB_BOOT}*%
X23600000Y-12400000D03*
D27*
%TO.P,J4,2,Pin_2*%
%TO.N,GND*%
X21060000Y-12400000D03*
%TD*%
D56*
%TO.P,H1,1,1*%
%TO.N,GND*%
X13000000Y-4000000D03*
%TD*%
D57*
%TO.P,R12,1*%
%TO.N,/RP2040/USB_D-*%
X30585000Y-21025000D03*
%TO.P,R12,2*%
%TO.N,Net-(U4-USB_DM)*%
X29565000Y-21025000D03*
%TD*%
D10*
%TO.P,C28,1*%
%TO.N,+1V1*%
X26990000Y-21300000D03*
%TO.P,C28,2*%
%TO.N,GND*%
X27950000Y-21300000D03*
%TD*%
D58*
%TO.P,R2,1*%
%TO.N,GND*%
X50800000Y-17690000D03*
%TO.P,R2,2*%
%TO.N,GNDUSB*%
X50800000Y-21800000D03*
%TD*%
D23*
%TO.P,C35,1*%
%TO.N,+3V3*%
X28950000Y-23005000D03*
%TO.P,C35,2*%
%TO.N,GND*%
X28950000Y-22045000D03*
%TD*%
D26*
%TO.P,J5,1,Pin_1*%
%TO.N,GND*%
X35850000Y-9170000D03*
D27*
%TO.P,J5,2,Pin_2*%
%TO.N,/RP2040/USB_D-*%
X33310000Y-9170000D03*
%TO.P,J5,3,Pin_3*%
%TO.N,/RP2040/USB_D+*%
X30770000Y-9170000D03*
%TO.P,J5,4,Pin_4*%
%TO.N,+5V*%
X28230000Y-9170000D03*
%TD*%
D59*
%TO.P,U3,1,~{CS}*%
%TO.N,/RP2040/QSPI_SS*%
X27775000Y-12270000D03*
%TO.P,U3,2,DO(IO1)*%
%TO.N,/RP2040/QSPI_SD1*%
X27775000Y-13540000D03*
%TO.P,U3,3,IO2*%
%TO.N,/RP2040/QSPI_SD2*%
X27775000Y-14810000D03*
%TO.P,U3,4,GND*%
%TO.N,GND*%
X27775000Y-16080000D03*
%TO.P,U3,5,DI(IO0)*%
%TO.N,/RP2040/QSPI_SD0*%
X34975000Y-16080000D03*
%TO.P,U3,6,CLK*%
%TO.N,/RP2040/QSPI_SCLK*%
X34975000Y-14810000D03*
%TO.P,U3,7,IO3*%
%TO.N,/RP2040/QSPI_SD3*%
X34975000Y-13540000D03*
%TO.P,U3,8,VCC*%
%TO.N,+3V3*%
X34975000Y-12270000D03*
%TD*%
D57*
%TO.P,R11,1*%
%TO.N,/RP2040/USB_D+*%
X30585000Y-20000000D03*
%TO.P,R11,2*%
%TO.N,Net-(U4-USB_DP)*%
X29565000Y-20000000D03*
%TD*%
D16*
%TO.P,R14,1*%
%TO.N,VIN_DIVIDER*%
X14380000Y-13700000D03*
%TO.P,R14,2*%
%TO.N,GND*%
X14380000Y-14720000D03*
%TD*%
D23*
%TO.P,C25,1*%
%TO.N,+3V3*%
X25980000Y-10020000D03*
%TO.P,C25,2*%
%TO.N,GND*%
X25980000Y-9060000D03*
%TD*%
D60*
%TO.P,C7,1*%
%TO.N,Net-(C7-Pad1)*%
X68805000Y-7500000D03*
%TO.P,C7,2*%
%TO.N,/INDUCTOR*%
X70355000Y-7500000D03*
%TD*%
D10*
%TO.P,C8,1*%
%TO.N,GND*%
X31820000Y-19025000D03*
%TO.P,C8,2*%
%TO.N,IMON*%
X32780000Y-19025000D03*
%TD*%
D61*
%TO.P,D1,1,C1*%
%TO.N,CC2*%
X79140000Y-23090000D03*
%TO.P,D1,2,C2*%
%TO.N,D+*%
X79140000Y-22440000D03*
%TO.P,D1,3,A/3+4*%
%TO.N,GND*%
X79140000Y-21790000D03*
%TO.P,D1,4,C3*%
%TO.N,CC1*%
X77240000Y-21790000D03*
%TO.P,D1,5,C4*%
%TO.N,D-*%
X77240000Y-22440000D03*
%TO.P,D1,6,A/1+2*%
%TO.N,GND*%
X77240000Y-23090000D03*
%TD*%
D62*
%TO.P,L1,1,1*%
%TO.N,VIN*%
X39125000Y-5480000D03*
%TO.P,L1,2,2*%
%TO.N,/EMI_VIN*%
X45175000Y-5480000D03*
%TD*%
D57*
%TO.P,R10,1*%
%TO.N,/RP2040/XOUT*%
X16540000Y-18600000D03*
%TO.P,R10,2*%
%TO.N,Net-(C22-Pad1)*%
X15520000Y-18600000D03*
%TD*%
D10*
%TO.P,C33,1*%
%TO.N,+3V3*%
X20090000Y-14675000D03*
%TO.P,C33,2*%
%TO.N,GND*%
X21050000Y-14675000D03*
%TD*%
D23*
%TO.P,C21,1*%
%TO.N,/RP2040/XIN*%
X14450000Y-18355000D03*
%TO.P,C21,2*%
%TO.N,GND*%
X14450000Y-17395000D03*
%TD*%
D63*
%TO.N,GND*%
X81000000Y-23500000D03*
D64*
X20350000Y-20600000D03*
D65*
X67340000Y-7960000D03*
D63*
X71000000Y-2000000D03*
X47600000Y-11110000D03*
X27950000Y-21300000D03*
X74000000Y-4000000D03*
X80000000Y-2000000D03*
X74000000Y-2000000D03*
X27000000Y-2000000D03*
X45000000Y-2000000D03*
D65*
X67900000Y-8540000D03*
D63*
X61090000Y-11980000D03*
X45500000Y-16000000D03*
D65*
X63740000Y-7895000D03*
D63*
X42000000Y-2000000D03*
X47000000Y-19000000D03*
X45500000Y-22000000D03*
X48000000Y-2000000D03*
D65*
X79750000Y-7750000D03*
D63*
X45500000Y-19000000D03*
X48550000Y-11110000D03*
D65*
X67340000Y-9130000D03*
X62450000Y-12315000D03*
X79750000Y-5750000D03*
D63*
X51000000Y-2000000D03*
D64*
X21650000Y-18000000D03*
X9630000Y-14570000D03*
D65*
X64850000Y-12315000D03*
D63*
X61050000Y-13450000D03*
X77000000Y-2000000D03*
X53280000Y-12090000D03*
X9250000Y-23000000D03*
X36000000Y-2000000D03*
D65*
X77500000Y-7750000D03*
X82000000Y-5750000D03*
D63*
X21000000Y-2000000D03*
X47600000Y-12090000D03*
D65*
X65570000Y-12685000D03*
D63*
X54210000Y-12070000D03*
X56640000Y-13500000D03*
X75300000Y-23500000D03*
D65*
X79570000Y-21814998D03*
D63*
X80000000Y-4000000D03*
X57000000Y-2000000D03*
D65*
X64130000Y-9380000D03*
D63*
X47580000Y-13110000D03*
X57420000Y-12130000D03*
D65*
X64050000Y-13040000D03*
D63*
X33000000Y-2000000D03*
D64*
X22975000Y-18000000D03*
D63*
X50590000Y-11120000D03*
X18000000Y-2000000D03*
X8000000Y-20000000D03*
D65*
X64050000Y-12315000D03*
D63*
X39000000Y-2000000D03*
X30000000Y-2000000D03*
D65*
X77500000Y-5750000D03*
D63*
X53280000Y-13100000D03*
X53290000Y-11110000D03*
X68000000Y-2000000D03*
X48550000Y-13110000D03*
X8000000Y-24000000D03*
D65*
X62450000Y-13040000D03*
X63300000Y-18230000D03*
D63*
X47000000Y-16000000D03*
X50590000Y-12080000D03*
X8310000Y-10720000D03*
D65*
X63250000Y-12315000D03*
D63*
X48540000Y-12080000D03*
X47000000Y-14000000D03*
X7700000Y-10100000D03*
D64*
X22975000Y-19275000D03*
X21650000Y-20600000D03*
X22975000Y-20600000D03*
D65*
X63250000Y-13040000D03*
D63*
X67300000Y-18260000D03*
X28605000Y-19700000D03*
X58940000Y-13525000D03*
D64*
X20350000Y-18000000D03*
D63*
X77000000Y-4000000D03*
X8000000Y-22000000D03*
X54000000Y-2000000D03*
D64*
X20350000Y-19275000D03*
D65*
X66300000Y-18230000D03*
D64*
X21650000Y-19275000D03*
D63*
X24000000Y-2000000D03*
X50580000Y-13100000D03*
X50800000Y-16470000D03*
D65*
X64850000Y-13040000D03*
X64548978Y-7895000D03*
D63*
X45500000Y-14000000D03*
X58940000Y-11880000D03*
X9250000Y-21000000D03*
D65*
%TO.N,IMON*%
X23250000Y-24150000D03*
D63*
X32780000Y-19025000D03*
%TO.N,VBUS*%
X58900000Y-17340000D03*
X58890000Y-15400000D03*
X56720000Y-15400000D03*
D65*
X63250000Y-13940000D03*
D63*
X57820000Y-17340000D03*
X57800000Y-15400000D03*
D65*
X65070000Y-13940000D03*
X64150000Y-13940000D03*
D63*
X56720000Y-17340000D03*
%TO.N,GNDUSB*%
X63500000Y-10250000D03*
X46700000Y-20800000D03*
X47700000Y-23800000D03*
X53900000Y-23800000D03*
X55900000Y-22800000D03*
X56900000Y-23800000D03*
X54900000Y-23800000D03*
X47700000Y-22800000D03*
X46700000Y-22800000D03*
X79330000Y-11530000D03*
X53900000Y-22800000D03*
X47700000Y-20800000D03*
X47700000Y-21800000D03*
X56900000Y-22800000D03*
X50800000Y-23020000D03*
X79430000Y-13610000D03*
X46700000Y-21800000D03*
X55900000Y-23800000D03*
X78000000Y-13610000D03*
X80750000Y-11530000D03*
X83610000Y-11540000D03*
X78000000Y-11550000D03*
X54900000Y-22800000D03*
X46700000Y-23800000D03*
%TO.N,D-*%
X65300000Y-17270000D03*
X80680000Y-17750000D03*
D65*
X76880000Y-22440000D03*
D63*
%TO.N,D+*%
X82400000Y-17250000D03*
D65*
X78718769Y-22448694D03*
D63*
X64300000Y-17270000D03*
D65*
%TO.N,CC1*%
X66300000Y-17270000D03*
D63*
X82400000Y-18250000D03*
D65*
X77360000Y-21800000D03*
D63*
%TO.N,CC2*%
X82400000Y-15250000D03*
D65*
X79441715Y-23105333D03*
X63300000Y-17270000D03*
%TO.N,LED_DIN*%
X23575000Y-14250000D03*
D63*
%TO.N,+5V*%
X39760000Y-12350000D03*
X29970000Y-10900000D03*
X7500000Y-13700000D03*
%TO.N,SCL*%
X9508211Y-12566789D03*
D65*
X67750000Y-15890000D03*
X22150000Y-14450000D03*
%TO.N,ENABLE*%
X20980000Y-24150000D03*
X66370000Y-12685000D03*
%TO.N,SDA*%
X22775000Y-14975000D03*
X66920958Y-15909008D03*
D63*
X9617157Y-13382843D03*
D65*
%TO.N,OVERLOAD*%
X21660000Y-23700000D03*
D63*
X12250000Y-16800000D03*
D65*
X66075000Y-15950000D03*
D63*
%TO.N,ALERT*%
X17400000Y-16700000D03*
X7000000Y-15550000D03*
%TO.N,Net-(Q1-G)*%
X67200000Y-9970000D03*
D65*
X64735000Y-2815000D03*
D63*
%TO.N,Net-(U1-GPIO1)*%
X34760000Y-19025000D03*
D65*
X65000000Y-9390000D03*
D63*
%TO.N,/EMI_VIN*%
X61500000Y-10710000D03*
X60710000Y-10710000D03*
D65*
X63250000Y-11350000D03*
D63*
X59180000Y-10710000D03*
X59960000Y-10710000D03*
D65*
X64150000Y-11350000D03*
X65070000Y-11350000D03*
D63*
%TO.N,+3V3*%
X42070000Y-12360000D03*
X28375000Y-11550000D03*
X34975000Y-12270000D03*
D64*
%TO.N,+1V1*%
X17220000Y-20090000D03*
X23750000Y-20000000D03*
X26557926Y-19109905D03*
X19550000Y-19900000D03*
D63*
%TO.N,/VIN_PREFUSE*%
X7100000Y-7650000D03*
X7100000Y-6650000D03*
X7900000Y-6650000D03*
X7100000Y-5700000D03*
X7900000Y-5700000D03*
X7900000Y-7650000D03*
D64*
%TO.N,VIN_DIVIDER*%
X15650000Y-17300000D03*
X14380000Y-12750000D03*
D65*
X22540000Y-23700000D03*
D64*
%TO.N,VOUT_DIVIDER*%
X54080000Y-16590000D03*
D65*
X24090000Y-24150000D03*
D63*
X36171992Y-21361992D03*
%TD*%
D66*
%TO.N,VCC*%
X66050000Y-8870000D02*
X66380000Y-8540000D01*
X66050000Y-10360000D02*
X66050000Y-8870000D01*
D67*
%TO.N,GND*%
X58940000Y-11875000D02*
X58940000Y-11880000D01*
X56640000Y-13525000D02*
X56640000Y-13500000D01*
D68*
X6250000Y-8650000D02*
X4050000Y-8650000D01*
D67*
X61070000Y-11960000D02*
X61090000Y-11980000D01*
D66*
X64130000Y-9380000D02*
X64130000Y-9390000D01*
D67*
X61070000Y-13450000D02*
X61050000Y-13450000D01*
X79570000Y-21814998D02*
X79545002Y-21790000D01*
X61070000Y-11950000D02*
X61070000Y-11960000D01*
D66*
X64550000Y-9810000D02*
X64550000Y-10360000D01*
D68*
X7700000Y-10100000D02*
X8310000Y-10710000D01*
D66*
X64130000Y-9390000D02*
X64550000Y-9810000D01*
D68*
X7700000Y-10100000D02*
X6250000Y-8650000D01*
D67*
X79545002Y-21790000D02*
X79140000Y-21790000D01*
D68*
X8310000Y-10710000D02*
X8310000Y-10720000D01*
D66*
%TO.N,Net-(U1-ICOMP)*%
X65220000Y-8540000D02*
X65550000Y-8870000D01*
X65550000Y-8870000D02*
X65550000Y-10360000D01*
D67*
%TO.N,IMON*%
X23050000Y-22737500D02*
X23050000Y-23950000D01*
X32780000Y-19025000D02*
X33740000Y-19025000D01*
X23050000Y-23950000D02*
X23250000Y-24150000D01*
D66*
%TO.N,VBUS*%
X55020000Y-16590000D02*
X56525000Y-16590000D01*
X56525000Y-16590000D02*
X56640000Y-16475000D01*
D69*
%TO.N,Net-(U1-BST2)*%
X67200000Y-13985000D02*
X67795000Y-13985000D01*
X68645000Y-14835000D02*
X68830000Y-14835000D01*
X67795000Y-13985000D02*
X68645000Y-14835000D01*
%TO.N,GNDUSB*%
X63500000Y-10250000D02*
X63500000Y-10485000D01*
X63500000Y-10485000D02*
X63700000Y-10685000D01*
%TO.N,D-*%
X80615000Y-16905000D02*
X80760000Y-16760000D01*
D67*
X65300000Y-16510000D02*
X65050000Y-16260000D01*
D69*
X80760000Y-16760000D02*
X81520000Y-16760000D01*
X80615000Y-17685000D02*
X80615000Y-16905000D01*
D67*
X65050000Y-16260000D02*
X65050000Y-15010000D01*
D69*
X80680000Y-17750000D02*
X80615000Y-17685000D01*
D67*
X65300000Y-17270000D02*
X65300000Y-16510000D01*
D69*
X81520000Y-17760000D02*
X81510000Y-17750000D01*
X81510000Y-17750000D02*
X80680000Y-17750000D01*
%TO.N,D+*%
X82270000Y-16260000D02*
X81520000Y-16260000D01*
X82465000Y-16455000D02*
X82270000Y-16260000D01*
X82400000Y-17250000D02*
X82465000Y-17185000D01*
X81530000Y-17250000D02*
X81520000Y-17260000D01*
X82465000Y-17185000D02*
X82465000Y-16455000D01*
D67*
X64550000Y-16270000D02*
X64550000Y-15010000D01*
X64300000Y-16520000D02*
X64550000Y-16270000D01*
D69*
X81530000Y-17250000D02*
X82400000Y-17250000D01*
D67*
X64300000Y-17270000D02*
X64300000Y-16520000D01*
%TO.N,CC1*%
X66300000Y-16917463D02*
X65550000Y-16167463D01*
X65550000Y-16167463D02*
X65550000Y-15010000D01*
X82400000Y-18250000D02*
X81530000Y-18250000D01*
X81530000Y-18250000D02*
X81520000Y-18260000D01*
X66300000Y-17270000D02*
X66300000Y-16917463D01*
%TO.N,CC2*%
X63300000Y-16270000D02*
X64000000Y-15570000D01*
X63300000Y-17270000D02*
X63300000Y-16270000D01*
X82399999Y-15249999D02*
X82400000Y-15250000D01*
X82400000Y-15250000D02*
X82390000Y-15260000D01*
X64000000Y-15570000D02*
X64000000Y-15010000D01*
X82390000Y-15260000D02*
X81520000Y-15260000D01*
D70*
%TO.N,Net-(J3-SHIELD)*%
X81470000Y-10755000D02*
X82085000Y-11370000D01*
X79990000Y-10420000D02*
X80320000Y-10750000D01*
X81465000Y-10750000D02*
X81470000Y-10755000D01*
X82085000Y-11370000D02*
X82085000Y-12690000D01*
X80320000Y-10750000D02*
X81465000Y-10750000D01*
D67*
%TO.N,LED_DIN*%
X87250000Y-8500000D02*
X85220000Y-8500000D01*
X23450000Y-14375000D02*
X23450000Y-15862500D01*
X23575000Y-14250000D02*
X23450000Y-14375000D01*
X85220000Y-8500000D02*
X84000000Y-9720000D01*
%TO.N,+5V*%
X7500000Y-13700000D02*
X6450000Y-12650000D01*
X84195000Y-7375000D02*
X87250000Y-7375000D01*
X84000000Y-7180000D02*
X84195000Y-7375000D01*
D66*
X39520000Y-10110000D02*
X39520000Y-12110000D01*
D67*
X28240000Y-9170000D02*
X28230000Y-9170000D01*
X29970000Y-10900000D02*
X28240000Y-9170000D01*
X6450000Y-12650000D02*
X4050000Y-12650000D01*
D66*
X39520000Y-12110000D02*
X39770000Y-12360000D01*
D67*
%TO.N,SCL*%
X22150000Y-14450000D02*
X21850000Y-14750000D01*
X9366789Y-12566789D02*
X6450000Y-9650000D01*
X67644413Y-15890000D02*
X67100000Y-15345587D01*
X67750000Y-15890000D02*
X67644413Y-15890000D01*
X21850000Y-14750000D02*
X21850000Y-15862500D01*
X6450000Y-9650000D02*
X4050000Y-9650000D01*
X9508211Y-12566789D02*
X9366789Y-12566789D01*
X67100000Y-15345587D02*
X67100000Y-15010000D01*
D71*
%TO.N,ENABLE*%
X21050000Y-24080000D02*
X21050000Y-22737500D01*
X20980000Y-24150000D02*
X21050000Y-24080000D01*
D69*
X67200000Y-12685000D02*
X66370000Y-12685000D01*
D67*
%TO.N,SDA*%
X66920958Y-15909008D02*
X66736545Y-15909008D01*
X6884314Y-10650000D02*
X4050000Y-10650000D01*
X22674350Y-14975000D02*
X22250000Y-15399350D01*
X9617157Y-13382843D02*
X6884314Y-10650000D01*
X66736545Y-15909008D02*
X66550000Y-15722463D01*
X22775000Y-14975000D02*
X22674350Y-14975000D01*
X22250000Y-15399350D02*
X22250000Y-15862500D01*
X66550000Y-15722463D02*
X66550000Y-15010000D01*
D71*
%TO.N,OVERLOAD*%
X21850000Y-23510000D02*
X21850000Y-22737500D01*
X66050000Y-15010000D02*
X66050000Y-15925000D01*
X4050000Y-13650000D02*
X6778248Y-13650000D01*
X8258248Y-15130000D02*
X10580000Y-15130000D01*
X10580000Y-15130000D02*
X12250000Y-16800000D01*
X66075000Y-16015000D02*
X67300000Y-17240000D01*
X21660000Y-23700000D02*
X21850000Y-23510000D01*
X66075000Y-15950000D02*
X66075000Y-16015000D01*
X66050000Y-15925000D02*
X66075000Y-15950000D01*
X6778248Y-13650000D02*
X8258248Y-15130000D01*
D67*
%TO.N,ALERT*%
X18212500Y-16700000D02*
X17400000Y-16700000D01*
X6900000Y-15650000D02*
X7000000Y-15550000D01*
X4050000Y-15650000D02*
X6900000Y-15650000D01*
D69*
%TO.N,Net-(Q1-G)*%
X67200000Y-9970000D02*
X67200000Y-10260000D01*
X67200000Y-10260000D02*
X67100000Y-10360000D01*
%TO.N,Net-(U1-BST1)*%
X67200000Y-11385000D02*
X67795000Y-11385000D01*
X68645000Y-10535000D02*
X68830000Y-10535000D01*
X67795000Y-11385000D02*
X68645000Y-10535000D01*
D66*
%TO.N,Net-(U1-GPIO1)*%
X65000000Y-9390000D02*
X65050000Y-9440000D01*
X65050000Y-9440000D02*
X65050000Y-10360000D01*
D68*
%TO.N,Net-(C7-Pad1)*%
X68830000Y-7525000D02*
X68805000Y-7500000D01*
X68830000Y-8885000D02*
X68830000Y-7525000D01*
D71*
%TO.N,/RP2040/XIN*%
X12225000Y-18875000D02*
X11300000Y-17950000D01*
X13930000Y-18875000D02*
X12225000Y-18875000D01*
X14775000Y-18355000D02*
X15170000Y-17960000D01*
X14450000Y-18355000D02*
X14775000Y-18355000D01*
X17600000Y-18700000D02*
X18212500Y-18700000D01*
X15170000Y-17960000D02*
X16860000Y-17960000D01*
X14450000Y-18355000D02*
X13930000Y-18875000D01*
X16860000Y-17960000D02*
X17600000Y-18700000D01*
D68*
%TO.N,Net-(C11-Pad2)*%
X68830000Y-17845000D02*
X68805000Y-17870000D01*
X68830000Y-16485000D02*
X68830000Y-17845000D01*
D67*
%TO.N,+3V3*%
X20650000Y-23200650D02*
X19950650Y-23900000D01*
X19375650Y-14125000D02*
X18200000Y-14125000D01*
X25087500Y-19500000D02*
X24350000Y-19500000D01*
D71*
X25980000Y-10020000D02*
X27510000Y-11550000D01*
D67*
X19950650Y-23900000D02*
X18920000Y-23900000D01*
X24250000Y-15862500D02*
X24250000Y-16600000D01*
X24250000Y-15862500D02*
X24250000Y-14680000D01*
X25087500Y-21500000D02*
X26200000Y-21500000D01*
X25087500Y-19900000D02*
X24350000Y-19900000D01*
X20650000Y-22737500D02*
X20650000Y-22000000D01*
X18212500Y-19500000D02*
X18950000Y-19500000D01*
X20650000Y-15862500D02*
X20650000Y-16600000D01*
X16940000Y-19610000D02*
X16510000Y-19610000D01*
D71*
X24780000Y-9030000D02*
X24990000Y-9030000D01*
D67*
X20650000Y-15399350D02*
X19375650Y-14125000D01*
X20650000Y-15862500D02*
X20650000Y-15399350D01*
X25087500Y-19500000D02*
X25975000Y-19500000D01*
X25087500Y-19900000D02*
X25975000Y-19900000D01*
X24250000Y-14680000D02*
X24245000Y-14675000D01*
X26200000Y-21500000D02*
X26425000Y-21725000D01*
X17050000Y-19500000D02*
X16940000Y-19610000D01*
X18212500Y-19500000D02*
X17050000Y-19500000D01*
X25975000Y-19500000D02*
X26175000Y-19700000D01*
D71*
X25980000Y-10020000D02*
X24990000Y-9030000D01*
D67*
X26175000Y-19700000D02*
X27645000Y-19700000D01*
X25975000Y-19900000D02*
X26175000Y-19700000D01*
X20650000Y-22737500D02*
X20650000Y-23200650D01*
D71*
X27510000Y-11550000D02*
X28375000Y-11550000D01*
D67*
%TO.N,+1V1*%
X16697818Y-20630000D02*
X16505000Y-20630000D01*
X18212500Y-19900000D02*
X17427818Y-19900000D01*
X26557926Y-19109905D02*
X26548021Y-19100000D01*
X26548021Y-19100000D02*
X25087500Y-19100000D01*
X27300000Y-18675000D02*
X27645000Y-18675000D01*
X17427818Y-19900000D02*
X16697818Y-20630000D01*
X25087500Y-21100000D02*
X26790000Y-21100000D01*
X26557926Y-19109905D02*
X26865095Y-19109905D01*
X25087500Y-21100000D02*
X24325000Y-21100000D01*
X26790000Y-21100000D02*
X26990000Y-21300000D01*
X26865095Y-19109905D02*
X27300000Y-18675000D01*
D71*
%TO.N,/RP2040/~{USB_BOOT}*%
X23600000Y-10070000D02*
X23600000Y-12400000D01*
X23580000Y-10050000D02*
X23600000Y-10070000D01*
%TO.N,/RP2040/SWD*%
X17784706Y-20700000D02*
X15750000Y-22734706D01*
X15750000Y-22734706D02*
X15750000Y-23030000D01*
X18212500Y-20700000D02*
X17784706Y-20700000D01*
%TO.N,/RP2040/SWCLK*%
X11745000Y-21955000D02*
X10670000Y-23030000D01*
X16105442Y-21955000D02*
X11745000Y-21955000D01*
X18212500Y-20300000D02*
X17760442Y-20300000D01*
X17760442Y-20300000D02*
X16105442Y-21955000D01*
%TO.N,/RP2040/QSPI_SS*%
X25775000Y-16012500D02*
X25775000Y-13470001D01*
X25775000Y-13470001D02*
X26975001Y-12270000D01*
X27010000Y-12270000D02*
X27775000Y-12270000D01*
X23760000Y-9030000D02*
X24780000Y-10050000D01*
X23580000Y-9030000D02*
X23760000Y-9030000D01*
X24780000Y-10050000D02*
X24790000Y-10050000D01*
X26975001Y-12270000D02*
X27775000Y-12270000D01*
X25087500Y-16700000D02*
X25775000Y-16012500D01*
X24790000Y-10050000D02*
X27010000Y-12270000D01*
%TO.N,/RP2040/XOUT*%
X17275000Y-19100000D02*
X18212500Y-19100000D01*
X16775000Y-18600000D02*
X17275000Y-19100000D01*
X16540000Y-18600000D02*
X16775000Y-18600000D01*
D67*
%TO.N,Net-(U4-USB_DP)*%
X28900000Y-20300000D02*
X29200000Y-20000000D01*
X25087500Y-20300000D02*
X28900000Y-20300000D01*
X29200000Y-20000000D02*
X29565000Y-20000000D01*
D66*
%TO.N,/RP2040/USB_D+*%
X37345000Y-18050944D02*
X37345000Y-12589056D01*
X31362501Y-20297500D02*
X35098444Y-20297500D01*
X30585000Y-20000000D02*
X31065001Y-20000000D01*
X35660944Y-10905000D02*
X32505000Y-10905000D01*
X32505000Y-10905000D02*
X30770000Y-9170000D01*
X37345000Y-12589056D02*
X35660944Y-10905000D01*
X31065001Y-20000000D02*
X31362501Y-20297500D01*
X35098444Y-20297500D02*
X37345000Y-18050944D01*
D67*
%TO.N,Net-(U4-USB_DM)*%
X28900000Y-20700000D02*
X29225000Y-21025000D01*
X25087500Y-20700000D02*
X28900000Y-20700000D01*
X29225000Y-21025000D02*
X29565000Y-21025000D01*
D66*
%TO.N,/RP2040/USB_D-*%
X34615000Y-10475000D02*
X33310000Y-9170000D01*
X37775000Y-18229056D02*
X37775000Y-12410944D01*
X31065001Y-21025000D02*
X31362501Y-20727500D01*
X30585000Y-21025000D02*
X31065001Y-21025000D01*
X37775000Y-12410944D02*
X35839056Y-10475000D01*
X31362501Y-20727500D02*
X35276556Y-20727500D01*
X35276556Y-20727500D02*
X37775000Y-18229056D01*
X35839056Y-10475000D02*
X34615000Y-10475000D01*
D71*
%TO.N,/RP2040/QSPI_SD1*%
X25087500Y-17100000D02*
X25550650Y-17100000D01*
X26225000Y-16425650D02*
X26225000Y-14300000D01*
X25550650Y-17100000D02*
X26225000Y-16425650D01*
X26225000Y-14300000D02*
X26985000Y-13540000D01*
X26985000Y-13540000D02*
X27775000Y-13540000D01*
%TO.N,/RP2040/QSPI_SD2*%
X25087500Y-17500000D02*
X26000000Y-17500000D01*
X26650000Y-16850000D02*
X26650000Y-15225000D01*
X27065000Y-14810000D02*
X27775000Y-14810000D01*
X26650000Y-15225000D02*
X27065000Y-14810000D01*
X26000000Y-17500000D02*
X26650000Y-16850000D01*
%TO.N,/RP2040/QSPI_SD3*%
X36475000Y-14275000D02*
X35740000Y-13540000D01*
X36475000Y-16675000D02*
X36475000Y-14275000D01*
X35740000Y-13540000D02*
X34975000Y-13540000D01*
X27150368Y-17775000D02*
X35375000Y-17775000D01*
X25087500Y-18700000D02*
X26225368Y-18700000D01*
X35375000Y-17775000D02*
X36475000Y-16675000D01*
X26225368Y-18700000D02*
X27150368Y-17775000D01*
%TO.N,/RP2040/QSPI_SD0*%
X25087500Y-17900000D02*
X26094974Y-17900000D01*
X27194974Y-16800000D02*
X34255000Y-16800000D01*
X34255000Y-16800000D02*
X34975000Y-16080000D01*
X26094974Y-17900000D02*
X27194974Y-16800000D01*
%TO.N,/RP2040/QSPI_SCLK*%
X27189948Y-17300000D02*
X35124842Y-17300000D01*
X36025000Y-15650000D02*
X35185000Y-14810000D01*
X26189948Y-18300000D02*
X27189948Y-17300000D01*
X36025000Y-16399842D02*
X36025000Y-15650000D01*
X35185000Y-14810000D02*
X34975000Y-14810000D01*
X25087500Y-18300000D02*
X26189948Y-18300000D01*
X35124842Y-17300000D02*
X36025000Y-16399842D01*
%TO.N,Net-(C22-Pad1)*%
X14450000Y-19870000D02*
X13280000Y-19870000D01*
X13280000Y-19870000D02*
X13000000Y-20150000D01*
X14450000Y-19510000D02*
X15360000Y-18600000D01*
X15360000Y-18600000D02*
X15520000Y-18600000D01*
X14450000Y-19870000D02*
X14450000Y-19510000D01*
D66*
%TO.N,VIN_DIVIDER*%
X14380000Y-13700000D02*
X14380000Y-12750000D01*
D67*
X22540000Y-23700000D02*
X22650000Y-23590000D01*
X22540000Y-23720000D02*
X22540000Y-23700000D01*
X22650000Y-23590000D02*
X22650000Y-22737500D01*
D66*
%TO.N,VOUT_DIVIDER*%
X55020000Y-15650000D02*
X54080000Y-16590000D01*
D67*
X23450000Y-23510000D02*
X23450000Y-22737500D01*
X24090000Y-24150000D02*
X23450000Y-23510000D01*
D66*
X55020000Y-15570000D02*
X55020000Y-15650000D01*
%TD*%
%TA.AperFunction,Conductor*%
%TO.N,GNDUSB*%
G36*
X57445677Y-19749685D02*
G01*
X57466319Y-19766319D01*
X57663681Y-19963681D01*
X57697166Y-20025004D01*
X57700000Y-20051362D01*
X57700000Y-24775500D01*
X57680315Y-24842539D01*
X57627511Y-24888294D01*
X57576000Y-24899500D01*
X46144000Y-24899500D01*
X46076961Y-24879815D01*
X46031206Y-24827011D01*
X46020000Y-24775500D01*
X46020000Y-23400000D01*
X50400000Y-23400000D01*
X51200000Y-23400000D01*
X51200000Y-22600000D01*
X50400000Y-22600000D01*
X50400000Y-23400000D01*
X46020000Y-23400000D01*
X46020000Y-19854000D01*
X46039685Y-19786961D01*
X46092489Y-19741206D01*
X46144000Y-19730000D01*
X57378638Y-19730000D01*
X57445677Y-19749685D01*
G37*
%TD.AperFunction*%
%TD*%
%TA.AperFunction,Conductor*%
%TO.N,/VIN_PREFUSE*%
G36*
X9345623Y-5346613D02*
G01*
X9361203Y-5359765D01*
X11509998Y-7499999D01*
X11509999Y-7499999D01*
X11510000Y-7500000D01*
X12976000Y-7500000D01*
X13043039Y-7519685D01*
X13088794Y-7572489D01*
X13100000Y-7624000D01*
X13100000Y-11885618D01*
X13080315Y-11952657D01*
X13027511Y-11998412D01*
X12975562Y-12009617D01*
X10301105Y-12000180D01*
X10234136Y-11980259D01*
X10213862Y-11963862D01*
X6250000Y-8000000D01*
X5874000Y-8000000D01*
X5806961Y-7980315D01*
X5761206Y-7927511D01*
X5750000Y-7876000D01*
X5750000Y-5524500D01*
X5769685Y-5457461D01*
X5822489Y-5411706D01*
X5874000Y-5400500D01*
X9052725Y-5400500D01*
X9052727Y-5400500D01*
X9154587Y-5373207D01*
X9211699Y-5340233D01*
X9279596Y-5323761D01*
X9345623Y-5346613D01*
G37*
%TD.AperFunction*%
%TD*%
%TA.AperFunction,Conductor*%
%TO.N,GNDUSB*%
G36*
X88542539Y-11009685D02*
G01*
X88588294Y-11062489D01*
X88599500Y-11114000D01*
X88599500Y-22416000D01*
X88579815Y-22483039D01*
X88527011Y-22528794D01*
X88475500Y-22540000D01*
X80124000Y-22540000D01*
X80056961Y-22520315D01*
X80011206Y-22467511D01*
X80000000Y-22416000D01*
X80000000Y-20661957D01*
X80019685Y-20594918D01*
X80035268Y-20575339D01*
X80700179Y-19894202D01*
X80700179Y-19894198D01*
X80701599Y-19890718D01*
X80745140Y-19836074D01*
X80811311Y-19813645D01*
X80879105Y-19830552D01*
X80885298Y-19834430D01*
X80896278Y-19841767D01*
X80896281Y-19841767D01*
X80896282Y-19841768D01*
X80940177Y-19850500D01*
X80940180Y-19850500D01*
X81895580Y-19850500D01*
X81962619Y-19870185D01*
X82008374Y-19922989D01*
X82018519Y-19958313D01*
X82019500Y-19965765D01*
X82058719Y-20112136D01*
X82096602Y-20177750D01*
X82134485Y-20243365D01*
X82241635Y-20350515D01*
X82372863Y-20426280D01*
X82372865Y-20426281D01*
X82380369Y-20429389D01*
X82379650Y-20431124D01*
X82430453Y-20462091D01*
X82460981Y-20524938D01*
X82452686Y-20594314D01*
X82408200Y-20648191D01*
X82341648Y-20669465D01*
X82338698Y-20669500D01*
X81480929Y-20669500D01*
X81355261Y-20694497D01*
X81355255Y-20694499D01*
X81236875Y-20743533D01*
X81236866Y-20743538D01*
X81130331Y-20814723D01*
X81130327Y-20814726D01*
X81039726Y-20905327D01*
X81039723Y-20905331D01*
X80968538Y-21011866D01*
X80968533Y-21011875D01*
X80919499Y-21130255D01*
X80919497Y-21130261D01*
X80894500Y-21255928D01*
X80894500Y-21255931D01*
X80894500Y-21384069D01*
X80894500Y-21384071D01*
X80894499Y-21384071D01*
X80919497Y-21509738D01*
X80919499Y-21509744D01*
X80968533Y-21628124D01*
X80968538Y-21628133D01*
X81039723Y-21734668D01*
X81039726Y-21734672D01*
X81130327Y-21825273D01*
X81130331Y-21825276D01*
X81236866Y-21896461D01*
X81236872Y-21896464D01*
X81236873Y-21896465D01*
X81355256Y-21945501D01*
X81355260Y-21945501D01*
X81355261Y-21945502D01*
X81480928Y-21970500D01*
X81480931Y-21970500D01*
X82709071Y-21970500D01*
X82793615Y-21953682D01*
X82834744Y-21945501D01*
X82953127Y-21896465D01*
X83059669Y-21825276D01*
X83150276Y-21734669D01*
X83221465Y-21628127D01*
X83270501Y-21509744D01*
X83284474Y-21439500D01*
X83295500Y-21384071D01*
X85324499Y-21384071D01*
X85349497Y-21509738D01*
X85349499Y-21509744D01*
X85398533Y-21628124D01*
X85398538Y-21628133D01*
X85469723Y-21734668D01*
X85469726Y-21734672D01*
X85560327Y-21825273D01*
X85560331Y-21825276D01*
X85666866Y-21896461D01*
X85666872Y-21896464D01*
X85666873Y-21896465D01*
X85785256Y-21945501D01*
X85785260Y-21945501D01*
X85785261Y-21945502D01*
X85910928Y-21970500D01*
X85910931Y-21970500D01*
X86639071Y-21970500D01*
X86723615Y-21953682D01*
X86764744Y-21945501D01*
X86883127Y-21896465D01*
X86989669Y-21825276D01*
X87080276Y-21734669D01*
X87151465Y-21628127D01*
X87200501Y-21509744D01*
X87214474Y-21439500D01*
X87225500Y-21384071D01*
X87225500Y-21255928D01*
X87200502Y-21130261D01*
X87200501Y-21130260D01*
X87200501Y-21130256D01*
X87151465Y-21011873D01*
X87151464Y-21011872D01*
X87151461Y-21011866D01*
X87080276Y-20905331D01*
X87080273Y-20905327D01*
X86989672Y-20814726D01*
X86989668Y-20814723D01*
X86883133Y-20743538D01*
X86883124Y-20743533D01*
X86764744Y-20694499D01*
X86764738Y-20694497D01*
X86639071Y-20669500D01*
X86639069Y-20669500D01*
X85910931Y-20669500D01*
X85910929Y-20669500D01*
X85785261Y-20694497D01*
X85785255Y-20694499D01*
X85666875Y-20743533D01*
X85666866Y-20743538D01*
X85560331Y-20814723D01*
X85560327Y-20814726D01*
X85469726Y-20905327D01*
X85469723Y-20905331D01*
X85398538Y-21011866D01*
X85398533Y-21011875D01*
X85349499Y-21130255D01*
X85349497Y-21130261D01*
X85324500Y-21255928D01*
X85324500Y-21255931D01*
X85324500Y-21384069D01*
X85324500Y-21384071D01*
X85324499Y-21384071D01*
X83295500Y-21384071D01*
X83295500Y-21255928D01*
X83270502Y-21130261D01*
X83270501Y-21130260D01*
X83270501Y-21130256D01*
X83221465Y-21011873D01*
X83221464Y-21011872D01*
X83221461Y-21011866D01*
X83150276Y-20905331D01*
X83150273Y-20905327D01*
X83059672Y-20814726D01*
X83059668Y-20814723D01*
X82953133Y-20743538D01*
X82953124Y-20743533D01*
X82834744Y-20694499D01*
X82834739Y-20694497D01*
X82771711Y-20681960D01*
X82709801Y-20649574D01*
X82675227Y-20588858D01*
X82678968Y-20519089D01*
X82719835Y-20462417D01*
X82763808Y-20440569D01*
X82817135Y-20426281D01*
X82948365Y-20350515D01*
X83055515Y-20243365D01*
X83131281Y-20112135D01*
X83170500Y-19965766D01*
X83170500Y-19814234D01*
X83131281Y-19667865D01*
X83055515Y-19536635D01*
X82948365Y-19429485D01*
X82871627Y-19385180D01*
X82817136Y-19353719D01*
X82743950Y-19334109D01*
X82670766Y-19314500D01*
X82519234Y-19314500D01*
X82411593Y-19343342D01*
X82341743Y-19341679D01*
X82283881Y-19302516D01*
X82256377Y-19238287D01*
X82255500Y-19223567D01*
X82255500Y-19085177D01*
X82244385Y-19029300D01*
X82247311Y-19028717D01*
X82241855Y-18977987D01*
X82245203Y-18966583D01*
X82255500Y-18914822D01*
X82255500Y-18777790D01*
X82275185Y-18710751D01*
X82327989Y-18664996D01*
X82390241Y-18656044D01*
X82390241Y-18655492D01*
X82394087Y-18655492D01*
X82397147Y-18655052D01*
X82398784Y-18655299D01*
X82400000Y-18655492D01*
X82462652Y-18645569D01*
X82525300Y-18635647D01*
X82525301Y-18635647D01*
X82525302Y-18635646D01*
X82525304Y-18635646D01*
X82638342Y-18578050D01*
X82728050Y-18488342D01*
X82785646Y-18375304D01*
X82785646Y-18375302D01*
X82785647Y-18375301D01*
X82785647Y-18375300D01*
X82805492Y-18250003D01*
X82805492Y-18249996D01*
X82785647Y-18124699D01*
X82785647Y-18124698D01*
X82785646Y-18124696D01*
X82728050Y-18011658D01*
X82728046Y-18011654D01*
X82728045Y-18011652D01*
X82638347Y-17921954D01*
X82638344Y-17921952D01*
X82638342Y-17921950D01*
X82525304Y-17864354D01*
X82525302Y-17864353D01*
X82517710Y-17860485D01*
X82466914Y-17812510D01*
X82450119Y-17744689D01*
X82472657Y-17678554D01*
X82517710Y-17639515D01*
X82525302Y-17635646D01*
X82525304Y-17635646D01*
X82638342Y-17578050D01*
X82728050Y-17488342D01*
X82785646Y-17375304D01*
X82785646Y-17375302D01*
X82785647Y-17375301D01*
X82785647Y-17375300D01*
X82805492Y-17250003D01*
X82805492Y-17249996D01*
X82785647Y-17124698D01*
X82785647Y-17124697D01*
X82779014Y-17111679D01*
X82765500Y-17055387D01*
X82765500Y-16415440D01*
X82765500Y-16415438D01*
X82765334Y-16414820D01*
X82745022Y-16339012D01*
X82705460Y-16270489D01*
X82454511Y-16019540D01*
X82454510Y-16019539D01*
X82444953Y-16014022D01*
X82435396Y-16008504D01*
X82385989Y-15979979D01*
X82385987Y-15979978D01*
X82347403Y-15969639D01*
X82287744Y-15933272D01*
X82257216Y-15870425D01*
X82255500Y-15849865D01*
X82255500Y-15777790D01*
X82275185Y-15710751D01*
X82327989Y-15664996D01*
X82390241Y-15656044D01*
X82390241Y-15655492D01*
X82394087Y-15655492D01*
X82397147Y-15655052D01*
X82398784Y-15655299D01*
X82400000Y-15655492D01*
X82462652Y-15645569D01*
X82525300Y-15635647D01*
X82525301Y-15635647D01*
X82525302Y-15635646D01*
X82525304Y-15635646D01*
X82638342Y-15578050D01*
X82728050Y-15488342D01*
X82785646Y-15375304D01*
X82785646Y-15375302D01*
X82785647Y-15375301D01*
X82785647Y-15375300D01*
X82805492Y-15250003D01*
X82805492Y-15249996D01*
X82785647Y-15124699D01*
X82785647Y-15124698D01*
X82780551Y-15114696D01*
X82728050Y-15011658D01*
X82728046Y-15011654D01*
X82728045Y-15011652D01*
X82638347Y-14921954D01*
X82638343Y-14921951D01*
X82638342Y-14921950D01*
X82632041Y-14918739D01*
X82581247Y-14870765D01*
X82564452Y-14802944D01*
X82586990Y-14736810D01*
X82641705Y-14693359D01*
X82662954Y-14687746D01*
X82662916Y-14687603D01*
X82670765Y-14685500D01*
X82670766Y-14685500D01*
X82817135Y-14646281D01*
X82948365Y-14570515D01*
X83055515Y-14463365D01*
X83131281Y-14332135D01*
X83170500Y-14185766D01*
X83170500Y-14034234D01*
X83131281Y-13887865D01*
X83055515Y-13756635D01*
X82948365Y-13649485D01*
X82817135Y-13573719D01*
X82763809Y-13559430D01*
X82704150Y-13523066D01*
X82673621Y-13460219D01*
X82681916Y-13390843D01*
X82726401Y-13336965D01*
X82771713Y-13318039D01*
X82772698Y-13317842D01*
X82834744Y-13305501D01*
X82953127Y-13256465D01*
X83059669Y-13185276D01*
X83150276Y-13094669D01*
X83221465Y-12988127D01*
X83270501Y-12869744D01*
X83295500Y-12744071D01*
X85324499Y-12744071D01*
X85349497Y-12869738D01*
X85349499Y-12869744D01*
X85398533Y-12988124D01*
X85398538Y-12988133D01*
X85469723Y-13094668D01*
X85469726Y-13094672D01*
X85560327Y-13185273D01*
X85560331Y-13185276D01*
X85666866Y-13256461D01*
X85666872Y-13256464D01*
X85666873Y-13256465D01*
X85785256Y-13305501D01*
X85785260Y-13305501D01*
X85785261Y-13305502D01*
X85910928Y-13330500D01*
X85910931Y-13330500D01*
X86639071Y-13330500D01*
X86723615Y-13313682D01*
X86764744Y-13305501D01*
X86883127Y-13256465D01*
X86989669Y-13185276D01*
X87080276Y-13094669D01*
X87151465Y-12988127D01*
X87200501Y-12869744D01*
X87225500Y-12744069D01*
X87225500Y-12615931D01*
X87225500Y-12615928D01*
X87200502Y-12490261D01*
X87200501Y-12490260D01*
X87200501Y-12490256D01*
X87151465Y-12371873D01*
X87151464Y-12371872D01*
X87151461Y-12371866D01*
X87080276Y-12265331D01*
X87080273Y-12265327D01*
X86989672Y-12174726D01*
X86989668Y-12174723D01*
X86883133Y-12103538D01*
X86883124Y-12103533D01*
X86764744Y-12054499D01*
X86764738Y-12054497D01*
X86639071Y-12029500D01*
X86639069Y-12029500D01*
X85910931Y-12029500D01*
X85910929Y-12029500D01*
X85785261Y-12054497D01*
X85785255Y-12054499D01*
X85666875Y-12103533D01*
X85666866Y-12103538D01*
X85560331Y-12174723D01*
X85560327Y-12174726D01*
X85469726Y-12265327D01*
X85469723Y-12265331D01*
X85398538Y-12371866D01*
X85398533Y-12371875D01*
X85349499Y-12490255D01*
X85349497Y-12490261D01*
X85324500Y-12615928D01*
X85324500Y-12615931D01*
X85324500Y-12744069D01*
X85324500Y-12744071D01*
X85324499Y-12744071D01*
X83295500Y-12744071D01*
X83295500Y-12744069D01*
X83295500Y-12615931D01*
X83295500Y-12615928D01*
X83270502Y-12490261D01*
X83270501Y-12490260D01*
X83270501Y-12490256D01*
X83221465Y-12371873D01*
X83221464Y-12371872D01*
X83221461Y-12371866D01*
X83150276Y-12265331D01*
X83150273Y-12265327D01*
X83059672Y-12174726D01*
X83059668Y-12174723D01*
X82953133Y-12103538D01*
X82953124Y-12103533D01*
X82834744Y-12054499D01*
X82834738Y-12054497D01*
X82709071Y-12029500D01*
X82709069Y-12029500D01*
X82559500Y-12029500D01*
X82492461Y-12009815D01*
X82446706Y-11957011D01*
X82435500Y-11905500D01*
X82435500Y-11323858D01*
X82435500Y-11323856D01*
X82411614Y-11234712D01*
X82377717Y-11176001D01*
X82361243Y-11108102D01*
X82384095Y-11042074D01*
X82439015Y-10998883D01*
X82485103Y-10990000D01*
X88475500Y-10990000D01*
X88542539Y-11009685D01*
G37*
%TD.AperFunction*%
%TA.AperFunction,Conductor*%
G36*
X82183039Y-8649685D02*
G01*
X82228794Y-8702489D01*
X82240000Y-8754000D01*
X82240000Y-10254956D01*
X82220315Y-10321995D01*
X82167511Y-10367750D01*
X82098353Y-10377694D01*
X82034797Y-10348669D01*
X82028319Y-10342637D01*
X81951485Y-10265803D01*
X81846391Y-10214426D01*
X81778261Y-10204500D01*
X81778260Y-10204500D01*
X81161740Y-10204500D01*
X81161739Y-10204500D01*
X81093608Y-10214426D01*
X80988514Y-10265803D01*
X80898536Y-10355782D01*
X80897420Y-10354666D01*
X80851512Y-10390676D01*
X80805572Y-10399500D01*
X80764499Y-10399500D01*
X80697460Y-10379815D01*
X80651705Y-10327011D01*
X80640499Y-10275500D01*
X80640499Y-9913482D01*
X80640498Y-9913475D01*
X80625646Y-9819696D01*
X80568050Y-9706658D01*
X80568046Y-9706654D01*
X80568045Y-9706652D01*
X80478347Y-9616954D01*
X80478344Y-9616952D01*
X80478342Y-9616950D01*
X80401517Y-9577805D01*
X80365301Y-9559352D01*
X80271524Y-9544500D01*
X79708482Y-9544500D01*
X79627519Y-9557323D01*
X79614696Y-9559354D01*
X79501658Y-9616950D01*
X79501657Y-9616951D01*
X79501652Y-9616954D01*
X79411954Y-9706652D01*
X79411951Y-9706657D01*
X79354352Y-9819698D01*
X79339500Y-9913475D01*
X79339500Y-10926517D01*
X79349555Y-10990000D01*
X79354354Y-11020304D01*
X79411950Y-11133342D01*
X79411952Y-11133344D01*
X79411954Y-11133347D01*
X79501652Y-11223045D01*
X79501654Y-11223046D01*
X79501658Y-11223050D01*
X79614694Y-11280645D01*
X79614698Y-11280647D01*
X79708475Y-11295499D01*
X79708481Y-11295500D01*
X80271518Y-11295499D01*
X80365304Y-11280646D01*
X80478342Y-11223050D01*
X80478347Y-11223045D01*
X80564574Y-11136819D01*
X80625897Y-11103334D01*
X80652255Y-11100500D01*
X80798584Y-11100500D01*
X80865623Y-11120185D01*
X80896833Y-11155259D01*
X80899830Y-11153120D01*
X80905801Y-11161483D01*
X80988514Y-11244196D01*
X80988515Y-11244196D01*
X80988517Y-11244198D01*
X81093607Y-11295573D01*
X81127673Y-11300536D01*
X81161739Y-11305500D01*
X81161740Y-11305500D01*
X81473456Y-11305500D01*
X81540495Y-11325185D01*
X81561132Y-11341814D01*
X81698182Y-11478863D01*
X81731666Y-11540184D01*
X81734500Y-11566543D01*
X81734500Y-11905500D01*
X81714815Y-11972539D01*
X81662011Y-12018294D01*
X81610500Y-12029500D01*
X81480929Y-12029500D01*
X81355261Y-12054497D01*
X81355255Y-12054499D01*
X81236875Y-12103533D01*
X81236866Y-12103538D01*
X81130331Y-12174723D01*
X81130327Y-12174726D01*
X81039726Y-12265327D01*
X81039723Y-12265331D01*
X80968538Y-12371866D01*
X80968533Y-12371875D01*
X80919499Y-12490255D01*
X80919497Y-12490261D01*
X80894500Y-12615928D01*
X80894500Y-12615931D01*
X80894500Y-12744069D01*
X80894500Y-12744071D01*
X80894499Y-12744071D01*
X80919497Y-12869738D01*
X80919499Y-12869744D01*
X80968533Y-12988124D01*
X80968538Y-12988133D01*
X81039723Y-13094668D01*
X81039726Y-13094672D01*
X81130327Y-13185273D01*
X81130331Y-13185276D01*
X81236866Y-13256461D01*
X81236872Y-13256464D01*
X81236873Y-13256465D01*
X81355256Y-13305501D01*
X81355260Y-13305501D01*
X81355261Y-13305502D01*
X81480928Y-13330500D01*
X82338698Y-13330500D01*
X82405737Y-13350185D01*
X82451492Y-13402989D01*
X82461436Y-13472147D01*
X82432411Y-13535703D01*
X82379890Y-13569455D01*
X82380369Y-13570611D01*
X82373966Y-13573262D01*
X82373633Y-13573477D01*
X82373061Y-13573637D01*
X82372865Y-13573718D01*
X82241635Y-13649485D01*
X82241632Y-13649487D01*
X82134487Y-13756632D01*
X82134485Y-13756635D01*
X82058719Y-13887863D01*
X82019500Y-14034234D01*
X82018519Y-14041687D01*
X81990252Y-14105583D01*
X81931927Y-14144053D01*
X81895580Y-14149500D01*
X80940178Y-14149500D01*
X80896282Y-14158231D01*
X80884998Y-14162906D01*
X80884163Y-14160892D01*
X80832783Y-14176975D01*
X80765405Y-14158482D01*
X80741885Y-14132291D01*
X80706537Y-14096839D01*
X76783771Y-14089602D01*
X76716768Y-14069794D01*
X76671111Y-14016905D01*
X76660000Y-13965602D01*
X76660000Y-10561362D01*
X76679685Y-10494323D01*
X76696319Y-10473681D01*
X78503681Y-8666319D01*
X78565004Y-8632834D01*
X78591362Y-8630000D01*
X82116000Y-8630000D01*
X82183039Y-8649685D01*
G37*
%TD.AperFunction*%
%TD*%
%TA.AperFunction,Conductor*%
%TO.N,+1V1*%
G36*
X23828326Y-17121674D02*
G01*
X23850000Y-17174000D01*
X23850000Y-19900000D01*
X23976000Y-19900000D01*
X24028326Y-19921674D01*
X24050000Y-19974000D01*
X24050000Y-20300000D01*
X24376000Y-20300000D01*
X24428326Y-20321674D01*
X24450000Y-20374000D01*
X24450000Y-21226000D01*
X24428326Y-21278326D01*
X24376000Y-21300000D01*
X23524000Y-21300000D01*
X23471674Y-21278326D01*
X23450000Y-21226000D01*
X23450000Y-17700000D01*
X23439974Y-17689974D01*
X23411852Y-17678326D01*
X23395449Y-17647641D01*
X23394556Y-17648011D01*
X23391767Y-17641279D01*
X23391767Y-17641278D01*
X23358504Y-17591496D01*
X23308722Y-17558233D01*
X23264820Y-17549500D01*
X20035180Y-17549500D01*
X20013229Y-17553866D01*
X19991277Y-17558233D01*
X19941496Y-17591495D01*
X19941495Y-17591496D01*
X19908233Y-17641277D01*
X19899500Y-17685180D01*
X19899500Y-17962482D01*
X19898747Y-17973012D01*
X19894867Y-17999999D01*
X19898747Y-18026985D01*
X19899500Y-18037516D01*
X19899500Y-19237482D01*
X19898747Y-19248012D01*
X19894867Y-19274999D01*
X19898747Y-19301985D01*
X19899500Y-19312516D01*
X19899500Y-20226000D01*
X19877826Y-20278326D01*
X19825500Y-20300000D01*
X19324000Y-20300000D01*
X19271674Y-20278326D01*
X19250000Y-20226000D01*
X19250000Y-19574000D01*
X19271674Y-19521674D01*
X19324000Y-19500000D01*
X19450000Y-19500000D01*
X19450000Y-17174000D01*
X19471674Y-17121674D01*
X19524000Y-17100000D01*
X23776000Y-17100000D01*
X23828326Y-17121674D01*
G37*
%TD.AperFunction*%
%TD*%
%TA.AperFunction,Conductor*%
%TO.N,+3V3*%
G36*
X40979191Y-11768907D02*
G01*
X41015155Y-11818407D01*
X41020000Y-11849000D01*
X41020000Y-12209999D01*
X41020001Y-12210000D01*
X43119998Y-12210000D01*
X43119999Y-12209999D01*
X43119999Y-11849000D01*
X43138906Y-11790809D01*
X43188406Y-11754845D01*
X43218999Y-11750000D01*
X43270500Y-11750000D01*
X43328691Y-11768907D01*
X43364655Y-11818407D01*
X43369500Y-11849000D01*
X43369500Y-13048157D01*
X43372291Y-13083626D01*
X43372292Y-13083631D01*
X43416383Y-13235393D01*
X43496827Y-13371416D01*
X43496828Y-13371417D01*
X43496830Y-13371420D01*
X43608580Y-13483170D01*
X43608582Y-13483171D01*
X43608583Y-13483172D01*
X43637883Y-13500500D01*
X43744610Y-13563618D01*
X43896373Y-13607709D01*
X43931837Y-13610500D01*
X44601000Y-13610499D01*
X44659191Y-13629406D01*
X44695155Y-13678906D01*
X44700000Y-13709499D01*
X44700000Y-20308992D01*
X44681093Y-20367183D01*
X44671004Y-20378996D01*
X40878996Y-24171004D01*
X40824479Y-24198781D01*
X40808992Y-24200000D01*
X24991008Y-24200000D01*
X24932817Y-24181093D01*
X24921004Y-24171004D01*
X24374260Y-23624260D01*
X24346483Y-23569743D01*
X24353330Y-23526504D01*
X26150000Y-23525000D01*
X26150000Y-23155001D01*
X28340001Y-23155001D01*
X28340001Y-23198003D01*
X28342786Y-23227721D01*
X28342787Y-23227726D01*
X28386594Y-23352920D01*
X28465358Y-23459639D01*
X28465360Y-23459641D01*
X28572079Y-23538405D01*
X28697272Y-23582212D01*
X28726999Y-23584999D01*
X28799999Y-23584998D01*
X28800000Y-23584998D01*
X28800000Y-23155001D01*
X29100000Y-23155001D01*
X29100000Y-23584998D01*
X29100001Y-23584999D01*
X29173004Y-23584999D01*
X29202721Y-23582213D01*
X29202726Y-23582212D01*
X29327920Y-23538405D01*
X29403711Y-23482468D01*
X29461758Y-23463126D01*
X29520089Y-23481597D01*
X29521289Y-23482468D01*
X29597079Y-23538405D01*
X29722272Y-23582212D01*
X29751999Y-23584999D01*
X29824999Y-23584998D01*
X29825000Y-23584998D01*
X29825000Y-23155001D01*
X30125000Y-23155001D01*
X30125000Y-23584998D01*
X30125001Y-23584999D01*
X30198004Y-23584999D01*
X30227721Y-23582213D01*
X30227726Y-23582212D01*
X30352920Y-23538405D01*
X30459639Y-23459641D01*
X30459641Y-23459639D01*
X30538405Y-23352920D01*
X30582212Y-23227727D01*
X30585000Y-23198000D01*
X30585000Y-23155001D01*
X30584999Y-23155000D01*
X30125001Y-23155000D01*
X30125000Y-23155001D01*
X29825000Y-23155001D01*
X29824999Y-23155000D01*
X29100001Y-23155000D01*
X29100000Y-23155001D01*
X28800000Y-23155001D01*
X28799999Y-23155000D01*
X28340002Y-23155000D01*
X28340001Y-23155001D01*
X26150000Y-23155001D01*
X26150000Y-22450001D01*
X26410001Y-22450001D01*
X26410001Y-22523003D01*
X26412786Y-22552721D01*
X26412787Y-22552726D01*
X26456594Y-22677920D01*
X26535358Y-22784639D01*
X26535360Y-22784641D01*
X26642079Y-22863405D01*
X26767272Y-22907212D01*
X26796999Y-22909999D01*
X26840000Y-22909998D01*
X26840000Y-22450001D01*
X26839999Y-22450000D01*
X26410002Y-22450000D01*
X26410001Y-22450001D01*
X26150000Y-22450001D01*
X26150000Y-21450500D01*
X26259492Y-21450500D01*
X26317683Y-21469407D01*
X26329496Y-21479496D01*
X26495940Y-21645940D01*
X26514145Y-21670998D01*
X26530140Y-21702390D01*
X26531475Y-21704227D01*
X26532176Y-21706387D01*
X26533678Y-21709333D01*
X26533211Y-21709570D01*
X26550385Y-21762417D01*
X26531480Y-21820609D01*
X26531040Y-21821209D01*
X26456595Y-21922077D01*
X26412787Y-22047272D01*
X26410000Y-22076999D01*
X26410000Y-22149999D01*
X26410001Y-22150000D01*
X27041000Y-22150000D01*
X27099191Y-22168907D01*
X27135155Y-22218407D01*
X27140000Y-22249000D01*
X27140000Y-22909998D01*
X27140001Y-22909999D01*
X27183004Y-22909999D01*
X27212721Y-22907213D01*
X27212726Y-22907212D01*
X27337920Y-22863405D01*
X27449592Y-22780985D01*
X27507640Y-22761642D01*
X27565971Y-22780112D01*
X27576636Y-22789151D01*
X27577605Y-22789855D01*
X27577609Y-22789859D01*
X27687825Y-22846017D01*
X27779265Y-22860500D01*
X28120734Y-22860499D01*
X28120737Y-22860499D01*
X28147332Y-22856286D01*
X28212175Y-22846017D01*
X28226814Y-22838557D01*
X28287245Y-22828986D01*
X28338304Y-22855000D01*
X30584998Y-22855000D01*
X30584999Y-22854999D01*
X30584999Y-22811996D01*
X30582213Y-22782278D01*
X30582212Y-22782273D01*
X30538405Y-22657079D01*
X30455985Y-22545406D01*
X30436643Y-22487358D01*
X30455114Y-22429028D01*
X30464144Y-22418374D01*
X30464857Y-22417394D01*
X30487500Y-22372955D01*
X30521017Y-22307175D01*
X30535500Y-22215735D01*
X30535499Y-21973999D01*
X30554406Y-21915810D01*
X30603906Y-21879846D01*
X30634499Y-21875000D01*
X37092169Y-21875000D01*
X37099478Y-21875391D01*
X37099480Y-21875358D01*
X37102108Y-21875498D01*
X37102127Y-21875500D01*
X37697872Y-21875499D01*
X37697877Y-21875498D01*
X37700514Y-21875357D01*
X37700515Y-21875391D01*
X37707818Y-21875000D01*
X37774999Y-21875000D01*
X37775000Y-21875000D01*
X37779614Y-21870385D01*
X37815018Y-21847631D01*
X37892331Y-21818796D01*
X38007546Y-21732546D01*
X38093796Y-21617331D01*
X38122631Y-21540018D01*
X38145379Y-21504620D01*
X38709644Y-20940356D01*
X38708483Y-18810001D01*
X39870000Y-18810001D01*
X39870000Y-19204918D01*
X39885123Y-19339145D01*
X39885124Y-19339149D01*
X39944663Y-19509302D01*
X40040574Y-19661944D01*
X40168055Y-19789425D01*
X40168054Y-19789425D01*
X40320697Y-19885336D01*
X40490850Y-19944875D01*
X40490854Y-19944876D01*
X40625081Y-19959999D01*
X40625084Y-19960000D01*
X41919999Y-19960000D01*
X41920000Y-19959999D01*
X41920000Y-18810001D01*
X42220000Y-18810001D01*
X42220000Y-19959999D01*
X42220001Y-19960000D01*
X43514916Y-19960000D01*
X43514918Y-19959999D01*
X43649145Y-19944876D01*
X43649149Y-19944875D01*
X43819302Y-19885336D01*
X43971944Y-19789425D01*
X44099425Y-19661944D01*
X44195336Y-19509302D01*
X44254875Y-19339149D01*
X44254876Y-19339145D01*
X44269999Y-19204918D01*
X44270000Y-19204916D01*
X44270000Y-18810001D01*
X44269999Y-18810000D01*
X42220001Y-18810000D01*
X42220000Y-18810001D01*
X41920000Y-18810001D01*
X41919999Y-18810000D01*
X39870001Y-18810000D01*
X39870000Y-18810001D01*
X38708483Y-18810001D01*
X38708104Y-18115081D01*
X39870000Y-18115081D01*
X39870000Y-18509999D01*
X39870001Y-18510000D01*
X41919999Y-18510000D01*
X41920000Y-18509999D01*
X41920000Y-17360001D01*
X42220000Y-17360001D01*
X42220000Y-18509999D01*
X42220001Y-18510000D01*
X44269999Y-18510000D01*
X44270000Y-18509999D01*
X44270000Y-18115084D01*
X44269999Y-18115081D01*
X44254876Y-17980854D01*
X44254875Y-17980850D01*
X44195336Y-17810697D01*
X44099425Y-17658055D01*
X43971944Y-17530574D01*
X43971945Y-17530574D01*
X43819302Y-17434663D01*
X43649149Y-17375124D01*
X43649145Y-17375123D01*
X43514918Y-17360000D01*
X42220001Y-17360000D01*
X42220000Y-17360001D01*
X41920000Y-17360001D01*
X41919999Y-17360000D01*
X40625081Y-17360000D01*
X40490854Y-17375123D01*
X40490850Y-17375124D01*
X40320697Y-17434663D01*
X40168055Y-17530574D01*
X40040574Y-17658055D01*
X39944663Y-17810697D01*
X39885124Y-17980850D01*
X39885123Y-17980854D01*
X39870000Y-18115081D01*
X38708104Y-18115081D01*
X38705538Y-13409898D01*
X38724414Y-13351700D01*
X38773894Y-13315709D01*
X38835079Y-13315676D01*
X38884599Y-13351613D01*
X38889750Y-13359450D01*
X38896827Y-13371416D01*
X38896828Y-13371417D01*
X38896830Y-13371420D01*
X39008580Y-13483170D01*
X39008582Y-13483171D01*
X39008583Y-13483172D01*
X39037883Y-13500500D01*
X39144610Y-13563618D01*
X39296373Y-13607709D01*
X39331837Y-13610500D01*
X40208162Y-13610499D01*
X40243627Y-13607709D01*
X40395390Y-13563618D01*
X40531420Y-13483170D01*
X40643170Y-13371420D01*
X40723618Y-13235390D01*
X40767709Y-13083627D01*
X40770500Y-13048163D01*
X40770500Y-12510001D01*
X41020001Y-12510001D01*
X41020001Y-13039566D01*
X41026179Y-13107564D01*
X41026181Y-13107573D01*
X41074942Y-13264054D01*
X41074948Y-13264068D01*
X41159745Y-13404339D01*
X41275660Y-13520254D01*
X41415931Y-13605051D01*
X41415945Y-13605057D01*
X41572431Y-13653819D01*
X41640441Y-13659999D01*
X41919998Y-13659999D01*
X41920000Y-13659998D01*
X41920000Y-12510001D01*
X42220000Y-12510001D01*
X42220000Y-13659998D01*
X42220001Y-13659999D01*
X42499550Y-13659999D01*
X42499566Y-13659998D01*
X42567564Y-13653820D01*
X42567573Y-13653818D01*
X42724054Y-13605057D01*
X42724068Y-13605051D01*
X42864339Y-13520254D01*
X42980254Y-13404339D01*
X43065051Y-13264068D01*
X43065057Y-13264054D01*
X43113819Y-13107568D01*
X43119999Y-13039564D01*
X43120000Y-13039552D01*
X43120000Y-12510001D01*
X43119999Y-12510000D01*
X42220001Y-12510000D01*
X42220000Y-12510001D01*
X41920000Y-12510001D01*
X41919999Y-12510000D01*
X41020002Y-12510000D01*
X41020001Y-12510001D01*
X40770500Y-12510001D01*
X40770499Y-11848999D01*
X40789406Y-11790809D01*
X40838906Y-11754845D01*
X40869499Y-11750000D01*
X40921000Y-11750000D01*
X40979191Y-11768907D01*
G37*
%TD.AperFunction*%
%TD*%
%TA.AperFunction,Conductor*%
%TO.N,/INDUCTOR*%
G36*
X71115677Y-3689685D02*
G01*
X71136319Y-3706319D01*
X74260000Y-6830000D01*
X64304000Y-6830000D01*
X64236961Y-6810315D01*
X64191206Y-6757511D01*
X64180000Y-6706000D01*
X64180000Y-3794000D01*
X64199685Y-3726961D01*
X64252489Y-3681206D01*
X64304000Y-3670000D01*
X71048638Y-3670000D01*
X71115677Y-3689685D01*
G37*
%TD.AperFunction*%
%TD*%
%TA.AperFunction,Conductor*%
%TO.N,/INDUCTOR*%
G36*
X76426632Y-8996632D02*
G01*
X76430000Y-9004764D01*
X76430000Y-11275236D01*
X76426632Y-11283368D01*
X75383368Y-12326632D01*
X75375236Y-12330000D01*
X66558212Y-12330000D01*
X66552991Y-12328747D01*
X66546639Y-12325510D01*
X66495304Y-12299354D01*
X66495301Y-12299353D01*
X66495300Y-12299353D01*
X66495297Y-12299352D01*
X66370003Y-12279508D01*
X66369997Y-12279508D01*
X66244702Y-12299352D01*
X66244699Y-12299353D01*
X66244697Y-12299353D01*
X66244696Y-12299354D01*
X66213989Y-12315000D01*
X66187009Y-12328747D01*
X66181788Y-12330000D01*
X65758212Y-12330000D01*
X65752991Y-12328747D01*
X65695300Y-12299352D01*
X65656295Y-12293175D01*
X65649655Y-12289629D01*
X65553061Y-12185285D01*
X65550000Y-12177473D01*
X65550000Y-11893663D01*
X65553368Y-11885531D01*
X65553944Y-11884994D01*
X65582146Y-11860558D01*
X65587621Y-11855580D01*
X65629516Y-11786850D01*
X65649201Y-11719811D01*
X65655500Y-11676000D01*
X65655500Y-11651500D01*
X65658868Y-11643368D01*
X65667000Y-11640000D01*
X66433229Y-11640000D01*
X66440470Y-11642999D01*
X66440554Y-11642875D01*
X66441179Y-11643292D01*
X66441361Y-11643368D01*
X66441365Y-11643373D01*
X66441496Y-11643504D01*
X66491278Y-11676767D01*
X66535180Y-11685500D01*
X66535181Y-11685500D01*
X67864819Y-11685500D01*
X67864820Y-11685500D01*
X67908722Y-11676767D01*
X67958504Y-11643504D01*
X67958505Y-11643501D01*
X67958635Y-11643373D01*
X67958808Y-11643301D01*
X67959446Y-11642875D01*
X67959530Y-11643001D01*
X67966765Y-11640000D01*
X68829998Y-11640000D01*
X68830000Y-11640000D01*
X69500000Y-10970000D01*
X69500000Y-6830000D01*
X74260000Y-6830000D01*
X76426632Y-8996632D01*
G37*
%TD.AperFunction*%
%TD*%
%TA.AperFunction,Conductor*%
%TO.N,/EMI_VIN*%
G36*
X62315677Y-2019685D02*
G01*
X62336319Y-2036319D01*
X62963681Y-2663681D01*
X62997166Y-2725004D01*
X63000000Y-2751362D01*
X63000000Y-10800000D01*
X63064741Y-10843161D01*
X63109601Y-10896723D01*
X63115022Y-10912213D01*
X63115333Y-10912751D01*
X63172248Y-10969666D01*
X63172249Y-10969666D01*
X63172250Y-10969667D01*
X63250000Y-10990500D01*
X63250002Y-10990500D01*
X63250262Y-10990500D01*
X63252351Y-10990809D01*
X63258060Y-10991561D01*
X63258047Y-10991652D01*
X63286195Y-10995820D01*
X63299999Y-10999999D01*
X63300000Y-11000000D01*
X65376000Y-11000000D01*
X65443039Y-11019685D01*
X65488794Y-11072489D01*
X65500000Y-11124000D01*
X65500000Y-11676000D01*
X65480315Y-11743039D01*
X65427511Y-11788794D01*
X65376000Y-11800000D01*
X62951362Y-11800000D01*
X62884323Y-11780315D01*
X62863681Y-11763681D01*
X62200000Y-11100000D01*
X56041362Y-11100000D01*
X55974323Y-11080315D01*
X55953681Y-11063681D01*
X53900000Y-9010000D01*
X44261362Y-9010000D01*
X44194323Y-8990315D01*
X44173681Y-8973681D01*
X43436319Y-8236319D01*
X43402834Y-8174996D01*
X43400000Y-8148638D01*
X43400000Y-3761362D01*
X43419685Y-3694323D01*
X43436319Y-3673681D01*
X44183681Y-2926319D01*
X44245004Y-2892834D01*
X44271362Y-2890000D01*
X58115974Y-2890000D01*
X58963631Y-2036615D01*
X59024841Y-2002923D01*
X59051607Y-2000000D01*
X62248638Y-2000000D01*
X62315677Y-2019685D01*
G37*
%TD.AperFunction*%
%TD*%
%TA.AperFunction,Conductor*%
%TO.N,+3V3*%
G36*
X24428326Y-16521674D02*
G01*
X24450000Y-16574000D01*
X24450000Y-20070500D01*
X24428326Y-20122826D01*
X24376000Y-20144500D01*
X24279500Y-20144500D01*
X24227174Y-20122826D01*
X24205500Y-20070500D01*
X24205500Y-19974001D01*
X24193510Y-19913723D01*
X24191294Y-19903754D01*
X24186697Y-19871777D01*
X24186697Y-19871774D01*
X24132882Y-19753937D01*
X24048049Y-19656033D01*
X24048046Y-19656031D01*
X24048044Y-19656029D01*
X24039490Y-19650532D01*
X24007191Y-19604008D01*
X24005500Y-19588281D01*
X24005500Y-17174001D01*
X24005154Y-17172264D01*
X23993663Y-17114493D01*
X23971989Y-17062167D01*
X23971983Y-17062156D01*
X23951694Y-17027013D01*
X23951692Y-17027011D01*
X23887835Y-16978012D01*
X23887831Y-16978010D01*
X23835511Y-16956338D01*
X23835501Y-16956335D01*
X23795654Y-16948409D01*
X23776000Y-16944500D01*
X19524000Y-16944500D01*
X19507131Y-16947855D01*
X19464498Y-16956335D01*
X19464488Y-16956338D01*
X19412173Y-16978008D01*
X19412156Y-16978016D01*
X19377013Y-16998305D01*
X19377011Y-16998307D01*
X19328012Y-17062164D01*
X19328010Y-17062168D01*
X19306338Y-17114488D01*
X19306335Y-17114498D01*
X19294500Y-17174001D01*
X19294500Y-19294462D01*
X19272826Y-19346788D01*
X19248820Y-19362828D01*
X19212167Y-19378011D01*
X19212164Y-19378012D01*
X19212163Y-19378013D01*
X19212156Y-19378016D01*
X19177013Y-19398305D01*
X19177011Y-19398307D01*
X19128012Y-19462164D01*
X19128010Y-19462168D01*
X19106338Y-19514488D01*
X19106335Y-19514498D01*
X19094500Y-19574001D01*
X19094500Y-20225998D01*
X19106335Y-20285501D01*
X19106338Y-20285511D01*
X19128008Y-20337826D01*
X19128016Y-20337843D01*
X19148305Y-20372986D01*
X19148307Y-20372988D01*
X19148308Y-20372989D01*
X19212167Y-20421989D01*
X19264493Y-20443663D01*
X19324000Y-20455500D01*
X19324002Y-20455500D01*
X19825500Y-20455500D01*
X19877826Y-20477174D01*
X19899500Y-20529500D01*
X19899500Y-20562482D01*
X19898747Y-20573012D01*
X19894867Y-20599999D01*
X19898747Y-20626985D01*
X19899500Y-20637516D01*
X19899500Y-20914820D01*
X19908233Y-20958722D01*
X19941496Y-21008504D01*
X19991278Y-21041767D01*
X20035180Y-21050500D01*
X20035181Y-21050500D01*
X23220500Y-21050500D01*
X23272826Y-21072174D01*
X23294500Y-21124500D01*
X23294500Y-21225998D01*
X23306335Y-21285501D01*
X23306338Y-21285511D01*
X23328008Y-21337826D01*
X23328016Y-21337843D01*
X23348305Y-21372986D01*
X23348307Y-21372988D01*
X23348308Y-21372989D01*
X23412167Y-21421989D01*
X23464493Y-21443663D01*
X23524000Y-21455500D01*
X23524002Y-21455500D01*
X24375998Y-21455500D01*
X24376000Y-21455500D01*
X24435507Y-21443663D01*
X24487833Y-21421989D01*
X24522989Y-21401692D01*
X24528627Y-21394343D01*
X24540055Y-21379452D01*
X24589104Y-21351133D01*
X24598763Y-21350500D01*
X26150000Y-21350500D01*
X26150000Y-23525000D01*
X24276569Y-23526569D01*
X24077481Y-23327481D01*
X24055807Y-23275155D01*
X24068278Y-23234043D01*
X24088867Y-23203231D01*
X24100500Y-23144748D01*
X24100500Y-22330252D01*
X24088867Y-22271769D01*
X24044552Y-22205448D01*
X24006770Y-22180202D01*
X23982886Y-22164243D01*
X23951422Y-22117150D01*
X23950000Y-22102715D01*
X23950000Y-22100000D01*
X18924000Y-22100000D01*
X18871674Y-22078326D01*
X18850000Y-22026000D01*
X18850000Y-16574000D01*
X18871674Y-16521674D01*
X18924000Y-16500000D01*
X24376000Y-16500000D01*
X24428326Y-16521674D01*
G37*
%TD.AperFunction*%
%TD*%
%TA.AperFunction,Conductor*%
%TO.N,VBUS*%
G36*
X65253407Y-13503345D02*
G01*
X65546608Y-13794877D01*
X65550000Y-13802999D01*
X65550000Y-14087603D01*
X65546632Y-14095735D01*
X65545958Y-14096357D01*
X65216280Y-14377254D01*
X65208822Y-14380000D01*
X64153379Y-14380000D01*
X64150403Y-14379608D01*
X64150000Y-14379500D01*
X63250000Y-14379500D01*
X63249597Y-14379608D01*
X63246621Y-14380000D01*
X63120000Y-14380000D01*
X63120000Y-14380001D01*
X63120000Y-14447819D01*
X63116633Y-14455949D01*
X63115334Y-14457247D01*
X63115332Y-14457251D01*
X63113694Y-14463365D01*
X63094500Y-14535000D01*
X63094500Y-14835000D01*
X63115333Y-14912750D01*
X63116632Y-14914049D01*
X63120000Y-14922180D01*
X63120000Y-15375125D01*
X63116632Y-15383257D01*
X63116496Y-15383390D01*
X61890488Y-16569583D01*
X61890488Y-16569584D01*
X61894310Y-18149237D01*
X61894665Y-18296064D01*
X62440320Y-18840000D01*
X74121661Y-18840000D01*
X74121662Y-18840000D01*
X74206411Y-18755250D01*
X74212293Y-18752107D01*
X74254737Y-18743666D01*
X74262869Y-18740298D01*
X74313323Y-18706587D01*
X76536587Y-16483323D01*
X76570298Y-16432869D01*
X76573666Y-16424737D01*
X76582107Y-16382293D01*
X76585250Y-16376411D01*
X76661662Y-16300000D01*
X76661662Y-14231046D01*
X76665030Y-14222914D01*
X76673162Y-14219546D01*
X76676414Y-14220016D01*
X76739687Y-14238722D01*
X76783484Y-14245102D01*
X80635468Y-14252207D01*
X80643593Y-14255590D01*
X80643993Y-14256013D01*
X80649709Y-14262379D01*
X80654784Y-14267768D01*
X80724248Y-14308436D01*
X80791626Y-14326929D01*
X80798812Y-14328719D01*
X80879235Y-14325375D01*
X80924299Y-14311268D01*
X80925471Y-14310970D01*
X80926616Y-14310742D01*
X80926617Y-14310743D01*
X80954380Y-14305221D01*
X80956623Y-14305000D01*
X81895577Y-14305000D01*
X81895580Y-14305000D01*
X81918626Y-14303283D01*
X81954973Y-14297836D01*
X82017545Y-14273860D01*
X82025953Y-14268313D01*
X82034593Y-14266647D01*
X82041883Y-14271580D01*
X82043392Y-14274936D01*
X82058718Y-14332134D01*
X82130953Y-14457247D01*
X82134485Y-14463365D01*
X82241635Y-14570515D01*
X82372865Y-14646281D01*
X82437022Y-14663471D01*
X82444005Y-14668829D01*
X82445154Y-14677555D01*
X82443601Y-14680979D01*
X82439802Y-14686650D01*
X82439801Y-14686651D01*
X82417261Y-14752791D01*
X82415044Y-14759840D01*
X82415044Y-14759844D01*
X82413642Y-14833423D01*
X82410119Y-14841489D01*
X82401925Y-14844702D01*
X82400347Y-14844563D01*
X82400000Y-14844508D01*
X82399999Y-14844508D01*
X82399997Y-14844508D01*
X82274702Y-14864352D01*
X82274699Y-14864353D01*
X82274697Y-14864353D01*
X82274696Y-14864354D01*
X82217140Y-14893680D01*
X82161657Y-14921950D01*
X82136083Y-14947524D01*
X82127951Y-14950892D01*
X82125708Y-14950671D01*
X82119820Y-14949500D01*
X80940180Y-14949500D01*
X80929279Y-14951668D01*
X80896280Y-14958232D01*
X80896276Y-14958234D01*
X80846497Y-14991494D01*
X80846494Y-14991497D01*
X80813234Y-15041276D01*
X80813232Y-15041280D01*
X80807866Y-15068260D01*
X80804500Y-15085180D01*
X80804500Y-15414820D01*
X80813233Y-15458722D01*
X80813234Y-15458723D01*
X80836544Y-15493611D01*
X80838261Y-15502244D01*
X80836544Y-15506389D01*
X80813234Y-15541276D01*
X80813232Y-15541280D01*
X80809121Y-15561950D01*
X80804500Y-15585180D01*
X80804500Y-15914820D01*
X80813233Y-15958722D01*
X80813234Y-15958723D01*
X80836544Y-15993611D01*
X80838261Y-16002244D01*
X80836544Y-16006389D01*
X80813234Y-16041276D01*
X80813232Y-16041280D01*
X80809979Y-16057636D01*
X80804500Y-16085180D01*
X80804500Y-16414820D01*
X80808091Y-16432871D01*
X80810654Y-16445756D01*
X80808937Y-16454389D01*
X80801619Y-16459279D01*
X80799375Y-16459500D01*
X80720438Y-16459500D01*
X80644012Y-16479978D01*
X80608537Y-16500460D01*
X80575489Y-16519539D01*
X80374539Y-16720489D01*
X80334978Y-16789012D01*
X80314500Y-16865438D01*
X80314500Y-17582395D01*
X80313246Y-17587616D01*
X80294354Y-17624696D01*
X80294353Y-17624697D01*
X80294353Y-17624699D01*
X80294352Y-17624702D01*
X80274508Y-17749997D01*
X80274508Y-17750002D01*
X80294352Y-17875297D01*
X80294353Y-17875300D01*
X80294354Y-17875304D01*
X80351950Y-17988342D01*
X80441658Y-18078050D01*
X80554696Y-18135646D01*
X80554701Y-18135646D01*
X80554702Y-18135647D01*
X80679997Y-18155492D01*
X80680000Y-18155492D01*
X80680003Y-18155492D01*
X80742569Y-18145581D01*
X80791201Y-18137879D01*
X80799759Y-18139933D01*
X80804358Y-18147438D01*
X80804500Y-18149237D01*
X80804500Y-18414820D01*
X80813233Y-18458722D01*
X80813234Y-18458723D01*
X80836544Y-18493611D01*
X80838261Y-18502244D01*
X80836544Y-18506389D01*
X80813234Y-18541276D01*
X80813232Y-18541280D01*
X80806668Y-18574279D01*
X80804500Y-18585180D01*
X80804500Y-18914820D01*
X80813233Y-18958722D01*
X80813234Y-18958723D01*
X80846494Y-19008502D01*
X80846496Y-19008504D01*
X80896278Y-19041767D01*
X80940180Y-19050500D01*
X82080618Y-19050500D01*
X82088750Y-19053868D01*
X82091896Y-19059754D01*
X82099779Y-19099381D01*
X82100000Y-19101625D01*
X82100000Y-19223564D01*
X82100274Y-19232805D01*
X82101152Y-19247535D01*
X82101153Y-19247538D01*
X82113431Y-19299496D01*
X82140950Y-19363761D01*
X82144008Y-19370456D01*
X82144010Y-19370460D01*
X82196718Y-19431289D01*
X82196721Y-19431292D01*
X82210894Y-19440884D01*
X82215739Y-19448230D01*
X82213971Y-19456853D01*
X82212579Y-19458539D01*
X82134484Y-19536634D01*
X82058718Y-19667865D01*
X82043118Y-19726085D01*
X82037760Y-19733067D01*
X82029033Y-19734216D01*
X82026025Y-19732928D01*
X82006429Y-19720983D01*
X81939397Y-19701300D01*
X81939391Y-19701299D01*
X81895580Y-19695000D01*
X81895576Y-19695000D01*
X80956629Y-19695000D01*
X80954382Y-19694778D01*
X80951571Y-19694218D01*
X80949320Y-19693524D01*
X80916734Y-19679673D01*
X80916726Y-19679671D01*
X80863409Y-19666375D01*
X80848938Y-19662766D01*
X80841716Y-19661146D01*
X80841715Y-19661146D01*
X80761392Y-19666375D01*
X80695241Y-19688797D01*
X80688270Y-19691346D01*
X80623526Y-19739170D01*
X80623523Y-19739173D01*
X80579985Y-19793814D01*
X80579366Y-19794870D01*
X80577676Y-19797083D01*
X79924008Y-20466704D01*
X79924001Y-20466711D01*
X79923996Y-20466717D01*
X79919048Y-20472325D01*
X79913610Y-20478491D01*
X79898013Y-20498087D01*
X79870488Y-20551099D01*
X79870484Y-20551107D01*
X79870482Y-20551111D01*
X79870482Y-20551113D01*
X79850800Y-20618139D01*
X79844500Y-20661960D01*
X79844500Y-21386156D01*
X79841132Y-21394288D01*
X79833002Y-21397656D01*
X77383783Y-21398130D01*
X77381983Y-21397989D01*
X77366654Y-21395562D01*
X77360000Y-21394508D01*
X77359999Y-21394508D01*
X77359998Y-21394508D01*
X77359997Y-21394508D01*
X77337958Y-21397998D01*
X77336161Y-21398140D01*
X76588376Y-21398285D01*
X74100030Y-23886632D01*
X74091898Y-23890000D01*
X60075699Y-23890000D01*
X60067703Y-23886765D01*
X57956191Y-21843809D01*
X57952689Y-21835734D01*
X57952687Y-21835532D01*
X57954679Y-19919730D01*
X57822811Y-19793814D01*
X55485220Y-17561741D01*
X55481665Y-17553689D01*
X55481662Y-17553424D01*
X55481662Y-15787665D01*
X55482642Y-15783020D01*
X55487730Y-15771498D01*
X55490500Y-15747623D01*
X55490499Y-15709849D01*
X55493867Y-15701720D01*
X55494216Y-15701385D01*
X57026444Y-14304564D01*
X57034164Y-14301564D01*
X62109879Y-14290306D01*
X62896509Y-13503369D01*
X62904640Y-13500000D01*
X65245299Y-13500000D01*
X65253407Y-13503345D01*
G37*
%TD.AperFunction*%
%TD*%
%TA.AperFunction,Conductor*%
%TO.N,/OUTDUCTOR*%
G36*
X66165966Y-13031932D02*
G01*
X66171174Y-13033184D01*
X66244696Y-13070646D01*
X66244701Y-13070646D01*
X66244702Y-13070647D01*
X66369997Y-13090492D01*
X66370000Y-13090492D01*
X66370003Y-13090492D01*
X66495300Y-13070647D01*
X66495301Y-13070646D01*
X66495304Y-13070646D01*
X66568127Y-13033540D01*
X66573346Y-13032289D01*
X75375243Y-13039995D01*
X75383363Y-13043363D01*
X76426632Y-14086632D01*
X76430000Y-14094764D01*
X76430000Y-16365236D01*
X76426632Y-16373368D01*
X74203368Y-18596632D01*
X74195236Y-18600000D01*
X69511500Y-18600000D01*
X69503368Y-18596632D01*
X69500000Y-18588500D01*
X69500000Y-14400001D01*
X69500000Y-14400000D01*
X68830000Y-13730000D01*
X68829999Y-13730000D01*
X68829998Y-13729999D01*
X67968700Y-13732507D01*
X67960559Y-13729162D01*
X67959105Y-13727396D01*
X67958504Y-13726496D01*
X67958502Y-13726495D01*
X67958502Y-13726494D01*
X67908723Y-13693234D01*
X67908724Y-13693234D01*
X67908722Y-13693233D01*
X67908720Y-13693232D01*
X67908719Y-13693232D01*
X67879321Y-13687384D01*
X67864820Y-13684500D01*
X66535180Y-13684500D01*
X66524279Y-13686668D01*
X66491280Y-13693232D01*
X66491276Y-13693234D01*
X66441497Y-13726494D01*
X66437898Y-13731880D01*
X66430579Y-13736768D01*
X66428370Y-13736989D01*
X65759107Y-13738938D01*
X65750966Y-13735593D01*
X65750850Y-13735477D01*
X65553276Y-13533351D01*
X65550000Y-13525312D01*
X65550000Y-13244674D01*
X65553261Y-13236651D01*
X65732915Y-13052166D01*
X65735923Y-13049949D01*
X65769500Y-13032841D01*
X65774722Y-13031590D01*
X66165966Y-13031932D01*
G37*
%TD.AperFunction*%
%TD*%
%TA.AperFunction,Conductor*%
%TO.N,VIN*%
G36*
X40315639Y-3019685D02*
G01*
X40336325Y-3036363D01*
X40893725Y-3594326D01*
X40927180Y-3655666D01*
X40930000Y-3681963D01*
X40930000Y-7078638D01*
X40910315Y-7145677D01*
X40893681Y-7166319D01*
X40146210Y-7913789D01*
X40084887Y-7947274D01*
X40058792Y-7950108D01*
X20700000Y-7991100D01*
X16736335Y-11963584D01*
X16675049Y-11997137D01*
X16648556Y-12000000D01*
X13724000Y-12000000D01*
X13656961Y-11980315D01*
X13611206Y-11927511D01*
X13600000Y-11876000D01*
X13600000Y-7624000D01*
X13619685Y-7556961D01*
X13672489Y-7511206D01*
X13724000Y-7500000D01*
X14739999Y-7500000D01*
X14740000Y-7500000D01*
X18617962Y-3630637D01*
X19213699Y-3036221D01*
X19275059Y-3002805D01*
X19301283Y-3000000D01*
X40248600Y-3000000D01*
X40315639Y-3019685D01*
G37*
%TD.AperFunction*%
%TD*%
%TA.AperFunction,Conductor*%
%TO.N,GND*%
G36*
X88542539Y-420185D02*
G01*
X88588294Y-472989D01*
X88599500Y-524500D01*
X88599500Y-10710500D01*
X88579815Y-10777539D01*
X88527011Y-10823294D01*
X88475500Y-10834500D01*
X84532369Y-10834500D01*
X84465330Y-10814815D01*
X84419575Y-10762011D01*
X84409631Y-10692853D01*
X84438656Y-10629297D01*
X84473916Y-10601142D01*
X84558532Y-10555913D01*
X84558538Y-10555910D01*
X84710883Y-10430883D01*
X84835910Y-10278538D01*
X84928814Y-10104727D01*
X84986024Y-9916132D01*
X85005341Y-9720000D01*
X84986024Y-9523868D01*
X84928814Y-9335273D01*
X84928811Y-9335269D01*
X84928811Y-9335266D01*
X84906044Y-9292672D01*
X84891802Y-9224269D01*
X84916802Y-9159025D01*
X84927714Y-9146545D01*
X85287441Y-8786819D01*
X85348764Y-8753334D01*
X85375122Y-8750500D01*
X86575500Y-8750500D01*
X86642539Y-8770185D01*
X86688294Y-8822989D01*
X86699500Y-8874500D01*
X86699500Y-8889820D01*
X86699500Y-8889822D01*
X86699499Y-8889822D01*
X86708231Y-8933717D01*
X86708234Y-8933724D01*
X86736876Y-8976590D01*
X86741496Y-8983504D01*
X86791278Y-9016767D01*
X86791281Y-9016767D01*
X86791282Y-9016768D01*
X86835177Y-9025500D01*
X86835180Y-9025500D01*
X87664822Y-9025500D01*
X87708717Y-9016768D01*
X87708717Y-9016767D01*
X87708722Y-9016767D01*
X87758504Y-8983504D01*
X87791767Y-8933722D01*
X87800500Y-8889820D01*
X87800500Y-8110180D01*
X87800500Y-8110177D01*
X87791768Y-8066282D01*
X87791767Y-8066281D01*
X87791767Y-8066278D01*
X87758504Y-8016496D01*
X87738457Y-8003101D01*
X87693653Y-7949492D01*
X87684944Y-7880167D01*
X87715098Y-7817139D01*
X87738458Y-7796898D01*
X87758504Y-7783504D01*
X87791767Y-7733722D01*
X87800500Y-7689820D01*
X87800500Y-7060180D01*
X87800500Y-7060177D01*
X87791768Y-7016282D01*
X87791767Y-7016281D01*
X87791767Y-7016278D01*
X87766993Y-6979201D01*
X87751719Y-6956341D01*
X87754684Y-6954359D01*
X87731204Y-6911358D01*
X87736188Y-6841666D01*
X87753445Y-6814812D01*
X87751719Y-6813659D01*
X87767149Y-6790566D01*
X87791767Y-6753722D01*
X87800500Y-6709820D01*
X87800500Y-6280180D01*
X87800500Y-6280177D01*
X87791768Y-6236282D01*
X87791767Y-6236281D01*
X87791767Y-6236278D01*
X87758504Y-6186496D01*
X87740789Y-6174659D01*
X87708724Y-6153234D01*
X87708717Y-6153231D01*
X87664822Y-6144500D01*
X87664820Y-6144500D01*
X86835180Y-6144500D01*
X86835178Y-6144500D01*
X86791282Y-6153231D01*
X86791275Y-6153234D01*
X86741496Y-6186495D01*
X86741495Y-6186496D01*
X86708234Y-6236275D01*
X86708231Y-6236282D01*
X86699500Y-6280177D01*
X86699500Y-6280180D01*
X86699500Y-6709820D01*
X86699500Y-6709822D01*
X86699499Y-6709822D01*
X86708231Y-6753717D01*
X86708234Y-6753724D01*
X86748281Y-6813659D01*
X86745315Y-6815640D01*
X86768796Y-6858642D01*
X86763812Y-6928334D01*
X86746554Y-6955187D01*
X86748281Y-6956341D01*
X86708234Y-7016275D01*
X86708233Y-7016278D01*
X86706560Y-7024690D01*
X86674175Y-7086601D01*
X86613460Y-7121176D01*
X86584942Y-7124500D01*
X85112262Y-7124500D01*
X85045223Y-7104815D01*
X84999468Y-7052011D01*
X84988859Y-7012653D01*
X84986024Y-6983868D01*
X84928814Y-6795273D01*
X84928811Y-6795269D01*
X84928811Y-6795266D01*
X84835913Y-6621467D01*
X84835909Y-6621460D01*
X84710883Y-6469116D01*
X84558539Y-6344090D01*
X84558532Y-6344086D01*
X84384733Y-6251188D01*
X84384727Y-6251186D01*
X84196132Y-6193976D01*
X84196129Y-6193975D01*
X84000000Y-6174659D01*
X83803870Y-6193975D01*
X83615266Y-6251188D01*
X83441467Y-6344086D01*
X83441460Y-6344090D01*
X83289116Y-6469116D01*
X83164090Y-6621460D01*
X83164086Y-6621467D01*
X83071188Y-6795266D01*
X83013975Y-6983870D01*
X82994659Y-7180000D01*
X83013975Y-7376129D01*
X83071188Y-7564733D01*
X83164086Y-7738532D01*
X83164090Y-7738539D01*
X83289116Y-7890883D01*
X83441460Y-8015909D01*
X83441467Y-8015913D01*
X83615266Y-8108811D01*
X83615269Y-8108811D01*
X83615273Y-8108814D01*
X83803868Y-8166024D01*
X84000000Y-8185341D01*
X84196132Y-8166024D01*
X84384727Y-8108814D01*
X84390849Y-8105542D01*
X84494259Y-8050268D01*
X84558538Y-8015910D01*
X84710883Y-7890883D01*
X84835910Y-7738538D01*
X84861294Y-7691046D01*
X84910257Y-7641203D01*
X84970653Y-7625500D01*
X86584942Y-7625500D01*
X86651981Y-7645185D01*
X86697736Y-7697989D01*
X86706560Y-7725310D01*
X86708233Y-7733721D01*
X86708234Y-7733724D01*
X86741495Y-7783503D01*
X86741496Y-7783504D01*
X86761542Y-7796898D01*
X86806347Y-7850510D01*
X86815054Y-7919835D01*
X86784900Y-7982862D01*
X86761543Y-8003101D01*
X86756911Y-8006195D01*
X86741495Y-8016496D01*
X86708234Y-8066275D01*
X86708231Y-8066282D01*
X86699500Y-8110177D01*
X86699500Y-8125500D01*
X86679815Y-8192539D01*
X86627011Y-8238294D01*
X86575500Y-8249500D01*
X85284270Y-8249500D01*
X85284262Y-8249499D01*
X85269828Y-8249499D01*
X85170173Y-8249499D01*
X85141154Y-8261518D01*
X85141155Y-8261519D01*
X85078101Y-8287637D01*
X85007635Y-8358104D01*
X84573459Y-8792278D01*
X84512136Y-8825763D01*
X84442444Y-8820779D01*
X84427329Y-8813957D01*
X84408321Y-8803797D01*
X84384730Y-8791187D01*
X84365234Y-8785273D01*
X84260949Y-8753638D01*
X84196129Y-8733975D01*
X84000000Y-8714659D01*
X83803870Y-8733975D01*
X83615266Y-8791188D01*
X83441467Y-8884086D01*
X83441460Y-8884090D01*
X83289116Y-9009116D01*
X83164090Y-9161460D01*
X83164086Y-9161467D01*
X83071188Y-9335266D01*
X83013975Y-9523870D01*
X82994659Y-9720000D01*
X83013975Y-9916129D01*
X83013976Y-9916132D01*
X83069391Y-10098811D01*
X83071188Y-10104733D01*
X83164086Y-10278532D01*
X83164090Y-10278539D01*
X83289116Y-10430883D01*
X83441460Y-10555909D01*
X83441467Y-10555913D01*
X83526084Y-10601142D01*
X83575928Y-10650104D01*
X83591389Y-10718241D01*
X83567558Y-10783921D01*
X83512000Y-10826290D01*
X83467631Y-10834500D01*
X82485103Y-10834500D01*
X82466709Y-10836256D01*
X82455671Y-10837310D01*
X82455663Y-10837311D01*
X82409586Y-10846192D01*
X82409585Y-10846193D01*
X82342885Y-10876654D01*
X82342883Y-10876656D01*
X82296153Y-10913407D01*
X82231289Y-10939376D01*
X82162682Y-10926155D01*
X82112114Y-10877940D01*
X82095500Y-10815938D01*
X82095500Y-10642387D01*
X82115185Y-10575348D01*
X82167989Y-10529593D01*
X82188540Y-10523292D01*
X82188492Y-10523140D01*
X82196937Y-10520440D01*
X82196940Y-10520440D01*
X82196942Y-10520438D01*
X82196945Y-10520438D01*
X82238074Y-10500458D01*
X82269342Y-10485269D01*
X82322146Y-10439514D01*
X82327621Y-10434536D01*
X82333669Y-10424615D01*
X82348470Y-10400333D01*
X82369516Y-10365806D01*
X82389201Y-10298767D01*
X82395500Y-10254956D01*
X82395500Y-8754000D01*
X82391946Y-8720945D01*
X82380740Y-8669434D01*
X82354594Y-8617201D01*
X82346313Y-8600657D01*
X82300563Y-8547860D01*
X82295577Y-8542376D01*
X82226854Y-8500486D01*
X82226848Y-8500483D01*
X82159812Y-8480799D01*
X82159802Y-8480797D01*
X82116003Y-8474500D01*
X82116000Y-8474500D01*
X78591362Y-8474500D01*
X78574754Y-8475390D01*
X78574745Y-8475390D01*
X78574739Y-8475391D01*
X78574733Y-8475391D01*
X78574702Y-8475394D01*
X78548380Y-8478224D01*
X78548378Y-8478225D01*
X78490483Y-8496354D01*
X78490473Y-8496358D01*
X78429163Y-8529836D01*
X78429155Y-8529841D01*
X78393733Y-8556357D01*
X78393715Y-8556373D01*
X76797181Y-10152908D01*
X76735858Y-10186393D01*
X76666166Y-10181409D01*
X76610233Y-10139537D01*
X76585816Y-10074073D01*
X76585500Y-10065227D01*
X76585500Y-9004765D01*
X76585500Y-9004764D01*
X76573666Y-8945263D01*
X76570298Y-8937131D01*
X76559006Y-8920231D01*
X76536589Y-8886679D01*
X71246289Y-3596379D01*
X71246274Y-3596364D01*
X71246260Y-3596351D01*
X71246248Y-3596340D01*
X71233910Y-3585257D01*
X71233883Y-3585234D01*
X71213250Y-3568607D01*
X71213245Y-3568604D01*
X71159488Y-3540484D01*
X71159487Y-3540483D01*
X71159482Y-3540481D01*
X71092454Y-3520800D01*
X71092440Y-3520797D01*
X71048641Y-3514500D01*
X71048638Y-3514500D01*
X64304000Y-3514500D01*
X64303991Y-3514500D01*
X64270944Y-3518054D01*
X64219433Y-3529260D01*
X64150657Y-3563686D01*
X64097860Y-3609436D01*
X64092376Y-3614422D01*
X64050486Y-3683145D01*
X64050483Y-3683151D01*
X64030799Y-3750187D01*
X64030797Y-3750197D01*
X64024500Y-3793996D01*
X64024500Y-6706008D01*
X64028054Y-6739055D01*
X64039260Y-6790566D01*
X64073686Y-6859342D01*
X64119436Y-6912139D01*
X64124422Y-6917623D01*
X64184690Y-6954359D01*
X64193150Y-6959516D01*
X64260189Y-6979201D01*
X64304000Y-6985500D01*
X68095199Y-6985500D01*
X68162238Y-7005185D01*
X68207993Y-7057989D01*
X68217937Y-7127147D01*
X68215866Y-7136348D01*
X68215134Y-7141375D01*
X68204500Y-7214364D01*
X68204500Y-7785636D01*
X68215134Y-7858625D01*
X68215134Y-7858626D01*
X68215135Y-7858628D01*
X68270172Y-7971210D01*
X68343181Y-8044219D01*
X68376666Y-8105542D01*
X68379500Y-8131900D01*
X68379500Y-8313456D01*
X68359815Y-8380495D01*
X68343181Y-8401137D01*
X68265803Y-8478514D01*
X68214426Y-8583608D01*
X68204500Y-8651739D01*
X68204500Y-9118260D01*
X68214426Y-9186391D01*
X68265803Y-9291485D01*
X68348514Y-9374196D01*
X68348515Y-9374196D01*
X68348517Y-9374198D01*
X68453607Y-9425573D01*
X68485158Y-9430170D01*
X68521739Y-9435500D01*
X68521740Y-9435500D01*
X69138259Y-9435500D01*
X69138260Y-9435500D01*
X69202623Y-9426122D01*
X69271798Y-9435934D01*
X69324689Y-9481589D01*
X69344500Y-9548592D01*
X69344500Y-9871173D01*
X69324815Y-9938212D01*
X69272011Y-9983967D01*
X69202853Y-9993911D01*
X69202753Y-9993896D01*
X69138260Y-9984500D01*
X68521740Y-9984500D01*
X68521739Y-9984500D01*
X68453608Y-9994426D01*
X68348514Y-10045803D01*
X68265803Y-10128514D01*
X68214427Y-10233607D01*
X68204500Y-10301739D01*
X68204500Y-10377720D01*
X68184815Y-10444759D01*
X68132011Y-10490514D01*
X68062853Y-10500458D01*
X67999297Y-10471433D01*
X67992819Y-10465401D01*
X67927751Y-10400333D01*
X67888875Y-10389916D01*
X67850000Y-10379500D01*
X67849999Y-10379500D01*
X67643190Y-10379500D01*
X67576151Y-10359815D01*
X67530396Y-10307011D01*
X67520452Y-10237853D01*
X67532704Y-10199207D01*
X67585646Y-10095304D01*
X67585646Y-10095302D01*
X67585647Y-10095301D01*
X67585647Y-10095300D01*
X67605492Y-9970003D01*
X67605492Y-9969996D01*
X67585647Y-9844699D01*
X67585647Y-9844698D01*
X67581526Y-9836611D01*
X67528050Y-9731658D01*
X67528046Y-9731654D01*
X67528045Y-9731652D01*
X67438347Y-9641954D01*
X67438344Y-9641952D01*
X67438342Y-9641950D01*
X67325304Y-9584354D01*
X67325303Y-9584353D01*
X67325300Y-9584352D01*
X67200003Y-9564508D01*
X67199997Y-9564508D01*
X67074699Y-9584352D01*
X67074698Y-9584352D01*
X66999337Y-9622751D01*
X66961658Y-9641950D01*
X66961657Y-9641951D01*
X66961656Y-9641951D01*
X66871949Y-9731659D01*
X66861151Y-9752851D01*
X66838352Y-9784229D01*
X66830686Y-9791897D01*
X66815332Y-9807251D01*
X66803587Y-9851085D01*
X66794500Y-9885000D01*
X66794500Y-10535000D01*
X66794500Y-10835000D01*
X66803476Y-10868499D01*
X66819528Y-10928407D01*
X66817865Y-10998257D01*
X66778702Y-11056119D01*
X66714473Y-11083623D01*
X66699753Y-11084500D01*
X66535178Y-11084500D01*
X66491282Y-11093231D01*
X66491279Y-11093232D01*
X66453509Y-11118469D01*
X66444290Y-11121355D01*
X66443482Y-11123524D01*
X66441496Y-11126495D01*
X66441496Y-11126496D01*
X66433435Y-11138560D01*
X66408232Y-11176279D01*
X66408231Y-11176282D01*
X66399500Y-11220177D01*
X66399500Y-11360500D01*
X66379815Y-11427539D01*
X66327011Y-11473294D01*
X66275500Y-11484500D01*
X65779500Y-11484500D01*
X65712461Y-11464815D01*
X65666706Y-11412011D01*
X65655500Y-11360500D01*
X65655500Y-11124008D01*
X65655500Y-11124000D01*
X65653603Y-11106358D01*
X65666007Y-11037599D01*
X65713617Y-10986461D01*
X65729437Y-10978542D01*
X65745003Y-10972094D01*
X65745761Y-10973925D01*
X65797780Y-10957634D01*
X65854539Y-10973201D01*
X65854998Y-10972094D01*
X65863810Y-10975744D01*
X65865161Y-10976115D01*
X65865987Y-10976646D01*
X65866275Y-10976765D01*
X65866278Y-10976767D01*
X65866281Y-10976767D01*
X65866282Y-10976768D01*
X65910177Y-10985500D01*
X65910180Y-10985500D01*
X66189822Y-10985500D01*
X66233717Y-10976768D01*
X66233717Y-10976767D01*
X66233722Y-10976767D01*
X66271490Y-10951531D01*
X66280707Y-10948645D01*
X66281518Y-10946473D01*
X66283500Y-10943506D01*
X66283504Y-10943504D01*
X66316767Y-10893722D01*
X66318538Y-10884818D01*
X66325500Y-10849822D01*
X66325500Y-9124499D01*
X66345185Y-9057460D01*
X66397989Y-9011705D01*
X66449500Y-9000499D01*
X66563366Y-9000499D01*
X66563372Y-9000499D01*
X66587662Y-8997682D01*
X66687016Y-8953813D01*
X66763813Y-8877016D01*
X66807682Y-8777662D01*
X66810500Y-8753373D01*
X66810499Y-8326628D01*
X66807682Y-8302338D01*
X66763813Y-8202984D01*
X66687016Y-8126187D01*
X66675871Y-8121266D01*
X66587663Y-8082318D01*
X66563373Y-8079500D01*
X66196634Y-8079500D01*
X66196611Y-8079502D01*
X66172340Y-8082317D01*
X66172337Y-8082318D01*
X66072984Y-8126186D01*
X65996187Y-8202983D01*
X65952318Y-8302335D01*
X65952318Y-8302337D01*
X65949500Y-8326625D01*
X65949500Y-8529522D01*
X65929815Y-8596561D01*
X65913185Y-8617199D01*
X65893942Y-8636443D01*
X65893935Y-8636450D01*
X65887674Y-8642710D01*
X65826348Y-8676190D01*
X65756657Y-8671200D01*
X65712319Y-8642703D01*
X65686816Y-8617200D01*
X65653332Y-8555876D01*
X65650499Y-8529520D01*
X65650499Y-8326634D01*
X65650499Y-8326628D01*
X65647682Y-8302338D01*
X65603813Y-8202984D01*
X65527016Y-8126187D01*
X65515871Y-8121266D01*
X65427663Y-8082318D01*
X65403373Y-8079500D01*
X65036634Y-8079500D01*
X65036611Y-8079502D01*
X65012340Y-8082317D01*
X65012337Y-8082318D01*
X64912984Y-8126186D01*
X64836187Y-8202983D01*
X64792318Y-8302335D01*
X64792318Y-8302337D01*
X64789500Y-8326625D01*
X64789500Y-8753365D01*
X64789502Y-8753388D01*
X64792317Y-8777659D01*
X64792318Y-8777662D01*
X64840828Y-8887527D01*
X64837399Y-8889040D01*
X64852674Y-8935903D01*
X64834975Y-9003494D01*
X64785025Y-9050044D01*
X64761652Y-9061953D01*
X64761463Y-9062091D01*
X64761194Y-9062186D01*
X64752965Y-9066380D01*
X64752422Y-9065315D01*
X64695654Y-9085564D01*
X64662809Y-9080000D01*
X64650000Y-9080000D01*
X63279500Y-9080000D01*
X63212461Y-9060315D01*
X63166706Y-9007511D01*
X63155500Y-8956000D01*
X63155500Y-2751361D01*
X63155444Y-2750323D01*
X63154609Y-2734739D01*
X63151775Y-2708381D01*
X63135866Y-2657575D01*
X64224500Y-2657575D01*
X64224500Y-2912424D01*
X64239177Y-2986211D01*
X64239178Y-2986214D01*
X64239179Y-2986216D01*
X64295097Y-3069903D01*
X64378784Y-3125821D01*
X64378787Y-3125821D01*
X64378788Y-3125822D01*
X64452575Y-3140499D01*
X64452578Y-3140500D01*
X64452580Y-3140500D01*
X64461884Y-3140500D01*
X64518176Y-3154014D01*
X64609696Y-3200646D01*
X64609697Y-3200646D01*
X64609699Y-3200647D01*
X64734997Y-3220492D01*
X64735000Y-3220492D01*
X64735003Y-3220492D01*
X64860300Y-3200647D01*
X64860301Y-3200647D01*
X64860302Y-3200646D01*
X64860304Y-3200646D01*
X64951823Y-3154014D01*
X65008116Y-3140500D01*
X65017422Y-3140500D01*
X65017423Y-3140499D01*
X65091216Y-3125821D01*
X65174903Y-3069903D01*
X65230821Y-2986216D01*
X65245500Y-2912420D01*
X65245500Y-2657580D01*
X65245500Y-2657577D01*
X65245499Y-2657575D01*
X65230822Y-2583788D01*
X65230821Y-2583787D01*
X65230821Y-2583784D01*
X65174903Y-2500097D01*
X65091216Y-2444179D01*
X65091214Y-2444178D01*
X65091211Y-2444177D01*
X65017424Y-2429500D01*
X65017420Y-2429500D01*
X64870986Y-2429500D01*
X64851588Y-2427973D01*
X64735002Y-2409508D01*
X64734998Y-2409508D01*
X64618412Y-2427973D01*
X64599014Y-2429500D01*
X64452575Y-2429500D01*
X64378788Y-2444177D01*
X64378784Y-2444179D01*
X64295097Y-2500097D01*
X64239179Y-2583784D01*
X64239177Y-2583788D01*
X64224500Y-2657575D01*
X63135866Y-2657575D01*
X63133645Y-2650481D01*
X63100160Y-2589158D01*
X63096137Y-2583784D01*
X63073642Y-2553733D01*
X63073626Y-2553715D01*
X62446289Y-1926379D01*
X62446274Y-1926364D01*
X62446260Y-1926351D01*
X62446248Y-1926340D01*
X62433910Y-1915257D01*
X62433883Y-1915234D01*
X62413250Y-1898607D01*
X62413245Y-1898604D01*
X62359482Y-1870481D01*
X62292454Y-1850800D01*
X62292440Y-1850797D01*
X62248641Y-1844500D01*
X62248638Y-1844500D01*
X59051607Y-1844500D01*
X59041960Y-1845025D01*
X59034720Y-1845419D01*
X59007960Y-1848341D01*
X58949861Y-1866694D01*
X58949854Y-1866697D01*
X58888650Y-1900386D01*
X58888645Y-1900389D01*
X58853313Y-1927025D01*
X58853297Y-1927039D01*
X58087626Y-2697885D01*
X58026416Y-2731577D01*
X57999650Y-2734500D01*
X44271362Y-2734500D01*
X44254754Y-2735390D01*
X44254745Y-2735390D01*
X44254739Y-2735391D01*
X44254733Y-2735391D01*
X44254702Y-2735394D01*
X44228380Y-2738224D01*
X44228378Y-2738225D01*
X44170483Y-2756354D01*
X44170473Y-2756358D01*
X44109163Y-2789836D01*
X44109155Y-2789841D01*
X44073733Y-2816357D01*
X44073715Y-2816373D01*
X43326379Y-3563710D01*
X43326340Y-3563751D01*
X43315257Y-3576089D01*
X43315234Y-3576116D01*
X43298607Y-3596749D01*
X43298604Y-3596754D01*
X43270481Y-3650517D01*
X43250800Y-3717545D01*
X43250797Y-3717559D01*
X43244500Y-3761358D01*
X43244500Y-8148638D01*
X43245390Y-8165245D01*
X43245394Y-8165297D01*
X43248224Y-8191619D01*
X43248225Y-8191621D01*
X43266354Y-8249516D01*
X43266358Y-8249526D01*
X43299836Y-8310836D01*
X43299841Y-8310844D01*
X43326357Y-8346266D01*
X43326373Y-8346284D01*
X43701034Y-8720944D01*
X44063726Y-9083636D01*
X44063740Y-9083649D01*
X44063751Y-9083659D01*
X44076089Y-9094742D01*
X44076105Y-9094755D01*
X44076111Y-9094761D01*
X44096753Y-9111395D01*
X44150512Y-9139516D01*
X44150514Y-9139516D01*
X44150517Y-9139518D01*
X44196811Y-9153111D01*
X44217551Y-9159201D01*
X44261362Y-9165500D01*
X53784228Y-9165500D01*
X53851267Y-9185185D01*
X53871909Y-9201819D01*
X55843726Y-11173636D01*
X55843740Y-11173649D01*
X55843751Y-11173659D01*
X55856089Y-11184742D01*
X55856105Y-11184755D01*
X55856111Y-11184761D01*
X55876753Y-11201395D01*
X55930512Y-11229516D01*
X55930514Y-11229516D01*
X55930517Y-11229518D01*
X55976811Y-11243111D01*
X55997551Y-11249201D01*
X56041362Y-11255500D01*
X62084228Y-11255500D01*
X62151267Y-11275185D01*
X62171909Y-11291819D01*
X62753726Y-11873636D01*
X62753740Y-11873649D01*
X62753751Y-11873659D01*
X62766089Y-11884742D01*
X62766105Y-11884755D01*
X62766111Y-11884761D01*
X62786753Y-11901395D01*
X62840512Y-11929516D01*
X62840514Y-11929516D01*
X62840517Y-11929518D01*
X62865059Y-11936724D01*
X62907551Y-11949201D01*
X62951362Y-11955500D01*
X62951365Y-11955500D01*
X65270500Y-11955500D01*
X65337539Y-11975185D01*
X65383294Y-12027989D01*
X65394500Y-12079500D01*
X65394500Y-12177477D01*
X65405216Y-12234198D01*
X65405218Y-12234203D01*
X65408280Y-12242017D01*
X65408281Y-12242019D01*
X65438946Y-12290915D01*
X65438950Y-12290921D01*
X65535544Y-12395265D01*
X65576403Y-12426795D01*
X65576406Y-12426797D01*
X65583044Y-12430342D01*
X65583046Y-12430343D01*
X65631963Y-12446758D01*
X65631972Y-12446761D01*
X65631981Y-12446762D01*
X65636995Y-12447992D01*
X65636719Y-12449114D01*
X65664149Y-12458002D01*
X65677601Y-12464856D01*
X65682396Y-12467299D01*
X65716703Y-12479953D01*
X65721924Y-12481206D01*
X65758212Y-12485500D01*
X65850920Y-12485500D01*
X65917959Y-12505185D01*
X65963714Y-12557989D01*
X65973658Y-12627147D01*
X65973393Y-12628897D01*
X65964508Y-12684996D01*
X65964508Y-12684997D01*
X65964508Y-12685000D01*
X65970131Y-12720500D01*
X65972072Y-12732758D01*
X65963116Y-12802052D01*
X65918119Y-12855503D01*
X65851367Y-12876142D01*
X65849490Y-12876155D01*
X65774860Y-12876090D01*
X65774859Y-12876090D01*
X65774858Y-12876090D01*
X65774855Y-12876090D01*
X65774845Y-12876091D01*
X65738506Y-12880366D01*
X65738492Y-12880369D01*
X65733290Y-12881615D01*
X65733277Y-12881618D01*
X65733273Y-12881620D01*
X65733267Y-12881622D01*
X65733258Y-12881625D01*
X65698911Y-12894286D01*
X65665326Y-12911398D01*
X65643666Y-12924772D01*
X65640666Y-12926983D01*
X65621512Y-12943678D01*
X65441858Y-13128162D01*
X65441855Y-13128166D01*
X65409205Y-13178099D01*
X65405945Y-13186122D01*
X65394000Y-13247230D01*
X65361819Y-13309247D01*
X65301218Y-13344022D01*
X65251344Y-13345012D01*
X65251337Y-13345093D01*
X65250656Y-13345026D01*
X65248201Y-13345075D01*
X65245302Y-13344500D01*
X65245299Y-13344500D01*
X62904640Y-13344500D01*
X62845122Y-13356341D01*
X62845112Y-13356344D01*
X62836987Y-13359710D01*
X62786528Y-13393437D01*
X62081515Y-14098725D01*
X62020199Y-14132222D01*
X61994092Y-14135061D01*
X57033814Y-14146064D01*
X56977843Y-14156622D01*
X56977838Y-14156623D01*
X56970122Y-14159622D01*
X56970117Y-14159624D01*
X56921684Y-14189649D01*
X55655507Y-15343930D01*
X55592702Y-15374547D01*
X55523315Y-15366350D01*
X55469375Y-15321940D01*
X55458534Y-15302379D01*
X55444619Y-15270864D01*
X55444617Y-15270861D01*
X55444616Y-15270859D01*
X55369141Y-15195384D01*
X55369138Y-15195383D01*
X55369136Y-15195381D01*
X55271500Y-15152270D01*
X55271501Y-15152270D01*
X55247623Y-15149500D01*
X54792384Y-15149500D01*
X54792361Y-15149502D01*
X54768504Y-15152269D01*
X54768501Y-15152269D01*
X54670864Y-15195380D01*
X54670856Y-15195386D01*
X54595386Y-15270856D01*
X54595381Y-15270863D01*
X54552270Y-15368499D01*
X54549500Y-15392375D01*
X54549500Y-15679521D01*
X54529815Y-15746560D01*
X54513185Y-15767197D01*
X54177202Y-16103182D01*
X54115881Y-16136666D01*
X54089523Y-16139500D01*
X54015228Y-16139500D01*
X53930153Y-16164478D01*
X53895224Y-16169500D01*
X53852373Y-16169500D01*
X53828504Y-16172269D01*
X53828501Y-16172269D01*
X53730864Y-16215380D01*
X53730856Y-16215386D01*
X53655386Y-16290856D01*
X53655381Y-16290863D01*
X53612270Y-16388499D01*
X53609500Y-16412375D01*
X53609500Y-16767615D01*
X53609502Y-16767638D01*
X53612269Y-16791495D01*
X53612269Y-16791498D01*
X53655380Y-16889135D01*
X53655383Y-16889139D01*
X53655384Y-16889141D01*
X53730859Y-16964616D01*
X53730862Y-16964617D01*
X53730863Y-16964618D01*
X53828499Y-17007729D01*
X53828500Y-17007729D01*
X53828502Y-17007730D01*
X53852377Y-17010500D01*
X53895225Y-17010499D01*
X53930161Y-17015522D01*
X54015227Y-17040500D01*
X54015228Y-17040500D01*
X54144772Y-17040500D01*
X54229841Y-17015521D01*
X54264775Y-17010499D01*
X54307616Y-17010499D01*
X54307622Y-17010499D01*
X54331498Y-17007730D01*
X54429135Y-16964619D01*
X54429136Y-16964618D01*
X54429141Y-16964616D01*
X54462319Y-16931438D01*
X54523642Y-16897953D01*
X54593334Y-16902937D01*
X54637681Y-16931438D01*
X54670859Y-16964616D01*
X54670862Y-16964617D01*
X54670863Y-16964618D01*
X54768499Y-17007729D01*
X54768500Y-17007729D01*
X54768502Y-17007730D01*
X54792377Y-17010500D01*
X55202162Y-17010499D01*
X55269201Y-17030183D01*
X55314956Y-17082987D01*
X55326162Y-17134499D01*
X55326162Y-17553422D01*
X55326172Y-17555193D01*
X55326174Y-17555446D01*
X55326175Y-17555453D01*
X55339411Y-17616489D01*
X55339412Y-17616493D01*
X55339413Y-17616494D01*
X55342968Y-17624546D01*
X55377832Y-17674205D01*
X55377833Y-17674206D01*
X55377834Y-17674207D01*
X55377836Y-17674209D01*
X57144177Y-19360818D01*
X57179068Y-19421352D01*
X57175694Y-19491140D01*
X57135125Y-19548025D01*
X57070242Y-19573947D01*
X57058543Y-19574500D01*
X46143991Y-19574500D01*
X46110944Y-19578054D01*
X46059433Y-19589260D01*
X45990657Y-19623686D01*
X45937860Y-19669436D01*
X45932376Y-19674422D01*
X45890486Y-19743145D01*
X45890483Y-19743151D01*
X45870799Y-19810187D01*
X45870797Y-19810197D01*
X45864500Y-19853996D01*
X45864500Y-24775500D01*
X45844815Y-24842539D01*
X45792011Y-24888294D01*
X45740500Y-24899500D01*
X9000000Y-24899500D01*
X9000000Y-18112024D01*
X9119386Y-17982337D01*
X9241800Y-17794970D01*
X9331703Y-17590009D01*
X9386646Y-17373047D01*
X9391856Y-17310174D01*
X9405128Y-17150005D01*
X9405128Y-17149994D01*
X9386647Y-16926960D01*
X9386646Y-16926957D01*
X9386646Y-16926953D01*
X9331703Y-16709991D01*
X9241800Y-16505030D01*
X9119386Y-16317663D01*
X9000000Y-16187975D01*
X9000000Y-15355500D01*
X10435233Y-15355500D01*
X10502272Y-15375185D01*
X10522914Y-15391819D01*
X11811670Y-16680575D01*
X11845155Y-16741898D01*
X11846463Y-16787647D01*
X11844508Y-16799994D01*
X11844508Y-16800003D01*
X11864352Y-16925300D01*
X11867369Y-16934583D01*
X11864319Y-16935574D01*
X11874144Y-16987864D01*
X11847873Y-17052607D01*
X11790770Y-17092868D01*
X11750762Y-17099500D01*
X10685178Y-17099500D01*
X10641282Y-17108231D01*
X10641275Y-17108234D01*
X10591496Y-17141495D01*
X10591495Y-17141496D01*
X10558234Y-17191275D01*
X10558231Y-17191282D01*
X10549500Y-17235177D01*
X10549500Y-18664822D01*
X10558231Y-18708717D01*
X10558234Y-18708724D01*
X10567987Y-18723320D01*
X10591496Y-18758504D01*
X10641278Y-18791767D01*
X10641281Y-18791767D01*
X10641282Y-18791768D01*
X10685177Y-18800500D01*
X10685180Y-18800500D01*
X11780233Y-18800500D01*
X11847272Y-18820185D01*
X11867914Y-18836819D01*
X12026759Y-18995664D01*
X12026762Y-18995668D01*
X12033830Y-19002736D01*
X12097264Y-19066170D01*
X12097269Y-19066172D01*
X12107719Y-19070501D01*
X12107720Y-19070501D01*
X12180143Y-19100500D01*
X12180144Y-19100500D01*
X12180146Y-19100501D01*
X12180147Y-19100501D01*
X12243398Y-19100501D01*
X12310437Y-19120186D01*
X12356192Y-19172990D01*
X12366136Y-19242148D01*
X12337111Y-19305704D01*
X12312288Y-19327603D01*
X12291496Y-19341495D01*
X12291495Y-19341496D01*
X12258234Y-19391275D01*
X12258231Y-19391282D01*
X12249500Y-19435177D01*
X12249500Y-19435180D01*
X12249500Y-20864820D01*
X12249500Y-20864822D01*
X12249499Y-20864822D01*
X12258231Y-20908717D01*
X12258234Y-20908724D01*
X12286148Y-20950500D01*
X12291496Y-20958504D01*
X12341278Y-20991767D01*
X12341281Y-20991767D01*
X12341282Y-20991768D01*
X12385177Y-21000500D01*
X12385180Y-21000500D01*
X13614822Y-21000500D01*
X13658717Y-20991768D01*
X13658717Y-20991767D01*
X13658722Y-20991767D01*
X13708504Y-20958504D01*
X13741767Y-20908722D01*
X13746773Y-20883558D01*
X13750500Y-20864822D01*
X13750500Y-20219500D01*
X13770185Y-20152461D01*
X13822989Y-20106706D01*
X13874500Y-20095500D01*
X13919396Y-20095500D01*
X13986435Y-20115185D01*
X14032190Y-20167989D01*
X14032796Y-20169338D01*
X14036187Y-20177016D01*
X14112984Y-20253813D01*
X14212338Y-20297682D01*
X14236627Y-20300500D01*
X14663372Y-20300499D01*
X14687662Y-20297682D01*
X14787016Y-20253813D01*
X14863813Y-20177016D01*
X14907682Y-20077662D01*
X14910500Y-20053373D01*
X14910499Y-19686628D01*
X14907682Y-19662338D01*
X14863813Y-19562984D01*
X14863810Y-19562981D01*
X14861879Y-19560161D01*
X14859943Y-19554219D01*
X14859172Y-19552473D01*
X14859348Y-19552394D01*
X14840234Y-19493728D01*
X14857940Y-19426140D01*
X14876496Y-19402408D01*
X15183987Y-19094916D01*
X15245308Y-19061433D01*
X15309308Y-19066010D01*
X15309507Y-19065282D01*
X15313206Y-19066288D01*
X15314999Y-19066417D01*
X15317667Y-19067502D01*
X15318496Y-19067727D01*
X15318502Y-19067730D01*
X15342377Y-19070500D01*
X15697622Y-19070499D01*
X15721498Y-19067730D01*
X15819135Y-19024619D01*
X15819136Y-19024618D01*
X15819141Y-19024616D01*
X15894616Y-18949141D01*
X15916566Y-18899430D01*
X15961651Y-18846054D01*
X16028438Y-18825526D01*
X16095720Y-18844364D01*
X16142136Y-18896587D01*
X16143434Y-18899430D01*
X16149277Y-18912664D01*
X16165384Y-18949141D01*
X16165386Y-18949143D01*
X16221692Y-19005449D01*
X16255177Y-19066772D01*
X16250193Y-19136464D01*
X16208321Y-19192397D01*
X16204098Y-19195423D01*
X16202986Y-19196184D01*
X16126187Y-19272983D01*
X16082318Y-19372335D01*
X16082318Y-19372337D01*
X16079500Y-19396625D01*
X16079500Y-19823365D01*
X16079502Y-19823388D01*
X16082317Y-19847659D01*
X16082318Y-19847662D01*
X16126186Y-19947015D01*
X16209528Y-20030357D01*
X16243013Y-20091680D01*
X16238029Y-20161372D01*
X16204374Y-20206327D01*
X16206109Y-20208062D01*
X16121187Y-20292983D01*
X16077318Y-20392335D01*
X16077318Y-20392337D01*
X16074500Y-20416625D01*
X16074500Y-20843365D01*
X16074502Y-20843388D01*
X16077317Y-20867659D01*
X16077318Y-20867662D01*
X16121186Y-20967015D01*
X16121187Y-20967016D01*
X16197984Y-21043813D01*
X16297338Y-21087682D01*
X16321627Y-21090500D01*
X16351673Y-21090499D01*
X16418710Y-21110182D01*
X16464467Y-21162984D01*
X16474412Y-21232142D01*
X16445389Y-21295699D01*
X16439355Y-21302180D01*
X16048356Y-21693181D01*
X15987033Y-21726666D01*
X15960675Y-21729500D01*
X11804297Y-21729500D01*
X11804289Y-21729499D01*
X11789855Y-21729499D01*
X11700146Y-21729499D01*
X11700145Y-21729499D01*
X11678250Y-21738568D01*
X11656355Y-21747638D01*
X11617264Y-21763830D01*
X11617262Y-21763831D01*
X11553829Y-21827264D01*
X11553829Y-21827265D01*
X11387912Y-21993182D01*
X11326591Y-22026666D01*
X11300233Y-22029500D01*
X9805178Y-22029500D01*
X9761282Y-22038231D01*
X9761275Y-22038234D01*
X9711496Y-22071495D01*
X9711495Y-22071496D01*
X9678234Y-22121275D01*
X9678231Y-22121282D01*
X9669500Y-22165177D01*
X9669500Y-22165180D01*
X9669500Y-23894820D01*
X9669500Y-23894822D01*
X9669499Y-23894822D01*
X9678231Y-23938717D01*
X9678232Y-23938721D01*
X9678233Y-23938722D01*
X9711496Y-23988504D01*
X9761278Y-24021767D01*
X9761281Y-24021767D01*
X9761282Y-24021768D01*
X9805177Y-24030500D01*
X9805180Y-24030500D01*
X11534822Y-24030500D01*
X11578717Y-24021768D01*
X11578717Y-24021767D01*
X11578722Y-24021767D01*
X11628504Y-23988504D01*
X11661767Y-23938722D01*
X11661843Y-23938342D01*
X11670500Y-23894822D01*
X11670500Y-22399767D01*
X11690185Y-22332728D01*
X11706819Y-22312086D01*
X11802086Y-22216819D01*
X11863409Y-22183334D01*
X11889767Y-22180500D01*
X14890700Y-22180500D01*
X14957739Y-22200185D01*
X15003494Y-22252989D01*
X15013438Y-22322147D01*
X14986553Y-22383165D01*
X14914090Y-22471460D01*
X14914086Y-22471467D01*
X14821188Y-22645266D01*
X14763975Y-22833870D01*
X14744659Y-23030000D01*
X14763975Y-23226129D01*
X14763976Y-23226132D01*
X14816264Y-23398503D01*
X14821188Y-23414733D01*
X14914086Y-23588532D01*
X14914090Y-23588539D01*
X15039116Y-23740883D01*
X15191460Y-23865909D01*
X15191467Y-23865913D01*
X15365266Y-23958811D01*
X15365269Y-23958811D01*
X15365273Y-23958814D01*
X15553868Y-24016024D01*
X15750000Y-24035341D01*
X15946132Y-24016024D01*
X16134727Y-23958814D01*
X16172317Y-23938722D01*
X16222961Y-23911652D01*
X16308538Y-23865910D01*
X16460883Y-23740883D01*
X16585910Y-23588538D01*
X16664067Y-23442317D01*
X16678811Y-23414733D01*
X16678811Y-23414732D01*
X16678814Y-23414727D01*
X16736024Y-23226132D01*
X16755341Y-23030000D01*
X16736024Y-22833868D01*
X16678814Y-22645273D01*
X16678811Y-22645269D01*
X16678811Y-22645266D01*
X16585913Y-22471467D01*
X16585909Y-22471460D01*
X16542823Y-22418960D01*
X16515510Y-22354650D01*
X16527301Y-22285782D01*
X16550992Y-22252617D01*
X17412819Y-21390791D01*
X17474142Y-21357306D01*
X17543834Y-21362290D01*
X17599767Y-21404162D01*
X17624184Y-21469626D01*
X17624500Y-21478472D01*
X17624500Y-21569752D01*
X17636131Y-21628229D01*
X17636132Y-21628231D01*
X17638058Y-21631113D01*
X17640322Y-21638344D01*
X17640806Y-21639513D01*
X17640701Y-21639556D01*
X17658933Y-21697791D01*
X17640446Y-21765171D01*
X17638058Y-21768887D01*
X17636132Y-21771768D01*
X17636131Y-21771770D01*
X17624500Y-21830247D01*
X17624500Y-21969752D01*
X17636131Y-22028229D01*
X17636132Y-22028230D01*
X17680447Y-22094552D01*
X17746769Y-22138867D01*
X17746770Y-22138868D01*
X17805247Y-22150499D01*
X17805250Y-22150500D01*
X17805252Y-22150500D01*
X18619749Y-22150500D01*
X18643463Y-22145783D01*
X18713054Y-22152010D01*
X18743140Y-22169023D01*
X18748307Y-22172987D01*
X18748308Y-22172989D01*
X18758685Y-22180951D01*
X18799888Y-22237377D01*
X18804817Y-22303515D01*
X18799500Y-22330249D01*
X18799500Y-23144752D01*
X18811131Y-23203229D01*
X18811132Y-23203231D01*
X18840117Y-23246608D01*
X18860996Y-23313285D01*
X18842512Y-23380665D01*
X18790534Y-23427356D01*
X18740170Y-23438790D01*
X18740200Y-23439295D01*
X18737181Y-23439469D01*
X18737047Y-23439500D01*
X18736649Y-23439500D01*
X18736630Y-23439500D01*
X18736628Y-23439501D01*
X18736626Y-23439501D01*
X18736611Y-23439502D01*
X18712340Y-23442317D01*
X18712337Y-23442318D01*
X18612984Y-23486186D01*
X18536187Y-23562983D01*
X18492318Y-23662335D01*
X18492318Y-23662337D01*
X18489500Y-23686625D01*
X18489500Y-24113365D01*
X18489502Y-24113388D01*
X18492317Y-24137659D01*
X18492318Y-24137662D01*
X18536186Y-24237015D01*
X18536187Y-24237016D01*
X18612984Y-24313813D01*
X18712338Y-24357682D01*
X18736627Y-24360500D01*
X19103372Y-24360499D01*
X19127662Y-24357682D01*
X19227016Y-24313813D01*
X19303813Y-24237016D01*
X19309377Y-24224415D01*
X19354462Y-24171038D01*
X19421248Y-24150510D01*
X19422812Y-24150500D01*
X20000476Y-24150500D01*
X20000478Y-24150500D01*
X20092547Y-24112364D01*
X20612819Y-23592092D01*
X20674142Y-23558607D01*
X20743834Y-23563591D01*
X20799767Y-23605463D01*
X20824184Y-23670927D01*
X20824500Y-23679773D01*
X20824500Y-23703752D01*
X20804815Y-23770791D01*
X20756797Y-23814236D01*
X20741655Y-23821951D01*
X20651954Y-23911652D01*
X20651951Y-23911657D01*
X20651950Y-23911658D01*
X20639819Y-23935467D01*
X20594352Y-24024698D01*
X20594352Y-24024699D01*
X20574508Y-24149996D01*
X20574508Y-24150003D01*
X20594352Y-24275300D01*
X20594352Y-24275301D01*
X20594354Y-24275304D01*
X20651950Y-24388342D01*
X20651952Y-24388344D01*
X20651954Y-24388347D01*
X20741652Y-24478045D01*
X20741654Y-24478046D01*
X20741658Y-24478050D01*
X20854696Y-24535646D01*
X20854697Y-24535646D01*
X20854699Y-24535647D01*
X20979997Y-24555492D01*
X20980000Y-24555492D01*
X20980003Y-24555492D01*
X21105300Y-24535647D01*
X21105301Y-24535647D01*
X21105302Y-24535646D01*
X21105304Y-24535646D01*
X21218342Y-24478050D01*
X21308050Y-24388342D01*
X21365646Y-24275304D01*
X21379776Y-24186085D01*
X21409704Y-24122954D01*
X21469015Y-24086022D01*
X21524629Y-24086814D01*
X21525056Y-24084120D01*
X21659997Y-24105492D01*
X21660000Y-24105492D01*
X21660003Y-24105492D01*
X21785300Y-24085647D01*
X21785301Y-24085647D01*
X21785302Y-24085646D01*
X21785304Y-24085646D01*
X21898342Y-24028050D01*
X21988050Y-23938342D01*
X21989515Y-23935464D01*
X21992218Y-23932602D01*
X21993783Y-23930450D01*
X21994061Y-23930652D01*
X22037488Y-23884670D01*
X22105309Y-23867874D01*
X22171444Y-23890410D01*
X22206168Y-23930484D01*
X22206217Y-23930450D01*
X22206622Y-23931008D01*
X22210483Y-23935464D01*
X22211950Y-23938342D01*
X22211951Y-23938343D01*
X22211954Y-23938347D01*
X22301652Y-24028045D01*
X22301654Y-24028046D01*
X22301658Y-24028050D01*
X22414696Y-24085646D01*
X22414697Y-24085646D01*
X22414699Y-24085647D01*
X22539997Y-24105492D01*
X22540000Y-24105492D01*
X22540003Y-24105492D01*
X22665300Y-24085647D01*
X22665300Y-24085646D01*
X22665304Y-24085646D01*
X22669622Y-24083445D01*
X22738289Y-24070548D01*
X22803031Y-24096822D01*
X22843290Y-24153927D01*
X22848392Y-24174531D01*
X22864352Y-24275300D01*
X22864352Y-24275301D01*
X22864354Y-24275304D01*
X22921950Y-24388342D01*
X22921952Y-24388344D01*
X22921954Y-24388347D01*
X23011652Y-24478045D01*
X23011654Y-24478046D01*
X23011658Y-24478050D01*
X23124696Y-24535646D01*
X23124697Y-24535646D01*
X23124699Y-24535647D01*
X23249997Y-24555492D01*
X23250000Y-24555492D01*
X23250003Y-24555492D01*
X23375300Y-24535647D01*
X23375301Y-24535647D01*
X23375302Y-24535646D01*
X23375304Y-24535646D01*
X23488342Y-24478050D01*
X23523398Y-24442994D01*
X23582319Y-24384074D01*
X23643642Y-24350589D01*
X23713334Y-24355573D01*
X23757681Y-24384074D01*
X23851652Y-24478045D01*
X23851654Y-24478046D01*
X23851658Y-24478050D01*
X23964696Y-24535646D01*
X23964697Y-24535646D01*
X23964699Y-24535647D01*
X24089997Y-24555492D01*
X24090000Y-24555492D01*
X24090003Y-24555492D01*
X24215300Y-24535647D01*
X24215301Y-24535647D01*
X24215302Y-24535646D01*
X24215304Y-24535646D01*
X24328342Y-24478050D01*
X24418050Y-24388342D01*
X24461731Y-24302612D01*
X24509705Y-24251818D01*
X24577526Y-24235023D01*
X24643661Y-24257560D01*
X24659896Y-24271228D01*
X24740337Y-24351669D01*
X24755067Y-24365286D01*
X24755072Y-24365290D01*
X24766885Y-24375379D01*
X24853865Y-24424088D01*
X24853867Y-24424089D01*
X24861082Y-24426433D01*
X24912056Y-24442995D01*
X24991008Y-24455500D01*
X24991009Y-24455500D01*
X40809003Y-24455500D01*
X40829023Y-24454713D01*
X40829030Y-24454712D01*
X40829041Y-24454712D01*
X40844528Y-24453493D01*
X40940471Y-24426435D01*
X40994988Y-24398658D01*
X41059662Y-24351670D01*
X44851670Y-20559662D01*
X44865290Y-20544928D01*
X44875379Y-20533115D01*
X44924088Y-20446135D01*
X44942995Y-20387944D01*
X44955500Y-20308992D01*
X44955500Y-16900000D01*
X50400000Y-16900000D01*
X51200000Y-16900000D01*
X51200000Y-16100000D01*
X50400000Y-16100000D01*
X50400000Y-16900000D01*
X44955500Y-16900000D01*
X44955500Y-13709499D01*
X44952355Y-13669534D01*
X44947510Y-13638941D01*
X44943595Y-13619260D01*
X44901859Y-13528726D01*
X44891782Y-13514856D01*
X44865905Y-13479239D01*
X44865899Y-13479231D01*
X44865897Y-13479229D01*
X44865895Y-13479226D01*
X44825124Y-13435121D01*
X44825121Y-13435119D01*
X44738148Y-13386413D01*
X44738139Y-13386409D01*
X44679953Y-13367504D01*
X44630756Y-13359712D01*
X44601000Y-13354999D01*
X44600999Y-13354999D01*
X43959991Y-13354999D01*
X43925396Y-13350075D01*
X43861929Y-13331636D01*
X43833404Y-13319293D01*
X43779906Y-13287655D01*
X43755345Y-13268603D01*
X43711392Y-13224650D01*
X43692341Y-13200090D01*
X43660705Y-13146596D01*
X43648364Y-13118078D01*
X43629922Y-13054601D01*
X43625000Y-13020011D01*
X43625000Y-11849007D01*
X43624999Y-11848992D01*
X43624743Y-11845739D01*
X43621855Y-11809035D01*
X43617010Y-11778442D01*
X43613095Y-11758761D01*
X43571359Y-11668227D01*
X43558452Y-11650462D01*
X43535405Y-11618740D01*
X43535399Y-11618732D01*
X43535397Y-11618730D01*
X43535395Y-11618727D01*
X43494624Y-11574622D01*
X43494621Y-11574620D01*
X43407648Y-11525914D01*
X43407639Y-11525910D01*
X43349453Y-11507005D01*
X43309976Y-11500752D01*
X43270500Y-11494500D01*
X43218999Y-11494500D01*
X43218991Y-11494500D01*
X43179046Y-11497644D01*
X43179042Y-11497644D01*
X43179034Y-11497645D01*
X43179031Y-11497645D01*
X43179025Y-11497646D01*
X43148445Y-11502488D01*
X43128760Y-11506404D01*
X43070866Y-11533093D01*
X43001743Y-11543283D01*
X42938085Y-11514484D01*
X42910868Y-11481257D01*
X42907366Y-11475030D01*
X42907364Y-11475025D01*
X42871354Y-11427539D01*
X42820078Y-11359921D01*
X42704976Y-11272636D01*
X42570588Y-11219640D01*
X42527242Y-11214435D01*
X42486144Y-11209500D01*
X41653856Y-11209500D01*
X41615841Y-11214065D01*
X41569411Y-11219640D01*
X41435023Y-11272636D01*
X41319921Y-11359921D01*
X41232632Y-11475029D01*
X41229754Y-11480148D01*
X41179736Y-11528933D01*
X41111283Y-11542932D01*
X41061089Y-11527561D01*
X41058149Y-11525914D01*
X41058139Y-11525910D01*
X40999953Y-11507005D01*
X40960476Y-11500752D01*
X40921000Y-11494500D01*
X40869499Y-11494500D01*
X40869491Y-11494500D01*
X40829546Y-11497644D01*
X40829542Y-11497644D01*
X40829534Y-11497645D01*
X40829531Y-11497645D01*
X40829525Y-11497646D01*
X40798945Y-11502488D01*
X40779259Y-11506404D01*
X40760021Y-11515273D01*
X40690898Y-11525462D01*
X40627240Y-11496662D01*
X40609307Y-11477587D01*
X40520078Y-11359921D01*
X40404976Y-11272636D01*
X40270588Y-11219640D01*
X40227242Y-11214435D01*
X40186144Y-11209500D01*
X40186138Y-11209500D01*
X39943023Y-11209500D01*
X39875984Y-11189815D01*
X39830229Y-11137011D01*
X39820285Y-11067853D01*
X39849310Y-11004297D01*
X39886728Y-10975015D01*
X39895301Y-10970646D01*
X39895304Y-10970646D01*
X40008342Y-10913050D01*
X40098050Y-10823342D01*
X40155646Y-10710304D01*
X40155646Y-10710302D01*
X40155647Y-10710301D01*
X40170499Y-10616524D01*
X40170500Y-10616519D01*
X40170499Y-9603482D01*
X40155646Y-9509696D01*
X40098050Y-9396658D01*
X40098046Y-9396654D01*
X40098045Y-9396652D01*
X40008347Y-9306954D01*
X40008344Y-9306952D01*
X40008342Y-9306950D01*
X39931517Y-9267805D01*
X39895301Y-9249352D01*
X39801524Y-9234500D01*
X39238482Y-9234500D01*
X39157519Y-9247323D01*
X39144696Y-9249354D01*
X39031658Y-9306950D01*
X39031657Y-9306951D01*
X39031652Y-9306954D01*
X38941954Y-9396652D01*
X38941951Y-9396657D01*
X38941950Y-9396658D01*
X38937895Y-9404617D01*
X38884352Y-9509698D01*
X38869500Y-9603475D01*
X38869500Y-10616517D01*
X38880292Y-10684657D01*
X38884354Y-10710304D01*
X38941950Y-10823342D01*
X38941952Y-10823344D01*
X38941954Y-10823347D01*
X39031652Y-10913045D01*
X39031654Y-10913046D01*
X39031658Y-10913050D01*
X39119159Y-10957634D01*
X39144698Y-10970647D01*
X39153980Y-10973663D01*
X39153162Y-10976177D01*
X39203019Y-10999803D01*
X39239959Y-11059109D01*
X39244500Y-11092359D01*
X39244500Y-11145070D01*
X39224815Y-11212109D01*
X39172011Y-11257864D01*
X39165990Y-11260424D01*
X39135027Y-11272634D01*
X39135026Y-11272634D01*
X39019921Y-11359921D01*
X38932636Y-11475023D01*
X38879640Y-11609411D01*
X38874711Y-11650462D01*
X38869500Y-11693856D01*
X38869500Y-11693862D01*
X38869500Y-12938695D01*
X38849815Y-13005734D01*
X38797011Y-13051489D01*
X38760142Y-13061827D01*
X38714113Y-13067300D01*
X38714109Y-13067301D01*
X38623604Y-13109085D01*
X38623602Y-13109087D01*
X38574122Y-13145077D01*
X38530042Y-13185868D01*
X38481376Y-13272876D01*
X38462502Y-13331067D01*
X38450037Y-13410043D01*
X38452604Y-18115219D01*
X38452612Y-18129432D01*
X38452612Y-18129434D01*
X38452983Y-18810140D01*
X38452983Y-18810141D01*
X38453190Y-19190566D01*
X38454057Y-20783178D01*
X38434409Y-20850229D01*
X38417738Y-20870927D01*
X37964717Y-21323948D01*
X37930438Y-21366486D01*
X37930432Y-21366494D01*
X37907691Y-21401882D01*
X37907688Y-21401887D01*
X37883242Y-21450725D01*
X37883240Y-21450730D01*
X37873468Y-21476927D01*
X37856555Y-21507898D01*
X37835706Y-21535749D01*
X37810749Y-21560706D01*
X37782898Y-21581555D01*
X37751927Y-21598468D01*
X37725730Y-21608240D01*
X37722682Y-21609567D01*
X37722164Y-21608377D01*
X37672937Y-21619999D01*
X37111629Y-21619999D01*
X37107450Y-21619888D01*
X37107450Y-21619909D01*
X37105831Y-21619865D01*
X37105818Y-21619865D01*
X37092169Y-21619500D01*
X37092157Y-21619500D01*
X36681885Y-21619500D01*
X36614846Y-21599815D01*
X36569091Y-21547011D01*
X36559147Y-21477853D01*
X36559412Y-21476103D01*
X36577484Y-21361995D01*
X36577484Y-21361988D01*
X36557639Y-21236691D01*
X36557639Y-21236690D01*
X36553329Y-21228231D01*
X36500042Y-21123650D01*
X36500038Y-21123646D01*
X36500037Y-21123644D01*
X36410339Y-21033946D01*
X36410336Y-21033944D01*
X36410334Y-21033942D01*
X36297296Y-20976346D01*
X36297295Y-20976345D01*
X36297292Y-20976344D01*
X36171995Y-20956500D01*
X36171989Y-20956500D01*
X36046691Y-20976344D01*
X36046690Y-20976344D01*
X35971329Y-21014743D01*
X35933650Y-21033942D01*
X35933649Y-21033943D01*
X35933644Y-21033946D01*
X35843946Y-21123644D01*
X35843943Y-21123649D01*
X35786344Y-21236690D01*
X35786344Y-21236691D01*
X35766500Y-21361988D01*
X35766500Y-21361995D01*
X35784572Y-21476103D01*
X35775617Y-21545396D01*
X35730620Y-21598848D01*
X35663869Y-21619487D01*
X35662099Y-21619500D01*
X31013619Y-21619500D01*
X30946580Y-21599815D01*
X30900825Y-21547011D01*
X30890881Y-21477853D01*
X30919906Y-21414297D01*
X30925938Y-21407819D01*
X30931875Y-21401882D01*
X30959616Y-21374141D01*
X30959618Y-21374134D01*
X30966110Y-21364660D01*
X30967138Y-21365364D01*
X31004582Y-21321037D01*
X31071368Y-21300510D01*
X31072930Y-21300500D01*
X31119800Y-21300500D01*
X31119801Y-21300500D01*
X31221059Y-21258557D01*
X31298558Y-21181058D01*
X31298557Y-21181058D01*
X31440300Y-21039317D01*
X31501624Y-21005833D01*
X31527980Y-21003000D01*
X35331355Y-21003000D01*
X35331356Y-21003000D01*
X35432614Y-20961057D01*
X35510113Y-20883558D01*
X35510112Y-20883558D01*
X35568681Y-20824989D01*
X35568680Y-20824989D01*
X38008557Y-18385115D01*
X38028079Y-18337984D01*
X38050500Y-18283856D01*
X38050500Y-12356144D01*
X38008557Y-12254886D01*
X38008557Y-12254885D01*
X35995114Y-10241443D01*
X35995113Y-10241442D01*
X35995114Y-10241442D01*
X35976198Y-10233608D01*
X35976197Y-10233607D01*
X35893858Y-10199500D01*
X35893856Y-10199500D01*
X34780478Y-10199500D01*
X34713439Y-10179815D01*
X34692797Y-10163181D01*
X34250036Y-9720420D01*
X34216551Y-9659097D01*
X34221535Y-9589405D01*
X34228361Y-9574282D01*
X34230749Y-9569815D01*
X34238814Y-9554727D01*
X34296024Y-9366132D01*
X34315341Y-9170000D01*
X34296024Y-8973868D01*
X34238814Y-8785273D01*
X34238811Y-8785269D01*
X34238811Y-8785266D01*
X34145913Y-8611467D01*
X34145909Y-8611460D01*
X34020883Y-8459116D01*
X33873780Y-8338391D01*
X33834446Y-8280645D01*
X33832575Y-8210800D01*
X33868763Y-8151032D01*
X33931519Y-8120316D01*
X33952168Y-8118539D01*
X40059121Y-8105608D01*
X40060628Y-8105524D01*
X40075574Y-8104700D01*
X40079869Y-8104233D01*
X40101676Y-8101865D01*
X40159410Y-8083753D01*
X40220733Y-8050268D01*
X40256165Y-8023744D01*
X41003636Y-7276274D01*
X41014761Y-7263889D01*
X41031395Y-7243247D01*
X41059516Y-7189488D01*
X41079201Y-7122449D01*
X41085500Y-7078638D01*
X41085500Y-3681963D01*
X41085500Y-3681952D01*
X41084615Y-3665396D01*
X41084614Y-3665391D01*
X41084614Y-3665383D01*
X41081794Y-3639086D01*
X41063696Y-3581210D01*
X41030241Y-3519870D01*
X41026225Y-3514500D01*
X41003734Y-3484423D01*
X40446340Y-2926466D01*
X40433926Y-2915309D01*
X40413235Y-2898627D01*
X40413231Y-2898625D01*
X40359456Y-2870486D01*
X40359451Y-2870484D01*
X40359450Y-2870484D01*
X40292411Y-2850799D01*
X40292409Y-2850798D01*
X40292407Y-2850798D01*
X40292402Y-2850797D01*
X40248603Y-2844500D01*
X40248600Y-2844500D01*
X19301283Y-2844500D01*
X19284751Y-2845381D01*
X19258521Y-2848186D01*
X19200688Y-2866243D01*
X19200686Y-2866244D01*
X19139330Y-2899658D01*
X19139329Y-2899659D01*
X19103866Y-2926144D01*
X18508129Y-3520560D01*
X14711992Y-7308279D01*
X14650632Y-7341695D01*
X14624408Y-7344500D01*
X13723991Y-7344500D01*
X13690942Y-7348054D01*
X13680812Y-7350258D01*
X13651362Y-7348151D01*
X13651362Y-7350000D01*
X13072641Y-7350000D01*
X13071553Y-7350594D01*
X13024317Y-7350593D01*
X13024197Y-7351429D01*
X12976003Y-7344500D01*
X12976000Y-7344500D01*
X11625444Y-7344500D01*
X11558405Y-7324815D01*
X11537938Y-7308356D01*
X11493314Y-7263910D01*
X9470938Y-5249591D01*
X9461509Y-5240942D01*
X9445929Y-5227790D01*
X9445928Y-5227789D01*
X9445924Y-5227786D01*
X9441249Y-5224525D01*
X9442476Y-5222765D01*
X9400502Y-5179279D01*
X9386861Y-5110754D01*
X9390591Y-5089705D01*
X9400500Y-5052727D01*
X9400500Y-524500D01*
X9420185Y-457461D01*
X9472989Y-411706D01*
X9524500Y-400500D01*
X88475500Y-400500D01*
X88542539Y-420185D01*
G37*
%TD.AperFunction*%
%TA.AperFunction,Conductor*%
G36*
X79787519Y-21572849D02*
G01*
X79833284Y-21625644D01*
X79844500Y-21677177D01*
X79844500Y-21971162D01*
X79824815Y-22038201D01*
X79772011Y-22083956D01*
X79702853Y-22093900D01*
X79696310Y-22092780D01*
X79679820Y-22089500D01*
X78925758Y-22089500D01*
X78869465Y-22075986D01*
X78860651Y-22071495D01*
X78844073Y-22063048D01*
X78844071Y-22063047D01*
X78844068Y-22063046D01*
X78718772Y-22043202D01*
X78718766Y-22043202D01*
X78593468Y-22063046D01*
X78593467Y-22063046D01*
X78531635Y-22094552D01*
X78480427Y-22120644D01*
X78480426Y-22120645D01*
X78480421Y-22120648D01*
X78390723Y-22210346D01*
X78390720Y-22210351D01*
X78390719Y-22210352D01*
X78366971Y-22256960D01*
X78333121Y-22323393D01*
X78313277Y-22448690D01*
X78313277Y-22448697D01*
X78333121Y-22573994D01*
X78333121Y-22573995D01*
X78344452Y-22596232D01*
X78390719Y-22687036D01*
X78390721Y-22687038D01*
X78390723Y-22687041D01*
X78436607Y-22732925D01*
X78470092Y-22794248D01*
X78470543Y-22844798D01*
X78464500Y-22875177D01*
X78464500Y-22875180D01*
X78464500Y-23304820D01*
X78464500Y-23304822D01*
X78464499Y-23304822D01*
X78473231Y-23348717D01*
X78473234Y-23348724D01*
X78494576Y-23380665D01*
X78506496Y-23398504D01*
X78556278Y-23431767D01*
X78556281Y-23431767D01*
X78556282Y-23431768D01*
X78600177Y-23440500D01*
X78600180Y-23440500D01*
X79187571Y-23440500D01*
X79243865Y-23454014D01*
X79316411Y-23490979D01*
X79316412Y-23490979D01*
X79316414Y-23490980D01*
X79441712Y-23510825D01*
X79441715Y-23510825D01*
X79441718Y-23510825D01*
X79567015Y-23490980D01*
X79567017Y-23490979D01*
X79567019Y-23490979D01*
X79642017Y-23452765D01*
X79674118Y-23441633D01*
X79679814Y-23440500D01*
X79679820Y-23440500D01*
X79723722Y-23431767D01*
X79773504Y-23398504D01*
X79806767Y-23348722D01*
X79809564Y-23334662D01*
X79815500Y-23304822D01*
X79815500Y-23283685D01*
X79825887Y-23240417D01*
X79824346Y-23239916D01*
X79827362Y-23230633D01*
X79847207Y-23105336D01*
X79847207Y-23105330D01*
X79827361Y-22980030D01*
X79824345Y-22970745D01*
X79825885Y-22970244D01*
X79815500Y-22926979D01*
X79815500Y-22875177D01*
X79806768Y-22831282D01*
X79806767Y-22831281D01*
X79806767Y-22831278D01*
X79806765Y-22831275D01*
X79802094Y-22819998D01*
X79803925Y-22819239D01*
X79787634Y-22767220D01*
X79803180Y-22710538D01*
X79802063Y-22710077D01*
X79802572Y-22708846D01*
X79804199Y-22706824D01*
X79806115Y-22699839D01*
X79808516Y-22696104D01*
X79813556Y-22688562D01*
X79817029Y-22690883D01*
X79846380Y-22654415D01*
X79912660Y-22632309D01*
X79980370Y-22649546D01*
X79981680Y-22650333D01*
X80013150Y-22669516D01*
X80080189Y-22689201D01*
X80124000Y-22695500D01*
X80124003Y-22695500D01*
X88475500Y-22695500D01*
X88542539Y-22715185D01*
X88588294Y-22767989D01*
X88599500Y-22819500D01*
X88599500Y-24775500D01*
X88579815Y-24842539D01*
X88527011Y-24888294D01*
X88475500Y-24899500D01*
X57979500Y-24899500D01*
X57912461Y-24879815D01*
X57866706Y-24827011D01*
X57855500Y-24775500D01*
X57855500Y-22255269D01*
X57875185Y-22188230D01*
X57927989Y-22142475D01*
X57997147Y-22132531D01*
X58060703Y-22161556D01*
X58065711Y-22166142D01*
X59959577Y-23998519D01*
X60009383Y-24030914D01*
X60017379Y-24034149D01*
X60017381Y-24034149D01*
X60017383Y-24034150D01*
X60017382Y-24034150D01*
X60057114Y-24041882D01*
X60075699Y-24045500D01*
X60075700Y-24045500D01*
X74091897Y-24045500D01*
X74091898Y-24045500D01*
X74151399Y-24033666D01*
X74159531Y-24030298D01*
X74209985Y-23996587D01*
X76352819Y-21853750D01*
X76414142Y-21820266D01*
X76483834Y-21825250D01*
X76539767Y-21867122D01*
X76564184Y-21932586D01*
X76564500Y-21941432D01*
X76564500Y-22004820D01*
X76564500Y-22004822D01*
X76564499Y-22004822D01*
X76573231Y-22048717D01*
X76577906Y-22060002D01*
X76575106Y-22061161D01*
X76590306Y-22109706D01*
X76571821Y-22177086D01*
X76554017Y-22199589D01*
X76551952Y-22201654D01*
X76551950Y-22201657D01*
X76494352Y-22314698D01*
X76494352Y-22314699D01*
X76474508Y-22439996D01*
X76474508Y-22440003D01*
X76494352Y-22565300D01*
X76494352Y-22565301D01*
X76507486Y-22591077D01*
X76551950Y-22678342D01*
X76551952Y-22678344D01*
X76551953Y-22678346D01*
X76566414Y-22692806D01*
X76581832Y-22711592D01*
X76606496Y-22748504D01*
X76656278Y-22781767D01*
X76659629Y-22782433D01*
X76691739Y-22793567D01*
X76712244Y-22804015D01*
X76754696Y-22825646D01*
X76754699Y-22825647D01*
X76879997Y-22845492D01*
X76880000Y-22845492D01*
X76880003Y-22845492D01*
X77005301Y-22825647D01*
X77005302Y-22825646D01*
X77005304Y-22825646D01*
X77030419Y-22812848D01*
X77047758Y-22804015D01*
X77104052Y-22790500D01*
X77779822Y-22790500D01*
X77823717Y-22781768D01*
X77823717Y-22781767D01*
X77823722Y-22781767D01*
X77873504Y-22748504D01*
X77906767Y-22698722D01*
X77915500Y-22654820D01*
X77915500Y-22225180D01*
X77915500Y-22225177D01*
X77906768Y-22181282D01*
X77906767Y-22181281D01*
X77906767Y-22181278D01*
X77906765Y-22181275D01*
X77902094Y-22169998D01*
X77903925Y-22169239D01*
X77887634Y-22117220D01*
X77903201Y-22060460D01*
X77902094Y-22060002D01*
X77905744Y-22051189D01*
X77906115Y-22049839D01*
X77906646Y-22049012D01*
X77906764Y-22048726D01*
X77906767Y-22048722D01*
X77908853Y-22038234D01*
X77915500Y-22004822D01*
X77915500Y-21677502D01*
X77935185Y-21610463D01*
X77987989Y-21564708D01*
X78039474Y-21553502D01*
X79720478Y-21553177D01*
X79787519Y-21572849D01*
G37*
%TD.AperFunction*%
%TA.AperFunction,Conductor*%
G36*
X28811916Y-20970185D02*
G01*
X28832558Y-20986819D01*
X29012636Y-21166897D01*
X29083103Y-21237364D01*
X29094575Y-21242116D01*
X29148977Y-21285954D01*
X29160556Y-21306589D01*
X29190381Y-21374136D01*
X29190383Y-21374138D01*
X29190384Y-21374141D01*
X29265859Y-21449616D01*
X29265862Y-21449617D01*
X29265863Y-21449618D01*
X29363499Y-21492729D01*
X29363500Y-21492729D01*
X29363502Y-21492730D01*
X29387377Y-21495500D01*
X29742622Y-21495499D01*
X29766498Y-21492730D01*
X29864135Y-21449619D01*
X29864136Y-21449618D01*
X29864141Y-21449616D01*
X29939616Y-21374141D01*
X29961566Y-21324430D01*
X30006651Y-21271054D01*
X30073438Y-21250526D01*
X30140720Y-21269364D01*
X30187136Y-21321587D01*
X30188434Y-21324430D01*
X30209336Y-21371769D01*
X30210384Y-21374141D01*
X30285859Y-21449616D01*
X30345846Y-21476103D01*
X30384457Y-21493152D01*
X30437833Y-21538238D01*
X30458360Y-21605024D01*
X30439521Y-21672306D01*
X30407262Y-21706899D01*
X30404241Y-21709093D01*
X30404231Y-21709101D01*
X30360121Y-21749876D01*
X30311413Y-21836850D01*
X30311411Y-21836853D01*
X30311411Y-21836855D01*
X30292504Y-21895044D01*
X30292503Y-21895047D01*
X30292503Y-21895049D01*
X30279999Y-21973995D01*
X30279999Y-22185869D01*
X30278470Y-22205279D01*
X30278063Y-22207847D01*
X30266082Y-22244721D01*
X30259853Y-22256949D01*
X30259848Y-22256960D01*
X30213885Y-22347167D01*
X30213631Y-22347038D01*
X30212110Y-22350850D01*
X30211537Y-22351890D01*
X30211532Y-22351902D01*
X30193064Y-22410224D01*
X30180915Y-22473782D01*
X30148993Y-22535933D01*
X30088537Y-22570960D01*
X30059120Y-22574500D01*
X29761634Y-22574500D01*
X29761611Y-22574502D01*
X29737340Y-22577317D01*
X29737336Y-22577318D01*
X29711026Y-22588935D01*
X29660942Y-22599500D01*
X29264058Y-22599500D01*
X29213972Y-22588935D01*
X29207782Y-22586202D01*
X29187662Y-22577318D01*
X29163373Y-22574500D01*
X28736634Y-22574500D01*
X28736611Y-22574502D01*
X28712340Y-22577317D01*
X28712336Y-22577318D01*
X28686026Y-22588935D01*
X28635942Y-22599500D01*
X28420415Y-22599500D01*
X28377499Y-22591837D01*
X28375439Y-22591077D01*
X28346892Y-22580546D01*
X28346890Y-22580545D01*
X28346889Y-22580545D01*
X28247280Y-22576630D01*
X28186848Y-22586201D01*
X28186841Y-22586203D01*
X28165256Y-22593217D01*
X28146336Y-22597758D01*
X28110263Y-22603472D01*
X28090868Y-22604999D01*
X27809127Y-22604999D01*
X27789714Y-22603469D01*
X27787142Y-22603062D01*
X27750266Y-22591077D01*
X27647852Y-22538895D01*
X27647976Y-22538649D01*
X27644172Y-22537121D01*
X27643102Y-22536532D01*
X27643099Y-22536531D01*
X27584769Y-22518061D01*
X27560238Y-22513373D01*
X27525777Y-22506787D01*
X27525776Y-22506787D01*
X27521223Y-22505917D01*
X27459070Y-22473998D01*
X27424040Y-22413544D01*
X27420499Y-22384126D01*
X27420499Y-22086628D01*
X27417682Y-22062338D01*
X27373813Y-21962984D01*
X27298510Y-21887681D01*
X27265025Y-21826358D01*
X27270009Y-21756666D01*
X27298510Y-21712319D01*
X27333652Y-21677177D01*
X27373813Y-21637016D01*
X27417682Y-21537662D01*
X27420500Y-21513373D01*
X27420499Y-21086628D01*
X27420498Y-21086622D01*
X27420292Y-21083051D01*
X27421744Y-21082967D01*
X27432590Y-21019905D01*
X27479780Y-20968380D01*
X27543924Y-20950500D01*
X28744877Y-20950500D01*
X28811916Y-20970185D01*
G37*
%TD.AperFunction*%
%TA.AperFunction,Conductor*%
G36*
X23237539Y-17724685D02*
G01*
X23283294Y-17777489D01*
X23294500Y-17829000D01*
X23294500Y-20771000D01*
X23274815Y-20838039D01*
X23222011Y-20883794D01*
X23170500Y-20895000D01*
X20179000Y-20895000D01*
X20111961Y-20875315D01*
X20066206Y-20822511D01*
X20055000Y-20771000D01*
X20055000Y-20637515D01*
X20054985Y-20637104D01*
X20054604Y-20626426D01*
X20053851Y-20615895D01*
X20053567Y-20613253D01*
X20053568Y-20586730D01*
X20053851Y-20584103D01*
X20054604Y-20573573D01*
X20055000Y-20562482D01*
X20055000Y-20529500D01*
X20055000Y-20529497D01*
X20043164Y-20469998D01*
X20043163Y-20469997D01*
X20043163Y-20469993D01*
X20043161Y-20469988D01*
X20024610Y-20425201D01*
X20017141Y-20355732D01*
X20024606Y-20330305D01*
X20043163Y-20285507D01*
X20047037Y-20266030D01*
X20055000Y-20226002D01*
X20055000Y-19312515D01*
X20054847Y-19308233D01*
X20054604Y-19301426D01*
X20053851Y-19290895D01*
X20053567Y-19288253D01*
X20053568Y-19261730D01*
X20053851Y-19259103D01*
X20054604Y-19248573D01*
X20055000Y-19237482D01*
X20055000Y-18037516D01*
X20054604Y-18026426D01*
X20053851Y-18015895D01*
X20053567Y-18013253D01*
X20053568Y-17986730D01*
X20053646Y-17986006D01*
X20053851Y-17984103D01*
X20054604Y-17973573D01*
X20055000Y-17962482D01*
X20055000Y-17829000D01*
X20074685Y-17761961D01*
X20127489Y-17716206D01*
X20179000Y-17705000D01*
X23170500Y-17705000D01*
X23237539Y-17724685D01*
G37*
%TD.AperFunction*%
%TA.AperFunction,Conductor*%
G36*
X30184478Y-8146201D02*
G01*
X30230345Y-8198908D01*
X30240435Y-8268045D01*
X30211545Y-8331662D01*
X30196325Y-8346511D01*
X30059116Y-8459116D01*
X29934090Y-8611460D01*
X29934086Y-8611467D01*
X29841188Y-8785266D01*
X29783975Y-8973870D01*
X29764659Y-9170000D01*
X29783975Y-9366129D01*
X29841188Y-9554733D01*
X29934086Y-9728532D01*
X29934090Y-9728539D01*
X30059116Y-9880883D01*
X30211460Y-10005909D01*
X30211467Y-10005913D01*
X30385266Y-10098811D01*
X30385269Y-10098811D01*
X30385273Y-10098814D01*
X30573868Y-10156024D01*
X30770000Y-10175341D01*
X30966132Y-10156024D01*
X31154727Y-10098814D01*
X31174283Y-10088360D01*
X31242684Y-10074116D01*
X31307929Y-10099114D01*
X31320420Y-10110036D01*
X32348944Y-11138560D01*
X32427257Y-11170997D01*
X32450200Y-11180500D01*
X32559800Y-11180500D01*
X35495467Y-11180500D01*
X35562506Y-11200185D01*
X35583148Y-11216819D01*
X37033181Y-12666852D01*
X37066666Y-12728175D01*
X37069500Y-12754533D01*
X37069500Y-17885467D01*
X37049815Y-17952506D01*
X37033181Y-17973148D01*
X35020648Y-19985681D01*
X34959325Y-20019166D01*
X34932967Y-20022000D01*
X31527979Y-20022000D01*
X31460940Y-20002315D01*
X31440298Y-19985681D01*
X31221060Y-19766444D01*
X31221059Y-19766443D01*
X31221056Y-19766442D01*
X31221055Y-19766441D01*
X31212456Y-19762879D01*
X31119803Y-19724500D01*
X31119801Y-19724500D01*
X31072930Y-19724500D01*
X31005891Y-19704815D01*
X30966890Y-19659805D01*
X30966110Y-19660340D01*
X30961417Y-19653489D01*
X30960136Y-19652011D01*
X30959624Y-19650872D01*
X30959617Y-19650862D01*
X30959616Y-19650859D01*
X30884141Y-19575384D01*
X30884138Y-19575383D01*
X30884136Y-19575381D01*
X30786500Y-19532270D01*
X30786501Y-19532270D01*
X30762623Y-19529500D01*
X30407384Y-19529500D01*
X30407361Y-19529502D01*
X30383504Y-19532269D01*
X30383501Y-19532269D01*
X30285864Y-19575380D01*
X30285856Y-19575386D01*
X30210386Y-19650856D01*
X30210380Y-19650866D01*
X30188432Y-19700571D01*
X30143345Y-19753947D01*
X30076559Y-19774473D01*
X30009277Y-19755634D01*
X29962862Y-19703409D01*
X29961590Y-19700624D01*
X29939616Y-19650859D01*
X29864141Y-19575384D01*
X29864138Y-19575383D01*
X29864136Y-19575381D01*
X29766500Y-19532270D01*
X29766501Y-19532270D01*
X29742623Y-19529500D01*
X29387384Y-19529500D01*
X29387361Y-19529502D01*
X29363504Y-19532269D01*
X29363501Y-19532269D01*
X29265864Y-19575380D01*
X29265856Y-19575386D01*
X29190386Y-19650856D01*
X29190382Y-19650861D01*
X29166152Y-19705737D01*
X29121065Y-19759113D01*
X29100173Y-19770209D01*
X29058104Y-19787635D01*
X29058101Y-19787637D01*
X28832558Y-20013181D01*
X28771235Y-20046666D01*
X28744877Y-20049500D01*
X28198925Y-20049500D01*
X28131886Y-20029815D01*
X28086131Y-19977011D01*
X28076676Y-19917036D01*
X28075293Y-19916957D01*
X28075497Y-19913391D01*
X28075500Y-19913373D01*
X28075499Y-19486628D01*
X28072682Y-19462338D01*
X28028813Y-19362984D01*
X27952016Y-19286187D01*
X27943891Y-19278062D01*
X27945992Y-19275960D01*
X27913108Y-19235677D01*
X27905199Y-19166256D01*
X27936078Y-19103580D01*
X27944849Y-19095979D01*
X27952014Y-19088813D01*
X27952016Y-19088813D01*
X28028813Y-19012016D01*
X28072682Y-18912662D01*
X28075500Y-18888373D01*
X28075500Y-18811625D01*
X32349500Y-18811625D01*
X32349500Y-19238365D01*
X32349502Y-19238388D01*
X32352317Y-19262659D01*
X32352318Y-19262662D01*
X32396186Y-19362015D01*
X32396187Y-19362016D01*
X32472984Y-19438813D01*
X32572338Y-19482682D01*
X32596627Y-19485500D01*
X32963372Y-19485499D01*
X32987662Y-19482682D01*
X33087016Y-19438813D01*
X33163813Y-19362016D01*
X33163813Y-19362015D01*
X33171938Y-19353891D01*
X33174771Y-19356724D01*
X33212219Y-19326127D01*
X33281636Y-19318189D01*
X33344325Y-19349041D01*
X33362743Y-19370286D01*
X33365383Y-19374140D01*
X33365384Y-19374141D01*
X33440859Y-19449616D01*
X33440862Y-19449617D01*
X33440863Y-19449618D01*
X33538499Y-19492729D01*
X33538500Y-19492729D01*
X33538502Y-19492730D01*
X33562377Y-19495500D01*
X33917622Y-19495499D01*
X33941498Y-19492730D01*
X34039135Y-19449619D01*
X34039136Y-19449618D01*
X34039141Y-19449616D01*
X34114616Y-19374141D01*
X34135165Y-19327603D01*
X34136566Y-19324430D01*
X34181651Y-19271054D01*
X34248438Y-19250526D01*
X34315720Y-19269364D01*
X34362136Y-19321587D01*
X34363434Y-19324430D01*
X34384586Y-19372335D01*
X34385384Y-19374141D01*
X34460859Y-19449616D01*
X34460862Y-19449617D01*
X34460863Y-19449618D01*
X34558499Y-19492729D01*
X34558500Y-19492729D01*
X34558502Y-19492730D01*
X34582377Y-19495500D01*
X34937622Y-19495499D01*
X34961498Y-19492730D01*
X35059135Y-19449619D01*
X35059136Y-19449618D01*
X35059141Y-19449616D01*
X35134616Y-19374141D01*
X35177730Y-19276498D01*
X35180500Y-19252623D01*
X35180499Y-18797378D01*
X35177730Y-18773502D01*
X35171108Y-18758504D01*
X35134619Y-18675864D01*
X35134616Y-18675860D01*
X35134616Y-18675859D01*
X35059141Y-18600384D01*
X35059138Y-18600383D01*
X35059136Y-18600381D01*
X34961500Y-18557270D01*
X34961501Y-18557270D01*
X34937623Y-18554500D01*
X34582384Y-18554500D01*
X34582361Y-18554502D01*
X34558504Y-18557269D01*
X34558501Y-18557269D01*
X34460864Y-18600380D01*
X34460856Y-18600386D01*
X34385386Y-18675856D01*
X34385380Y-18675866D01*
X34363432Y-18725571D01*
X34318345Y-18778947D01*
X34251559Y-18799473D01*
X34184277Y-18780634D01*
X34137862Y-18728409D01*
X34136590Y-18725624D01*
X34114616Y-18675859D01*
X34039141Y-18600384D01*
X34039138Y-18600383D01*
X34039136Y-18600381D01*
X33941500Y-18557270D01*
X33941501Y-18557270D01*
X33917623Y-18554500D01*
X33562384Y-18554500D01*
X33562361Y-18554502D01*
X33538504Y-18557269D01*
X33538501Y-18557269D01*
X33440864Y-18600380D01*
X33440856Y-18600386D01*
X33365382Y-18675860D01*
X33362741Y-18679716D01*
X33308612Y-18723896D01*
X33239191Y-18731799D01*
X33176518Y-18700915D01*
X33172160Y-18695886D01*
X33171938Y-18696109D01*
X33087016Y-18611187D01*
X32987663Y-18567318D01*
X32963373Y-18564500D01*
X32596634Y-18564500D01*
X32596611Y-18564502D01*
X32572340Y-18567317D01*
X32572337Y-18567318D01*
X32472984Y-18611186D01*
X32396187Y-18687983D01*
X32352318Y-18787335D01*
X32352318Y-18787337D01*
X32349500Y-18811625D01*
X28075500Y-18811625D01*
X28075499Y-18461628D01*
X28072682Y-18437338D01*
X28028813Y-18337984D01*
X27952016Y-18261187D01*
X27899353Y-18237934D01*
X27845977Y-18192848D01*
X27825450Y-18126062D01*
X27844289Y-18058780D01*
X27896512Y-18012363D01*
X27949440Y-18000500D01*
X35315703Y-18000500D01*
X35315711Y-18000501D01*
X35330145Y-18000501D01*
X35419852Y-18000501D01*
X35419855Y-18000501D01*
X35484863Y-17973573D01*
X35502736Y-17966170D01*
X35566170Y-17902736D01*
X35566170Y-17902735D01*
X35583608Y-17885297D01*
X35583610Y-17885294D01*
X36585294Y-16883610D01*
X36585297Y-16883608D01*
X36602735Y-16866170D01*
X36602736Y-16866170D01*
X36666170Y-16802736D01*
X36677424Y-16775566D01*
X36700501Y-16719855D01*
X36700501Y-16630145D01*
X36700501Y-16620156D01*
X36700500Y-16620142D01*
X36700500Y-14334297D01*
X36700501Y-14334288D01*
X36700501Y-14230147D01*
X36700501Y-14230145D01*
X36673061Y-14163901D01*
X36671289Y-14159624D01*
X36668715Y-14153410D01*
X36666170Y-14147264D01*
X36602736Y-14083830D01*
X36595671Y-14076765D01*
X36595664Y-14076759D01*
X35961818Y-13442913D01*
X35928333Y-13381590D01*
X35925499Y-13355232D01*
X35925499Y-13345143D01*
X35925499Y-13345136D01*
X35925370Y-13344022D01*
X35922586Y-13320012D01*
X35922585Y-13320010D01*
X35922585Y-13320009D01*
X35877206Y-13217235D01*
X35797765Y-13137794D01*
X35753097Y-13118071D01*
X35694992Y-13092415D01*
X35669865Y-13089500D01*
X34280143Y-13089500D01*
X34280117Y-13089502D01*
X34255012Y-13092413D01*
X34255008Y-13092415D01*
X34152235Y-13137793D01*
X34072794Y-13217234D01*
X34027415Y-13320006D01*
X34027415Y-13320008D01*
X34024500Y-13345131D01*
X34024500Y-13734856D01*
X34024502Y-13734882D01*
X34027413Y-13759987D01*
X34027415Y-13759991D01*
X34072793Y-13862764D01*
X34072794Y-13862765D01*
X34152235Y-13942206D01*
X34255009Y-13987585D01*
X34280135Y-13990500D01*
X35669864Y-13990499D01*
X35669879Y-13990497D01*
X35669882Y-13990497D01*
X35694987Y-13987586D01*
X35694987Y-13987585D01*
X35694991Y-13987585D01*
X35737775Y-13968693D01*
X35807052Y-13959622D01*
X35870238Y-13989445D01*
X35875542Y-13994447D01*
X36213181Y-14332086D01*
X36246666Y-14393409D01*
X36249500Y-14419767D01*
X36249500Y-15256232D01*
X36229815Y-15323271D01*
X36177011Y-15369026D01*
X36107853Y-15378970D01*
X36044297Y-15349945D01*
X36037819Y-15343913D01*
X35921790Y-15227884D01*
X35888305Y-15166561D01*
X35893289Y-15096869D01*
X35896037Y-15090116D01*
X35922585Y-15029991D01*
X35925500Y-15004865D01*
X35925499Y-14615136D01*
X35925291Y-14613342D01*
X35922586Y-14590012D01*
X35922585Y-14590010D01*
X35922585Y-14590009D01*
X35877206Y-14487235D01*
X35797765Y-14407794D01*
X35794873Y-14406517D01*
X35694992Y-14362415D01*
X35669865Y-14359500D01*
X34280143Y-14359500D01*
X34280117Y-14359502D01*
X34255012Y-14362413D01*
X34255008Y-14362415D01*
X34152235Y-14407793D01*
X34072794Y-14487234D01*
X34027415Y-14590006D01*
X34027415Y-14590008D01*
X34024500Y-14615131D01*
X34024500Y-15004856D01*
X34024502Y-15004882D01*
X34027413Y-15029987D01*
X34027415Y-15029991D01*
X34072793Y-15132764D01*
X34072794Y-15132765D01*
X34152235Y-15212206D01*
X34255009Y-15257585D01*
X34280135Y-15260500D01*
X35265231Y-15260499D01*
X35332270Y-15280183D01*
X35352912Y-15296818D01*
X35473913Y-15417819D01*
X35507398Y-15479142D01*
X35502414Y-15548834D01*
X35460542Y-15604767D01*
X35395078Y-15629184D01*
X35386232Y-15629500D01*
X34280143Y-15629500D01*
X34280117Y-15629502D01*
X34255012Y-15632413D01*
X34255008Y-15632415D01*
X34152235Y-15677793D01*
X34072794Y-15757234D01*
X34027415Y-15860006D01*
X34027415Y-15860008D01*
X34024500Y-15885131D01*
X34024500Y-16274856D01*
X34024502Y-16274882D01*
X34027413Y-16299987D01*
X34027414Y-16299991D01*
X34071756Y-16400414D01*
X34080828Y-16469692D01*
X34051005Y-16532877D01*
X33991755Y-16569908D01*
X33958322Y-16574500D01*
X27254271Y-16574500D01*
X27254263Y-16574499D01*
X27239829Y-16574499D01*
X27150119Y-16574499D01*
X27150117Y-16574499D01*
X27118871Y-16587442D01*
X27091513Y-16598774D01*
X27091511Y-16598774D01*
X27055953Y-16613504D01*
X27055384Y-16612131D01*
X27001714Y-16628937D01*
X26934334Y-16610453D01*
X26887643Y-16558474D01*
X26875500Y-16504957D01*
X26875500Y-15369767D01*
X26895185Y-15302728D01*
X26911819Y-15282086D01*
X26912611Y-15281294D01*
X26973934Y-15247809D01*
X27043626Y-15252793D01*
X27050381Y-15255542D01*
X27055007Y-15257584D01*
X27055009Y-15257585D01*
X27080135Y-15260500D01*
X28469864Y-15260499D01*
X28469879Y-15260497D01*
X28469882Y-15260497D01*
X28494987Y-15257586D01*
X28494988Y-15257585D01*
X28494991Y-15257585D01*
X28597765Y-15212206D01*
X28677206Y-15132765D01*
X28722585Y-15029991D01*
X28725500Y-15004865D01*
X28725499Y-14615136D01*
X28725291Y-14613342D01*
X28722586Y-14590012D01*
X28722585Y-14590010D01*
X28722585Y-14590009D01*
X28677206Y-14487235D01*
X28597765Y-14407794D01*
X28594873Y-14406517D01*
X28494992Y-14362415D01*
X28469865Y-14359500D01*
X27080143Y-14359500D01*
X27080117Y-14359502D01*
X27055012Y-14362413D01*
X27055008Y-14362415D01*
X26952235Y-14407793D01*
X26872794Y-14487234D01*
X26827415Y-14590006D01*
X26827415Y-14590008D01*
X26824500Y-14615131D01*
X26824500Y-14680232D01*
X26804815Y-14747271D01*
X26788181Y-14767913D01*
X26662181Y-14893913D01*
X26600858Y-14927398D01*
X26531166Y-14922414D01*
X26475233Y-14880542D01*
X26450816Y-14815078D01*
X26450500Y-14806232D01*
X26450500Y-14444767D01*
X26470185Y-14377728D01*
X26486819Y-14357086D01*
X26671641Y-14172264D01*
X26857117Y-13986787D01*
X26918438Y-13953304D01*
X26988129Y-13958288D01*
X26994846Y-13961020D01*
X27055009Y-13987585D01*
X27080135Y-13990500D01*
X28469864Y-13990499D01*
X28469879Y-13990497D01*
X28469882Y-13990497D01*
X28494987Y-13987586D01*
X28494988Y-13987585D01*
X28494991Y-13987585D01*
X28597765Y-13942206D01*
X28677206Y-13862765D01*
X28722585Y-13759991D01*
X28725500Y-13734865D01*
X28725499Y-13345136D01*
X28725370Y-13344022D01*
X28722586Y-13320012D01*
X28722585Y-13320010D01*
X28722585Y-13320009D01*
X28677206Y-13217235D01*
X28597765Y-13137794D01*
X28553097Y-13118071D01*
X28494992Y-13092415D01*
X28469865Y-13089500D01*
X27080143Y-13089500D01*
X27080117Y-13089502D01*
X27055012Y-13092413D01*
X27055008Y-13092415D01*
X26952235Y-13137793D01*
X26872794Y-13217234D01*
X26827415Y-13320006D01*
X26827413Y-13320014D01*
X26824687Y-13343510D01*
X26797406Y-13407834D01*
X26789195Y-13416897D01*
X26212181Y-13993912D01*
X26150858Y-14027397D01*
X26081167Y-14022413D01*
X26025233Y-13980542D01*
X26000816Y-13915077D01*
X26000500Y-13906231D01*
X26000500Y-13614767D01*
X26020185Y-13547728D01*
X26036815Y-13527090D01*
X26850180Y-12713724D01*
X26911501Y-12680241D01*
X26981192Y-12685225D01*
X26987908Y-12687957D01*
X27055009Y-12717585D01*
X27080135Y-12720500D01*
X28469864Y-12720499D01*
X28469879Y-12720497D01*
X28469882Y-12720497D01*
X28494987Y-12717586D01*
X28494988Y-12717585D01*
X28494991Y-12717585D01*
X28597765Y-12672206D01*
X28677206Y-12592765D01*
X28722585Y-12489991D01*
X28725500Y-12464865D01*
X28725499Y-12075136D01*
X28725498Y-12075131D01*
X34024500Y-12075131D01*
X34024500Y-12464856D01*
X34024502Y-12464882D01*
X34027413Y-12489987D01*
X34027415Y-12489991D01*
X34072793Y-12592764D01*
X34072794Y-12592765D01*
X34152235Y-12672206D01*
X34255009Y-12717585D01*
X34280135Y-12720500D01*
X35669864Y-12720499D01*
X35669879Y-12720497D01*
X35669882Y-12720497D01*
X35694987Y-12717586D01*
X35694988Y-12717585D01*
X35694991Y-12717585D01*
X35797765Y-12672206D01*
X35877206Y-12592765D01*
X35922585Y-12489991D01*
X35925500Y-12464865D01*
X35925499Y-12075136D01*
X35925346Y-12073817D01*
X35922586Y-12050012D01*
X35922585Y-12050010D01*
X35922585Y-12050009D01*
X35877206Y-11947235D01*
X35797765Y-11867794D01*
X35758317Y-11850376D01*
X35694992Y-11822415D01*
X35669865Y-11819500D01*
X34280143Y-11819500D01*
X34280117Y-11819502D01*
X34255012Y-11822413D01*
X34255008Y-11822415D01*
X34152235Y-11867793D01*
X34072794Y-11947234D01*
X34027415Y-12050006D01*
X34027415Y-12050008D01*
X34024500Y-12075131D01*
X28725498Y-12075131D01*
X28725346Y-12073817D01*
X28722586Y-12050012D01*
X28722585Y-12050010D01*
X28722585Y-12050009D01*
X28677206Y-11947235D01*
X28677205Y-11947234D01*
X28672565Y-11936724D01*
X28675509Y-11935423D01*
X28659661Y-11886807D01*
X28677358Y-11819216D01*
X28695929Y-11795463D01*
X28696625Y-11794767D01*
X28703050Y-11788342D01*
X28760646Y-11675304D01*
X28760646Y-11675302D01*
X28760647Y-11675301D01*
X28760647Y-11675300D01*
X28780492Y-11550003D01*
X28780492Y-11549996D01*
X28760647Y-11424699D01*
X28760647Y-11424698D01*
X28760646Y-11424696D01*
X28703050Y-11311658D01*
X28703046Y-11311654D01*
X28703045Y-11311652D01*
X28613347Y-11221954D01*
X28613344Y-11221952D01*
X28613342Y-11221950D01*
X28500304Y-11164354D01*
X28500303Y-11164353D01*
X28500300Y-11164352D01*
X28375003Y-11144508D01*
X28374997Y-11144508D01*
X28249699Y-11164352D01*
X28249698Y-11164352D01*
X28199726Y-11189815D01*
X28136658Y-11221950D01*
X28136657Y-11221951D01*
X28136656Y-11221951D01*
X28109409Y-11249199D01*
X28070425Y-11288182D01*
X28009105Y-11321666D01*
X27982746Y-11324500D01*
X27654767Y-11324500D01*
X27587728Y-11304815D01*
X27567086Y-11288181D01*
X26476818Y-10197913D01*
X26443333Y-10136590D01*
X26440499Y-10110232D01*
X26440499Y-9836634D01*
X26440499Y-9836628D01*
X26437682Y-9812338D01*
X26393813Y-9712984D01*
X26317016Y-9636187D01*
X26301874Y-9629501D01*
X26217663Y-9592318D01*
X26193374Y-9589500D01*
X26193373Y-9589500D01*
X25919768Y-9589500D01*
X25852729Y-9569815D01*
X25832087Y-9553181D01*
X25286818Y-9007912D01*
X25253333Y-8946589D01*
X25250499Y-8920231D01*
X25250499Y-8852384D01*
X25250499Y-8852378D01*
X25247730Y-8828502D01*
X25241307Y-8813955D01*
X25204619Y-8730864D01*
X25204617Y-8730861D01*
X25204616Y-8730859D01*
X25129141Y-8655384D01*
X25129138Y-8655383D01*
X25129136Y-8655381D01*
X25031500Y-8612270D01*
X25031501Y-8612270D01*
X25007623Y-8609500D01*
X24552384Y-8609500D01*
X24552361Y-8609502D01*
X24528504Y-8612269D01*
X24528501Y-8612269D01*
X24430864Y-8655380D01*
X24430856Y-8655386D01*
X24355386Y-8730856D01*
X24355381Y-8730863D01*
X24312270Y-8828499D01*
X24309500Y-8852375D01*
X24309500Y-8961233D01*
X24289815Y-9028272D01*
X24237011Y-9074027D01*
X24167853Y-9083971D01*
X24104297Y-9054946D01*
X24097819Y-9048914D01*
X24086818Y-9037913D01*
X24053333Y-8976590D01*
X24050499Y-8950232D01*
X24050499Y-8852384D01*
X24050499Y-8852378D01*
X24047730Y-8828502D01*
X24041307Y-8813955D01*
X24004619Y-8730864D01*
X24004617Y-8730861D01*
X24004616Y-8730859D01*
X23929141Y-8655384D01*
X23929138Y-8655383D01*
X23929136Y-8655381D01*
X23831500Y-8612270D01*
X23831501Y-8612270D01*
X23807623Y-8609500D01*
X23352384Y-8609500D01*
X23352361Y-8609502D01*
X23328504Y-8612269D01*
X23328501Y-8612269D01*
X23230864Y-8655380D01*
X23230856Y-8655386D01*
X23155386Y-8730856D01*
X23155381Y-8730863D01*
X23112270Y-8828499D01*
X23109500Y-8852375D01*
X23109500Y-9207615D01*
X23109502Y-9207638D01*
X23112269Y-9231495D01*
X23112269Y-9231498D01*
X23155380Y-9329135D01*
X23155383Y-9329139D01*
X23155384Y-9329141D01*
X23230859Y-9404616D01*
X23268574Y-9421269D01*
X23280570Y-9426566D01*
X23333946Y-9471652D01*
X23354473Y-9538438D01*
X23335634Y-9605720D01*
X23283411Y-9652137D01*
X23280570Y-9653434D01*
X23230863Y-9675382D01*
X23230861Y-9675383D01*
X23230859Y-9675384D01*
X23230858Y-9675384D01*
X23230856Y-9675386D01*
X23155386Y-9750856D01*
X23155381Y-9750863D01*
X23112270Y-9848499D01*
X23109500Y-9872375D01*
X23109500Y-10227615D01*
X23109502Y-10227638D01*
X23112269Y-10251495D01*
X23112269Y-10251498D01*
X23155380Y-10349135D01*
X23155383Y-10349139D01*
X23155384Y-10349141D01*
X23230859Y-10424616D01*
X23260346Y-10437636D01*
X23300586Y-10455404D01*
X23353962Y-10500490D01*
X23374490Y-10567276D01*
X23374500Y-10568838D01*
X23374500Y-11275500D01*
X23354815Y-11342539D01*
X23302011Y-11388294D01*
X23250500Y-11399500D01*
X22735178Y-11399500D01*
X22691282Y-11408231D01*
X22691275Y-11408234D01*
X22641496Y-11441495D01*
X22641495Y-11441496D01*
X22608234Y-11491275D01*
X22608231Y-11491282D01*
X22599500Y-11535177D01*
X22599500Y-11535180D01*
X22599500Y-13264820D01*
X22599500Y-13264822D01*
X22599499Y-13264822D01*
X22608231Y-13308717D01*
X22608234Y-13308724D01*
X22641495Y-13358503D01*
X22641496Y-13358504D01*
X22691278Y-13391767D01*
X22691281Y-13391767D01*
X22691282Y-13391768D01*
X22735177Y-13400500D01*
X22735180Y-13400500D01*
X24464822Y-13400500D01*
X24508717Y-13391768D01*
X24508717Y-13391767D01*
X24508722Y-13391767D01*
X24558504Y-13358504D01*
X24591767Y-13308722D01*
X24591768Y-13308717D01*
X24600500Y-13264822D01*
X24600500Y-11535177D01*
X24591768Y-11491282D01*
X24591767Y-11491281D01*
X24591767Y-11491278D01*
X24558504Y-11441496D01*
X24537616Y-11427539D01*
X24508724Y-11408234D01*
X24508717Y-11408231D01*
X24464822Y-11399500D01*
X24464820Y-11399500D01*
X23949500Y-11399500D01*
X23882461Y-11379815D01*
X23836706Y-11327011D01*
X23825500Y-11275500D01*
X23825500Y-10551176D01*
X23845185Y-10484137D01*
X23897989Y-10438382D01*
X23899308Y-10437788D01*
X23929141Y-10424616D01*
X24004616Y-10349141D01*
X24047730Y-10251498D01*
X24050500Y-10227623D01*
X24050499Y-9938765D01*
X24070183Y-9871727D01*
X24122987Y-9825972D01*
X24192146Y-9816028D01*
X24255701Y-9845053D01*
X24262180Y-9851085D01*
X24273181Y-9862086D01*
X24306666Y-9923409D01*
X24309500Y-9949767D01*
X24309500Y-10227615D01*
X24309502Y-10227638D01*
X24312269Y-10251495D01*
X24312269Y-10251498D01*
X24355380Y-10349135D01*
X24355383Y-10349139D01*
X24355384Y-10349141D01*
X24430859Y-10424616D01*
X24430862Y-10424617D01*
X24430863Y-10424618D01*
X24528499Y-10467729D01*
X24528500Y-10467729D01*
X24528502Y-10467730D01*
X24552377Y-10470500D01*
X24840232Y-10470499D01*
X24907271Y-10490183D01*
X24927913Y-10506818D01*
X26585914Y-12164819D01*
X26619399Y-12226142D01*
X26614415Y-12295834D01*
X26585914Y-12340181D01*
X25583831Y-13342263D01*
X25583830Y-13342265D01*
X25578035Y-13356255D01*
X25549499Y-13425143D01*
X25549499Y-13529289D01*
X25549500Y-13529298D01*
X25549500Y-15867733D01*
X25529815Y-15934772D01*
X25513181Y-15955414D01*
X25055414Y-16413181D01*
X24994091Y-16446666D01*
X24967733Y-16449500D01*
X24680250Y-16449500D01*
X24656533Y-16454217D01*
X24586942Y-16447988D01*
X24556856Y-16430973D01*
X24549011Y-16424953D01*
X24507810Y-16368524D01*
X24500500Y-16326579D01*
X24500500Y-15189463D01*
X24520185Y-15122424D01*
X24544419Y-15097466D01*
X24543891Y-15096938D01*
X24577840Y-15062989D01*
X24628813Y-15012016D01*
X24672682Y-14912662D01*
X24675500Y-14888373D01*
X24675499Y-14461628D01*
X24672682Y-14437338D01*
X24628813Y-14337984D01*
X24552016Y-14261187D01*
X24511968Y-14243504D01*
X24452663Y-14217318D01*
X24428374Y-14214500D01*
X24079916Y-14214500D01*
X24012877Y-14194815D01*
X23967122Y-14142011D01*
X23961985Y-14128819D01*
X23960646Y-14124698D01*
X23960646Y-14124696D01*
X23903050Y-14011658D01*
X23903046Y-14011654D01*
X23903045Y-14011652D01*
X23813347Y-13921954D01*
X23813344Y-13921952D01*
X23813342Y-13921950D01*
X23700304Y-13864354D01*
X23700303Y-13864353D01*
X23700300Y-13864352D01*
X23575003Y-13844508D01*
X23574997Y-13844508D01*
X23449699Y-13864352D01*
X23449698Y-13864352D01*
X23391053Y-13894234D01*
X23336658Y-13921950D01*
X23336657Y-13921951D01*
X23336652Y-13921954D01*
X23246954Y-14011652D01*
X23246951Y-14011657D01*
X23189352Y-14124698D01*
X23189352Y-14124699D01*
X23169508Y-14249996D01*
X23169508Y-14250003D01*
X23189352Y-14375299D01*
X23192370Y-14384586D01*
X23189985Y-14385360D01*
X23199500Y-14424987D01*
X23199500Y-14539453D01*
X23179815Y-14606492D01*
X23127011Y-14652247D01*
X23057853Y-14662191D01*
X23019205Y-14649938D01*
X23013343Y-14646951D01*
X23013342Y-14646950D01*
X22900304Y-14589354D01*
X22900303Y-14589353D01*
X22900300Y-14589352D01*
X22775003Y-14569508D01*
X22775001Y-14569508D01*
X22775000Y-14569508D01*
X22762837Y-14571434D01*
X22698888Y-14581562D01*
X22629595Y-14572606D01*
X22576143Y-14527609D01*
X22555505Y-14460857D01*
X22555492Y-14459088D01*
X22555492Y-14449996D01*
X22535647Y-14324699D01*
X22535647Y-14324698D01*
X22523338Y-14300540D01*
X22478050Y-14211658D01*
X22478046Y-14211654D01*
X22478045Y-14211652D01*
X22388347Y-14121954D01*
X22388344Y-14121952D01*
X22388342Y-14121950D01*
X22275304Y-14064354D01*
X22275303Y-14064353D01*
X22275300Y-14064352D01*
X22150003Y-14044508D01*
X22149997Y-14044508D01*
X22024699Y-14064352D01*
X22024698Y-14064352D01*
X21979071Y-14087601D01*
X21911658Y-14121950D01*
X21911657Y-14121951D01*
X21911652Y-14121954D01*
X21821954Y-14211652D01*
X21821951Y-14211657D01*
X21821950Y-14211658D01*
X21809685Y-14235729D01*
X21764352Y-14324698D01*
X21764352Y-14324699D01*
X21742981Y-14459638D01*
X21741698Y-14459434D01*
X21724823Y-14516907D01*
X21708695Y-14537041D01*
X21708609Y-14537128D01*
X21708103Y-14537636D01*
X21637637Y-14608101D01*
X21637636Y-14608102D01*
X21599500Y-14700170D01*
X21599500Y-15150500D01*
X21579815Y-15217539D01*
X21527011Y-15263294D01*
X21475500Y-15274500D01*
X21380247Y-15274500D01*
X21321770Y-15286131D01*
X21321768Y-15286132D01*
X21318887Y-15288058D01*
X21311655Y-15290322D01*
X21310487Y-15290806D01*
X21310443Y-15290701D01*
X21252209Y-15308933D01*
X21184829Y-15290446D01*
X21181113Y-15288058D01*
X21178231Y-15286132D01*
X21178229Y-15286131D01*
X21119752Y-15274500D01*
X21119748Y-15274500D01*
X20980252Y-15274500D01*
X20980250Y-15274500D01*
X20961143Y-15278300D01*
X20891551Y-15272071D01*
X20849274Y-15244363D01*
X20556818Y-14951907D01*
X20523333Y-14890584D01*
X20520499Y-14864234D01*
X20520499Y-14461628D01*
X20517682Y-14437338D01*
X20473813Y-14337984D01*
X20397016Y-14261187D01*
X20356968Y-14243504D01*
X20297663Y-14217318D01*
X20273373Y-14214500D01*
X19906634Y-14214500D01*
X19906626Y-14214501D01*
X19895786Y-14215758D01*
X19888038Y-14216656D01*
X19819179Y-14204826D01*
X19786074Y-14181163D01*
X19517547Y-13912636D01*
X19425479Y-13874500D01*
X19425478Y-13874500D01*
X19186319Y-13874500D01*
X19119280Y-13854815D01*
X19073525Y-13802011D01*
X19063846Y-13769897D01*
X19060647Y-13749700D01*
X19060647Y-13749699D01*
X19060646Y-13749697D01*
X19060646Y-13749696D01*
X19003050Y-13636658D01*
X19003046Y-13636654D01*
X19003045Y-13636652D01*
X18913347Y-13546954D01*
X18913344Y-13546952D01*
X18913342Y-13546950D01*
X18818252Y-13498499D01*
X18800301Y-13489352D01*
X18706524Y-13474500D01*
X17693482Y-13474500D01*
X17612519Y-13487323D01*
X17599696Y-13489354D01*
X17486658Y-13546950D01*
X17486657Y-13546951D01*
X17486652Y-13546954D01*
X17396954Y-13636652D01*
X17396951Y-13636657D01*
X17396950Y-13636658D01*
X17380203Y-13669525D01*
X17339352Y-13749698D01*
X17324500Y-13843475D01*
X17324500Y-14406517D01*
X17333107Y-14460857D01*
X17339354Y-14500304D01*
X17396950Y-14613342D01*
X17396952Y-14613344D01*
X17396954Y-14613347D01*
X17486652Y-14703045D01*
X17486654Y-14703046D01*
X17486658Y-14703050D01*
X17599694Y-14760645D01*
X17599698Y-14760647D01*
X17693475Y-14775499D01*
X17693481Y-14775500D01*
X18706518Y-14775499D01*
X18800304Y-14760646D01*
X18913342Y-14703050D01*
X19003050Y-14613342D01*
X19060646Y-14500304D01*
X19063845Y-14480102D01*
X19093774Y-14416968D01*
X19153085Y-14380037D01*
X19186319Y-14375500D01*
X19220527Y-14375500D01*
X19287566Y-14395185D01*
X19308208Y-14411819D01*
X19623181Y-14726792D01*
X19656666Y-14788115D01*
X19659500Y-14814471D01*
X19659500Y-14888364D01*
X19659502Y-14888388D01*
X19662317Y-14912659D01*
X19662318Y-14912662D01*
X19706186Y-15012015D01*
X19773370Y-15079199D01*
X19806855Y-15140522D01*
X19801871Y-15210214D01*
X19759999Y-15266147D01*
X19731908Y-15278691D01*
X19733054Y-15281458D01*
X19721768Y-15286132D01*
X19718887Y-15288058D01*
X19711655Y-15290322D01*
X19710487Y-15290806D01*
X19710443Y-15290701D01*
X19652209Y-15308933D01*
X19584829Y-15290446D01*
X19581113Y-15288058D01*
X19578231Y-15286132D01*
X19578229Y-15286131D01*
X19519752Y-15274500D01*
X19519748Y-15274500D01*
X19380252Y-15274500D01*
X19380247Y-15274500D01*
X19321770Y-15286131D01*
X19321768Y-15286132D01*
X19318887Y-15288058D01*
X19311655Y-15290322D01*
X19310487Y-15290806D01*
X19310443Y-15290701D01*
X19252209Y-15308933D01*
X19184829Y-15290446D01*
X19181113Y-15288058D01*
X19178231Y-15286132D01*
X19178229Y-15286131D01*
X19119752Y-15274500D01*
X19119748Y-15274500D01*
X18980252Y-15274500D01*
X18980247Y-15274500D01*
X18921770Y-15286131D01*
X18921769Y-15286132D01*
X18855447Y-15330447D01*
X18811132Y-15396769D01*
X18811131Y-15396770D01*
X18799500Y-15455247D01*
X18799500Y-16269750D01*
X18804217Y-16293467D01*
X18797988Y-16363058D01*
X18780976Y-16393140D01*
X18769049Y-16408684D01*
X18712622Y-16449888D01*
X18646484Y-16454817D01*
X18619750Y-16449500D01*
X18619748Y-16449500D01*
X18262328Y-16449500D01*
X17767254Y-16449500D01*
X17700215Y-16429815D01*
X17679572Y-16413180D01*
X17638346Y-16371953D01*
X17638344Y-16371952D01*
X17638342Y-16371950D01*
X17525304Y-16314354D01*
X17525303Y-16314353D01*
X17525300Y-16314352D01*
X17400003Y-16294508D01*
X17399997Y-16294508D01*
X17274699Y-16314352D01*
X17274698Y-16314352D01*
X17229383Y-16337442D01*
X17161658Y-16371950D01*
X17161657Y-16371951D01*
X17161652Y-16371954D01*
X17071954Y-16461652D01*
X17071951Y-16461657D01*
X17071950Y-16461658D01*
X17066704Y-16471954D01*
X17014352Y-16574698D01*
X17014352Y-16574699D01*
X16994508Y-16699996D01*
X16994508Y-16700003D01*
X17014352Y-16825300D01*
X17014352Y-16825301D01*
X17032805Y-16861517D01*
X17071950Y-16938342D01*
X17071952Y-16938344D01*
X17071954Y-16938347D01*
X17161652Y-17028045D01*
X17161654Y-17028046D01*
X17161658Y-17028050D01*
X17274696Y-17085646D01*
X17274697Y-17085646D01*
X17274699Y-17085647D01*
X17399997Y-17105492D01*
X17400000Y-17105492D01*
X17400002Y-17105492D01*
X17461027Y-17095826D01*
X17487496Y-17091634D01*
X17556789Y-17100588D01*
X17610241Y-17145584D01*
X17628511Y-17189916D01*
X17636131Y-17228229D01*
X17636132Y-17228231D01*
X17638058Y-17231113D01*
X17640322Y-17238344D01*
X17640806Y-17239513D01*
X17640701Y-17239556D01*
X17658933Y-17297791D01*
X17640446Y-17365171D01*
X17638058Y-17368887D01*
X17636132Y-17371768D01*
X17636131Y-17371770D01*
X17624500Y-17430247D01*
X17624500Y-17569752D01*
X17636131Y-17628229D01*
X17636132Y-17628231D01*
X17638058Y-17631113D01*
X17640322Y-17638344D01*
X17640806Y-17639513D01*
X17640701Y-17639556D01*
X17658933Y-17697791D01*
X17640446Y-17765171D01*
X17638058Y-17768887D01*
X17636132Y-17771768D01*
X17636131Y-17771770D01*
X17624500Y-17830247D01*
X17624500Y-17969752D01*
X17636131Y-18028229D01*
X17636132Y-18028230D01*
X17680447Y-18094552D01*
X17746769Y-18138867D01*
X17746770Y-18138868D01*
X17805247Y-18150499D01*
X17805250Y-18150500D01*
X18570500Y-18150500D01*
X18637539Y-18170185D01*
X18683294Y-18222989D01*
X18694500Y-18274500D01*
X18694500Y-18325500D01*
X18674815Y-18392539D01*
X18622011Y-18438294D01*
X18570500Y-18449500D01*
X17805252Y-18449500D01*
X17756113Y-18459274D01*
X17686522Y-18453045D01*
X17644242Y-18425337D01*
X17068611Y-17849706D01*
X17068609Y-17849703D01*
X16987737Y-17768831D01*
X16987736Y-17768830D01*
X16961916Y-17758135D01*
X16904855Y-17734499D01*
X16815145Y-17734499D01*
X16800711Y-17734499D01*
X16800703Y-17734500D01*
X16138870Y-17734500D01*
X16071831Y-17714815D01*
X16026076Y-17662011D01*
X16016132Y-17592853D01*
X16030374Y-17554667D01*
X16029198Y-17554130D01*
X16071203Y-17462152D01*
X16086697Y-17428226D01*
X16105133Y-17300000D01*
X16086697Y-17171774D01*
X16032882Y-17053937D01*
X15948049Y-16956033D01*
X15839069Y-16885996D01*
X15839065Y-16885994D01*
X15839064Y-16885994D01*
X15714774Y-16849500D01*
X15714772Y-16849500D01*
X15585228Y-16849500D01*
X15585226Y-16849500D01*
X15460935Y-16885994D01*
X15460932Y-16885995D01*
X15460931Y-16885996D01*
X15409677Y-16918934D01*
X15351950Y-16956033D01*
X15267118Y-17053937D01*
X15267117Y-17053938D01*
X15213302Y-17171774D01*
X15194867Y-17300000D01*
X15213302Y-17428225D01*
X15270802Y-17554130D01*
X15268841Y-17555025D01*
X15285130Y-17610501D01*
X15265445Y-17677540D01*
X15212641Y-17723295D01*
X15161130Y-17734500D01*
X15125145Y-17734500D01*
X15125143Y-17734500D01*
X15125141Y-17734501D01*
X15042267Y-17768827D01*
X15042264Y-17768830D01*
X14883767Y-17927325D01*
X14822446Y-17960809D01*
X14752754Y-17955825D01*
X14746002Y-17953077D01*
X14687666Y-17927319D01*
X14687662Y-17927318D01*
X14663373Y-17924500D01*
X14236634Y-17924500D01*
X14236611Y-17924502D01*
X14212340Y-17927317D01*
X14212337Y-17927318D01*
X14112984Y-17971186D01*
X14036187Y-18047983D01*
X13992318Y-18147335D01*
X13992318Y-18147337D01*
X13989500Y-18171625D01*
X13989500Y-18445231D01*
X13969815Y-18512270D01*
X13953182Y-18532912D01*
X13872914Y-18613181D01*
X13811591Y-18646666D01*
X13785232Y-18649500D01*
X12369767Y-18649500D01*
X12302728Y-18629815D01*
X12282086Y-18613181D01*
X12086819Y-18417914D01*
X12053334Y-18356591D01*
X12050500Y-18330233D01*
X12050500Y-17319079D01*
X12070185Y-17252040D01*
X12122989Y-17206285D01*
X12192147Y-17196341D01*
X12193819Y-17196593D01*
X12250000Y-17205492D01*
X12250003Y-17205492D01*
X12375300Y-17185647D01*
X12375301Y-17185647D01*
X12375302Y-17185646D01*
X12375304Y-17185646D01*
X12488342Y-17128050D01*
X12578050Y-17038342D01*
X12635646Y-16925304D01*
X12635646Y-16925302D01*
X12635647Y-16925301D01*
X12635647Y-16925300D01*
X12655492Y-16800003D01*
X12655492Y-16799996D01*
X12635647Y-16674699D01*
X12635647Y-16674698D01*
X12629912Y-16663442D01*
X12578050Y-16561658D01*
X12578046Y-16561654D01*
X12578045Y-16561652D01*
X12488347Y-16471954D01*
X12488344Y-16471952D01*
X12488342Y-16471950D01*
X12375304Y-16414354D01*
X12375303Y-16414353D01*
X12375300Y-16414352D01*
X12250003Y-16394508D01*
X12249995Y-16394508D01*
X12237647Y-16396463D01*
X12168354Y-16387505D01*
X12130575Y-16361670D01*
X10788610Y-15019705D01*
X10771170Y-15002264D01*
X10707736Y-14938830D01*
X10707735Y-14938829D01*
X10683457Y-14928772D01*
X10683457Y-14928771D01*
X10624858Y-14904500D01*
X10624856Y-14904499D01*
X10624855Y-14904499D01*
X10535145Y-14904499D01*
X10520711Y-14904499D01*
X10520703Y-14904500D01*
X9000000Y-14904500D01*
X9000000Y-13119946D01*
X9175346Y-13295292D01*
X9208831Y-13356615D01*
X9211622Y-13382578D01*
X9231509Y-13508144D01*
X9241997Y-13528727D01*
X9289107Y-13621185D01*
X9289109Y-13621187D01*
X9289111Y-13621190D01*
X9378809Y-13710888D01*
X9378811Y-13710889D01*
X9378815Y-13710893D01*
X9491853Y-13768489D01*
X9491854Y-13768489D01*
X9491856Y-13768490D01*
X9617154Y-13788335D01*
X9617157Y-13788335D01*
X9617160Y-13788335D01*
X9742457Y-13768490D01*
X9742458Y-13768490D01*
X9742459Y-13768489D01*
X9742461Y-13768489D01*
X9855499Y-13710893D01*
X9945207Y-13621185D01*
X10002803Y-13508147D01*
X10002803Y-13508145D01*
X10002804Y-13508144D01*
X10002804Y-13508143D01*
X10022649Y-13382846D01*
X10022649Y-13382839D01*
X10002804Y-13257542D01*
X10002804Y-13257541D01*
X9986045Y-13224650D01*
X9945207Y-13144501D01*
X9945203Y-13144497D01*
X9945202Y-13144495D01*
X9855504Y-13054797D01*
X9855500Y-13054794D01*
X9855499Y-13054793D01*
X9829430Y-13041510D01*
X9778636Y-12993538D01*
X9761841Y-12925717D01*
X9784378Y-12859582D01*
X9798047Y-12843345D01*
X9836257Y-12805135D01*
X9836261Y-12805131D01*
X9893857Y-12692093D01*
X9893857Y-12692091D01*
X9893858Y-12692090D01*
X9893858Y-12692089D01*
X9913703Y-12566792D01*
X9913703Y-12566785D01*
X9893858Y-12441488D01*
X9893858Y-12441487D01*
X9886372Y-12426795D01*
X9836261Y-12328447D01*
X9836257Y-12328443D01*
X9836256Y-12328441D01*
X9746558Y-12238743D01*
X9746555Y-12238741D01*
X9746553Y-12238739D01*
X9633515Y-12181143D01*
X9633514Y-12181142D01*
X9633511Y-12181141D01*
X9508214Y-12161297D01*
X9508208Y-12161297D01*
X9404300Y-12177754D01*
X9335007Y-12168799D01*
X9297222Y-12142962D01*
X9000000Y-11845739D01*
X9000000Y-10969910D01*
X10103892Y-12073803D01*
X10103901Y-12073811D01*
X10103907Y-12073817D01*
X10116077Y-12084768D01*
X10116084Y-12084774D01*
X10116090Y-12084779D01*
X10136342Y-12101158D01*
X10136351Y-12101165D01*
X10171983Y-12119925D01*
X10189799Y-12129305D01*
X10256765Y-12149225D01*
X10256766Y-12149225D01*
X10256769Y-12149226D01*
X10300556Y-12155679D01*
X10682621Y-12157027D01*
X12975007Y-12165116D01*
X12975007Y-12165115D01*
X12975013Y-12165116D01*
X13006119Y-12161854D01*
X13008339Y-12161622D01*
X13008339Y-12161621D01*
X13008348Y-12161621D01*
X13049306Y-12152786D01*
X13075446Y-12150000D01*
X13627335Y-12150000D01*
X13628410Y-12149413D01*
X13675682Y-12149412D01*
X13675803Y-12148571D01*
X13704103Y-12152639D01*
X13724000Y-12155500D01*
X13724003Y-12155500D01*
X13951417Y-12155500D01*
X14018456Y-12175185D01*
X14064211Y-12227989D01*
X14074155Y-12297147D01*
X14045130Y-12360703D01*
X14038416Y-12366691D01*
X14038984Y-12367259D01*
X13955386Y-12450856D01*
X13955381Y-12450863D01*
X13912270Y-12548499D01*
X13909500Y-12572375D01*
X13909500Y-12927615D01*
X13909502Y-12927638D01*
X13912269Y-12951495D01*
X13912269Y-12951498D01*
X13955380Y-13049135D01*
X13955386Y-13049143D01*
X14038984Y-13132741D01*
X14037484Y-13134240D01*
X14072248Y-13176835D01*
X14080150Y-13246256D01*
X14049264Y-13308929D01*
X14034654Y-13321588D01*
X13955386Y-13400856D01*
X13955381Y-13400863D01*
X13912270Y-13498499D01*
X13909500Y-13522375D01*
X13909500Y-13877615D01*
X13909502Y-13877638D01*
X13912269Y-13901495D01*
X13912269Y-13901498D01*
X13955380Y-13999135D01*
X13955383Y-13999139D01*
X13955384Y-13999141D01*
X14030859Y-14074616D01*
X14030862Y-14074617D01*
X14030863Y-14074618D01*
X14128499Y-14117729D01*
X14128500Y-14117729D01*
X14128502Y-14117730D01*
X14152377Y-14120500D01*
X14607622Y-14120499D01*
X14631498Y-14117730D01*
X14729135Y-14074619D01*
X14729136Y-14074618D01*
X14729141Y-14074616D01*
X14804616Y-13999141D01*
X14847730Y-13901498D01*
X14850500Y-13877623D01*
X14850499Y-13522378D01*
X14847730Y-13498502D01*
X14843690Y-13489352D01*
X14804619Y-13400864D01*
X14804617Y-13400861D01*
X14804616Y-13400859D01*
X14729141Y-13325384D01*
X14721016Y-13317259D01*
X14722516Y-13315758D01*
X14687754Y-13273173D01*
X14679848Y-13203752D01*
X14710729Y-13141077D01*
X14725339Y-13128417D01*
X14729139Y-13124616D01*
X14729141Y-13124616D01*
X14804616Y-13049141D01*
X14847730Y-12951498D01*
X14850500Y-12927623D01*
X14850499Y-12572378D01*
X14847730Y-12548502D01*
X14845063Y-12542461D01*
X14804619Y-12450864D01*
X14804617Y-12450861D01*
X14804616Y-12450859D01*
X14729141Y-12375384D01*
X14721016Y-12367259D01*
X14724115Y-12364159D01*
X14694350Y-12327736D01*
X14686405Y-12258320D01*
X14717252Y-12195628D01*
X14777095Y-12159565D01*
X14808583Y-12155500D01*
X16648546Y-12155500D01*
X16648556Y-12155500D01*
X16665263Y-12154600D01*
X16665269Y-12154599D01*
X16665275Y-12154599D01*
X16682040Y-12152787D01*
X16691756Y-12151737D01*
X16749724Y-12133533D01*
X16811010Y-12099980D01*
X16846412Y-12073417D01*
X20728421Y-8182769D01*
X20789706Y-8149217D01*
X20815932Y-8146354D01*
X27570827Y-8132051D01*
X27637908Y-8151594D01*
X27683775Y-8204301D01*
X27693865Y-8273438D01*
X27664975Y-8337055D01*
X27649755Y-8351904D01*
X27519116Y-8459116D01*
X27394090Y-8611460D01*
X27394086Y-8611467D01*
X27301188Y-8785266D01*
X27243975Y-8973870D01*
X27224659Y-9170000D01*
X27243975Y-9366129D01*
X27301188Y-9554733D01*
X27394086Y-9728532D01*
X27394090Y-9728539D01*
X27519116Y-9880883D01*
X27671460Y-10005909D01*
X27671467Y-10005913D01*
X27845266Y-10098811D01*
X27845269Y-10098811D01*
X27845273Y-10098814D01*
X28033868Y-10156024D01*
X28230000Y-10175341D01*
X28426132Y-10156024D01*
X28614727Y-10098814D01*
X28663842Y-10072560D01*
X28732245Y-10058319D01*
X28797489Y-10083318D01*
X28809977Y-10094238D01*
X29528189Y-10812450D01*
X29561674Y-10873773D01*
X29564465Y-10899733D01*
X29584352Y-11025300D01*
X29584352Y-11025301D01*
X29600055Y-11056119D01*
X29641950Y-11138342D01*
X29641952Y-11138344D01*
X29641954Y-11138347D01*
X29731652Y-11228045D01*
X29731654Y-11228046D01*
X29731658Y-11228050D01*
X29844696Y-11285646D01*
X29844697Y-11285646D01*
X29844699Y-11285647D01*
X29969997Y-11305492D01*
X29970000Y-11305492D01*
X29970003Y-11305492D01*
X30095300Y-11285647D01*
X30095301Y-11285647D01*
X30095302Y-11285646D01*
X30095304Y-11285646D01*
X30208342Y-11228050D01*
X30298050Y-11138342D01*
X30355646Y-11025304D01*
X30355646Y-11025302D01*
X30355647Y-11025301D01*
X30355647Y-11025300D01*
X30375492Y-10900003D01*
X30375492Y-10899996D01*
X30355647Y-10774699D01*
X30355647Y-10774698D01*
X30355646Y-10774696D01*
X30298050Y-10661658D01*
X30298046Y-10661654D01*
X30298045Y-10661652D01*
X30208347Y-10571954D01*
X30208344Y-10571952D01*
X30208342Y-10571950D01*
X30095304Y-10514354D01*
X30095303Y-10514353D01*
X30095300Y-10514352D01*
X29960362Y-10492981D01*
X29960565Y-10491699D01*
X29903092Y-10474823D01*
X29882450Y-10458189D01*
X29161204Y-9736943D01*
X29127719Y-9675620D01*
X29132703Y-9605928D01*
X29139526Y-9590811D01*
X29158814Y-9554727D01*
X29216024Y-9366132D01*
X29235341Y-9170000D01*
X29216024Y-8973868D01*
X29158814Y-8785273D01*
X29158811Y-8785269D01*
X29158811Y-8785266D01*
X29065913Y-8611467D01*
X29065909Y-8611460D01*
X28940883Y-8459116D01*
X28806853Y-8349120D01*
X28767519Y-8291374D01*
X28765648Y-8221529D01*
X28801836Y-8161761D01*
X28864592Y-8131045D01*
X28885242Y-8129268D01*
X30117400Y-8126659D01*
X30184478Y-8146201D01*
G37*
%TD.AperFunction*%
%TA.AperFunction,Conductor*%
G36*
X63637539Y-15010185D02*
G01*
X63683294Y-15062989D01*
X63694500Y-15114500D01*
X63694500Y-15469876D01*
X63674815Y-15536915D01*
X63658181Y-15557557D01*
X63158103Y-16057636D01*
X63087637Y-16128101D01*
X63087636Y-16128102D01*
X63049500Y-16220170D01*
X63049500Y-16767188D01*
X63029815Y-16834227D01*
X62977011Y-16879982D01*
X62975587Y-16880622D01*
X62962988Y-16886185D01*
X62962986Y-16886186D01*
X62962984Y-16886187D01*
X62962983Y-16886187D01*
X62962981Y-16886189D01*
X62886187Y-16962983D01*
X62842318Y-17062335D01*
X62842318Y-17062337D01*
X62839500Y-17086625D01*
X62839500Y-17453365D01*
X62839502Y-17453388D01*
X62842317Y-17477659D01*
X62842318Y-17477662D01*
X62886186Y-17577015D01*
X62886187Y-17577016D01*
X62962984Y-17653813D01*
X63062338Y-17697682D01*
X63086627Y-17700500D01*
X63513372Y-17700499D01*
X63537662Y-17697682D01*
X63637016Y-17653813D01*
X63712319Y-17578510D01*
X63773642Y-17545025D01*
X63843334Y-17550009D01*
X63887681Y-17578510D01*
X63962984Y-17653813D01*
X64062338Y-17697682D01*
X64086627Y-17700500D01*
X64513372Y-17700499D01*
X64537662Y-17697682D01*
X64637016Y-17653813D01*
X64712319Y-17578510D01*
X64773642Y-17545025D01*
X64843334Y-17550009D01*
X64887681Y-17578510D01*
X64962984Y-17653813D01*
X65062338Y-17697682D01*
X65086627Y-17700500D01*
X65513372Y-17700499D01*
X65537662Y-17697682D01*
X65637016Y-17653813D01*
X65712319Y-17578510D01*
X65773642Y-17545025D01*
X65843334Y-17550009D01*
X65887681Y-17578510D01*
X65962984Y-17653813D01*
X66062338Y-17697682D01*
X66086627Y-17700500D01*
X66513372Y-17700499D01*
X66537662Y-17697682D01*
X66637016Y-17653813D01*
X66713813Y-17577016D01*
X66713813Y-17577015D01*
X66721938Y-17568891D01*
X66723933Y-17570886D01*
X66764607Y-17537672D01*
X66834027Y-17529752D01*
X66896708Y-17560620D01*
X66900484Y-17564241D01*
X66950859Y-17614616D01*
X66950862Y-17614617D01*
X66950863Y-17614618D01*
X67048499Y-17657729D01*
X67048500Y-17657729D01*
X67048502Y-17657730D01*
X67072377Y-17660500D01*
X67527622Y-17660499D01*
X67551498Y-17657730D01*
X67649135Y-17614619D01*
X67649136Y-17614618D01*
X67649141Y-17614616D01*
X67724616Y-17539141D01*
X67767730Y-17441498D01*
X67770500Y-17417623D01*
X67770499Y-17062378D01*
X67767730Y-17038502D01*
X67767662Y-17038347D01*
X67724619Y-16940864D01*
X67724617Y-16940861D01*
X67724616Y-16940859D01*
X67649141Y-16865384D01*
X67649138Y-16865383D01*
X67649136Y-16865381D01*
X67551500Y-16822270D01*
X67551501Y-16822270D01*
X67527624Y-16819500D01*
X67527623Y-16819500D01*
X67249767Y-16819500D01*
X67182728Y-16799815D01*
X67162086Y-16783181D01*
X66896602Y-16517697D01*
X66863117Y-16456374D01*
X66868101Y-16386682D01*
X66909973Y-16330749D01*
X66964886Y-16307543D01*
X67046258Y-16294655D01*
X67046259Y-16294655D01*
X67046260Y-16294654D01*
X67046262Y-16294654D01*
X67159300Y-16237058D01*
X67199952Y-16196406D01*
X67255909Y-16140450D01*
X67258363Y-16142904D01*
X67299744Y-16110978D01*
X67369356Y-16104980D01*
X67431159Y-16137570D01*
X67432443Y-16138836D01*
X67511652Y-16218045D01*
X67511654Y-16218046D01*
X67511658Y-16218050D01*
X67624696Y-16275646D01*
X67624697Y-16275646D01*
X67624699Y-16275647D01*
X67749997Y-16295492D01*
X67750000Y-16295492D01*
X67750003Y-16295492D01*
X67875300Y-16275647D01*
X67875301Y-16275647D01*
X67875302Y-16275646D01*
X67875304Y-16275646D01*
X67988342Y-16218050D01*
X67988347Y-16218045D01*
X67992819Y-16213574D01*
X68054142Y-16180089D01*
X68123834Y-16185073D01*
X68179767Y-16226945D01*
X68204184Y-16292409D01*
X68204500Y-16301255D01*
X68204500Y-16718260D01*
X68214426Y-16786391D01*
X68214427Y-16786393D01*
X68265802Y-16891483D01*
X68343182Y-16968863D01*
X68376666Y-17030184D01*
X68379500Y-17056543D01*
X68379500Y-17238100D01*
X68359815Y-17305139D01*
X68343181Y-17325781D01*
X68270174Y-17398787D01*
X68270172Y-17398789D01*
X68215135Y-17511371D01*
X68215134Y-17511373D01*
X68215134Y-17511375D01*
X68204500Y-17584364D01*
X68204500Y-18155636D01*
X68215134Y-18228625D01*
X68215134Y-18228626D01*
X68215135Y-18228628D01*
X68270172Y-18341210D01*
X68358789Y-18429827D01*
X68398213Y-18449100D01*
X68449796Y-18496227D01*
X68467710Y-18563762D01*
X68446269Y-18630260D01*
X68392280Y-18674610D01*
X68343753Y-18684500D01*
X62555834Y-18684500D01*
X62488795Y-18664815D01*
X62468291Y-18648319D01*
X62086342Y-18267573D01*
X62052761Y-18206303D01*
X62049885Y-18180052D01*
X62049810Y-18148861D01*
X62048911Y-17777489D01*
X62046275Y-16688084D01*
X62065798Y-16621000D01*
X62084049Y-16598675D01*
X63224621Y-15495145D01*
X63225218Y-15494564D01*
X63225354Y-15494431D01*
X63260298Y-15442758D01*
X63263666Y-15434626D01*
X63275500Y-15375125D01*
X63275500Y-15114500D01*
X63295185Y-15047461D01*
X63347989Y-15001706D01*
X63399500Y-14990500D01*
X63570500Y-14990500D01*
X63637539Y-15010185D01*
G37*
%TD.AperFunction*%
%TD*%
%TA.AperFunction,Conductor*%
%TO.N,GND*%
G36*
X9000000Y-24899500D02*
G01*
X6124000Y-24899500D01*
X6056961Y-24879815D01*
X6011206Y-24827011D01*
X6000000Y-24775500D01*
X6000000Y-24274500D01*
X6019685Y-24207461D01*
X6072489Y-24161706D01*
X6124000Y-24150500D01*
X6214822Y-24150500D01*
X6258717Y-24141768D01*
X6258717Y-24141767D01*
X6258722Y-24141767D01*
X6308504Y-24108504D01*
X6341767Y-24058722D01*
X6350500Y-24014820D01*
X6350500Y-23285180D01*
X6350500Y-23285177D01*
X6341768Y-23241282D01*
X6341767Y-23241281D01*
X6341767Y-23241278D01*
X6308504Y-23191496D01*
X6308503Y-23191495D01*
X6258724Y-23158234D01*
X6258717Y-23158231D01*
X6214822Y-23149500D01*
X6214820Y-23149500D01*
X6124000Y-23149500D01*
X6056961Y-23129815D01*
X6011206Y-23077011D01*
X6000000Y-23025500D01*
X6000000Y-22274500D01*
X6019685Y-22207461D01*
X6072489Y-22161706D01*
X6124000Y-22150500D01*
X6214822Y-22150500D01*
X6258717Y-22141768D01*
X6258717Y-22141767D01*
X6258722Y-22141767D01*
X6308504Y-22108504D01*
X6341767Y-22058722D01*
X6350500Y-22014820D01*
X6350500Y-21285180D01*
X6350500Y-21285177D01*
X6341768Y-21241282D01*
X6341767Y-21241278D01*
X6326807Y-21218889D01*
X6305930Y-21152214D01*
X6324414Y-21084833D01*
X6326792Y-21081132D01*
X6341767Y-21058722D01*
X6350500Y-21014820D01*
X6350500Y-20285180D01*
X6350500Y-20285177D01*
X6341768Y-20241282D01*
X6341767Y-20241281D01*
X6341767Y-20241278D01*
X6308504Y-20191496D01*
X6308503Y-20191495D01*
X6258724Y-20158234D01*
X6258717Y-20158231D01*
X6214822Y-20149500D01*
X6214820Y-20149500D01*
X6124000Y-20149500D01*
X6056961Y-20129815D01*
X6011206Y-20077011D01*
X6000000Y-20025500D01*
X6000000Y-19274500D01*
X6019685Y-19207461D01*
X6072489Y-19161706D01*
X6124000Y-19150500D01*
X6214822Y-19150500D01*
X6258717Y-19141768D01*
X6258717Y-19141767D01*
X6258722Y-19141767D01*
X6308504Y-19108504D01*
X6341767Y-19058722D01*
X6350500Y-19014820D01*
X6350500Y-18624500D01*
X6370185Y-18557461D01*
X6422989Y-18511706D01*
X6474500Y-18500500D01*
X8161905Y-18500500D01*
X8161906Y-18500500D01*
X8382664Y-18463661D01*
X8594349Y-18390990D01*
X8791185Y-18284468D01*
X8967803Y-18147000D01*
X9000000Y-18112024D01*
X9000000Y-24899500D01*
G37*
%TD.AperFunction*%
%TA.AperFunction,Conductor*%
G36*
X6700520Y-13895185D02*
G01*
X6721162Y-13911819D01*
X8060007Y-15250664D01*
X8060010Y-15250668D01*
X8067078Y-15257736D01*
X8130512Y-15321170D01*
X8154785Y-15331224D01*
X8154786Y-15331225D01*
X8154787Y-15331225D01*
X8213393Y-15355501D01*
X8213394Y-15355501D01*
X8317537Y-15355501D01*
X8317545Y-15355500D01*
X9000000Y-15355500D01*
X9000000Y-16187975D01*
X8967803Y-16153000D01*
X8967802Y-16152999D01*
X8967800Y-16152997D01*
X8967796Y-16152994D01*
X8791188Y-16015534D01*
X8791179Y-16015528D01*
X8594355Y-15909013D01*
X8594345Y-15909008D01*
X8382666Y-15836339D01*
X8235492Y-15811779D01*
X8161906Y-15799500D01*
X8161905Y-15799500D01*
X7511161Y-15799500D01*
X7444122Y-15779815D01*
X7398367Y-15727011D01*
X7388423Y-15657853D01*
X7388688Y-15656103D01*
X7405492Y-15550003D01*
X7405492Y-15549996D01*
X7385647Y-15424699D01*
X7385647Y-15424698D01*
X7364192Y-15382591D01*
X7328050Y-15311658D01*
X7328046Y-15311654D01*
X7328045Y-15311652D01*
X7238347Y-15221954D01*
X7238344Y-15221952D01*
X7238342Y-15221950D01*
X7125304Y-15164354D01*
X7125303Y-15164353D01*
X7125300Y-15164352D01*
X7000003Y-15144508D01*
X6999997Y-15144508D01*
X6874699Y-15164352D01*
X6874698Y-15164352D01*
X6821427Y-15191496D01*
X6761658Y-15221950D01*
X6761657Y-15221951D01*
X6761652Y-15221954D01*
X6671954Y-15311652D01*
X6671949Y-15311659D01*
X6661689Y-15331796D01*
X6613714Y-15382591D01*
X6551205Y-15399500D01*
X6474147Y-15399500D01*
X6407108Y-15379815D01*
X6361353Y-15327011D01*
X6350744Y-15287657D01*
X6350500Y-15285185D01*
X6350500Y-15285180D01*
X6345041Y-15257736D01*
X6341768Y-15241282D01*
X6341767Y-15241278D01*
X6328853Y-15221951D01*
X6326807Y-15218889D01*
X6305930Y-15152214D01*
X6324414Y-15084833D01*
X6326792Y-15081132D01*
X6341767Y-15058722D01*
X6350500Y-15014820D01*
X6350500Y-14285180D01*
X6350500Y-14285177D01*
X6341768Y-14241282D01*
X6341767Y-14241278D01*
X6339277Y-14237552D01*
X6326807Y-14218889D01*
X6305930Y-14152214D01*
X6324414Y-14084833D01*
X6326792Y-14081132D01*
X6341767Y-14058722D01*
X6345614Y-14039385D01*
X6350500Y-14014822D01*
X6350500Y-13999500D01*
X6370185Y-13932461D01*
X6422989Y-13886706D01*
X6474500Y-13875500D01*
X6633481Y-13875500D01*
X6700520Y-13895185D01*
G37*
%TD.AperFunction*%
%TA.AperFunction,Conductor*%
G36*
X6796230Y-10920185D02*
G01*
X6816872Y-10936819D01*
X7995984Y-12115931D01*
X9000000Y-13119946D01*
X9000000Y-14904500D01*
X8403015Y-14904500D01*
X8335976Y-14884815D01*
X8315334Y-14868181D01*
X7684705Y-14237552D01*
X7651220Y-14176229D01*
X7656204Y-14106537D01*
X7698076Y-14050604D01*
X7716079Y-14039393D01*
X7738342Y-14028050D01*
X7828050Y-13938342D01*
X7885646Y-13825304D01*
X7885646Y-13825302D01*
X7885647Y-13825301D01*
X7885647Y-13825300D01*
X7905492Y-13700003D01*
X7905492Y-13699996D01*
X7885647Y-13574699D01*
X7885647Y-13574698D01*
X7851737Y-13508147D01*
X7828050Y-13461658D01*
X7828046Y-13461654D01*
X7828045Y-13461652D01*
X7738347Y-13371954D01*
X7738344Y-13371952D01*
X7738342Y-13371950D01*
X7625304Y-13314354D01*
X7625303Y-13314353D01*
X7625300Y-13314352D01*
X7490362Y-13292981D01*
X7490565Y-13291699D01*
X7433092Y-13274823D01*
X7412450Y-13258189D01*
X6591897Y-12437636D01*
X6499829Y-12399500D01*
X6499828Y-12399500D01*
X6474147Y-12399500D01*
X6407108Y-12379815D01*
X6361353Y-12327011D01*
X6350744Y-12287657D01*
X6350500Y-12285185D01*
X6350500Y-12285180D01*
X6341767Y-12241278D01*
X6308504Y-12191496D01*
X6293010Y-12181143D01*
X6258724Y-12158234D01*
X6258717Y-12158231D01*
X6214822Y-12149500D01*
X6214820Y-12149500D01*
X6124000Y-12149500D01*
X6056961Y-12129815D01*
X6011206Y-12077011D01*
X6000000Y-12025500D01*
X6000000Y-11274500D01*
X6019685Y-11207461D01*
X6072489Y-11161706D01*
X6124000Y-11150500D01*
X6214822Y-11150500D01*
X6258717Y-11141768D01*
X6258717Y-11141767D01*
X6258722Y-11141767D01*
X6308504Y-11108504D01*
X6341767Y-11058722D01*
X6350500Y-11014820D01*
X6350500Y-11014813D01*
X6350744Y-11012343D01*
X6351235Y-11011126D01*
X6351689Y-11008845D01*
X6352121Y-11008931D01*
X6376906Y-10947557D01*
X6433942Y-10907199D01*
X6474147Y-10900500D01*
X6729191Y-10900500D01*
X6796230Y-10920185D01*
G37*
%TD.AperFunction*%
%TA.AperFunction,Conductor*%
G36*
X6201267Y-8175185D02*
G01*
X6221909Y-8191819D01*
X9000000Y-10969910D01*
X9000000Y-11845739D01*
X6591897Y-9437636D01*
X6499829Y-9399500D01*
X6499828Y-9399500D01*
X6474147Y-9399500D01*
X6407108Y-9379815D01*
X6361353Y-9327011D01*
X6350744Y-9287657D01*
X6350500Y-9285185D01*
X6350500Y-9285180D01*
X6341767Y-9241278D01*
X6308504Y-9191496D01*
X6308503Y-9191495D01*
X6258724Y-9158234D01*
X6258717Y-9158231D01*
X6214822Y-9149500D01*
X6214820Y-9149500D01*
X6124000Y-9149500D01*
X6056961Y-9129815D01*
X6011206Y-9077011D01*
X6000000Y-9025500D01*
X6000000Y-8279500D01*
X6019685Y-8212461D01*
X6072489Y-8166706D01*
X6124000Y-8155500D01*
X6134228Y-8155500D01*
X6201267Y-8175185D01*
G37*
%TD.AperFunction*%
%TD*%
M02*
